<svg xmlns="http://www.w3.org/2000/svg" xmlns:xlink="http://www.w3.org/1999/xlink" width="100" zoomAndPan="magnify" viewBox="0 0 75 74.999997" height="100" preserveAspectRatio="xMidYMid meet" version="1.2"><defs><clipPath id="a24f9020dd"><path d="M 31 9.324219 L 54 9.324219 L 54 35 L 31 35 Z M 31 9.324219 "/></clipPath><clipPath id="fa34c54cd2"><path d="M 2.769531 24 L 72.519531 24 L 72.519531 65.574219 L 2.769531 65.574219 Z M 2.769531 24 "/></clipPath><clipPath id="80ade93a3d"><path d="M 50.355469 32.1875 L 55.667969 32.1875 L 55.667969 37.5 L 50.355469 37.5 Z M 50.355469 32.1875 "/></clipPath><clipPath id="19bc8b08aa"><path d="M 53.011719 32.1875 C 51.546875 32.1875 50.355469 33.375 50.355469 34.84375 C 50.355469 36.3125 51.546875 37.5 53.011719 37.5 C 54.480469 37.5 55.667969 36.3125 55.667969 34.84375 C 55.667969 33.375 54.480469 32.1875 53.011719 32.1875 Z M 53.011719 32.1875 "/></clipPath></defs><g id="34b70bb3a4"><g clip-rule="nonzero" clip-path="url(#a24f9020dd)"><path style=" stroke:none;fill-rule:nonzero;fill:#000000;fill-opacity:1;" d="M 53.621094 12.804688 C 54.03125 12.105469 53.886719 11.128906 53.246094 10.269531 L 52.574219 9.375 L 31 34.554688 L 39.085938 34.554688 Z M 53.621094 12.804688 "/></g><path style=" stroke:none;fill-rule:nonzero;fill:#000000;fill-opacity:1;" d="M 11.585938 26.023438 L 8.503906 26.023438 L 8.609375 26.621094 L 14.390625 33.792969 Z M 11.585938 26.023438 "/><g clip-rule="nonzero" clip-path="url(#fa34c54cd2)"><path style=" stroke:none;fill-rule:nonzero;fill:#000000;fill-opacity:1;" d="M 65.4375 35.769531 L 72.242188 35.769531 C 72.402344 35.769531 72.535156 35.640625 72.535156 35.480469 C 72.535156 35.320312 72.402344 35.191406 72.242188 35.191406 L 65.4375 35.191406 C 64.867188 33.632812 59.90625 31.640625 55.140625 31.640625 C 51.441406 31.640625 49.027344 31.875 46.445312 33.363281 C 44.292969 34.609375 41.867188 35.3125 39.375 35.3125 L 14.636719 35.3125 L 6.210938 24.855469 L 2.769531 24.855469 L 9.296875 35.308594 L 9.078125 35.308594 C 8.738281 35.308594 8.460938 35.585938 8.460938 35.925781 L 8.460938 36.457031 C 8.460938 36.667969 8.570312 36.867188 8.75 36.980469 L 10.839844 38.285156 C 11.917969 38.957031 13.164062 39.3125 14.433594 39.3125 L 26.144531 39.3125 L 27.855469 37.167969 L 28.789062 37.269531 L 6.921875 64.683594 L 8 65.195312 C 8.457031 65.414062 8.921875 65.515625 9.355469 65.523438 C 9.886719 65.527344 10.371094 65.378906 10.734375 65.0625 L 35.8125 40.191406 L 51.871094 40.191406 C 52.558594 40.191406 53.261719 40.148438 53.972656 40.070312 C 56.449219 39.8125 59 39.144531 61.085938 38.390625 C 63.382812 37.675781 65.113281 36.65625 65.4375 35.769531 Z M 65.4375 35.769531 "/></g><g clip-rule="nonzero" clip-path="url(#80ade93a3d)"><g clip-rule="nonzero" clip-path="url(#19bc8b08aa)"><path style=" stroke:none;fill-rule:nonzero;fill:#000000;fill-opacity:1;" d="M 50.355469 32.1875 L 55.667969 32.1875 L 55.667969 37.5 L 50.355469 37.5 Z M 50.355469 32.1875 "/></g></g></g></svg>