<svg xmlns="http://www.w3.org/2000/svg" xmlns:xlink="http://www.w3.org/1999/xlink" width="300" zoomAndPan="magnify" viewBox="0 0 224.87999 74.999997" height="100" preserveAspectRatio="xMidYMid meet" version="1.0"><defs><clipPath id="69ce404b2e"><path d="M 10 3 L 214.613281 3 L 214.613281 72.503906 L 10 72.503906 Z M 10 3 " clip-rule="nonzero"/></clipPath></defs><g clip-path="url(#69ce404b2e)"><path fill="#000000" d="M 214.425781 24.726562 C 213.78125 21.871094 211.839844 22.085938 211.046875 22.066406 C 210.25 22.042969 170.523438 21.957031 170.523438 21.957031 L 170.15625 21.703125 L 159.816406 21.769531 C 159.363281 22.175781 159.085938 22.679688 158.976562 23.28125 C 159.0625 22.558594 159.085938 21.464844 158.527344 20.945312 C 157.660156 20.125 157.167969 20.378906 157.167969 20.378906 L 156.40625 20.3125 L 154.785156 20.261719 L 154.640625 19.171875 L 151.863281 17.492188 L 151.140625 17.492188 L 151.140625 16.535156 C 150.6875 16.136719 150.164062 15.894531 149.570312 15.8125 L 148.390625 14.980469 L 144.707031 14.886719 L 144.417969 15.328125 L 140.074219 15.328125 L 139.75 13.347656 L 138.484375 13.0625 L 138.101562 13.0625 L 137.804688 11.617188 L 137.179688 11.617188 L 136.992188 12.066406 L 136.023438 11.203125 L 135.503906 11.203125 L 135.269531 10.785156 L 130.703125 10.886719 C 130.097656 10.597656 129.472656 10.355469 128.832031 10.160156 L 128.246094 10.039062 L 128.179688 9.53125 L 125.761719 9.460938 L 125.703125 10.082031 L 124.257812 10.726562 L 120.414062 10.921875 L 120.335938 9.953125 C 119.777344 9.734375 119.203125 9.671875 118.613281 9.765625 C 118.351562 9.769531 118.117188 9.847656 117.902344 9.996094 C 117.691406 10.148438 117.539062 10.34375 117.449219 10.589844 L 117.449219 11.042969 L 116.832031 10.847656 L 115.453125 10.914062 L 115.453125 12.058594 L 114.171875 12.222656 L 114.019531 13.707031 L 113.460938 14.035156 L 113.605469 15.945312 L 114.582031 16.933594 L 114.582031 17.941406 L 113.546875 17.875 L 113.460938 17.320312 L 98.597656 17.21875 L 98.402344 17.941406 L 97.644531 17.941406 L 97.558594 17.21875 L 96.109375 17.273438 L 96.023438 17.960938 L 95.574219 17.882812 L 95.320312 17.28125 L 94.597656 17.121094 C 94.597656 17.121094 97.492188 17.035156 98.144531 15.464844 C 98.792969 13.894531 98.664062 10.785156 95.777344 10.175781 L 91.871094 10.089844 C 91.871094 10.089844 90.683594 10.472656 90.359375 8.835938 C 90.03125 7.203125 89.089844 3.773438 89.089844 3.773438 C 88.472656 3.214844 87.75 2.972656 86.921875 3.050781 C 85.300781 3.019531 78.859375 3.019531 78.859375 3.019531 L 78.535156 4.605469 C 78.535156 4.605469 79.375 6.777344 78.535156 8.300781 C 78.117188 9.117188 77.554688 9.8125 76.847656 10.394531 L 76.371094 12.5625 L 76.074219 13.070312 L 76.039062 14.316406 L 76.1875 14.945312 L 75.734375 15.242188 L 75.699219 16.550781 L 75.949219 17.179688 L 75.328125 17.304688 L 70.769531 17.09375 L 70.601562 8.859375 L 69.878906 8.492188 L 65.734375 7.570312 C 65.734375 7.570312 65.25 7.570312 64.285156 8.597656 C 63.324219 9.625 62.839844 10.046875 62.839844 10.046875 C 62.882812 11.058594 62.792969 12.058594 62.570312 13.050781 C 62.421875 13.757812 62.148438 14.417969 61.753906 15.023438 L 61.753906 16.6875 C 61.753906 16.6875 63.164062 16.730469 63.308594 17.703125 L 64.574219 18.121094 L 59.257812 18.214844 L 59.046875 18.492188 L 56.210938 18.367188 L 55.898438 20.777344 L 57.652344 21.210938 L 55.429688 21.355469 C 55.429688 21.355469 55.046875 20.308594 54.46875 20.183594 C 53.886719 20.0625 22.042969 20.039062 22.042969 20.039062 C 20.660156 20.203125 19.433594 20.730469 18.367188 21.625 C 18.207031 21.753906 13.859375 20.828125 12.613281 22 C 12.160156 22.070312 11.75 22.246094 11.386719 22.527344 C 11.019531 22.808594 10.746094 23.15625 10.558594 23.578125 C 9.964844 25.023438 10.03125 27.363281 10.394531 29.242188 C 10.753906 31.125 13.496094 40.878906 13.097656 47.160156 C 13.097656 47.160156 13.027344 51.863281 15.269531 52.066406 C 17.511719 52.269531 20.242188 52.421875 21.328125 50.792969 C 22.410156 49.164062 23.886719 48.382812 24.945312 47.585938 C 26 46.789062 41.074219 36.796875 41.074219 36.796875 L 46.136719 33.496094 L 52.425781 33.75 L 53.09375 32.117188 L 54.257812 33.671875 C 54.257812 33.671875 57.476562 32.457031 59.570312 34.242188 C 61.660156 36.03125 62.738281 39.25 59.308594 42.738281 C 55.878906 46.226562 51.5 55.4375 51.203125 60.90625 C 51.203125 60.90625 50.753906 61.855469 54.214844 61.964844 C 57.671875 62.074219 62.992188 62.085938 63.917969 60.945312 C 64.84375 59.800781 63.976562 59.078125 63.976562 59.078125 C 63.976562 59.078125 66.558594 51.191406 66.558594 50.980469 C 66.558594 50.769531 68.636719 50.90625 68.585938 50.214844 C 68.535156 49.519531 67.382812 48.722656 67.382812 48.722656 L 68.738281 45.105469 C 68.738281 45.105469 71.839844 45.335938 72.273438 44.65625 L 80.640625 44.835938 L 82.976562 45.320312 C 82.976562 45.320312 84.75 64.34375 89.285156 72.09375 L 102.382812 66.566406 L 102.382812 65.386719 C 102.382812 65.386719 97.832031 51.21875 98.042969 44.519531 C 98.042969 44.519531 99.917969 44.367188 99.878906 43.121094 C 99.511719 42.777344 99.109375 42.488281 98.664062 42.253906 L 98.664062 32.796875 L 99.242188 31.984375 L 101.050781 31.625 C 101.167969 32.03125 101.394531 32.363281 101.730469 32.617188 C 102.070312 32.871094 102.453125 32.996094 102.875 32.992188 L 104.121094 32.890625 L 104.121094 32.269531 L 105.15625 32.269531 L 105.15625 33.027344 L 106.601562 33.027344 L 106.601562 32.203125 L 107.5 32.296875 L 107.5 33.257812 L 108.816406 33.257812 L 108.816406 32.296875 L 109.851562 32.296875 L 109.851562 33.019531 L 110.8125 33.121094 L 110.8125 32.085938 L 112.125 32.085938 L 112.125 33.054688 L 113.296875 33.054688 L 113.296875 32.023438 L 114.394531 32.1875 L 114.351562 33.570312 C 114.351562 33.570312 116.464844 34.53125 115.753906 37.484375 C 115.046875 40.4375 114.574219 49.785156 115.421875 52.414062 C 115.421875 52.414062 123.714844 53.351562 123.960938 51.90625 C 124.207031 50.460938 124.605469 42.035156 124.332031 39.75 C 124.054688 37.464844 123.113281 36.8125 124.699219 34.4375 L 124.757812 32.570312 L 132.839844 32.671875 L 133.851562 33.925781 L 139.582031 33.679688 L 140.226562 33.007812 L 141.253906 33.246094 L 141.253906 32.417969 L 142.21875 32.515625 L 142.152344 34.683594 L 138.195312 34.605469 L 138.28125 38.6875 L 142 39.003906 L 157.40625 39.476562 C 157.40625 39.476562 159.578125 39.878906 159.773438 38.953125 C 159.96875 38.027344 160.429688 34.375 159.089844 34.027344 L 157.609375 33.984375 L 157.253906 34.140625 C 157.253906 34.140625 152.414062 34.140625 152.382812 34.035156 C 152.355469 33.925781 152.238281 33.128906 152.339844 33.101562 C 153.097656 33.023438 153.851562 32.910156 154.597656 32.753906 C 154.597656 32.644531 154.597656 30.886719 154.597656 30.886719 L 158.214844 30.785156 L 158.449219 29.859375 L 158.597656 28.238281 L 158.941406 28.59375 C 158.941406 28.59375 159.070312 30.761719 160.199219 30.703125 C 161.328125 30.648438 170.597656 30.703125 170.597656 30.703125 L 171.050781 30.4375 L 212.144531 30.777344 C 212.671875 30.769531 213.101562 30.566406 213.441406 30.164062 C 213.996094 29.371094 214.359375 28.503906 214.53125 27.554688 C 214.703125 26.605469 214.667969 25.660156 214.425781 24.726562 Z M 35.445312 34.242188 C 34.65625 35.117188 21.847656 44.828125 21.847656 44.828125 C 21.847656 44.828125 21.125 45.851562 20.90625 43.902344 C 20.691406 41.957031 20.183594 35.097656 20.183594 35.097656 C 20.328125 35.097656 22.839844 34.214844 22.839844 34.214844 L 23.867188 32.117188 L 24.335938 32.636719 C 24.335938 32.636719 24.105469 34.632812 25.488281 34.742188 L 33.019531 32.390625 L 35.472656 32.464844 C 35.6875 32.722656 35.789062 33.023438 35.785156 33.359375 C 35.78125 33.695312 35.667969 33.988281 35.445312 34.242188 Z M 80.675781 44.046875 L 73.699219 43.832031 C 73.699219 43.832031 72.449219 43.96875 71.625 41.371094 C 71.511719 40.988281 71.457031 40.601562 71.460938 40.203125 C 71.464844 39.804688 71.523438 39.417969 71.636719 39.039062 C 71.753906 38.660156 71.921875 38.304688 72.140625 37.972656 C 72.359375 37.640625 72.621094 37.347656 72.925781 37.09375 L 74.128906 37.371094 L 73.742188 38.671875 C 73.644531 39.082031 73.605469 39.496094 73.628906 39.917969 C 73.652344 40.339844 73.734375 40.746094 73.875 41.144531 C 74.015625 41.542969 74.210938 41.910156 74.460938 42.25 C 74.707031 42.589844 75 42.886719 75.335938 43.144531 L 75.863281 42.910156 C 73.65625 40.429688 75.414062 37.167969 75.414062 37.167969 L 79.113281 37.273438 C 79.113281 37.273438 81.542969 37.867188 81.925781 40.015625 C 82.3125 42.167969 80.675781 44.046875 80.675781 44.046875 Z M 148.1875 31.523438 L 148.1875 30.921875 L 150.394531 30.921875 L 151.683594 30.957031 C 151.132812 31.839844 148.1875 31.523438 148.1875 31.523438 Z M 148.1875 31.523438 " fill-opacity="1" fill-rule="nonzero"/></g></svg>