<!DOCTYPE svg PUBLIC "-//W3C//DTD SVG 1.1//EN" "http://www.w3.org/Graphics/SVG/1.1/DTD/svg11.dtd">
<!-- Uploaded to: SVG Repo, www.svgrepo.com, Transformed by: SVG Repo Mixer Tools -->
<svg width="800px" height="800px" viewBox="0 -9.24 31.999 31.999" xmlns="http://www.w3.org/2000/svg" fill="#000000" transform="matrix(1, 0, 0, 1, 0, 0)">
<g id="SVGRepo_bgCarrier" stroke-width="0"/>
<g id="SVGRepo_tracerCarrier" stroke-linecap="round" stroke-linejoin="round"/>
<g id="SVGRepo_iconCarrier"> <path id="Path_11" data-name="Path 11" d="M222.833,112.608h-1.351l1.372-.322a.5.5,0,0,0,.372-.6l-1.3-5.526a.493.493,0,0,0-.6-.372l-3.959.929-.036-.15a.5.5,0,0,0-.223-.31.5.5,0,0,0-.377-.062l-2.055.485a.5.5,0,0,0-.372.6l.034.148-3.384.795-.332-1.414a.5.5,0,0,0-.223-.311.491.491,0,0,0-.378-.062l-9.95,2.34a.5.5,0,0,0-.373.6l.331,1.412-8.311,1.953a.5.5,0,0,0-.372.6l1.3,5.523.006.013a.491.491,0,0,0,.48.4h29.7a.5.5,0,0,0,.5-.5v-5.675A.5.5,0,0,0,222.833,112.608Zm-.695-1.18-1.118.262a1.662,1.662,0,0,0-.014-.691l-.759-3.24a1.693,1.693,0,0,0-.295-.623l1.117-.262Zm-3.681-3.942h.008a.681.681,0,0,1,.809.5l.76,3.241a.673.673,0,0,1-.5.809l-.007,0-.86.2-1.07-4.554Zm-1.983-.2,1.333,5.673v.006l.034.144-1.084.255-.032-.135a.065.065,0,0,0,0-.014l-.006-.013-1.292-5.506v-.007l0-.007-.033-.141Zm-1.906,1.117,1.067,4.553-3.383.793-1.069-4.551Zm-13.781,1.235,8.977-2.111,1.962,8.353-8.979,2.106-.218-.924,7.565-1.776a.5.5,0,0,0,.372-.6l-.647-2.751s0-.009,0-.014l-.006-.013-.647-2.75a.494.494,0,0,0-.6-.372L201,110.56Zm.769,7.652.234,1h-4.48Zm6.752-7.416.421,1.79-4.694,1.1a.5.5,0,0,0,.114.986.45.45,0,0,0,.114-.014l4.694-1.1.421,1.791L193.5,118.15l-1.068-4.55Zm14.025,8.413H205.839l6.6-1.549a.5.5,0,0,0,.372-.6l-.332-1.414,3.382-.793.035.148a.5.5,0,0,0,.486.386.45.45,0,0,0,.114-.014l2.059-.482a.5.5,0,0,0,.311-.223.49.49,0,0,0,.049-.134h3.415Z" transform="translate(-191.334 -105.772)" fill="#00000"/> </g>
</svg>