<svg xmlns="http://www.w3.org/2000/svg" xmlns:xlink="http://www.w3.org/1999/xlink" width="240" zoomAndPan="magnify" viewBox="0 0 180 179.999997" height="240" preserveAspectRatio="xMidYMid meet" version="1.0"><defs><clipPath id="2d5cf3aaf0"><path d="M 26.183594 26.324219 L 153.816406 26.324219 L 153.816406 153.675781 L 26.183594 153.675781 Z M 26.183594 26.324219 " clip-rule="nonzero"/></clipPath><clipPath id="882eafe5e1"><path d="M 2.921875 26.324219 L 176.921875 26.324219 L 176.921875 153.824219 L 2.921875 153.824219 Z M 2.921875 26.324219 " clip-rule="nonzero"/></clipPath><clipPath id="a98b105977"><path d="M 4.636719 27.578125 L 175.636719 27.578125 L 175.636719 152.078125 L 4.636719 152.078125 Z M 4.636719 27.578125 " clip-rule="nonzero"/></clipPath><clipPath id="6b9795d2f5"><path d="M 28 38 L 151 38 L 151 151 L 28 151 Z M 28 38 " clip-rule="nonzero"/></clipPath><clipPath id="6cfe1a5ee2"><path d="M 20.835938 74.234375 L 61.140625 33.929688 L 161.902344 134.691406 L 121.597656 174.996094 Z M 20.835938 74.234375 " clip-rule="nonzero"/></clipPath><clipPath id="a87f26c114"><path d="M 20.835938 74.234375 L 61.140625 33.929688 L 161.902344 134.691406 L 121.597656 174.996094 Z M 20.835938 74.234375 " clip-rule="nonzero"/></clipPath><clipPath id="120ef3fea4"><path d="M 29.613281 67 L 113 67 L 113 150.363281 L 29.613281 150.363281 Z M 29.613281 67 " clip-rule="nonzero"/></clipPath><clipPath id="c5cfa033fc"><path d="M 93 29.613281 L 150.363281 29.613281 L 150.363281 87 L 93 87 Z M 93 29.613281 " clip-rule="nonzero"/></clipPath></defs><path fill="#a9bab4" d="M 18 18 L 162 18 L 162 162 L 18 162 Z M 18 18 " fill-opacity="1" fill-rule="nonzero"/><g clip-path="url(#2d5cf3aaf0)"><path fill="#50665a" d="M 26.183594 26.324219 L 154.027344 26.324219 L 154.027344 153.675781 L 26.183594 153.675781 Z M 26.183594 26.324219 " fill-opacity="1" fill-rule="nonzero"/></g><g clip-path="url(#882eafe5e1)"><path fill="#000000" d="M 176.921875 47.230469 L 111.144531 70.621094 L 118.570312 51.058594 L 98.625 62.539062 L 85.890625 26.605469 L 80.164062 64.664062 C 80.164062 64.664062 24.144531 31.496094 24.566406 32.769531 C 24.992188 34.046875 52.789062 75.722656 52.789062 75.722656 L 2.921875 91.457031 L 50.878906 97.625 L 31.570312 139.300781 L 73.585938 104.851562 L 81.4375 153.546875 L 95.226562 106.128906 L 149.125 143.765625 L 122.601562 92.734375 Z M 92.46875 94.859375 L 86.105469 117.1875 L 82.285156 94.222656 L 62.550781 110.382812 L 71.675781 90.820312 L 48.96875 88.054688 L 72.523438 80.824219 C 72.523438 80.824219 59.367188 61.261719 59.15625 60.625 C 58.941406 59.988281 85.253906 75.511719 85.253906 75.511719 L 88.015625 57.648438 L 93.957031 74.445312 L 103.292969 69.128906 L 99.683594 78.273438 L 130.664062 67.21875 L 105.203125 88.691406 L 117.722656 112.722656 Z M 92.46875 94.859375 " fill-opacity="1" fill-rule="nonzero"/></g><g clip-path="url(#a98b105977)"><path fill="#ffffff" d="M 175.355469 48.046875 L 110.8125 70.945312 L 118.101562 51.792969 L 98.53125 63.035156 L 86.039062 27.851562 L 80.417969 65.117188 C 80.417969 65.117188 25.453125 32.640625 25.871094 33.886719 C 26.289062 35.136719 53.558594 75.945312 53.558594 75.945312 L 4.636719 91.351562 L 51.6875 97.386719 L 32.742188 138.195312 L 73.964844 104.464844 L 81.667969 152.140625 L 95.199219 105.714844 L 148.082031 142.566406 L 122.054688 92.597656 Z M 92.492188 94.679688 L 86.246094 116.542969 L 82.5 94.054688 L 63.136719 109.878906 L 72.089844 90.726562 L 49.8125 88.019531 L 72.921875 80.941406 C 72.921875 80.941406 60.015625 61.785156 59.804688 61.160156 C 59.597656 60.539062 85.414062 75.734375 85.414062 75.734375 L 88.121094 58.246094 L 93.949219 74.695312 L 103.109375 69.488281 L 99.570312 78.441406 L 129.96875 67.617188 L 104.984375 88.644531 L 117.269531 112.167969 Z M 92.492188 94.679688 " fill-opacity="1" fill-rule="nonzero"/></g><g clip-path="url(#6b9795d2f5)"><g clip-path="url(#6cfe1a5ee2)"><g clip-path="url(#a87f26c114)"><path fill="#1b1b1b" d="M 59.335938 40.414062 L 53.929688 45.820312 L 53.882812 45.769531 C 53.015625 44.902344 51.65625 44.851562 50.851562 45.65625 L 46.015625 50.492188 C 45.210938 51.296875 45.261719 52.652344 46.128906 53.523438 L 46.179688 53.570312 L 41.839844 57.910156 L 28.511719 81.902344 L 30.675781 84.066406 L 53.003906 69.074219 L 57.339844 64.734375 L 142.496094 149.890625 C 143.363281 150.757812 144.722656 150.808594 145.527344 150.003906 L 150.363281 145.167969 C 151.167969 144.363281 151.117188 143.003906 150.25 142.136719 L 65.09375 56.984375 L 69.832031 52.246094 C 69.832031 52.246094 74.5 47.246094 72 44.746094 L 66.167969 38.910156 C 66.167969 38.914062 62.667969 37.082031 59.335938 40.414062 Z M 59.335938 40.414062 " fill-opacity="1" fill-rule="nonzero"/></g></g></g><g clip-path="url(#120ef3fea4)"><path fill="#1b1b1b" d="M 39.441406 150.09375 L 112.511719 77.023438 L 102.972656 67.484375 L 29.90625 140.554688 C 29.652344 140.808594 29.613281 141.105469 29.613281 141.257812 C 29.613281 141.410156 29.652344 141.707031 29.90625 141.964844 L 38.03125 150.089844 C 38.289062 150.347656 38.585938 150.386719 38.738281 150.386719 C 38.890625 150.386719 39.1875 150.347656 39.441406 150.09375 Z M 39.441406 150.09375 " fill-opacity="1" fill-rule="nonzero"/></g><g clip-path="url(#c5cfa033fc)"><path fill="#1b1b1b" d="M 150.082031 69.222656 L 141.898438 61.039062 C 140.914062 60.09375 140.355469 58.738281 140.355469 57.261719 C 140.355469 56.664062 140.4375 56.109375 140.605469 55.574219 C 140.734375 55.171875 140.628906 54.734375 140.339844 54.4375 L 139.253906 53.351562 L 126.644531 40.738281 L 125.539062 39.632812 C 125.226562 39.324219 124.488281 39.359375 124.492188 39.363281 C 122.523438 40.023438 120.371094 39.511719 118.953125 38.097656 L 110.785156 29.929688 C 110.429688 29.566406 109.875 29.507812 109.453125 29.785156 C 107.445312 31.089844 104.289062 33.410156 100.726562 36.96875 C 97.988281 39.710938 95.554688 42.660156 93.5 45.722656 C 93.261719 46.105469 93.320312 46.667969 93.671875 47.015625 L 101.835938 55.199219 C 102.832031 56.164062 103.394531 57.519531 103.394531 59 C 103.394531 59.578125 103.3125 60.140625 103.144531 60.664062 C 103.015625 61.074219 103.109375 61.5 103.390625 61.78125 L 118.210938 76.601562 C 118.667969 77.074219 119.175781 76.90625 119.308594 76.859375 C 119.859375 76.675781 120.429688 76.585938 120.996094 76.585938 C 122.414062 76.585938 123.808594 77.148438 124.816406 78.183594 L 132.960938 86.308594 C 133.320312 86.675781 133.882812 86.734375 134.328125 86.460938 C 137.335938 84.441406 140.28125 82.011719 143.023438 79.269531 C 146.578125 75.710938 148.894531 72.5625 150.210938 70.542969 C 150.480469 70.121094 150.425781 69.566406 150.078125 69.226562 Z M 150.082031 69.222656 " fill-opacity="1" fill-rule="nonzero"/></g><path fill="#1b1b1b" d="M 133.769531 36.6875 L 131.226562 39.21875 L 140.777344 48.773438 L 143.304688 46.230469 L 143.308594 46.226562 C 143.699219 45.835938 143.699219 45.203125 143.308594 44.8125 L 135.183594 36.6875 C 134.792969 36.300781 134.164062 36.296875 133.769531 36.6875 Z M 133.769531 36.6875 " fill-opacity="1" fill-rule="nonzero"/></svg>