<svg xmlns="http://www.w3.org/2000/svg" xmlns:xlink="http://www.w3.org/1999/xlink" width="240" zoomAndPan="magnify" viewBox="0 0 180 179.999997" height="240" preserveAspectRatio="xMidYMid meet" version="1.0"><defs><clipPath id="5441e76109"><path d="M 26.183594 26.324219 L 153.816406 26.324219 L 153.816406 153.675781 L 26.183594 153.675781 Z M 26.183594 26.324219 " clip-rule="nonzero"/></clipPath><clipPath id="489e696e7e"><path d="M 96.253906 0 L 180 0 L 180 88.5 L 96.253906 88.5 Z M 96.253906 0 " clip-rule="nonzero"/></clipPath><clipPath id="2b8883bdde"><path d="M 31.191406 33.25 L 148.941406 33.25 L 148.941406 146.5 L 31.191406 146.5 Z M 31.191406 33.25 " clip-rule="nonzero"/></clipPath></defs><path fill="#a9bab4" d="M 18 18 L 162 18 L 162 162 L 18 162 Z M 18 18 " fill-opacity="1" fill-rule="nonzero"/><g clip-path="url(#5441e76109)"><path fill="#50665a" d="M 26.183594 26.324219 L 154.027344 26.324219 L 154.027344 153.675781 L 26.183594 153.675781 Z M 26.183594 26.324219 " fill-opacity="1" fill-rule="nonzero"/></g><g clip-path="url(#489e696e7e)"><path fill="#ffffff" d="M 161.265625 44.113281 L 182.234375 34.261719 L 159.089844 34.488281 L 173.757812 16.613281 L 153.015625 26.925781 L 158.402344 4.46875 L 144.195312 22.574219 L 139.265625 0 L 134.339844 22.574219 L 120.128906 4.355469 L 125.515625 26.925781 L 104.777344 16.613281 L 119.441406 34.488281 L 96.296875 34.261719 L 117.265625 44.113281 L 96.296875 53.96875 L 119.441406 53.742188 L 104.777344 71.617188 L 125.515625 61.304688 L 120.128906 83.761719 L 134.339844 65.542969 L 139.265625 88.230469 L 144.195312 65.65625 L 158.402344 83.875 L 153.015625 61.304688 L 173.757812 71.617188 L 159.089844 53.625 L 182.234375 53.855469 Z M 159.089844 48.585938 L 148.433594 48.46875 L 155.195312 56.71875 L 145.683594 52.023438 L 148.203125 62.335938 L 141.558594 53.96875 L 139.265625 64.398438 L 136.976562 53.96875 L 130.445312 62.449219 L 132.964844 52.136719 L 123.453125 56.835938 L 130.214844 48.585938 L 119.558594 48.699219 L 129.183594 44.230469 L 119.558594 39.761719 L 130.214844 39.875 L 123.453125 31.625 L 132.964844 36.324219 L 130.445312 26.011719 L 136.976562 34.375 L 139.265625 23.949219 L 141.558594 34.375 L 148.089844 26.011719 L 145.570312 36.324219 L 155.078125 31.625 L 148.433594 39.761719 L 159.089844 39.644531 L 149.464844 44.113281 Z M 159.089844 48.585938 " fill-opacity="1" fill-rule="nonzero"/></g><g clip-path="url(#2b8883bdde)"><path fill="#000000" d="M 46.847656 145.894531 C 47.21875 146.285156 47.75 146.519531 48.277344 146.519531 C 48.453125 146.519531 48.632812 146.480469 48.808594 146.441406 C 49.511719 146.226562 50.0625 145.660156 50.199219 144.9375 C 53.804688 127.171875 69.671875 113.152344 69.828125 112.996094 C 70.535156 112.390625 70.710938 111.375 70.242188 110.574219 C 69.183594 108.699219 68.59375 106.707031 68.300781 104.753906 C 68.398438 104.753906 68.496094 104.773438 68.613281 104.773438 C 72.632812 104.773438 76.472656 102.644531 78.390625 99.054688 C 80.253906 95.65625 80.054688 91.535156 78.078125 88.214844 L 109.621094 68.203125 C 110.070312 67.910156 110.382812 67.480469 110.480469 66.972656 C 110.539062 66.777344 110.519531 66.5625 110.5 66.367188 L 148.039062 42.527344 C 148.46875 42.253906 148.785156 41.804688 148.902344 41.296875 C 149 40.808594 148.921875 40.261719 148.628906 39.832031 L 145.238281 34.539062 C 144.667969 33.621094 143.453125 33.347656 142.535156 33.933594 L 105.015625 57.773438 C 104.390625 57.40625 103.605469 57.367188 102.980469 57.773438 L 57.898438 86.398438 C 57.390625 86.730469 57.054688 87.277344 56.996094 87.902344 L 56.3125 97.550781 L 52.394531 97.550781 C 51.746094 97.550781 51.121094 97.882812 50.765625 98.449219 L 31.703125 127.679688 C 31.214844 128.441406 31.3125 129.433594 31.917969 130.078125 Z M 142.984375 38.289062 L 144.277344 40.28125 L 108.601562 62.949219 L 107.308594 60.9375 Z M 69.046875 93.957031 L 74.785156 90.324219 C 76 92.453125 76.117188 95.050781 74.941406 97.199219 C 73.609375 99.679688 70.867188 101.0625 68.046875 100.847656 C 68.105469 97.707031 68.730469 95.109375 69.046875 93.957031 Z M 69.046875 93.957031 " fill-opacity="1" fill-rule="nonzero"/></g><path fill="#000000" d="M 141.359375 117.035156 L 141.359375 98.332031 C 141.359375 97.667969 141.007812 97.121094 140.496094 96.769531 L 140.496094 92.6875 C 140.496094 88.859375 137.382812 85.738281 133.523438 85.738281 C 129.683594 85.738281 126.546875 88.859375 126.546875 92.6875 L 126.546875 96.769531 C 126.039062 97.121094 125.683594 97.667969 125.683594 98.332031 L 125.683594 117.035156 C 125.683594 118.109375 126.566406 118.988281 127.644531 118.988281 L 139.398438 118.988281 C 140.476562 118.988281 141.359375 118.109375 141.359375 117.035156 Z M 136.578125 96.378906 L 130.464844 96.378906 L 130.464844 92.6875 C 130.464844 91.007812 131.835938 89.640625 133.523438 89.640625 C 135.207031 89.640625 136.578125 91.007812 136.578125 92.6875 Z M 136.578125 96.378906 " fill-opacity="1" fill-rule="nonzero"/><path fill="#000000" d="M 114.183594 85.738281 C 110.324219 85.738281 107.210938 88.859375 107.210938 92.6875 L 107.210938 96.769531 C 106.699219 97.121094 106.347656 97.667969 106.347656 98.332031 L 106.347656 117.035156 C 106.347656 118.109375 107.230469 118.988281 108.308594 118.988281 L 120.0625 118.988281 C 121.140625 118.988281 122.023438 118.109375 122.023438 117.035156 L 122.023438 98.332031 C 122.023438 97.667969 121.667969 97.121094 121.160156 96.769531 L 121.160156 92.6875 C 121.160156 88.859375 118.023438 85.738281 114.183594 85.738281 Z M 117.242188 96.378906 L 111.128906 96.378906 L 111.128906 92.6875 C 111.128906 91.007812 112.5 89.640625 114.183594 89.640625 C 115.871094 89.640625 117.242188 91.007812 117.242188 92.6875 Z M 117.242188 96.378906 " fill-opacity="1" fill-rule="nonzero"/></svg>