<svg xmlns="http://www.w3.org/2000/svg" xmlns:xlink="http://www.w3.org/1999/xlink" width="240" zoomAndPan="magnify" viewBox="0 0 180 179.999997" height="240" preserveAspectRatio="xMidYMid meet" version="1.0"><defs><clipPath id="013d277b3e"><path d="M 26.183594 26.324219 L 153.816406 26.324219 L 153.816406 153.675781 L 26.183594 153.675781 Z M 26.183594 26.324219 " clip-rule="nonzero"/></clipPath><clipPath id="7284b0f8db"><path d="M 26.183594 15.023438 L 160.433594 15.023438 L 160.433594 152.273438 L 26.183594 152.273438 Z M 26.183594 15.023438 " clip-rule="nonzero"/></clipPath><clipPath id="808404b2b1"><path d="M 39.164062 99 L 52 99 L 52 137 L 39.164062 137 Z M 39.164062 99 " clip-rule="nonzero"/></clipPath><clipPath id="27f77ad93e"><path d="M 39.164062 95 L 60 95 L 60 136 L 39.164062 136 Z M 39.164062 95 " clip-rule="nonzero"/></clipPath><clipPath id="4506e699e9"><path d="M 39.164062 111 L 44 111 L 44 126 L 39.164062 126 Z M 39.164062 111 " clip-rule="nonzero"/></clipPath><clipPath id="fa57328e5b"><path d="M 59 42.257812 L 121 42.257812 L 121 65 L 59 65 Z M 59 42.257812 " clip-rule="nonzero"/></clipPath><clipPath id="aea777f7b3"><path d="M 76 108 L 105 108 L 105 137.507812 L 76 137.507812 Z M 76 108 " clip-rule="nonzero"/></clipPath><clipPath id="3b8ec79c86"><path d="M 128 99 L 141.164062 99 L 141.164062 137 L 128 137 Z M 128 99 " clip-rule="nonzero"/></clipPath></defs><path fill="#a9bab4" d="M 18 18 L 162 18 L 162 162 L 18 162 Z M 18 18 " fill-opacity="1" fill-rule="nonzero"/><g clip-path="url(#013d277b3e)"><path fill="#50665a" d="M 26.183594 26.324219 L 154.027344 26.324219 L 154.027344 153.675781 L 26.183594 153.675781 Z M 26.183594 26.324219 " fill-opacity="1" fill-rule="nonzero"/></g><g clip-path="url(#7284b0f8db)"><path fill="#f5f5ef" d="M 160.394531 61.589844 C 160.394531 61.882812 160.386719 62.175781 160.371094 62.46875 C 160.367188 62.550781 160.363281 62.632812 160.359375 62.714844 C 160.34375 62.941406 160.328125 63.171875 160.308594 63.398438 C 160.300781 63.464844 160.296875 63.535156 160.289062 63.597656 C 160.257812 63.894531 160.222656 64.191406 160.175781 64.480469 C 160.175781 64.488281 160.171875 64.5 160.171875 64.511719 C 160.128906 64.800781 160.078125 65.089844 160.019531 65.371094 C 160.011719 65.40625 160.007812 65.445312 160 65.476562 C 158.75 71.511719 154.640625 76.636719 148.820312 79.125 C 149.515625 81.027344 149.867188 83.023438 149.867188 85.0625 C 149.867188 87.765625 149.257812 90.359375 148.054688 92.773438 C 151.613281 96.664062 153.570312 101.703125 153.570312 106.972656 C 153.570312 118.582031 144.125 128.027344 132.519531 128.027344 C 132.429688 128.027344 132.34375 128.023438 132.257812 128.019531 L 132.160156 128.015625 C 129.347656 130.871094 125.625 132.710938 121.664062 133.210938 C 118.558594 144.441406 108.265625 152.277344 96.597656 152.277344 C 89.46875 152.277344 82.828125 149.453125 77.875 144.316406 C 73.625 147.8125 68.261719 149.738281 62.746094 149.738281 C 58.230469 149.738281 53.832031 148.464844 50.019531 146.050781 C 50.015625 146.050781 50.003906 146.054688 49.996094 146.054688 C 49.769531 146.089844 49.535156 146.125 49.300781 146.15625 C 49.222656 146.167969 49.144531 146.175781 49.0625 146.1875 C 48.859375 146.210938 48.652344 146.234375 48.449219 146.253906 C 48.3125 146.265625 48.175781 146.273438 48.039062 146.28125 C 47.882812 146.292969 47.722656 146.308594 47.5625 146.3125 C 47.253906 146.328125 46.941406 146.335938 46.632812 146.335938 C 37.480469 146.335938 29.714844 140.285156 27.121094 131.972656 C 26.921875 131.335938 26.75 130.683594 26.613281 130.015625 C 26.476562 129.351562 26.375 128.675781 26.304688 127.988281 C 26.238281 127.300781 26.203125 126.609375 26.203125 125.902344 C 26.203125 121.695312 27.476562 117.65625 29.882812 114.214844 C 29.578125 113.691406 29.296875 113.160156 29.035156 112.621094 C 29.011719 112.570312 28.988281 112.523438 28.964844 112.480469 C 28.832031 112.195312 28.703125 111.914062 28.578125 111.625 C 28.554688 111.570312 28.53125 111.519531 28.511719 111.464844 C 28.382812 111.164062 28.265625 110.863281 28.152344 110.558594 C 28.109375 110.441406 28.066406 110.328125 28.027344 110.210938 C 27.953125 110.003906 27.882812 109.800781 27.816406 109.59375 C 27.777344 109.464844 27.730469 109.339844 27.695312 109.210938 C 27.609375 108.933594 27.53125 108.648438 27.457031 108.367188 C 27.414062 108.214844 27.375 108.0625 27.339844 107.90625 C 27.292969 107.722656 27.253906 107.542969 27.210938 107.355469 C 27.179688 107.210938 27.148438 107.0625 27.117188 106.914062 C 27.058594 106.621094 27.007812 106.332031 26.960938 106.042969 C 26.9375 105.90625 26.917969 105.765625 26.898438 105.628906 C 26.863281 105.382812 26.832031 105.136719 26.800781 104.890625 C 26.792969 104.796875 26.777344 104.703125 26.773438 104.613281 C 26.738281 104.277344 26.714844 103.9375 26.691406 103.601562 C 26.6875 103.503906 26.683594 103.410156 26.679688 103.3125 C 26.664062 102.957031 26.652344 102.601562 26.652344 102.242188 C 26.652344 89.097656 37.34375 78.40625 50.484375 78.40625 C 50.644531 78.40625 50.800781 78.410156 50.957031 78.417969 C 50.6875 77.398438 50.550781 76.347656 50.550781 75.300781 C 50.550781 73.226562 51.082031 71.179688 52.09375 69.371094 C 48.339844 66.515625 46.191406 62.1875 46.191406 57.46875 C 46.191406 49.746094 51.949219 43.378906 59.605469 42.601562 C 59.597656 42.339844 59.589844 42.082031 59.589844 41.820312 C 59.589844 29.21875 69.84375 18.964844 82.445312 18.964844 C 88.003906 18.964844 93.34375 20.976562 97.515625 24.640625 C 100.722656 18.703125 106.871094 15.023438 113.621094 15.023438 C 120.289062 15.023438 126.417969 18.648438 129.644531 24.484375 C 129.648438 24.484375 129.652344 24.484375 129.65625 24.484375 C 130 24.441406 130.34375 24.410156 130.695312 24.386719 C 130.699219 24.386719 130.707031 24.386719 130.714844 24.386719 C 131.054688 24.363281 131.402344 24.351562 131.746094 24.351562 C 141.113281 24.351562 148.734375 31.972656 148.734375 41.339844 C 148.734375 42.199219 148.667969 43.074219 148.535156 43.941406 C 148.570312 43.953125 148.605469 43.972656 148.640625 43.984375 C 148.726562 44.023438 148.8125 44.058594 148.898438 44.097656 C 149.105469 44.1875 149.304688 44.277344 149.503906 44.371094 C 149.546875 44.390625 149.589844 44.410156 149.628906 44.433594 C 155.609375 47.316406 159.605469 53.027344 160.285156 59.59375 C 160.292969 59.644531 160.296875 59.695312 160.300781 59.746094 C 160.324219 59.988281 160.339844 60.230469 160.355469 60.472656 C 160.359375 60.550781 160.363281 60.625 160.367188 60.703125 C 160.390625 60.992188 160.394531 61.292969 160.394531 61.589844 Z M 160.394531 61.589844 " fill-opacity="1" fill-rule="nonzero"/><path fill="#231f20" d="M 159.996094 65.476562 C 160.003906 65.445312 160.007812 65.40625 160.015625 65.371094 C 160.074219 65.085938 160.125 64.796875 160.171875 64.511719 C 160.171875 64.5 160.171875 64.488281 160.171875 64.480469 C 160.21875 64.1875 160.253906 63.890625 160.285156 63.597656 C 160.292969 63.535156 160.300781 63.464844 160.304688 63.398438 C 160.324219 63.171875 160.339844 62.941406 160.355469 62.714844 C 160.359375 62.632812 160.363281 62.550781 160.367188 62.46875 C 160.382812 62.175781 160.390625 61.882812 160.390625 61.589844 C 160.390625 61.292969 160.382812 60.992188 160.367188 60.699219 C 160.363281 60.625 160.363281 60.550781 160.355469 60.472656 C 160.339844 60.226562 160.320312 59.984375 160.300781 59.742188 C 160.296875 59.691406 160.289062 59.640625 160.285156 59.589844 C 159.605469 53.023438 155.609375 47.3125 149.628906 44.429688 C 149.589844 44.410156 149.546875 44.386719 149.503906 44.367188 C 149.304688 44.273438 149.105469 44.183594 148.898438 44.09375 C 148.8125 44.054688 148.726562 44.019531 148.640625 43.980469 C 148.601562 43.96875 148.566406 43.949219 148.535156 43.9375 C 148.667969 43.070312 148.734375 42.199219 148.734375 41.335938 C 148.734375 31.96875 141.113281 24.347656 131.746094 24.347656 C 131.402344 24.347656 131.054688 24.359375 130.714844 24.382812 C 130.707031 24.382812 130.699219 24.382812 130.695312 24.382812 C 130.34375 24.402344 130 24.4375 129.65625 24.480469 C 129.652344 24.480469 129.648438 24.480469 129.644531 24.480469 C 126.417969 18.648438 120.292969 15.023438 113.621094 15.023438 C 106.871094 15.023438 100.71875 18.703125 97.515625 24.636719 C 93.339844 20.972656 88 18.960938 82.441406 18.960938 C 69.839844 18.960938 59.585938 29.214844 59.585938 41.816406 C 59.585938 42.082031 59.59375 42.339844 59.605469 42.597656 C 51.945312 43.375 46.191406 49.738281 46.191406 57.46875 C 46.191406 62.183594 48.339844 66.511719 52.089844 69.367188 C 51.082031 71.175781 50.546875 73.222656 50.546875 75.296875 C 50.546875 76.347656 50.683594 77.390625 50.953125 78.414062 C 50.796875 78.40625 50.644531 78.402344 50.480469 78.402344 C 37.339844 78.402344 26.648438 89.097656 26.648438 102.238281 C 26.648438 102.597656 26.660156 102.953125 26.675781 103.308594 C 26.679688 103.40625 26.6875 103.5 26.691406 103.597656 C 26.710938 103.9375 26.734375 104.269531 26.769531 104.609375 C 26.777344 104.703125 26.789062 104.792969 26.800781 104.886719 C 26.828125 105.132812 26.855469 105.378906 26.894531 105.625 C 26.914062 105.765625 26.9375 105.902344 26.957031 106.039062 C 27.003906 106.328125 27.054688 106.617188 27.113281 106.910156 C 27.144531 107.058594 27.179688 107.207031 27.210938 107.351562 C 27.25 107.539062 27.292969 107.722656 27.335938 107.902344 C 27.375 108.058594 27.410156 108.210938 27.453125 108.363281 C 27.527344 108.644531 27.605469 108.925781 27.691406 109.207031 C 27.730469 109.332031 27.773438 109.457031 27.8125 109.589844 C 27.882812 109.796875 27.949219 110.003906 28.023438 110.207031 C 28.0625 110.324219 28.105469 110.441406 28.148438 110.554688 C 28.261719 110.859375 28.382812 111.164062 28.507812 111.460938 C 28.53125 111.515625 28.554688 111.566406 28.574219 111.621094 C 28.699219 111.910156 28.828125 112.195312 28.960938 112.476562 C 28.984375 112.523438 29.007812 112.570312 29.03125 112.617188 C 29.292969 113.15625 29.574219 113.691406 29.878906 114.210938 C 27.476562 117.65625 26.203125 121.695312 26.203125 125.902344 C 26.203125 126.609375 26.238281 127.304688 26.308594 127.988281 C 26.378906 128.675781 26.484375 129.351562 26.621094 130.015625 C 26.757812 130.679688 26.925781 131.332031 27.128906 131.972656 C 29.71875 140.285156 37.484375 146.335938 46.640625 146.335938 C 46.949219 146.335938 47.257812 146.328125 47.570312 146.3125 C 47.730469 146.308594 47.886719 146.292969 48.046875 146.28125 C 48.183594 146.273438 48.320312 146.261719 48.457031 146.253906 C 48.660156 146.234375 48.867188 146.210938 49.070312 146.1875 C 49.148438 146.175781 49.226562 146.167969 49.304688 146.15625 C 49.539062 146.125 49.769531 146.089844 50.003906 146.054688 C 50.011719 146.054688 50.019531 146.050781 50.027344 146.050781 C 53.839844 148.464844 58.238281 149.738281 62.753906 149.738281 C 68.265625 149.738281 73.632812 147.8125 77.882812 144.316406 C 82.835938 149.453125 89.476562 152.277344 96.605469 152.277344 C 108.277344 152.277344 118.566406 144.445312 121.671875 133.210938 C 125.632812 132.710938 129.355469 130.871094 132.167969 128.015625 L 132.261719 128.019531 C 132.347656 128.023438 132.4375 128.027344 132.527344 128.027344 C 144.136719 128.027344 153.578125 118.582031 153.578125 106.972656 C 153.578125 101.699219 151.621094 96.664062 148.0625 92.773438 C 149.261719 90.359375 149.875 87.765625 149.875 85.0625 C 149.875 83.023438 149.519531 81.027344 148.828125 79.125 C 154.636719 76.640625 158.75 71.511719 159.996094 65.476562 Z M 149.519531 85.0625 C 149.519531 87.75 148.90625 90.332031 147.695312 92.722656 L 147.640625 92.828125 L 147.722656 92.917969 C 151.273438 96.753906 153.230469 101.75 153.230469 106.972656 C 153.230469 118.394531 143.9375 127.683594 132.519531 127.683594 C 121.101562 127.683594 111.808594 118.390625 111.808594 106.972656 C 111.808594 106.878906 111.734375 106.804688 111.636719 106.804688 C 111.542969 106.804688 111.46875 106.878906 111.46875 106.972656 C 111.46875 111.53125 112.925781 115.753906 115.402344 119.203125 C 114.179688 126.738281 108.628906 132.84375 101.234375 134.761719 C 90.964844 137.429688 80.441406 131.246094 77.773438 120.976562 C 77.75 120.882812 77.65625 120.828125 77.566406 120.851562 C 77.472656 120.875 77.417969 120.96875 77.441406 121.0625 C 79.730469 129.867188 87.695312 135.726562 96.402344 135.726562 C 98.027344 135.726562 99.679688 135.519531 101.324219 135.09375 C 108.738281 133.167969 114.332031 127.105469 115.679688 119.589844 C 119.367188 124.5 125.152344 127.746094 131.6875 128.003906 C 128.929688 130.699219 125.335938 132.429688 121.515625 132.882812 L 121.402344 132.898438 L 121.371094 133.007812 C 118.34375 144.152344 108.15625 151.933594 96.601562 151.933594 C 89.515625 151.933594 82.917969 149.101562 78.015625 143.960938 L 77.90625 143.847656 L 77.785156 143.949219 C 73.574219 147.457031 68.234375 149.390625 62.75 149.390625 C 58.429688 149.390625 54.214844 148.199219 50.535156 145.953125 C 59.945312 144.132812 67.078125 135.835938 67.078125 125.898438 C 67.078125 125.800781 67.003906 125.726562 66.90625 125.726562 C 66.8125 125.726562 66.734375 125.800781 66.734375 125.898438 C 66.734375 135.832031 59.484375 144.101562 49.996094 145.703125 C 49.761719 145.742188 49.523438 145.777344 49.289062 145.808594 C 49.21875 145.816406 49.144531 145.824219 49.074219 145.835938 C 48.863281 145.863281 48.652344 145.882812 48.4375 145.902344 C 48.308594 145.914062 48.183594 145.925781 48.050781 145.933594 C 47.886719 145.945312 47.722656 145.957031 47.5625 145.964844 C 47.257812 145.980469 46.953125 145.988281 46.644531 145.988281 C 35.558594 145.996094 26.546875 136.980469 26.546875 125.902344 C 26.546875 121.820312 27.769531 117.894531 30.078125 114.539062 C 34.257812 121.449219 41.84375 126.074219 50.488281 126.074219 C 50.585938 126.074219 50.660156 126 50.660156 125.902344 C 50.660156 125.808594 50.585938 125.734375 50.488281 125.734375 C 41.207031 125.734375 33.167969 120.324219 29.355469 112.488281 C 29.332031 112.4375 29.304688 112.386719 29.28125 112.332031 C 29.140625 112.035156 29.003906 111.738281 28.875 111.433594 C 28.863281 111.410156 28.847656 111.382812 28.839844 111.359375 C 28.710938 111.066406 28.597656 110.765625 28.484375 110.464844 C 28.4375 110.34375 28.398438 110.226562 28.355469 110.109375 C 28.28125 109.902344 28.210938 109.699219 28.144531 109.488281 C 28.089844 109.320312 28.039062 109.15625 27.988281 108.992188 C 27.921875 108.765625 27.855469 108.535156 27.792969 108.308594 C 27.753906 108.152344 27.714844 107.996094 27.675781 107.84375 C 27.628906 107.660156 27.589844 107.480469 27.546875 107.300781 C 27.507812 107.109375 27.464844 106.921875 27.429688 106.734375 C 27.378906 106.492188 27.335938 106.25 27.296875 106.007812 C 27.273438 105.867188 27.253906 105.726562 27.238281 105.585938 C 27.203125 105.34375 27.171875 105.097656 27.144531 104.851562 C 27.132812 104.761719 27.125 104.675781 27.113281 104.589844 C 27.078125 104.257812 27.054688 103.925781 27.039062 103.589844 C 27.03125 103.496094 27.027344 103.398438 27.023438 103.304688 C 27.007812 102.953125 26.996094 102.601562 26.996094 102.246094 C 26.996094 89.292969 37.535156 78.75 50.488281 78.75 C 50.65625 78.75 50.824219 78.757812 50.992188 78.761719 L 51.089844 78.765625 C 49.769531 80.292969 48.898438 82.164062 48.59375 84.214844 C 48.167969 87.058594 48.875 89.902344 50.589844 92.21875 C 50.621094 92.261719 50.671875 92.285156 50.726562 92.285156 C 50.757812 92.285156 50.796875 92.273438 50.828125 92.25 C 50.902344 92.191406 50.917969 92.085938 50.863281 92.011719 C 49.203125 89.769531 48.515625 87.019531 48.925781 84.261719 C 49.339844 81.503906 50.800781 79.074219 53.042969 77.414062 C 55.285156 75.757812 58.035156 75.070312 60.792969 75.480469 C 63.550781 75.894531 65.980469 77.355469 67.636719 79.597656 C 67.691406 79.671875 67.800781 79.6875 67.878906 79.628906 C 67.953125 79.574219 67.96875 79.464844 67.910156 79.390625 C 66.199219 77.078125 63.6875 75.566406 60.839844 75.144531 C 57.992188 74.714844 55.152344 75.425781 52.835938 77.140625 C 52.285156 77.546875 51.789062 77.996094 51.332031 78.484375 C 51.042969 77.441406 50.890625 76.371094 50.890625 75.296875 C 50.890625 73.230469 51.4375 71.191406 52.460938 69.40625 L 52.535156 69.273438 L 52.53125 69.269531 C 52.972656 68.398438 55.996094 63.078125 63.164062 63.261719 C 63.265625 63.261719 63.339844 63.191406 63.339844 63.097656 C 63.339844 63 63.265625 62.921875 63.171875 62.921875 C 55.972656 62.742188 52.828125 67.976562 52.257812 69.054688 C 48.621094 66.265625 46.535156 62.054688 46.535156 57.46875 C 46.535156 49.867188 52.238281 43.613281 59.796875 42.921875 L 59.957031 42.910156 L 59.957031 42.898438 C 60.671875 42.800781 63.980469 42.476562 67.445312 44.445312 C 67.472656 44.460938 67.5 44.46875 67.53125 44.46875 C 67.589844 44.46875 67.648438 44.4375 67.683594 44.382812 C 67.730469 44.300781 67.699219 44.195312 67.617188 44.152344 C 64.132812 42.171875 60.785156 42.445312 59.953125 42.554688 C 59.941406 42.308594 59.933594 42.066406 59.933594 41.816406 C 59.933594 29.402344 70.035156 19.304688 82.449219 19.304688 C 87.992188 19.304688 93.324219 21.339844 97.457031 25.039062 L 97.621094 25.183594 L 97.628906 25.164062 C 98.617188 25.898438 104.167969 30.503906 104.480469 41.34375 C 104.484375 41.433594 104.5625 41.511719 104.652344 41.511719 L 104.65625 41.511719 C 104.753906 41.507812 104.824219 41.429688 104.824219 41.335938 C 104.503906 30.230469 98.722656 25.546875 97.789062 24.863281 C 100.925781 19 106.976562 15.367188 113.621094 15.367188 C 120.121094 15.367188 126.097656 18.871094 129.28125 24.53125 C 125.191406 25.128906 121.445312 27.195312 118.742188 30.402344 C 118.683594 30.476562 118.691406 30.585938 118.765625 30.640625 C 118.835938 30.703125 118.945312 30.695312 119.007812 30.621094 C 121.714844 27.398438 125.503906 25.355469 129.617188 24.828125 C 129.953125 24.785156 130.289062 24.753906 130.617188 24.730469 C 130.644531 24.726562 130.671875 24.726562 130.699219 24.722656 C 131.054688 24.699219 131.40625 24.6875 131.746094 24.6875 C 140.925781 24.6875 148.394531 32.152344 148.394531 41.332031 C 148.394531 42.152344 148.328125 42.984375 148.207031 43.808594 C 146.09375 42.988281 143.804688 42.53125 141.40625 42.523438 C 139.726562 40.285156 137.582031 38.402344 135.058594 37 C 130.339844 34.378906 124.882812 33.753906 119.691406 35.234375 C 119.597656 35.261719 119.546875 35.355469 119.574219 35.449219 C 119.601562 35.535156 119.691406 35.589844 119.785156 35.5625 C 124.886719 34.105469 130.257812 34.71875 134.894531 37.296875 C 139.535156 39.875 142.894531 44.105469 144.355469 49.207031 C 147.351562 59.6875 141.308594 70.644531 130.875 73.722656 C 130.316406 71.421875 129.351562 69.214844 127.988281 67.191406 C 124.96875 62.714844 120.390625 59.679688 115.089844 58.644531 C 114.996094 58.628906 114.910156 58.6875 114.886719 58.78125 C 114.871094 58.875 114.929688 58.964844 115.023438 58.984375 C 120.238281 60 124.738281 62.984375 127.703125 67.386719 C 130.671875 71.785156 131.742188 77.082031 130.726562 82.289062 C 129.714844 87.5 126.730469 92 122.328125 94.96875 C 117.925781 97.933594 112.632812 99.011719 107.425781 97.992188 C 107.332031 97.976562 107.242188 98.035156 107.222656 98.128906 C 107.203125 98.226562 107.265625 98.3125 107.359375 98.332031 C 108.660156 98.582031 109.96875 98.710938 111.265625 98.710938 C 115.25 98.710938 119.144531 97.527344 122.519531 95.25 C 126.996094 92.234375 130.03125 87.65625 131.0625 82.355469 C 131.605469 79.566406 131.554688 76.753906 130.949219 74.0625 C 141.574219 70.9375 147.730469 59.78125 144.683594 49.113281 C 144.03125 46.84375 143.011719 44.738281 141.671875 42.871094 C 144.070312 42.914062 146.363281 43.40625 148.460938 44.273438 C 148.558594 44.3125 148.648438 44.355469 148.746094 44.394531 C 148.957031 44.488281 149.167969 44.582031 149.378906 44.683594 C 149.40625 44.695312 149.433594 44.710938 149.460938 44.71875 C 155.164062 47.480469 159.261719 53.046875 159.949219 59.617188 C 159.953125 59.671875 159.957031 59.722656 159.960938 59.777344 C 159.984375 60.011719 160.003906 60.25 160.015625 60.484375 C 160.019531 60.558594 160.027344 60.636719 160.03125 60.710938 C 160.042969 61 160.050781 61.292969 160.050781 61.582031 C 160.050781 61.871094 160.039062 62.160156 160.03125 62.445312 C 160.027344 62.527344 160.019531 62.605469 160.015625 62.6875 C 160.003906 62.910156 159.984375 63.136719 159.964844 63.355469 C 159.957031 63.425781 159.953125 63.492188 159.945312 63.5625 C 159.882812 64.148438 159.792969 64.730469 159.679688 65.300781 C 159.671875 65.335938 159.664062 65.371094 159.65625 65.40625 C 157.886719 73.902344 150.339844 80.304688 141.328125 80.304688 C 141.234375 80.304688 141.160156 80.378906 141.160156 80.472656 C 141.160156 80.570312 141.234375 80.644531 141.328125 80.644531 C 143.863281 80.644531 146.28125 80.144531 148.496094 79.242188 C 149.175781 81.113281 149.519531 83.066406 149.519531 85.0625 Z M 149.519531 85.0625 " fill-opacity="1" fill-rule="nonzero"/></g><g clip-path="url(#808404b2b1)"><path fill="#000000" d="M 49.714844 131.34375 C 49.492188 131.609375 48.167969 130.863281 46.957031 129.496094 C 45.734375 128.125 45.128906 126.734375 45.425781 126.539062 C 45.726562 126.339844 46.761719 127.339844 47.921875 128.636719 C 49.078125 129.929688 49.953125 131.074219 49.714844 131.34375 Z M 44.6875 119.566406 C 44.691406 119.207031 45.5625 118.949219 46.609375 119.125 C 47.652344 119.300781 48.390625 119.828125 48.28125 120.160156 C 48.175781 120.507812 47.347656 120.554688 46.394531 120.390625 C 45.449219 120.230469 44.671875 119.925781 44.6875 119.566406 Z M 42.054688 107.519531 C 41.621094 108.925781 40.988281 109.992188 40.640625 109.882812 C 40.304688 109.773438 40.378906 108.542969 40.820312 107.140625 C 41.265625 105.726562 41.898438 104.671875 42.242188 104.777344 C 42.578125 104.886719 42.503906 106.109375 42.054688 107.519531 Z M 39.304688 99.375 C 39.3125 99.933594 39.320312 100.496094 39.289062 101.054688 C 39.179688 103.289062 39.171875 105.550781 39.265625 107.773438 C 39.304688 108.660156 39.351562 109.472656 39.414062 110.25 C 39.457031 110.257812 39.503906 110.257812 39.558594 110.273438 C 40.105469 110.425781 40.445312 110.859375 40.71875 111.304688 C 43.273438 115.324219 44.109375 120.1875 44.585938 124.414062 C 44.625 124.765625 44.722656 125.773438 44.03125 126.300781 C 44.230469 126.664062 44.445312 127.015625 44.660156 127.363281 C 46.359375 130.007812 48.117188 132.734375 50.257812 135.042969 C 50.628906 135.441406 51.050781 135.855469 51.472656 136.054688 C 51.039062 130.421875 50.414062 124.449219 48.402344 118.550781 C 46.101562 111.839844 43.046875 105.394531 39.304688 99.375 " fill-opacity="1" fill-rule="nonzero"/></g><g clip-path="url(#27f77ad93e)"><path fill="#000000" d="M 55.570312 112.09375 C 54.839844 110.207031 54.0625 108.363281 53.402344 106.820312 C 53.242188 106.441406 53.089844 106.066406 52.933594 105.703125 C 52.449219 104.535156 51.996094 103.433594 51.347656 102.339844 C 49.683594 99.503906 47.804688 97.050781 45.753906 95.03125 C 44.09375 95.515625 42.433594 96.035156 40.804688 96.601562 C 40.359375 96.757812 39.992188 96.925781 39.6875 97.113281 C 43.910156 103.652344 47.335938 110.695312 49.851562 118.054688 C 51.917969 124.105469 52.558594 130.175781 53.003906 135.890625 C 53.050781 135.867188 53.097656 135.855469 53.140625 135.835938 C 55.089844 135.058594 57.039062 134.179688 58.976562 133.214844 C 59.644531 128.859375 59.234375 123.960938 57.777344 118.648438 C 57.214844 116.628906 56.503906 114.492188 55.570312 112.09375 " fill-opacity="1" fill-rule="nonzero"/></g><path fill="#000000" d="M 119.460938 95.265625 C 119.574219 95.1875 119.679688 95.101562 119.789062 95.011719 C 117.953125 95.554688 116.292969 95.835938 114.742188 95.835938 C 113.542969 95.835938 112.410156 95.675781 111.316406 95.363281 C 109.902344 94.957031 108.628906 94.246094 107.390625 93.566406 L 106.679688 93.175781 C 106.097656 92.855469 105.503906 92.542969 104.921875 92.234375 C 102.84375 91.144531 100.691406 90.011719 98.742188 88.515625 C 97.632812 87.664062 96.578125 86.734375 95.621094 85.722656 C 94.785156 84.851562 94.058594 84.027344 93.453125 83.277344 C 93.144531 82.882812 92.863281 82.46875 92.589844 82.074219 C 92.390625 81.773438 92.191406 81.484375 91.976562 81.199219 C 91.882812 81.0625 91.785156 80.925781 91.675781 80.78125 C 91.359375 80.335938 91.039062 79.878906 90.691406 79.5625 C 90.53125 79.425781 90.402344 79.414062 90.3125 79.417969 C 89.703125 79.457031 88.90625 80.40625 88.640625 80.710938 C 88.289062 81.132812 87.984375 81.582031 87.664062 82.054688 C 87.386719 82.453125 87.101562 82.875 86.789062 83.277344 C 86.179688 84.035156 85.472656 84.839844 84.621094 85.722656 C 83.652344 86.734375 82.609375 87.675781 81.5 88.515625 C 79.546875 90.011719 77.398438 91.144531 75.320312 92.234375 C 74.734375 92.542969 74.148438 92.855469 73.5625 93.175781 L 72.851562 93.566406 C 71.613281 94.246094 70.339844 94.957031 68.929688 95.363281 C 66.394531 96.085938 63.695312 95.972656 60.460938 95.019531 C 60.566406 95.101562 60.675781 95.1875 60.78125 95.265625 C 63.347656 96.332031 66.527344 96.417969 69.800781 95.453125 C 73.050781 94.5 76.019531 92.710938 78.785156 90.960938 C 81.480469 89.25 84.296875 87.375 86.542969 84.9375 C 86.847656 84.601562 87.132812 84.242188 87.429688 83.859375 C 87.644531 83.585938 87.851562 83.316406 88.074219 83.058594 L 88.242188 82.84375 C 88.742188 82.222656 89.785156 80.933594 91.269531 81.910156 C 91.707031 82.191406 91.976562 82.652344 92.214844 83.058594 C 92.300781 83.195312 92.375 83.328125 92.464844 83.441406 C 92.835938 83.941406 93.253906 84.449219 93.699219 84.9375 C 95.945312 87.375 98.761719 89.25 101.453125 90.960938 C 104.222656 92.710938 107.191406 94.5 110.441406 95.453125 C 113.714844 96.417969 116.890625 96.332031 119.460938 95.265625 " fill-opacity="1" fill-rule="nonzero"/><g clip-path="url(#4506e699e9)"><path fill="#000000" d="M 39.75 111.917969 C 39.675781 111.800781 39.597656 111.6875 39.519531 111.59375 C 39.589844 112.269531 39.65625 112.910156 39.734375 113.519531 C 39.773438 113.78125 39.871094 114.03125 39.980469 114.339844 C 40.085938 114.613281 40.210938 114.933594 40.296875 115.300781 C 40.371094 115.664062 40.453125 116.019531 40.527344 116.386719 C 40.636719 116.890625 40.742188 117.394531 40.867188 117.902344 C 41.558594 120.710938 42.402344 123.113281 43.433594 125.183594 C 43.460938 125.054688 43.46875 124.855469 43.441406 124.535156 C 42.972656 120.4375 42.175781 115.738281 39.75 111.917969 " fill-opacity="1" fill-rule="nonzero"/></g><path fill="#000000" d="M 69.03125 120.398438 C 71.183594 119.542969 72.414062 117.324219 72.761719 115.253906 C 72.75 115.171875 72.761719 115.085938 72.792969 115.003906 C 72.796875 114.992188 72.804688 114.964844 72.8125 114.949219 C 72.828125 114.820312 72.84375 114.691406 72.851562 114.558594 C 73.070312 111.605469 72.703125 108.621094 72.273438 105.839844 C 71.980469 103.914062 71.589844 101.914062 70.394531 100.519531 C 69.390625 99.367188 67.777344 98.601562 65.859375 98.375 C 64.402344 98.195312 62.914062 98.320312 61.4375 98.496094 C 61.136719 98.753906 60.851562 99.027344 60.597656 99.335938 C 60.761719 99.667969 60.929688 99.992188 61.089844 100.328125 C 63.902344 101.386719 66.261719 103.914062 67.570312 107.320312 C 68.847656 110.625 69.460938 114.847656 69.269531 118.902344 C 69.246094 119.382812 69.183594 119.910156 69.03125 120.398438 " fill-opacity="1" fill-rule="nonzero"/><path fill="#000000" d="M 61.902344 101.988281 C 63.148438 104.578125 64.3125 107.195312 65.324219 109.867188 C 66.539062 113.0625 67.457031 116.121094 68.101562 119.082031 C 68.105469 119.007812 68.105469 118.925781 68.117188 118.847656 C 68.300781 114.941406 67.714844 110.890625 66.492188 107.734375 C 65.5 105.152344 63.867188 103.144531 61.902344 101.988281 " fill-opacity="1" fill-rule="nonzero"/><path fill="#000000" d="M 108.6875 99.519531 C 109.511719 98.570312 110.640625 97.835938 111.980469 97.371094 C 111.328125 97.257812 110.671875 97.113281 110.003906 96.921875 C 107.359375 96.140625 104.929688 94.863281 102.652344 93.496094 C 104.222656 96.722656 105.636719 100.039062 106.855469 103.417969 C 107.195312 102.003906 107.71875 100.644531 108.6875 99.519531 " fill-opacity="1" fill-rule="nonzero"/><path fill="#000000" d="M 86.996094 122.546875 C 87.386719 123.433594 88.269531 124.074219 89.203125 124.136719 C 90.117188 124.199219 90.132812 124.199219 91.039062 124.136719 C 91.972656 124.074219 92.855469 123.433594 93.246094 122.546875 C 93.625 121.683594 93.53125 120.582031 93.007812 119.746094 C 92.570312 119.054688 91.847656 118.519531 91.019531 118.265625 C 91 118.257812 90.984375 118.257812 90.960938 118.253906 C 90.832031 118.214844 90.691406 118.183594 90.5625 118.160156 C 90.46875 118.144531 90.394531 118.113281 90.324219 118.070312 C 90.21875 118.070312 90.078125 118.089844 89.855469 118.128906 L 89.679688 118.160156 C 88.660156 118.328125 87.75 118.925781 87.234375 119.746094 C 86.710938 120.582031 86.617188 121.683594 86.996094 122.546875 " fill-opacity="1" fill-rule="nonzero"/><path fill="#000000" d="M 54.933594 93.527344 C 54.753906 93.453125 54.601562 93.359375 54.449219 93.28125 C 54.277344 93.191406 54.035156 93.050781 53.941406 93.046875 C 51.625 93.488281 49.304688 94.039062 47.015625 94.675781 C 48.957031 96.667969 50.75 99.046875 52.351562 101.757812 C 53.027344 102.917969 53.5 104.058594 54.003906 105.269531 C 54.148438 105.632812 54.300781 106.003906 54.464844 106.367188 C 55.132812 107.929688 55.910156 109.773438 56.648438 111.679688 C 57.59375 114.109375 58.324219 116.296875 58.882812 118.34375 C 60.308594 123.492188 60.742188 128.277344 60.214844 132.589844 C 62.476562 131.425781 64.726562 130.144531 66.949219 128.753906 C 66.875 123.113281 65.644531 117.1875 63.171875 110.675781 C 60.953125 104.816406 58.007812 99.214844 54.933594 93.527344 " fill-opacity="1" fill-rule="nonzero"/><path fill="#000000" d="M 68.269531 97.371094 C 69.601562 97.847656 70.738281 98.570312 71.554688 99.519531 C 72.527344 100.644531 73.042969 102.003906 73.382812 103.417969 C 74.605469 100.039062 76.019531 96.722656 77.585938 93.496094 C 75.3125 94.863281 72.882812 96.140625 70.238281 96.921875 C 69.574219 97.113281 68.914062 97.257812 68.269531 97.371094 " fill-opacity="1" fill-rule="nonzero"/><path fill="#000000" d="M 100.402344 83.90625 C 103.398438 86.167969 106.621094 88.175781 109.988281 89.890625 C 112.097656 90.960938 114.539062 91.953125 116.683594 91.207031 C 118.074219 90.714844 119.273438 89.46875 119.980469 87.789062 C 120.664062 86.144531 120.84375 84.261719 120.96875 82.628906 C 121.1875 79.457031 121.289062 75.738281 120.304688 72.164062 C 119.699219 69.964844 118.792969 68.488281 117.53125 67.65625 C 116.28125 66.824219 114.679688 66.632812 113.132812 66.550781 C 112.441406 66.511719 111.757812 66.488281 111.0625 66.488281 C 107.625 66.488281 104.199219 66.960938 100.855469 67.886719 L 100.28125 68.046875 C 98.875 68.429688 97.273438 68.863281 96.136719 69.652344 C 95.429688 70.140625 95.113281 70.996094 94.773438 71.914062 L 94.703125 72.105469 C 93.992188 74.023438 94.042969 75.996094 94.859375 77.796875 C 95.996094 80.351562 98.300781 82.316406 100.402344 83.90625 " fill-opacity="1" fill-rule="nonzero"/><path fill="#000000" d="M 60.261719 87.789062 C 60.96875 89.46875 62.175781 90.714844 63.558594 91.207031 C 65.703125 91.953125 68.144531 90.960938 70.25 89.890625 C 73.621094 88.175781 76.84375 86.167969 79.839844 83.90625 C 80.894531 83.109375 81.992188 82.222656 82.96875 81.214844 C 83.953125 80.207031 84.8125 79.074219 85.386719 77.796875 C 86.199219 75.996094 86.25 74.023438 85.535156 72.105469 L 85.46875 71.914062 C 85.132812 71.003906 84.824219 70.140625 84.105469 69.652344 C 82.96875 68.863281 81.367188 68.429688 79.960938 68.046875 L 79.386719 67.886719 C 76.042969 66.960938 72.613281 66.488281 69.175781 66.488281 C 68.484375 66.488281 67.800781 66.511719 67.109375 66.550781 C 65.5625 66.632812 63.960938 66.824219 62.710938 67.65625 C 61.46875 68.480469 60.539062 69.996094 59.941406 72.15625 C 58.953125 75.738281 59.050781 79.457031 59.273438 82.628906 C 59.398438 84.261719 59.574219 86.144531 60.261719 87.789062 " fill-opacity="1" fill-rule="nonzero"/><g clip-path="url(#fa57328e5b)"><path fill="#000000" d="M 62.394531 61.472656 C 69.410156 59.554688 77.078125 59.707031 83.996094 61.902344 C 85.378906 62.347656 86.558594 62.828125 87.585938 63.386719 C 87.984375 63.601562 88.332031 63.863281 88.640625 64.097656 C 89.203125 64.523438 89.53125 64.761719 89.941406 64.769531 C 89.949219 64.769531 89.949219 64.769531 89.953125 64.769531 C 90.46875 64.769531 91.046875 64.386719 91.652344 63.988281 C 91.929688 63.8125 92.199219 63.636719 92.46875 63.484375 C 93.542969 62.886719 94.773438 62.367188 96.242188 61.902344 C 103.164062 59.707031 110.832031 59.554688 117.84375 61.472656 C 118.066406 61.535156 118.300781 61.59375 118.527344 61.648438 C 119.226562 61.820312 120.003906 62.019531 120.734375 62.382812 C 120.601562 60.390625 120.40625 58.386719 119.972656 56.460938 C 119.296875 53.480469 118.136719 51.054688 116.507812 49.269531 C 114.445312 46.996094 111.371094 45.378906 106.8125 44.171875 C 104.0625 43.4375 100.949219 42.613281 98.171875 42.75 C 96.566406 42.832031 95.128906 42.679688 93.738281 42.535156 C 93.039062 42.460938 92.320312 42.382812 91.570312 42.335938 C 90.035156 42.238281 88.503906 42.3125 86.886719 42.386719 C 86.21875 42.421875 85.542969 42.449219 84.875 42.472656 C 81.101562 42.582031 77.246094 43.152344 73.429688 44.171875 C 68.867188 45.378906 65.796875 46.996094 63.734375 49.269531 C 62.105469 51.054688 60.945312 53.480469 60.269531 56.46875 C 59.835938 58.386719 59.636719 60.390625 59.507812 62.382812 C 60.226562 62.019531 61.015625 61.820312 61.714844 61.648438 C 61.941406 61.59375 62.175781 61.535156 62.394531 61.472656 " fill-opacity="1" fill-rule="nonzero"/></g><path fill="#000000" d="M 92.921875 65.90625 C 92.136719 66.417969 91.160156 67.0625 89.953125 67.0625 C 89.941406 67.0625 89.925781 67.0625 89.910156 67.0625 C 88.722656 67.039062 87.902344 66.417969 87.242188 65.921875 C 86.980469 65.714844 86.726562 65.53125 86.480469 65.394531 C 85.582031 64.914062 84.546875 64.484375 83.296875 64.089844 C 80.785156 63.292969 78.164062 62.789062 75.519531 62.566406 C 77.398438 62.972656 79.191406 63.46875 80.835938 63.925781 C 82.667969 64.441406 84.734375 65.011719 86.527344 66.121094 L 86.671875 66.203125 C 86.980469 66.398438 87.324219 66.601562 87.59375 66.886719 C 87.75 67.050781 87.851562 67.230469 87.941406 67.382812 C 87.984375 67.464844 88.035156 67.558594 88.097656 67.632812 C 88.527344 68.191406 89.007812 68.574219 89.523438 68.757812 C 90.125 68.976562 90.957031 68.917969 91.402344 68.375 C 91.523438 68.222656 91.636719 68.0625 91.757812 67.910156 C 92.03125 67.535156 92.3125 67.152344 92.746094 66.800781 C 93.265625 66.375 93.90625 65.964844 94.699219 65.570312 C 96.230469 64.816406 97.84375 64.363281 99.402344 63.925781 C 101.050781 63.476562 102.839844 62.972656 104.714844 62.566406 C 102.070312 62.789062 99.457031 63.292969 96.945312 64.089844 C 95.628906 64.507812 94.535156 64.960938 93.601562 65.488281 C 93.375 65.609375 93.144531 65.761719 92.921875 65.90625 " fill-opacity="1" fill-rule="nonzero"/><path fill="#000000" d="M 98.648438 103.519531 C 97.398438 102.765625 95.871094 102.226562 94 101.863281 C 93.460938 101.757812 92.894531 101.667969 92.269531 101.582031 C 92.0625 101.5625 91.851562 101.566406 91.613281 101.582031 C 91.410156 101.597656 91.207031 101.613281 90.992188 101.605469 L 90.417969 101.574219 C 89.492188 101.539062 88.628906 101.492188 87.726562 101.582031 C 85.472656 101.800781 83.359375 102.464844 81.59375 103.519531 C 79.738281 104.609375 78.125 106.351562 76.78125 108.683594 C 76.382812 109.378906 76.023438 110.105469 75.6875 110.839844 C 77.078125 109.140625 78.832031 107.683594 80.84375 106.558594 C 82.496094 105.640625 84.332031 104.945312 86.296875 104.496094 C 86.84375 104.367188 87.378906 104.339844 87.902344 104.3125 C 88.167969 104.296875 88.445312 104.289062 88.722656 104.257812 C 90.679688 104.050781 92.496094 104.140625 94.136719 104.542969 C 96.027344 104.992188 97.796875 105.671875 99.398438 106.558594 C 101.410156 107.683594 103.164062 109.140625 104.546875 110.832031 C 104.214844 110.097656 103.859375 109.378906 103.460938 108.683594 C 102.117188 106.351562 100.503906 104.609375 98.648438 103.519531 " fill-opacity="1" fill-rule="nonzero"/><path fill="#000000" d="M 106.4375 105.664062 C 104.886719 101.109375 102.992188 96.636719 100.8125 92.359375 C 100.75 92.320312 100.6875 92.28125 100.632812 92.242188 C 97.851562 90.484375 94.9375 88.546875 92.5625 85.96875 C 92.078125 85.441406 91.632812 84.890625 91.214844 84.34375 C 91.109375 84.1875 91 84.011719 90.894531 83.828125 C 90.753906 83.589844 90.5625 83.277344 90.425781 83.183594 C 90.199219 83.035156 90.109375 82.972656 89.441406 83.804688 L 89.246094 84.035156 C 89.039062 84.289062 88.839844 84.539062 88.648438 84.789062 C 88.339844 85.179688 88.035156 85.585938 87.679688 85.96875 C 85.304688 88.546875 82.390625 90.484375 79.609375 92.242188 C 79.554688 92.28125 79.492188 92.320312 79.429688 92.359375 C 77.246094 96.644531 75.355469 101.117188 73.804688 105.664062 C 73.890625 106.222656 73.972656 106.792969 74.054688 107.371094 C 74.433594 106.398438 74.855469 105.425781 75.378906 104.496094 C 76.855469 101.859375 79.03125 99.6875 81.683594 98.21875 C 84.269531 96.800781 87.171875 96.09375 90.117188 96.195312 C 93.070312 96.09375 95.972656 96.789062 98.558594 98.21875 C 101.210938 99.6875 103.386719 101.859375 104.859375 104.496094 C 105.382812 105.417969 105.808594 106.398438 106.1875 107.371094 C 106.269531 106.792969 106.351562 106.222656 106.4375 105.664062 " fill-opacity="1" fill-rule="nonzero"/><path fill="#000000" d="M 58.460938 71.753906 C 59.167969 69.195312 60.277344 67.433594 61.851562 66.386719 C 63.410156 65.351562 65.339844 65.113281 67.027344 65.019531 C 71.3125 64.78125 75.621094 65.257812 79.800781 66.417969 L 80.363281 66.574219 C 81.890625 66.984375 83.628906 67.457031 84.980469 68.390625 C 86.097656 69.164062 86.527344 70.347656 86.910156 71.394531 L 86.980469 71.578125 C 87.371094 72.625 87.5625 73.710938 87.5625 74.796875 C 87.5625 76.039062 87.304688 77.273438 86.789062 78.425781 C 85.503906 81.289062 83.019531 83.417969 80.769531 85.121094 C 77.703125 87.4375 74.394531 89.5 70.953125 91.25 C 69.183594 92.152344 67.183594 93 65.179688 93 C 64.464844 93 63.75 92.894531 63.050781 92.640625 C 61.253906 92.015625 59.714844 90.453125 58.84375 88.371094 C 58.066406 86.519531 57.871094 84.496094 57.746094 82.738281 C 57.507812 79.433594 57.40625 75.550781 58.460938 71.753906 Z M 93.261719 71.578125 L 93.328125 71.386719 C 93.714844 70.339844 94.152344 69.152344 95.257812 68.390625 C 96.613281 67.457031 98.34375 66.984375 99.871094 66.574219 L 100.441406 66.417969 C 104.621094 65.257812 108.929688 64.78125 113.214844 65.019531 C 114.898438 65.113281 116.828125 65.351562 118.390625 66.386719 C 119.964844 67.433594 121.074219 69.195312 121.78125 71.753906 C 122.835938 75.550781 122.734375 79.441406 122.496094 82.738281 C 122.371094 84.496094 122.171875 86.519531 121.398438 88.371094 C 120.527344 90.453125 118.988281 92.015625 117.199219 92.640625 C 116.488281 92.894531 115.777344 93 115.0625 93 C 113.054688 93 111.058594 92.152344 109.289062 91.25 C 105.84375 89.5 102.539062 87.4375 99.472656 85.121094 C 97.21875 83.417969 94.734375 81.289062 93.453125 78.425781 C 92.492188 76.277344 92.421875 73.847656 93.261719 71.578125 Z M 58.113281 92.242188 C 58.238281 92.449219 58.363281 92.648438 58.492188 92.839844 C 59.101562 93.261719 59.757812 93.601562 60.46875 93.828125 C 63.625 94.8125 66.21875 94.949219 68.609375 94.261719 C 69.890625 93.894531 71.113281 93.214844 72.289062 92.5625 L 73.007812 92.167969 C 73.59375 91.847656 74.1875 91.53125 74.78125 91.226562 C 76.90625 90.101562 78.914062 89.046875 80.800781 87.613281 C 81.851562 86.796875 82.859375 85.898438 83.78125 84.9375 C 84.605469 84.082031 85.316406 83.285156 85.878906 82.570312 C 86.175781 82.191406 86.433594 81.816406 86.703125 81.414062 C 87.035156 80.933594 87.367188 80.441406 87.757812 79.976562 C 88.402344 79.21875 89.261719 78.339844 90.230469 78.273438 C 90.683594 78.242188 91.109375 78.398438 91.460938 78.71875 C 91.910156 79.113281 92.285156 79.648438 92.621094 80.117188 C 92.714844 80.253906 92.8125 80.390625 92.90625 80.511719 C 93.132812 80.8125 93.339844 81.125 93.542969 81.429688 C 93.816406 81.828125 94.078125 82.210938 94.363281 82.570312 C 94.9375 83.296875 95.644531 84.085938 96.457031 84.9375 C 97.378906 85.898438 98.382812 86.796875 99.441406 87.613281 C 101.328125 89.046875 103.332031 90.101562 105.460938 91.226562 C 106.054688 91.53125 106.644531 91.847656 107.234375 92.167969 L 107.953125 92.5625 C 109.132812 93.214844 110.351562 93.894531 111.632812 94.261719 C 114.023438 94.949219 116.613281 94.8125 119.773438 93.828125 C 120.480469 93.601562 121.140625 93.261719 121.75 92.839844 C 121.878906 92.648438 122.003906 92.449219 122.125 92.242188 C 123.03125 90.730469 123.664062 89.449219 123.996094 87.695312 C 124.960938 82.628906 125.113281 77.476562 124.453125 72.363281 L 124.433594 72.199219 C 124.1875 70.269531 123.847656 67.640625 122.292969 66.839844 C 121.503906 66.429688 121.03125 65.820312 120.660156 65.332031 C 120.414062 65.011719 120.203125 64.738281 119.941406 64.566406 C 119.4375 64.226562 118.734375 64.058594 117.992188 63.882812 C 117.726562 63.820312 117.472656 63.757812 117.226562 63.6875 C 116 63.355469 114.753906 63.085938 113.492188 62.878906 C 108.6875 62.546875 103.738281 63.914062 99.71875 65.035156 C 98.203125 65.457031 96.640625 65.882812 95.214844 66.59375 C 94.496094 66.957031 93.929688 67.308594 93.476562 67.679688 C 93.160156 67.941406 92.9375 68.246094 92.683594 68.589844 C 92.5625 68.757812 92.429688 68.933594 92.292969 69.101562 C 91.800781 69.699219 91.019531 70.023438 90.195312 70.023438 C 89.839844 70.023438 89.480469 69.964844 89.132812 69.84375 C 88.402344 69.574219 87.75 69.070312 87.179688 68.328125 C 87.089844 68.207031 87.007812 68.085938 86.941406 67.953125 C 86.875 67.839844 86.820312 67.742188 86.75 67.671875 C 86.589844 67.503906 86.3125 67.335938 86.074219 67.183594 L 85.914062 67.089844 C 84.269531 66.078125 82.28125 65.515625 80.523438 65.035156 C 76.503906 63.914062 71.5625 62.546875 66.753906 62.878906 C 65.488281 63.078125 64.242188 63.355469 63.011719 63.6875 C 62.765625 63.757812 62.515625 63.820312 62.25 63.882812 C 61.511719 64.058594 60.804688 64.226562 60.300781 64.566406 C 60.042969 64.738281 59.828125 65.011719 59.582031 65.332031 C 59.207031 65.820312 58.738281 66.429688 57.945312 66.839844 C 56.390625 67.640625 56.054688 70.269531 55.808594 72.199219 L 55.785156 72.363281 C 55.121094 77.46875 55.277344 82.628906 56.25 87.695312 C 56.578125 89.4375 57.230469 90.777344 58.113281 92.242188 " fill-opacity="1" fill-rule="nonzero"/><path fill="#000000" d="M 105.960938 109.421875 C 105.8125 109.371094 105.6875 109.257812 105.628906 109.101562 C 105.105469 107.734375 104.566406 106.328125 103.851562 105.042969 C 102.5 102.640625 100.425781 100.566406 97.996094 99.222656 C 95.6875 97.945312 92.988281 97.289062 90.347656 97.339844 C 90.339844 97.339844 90.324219 97.339844 90.316406 97.339844 C 90.253906 97.339844 90.1875 97.339844 90.125 97.339844 C 90.054688 97.339844 89.992188 97.339844 89.925781 97.339844 C 89.917969 97.339844 89.910156 97.339844 89.890625 97.339844 C 87.25 97.289062 84.550781 97.945312 82.246094 99.222656 C 79.816406 100.566406 77.738281 102.640625 76.386719 105.042969 C 75.664062 106.335938 75.128906 107.742188 74.609375 109.101562 C 74.550781 109.257812 74.425781 109.371094 74.28125 109.421875 C 74.328125 109.921875 74.363281 110.417969 74.394531 110.914062 C 74.8125 109.960938 75.257812 109.019531 75.78125 108.109375 C 77.226562 105.613281 78.980469 103.730469 81 102.53125 C 82.914062 101.390625 85.195312 100.671875 87.617188 100.4375 C 88.597656 100.34375 89.550781 100.390625 90.46875 100.429688 L 91.039062 100.457031 C 91.207031 100.464844 91.378906 100.453125 91.539062 100.445312 C 91.800781 100.421875 92.09375 100.40625 92.421875 100.445312 C 93.070312 100.535156 93.660156 100.628906 94.21875 100.742188 C 96.230469 101.128906 97.863281 101.714844 99.242188 102.53125 C 101.261719 103.730469 103.015625 105.601562 104.460938 108.109375 C 104.984375 109.019531 105.429688 109.960938 105.84375 110.914062 C 105.875 110.417969 105.914062 109.921875 105.960938 109.421875 " fill-opacity="1" fill-rule="nonzero"/><path fill="#000000" d="M 87.050781 115.632812 C 87.058594 114.960938 87.0625 114.277344 87.074219 113.605469 L 87.082031 113.117188 C 87.089844 112.996094 87.09375 112.863281 87.09375 112.734375 C 87.125 112.246094 87.152344 111.730469 86.925781 111.449219 C 86.875 111.390625 86.742188 111.222656 86.296875 111.222656 C 86.207031 111.222656 86.089844 111.226562 85.964844 111.242188 C 85.191406 111.359375 84.34375 111.578125 83.535156 111.894531 C 82.21875 112.394531 81.175781 113.152344 80.515625 114.085938 C 79.921875 114.910156 79.59375 115.90625 79.277344 117.144531 L 79.253906 117.230469 C 78.949219 118.441406 78.65625 119.582031 78.773438 120.769531 C 78.800781 121.050781 78.816406 121.339844 78.824219 121.621094 C 78.839844 122.035156 78.855469 122.425781 78.925781 122.808594 C 79.007812 123.257812 79.140625 123.730469 79.316406 124.25 L 82.160156 123.171875 C 82.421875 121.125 83.242188 119.144531 84.484375 117.5625 C 85.28125 116.546875 86.144531 115.894531 87.050781 115.632812 " fill-opacity="1" fill-rule="nonzero"/><path fill="#000000" d="M 105.898438 115.050781 C 105.8125 114.996094 105.746094 114.921875 105.707031 114.820312 C 104.371094 111.855469 101.921875 109.277344 98.835938 107.558594 C 97.328125 106.726562 95.652344 106.085938 93.867188 105.652344 C 92.363281 105.289062 90.667969 105.207031 88.847656 105.394531 C 88.546875 105.425781 88.257812 105.445312 87.953125 105.457031 C 87.464844 105.480469 87.003906 105.503906 86.558594 105.613281 C 84.699219 106.039062 82.96875 106.699219 81.40625 107.558594 C 78.320312 109.277344 75.871094 111.855469 74.535156 114.820312 C 74.496094 114.921875 74.425781 114.992188 74.34375 115.042969 C 74.066406 117.472656 72.796875 120.078125 70.464844 121.410156 C 70.984375 121.828125 71.40625 122.28125 71.730469 122.683594 C 72.519531 123.691406 73.070312 124.808594 73.59375 125.886719 L 73.726562 126.15625 C 74.820312 128.378906 76.066406 130.679688 77.808594 132.460938 C 77.925781 132.574219 78.046875 132.679688 78.164062 132.789062 C 76.25 129.058594 75.078125 124.984375 74.757812 120.773438 C 74.636719 119.257812 74.566406 117.003906 75.3125 114.921875 C 76.324219 112.074219 78.761719 109.679688 82.003906 108.347656 C 84.023438 107.515625 86.289062 107.078125 89.007812 106.996094 C 89.019531 106.996094 89.019531 106.988281 89.027344 106.988281 C 89.125 106.988281 89.214844 106.988281 89.308594 106.988281 C 89.582031 106.980469 89.847656 106.96875 90.125 106.96875 C 90.394531 106.96875 90.65625 106.980469 90.917969 106.988281 C 91.019531 106.988281 91.109375 106.988281 91.214844 106.988281 C 91.222656 106.988281 91.222656 106.996094 91.234375 106.996094 C 93.953125 107.078125 96.21875 107.515625 98.234375 108.347656 C 101.480469 109.679688 103.914062 112.074219 104.929688 114.921875 C 105.675781 117.003906 105.605469 119.257812 105.492188 120.773438 C 105.164062 124.984375 103.992188 129.058594 102.078125 132.789062 C 102.191406 132.679688 102.3125 132.574219 102.433594 132.460938 C 104.175781 130.679688 105.421875 128.378906 106.515625 126.15625 L 106.644531 125.894531 C 107.167969 124.816406 107.71875 123.691406 108.511719 122.683594 C 108.835938 122.28125 109.257812 121.828125 109.773438 121.410156 C 107.441406 120.078125 106.175781 117.480469 105.898438 115.050781 " fill-opacity="1" fill-rule="nonzero"/><g clip-path="url(#aea777f7b3)"><path fill="#000000" d="M 102.617188 120.882812 C 102.585938 121.140625 102.578125 121.410156 102.570312 121.667969 C 102.546875 122.105469 102.53125 122.554688 102.445312 123.015625 C 102.324219 123.679688 102.125 124.375 101.808594 125.199219 C 101.753906 125.34375 101.644531 125.460938 101.503906 125.519531 C 101.433594 125.558594 101.347656 125.574219 101.269531 125.574219 C 101.203125 125.574219 101.132812 125.558594 101.0625 125.535156 L 97.34375 124.121094 C 97.132812 124.039062 97 123.855469 96.976562 123.640625 C 96.78125 121.675781 96.027344 119.773438 94.855469 118.273438 C 94.089844 117.3125 93.316406 116.769531 92.546875 116.660156 C 92.261719 116.617188 92.054688 116.378906 92.046875 116.097656 C 92.035156 115.21875 92.023438 114.339844 92.007812 113.460938 L 92.007812 113.128906 C 92 113.023438 92 112.910156 91.992188 112.785156 C 91.960938 112.152344 91.914062 111.359375 92.414062 110.738281 C 92.847656 110.195312 93.523438 109.980469 94.4375 110.113281 C 95.296875 110.234375 96.238281 110.480469 97.128906 110.820312 C 98.648438 111.410156 99.871094 112.304688 100.671875 113.421875 C 101.402344 114.453125 101.789062 115.683594 102.085938 116.859375 L 102.101562 116.9375 C 102.421875 118.191406 102.753906 119.488281 102.617188 120.882812 Z M 99.355469 128.386719 C 98.8125 129.066406 98.195312 129.664062 97.535156 130.152344 C 97.191406 130.402344 96.824219 130.605469 96.472656 130.800781 C 96.210938 130.949219 95.945312 131.09375 95.6875 131.257812 C 94.292969 132.214844 92.1875 132.230469 90.648438 132.246094 L 90.5625 132.246094 C 90.441406 132.246094 90.316406 132.246094 90.1875 132.246094 C 89.585938 132.246094 88.964844 132.222656 88.324219 132.046875 C 88.027344 131.964844 87.6875 131.941406 87.335938 131.917969 C 86.964844 131.894531 86.582031 131.863281 86.179688 131.765625 C 85.898438 131.695312 85.652344 131.570312 85.4375 131.457031 C 85.316406 131.394531 85.191406 131.335938 85.058594 131.292969 L 84.894531 131.230469 C 84.4375 131.054688 83.964844 130.875 83.503906 130.617188 C 82.523438 130.066406 81.636719 129.320312 80.886719 128.386719 C 80.769531 128.238281 80.730469 128.050781 80.777344 127.875 C 80.832031 127.699219 80.960938 127.554688 81.140625 127.492188 C 82.691406 126.941406 84.199219 126.390625 85.589844 125.667969 C 85.914062 125.496094 86.210938 125.636719 86.949219 125.949219 C 87.089844 126.007812 87.203125 126.0625 87.257812 126.082031 L 87.367188 126.109375 C 87.71875 126.214844 88.117188 126.320312 88.417969 126.308594 C 89.53125 126.226562 90.53125 126.230469 91.480469 126.339844 C 91.910156 126.390625 92.722656 126.308594 94.136719 125.65625 C 94.304688 125.582031 94.488281 125.582031 94.652344 125.667969 C 96.042969 126.390625 97.550781 126.941406 99.101562 127.492188 C 99.277344 127.554688 99.410156 127.699219 99.460938 127.875 C 99.511719 128.050781 99.472656 128.238281 99.355469 128.386719 Z M 78.96875 125.574219 C 78.894531 125.574219 78.808594 125.558594 78.738281 125.519531 C 78.59375 125.460938 78.488281 125.34375 78.433594 125.199219 C 78.125 124.382812 77.917969 123.6875 77.796875 123.015625 C 77.707031 122.554688 77.695312 122.105469 77.671875 121.667969 C 77.664062 121.410156 77.65625 121.140625 77.625 120.882812 C 77.488281 119.496094 77.820312 118.199219 78.136719 116.953125 L 78.15625 116.859375 C 78.464844 115.683594 78.839844 114.453125 79.570312 113.421875 C 80.371094 112.304688 81.59375 111.410156 83.113281 110.820312 C 84.011719 110.480469 84.945312 110.234375 85.8125 110.113281 C 86.710938 109.980469 87.394531 110.195312 87.828125 110.738281 C 88.324219 111.359375 88.28125 112.152344 88.25 112.796875 C 88.242188 112.910156 88.242188 113.023438 88.230469 113.128906 L 88.226562 113.625 C 88.21875 114.445312 88.203125 115.269531 88.195312 116.097656 C 88.195312 116.378906 87.980469 116.617188 87.695312 116.660156 C 86.925781 116.769531 86.148438 117.3125 85.386719 118.273438 C 84.210938 119.773438 83.460938 121.675781 83.265625 123.640625 C 83.253906 123.855469 83.105469 124.039062 82.898438 124.121094 L 79.179688 125.535156 C 79.117188 125.558594 79.039062 125.574219 78.96875 125.574219 Z M 89.488281 117.03125 L 89.664062 117 C 90.339844 116.886719 90.617188 116.855469 91.347656 117.167969 C 92.4375 117.5 93.398438 118.214844 93.984375 119.144531 C 94.710938 120.304688 94.835938 121.789062 94.304688 123.007812 C 93.746094 124.273438 92.464844 125.191406 91.109375 125.285156 C 90.632812 125.3125 90.378906 125.328125 90.117188 125.328125 C 89.863281 125.328125 89.609375 125.3125 89.125 125.285156 C 87.777344 125.191406 86.496094 124.273438 85.941406 123.007812 C 85.40625 121.789062 85.53125 120.304688 86.257812 119.136719 C 86.949219 118.046875 88.15625 117.257812 89.488281 117.03125 Z M 103.476562 115.425781 C 102.617188 112.996094 100.484375 110.921875 97.644531 109.753906 C 95.746094 108.976562 93.570312 108.574219 90.917969 108.515625 C 90.640625 108.507812 90.378906 108.5 90.117188 108.5 C 89.863281 108.5 89.601562 108.507812 89.339844 108.515625 C 86.679688 108.574219 84.496094 108.976562 82.597656 109.753906 C 79.757812 110.921875 77.625 112.996094 76.765625 115.425781 C 76.261719 116.828125 76.117188 118.441406 76.289062 120.660156 C 76.671875 125.6875 78.332031 130.515625 81.070312 134.738281 C 82.035156 135.164062 83.03125 135.402344 83.992188 135.410156 C 83.996094 135.410156 84.003906 135.417969 84.011719 135.417969 C 84.550781 135.320312 85.089844 135.609375 85.289062 136.136719 C 85.429688 136.488281 85.542969 136.851562 85.644531 137.222656 C 87.179688 137.253906 88.730469 137.296875 90.285156 137.34375 C 91.847656 137.378906 93.414062 137.429688 94.960938 137.460938 C 94.96875 137.433594 94.980469 137.402344 94.988281 137.378906 C 95.050781 137.203125 95.113281 137.027344 95.160156 136.878906 C 95.128906 136.777344 95.113281 136.675781 95.105469 136.570312 C 95.105469 135.9375 95.613281 135.417969 96.25 135.410156 C 97.210938 135.402344 98.203125 135.164062 99.171875 134.738281 C 101.910156 130.515625 103.570312 125.6875 103.953125 120.660156 C 104.125 118.441406 103.976562 116.828125 103.476562 115.425781 " fill-opacity="1" fill-rule="nonzero"/></g><path fill="#000000" d="M 136.800781 124.535156 C 136.773438 124.832031 136.777344 125.039062 136.808594 125.175781 C 137.839844 123.113281 138.683594 120.707031 139.375 117.902344 C 139.5 117.40625 139.597656 116.90625 139.707031 116.410156 C 139.78125 116.035156 139.859375 115.667969 139.945312 115.300781 C 140.027344 114.933594 140.152344 114.613281 140.261719 114.339844 C 140.367188 114.03125 140.46875 113.78125 140.507812 113.519531 C 140.582031 112.910156 140.652344 112.269531 140.722656 111.59375 C 140.636719 111.695312 140.558594 111.800781 140.488281 111.917969 C 138.070312 115.738281 137.269531 120.4375 136.800781 124.535156 " fill-opacity="1" fill-rule="nonzero"/><path fill="#000000" d="M 140.550781 97.113281 C 140.253906 96.925781 139.882812 96.757812 139.441406 96.601562 C 137.808594 96.035156 136.148438 95.515625 134.488281 95.03125 C 132.433594 97.050781 130.558594 99.503906 128.890625 102.339844 C 128.242188 103.433594 127.792969 104.535156 127.308594 105.703125 C 127.152344 106.066406 127 106.441406 126.835938 106.820312 C 126.21875 108.261719 125.410156 110.175781 124.671875 112.09375 C 123.738281 114.492188 123.027344 116.628906 122.464844 118.648438 C 121.460938 122.304688 120.949219 125.765625 120.949219 128.992188 C 120.949219 130.449219 121.058594 131.859375 121.265625 133.214844 C 123.203125 134.179688 125.152344 135.058594 127.101562 135.835938 C 127.144531 135.855469 127.191406 135.875 127.238281 135.890625 C 127.6875 130.175781 128.320312 124.113281 130.390625 118.054688 C 132.90625 110.695312 136.332031 103.652344 140.550781 97.113281 " fill-opacity="1" fill-rule="nonzero"/><path fill="#000000" d="M 112.671875 107.320312 C 113.976562 103.914062 116.335938 101.386719 119.152344 100.328125 C 119.3125 99.992188 119.480469 99.667969 119.644531 99.335938 C 119.398438 99.027344 119.101562 98.753906 118.804688 98.496094 C 117.328125 98.320312 115.839844 98.195312 114.394531 98.375 C 112.464844 98.601562 110.847656 99.367188 109.847656 100.519531 C 108.652344 101.914062 108.261719 103.914062 107.964844 105.839844 C 107.542969 108.621094 107.171875 111.605469 107.390625 114.558594 C 107.398438 114.691406 107.410156 114.820312 107.4375 114.960938 C 107.4375 114.972656 107.441406 114.992188 107.449219 115.003906 C 107.480469 115.085938 107.492188 115.171875 107.480469 115.253906 C 107.828125 117.324219 109.066406 119.542969 111.210938 120.398438 C 111.058594 119.910156 110.996094 119.382812 110.972656 118.902344 C 110.78125 114.84375 111.394531 110.625 112.671875 107.320312 " fill-opacity="1" fill-rule="nonzero"/><path fill="#000000" d="M 118.335938 101.988281 C 116.375 103.144531 114.742188 105.152344 113.75 107.734375 C 112.53125 110.890625 111.941406 114.941406 112.125 118.847656 C 112.132812 118.925781 112.132812 119.007812 112.140625 119.082031 C 112.785156 116.121094 113.699219 113.0625 114.90625 109.867188 C 115.929688 107.195312 117.09375 104.578125 118.335938 101.988281 " fill-opacity="1" fill-rule="nonzero"/><path fill="#000000" d="M 91.347656 127.476562 C 90.476562 127.386719 89.550781 127.367188 88.503906 127.449219 C 87.992188 127.484375 87.472656 127.332031 87.042969 127.21875 L 86.933594 127.1875 C 86.867188 127.160156 86.695312 127.09375 86.488281 127.003906 C 86.351562 126.941406 86.105469 126.835938 85.941406 126.773438 C 84.78125 127.363281 83.574219 127.835938 82.332031 128.285156 C 82.851562 128.824219 83.4375 129.273438 84.066406 129.625 C 84.453125 129.839844 84.867188 129.992188 85.304688 130.152344 L 85.46875 130.222656 C 85.636719 130.28125 85.789062 130.359375 85.949219 130.433594 C 86.136719 130.527344 86.304688 130.609375 86.464844 130.65625 C 86.757812 130.722656 87.082031 130.75 87.417969 130.777344 C 87.8125 130.800781 88.21875 130.832031 88.632812 130.949219 C 89.246094 131.113281 89.855469 131.105469 90.554688 131.101562 L 90.640625 131.671875 L 90.632812 131.101562 C 92.023438 131.085938 93.929688 131.070312 95.042969 130.3125 C 95.320312 130.121094 95.621094 129.960938 95.914062 129.792969 C 96.25 129.609375 96.566406 129.441406 96.851562 129.226562 C 97.21875 128.949219 97.582031 128.636719 97.917969 128.285156 C 96.699219 127.84375 95.503906 127.386719 94.367188 126.808594 C 93.140625 127.355469 92.144531 127.570312 91.347656 127.476562 " fill-opacity="1" fill-rule="nonzero"/><path fill="#000000" d="M 100.964844 117.144531 C 100.648438 115.90625 100.320312 114.921875 99.726562 114.085938 C 99.0625 113.152344 98.019531 112.394531 96.703125 111.894531 C 95.898438 111.578125 95.050781 111.359375 94.273438 111.242188 C 93.5625 111.144531 93.375 111.371094 93.316406 111.449219 C 93.089844 111.730469 93.113281 112.246094 93.144531 112.734375 C 93.152344 112.863281 93.152344 112.996094 93.160156 113.117188 L 93.160156 113.445312 C 93.175781 114.171875 93.183594 114.902344 93.191406 115.632812 C 94.097656 115.894531 94.960938 116.546875 95.757812 117.5625 C 97 119.144531 97.820312 121.125 98.078125 123.171875 L 100.925781 124.25 C 101.101562 123.722656 101.234375 123.257812 101.316406 122.808594 C 101.386719 122.425781 101.402344 122.035156 101.417969 121.621094 C 101.425781 121.339844 101.441406 121.050781 101.46875 120.769531 C 101.585938 119.582031 101.292969 118.433594 100.988281 117.21875 L 100.964844 117.144531 " fill-opacity="1" fill-rule="nonzero"/><g clip-path="url(#3b8ec79c86)"><path fill="#000000" d="M 139.597656 109.882812 C 139.253906 109.992188 138.621094 108.925781 138.183594 107.519531 C 137.738281 106.109375 137.660156 104.886719 138 104.777344 C 138.34375 104.671875 138.976562 105.726562 139.421875 107.140625 C 139.859375 108.542969 139.933594 109.773438 139.597656 109.882812 Z M 133.851562 120.390625 C 132.898438 120.554688 132.066406 120.507812 131.957031 120.160156 C 131.851562 119.828125 132.589844 119.300781 133.636719 119.125 C 134.679688 118.949219 135.546875 119.207031 135.554688 119.566406 C 135.570312 119.925781 134.792969 120.230469 133.851562 120.390625 Z M 133.285156 129.496094 C 132.074219 130.863281 130.753906 131.609375 130.527344 131.34375 C 130.289062 131.074219 131.164062 129.929688 132.320312 128.636719 C 133.480469 127.339844 134.519531 126.339844 134.816406 126.539062 C 135.113281 126.734375 134.507812 128.125 133.285156 129.496094 Z M 140.953125 101.054688 C 140.921875 100.496094 140.929688 99.933594 140.9375 99.367188 C 137.191406 105.394531 134.140625 111.839844 131.839844 118.550781 C 129.828125 124.449219 129.207031 130.421875 128.765625 136.054688 C 129.191406 135.855469 129.613281 135.441406 129.984375 135.042969 C 132.128906 132.734375 133.878906 129.996094 135.578125 127.363281 C 135.800781 127.015625 136.007812 126.660156 136.21875 126.289062 C 135.757812 125.941406 135.554688 125.320312 135.65625 124.414062 C 136.128906 120.1875 136.96875 115.316406 139.523438 111.304688 C 139.800781 110.859375 140.136719 110.425781 140.683594 110.273438 C 140.734375 110.257812 140.78125 110.257812 140.828125 110.25 C 140.886719 109.472656 140.9375 108.660156 140.976562 107.773438 C 141.066406 105.535156 141.0625 103.28125 140.953125 101.054688 " fill-opacity="1" fill-rule="nonzero"/></g><path fill="#000000" d="M 121.359375 118.34375 C 121.917969 116.296875 122.648438 114.117188 123.59375 111.679688 C 124.339844 109.746094 125.152344 107.828125 125.777344 106.367188 C 125.941406 106.003906 126.09375 105.632812 126.238281 105.269531 C 126.738281 104.058594 127.214844 102.917969 127.890625 101.757812 C 129.492188 99.046875 131.28125 96.667969 133.226562 94.675781 C 130.929688 94.039062 128.609375 93.488281 126.269531 93.039062 C 126.210938 93.050781 125.960938 93.191406 125.792969 93.28125 C 125.636719 93.359375 125.484375 93.453125 125.308594 93.527344 C 122.226562 99.214844 119.289062 104.816406 117.070312 110.675781 C 114.597656 117.1875 113.363281 123.113281 113.292969 128.753906 C 115.515625 130.144531 117.765625 131.425781 120.027344 132.589844 C 119.496094 128.277344 119.933594 123.492188 121.359375 118.34375 " fill-opacity="1" fill-rule="nonzero"/></svg>