<svg xmlns="http://www.w3.org/2000/svg" xmlns:xlink="http://www.w3.org/1999/xlink" width="240" zoomAndPan="magnify" viewBox="0 0 180 179.999997" height="240" preserveAspectRatio="xMidYMid meet" version="1.0"><defs><clipPath id="e9f43d82ec"><path d="M 26.183594 26.324219 L 153.816406 26.324219 L 153.816406 153.675781 L 26.183594 153.675781 Z M 26.183594 26.324219 " clip-rule="nonzero"/></clipPath><clipPath id="a153d4d120"><path d="M 169.089844 81.925781 L 169.773438 81.925781 L 169.773438 98.046875 L 169.089844 98.046875 Z M 169.089844 81.925781 " clip-rule="nonzero"/></clipPath><clipPath id="d430d48514"><path d="M 66.429688 55.109375 L 68.101562 55.109375 L 68.101562 124.859375 L 66.429688 124.859375 Z M 66.429688 55.109375 " clip-rule="nonzero"/></clipPath><clipPath id="a7b9926169"><path d="M 38.199219 55.109375 L 39.785156 55.109375 L 39.785156 124.859375 L 38.199219 124.859375 Z M 38.199219 55.109375 " clip-rule="nonzero"/></clipPath><clipPath id="ec6c954c20"><path d="M 32.683594 55.109375 L 34.105469 55.109375 L 34.105469 124.859375 L 32.683594 124.859375 Z M 32.683594 55.109375 " clip-rule="nonzero"/></clipPath><clipPath id="e326b761df"><path d="M 10.023438 74 L 13 74 L 13 106 L 10.023438 106 Z M 10.023438 74 " clip-rule="nonzero"/></clipPath><clipPath id="d271038284"><path d="M 10.023438 86 L 11 86 L 11 94 L 10.023438 94 Z M 10.023438 86 " clip-rule="nonzero"/></clipPath><clipPath id="1d6ba1be9c"><path d="M 31.363281 36 L 148.363281 36 L 148.363281 146.828125 L 31.363281 146.828125 Z M 31.363281 36 " clip-rule="nonzero"/></clipPath></defs><path fill="#a9bab4" d="M 18 18 L 162 18 L 162 162 L 18 162 Z M 18 18 " fill-opacity="1" fill-rule="nonzero"/><g clip-path="url(#e9f43d82ec)"><path fill="#50665a" d="M 26.183594 26.324219 L 154.027344 26.324219 L 154.027344 153.675781 L 26.183594 153.675781 Z M 26.183594 26.324219 " fill-opacity="1" fill-rule="nonzero"/></g><path fill="#ffffff" d="M 122.175781 90 C 122.175781 103.847656 122.890625 115.074219 122.890625 115.074219 C 122.890625 115.074219 123.609375 103.847656 123.609375 90 C 123.609375 76.152344 122.890625 64.925781 122.890625 64.925781 C 122.890625 64.925781 122.175781 76.152344 122.175781 90 " fill-opacity="1" fill-rule="nonzero"/><path fill="#ffffff" d="M 120.382812 90 C 120.382812 101.851562 120.996094 111.460938 120.996094 111.460938 C 120.996094 111.460938 121.613281 101.851562 121.613281 90 C 121.613281 78.144531 120.996094 68.535156 120.996094 68.535156 C 120.996094 68.535156 120.382812 78.144531 120.382812 90 " fill-opacity="1" fill-rule="nonzero"/><path fill="#ffffff" d="M 118.867188 90 C 118.867188 99.210938 119.34375 106.679688 119.34375 106.679688 C 119.34375 106.679688 119.820312 99.210938 119.820312 90 C 119.820312 80.789062 119.34375 73.320312 119.34375 73.320312 C 119.34375 73.320312 118.867188 80.789062 118.867188 90 " fill-opacity="1" fill-rule="nonzero"/><path fill="#ffffff" d="M 117.113281 90 C 117.113281 97.234375 117.707031 103.101562 117.707031 103.101562 C 117.707031 103.101562 118.300781 97.234375 118.300781 90 C 118.300781 82.761719 117.707031 76.894531 117.707031 76.894531 C 117.707031 76.894531 117.113281 82.761719 117.113281 90 " fill-opacity="1" fill-rule="nonzero"/><g clip-path="url(#a153d4d120)"><path fill="#ffffff" d="M 169.503906 81.988281 C 169.503906 81.988281 169.140625 85.574219 169.140625 90 C 169.140625 94.421875 169.503906 98.007812 169.503906 98.007812 C 169.503906 98.007812 169.867188 94.421875 169.867188 90 C 169.867188 85.574219 169.503906 81.988281 169.503906 81.988281 " fill-opacity="1" fill-rule="nonzero"/></g><path fill="#ffffff" d="M 166.5625 90 C 166.5625 94.144531 166.90625 97.503906 166.90625 97.503906 C 166.90625 97.503906 167.246094 94.144531 167.246094 90 C 167.246094 85.851562 166.90625 82.492188 166.90625 82.492188 C 166.90625 82.492188 166.5625 85.851562 166.5625 90 " fill-opacity="1" fill-rule="nonzero"/><path fill="#ffffff" d="M 161.191406 90 C 161.191406 96.515625 161.730469 101.800781 161.730469 101.800781 C 161.730469 101.800781 162.265625 96.515625 162.265625 90 C 162.265625 83.480469 161.730469 78.195312 161.730469 78.195312 C 161.730469 78.195312 161.191406 83.480469 161.191406 90 " fill-opacity="1" fill-rule="nonzero"/><path fill="#ffffff" d="M 159.796875 90 C 159.796875 95.0625 160.210938 99.167969 160.210938 99.167969 C 160.210938 99.167969 160.628906 95.0625 160.628906 90 C 160.628906 84.9375 160.210938 80.832031 160.210938 80.832031 C 160.210938 80.832031 159.796875 84.9375 159.796875 90 " fill-opacity="1" fill-rule="nonzero"/><path fill="#ffffff" d="M 158.136719 90 C 158.136719 96.652344 158.6875 102.046875 158.6875 102.046875 C 158.6875 102.046875 159.234375 96.652344 159.234375 90 C 159.234375 83.34375 158.6875 77.953125 158.6875 77.953125 C 158.6875 77.953125 158.136719 83.34375 158.136719 90 " fill-opacity="1" fill-rule="nonzero"/><path fill="#ffffff" d="M 165.234375 90 C 165.234375 94.65625 165.617188 98.433594 165.617188 98.433594 C 165.617188 98.433594 166 94.65625 166 90 C 166 85.339844 165.617188 81.5625 165.617188 81.5625 C 165.617188 81.5625 165.234375 85.339844 165.234375 90 " fill-opacity="1" fill-rule="nonzero"/><path fill="#ffffff" d="M 164.164062 90 C 164.164062 93.082031 164.417969 95.582031 164.417969 95.582031 C 164.417969 95.582031 164.671875 93.082031 164.671875 90 C 164.671875 86.914062 164.417969 84.414062 164.417969 84.414062 C 164.417969 84.414062 164.164062 86.914062 164.164062 90 " fill-opacity="1" fill-rule="nonzero"/><path fill="#ffffff" d="M 156.554688 90 C 156.554688 96.1875 157.066406 101.207031 157.066406 101.207031 C 157.066406 101.207031 157.574219 96.1875 157.574219 90 C 157.574219 83.808594 157.066406 78.789062 157.066406 78.789062 C 157.066406 78.789062 156.554688 83.808594 156.554688 90 " fill-opacity="1" fill-rule="nonzero"/><path fill="#ffffff" d="M 162.828125 90 C 162.828125 94.679688 163.214844 98.472656 163.214844 98.472656 C 163.214844 98.472656 163.601562 94.679688 163.601562 90 C 163.601562 85.316406 163.214844 81.523438 163.214844 81.523438 C 163.214844 81.523438 162.828125 85.316406 162.828125 90 " fill-opacity="1" fill-rule="nonzero"/><path fill="#ffffff" d="M 155.207031 90 C 155.207031 94.769531 155.601562 98.632812 155.601562 98.632812 C 155.601562 98.632812 155.992188 94.769531 155.992188 90 C 155.992188 85.230469 155.601562 81.363281 155.601562 81.363281 C 155.601562 81.363281 155.207031 85.230469 155.207031 90 " fill-opacity="1" fill-rule="nonzero"/><path fill="#ffffff" d="M 144 90 C 144 96.261719 144.515625 101.339844 144.515625 101.339844 C 144.515625 101.339844 145.03125 96.261719 145.03125 90 C 145.03125 83.734375 144.515625 78.65625 144.515625 78.65625 C 144.515625 78.65625 144 83.734375 144 90 " fill-opacity="1" fill-rule="nonzero"/><path fill="#ffffff" d="M 153.878906 90 C 153.878906 94.644531 154.261719 98.410156 154.261719 98.410156 C 154.261719 98.410156 154.644531 94.644531 154.644531 90 C 154.644531 85.351562 154.261719 81.585938 154.261719 81.585938 C 154.261719 81.585938 153.878906 85.351562 153.878906 90 " fill-opacity="1" fill-rule="nonzero"/><path fill="#ffffff" d="M 150.820312 90 C 150.820312 95.722656 151.289062 100.363281 151.289062 100.363281 C 151.289062 100.363281 151.761719 95.722656 151.761719 90 C 151.761719 84.273438 151.289062 79.632812 151.289062 79.632812 C 151.289062 79.632812 150.820312 84.273438 150.820312 90 " fill-opacity="1" fill-rule="nonzero"/><path fill="#ffffff" d="M 149.59375 90 C 149.59375 94.011719 149.925781 97.265625 149.925781 97.265625 C 149.925781 97.265625 150.253906 94.011719 150.253906 90 C 150.253906 85.988281 149.925781 82.734375 149.925781 82.734375 C 149.925781 82.734375 149.59375 85.988281 149.59375 90 " fill-opacity="1" fill-rule="nonzero"/><path fill="#ffffff" d="M 148.476562 90 C 148.476562 93.382812 148.753906 96.125 148.753906 96.125 C 148.753906 96.125 149.03125 93.382812 149.03125 90 C 149.03125 86.613281 148.753906 83.871094 148.753906 83.871094 C 148.753906 83.871094 148.476562 86.613281 148.476562 90 " fill-opacity="1" fill-rule="nonzero"/><path fill="#ffffff" d="M 142.152344 90 C 142.152344 97.792969 142.792969 104.109375 142.792969 104.109375 C 142.792969 104.109375 143.4375 97.792969 143.4375 90 C 143.4375 82.207031 142.792969 75.886719 142.792969 75.886719 C 142.792969 75.886719 142.152344 82.207031 142.152344 90 " fill-opacity="1" fill-rule="nonzero"/><path fill="#ffffff" d="M 145.59375 90 C 145.59375 94.828125 145.992188 98.742188 145.992188 98.742188 C 145.992188 98.742188 146.386719 94.828125 146.386719 90 C 146.386719 85.171875 145.992188 81.253906 145.992188 81.253906 C 145.992188 81.253906 145.59375 85.171875 145.59375 90 " fill-opacity="1" fill-rule="nonzero"/><path fill="#ffffff" d="M 124.171875 90 C 124.171875 105.617188 124.980469 118.28125 124.980469 118.28125 C 124.980469 118.28125 125.789062 105.617188 125.789062 90 C 125.789062 74.378906 124.980469 61.714844 124.980469 61.714844 C 124.980469 61.714844 124.171875 74.378906 124.171875 90 " fill-opacity="1" fill-rule="nonzero"/><path fill="#ffffff" d="M 140.199219 90 C 140.199219 98.4375 140.894531 105.277344 140.894531 105.277344 C 140.894531 105.277344 141.589844 98.4375 141.589844 90 C 141.589844 81.5625 140.894531 74.722656 140.894531 74.722656 C 140.894531 74.722656 140.199219 81.5625 140.199219 90 " fill-opacity="1" fill-rule="nonzero"/><path fill="#ffffff" d="M 134.085938 90 C 134.085938 100.261719 134.929688 108.578125 134.929688 108.578125 C 134.929688 108.578125 135.777344 100.261719 135.777344 90 C 135.777344 79.738281 134.929688 71.417969 134.929688 71.417969 C 134.929688 71.417969 134.085938 79.738281 134.085938 90 " fill-opacity="1" fill-rule="nonzero"/><path fill="#ffffff" d="M 132.042969 90 C 132.042969 99.003906 132.78125 106.304688 132.78125 106.304688 C 132.78125 106.304688 133.523438 99.003906 133.523438 90 C 133.523438 80.992188 132.78125 73.691406 132.78125 73.691406 C 132.78125 73.691406 132.042969 80.992188 132.042969 90 " fill-opacity="1" fill-rule="nonzero"/><path fill="#ffffff" d="M 167.808594 90 C 167.808594 94.65625 168.195312 98.433594 168.195312 98.433594 C 168.195312 98.433594 168.578125 94.65625 168.578125 90 C 168.578125 85.339844 168.195312 81.5625 168.195312 81.5625 C 168.195312 81.5625 167.808594 85.339844 167.808594 90 " fill-opacity="1" fill-rule="nonzero"/><path fill="#ffffff" d="M 130.042969 90 C 130.042969 103.847656 130.761719 115.074219 130.761719 115.074219 C 130.761719 115.074219 131.476562 103.847656 131.476562 90 C 131.476562 76.152344 130.761719 64.925781 130.761719 64.925781 C 130.761719 64.925781 130.042969 76.152344 130.042969 90 " fill-opacity="1" fill-rule="nonzero"/><path fill="#ffffff" d="M 116.15625 90 C 116.15625 92.386719 116.351562 94.324219 116.351562 94.324219 C 116.351562 94.324219 116.546875 92.386719 116.546875 90 C 116.546875 87.609375 116.351562 85.675781 116.351562 85.675781 C 116.351562 85.675781 116.15625 87.609375 116.15625 90 " fill-opacity="1" fill-rule="nonzero"/><path fill="#ffffff" d="M 126.355469 90 C 126.355469 108.472656 127.21875 123.449219 127.21875 123.449219 C 127.21875 123.449219 128.082031 108.472656 128.082031 90 C 128.082031 71.523438 127.21875 56.546875 127.21875 56.546875 C 127.21875 56.546875 126.355469 71.523438 126.355469 90 " fill-opacity="1" fill-rule="nonzero"/><path fill="#ffffff" d="M 115.191406 90 C 115.191406 95.765625 115.390625 100.441406 115.390625 100.441406 C 115.390625 100.441406 115.59375 95.765625 115.59375 90 C 115.59375 84.234375 115.390625 79.558594 115.390625 79.558594 C 115.390625 79.558594 115.191406 84.234375 115.191406 90 " fill-opacity="1" fill-rule="nonzero"/><path fill="#ffffff" d="M 114.230469 90 C 114.230469 94.03125 114.429688 97.296875 114.429688 97.296875 C 114.429688 97.296875 114.628906 94.03125 114.628906 90 C 114.628906 85.96875 114.429688 82.699219 114.429688 82.699219 C 114.429688 82.699219 114.230469 85.96875 114.230469 90 " fill-opacity="1" fill-rule="nonzero"/><path fill="#ffffff" d="M 113.40625 90 C 113.40625 91.570312 113.539062 92.847656 113.539062 92.847656 C 113.539062 92.847656 113.667969 91.570312 113.667969 90 C 113.667969 88.425781 113.539062 87.152344 113.539062 87.152344 C 113.539062 87.152344 113.40625 88.425781 113.40625 90 " fill-opacity="1" fill-rule="nonzero"/><path fill="#ffffff" d="M 111.9375 90 C 111.9375 100.578125 112.390625 109.15625 112.390625 109.15625 C 112.390625 109.15625 112.84375 100.578125 112.84375 90 C 112.84375 79.417969 112.390625 70.839844 112.390625 70.839844 C 112.390625 70.839844 111.9375 79.417969 111.9375 90 " fill-opacity="1" fill-rule="nonzero"/><path fill="#ffffff" d="M 110.539062 90 C 110.539062 104.601562 110.957031 116.441406 110.957031 116.441406 C 110.957031 116.441406 111.375 104.601562 111.375 90 C 111.375 75.394531 110.957031 63.558594 110.957031 63.558594 C 110.957031 63.558594 110.539062 75.394531 110.539062 90 " fill-opacity="1" fill-rule="nonzero"/><path fill="#ffffff" d="M 108.921875 90 C 108.921875 108.421875 109.449219 123.359375 109.449219 123.359375 C 109.449219 123.359375 109.976562 108.421875 109.976562 90 C 109.976562 71.574219 109.449219 56.640625 109.449219 56.640625 C 109.449219 56.640625 108.921875 71.574219 108.921875 90 " fill-opacity="1" fill-rule="nonzero"/><path fill="#ffffff" d="M 107.503906 90 C 107.503906 99.96875 107.929688 108.054688 107.929688 108.054688 C 107.929688 108.054688 108.359375 99.96875 108.359375 90 C 108.359375 80.027344 107.929688 71.945312 107.929688 71.945312 C 107.929688 71.945312 107.503906 80.027344 107.503906 90 " fill-opacity="1" fill-rule="nonzero"/><path fill="#ffffff" d="M 103.472656 90 C 103.472656 92.648438 103.691406 94.796875 103.691406 94.796875 C 103.691406 94.796875 103.910156 92.648438 103.910156 90 C 103.910156 87.347656 103.691406 85.199219 103.691406 85.199219 C 103.691406 85.199219 103.472656 87.347656 103.472656 90 " fill-opacity="1" fill-rule="nonzero"/><path fill="#ffffff" d="M 102.480469 90 C 102.480469 92.617188 102.695312 94.738281 102.695312 94.738281 C 102.695312 94.738281 102.910156 92.617188 102.910156 90 C 102.910156 87.382812 102.695312 85.261719 102.695312 85.261719 C 102.695312 85.261719 102.480469 87.382812 102.480469 90 " fill-opacity="1" fill-rule="nonzero"/><path fill="#ffffff" d="M 101.484375 90 C 101.484375 94.128906 101.699219 97.472656 101.699219 97.472656 C 101.699219 97.472656 101.917969 94.128906 101.917969 90 C 101.917969 85.871094 101.699219 82.523438 101.699219 82.523438 C 101.699219 82.523438 101.484375 85.871094 101.484375 90 " fill-opacity="1" fill-rule="nonzero"/><path fill="#ffffff" d="M 137.898438 90 C 137.898438 100.578125 138.769531 109.15625 138.769531 109.15625 C 138.769531 109.15625 139.636719 100.578125 139.636719 90 C 139.636719 79.417969 138.769531 70.839844 138.769531 70.839844 C 138.769531 70.839844 137.898438 79.417969 137.898438 90 " fill-opacity="1" fill-rule="nonzero"/><path fill="#ffffff" d="M 90.398438 89.996094 C 90.398438 86.929688 89.953125 84.441406 89.953125 84.441406 C 89.953125 84.441406 89.511719 86.929688 89.511719 90 C 89.511719 93.066406 89.953125 95.554688 89.953125 95.554688 C 89.953125 95.554688 90.398438 93.070312 90.398438 90 C 90.398438 93.09375 90.652344 95.601562 90.652344 95.601562 C 90.652344 95.601562 90.90625 93.09375 90.90625 90 C 90.90625 86.90625 90.652344 84.398438 90.652344 84.398438 C 90.652344 84.398438 90.398438 86.90625 90.398438 89.996094 " fill-opacity="1" fill-rule="nonzero"/><path fill="#ffffff" d="M 105.882812 90 C 105.882812 97.621094 106.410156 103.796875 106.410156 103.796875 C 106.410156 103.796875 106.941406 97.621094 106.941406 90 C 106.941406 82.378906 106.410156 76.199219 106.410156 76.199219 C 106.410156 76.199219 105.882812 82.378906 105.882812 90 " fill-opacity="1" fill-rule="nonzero"/><path fill="#ffffff" d="M 104.472656 90 C 104.472656 96.078125 104.894531 101.003906 104.894531 101.003906 C 104.894531 101.003906 105.316406 96.078125 105.316406 90 C 105.316406 83.921875 104.894531 78.992188 104.894531 78.992188 C 104.894531 78.992188 104.472656 83.921875 104.472656 90 " fill-opacity="1" fill-rule="nonzero"/><path fill="#ffffff" d="M 136.339844 90 C 136.339844 101.851562 136.835938 111.460938 136.835938 111.460938 C 136.835938 111.460938 137.332031 101.851562 137.332031 90 C 137.332031 78.144531 136.835938 68.535156 136.835938 68.535156 C 136.835938 68.535156 136.339844 78.144531 136.339844 90 " fill-opacity="1" fill-rule="nonzero"/><path fill="#ffffff" d="M 100.460938 90 C 100.460938 92.777344 100.691406 95.03125 100.691406 95.03125 C 100.691406 95.03125 100.921875 92.777344 100.921875 90 C 100.921875 87.21875 100.691406 84.964844 100.691406 84.964844 C 100.691406 84.964844 100.460938 87.21875 100.460938 90 " fill-opacity="1" fill-rule="nonzero"/><path fill="#ffffff" d="M 99.539062 90 C 99.539062 94.984375 99.71875 99.027344 99.71875 99.027344 C 99.71875 99.027344 99.898438 94.984375 99.898438 90 C 99.898438 85.011719 99.71875 80.972656 99.71875 80.972656 C 99.71875 80.972656 99.539062 85.011719 99.539062 90 " fill-opacity="1" fill-rule="nonzero"/><path fill="#ffffff" d="M 98.753906 90 C 98.753906 91.363281 98.867188 92.46875 98.867188 92.46875 C 98.867188 92.46875 98.976562 91.363281 98.976562 90 C 98.976562 88.636719 98.867188 87.53125 98.867188 87.53125 C 98.867188 87.53125 98.753906 88.636719 98.753906 90 " fill-opacity="1" fill-rule="nonzero"/><path fill="#ffffff" d="M 128.648438 90 C 128.648438 105.617188 129.0625 118.28125 129.0625 118.28125 C 129.0625 118.28125 129.480469 105.617188 129.480469 90 C 129.480469 74.378906 129.0625 61.714844 129.0625 61.714844 C 129.0625 61.714844 128.648438 74.378906 128.648438 90 " fill-opacity="1" fill-rule="nonzero"/><path fill="#ffffff" d="M 97.644531 90 C 97.644531 91.390625 97.917969 92.515625 97.917969 92.515625 C 97.917969 92.515625 98.191406 91.390625 98.191406 90 C 98.191406 88.609375 97.917969 87.480469 97.917969 87.480469 C 97.917969 87.480469 97.644531 88.609375 97.644531 90 " fill-opacity="1" fill-rule="nonzero"/><path fill="#ffffff" d="M 96.710938 90 C 96.710938 92.242188 96.894531 94.0625 96.894531 94.0625 C 96.894531 94.0625 97.082031 92.242188 97.082031 90 C 97.082031 87.753906 96.894531 85.933594 96.894531 85.933594 C 96.894531 85.933594 96.710938 87.753906 96.710938 90 " fill-opacity="1" fill-rule="nonzero"/><path fill="#ffffff" d="M 95.597656 90 C 95.597656 91.671875 95.871094 93.027344 95.871094 93.027344 C 95.871094 93.027344 96.148438 91.671875 96.148438 90 C 96.148438 88.328125 95.871094 86.972656 95.871094 86.972656 C 95.871094 86.972656 95.597656 88.328125 95.597656 90 " fill-opacity="1" fill-rule="nonzero"/><path fill="#ffffff" d="M 94.484375 90 C 94.484375 93.34375 94.757812 96.054688 94.757812 96.054688 C 94.757812 96.054688 95.035156 93.34375 95.035156 90 C 95.035156 86.65625 94.757812 83.945312 94.757812 83.945312 C 94.757812 83.945312 94.484375 86.65625 94.484375 90 " fill-opacity="1" fill-rule="nonzero"/><path fill="#ffffff" d="M 93.410156 90 C 93.410156 94.984375 93.664062 99.027344 93.664062 99.027344 C 93.664062 99.027344 93.921875 94.984375 93.921875 90 C 93.921875 85.011719 93.664062 80.972656 93.664062 80.972656 C 93.664062 80.972656 93.410156 85.011719 93.410156 90 " fill-opacity="1" fill-rule="nonzero"/><path fill="#ffffff" d="M 92.480469 90 C 92.480469 92.226562 92.664062 94.035156 92.664062 94.035156 C 92.664062 94.035156 92.847656 92.226562 92.847656 90 C 92.847656 87.769531 92.664062 85.960938 92.664062 85.960938 C 92.664062 85.960938 92.480469 87.769531 92.480469 90 " fill-opacity="1" fill-rule="nonzero"/><path fill="#ffffff" d="M 91.472656 90 C 91.472656 92.710938 91.695312 94.910156 91.695312 94.910156 C 91.695312 94.910156 91.917969 92.710938 91.917969 90 C 91.917969 87.285156 91.695312 85.089844 91.695312 85.089844 C 91.695312 85.089844 91.472656 87.285156 91.472656 90 " fill-opacity="1" fill-rule="nonzero"/><path fill="#ffffff" d="M 152.324219 90 C 152.324219 101.414062 152.820312 110.667969 152.820312 110.667969 C 152.820312 110.667969 153.316406 101.414062 153.316406 90 C 153.316406 78.582031 152.820312 69.328125 152.820312 69.328125 C 152.820312 69.328125 152.324219 78.582031 152.324219 90 " fill-opacity="1" fill-rule="nonzero"/><path fill="#ffffff" d="M 146.953125 90 C 146.953125 100.480469 147.433594 108.980469 147.433594 108.980469 C 147.433594 108.980469 147.910156 100.480469 147.910156 90 C 147.910156 79.515625 147.433594 71.015625 147.433594 71.015625 C 147.433594 71.015625 146.953125 79.515625 146.953125 90 " fill-opacity="1" fill-rule="nonzero"/><path fill="#ffffff" d="M 88.644531 90 C 88.644531 91.824219 88.796875 93.308594 88.796875 93.308594 C 88.796875 93.308594 88.945312 91.824219 88.945312 90 C 88.945312 88.171875 88.796875 86.691406 88.796875 86.691406 C 88.796875 86.691406 88.644531 88.171875 88.644531 90 " fill-opacity="1" fill-rule="nonzero"/><path fill="#ffffff" d="M 87.074219 90 C 87.074219 92.917969 87.578125 95.28125 87.578125 95.28125 C 87.578125 95.28125 88.082031 92.917969 88.082031 90 C 88.082031 87.082031 87.578125 84.714844 87.578125 84.714844 C 87.578125 84.714844 87.074219 87.082031 87.074219 90 " fill-opacity="1" fill-rule="nonzero"/><path fill="#ffffff" d="M 86.105469 90 C 86.105469 92.449219 86.308594 94.4375 86.308594 94.4375 C 86.308594 94.4375 86.507812 92.449219 86.507812 90 C 86.507812 87.546875 86.308594 85.5625 86.308594 85.5625 C 86.308594 85.5625 86.105469 87.546875 86.105469 90 " fill-opacity="1" fill-rule="nonzero"/><path fill="#ffffff" d="M 83.890625 90 C 83.890625 100.023438 84.71875 108.152344 84.71875 108.152344 C 84.71875 108.152344 85.542969 100.023438 85.542969 90 C 85.542969 79.972656 84.71875 71.84375 84.71875 71.84375 C 84.71875 71.84375 83.890625 79.972656 83.890625 90 " fill-opacity="1" fill-rule="nonzero"/><path fill="#ffffff" d="M 83.015625 90 C 83.015625 91.90625 83.171875 93.449219 83.171875 93.449219 C 83.171875 93.449219 83.328125 91.90625 83.328125 90 C 83.328125 88.09375 83.171875 86.546875 83.171875 86.546875 C 83.171875 86.546875 83.015625 88.09375 83.015625 90 " fill-opacity="1" fill-rule="nonzero"/><path fill="#ffffff" d="M 80.792969 90 C 80.792969 105.507812 81.621094 118.082031 81.621094 118.082031 C 81.621094 118.082031 82.453125 105.507812 82.453125 90 C 82.453125 74.488281 81.621094 61.917969 81.621094 61.917969 C 81.621094 61.917969 80.792969 74.488281 80.792969 90 " fill-opacity="1" fill-rule="nonzero"/><path fill="#ffffff" d="M 78.609375 90 C 78.609375 99.847656 79.417969 107.832031 79.417969 107.832031 C 79.417969 107.832031 80.226562 99.847656 80.226562 90 C 80.226562 80.152344 79.417969 72.167969 79.417969 72.167969 C 79.417969 72.167969 78.609375 80.152344 78.609375 90 " fill-opacity="1" fill-rule="nonzero"/><path fill="#ffffff" d="M 77.390625 90 C 77.390625 93.980469 77.714844 97.207031 77.714844 97.207031 C 77.714844 97.207031 78.042969 93.980469 78.042969 90 C 78.042969 86.019531 77.714844 82.789062 77.714844 82.789062 C 77.714844 82.789062 77.390625 86.019531 77.390625 90 " fill-opacity="1" fill-rule="nonzero"/><path fill="#ffffff" d="M 75.078125 90 C 75.078125 105.507812 75.953125 118.082031 75.953125 118.082031 C 75.953125 118.082031 76.824219 105.507812 76.824219 90 C 76.824219 74.488281 75.953125 61.917969 75.953125 61.917969 C 75.953125 61.917969 75.078125 74.488281 75.078125 90 " fill-opacity="1" fill-rule="nonzero"/><path fill="#ffffff" d="M 73.476562 90 C 73.476562 96.320312 73.996094 101.441406 73.996094 101.441406 C 73.996094 101.441406 74.515625 96.320312 74.515625 90 C 74.515625 83.679688 73.996094 78.554688 73.996094 78.554688 C 73.996094 78.554688 73.476562 83.679688 73.476562 90 " fill-opacity="1" fill-rule="nonzero"/><path fill="#ffffff" d="M 72.144531 90 C 72.144531 94.671875 72.527344 98.460938 72.527344 98.460938 C 72.527344 98.460938 72.914062 94.671875 72.914062 90 C 72.914062 85.328125 72.527344 81.539062 72.527344 81.539062 C 72.527344 81.539062 72.144531 85.328125 72.144531 90 " fill-opacity="1" fill-rule="nonzero"/><path fill="#ffffff" d="M 71.253906 90 C 71.253906 91.992188 71.417969 93.605469 71.417969 93.605469 C 71.417969 93.605469 71.578125 91.992188 71.578125 90 C 71.578125 88.007812 71.417969 86.390625 71.417969 86.390625 C 71.417969 86.390625 71.253906 88.007812 71.253906 90 " fill-opacity="1" fill-rule="nonzero"/><path fill="#ffffff" d="M 69.578125 90 C 69.578125 96.742188 70.132812 102.210938 70.132812 102.210938 C 70.132812 102.210938 70.6875 96.742188 70.6875 90 C 70.6875 83.253906 70.132812 77.785156 70.132812 77.785156 C 70.132812 77.785156 69.578125 83.253906 69.578125 90 " fill-opacity="1" fill-rule="nonzero"/><path fill="#ffffff" d="M 68.617188 90 C 68.617188 92.417969 68.816406 94.378906 68.816406 94.378906 C 68.816406 94.378906 69.015625 92.417969 69.015625 90 C 69.015625 87.578125 68.816406 85.617188 68.816406 85.617188 C 68.816406 85.617188 68.617188 87.578125 68.617188 90 " fill-opacity="1" fill-rule="nonzero"/><g clip-path="url(#d430d48514)"><path fill="#ffffff" d="M 66.460938 90 C 66.460938 109.265625 67.257812 124.886719 67.257812 124.886719 C 67.257812 124.886719 68.054688 109.265625 68.054688 90 C 68.054688 70.730469 67.257812 55.109375 67.257812 55.109375 C 67.257812 55.109375 66.460938 70.730469 66.460938 90 " fill-opacity="1" fill-rule="nonzero"/></g><path fill="#ffffff" d="M 64.835938 90 C 64.835938 96.4375 65.367188 101.65625 65.367188 101.65625 C 65.367188 101.65625 65.898438 96.4375 65.898438 90 C 65.898438 83.5625 65.367188 78.34375 65.367188 78.34375 C 65.367188 78.34375 64.835938 83.5625 64.835938 90 " fill-opacity="1" fill-rule="nonzero"/><path fill="#ffffff" d="M 63.667969 90 C 63.667969 93.671875 63.972656 96.652344 63.972656 96.652344 C 63.972656 96.652344 64.273438 93.671875 64.273438 90 C 64.273438 86.324219 63.972656 83.34375 63.972656 83.34375 C 63.972656 83.34375 63.667969 86.324219 63.667969 90 " fill-opacity="1" fill-rule="nonzero"/><path fill="#ffffff" d="M 62.007812 90 C 62.007812 96.679688 62.554688 102.09375 62.554688 102.09375 C 62.554688 102.09375 63.105469 96.679688 63.105469 90 C 63.105469 83.320312 62.554688 77.90625 62.554688 77.90625 C 62.554688 77.90625 62.007812 83.320312 62.007812 90 " fill-opacity="1" fill-rule="nonzero"/><path fill="#ffffff" d="M 59.96875 90 C 59.96875 98.964844 60.707031 106.234375 60.707031 106.234375 C 60.707031 106.234375 61.445312 98.964844 61.445312 90 C 61.445312 81.03125 60.707031 73.761719 60.707031 73.761719 C 60.707031 73.761719 59.96875 81.03125 59.96875 90 " fill-opacity="1" fill-rule="nonzero"/><path fill="#ffffff" d="M 57.695312 90 C 57.695312 106.390625 58.550781 119.679688 58.550781 119.679688 C 58.550781 119.679688 59.402344 106.390625 59.402344 90 C 59.402344 73.605469 58.550781 60.320312 58.550781 60.320312 C 58.550781 60.320312 57.695312 73.605469 57.695312 90 " fill-opacity="1" fill-rule="nonzero"/><path fill="#ffffff" d="M 55.640625 90 C 55.640625 101.902344 56.386719 111.550781 56.386719 111.550781 C 56.386719 111.550781 57.132812 101.902344 57.132812 90 C 57.132812 78.097656 56.386719 68.449219 56.386719 68.449219 C 56.386719 68.449219 55.640625 78.097656 55.640625 90 " fill-opacity="1" fill-rule="nonzero"/><path fill="#ffffff" d="M 53.558594 90 C 53.558594 100.714844 54.316406 109.398438 54.316406 109.398438 C 54.316406 109.398438 55.074219 100.714844 55.074219 90 C 55.074219 79.285156 54.316406 70.597656 54.316406 70.597656 C 54.316406 70.597656 53.558594 79.285156 53.558594 90 " fill-opacity="1" fill-rule="nonzero"/><path fill="#ffffff" d="M 51.300781 90 C 51.300781 100.789062 52.148438 109.539062 52.148438 109.539062 C 52.148438 109.539062 52.996094 100.789062 52.996094 90 C 52.996094 79.207031 52.148438 70.460938 52.148438 70.460938 C 52.148438 70.460938 51.300781 79.207031 51.300781 90 " fill-opacity="1" fill-rule="nonzero"/><path fill="#ffffff" d="M 49.238281 90 C 49.238281 99.675781 49.988281 107.519531 49.988281 107.519531 C 49.988281 107.519531 50.738281 99.675781 50.738281 90 C 50.738281 80.324219 49.988281 72.476562 49.988281 72.476562 C 49.988281 72.476562 49.238281 80.324219 49.238281 90 " fill-opacity="1" fill-rule="nonzero"/><path fill="#ffffff" d="M 47.039062 90 C 47.039062 95.835938 47.855469 100.566406 47.855469 100.566406 C 47.855469 100.566406 48.675781 95.835938 48.675781 90 C 48.675781 84.164062 47.855469 79.433594 47.855469 79.433594 C 47.855469 79.433594 47.039062 84.164062 47.039062 90 " fill-opacity="1" fill-rule="nonzero"/><path fill="#ffffff" d="M 45.570312 90 C 45.570312 95.503906 46.023438 99.964844 46.023438 99.964844 C 46.023438 99.964844 46.476562 95.503906 46.476562 90 C 46.476562 84.496094 46.023438 80.035156 46.023438 80.035156 C 46.023438 80.035156 45.570312 84.496094 45.570312 90 " fill-opacity="1" fill-rule="nonzero"/><path fill="#ffffff" d="M 44.191406 90 C 44.191406 94.949219 44.597656 98.960938 44.597656 98.960938 C 44.597656 98.960938 45.003906 94.949219 45.003906 90 C 45.003906 85.050781 44.597656 81.039062 44.597656 81.039062 C 44.597656 81.039062 44.191406 85.050781 44.191406 90 " fill-opacity="1" fill-rule="nonzero"/><path fill="#ffffff" d="M 42.496094 90 C 42.496094 96.886719 43.0625 102.46875 43.0625 102.46875 C 43.0625 102.46875 43.628906 96.886719 43.628906 90 C 43.628906 83.113281 43.0625 77.53125 43.0625 77.53125 C 43.0625 77.53125 42.496094 83.113281 42.496094 90 " fill-opacity="1" fill-rule="nonzero"/><path fill="#ffffff" d="M 40.324219 90 C 40.324219 99.75 41.128906 107.65625 41.128906 107.65625 C 41.128906 107.65625 41.929688 99.75 41.929688 90 C 41.929688 80.246094 41.128906 72.34375 41.128906 72.34375 C 41.128906 72.34375 40.324219 80.246094 40.324219 90 " fill-opacity="1" fill-rule="nonzero"/><g clip-path="url(#a7b9926169)"><path fill="#ffffff" d="M 38.242188 90 C 38.242188 109.265625 39 124.882812 39 124.882812 C 39 124.882812 39.761719 109.265625 39.761719 90 C 39.761719 70.730469 39 55.113281 39 55.113281 C 39 55.113281 38.242188 70.730469 38.242188 90 " fill-opacity="1" fill-rule="nonzero"/></g><path fill="#ffffff" d="M 36.308594 90 C 36.308594 103.179688 36.992188 113.867188 36.992188 113.867188 C 36.992188 113.867188 37.675781 103.179688 37.675781 90 C 37.675781 76.816406 36.992188 66.132812 36.992188 66.132812 C 36.992188 66.132812 36.308594 76.816406 36.308594 90 " fill-opacity="1" fill-rule="nonzero"/><path fill="#ffffff" d="M 34.628906 90 C 34.628906 100.734375 35.1875 109.441406 35.1875 109.441406 C 35.1875 109.441406 35.746094 100.734375 35.746094 90 C 35.746094 79.261719 35.1875 70.558594 35.1875 70.558594 C 35.1875 70.558594 34.628906 79.261719 34.628906 90 " fill-opacity="1" fill-rule="nonzero"/><g clip-path="url(#ec6c954c20)"><path fill="#ffffff" d="M 32.699219 90 C 32.699219 109.265625 33.382812 124.882812 33.382812 124.882812 C 33.382812 124.882812 34.066406 109.265625 34.066406 90 C 34.066406 70.730469 33.382812 55.113281 33.382812 55.113281 C 33.382812 55.113281 32.699219 70.730469 32.699219 90 " fill-opacity="1" fill-rule="nonzero"/></g><path fill="#ffffff" d="M 31.085938 90 C 31.085938 100.105469 31.609375 108.300781 31.609375 108.300781 C 31.609375 108.300781 32.136719 100.105469 32.136719 90 C 32.136719 79.890625 31.609375 71.699219 31.609375 71.699219 C 31.609375 71.699219 31.085938 79.890625 31.085938 90 " fill-opacity="1" fill-rule="nonzero"/><path fill="#ffffff" d="M 29.738281 90 C 29.738281 97.535156 30.132812 103.644531 30.132812 103.644531 C 30.132812 103.644531 30.523438 97.535156 30.523438 90 C 30.523438 82.460938 30.132812 76.351562 30.132812 76.351562 C 30.132812 76.351562 29.738281 82.460938 29.738281 90 " fill-opacity="1" fill-rule="nonzero"/><path fill="#ffffff" d="M 28.1875 90 C 28.1875 96.007812 28.683594 100.875 28.683594 100.875 C 28.683594 100.875 29.175781 96.007812 29.175781 90 C 29.175781 83.992188 28.683594 79.121094 28.683594 79.121094 C 28.683594 79.121094 28.1875 83.992188 28.1875 90 " fill-opacity="1" fill-rule="nonzero"/><path fill="#ffffff" d="M 26.558594 90 C 26.558594 96.484375 27.089844 101.742188 27.089844 101.742188 C 27.089844 101.742188 27.625 96.484375 27.625 90 C 27.625 83.511719 27.089844 78.257812 27.089844 78.257812 C 27.089844 78.257812 26.558594 83.511719 26.558594 90 " fill-opacity="1" fill-rule="nonzero"/><path fill="#ffffff" d="M 25.105469 90 C 25.105469 95.402344 25.550781 99.78125 25.550781 99.78125 C 25.550781 99.78125 25.992188 95.402344 25.992188 90 C 25.992188 84.597656 25.550781 80.21875 25.550781 80.21875 C 25.550781 80.21875 25.105469 84.597656 25.105469 90 " fill-opacity="1" fill-rule="nonzero"/><path fill="#ffffff" d="M 23.191406 90 C 23.191406 99.75 23.867188 107.65625 23.867188 107.65625 C 23.867188 107.65625 24.542969 99.75 24.542969 90 C 24.542969 80.246094 23.867188 72.34375 23.867188 72.34375 C 23.867188 72.34375 23.191406 80.246094 23.191406 90 " fill-opacity="1" fill-rule="nonzero"/><path fill="#ffffff" d="M 21.8125 90 C 21.8125 94.957031 22.222656 98.972656 22.222656 98.972656 C 22.222656 98.972656 22.628906 94.957031 22.628906 90 C 22.628906 85.042969 22.222656 81.023438 22.222656 81.023438 C 22.222656 81.023438 21.8125 85.042969 21.8125 90 " fill-opacity="1" fill-rule="nonzero"/><path fill="#ffffff" d="M 19.695312 90 C 19.695312 102.417969 20.472656 112.484375 20.472656 112.484375 C 20.472656 112.484375 21.25 102.417969 21.25 90 C 21.25 77.582031 20.472656 67.515625 20.472656 67.515625 C 20.472656 67.515625 19.695312 77.582031 19.695312 90 " fill-opacity="1" fill-rule="nonzero"/><path fill="#ffffff" d="M 18.171875 90 C 18.171875 95.835938 18.652344 100.566406 18.652344 100.566406 C 18.652344 100.566406 19.128906 95.835938 19.128906 90 C 19.128906 84.164062 18.652344 79.433594 18.652344 79.433594 C 18.652344 79.433594 18.171875 84.164062 18.171875 90 " fill-opacity="1" fill-rule="nonzero"/><path fill="#ffffff" d="M 16.90625 90 C 16.90625 94.261719 17.257812 97.71875 17.257812 97.71875 C 17.257812 97.71875 17.605469 94.261719 17.605469 90 C 17.605469 85.734375 17.257812 82.277344 17.257812 82.277344 C 17.257812 82.277344 16.90625 85.734375 16.90625 90 " fill-opacity="1" fill-rule="nonzero"/><path fill="#ffffff" d="M 15.492188 90 C 15.492188 95.164062 15.917969 99.351562 15.917969 99.351562 C 15.917969 99.351562 16.34375 95.164062 16.34375 90 C 16.34375 84.832031 15.917969 80.644531 15.917969 80.644531 C 15.917969 80.644531 15.492188 84.832031 15.492188 90 " fill-opacity="1" fill-rule="nonzero"/><path fill="#ffffff" d="M 14.277344 90 C 14.277344 93.945312 14.605469 97.144531 14.605469 97.144531 C 14.605469 97.144531 14.929688 93.945312 14.929688 90 C 14.929688 86.054688 14.605469 82.855469 14.605469 82.855469 C 14.605469 82.855469 14.277344 86.054688 14.277344 90 " fill-opacity="1" fill-rule="nonzero"/><path fill="#ffffff" d="M 12.902344 90 C 12.902344 94.933594 13.308594 98.933594 13.308594 98.933594 C 13.308594 98.933594 13.714844 94.933594 13.714844 90 C 13.714844 85.0625 13.308594 81.0625 13.308594 81.0625 C 13.308594 81.0625 12.902344 85.0625 12.902344 90 " fill-opacity="1" fill-rule="nonzero"/><g clip-path="url(#e326b761df)"><path fill="#ffffff" d="M 10.972656 90 C 10.972656 98.300781 11.65625 105.03125 11.65625 105.03125 C 11.65625 105.03125 12.339844 98.300781 12.339844 90 C 12.339844 81.699219 11.65625 74.96875 11.65625 74.96875 C 11.65625 74.96875 10.972656 81.699219 10.972656 90 " fill-opacity="1" fill-rule="nonzero"/></g><g clip-path="url(#d271038284)"><path fill="#ffffff" d="M 10.132812 90 C 10.132812 91.699219 10.269531 93.074219 10.269531 93.074219 C 10.269531 93.074219 10.410156 91.699219 10.410156 90 C 10.410156 88.300781 10.269531 86.921875 10.269531 86.921875 C 10.269531 86.921875 10.132812 88.300781 10.132812 90 " fill-opacity="1" fill-rule="nonzero"/></g><g clip-path="url(#1d6ba1be9c)"><path fill="#000000" d="M 89.65625 116.613281 L 89.65625 120.933594 C 89.65625 121.414062 89.269531 121.820312 88.769531 121.820312 L 45.179688 121.820312 C 44.699219 121.820312 44.289062 121.414062 44.289062 120.933594 L 44.289062 116.613281 C 44.289062 116.113281 44.699219 115.726562 45.179688 115.726562 L 88.769531 115.726562 C 89.246094 115.726562 89.65625 116.113281 89.65625 116.613281 Z M 112.53125 98.527344 L 112.53125 48.460938 C 111.917969 32.878906 89.609375 32.878906 88.996094 48.460938 C 88.996094 48.460938 88.996094 55.375 88.996094 55.375 L 91.613281 55.375 L 91.613281 48.460938 C 92.046875 36.359375 109.503906 36.335938 109.9375 48.460938 C 109.9375 48.460938 109.9375 98.527344 109.9375 98.527344 C 109.9375 103.328125 113.511719 107.308594 118.15625 107.945312 L 118.15625 105.308594 C 114.945312 104.691406 112.53125 101.871094 112.53125 98.527344 Z M 44.289062 45.710938 C 44.289062 44.980469 43.722656 44.414062 42.992188 44.414062 C 42.265625 44.414062 41.695312 45.003906 41.695312 45.710938 L 41.695312 55.375 L 44.3125 55.375 L 44.3125 45.710938 Z M 57.652344 39.863281 C 57.652344 39.136719 57.0625 38.566406 56.355469 38.566406 C 55.625 38.566406 55.058594 39.136719 55.058594 39.863281 L 55.058594 49.53125 L 57.675781 49.53125 L 57.675781 39.863281 Z M 123.664062 101.644531 L 120.75 101.644531 L 120.75 109.96875 L 123.664062 109.96875 Z M 148.339844 77.28125 C 148.339844 77.28125 148.339844 83.902344 148.339844 83.902344 C 148.363281 86.269531 146.335938 88.316406 143.96875 88.292969 C 143.96875 88.292969 125.144531 88.292969 125.144531 88.292969 C 122.777344 88.316406 120.726562 86.3125 120.75 83.902344 L 120.75 77.28125 C 120.75 74.847656 122.707031 72.890625 125.144531 72.890625 L 143.96875 72.890625 C 146.359375 72.890625 148.339844 74.847656 148.339844 77.28125 Z M 141.417969 81.898438 L 127.648438 81.898438 C 125.941406 81.921875 125.941406 84.46875 127.648438 84.515625 L 141.417969 84.515625 C 143.148438 84.46875 143.125 81.945312 141.417969 81.898438 Z M 141.417969 76.644531 L 127.648438 76.644531 C 125.941406 76.667969 125.941406 79.214844 127.648438 79.261719 L 141.417969 79.261719 C 143.148438 79.214844 143.125 76.691406 141.417969 76.644531 Z M 126.28125 112.585938 L 126.28125 96.480469 L 125.007812 90.886719 L 144.082031 90.886719 L 142.851562 96.183594 L 142.808594 122.707031 L 144.082031 128.304688 L 125.007812 128.304688 L 126.234375 123.003906 Z M 137.457031 102.554688 L 139.257812 102.554688 C 140.964844 102.53125 140.964844 99.984375 139.257812 99.9375 L 137.457031 99.9375 C 135.75 99.984375 135.75 102.53125 137.457031 102.554688 Z M 137.457031 108.035156 L 139.257812 108.035156 C 140.964844 108.015625 140.964844 105.464844 139.257812 105.421875 L 137.457031 105.421875 C 135.75 105.464844 135.75 108.015625 137.457031 108.035156 Z M 137.457031 113.519531 L 139.257812 113.519531 C 140.964844 113.496094 140.964844 110.925781 139.257812 110.902344 L 137.457031 110.902344 C 135.75 110.925781 135.75 113.472656 137.457031 113.519531 Z M 129.832031 102.554688 L 131.632812 102.554688 C 133.339844 102.554688 133.339844 99.960938 131.632812 99.9375 L 129.832031 99.9375 C 128.125 99.960938 128.125 102.554688 129.832031 102.554688 Z M 129.832031 108.035156 L 131.632812 108.035156 C 133.339844 108.035156 133.339844 105.445312 131.632812 105.421875 L 129.832031 105.421875 C 128.125 105.445312 128.125 108.035156 129.832031 108.035156 Z M 129.832031 113.519531 L 131.632812 113.519531 C 133.339844 113.496094 133.339844 110.925781 131.632812 110.902344 L 129.832031 110.902344 C 128.101562 110.925781 128.101562 113.472656 129.832031 113.519531 Z M 148.339844 135.3125 L 148.339844 141.929688 C 148.339844 144.339844 146.359375 146.320312 143.96875 146.320312 L 125.144531 146.320312 C 122.707031 146.320312 120.75 144.339844 120.75 141.929688 L 120.75 135.3125 C 120.703125 132.921875 122.753906 130.921875 125.144531 130.921875 C 125.597656 131.035156 145.585938 130.648438 145.378906 131.148438 C 147.132812 131.761719 148.339844 133.421875 148.339844 135.3125 Z M 141.417969 139.929688 L 127.648438 139.929688 C 125.917969 139.949219 125.941406 142.523438 127.648438 142.542969 L 141.417969 142.542969 C 143.148438 142.523438 143.125 139.972656 141.417969 139.929688 Z M 141.417969 134.671875 L 127.648438 134.671875 C 125.917969 134.695312 125.941406 137.265625 127.648438 137.289062 L 141.417969 137.289062 C 143.148438 137.265625 143.125 134.71875 141.417969 134.671875 Z M 36.117188 145.207031 C 36.117188 146.070312 36.824219 146.773438 37.691406 146.773438 L 96.257812 146.773438 C 97.121094 146.773438 97.828125 146.070312 97.828125 145.207031 L 97.828125 139.90625 L 36.117188 139.90625 Z M 100.695312 134.492188 L 33.25 134.492188 C 32.863281 134.492188 32.523438 134.652344 32.273438 134.902344 C 31.363281 135.742188 32.023438 137.359375 33.25 137.335938 L 100.695312 137.335938 C 101.585938 137.289062 102.0625 136.675781 102.085938 135.925781 C 102.085938 135.128906 101.46875 134.492188 100.695312 134.492188 Z M 100.96875 67.457031 L 32.976562 67.457031 C 32.339844 67.457031 31.839844 67.957031 31.839844 68.59375 L 31.839844 69.160156 C 31.839844 69.796875 32.339844 70.300781 32.976562 70.300781 L 100.96875 70.300781 C 101.925781 70.277344 102.175781 69.410156 102.085938 68.59375 C 102.085938 67.957031 101.585938 67.457031 100.96875 67.457031 Z M 97.828125 72.890625 L 97.828125 131.875 L 36.117188 131.875 L 36.117188 72.890625 Z M 92.25 116.613281 C 92.25 114.679688 90.679688 113.109375 88.746094 113.109375 L 45.179688 113.109375 C 43.242188 113.109375 41.671875 114.679688 41.671875 116.613281 L 41.671875 120.933594 C 41.671875 122.84375 43.242188 124.4375 45.179688 124.4375 L 88.769531 124.4375 C 90.703125 124.4375 92.273438 122.867188 92.273438 120.933594 L 92.273438 116.613281 Z M 92.25 100.234375 C 92.25 98.300781 90.679688 96.730469 88.746094 96.730469 L 45.179688 96.730469 C 43.242188 96.730469 41.671875 98.300781 41.671875 100.234375 L 41.671875 104.554688 C 41.671875 106.488281 43.242188 108.058594 45.179688 108.058594 L 88.769531 108.058594 C 90.703125 108.058594 92.273438 106.488281 92.273438 104.554688 L 92.273438 100.234375 Z M 92.25 83.832031 C 92.25 81.898438 90.679688 80.332031 88.746094 80.332031 L 45.179688 80.332031 C 43.242188 80.332031 41.671875 81.898438 41.671875 83.832031 L 41.671875 88.15625 C 41.671875 90.089844 43.242188 91.660156 45.179688 91.660156 L 88.769531 91.660156 C 90.703125 91.660156 92.273438 90.089844 92.273438 88.15625 L 92.273438 83.832031 Z M 88.769531 99.347656 L 45.179688 99.347656 C 44.699219 99.347656 44.289062 99.734375 44.289062 100.234375 L 44.289062 104.554688 C 44.289062 105.035156 44.699219 105.445312 45.179688 105.445312 L 88.769531 105.445312 C 89.269531 105.445312 89.65625 105.035156 89.65625 104.554688 L 89.65625 100.234375 C 89.65625 99.734375 89.246094 99.347656 88.769531 99.347656 Z M 88.769531 82.945312 L 45.179688 82.945312 C 44.699219 82.945312 44.289062 83.355469 44.289062 83.832031 L 44.289062 88.15625 C 44.289062 88.65625 44.699219 89.042969 45.179688 89.042969 L 88.769531 89.042969 C 89.269531 89.042969 89.65625 88.65625 89.65625 88.15625 L 89.65625 83.832031 C 89.65625 83.355469 89.246094 82.945312 88.769531 82.945312 Z M 97.828125 59.5625 C 97.828125 58.699219 97.121094 57.992188 96.257812 57.992188 L 84.375 57.992188 C 83.511719 57.992188 82.804688 58.699219 82.804688 59.5625 L 82.804688 64.839844 L 97.828125 64.839844 Z M 51.140625 59.5625 C 51.140625 58.699219 50.4375 57.992188 49.570312 57.992188 L 37.691406 57.992188 C 36.824219 57.992188 36.117188 58.699219 36.117188 59.5625 L 36.117188 64.839844 L 51.140625 64.839844 Z M 54.328125 64.839844 L 58.359375 64.839844 C 58.675781 64.839844 58.925781 64.589844 58.925781 64.269531 L 58.925781 52.667969 C 58.925781 52.351562 58.675781 52.101562 58.359375 52.101562 L 54.328125 52.101562 C 54.03125 52.101562 53.761719 52.351562 53.761719 52.667969 L 53.761719 64.269531 C 53.761719 64.613281 54.03125 64.839844 54.328125 64.839844 Z M 54.328125 64.839844 " fill-opacity="1" fill-rule="nonzero"/></g></svg>