<svg xmlns="http://www.w3.org/2000/svg" xmlns:xlink="http://www.w3.org/1999/xlink" width="240" zoomAndPan="magnify" viewBox="0 0 180 179.999997" height="240" preserveAspectRatio="xMidYMid meet" version="1.0"><defs><clipPath id="d5c3a5efcf"><path d="M 26.183594 26.324219 L 153.816406 26.324219 L 153.816406 153.675781 L 26.183594 153.675781 Z M 26.183594 26.324219 " clip-rule="nonzero"/></clipPath><clipPath id="1cff1a348c"><path d="M 88 18.488281 L 89 18.488281 L 89 20 L 88 20 Z M 88 18.488281 " clip-rule="nonzero"/></clipPath><clipPath id="69c4eecf5b"><path d="M 86 18.488281 L 88 18.488281 L 88 30 L 86 30 Z M 86 18.488281 " clip-rule="nonzero"/></clipPath><clipPath id="298b8951e9"><path d="M 56 18.488281 L 70 18.488281 L 70 44 L 56 44 Z M 56 18.488281 " clip-rule="nonzero"/></clipPath><clipPath id="8709db6931"><path d="M 18.488281 34 L 34 34 L 34 47 L 18.488281 47 Z M 18.488281 34 " clip-rule="nonzero"/></clipPath><clipPath id="d4adf8e1b5"><path d="M 18.488281 27 L 44 27 L 44 51 L 18.488281 51 Z M 18.488281 27 " clip-rule="nonzero"/></clipPath><clipPath id="f1d3311276"><path d="M 18.488281 23 L 30 23 L 30 34 L 18.488281 34 Z M 18.488281 23 " clip-rule="nonzero"/></clipPath><clipPath id="b5c87495b8"><path d="M 18.488281 101 L 21 101 L 21 102 L 18.488281 102 Z M 18.488281 101 " clip-rule="nonzero"/></clipPath><clipPath id="02d77f550e"><path d="M 18.488281 131 L 36 131 L 36 147 L 18.488281 147 Z M 18.488281 131 " clip-rule="nonzero"/></clipPath><clipPath id="183ccccc58"><path d="M 18.488281 122 L 42 122 L 42 141 L 18.488281 141 Z M 18.488281 122 " clip-rule="nonzero"/></clipPath><clipPath id="0e72a539bb"><path d="M 83 159 L 84 159 L 84 161.738281 L 83 161.738281 Z M 83 159 " clip-rule="nonzero"/></clipPath><clipPath id="e63306fb16"><path d="M 87 159 L 88 159 L 88 161.738281 L 87 161.738281 Z M 87 159 " clip-rule="nonzero"/></clipPath><clipPath id="a4c7afcf98"><path d="M 141 137 L 161.738281 137 L 161.738281 159 L 141 159 Z M 141 137 " clip-rule="nonzero"/></clipPath><clipPath id="c367b991e0"><path d="M 130 132 L 161.738281 132 L 161.738281 161.738281 L 130 161.738281 Z M 130 132 " clip-rule="nonzero"/></clipPath><clipPath id="c55bf15856"><path d="M 137 107 L 161.738281 107 L 161.738281 117 L 137 117 Z M 137 107 " clip-rule="nonzero"/></clipPath><clipPath id="4f9506eb62"><path d="M 150 125 L 161.738281 125 L 161.738281 132 L 150 132 Z M 150 125 " clip-rule="nonzero"/></clipPath><clipPath id="23c5f79169"><path d="M 143 114 L 161.738281 114 L 161.738281 124 L 143 124 Z M 143 114 " clip-rule="nonzero"/></clipPath><clipPath id="1f3b5c742a"><path d="M 143 118 L 161.738281 118 L 161.738281 129 L 143 129 Z M 143 118 " clip-rule="nonzero"/></clipPath><clipPath id="811dac31ea"><path d="M 153 121 L 161.738281 121 L 161.738281 126 L 153 126 Z M 153 121 " clip-rule="nonzero"/></clipPath><clipPath id="a105110480"><path d="M 150 93 L 161.738281 93 L 161.738281 94 L 150 94 Z M 150 93 " clip-rule="nonzero"/></clipPath><clipPath id="258aef1981"><path d="M 148 76 L 161.738281 76 L 161.738281 80 L 148 80 Z M 148 76 " clip-rule="nonzero"/></clipPath><clipPath id="cc95df625e"><path d="M 149 74 L 161.738281 74 L 161.738281 78 L 149 78 Z M 149 74 " clip-rule="nonzero"/></clipPath><clipPath id="3a353ac697"><path d="M 141 87 L 161.738281 87 L 161.738281 89 L 141 89 Z M 141 87 " clip-rule="nonzero"/></clipPath><clipPath id="d181268707"><path d="M 148 89 L 161.738281 89 L 161.738281 90 L 148 90 Z M 148 89 " clip-rule="nonzero"/></clipPath><clipPath id="f9e692462d"><path d="M 160 91 L 161.738281 91 L 161.738281 92 L 160 92 Z M 160 91 " clip-rule="nonzero"/></clipPath><clipPath id="f74ad58b34"><path d="M 150 100 L 161.738281 100 L 161.738281 103 L 150 103 Z M 150 100 " clip-rule="nonzero"/></clipPath><clipPath id="704d101c96"><path d="M 160 83 L 161.738281 83 L 161.738281 85 L 160 85 Z M 160 83 " clip-rule="nonzero"/></clipPath><clipPath id="35296fece9"><path d="M 160 96 L 161.738281 96 L 161.738281 97 L 160 97 Z M 160 96 " clip-rule="nonzero"/></clipPath><clipPath id="9b78759bdc"><path d="M 156 63 L 161.738281 63 L 161.738281 67 L 156 67 Z M 156 63 " clip-rule="nonzero"/></clipPath><clipPath id="ba3b2cc587"><path d="M 146 60 L 161.738281 60 L 161.738281 68 L 146 68 Z M 146 60 " clip-rule="nonzero"/></clipPath><clipPath id="ed68240fd7"><path d="M 119 18.488281 L 132 18.488281 L 132 39 L 119 39 Z M 119 18.488281 " clip-rule="nonzero"/></clipPath><clipPath id="97e299f8bf"><path d="M 44 18.488281 L 58 18.488281 L 58 38 L 44 38 Z M 44 18.488281 " clip-rule="nonzero"/></clipPath><clipPath id="d135e9e61a"><path d="M 47 18.488281 L 61 18.488281 L 61 39 L 47 39 Z M 47 18.488281 " clip-rule="nonzero"/></clipPath><clipPath id="380cccfbaf"><path d="M 18.488281 42 L 40 42 L 40 57 L 18.488281 57 Z M 18.488281 42 " clip-rule="nonzero"/></clipPath><clipPath id="704f517d6c"><path d="M 18.488281 38 L 49 38 L 49 61 L 18.488281 61 Z M 18.488281 38 " clip-rule="nonzero"/></clipPath><clipPath id="b5ef1ddb4c"><path d="M 18.488281 76 L 33 76 L 33 80 L 18.488281 80 Z M 18.488281 76 " clip-rule="nonzero"/></clipPath><clipPath id="6723857688"><path d="M 18.488281 69 L 23 69 L 23 71 L 18.488281 71 Z M 18.488281 69 " clip-rule="nonzero"/></clipPath><clipPath id="9ce13fe3c5"><path d="M 18.488281 79 L 30 79 L 30 81 L 18.488281 81 Z M 18.488281 79 " clip-rule="nonzero"/></clipPath><clipPath id="a989fe183d"><path d="M 18.488281 68 L 22 68 L 22 70 L 18.488281 70 Z M 18.488281 68 " clip-rule="nonzero"/></clipPath><clipPath id="0934c9903f"><path d="M 18.488281 104 L 34 104 L 34 110 L 18.488281 110 Z M 18.488281 104 " clip-rule="nonzero"/></clipPath><clipPath id="7bf7d0f996"><path d="M 18.488281 107 L 32 107 L 32 112 L 18.488281 112 Z M 18.488281 107 " clip-rule="nonzero"/></clipPath><clipPath id="5d66963d8e"><path d="M 146 104 L 161.738281 104 L 161.738281 110 L 146 110 Z M 146 104 " clip-rule="nonzero"/></clipPath><clipPath id="d0fd033e6e"><path d="M 149 103 L 161.738281 103 L 161.738281 107 L 149 107 Z M 149 103 " clip-rule="nonzero"/></clipPath><clipPath id="3e33122c06"><path d="M 127 18.488281 L 137 18.488281 L 137 31 L 127 31 Z M 127 18.488281 " clip-rule="nonzero"/></clipPath><clipPath id="01f57fefa5"><path d="M 124 18.488281 L 143 18.488281 L 143 43 L 124 43 Z M 124 18.488281 " clip-rule="nonzero"/></clipPath><clipPath id="4792565e82"><path d="M 122 18.488281 L 126 18.488281 L 126 25 L 122 25 Z M 122 18.488281 " clip-rule="nonzero"/></clipPath><clipPath id="5313ff5f52"><path d="M 102 18.488281 L 104 18.488281 L 104 21 L 102 21 Z M 102 18.488281 " clip-rule="nonzero"/></clipPath><clipPath id="0a494c053c"><path d="M 109 18.488281 L 112 18.488281 L 112 22 L 109 22 Z M 109 18.488281 " clip-rule="nonzero"/></clipPath><clipPath id="6705245345"><path d="M 109 18.488281 L 114 18.488281 L 114 32 L 109 32 Z M 109 18.488281 " clip-rule="nonzero"/></clipPath><clipPath id="d0cc0b6454"><path d="M 98 18.488281 L 101 18.488281 L 101 30 L 98 30 Z M 98 18.488281 " clip-rule="nonzero"/></clipPath><clipPath id="45c7b57fba"><path d="M 92 18.488281 L 94 18.488281 L 94 31 L 92 31 Z M 92 18.488281 " clip-rule="nonzero"/></clipPath><clipPath id="bc7f965eb2"><path d="M 95 18.488281 L 97 18.488281 L 97 31 L 95 31 Z M 95 18.488281 " clip-rule="nonzero"/></clipPath><clipPath id="37c9cc865f"><path d="M 105 18.488281 L 109 18.488281 L 109 34 L 105 34 Z M 105 18.488281 " clip-rule="nonzero"/></clipPath><clipPath id="ea37fa30bd"><path d="M 97 18.488281 L 99 18.488281 L 99 20 L 97 20 Z M 97 18.488281 " clip-rule="nonzero"/></clipPath><clipPath id="20ff5cb848"><path d="M 68 18.488281 L 73 18.488281 L 73 32 L 68 32 Z M 68 18.488281 " clip-rule="nonzero"/></clipPath><clipPath id="3a249d6d5f"><path d="M 63 18.488281 L 70 18.488281 L 70 35 L 63 35 Z M 63 18.488281 " clip-rule="nonzero"/></clipPath><clipPath id="e70813eb82"><path d="M 65 18.488281 L 68 18.488281 L 68 23 L 65 23 Z M 65 18.488281 " clip-rule="nonzero"/></clipPath><clipPath id="04c6299a6a"><path d="M 71 18.488281 L 73 18.488281 L 73 22 L 71 22 Z M 71 18.488281 " clip-rule="nonzero"/></clipPath><clipPath id="14442b354b"><path d="M 60 18.488281 L 61 18.488281 L 61 19 L 60 19 Z M 60 18.488281 " clip-rule="nonzero"/></clipPath><clipPath id="421b8f509a"><path d="M 81 18.488281 L 83 18.488281 L 83 30 L 81 30 Z M 81 18.488281 " clip-rule="nonzero"/></clipPath><clipPath id="efd60b6277"><path d="M 81 18.488281 L 84 18.488281 L 84 30 L 81 30 Z M 81 18.488281 " clip-rule="nonzero"/></clipPath><clipPath id="5ade794db7"><path d="M 28 18.488281 L 46 18.488281 L 46 36 L 28 36 Z M 28 18.488281 " clip-rule="nonzero"/></clipPath><clipPath id="88d68bad2f"><path d="M 24 18.488281 L 56 18.488281 L 56 51 L 24 51 Z M 24 18.488281 " clip-rule="nonzero"/></clipPath><clipPath id="c21f6f1384"><path d="M 18.488281 18.488281 L 49 18.488281 L 49 48 L 18.488281 48 Z M 18.488281 18.488281 " clip-rule="nonzero"/></clipPath><clipPath id="e802362a4a"><path d="M 35 18.488281 L 40 18.488281 L 40 23 L 35 23 Z M 35 18.488281 " clip-rule="nonzero"/></clipPath><clipPath id="214ffb959a"><path d="M 18.488281 132 L 23 132 L 23 136 L 18.488281 136 Z M 18.488281 132 " clip-rule="nonzero"/></clipPath><clipPath id="43909fcdda"><path d="M 18.488281 119 L 39 119 L 39 133 L 18.488281 133 Z M 18.488281 119 " clip-rule="nonzero"/></clipPath><clipPath id="e82964982d"><path d="M 18.488281 108 L 40 108 L 40 118 L 18.488281 118 Z M 18.488281 108 " clip-rule="nonzero"/></clipPath><clipPath id="2db7afb3b6"><path d="M 18.488281 119 L 26 119 L 26 124 L 18.488281 124 Z M 18.488281 119 " clip-rule="nonzero"/></clipPath><clipPath id="c1236e6d93"><path d="M 18.488281 117 L 36 117 L 36 127 L 18.488281 127 Z M 18.488281 117 " clip-rule="nonzero"/></clipPath><clipPath id="644c2123e7"><path d="M 18.488281 123 L 29 123 L 29 130 L 18.488281 130 Z M 18.488281 123 " clip-rule="nonzero"/></clipPath><clipPath id="1b6783c480"><path d="M 39 137 L 57 137 L 57 161.738281 L 39 161.738281 Z M 39 137 " clip-rule="nonzero"/></clipPath><clipPath id="c2394b020b"><path d="M 19 133 L 48 133 L 48 161.738281 L 19 161.738281 Z M 19 133 " clip-rule="nonzero"/></clipPath><clipPath id="35a59783f4"><path d="M 44 155 L 49 155 L 49 161.738281 L 44 161.738281 Z M 44 155 " clip-rule="nonzero"/></clipPath><clipPath id="bd7779592d"><path d="M 36 146 L 49 146 L 49 161.738281 L 36 161.738281 Z M 36 146 " clip-rule="nonzero"/></clipPath><clipPath id="f6b6f3fc5c"><path d="M 33 137 L 53 137 L 53 161.738281 L 33 161.738281 Z M 33 137 " clip-rule="nonzero"/></clipPath><clipPath id="6c517de611"><path d="M 23 153 L 32 153 L 32 161.738281 L 23 161.738281 Z M 23 153 " clip-rule="nonzero"/></clipPath><clipPath id="e83e14c28d"><path d="M 28 143 L 45 143 L 45 161.738281 L 28 161.738281 Z M 28 143 " clip-rule="nonzero"/></clipPath><clipPath id="a5941234d0"><path d="M 18.488281 144 L 35 144 L 35 160 L 18.488281 160 Z M 18.488281 144 " clip-rule="nonzero"/></clipPath><clipPath id="414a389672"><path d="M 18.488281 130 L 45 130 L 45 156 L 18.488281 156 Z M 18.488281 130 " clip-rule="nonzero"/></clipPath><clipPath id="efbec00e45"><path d="M 18.488281 119 L 55 119 L 55 153 L 18.488281 153 Z M 18.488281 119 " clip-rule="nonzero"/></clipPath><clipPath id="2787c3bae4"><path d="M 64 147 L 71 147 L 71 161.738281 L 64 161.738281 Z M 64 147 " clip-rule="nonzero"/></clipPath><clipPath id="6513720bb2"><path d="M 75 158 L 76 158 L 76 161.738281 L 75 161.738281 Z M 75 158 " clip-rule="nonzero"/></clipPath><clipPath id="08958a2490"><path d="M 70 157 L 72 157 L 72 161.738281 L 70 161.738281 Z M 70 157 " clip-rule="nonzero"/></clipPath><clipPath id="bf44360eba"><path d="M 77 147 L 80 147 L 80 161.738281 L 77 161.738281 Z M 77 147 " clip-rule="nonzero"/></clipPath><clipPath id="7b5a2a4ac2"><path d="M 73 149 L 77 149 L 77 161.738281 L 73 161.738281 Z M 73 149 " clip-rule="nonzero"/></clipPath><clipPath id="d313e2b903"><path d="M 61 132 L 75 132 L 75 161.738281 L 61 161.738281 Z M 61 132 " clip-rule="nonzero"/></clipPath><clipPath id="98ed580d6c"><path d="M 59 145 L 66 145 L 66 161.738281 L 59 161.738281 Z M 59 145 " clip-rule="nonzero"/></clipPath><clipPath id="0560bd77eb"><path d="M 56 143 L 66 143 L 66 161.738281 L 56 161.738281 Z M 56 143 " clip-rule="nonzero"/></clipPath><clipPath id="1844bd92c8"><path d="M 102 149 L 106 149 L 106 161.738281 L 102 161.738281 Z M 102 149 " clip-rule="nonzero"/></clipPath><clipPath id="df42034f9d"><path d="M 102 138 L 111 138 L 111 161.738281 L 102 161.738281 Z M 102 138 " clip-rule="nonzero"/></clipPath><clipPath id="ad04accb20"><path d="M 101 159 L 103 159 L 103 161.738281 L 101 161.738281 Z M 101 159 " clip-rule="nonzero"/></clipPath><clipPath id="692d1ee79c"><path d="M 96 150 L 98 150 L 98 161.738281 L 96 161.738281 Z M 96 150 " clip-rule="nonzero"/></clipPath><clipPath id="0c60545279"><path d="M 91 150 L 93 150 L 93 161.738281 L 91 161.738281 Z M 91 150 " clip-rule="nonzero"/></clipPath><clipPath id="dab0bf1009"><path d="M 89 148 L 91 148 L 91 161.738281 L 89 161.738281 Z M 89 148 " clip-rule="nonzero"/></clipPath><clipPath id="3a4095df52"><path d="M 123 129 L 154 129 L 154 161.738281 L 123 161.738281 Z M 123 129 " clip-rule="nonzero"/></clipPath><clipPath id="09d5e81c7b"><path d="M 128 150 L 138 150 L 138 161.738281 L 128 161.738281 Z M 128 150 " clip-rule="nonzero"/></clipPath><clipPath id="32f9417f1f"><path d="M 140 146 L 156 146 L 156 161.738281 L 140 161.738281 Z M 140 146 " clip-rule="nonzero"/></clipPath><clipPath id="3dff2ac6e0"><path d="M 130 147 L 142 147 L 142 161.738281 L 130 161.738281 Z M 130 147 " clip-rule="nonzero"/></clipPath><clipPath id="4fc1923a04"><path d="M 126 138 L 146 138 L 146 161.738281 L 126 161.738281 Z M 126 138 " clip-rule="nonzero"/></clipPath><clipPath id="b5527e0d6f"><path d="M 117 155 L 121 155 L 121 161.738281 L 117 161.738281 Z M 117 155 " clip-rule="nonzero"/></clipPath><clipPath id="ab788c0fcf"><path d="M 113 156 L 117 156 L 117 161.738281 L 113 161.738281 Z M 113 156 " clip-rule="nonzero"/></clipPath><clipPath id="73b2949d01"><path d="M 108 149 L 114 149 L 114 161.738281 L 108 161.738281 Z M 108 149 " clip-rule="nonzero"/></clipPath><clipPath id="aa125f5cb0"><path d="M 114 143 L 125 143 L 125 161.738281 L 114 161.738281 Z M 114 143 " clip-rule="nonzero"/></clipPath><clipPath id="ac5d7d818b"><path d="M 124 150 L 131 150 L 131 161.738281 L 124 161.738281 Z M 124 150 " clip-rule="nonzero"/></clipPath><clipPath id="7a71407e3b"><path d="M 117 144 L 128 144 L 128 161.738281 L 117 161.738281 Z M 117 144 " clip-rule="nonzero"/></clipPath><clipPath id="61da6dcbd3"><path d="M 134 127 L 161.738281 127 L 161.738281 153 L 134 153 Z M 134 127 " clip-rule="nonzero"/></clipPath><clipPath id="2beb5d4750"><path d="M 129 116 L 161.738281 116 L 161.738281 142 L 129 142 Z M 129 116 " clip-rule="nonzero"/></clipPath><clipPath id="4911ef09be"><path d="M 137 127 L 161.738281 127 L 161.738281 147 L 137 147 Z M 137 127 " clip-rule="nonzero"/></clipPath><clipPath id="af28cb95d4"><path d="M 159 71 L 161.738281 71 L 161.738281 73 L 159 73 Z M 159 71 " clip-rule="nonzero"/></clipPath><clipPath id="ec4ceb477f"><path d="M 141 18.488281 L 161.738281 18.488281 L 161.738281 42 L 141 42 Z M 141 18.488281 " clip-rule="nonzero"/></clipPath><clipPath id="cd13f54102"><path d="M 136 18.488281 L 154 18.488281 L 154 37 L 136 37 Z M 136 18.488281 " clip-rule="nonzero"/></clipPath><clipPath id="4994bca799"><path d="M 131 18.488281 L 158 18.488281 L 158 46 L 131 46 Z M 131 18.488281 " clip-rule="nonzero"/></clipPath><clipPath id="ab5426998e"><path d="M 155 30 L 161.738281 30 L 161.738281 36 L 155 36 Z M 155 30 " clip-rule="nonzero"/></clipPath><clipPath id="5327e0825e"><path d="M 138 37 L 161.738281 37 L 161.738281 56 L 138 56 Z M 138 37 " clip-rule="nonzero"/></clipPath><clipPath id="9eeff318b9"><path d="M 156 33 L 161.738281 33 L 161.738281 37 L 156 37 Z M 156 33 " clip-rule="nonzero"/></clipPath><clipPath id="430636a8e8"><path d="M 151 47 L 161.738281 47 L 161.738281 55 L 151 55 Z M 151 47 " clip-rule="nonzero"/></clipPath><clipPath id="1acdb3d4aa"><path d="M 37 18.488281 L 55 18.488281 L 55 41 L 37 41 Z M 37 18.488281 " clip-rule="nonzero"/></clipPath><clipPath id="9d9dcb1e14"><path d="M 18.488281 55 L 27 55 L 27 60 L 18.488281 60 Z M 18.488281 55 " clip-rule="nonzero"/></clipPath><clipPath id="4e59909feb"><path d="M 18.488281 58 L 34 58 L 34 66 L 18.488281 66 Z M 18.488281 58 " clip-rule="nonzero"/></clipPath><clipPath id="2a689df12e"><path d="M 18.488281 49 L 37 49 L 37 60 L 18.488281 60 Z M 18.488281 49 " clip-rule="nonzero"/></clipPath><clipPath id="b58b769cda"><path d="M 18.488281 63 L 40 63 L 40 72 L 18.488281 72 Z M 18.488281 63 " clip-rule="nonzero"/></clipPath><clipPath id="d64488fd1c"><path d="M 18.488281 61 L 25 61 L 25 64 L 18.488281 64 Z M 18.488281 61 " clip-rule="nonzero"/></clipPath><clipPath id="6d927236b9"><path d="M 18.488281 94 L 20 94 L 20 95 L 18.488281 95 Z M 18.488281 94 " clip-rule="nonzero"/></clipPath><clipPath id="bd88e71f27"><path d="M 18.488281 91 L 30 91 L 30 93 L 18.488281 93 Z M 18.488281 91 " clip-rule="nonzero"/></clipPath><clipPath id="74fc4d9a87"><path d="M 18.488281 94 L 33 94 L 33 97 L 18.488281 97 Z M 18.488281 94 " clip-rule="nonzero"/></clipPath><clipPath id="06719352ac"><path d="M 18.488281 89 L 20 89 L 20 90 L 18.488281 90 Z M 18.488281 89 " clip-rule="nonzero"/></clipPath><clipPath id="69dc10b477"><path d="M 18.488281 84 L 26 84 L 26 85 L 18.488281 85 Z M 18.488281 84 " clip-rule="nonzero"/></clipPath><clipPath id="cdf2c43cf1"><path d="M 51 151 L 57 151 L 57 161.738281 L 51 161.738281 Z M 51 151 " clip-rule="nonzero"/></clipPath><clipPath id="a9a33d406f"><path d="M 47 150 L 55 150 L 55 161.738281 L 47 161.738281 Z M 47 150 " clip-rule="nonzero"/></clipPath><clipPath id="7a7e1fb659"><path d="M 132 160 L 133 160 L 133 161.738281 L 132 161.738281 Z M 132 160 " clip-rule="nonzero"/></clipPath><clipPath id="a673c58629"><path d="M 159 111 L 161.738281 111 L 161.738281 113 L 159 113 Z M 159 111 " clip-rule="nonzero"/></clipPath><clipPath id="b98b4e2ac9"><path d="M 141 122 L 161.738281 122 L 161.738281 138 L 141 138 Z M 141 122 " clip-rule="nonzero"/></clipPath><clipPath id="c709719423"><path d="M 140 55 L 161.738281 55 L 161.738281 68 L 140 68 Z M 140 55 " clip-rule="nonzero"/></clipPath><clipPath id="a08572315f"><path d="M 148 69 L 161.738281 69 L 161.738281 74 L 148 74 Z M 148 69 " clip-rule="nonzero"/></clipPath><clipPath id="f4bb3c5a09"><path d="M 136 26 L 161.738281 26 L 161.738281 50 L 136 50 Z M 136 26 " clip-rule="nonzero"/></clipPath><clipPath id="c36f93f61f"><path d="M 63 141 L 116 141 L 116 147.285156 L 63 147.285156 Z M 63 141 " clip-rule="nonzero"/></clipPath><clipPath id="29e2047c71"><path d="M 107 40 L 133.464844 40 L 133.464844 78 L 107 78 Z M 107 40 " clip-rule="nonzero"/></clipPath><clipPath id="2370d57a30"><path d="M 56.964844 32.535156 L 63 32.535156 L 63 38 L 56.964844 38 Z M 56.964844 32.535156 " clip-rule="nonzero"/></clipPath></defs><path fill="#a9bab4" d="M 18 18 L 162 18 L 162 162 L 18 162 Z M 18 18 " fill-opacity="1" fill-rule="nonzero"/><g clip-path="url(#d5c3a5efcf)"><path fill="#50665a" d="M 26.183594 26.324219 L 154.027344 26.324219 L 154.027344 153.675781 L 26.183594 153.675781 Z M 26.183594 26.324219 " fill-opacity="1" fill-rule="nonzero"/></g><g clip-path="url(#1cff1a348c)"><path fill="#ffffff" d="M 88.976562 19.117188 L 88.996094 18.488281 L 88.929688 18.488281 Z M 88.976562 19.117188 " fill-opacity="1" fill-rule="nonzero"/></g><g clip-path="url(#69c4eecf5b)"><path fill="#ffffff" d="M 86.152344 18.488281 L 87.769531 29.71875 L 86.917969 18.488281 Z M 86.152344 18.488281 " fill-opacity="1" fill-rule="nonzero"/></g><g clip-path="url(#298b8951e9)"><path fill="#ffffff" d="M 69.417969 43.128906 L 58.75 18.488281 L 56.734375 18.488281 L 58.375 21.402344 Z M 69.417969 43.128906 " fill-opacity="1" fill-rule="nonzero"/></g><g clip-path="url(#8709db6931)"><path fill="#ffffff" d="M 18.488281 34.125 L 18.488281 36.671875 L 33.738281 46.863281 Z M 18.488281 34.125 " fill-opacity="1" fill-rule="nonzero"/></g><g clip-path="url(#d4adf8e1b5)"><path fill="#ffffff" d="M 18.488281 27.757812 L 18.488281 31.703125 L 43.660156 50.082031 Z M 18.488281 27.757812 " fill-opacity="1" fill-rule="nonzero"/></g><g clip-path="url(#f1d3311276)"><path fill="#ffffff" d="M 18.488281 23.519531 L 18.488281 25.242188 L 29.445312 33.429688 Z M 18.488281 23.519531 " fill-opacity="1" fill-rule="nonzero"/></g><g clip-path="url(#b5c87495b8)"><path fill="#ffffff" d="M 18.488281 101.695312 L 18.488281 101.914062 L 20.449219 101.410156 Z M 18.488281 101.695312 " fill-opacity="1" fill-rule="nonzero"/></g><g clip-path="url(#02d77f550e)"><path fill="#ffffff" d="M 18.488281 143.21875 L 18.488281 146.082031 L 35.863281 131.835938 Z M 18.488281 143.21875 " fill-opacity="1" fill-rule="nonzero"/></g><g clip-path="url(#183ccccc58)"><path fill="#ffffff" d="M 30.074219 130.929688 L 41.125 122.550781 L 18.488281 137.425781 L 18.488281 140.734375 L 31.929688 129.714844 Z M 30.074219 130.929688 " fill-opacity="1" fill-rule="nonzero"/></g><g clip-path="url(#0e72a539bb)"><path fill="#ffffff" d="M 83.335938 161.503906 L 83.355469 159.917969 L 83.167969 161.503906 Z M 83.335938 161.503906 " fill-opacity="1" fill-rule="nonzero"/></g><g clip-path="url(#e63306fb16)"><path fill="#ffffff" d="M 87.960938 161.503906 L 87.980469 159.917969 L 87.792969 161.503906 Z M 87.960938 161.503906 " fill-opacity="1" fill-rule="nonzero"/></g><g clip-path="url(#a4c7afcf98)"><path fill="#ffffff" d="M 161.503906 158.507812 L 161.503906 154.480469 L 141.871094 137.625 Z M 161.503906 158.507812 " fill-opacity="1" fill-rule="nonzero"/></g><g clip-path="url(#c367b991e0)"><path fill="#ffffff" d="M 141.042969 141.527344 L 130.863281 132.089844 L 158.589844 161.503906 L 161.503906 161.503906 L 161.503906 158.785156 L 139.546875 139.933594 Z M 141.042969 141.527344 " fill-opacity="1" fill-rule="nonzero"/></g><g clip-path="url(#c55bf15856)"><path fill="#ffffff" d="M 161.503906 116.914062 L 161.503906 114.652344 L 137.65625 107.566406 Z M 161.503906 116.914062 " fill-opacity="1" fill-rule="nonzero"/></g><g clip-path="url(#4f9506eb62)"><path fill="#ffffff" d="M 161.503906 131.992188 L 161.503906 130.511719 L 150.867188 125.40625 Z M 161.503906 131.992188 " fill-opacity="1" fill-rule="nonzero"/></g><g clip-path="url(#23c5f79169)"><path fill="#ffffff" d="M 161.503906 123.320312 L 161.503906 121.863281 L 143.386719 114.613281 Z M 161.503906 123.320312 " fill-opacity="1" fill-rule="nonzero"/></g><g clip-path="url(#1f3b5c742a)"><path fill="#ffffff" d="M 161.503906 128.230469 L 161.503906 127.214844 L 143.765625 118.589844 Z M 161.503906 128.230469 " fill-opacity="1" fill-rule="nonzero"/></g><g clip-path="url(#811dac31ea)"><path fill="#ffffff" d="M 161.503906 125.480469 L 161.503906 124.398438 L 153.171875 121.089844 Z M 161.503906 125.480469 " fill-opacity="1" fill-rule="nonzero"/></g><g clip-path="url(#a105110480)"><path fill="#ffffff" d="M 161.503906 93.820312 L 161.503906 93.339844 L 150.953125 93.171875 Z M 161.503906 93.820312 " fill-opacity="1" fill-rule="nonzero"/></g><g clip-path="url(#258aef1981)"><path fill="#ffffff" d="M 161.503906 77.285156 L 161.503906 76.34375 L 148.042969 79.496094 Z M 161.503906 77.285156 " fill-opacity="1" fill-rule="nonzero"/></g><g clip-path="url(#cc95df625e)"><path fill="#ffffff" d="M 161.503906 74.902344 L 161.503906 74.34375 L 149.78125 77.28125 Z M 161.503906 74.902344 " fill-opacity="1" fill-rule="nonzero"/></g><g clip-path="url(#3a353ac697)"><path fill="#ffffff" d="M 161.503906 88.484375 L 161.503906 87.25 L 141.664062 88.28125 Z M 161.503906 88.484375 " fill-opacity="1" fill-rule="nonzero"/></g><g clip-path="url(#d181268707)"><path fill="#ffffff" d="M 161.503906 89.875 L 161.503906 89.027344 L 148.929688 89.726562 Z M 161.503906 89.875 " fill-opacity="1" fill-rule="nonzero"/></g><g clip-path="url(#f9e692462d)"><path fill="#ffffff" d="M 161.503906 91.492188 L 161.503906 91.390625 L 160.53125 91.449219 Z M 161.503906 91.492188 " fill-opacity="1" fill-rule="nonzero"/></g><g clip-path="url(#f74ad58b34)"><path fill="#ffffff" d="M 161.503906 102.402344 L 161.503906 101.871094 L 150.039062 100.472656 Z M 161.503906 102.402344 " fill-opacity="1" fill-rule="nonzero"/></g><g clip-path="url(#704d101c96)"><path fill="#ffffff" d="M 161.503906 83.980469 L 161.503906 83.859375 L 160.359375 84.046875 Z M 161.503906 83.980469 " fill-opacity="1" fill-rule="nonzero"/></g><g clip-path="url(#35296fece9)"><path fill="#ffffff" d="M 161.503906 96.492188 L 161.503906 96.359375 L 160.269531 96.34375 Z M 161.503906 96.492188 " fill-opacity="1" fill-rule="nonzero"/></g><g clip-path="url(#9b78759bdc)"><path fill="#ffffff" d="M 161.503906 64.390625 L 161.503906 63.773438 L 156.507812 66.035156 Z M 161.503906 64.390625 " fill-opacity="1" fill-rule="nonzero"/></g><g clip-path="url(#ba3b2cc587)"><path fill="#ffffff" d="M 161.503906 61.28125 L 161.503906 60.492188 L 146.722656 67.09375 Z M 161.503906 61.28125 " fill-opacity="1" fill-rule="nonzero"/></g><g clip-path="url(#ed68240fd7)"><path fill="#ffffff" d="M 129.730469 18.488281 L 119.523438 38.691406 L 131.503906 18.488281 Z M 129.730469 18.488281 " fill-opacity="1" fill-rule="nonzero"/></g><g clip-path="url(#97e299f8bf)"><path fill="#ffffff" d="M 46.148438 18.488281 L 44.910156 18.488281 L 57.945312 37.761719 Z M 46.148438 18.488281 " fill-opacity="1" fill-rule="nonzero"/></g><g clip-path="url(#d135e9e61a)"><path fill="#ffffff" d="M 49.300781 18.488281 L 47.441406 18.488281 L 60.621094 38.636719 Z M 49.300781 18.488281 " fill-opacity="1" fill-rule="nonzero"/></g><g clip-path="url(#380cccfbaf)"><path fill="#ffffff" d="M 18.488281 42.582031 L 18.488281 43.886719 L 39.011719 56.183594 Z M 18.488281 42.582031 " fill-opacity="1" fill-rule="nonzero"/></g><g clip-path="url(#704f517d6c)"><path fill="#ffffff" d="M 18.488281 38.992188 L 18.488281 41.660156 L 48.273438 60.300781 Z M 18.488281 38.992188 " fill-opacity="1" fill-rule="nonzero"/></g><g clip-path="url(#b5ef1ddb4c)"><path fill="#ffffff" d="M 18.488281 76.84375 L 18.488281 77.777344 L 32.027344 79.394531 Z M 18.488281 76.84375 " fill-opacity="1" fill-rule="nonzero"/></g><g clip-path="url(#6723857688)"><path fill="#ffffff" d="M 18.488281 69.84375 L 18.488281 70.242188 L 22.007812 70.90625 Z M 18.488281 69.84375 " fill-opacity="1" fill-rule="nonzero"/></g><g clip-path="url(#9ce13fe3c5)"><path fill="#ffffff" d="M 18.488281 79.210938 L 18.488281 79.722656 L 29.636719 80.882812 Z M 18.488281 79.210938 " fill-opacity="1" fill-rule="nonzero"/></g><g clip-path="url(#a989fe183d)"><path fill="#ffffff" d="M 18.488281 68.695312 L 18.488281 69.074219 L 21.917969 69.5 Z M 18.488281 68.695312 " fill-opacity="1" fill-rule="nonzero"/></g><g clip-path="url(#0934c9903f)"><path fill="#ffffff" d="M 18.488281 108.605469 L 18.488281 109.675781 L 33.117188 104.867188 Z M 18.488281 108.605469 " fill-opacity="1" fill-rule="nonzero"/></g><g clip-path="url(#7bf7d0f996)"><path fill="#ffffff" d="M 18.488281 111.097656 L 18.488281 111.753906 L 31.582031 107.226562 Z M 18.488281 111.097656 " fill-opacity="1" fill-rule="nonzero"/></g><g clip-path="url(#5d66963d8e)"><path fill="#ffffff" d="M 161.503906 109.0625 L 161.503906 108.019531 L 146.90625 104.96875 Z M 161.503906 109.0625 " fill-opacity="1" fill-rule="nonzero"/></g><g clip-path="url(#d0fd033e6e)"><path fill="#ffffff" d="M 161.503906 106.605469 L 161.503906 106.03125 L 149.417969 103.695312 Z M 161.503906 106.605469 " fill-opacity="1" fill-rule="nonzero"/></g><g clip-path="url(#3e33122c06)"><path fill="#ffffff" d="M 136.859375 18.488281 L 134.992188 18.488281 L 127.84375 30.550781 Z M 136.859375 18.488281 " fill-opacity="1" fill-rule="nonzero"/></g><g clip-path="url(#01f57fefa5)"><path fill="#ffffff" d="M 131.832031 30.964844 L 124.675781 42.058594 L 142.238281 18.488281 L 139.039062 18.488281 L 130.925781 32.179688 Z M 131.832031 30.964844 " fill-opacity="1" fill-rule="nonzero"/></g><g clip-path="url(#4792565e82)"><path fill="#ffffff" d="M 125.039062 18.488281 L 122.554688 24.136719 L 125.605469 18.488281 Z M 125.039062 18.488281 " fill-opacity="1" fill-rule="nonzero"/></g><g clip-path="url(#5313ff5f52)"><path fill="#ffffff" d="M 102.972656 18.488281 L 102.792969 20.28125 L 103.167969 18.488281 Z M 102.972656 18.488281 " fill-opacity="1" fill-rule="nonzero"/></g><g clip-path="url(#0a494c053c)"><path fill="#ffffff" d="M 110.695312 18.488281 L 109.96875 21.996094 L 111.09375 18.488281 Z M 110.695312 18.488281 " fill-opacity="1" fill-rule="nonzero"/></g><g clip-path="url(#6705245345)"><path fill="#ffffff" d="M 109.171875 31.730469 L 113.609375 18.488281 L 112.953125 18.488281 Z M 109.171875 31.730469 " fill-opacity="1" fill-rule="nonzero"/></g><g clip-path="url(#d0cc0b6454)"><path fill="#ffffff" d="M 98.820312 29.285156 L 100.4375 18.488281 L 99.941406 18.488281 Z M 98.820312 29.285156 " fill-opacity="1" fill-rule="nonzero"/></g><g clip-path="url(#45c7b57fba)"><path fill="#ffffff" d="M 92.28125 30.320312 L 93.457031 18.488281 L 92.65625 18.488281 Z M 92.28125 30.320312 " fill-opacity="1" fill-rule="nonzero"/></g><g clip-path="url(#bc7f965eb2)"><path fill="#ffffff" d="M 95.609375 18.488281 L 95.210938 31 L 96.457031 18.488281 Z M 95.609375 18.488281 " fill-opacity="1" fill-rule="nonzero"/></g><g clip-path="url(#37c9cc865f)"><path fill="#ffffff" d="M 107.332031 18.488281 L 105.300781 33.269531 L 108.359375 18.488281 Z M 107.332031 18.488281 " fill-opacity="1" fill-rule="nonzero"/></g><g clip-path="url(#ea37fa30bd)"><path fill="#ffffff" d="M 97.914062 19.558594 L 98.058594 18.488281 L 97.945312 18.488281 Z M 97.914062 19.558594 " fill-opacity="1" fill-rule="nonzero"/></g><g clip-path="url(#20ff5cb848)"><path fill="#ffffff" d="M 68.707031 18.488281 L 68.070312 18.488281 L 72.472656 31.226562 Z M 68.707031 18.488281 " fill-opacity="1" fill-rule="nonzero"/></g><g clip-path="url(#3a249d6d5f)"><path fill="#ffffff" d="M 64.382812 18.488281 L 63.152344 18.488281 L 69.929688 34.308594 Z M 64.382812 18.488281 " fill-opacity="1" fill-rule="nonzero"/></g><g clip-path="url(#e70813eb82)"><path fill="#ffffff" d="M 66.210938 18.488281 L 65.6875 18.488281 L 67.539062 22.78125 Z M 66.210938 18.488281 " fill-opacity="1" fill-rule="nonzero"/></g><g clip-path="url(#04c6299a6a)"><path fill="#ffffff" d="M 71.589844 18.488281 L 71.253906 18.488281 L 72.269531 21.386719 Z M 71.589844 18.488281 " fill-opacity="1" fill-rule="nonzero"/></g><g clip-path="url(#14442b354b)"><path fill="#ffffff" d="M 60.480469 18.488281 L 60.4375 18.488281 L 60.628906 18.914062 Z M 60.480469 18.488281 " fill-opacity="1" fill-rule="nonzero"/></g><g clip-path="url(#421b8f509a)"><path fill="#ffffff" d="M 81.199219 18.488281 L 82.890625 29.066406 L 81.691406 18.488281 Z M 81.199219 18.488281 " fill-opacity="1" fill-rule="nonzero"/></g><g clip-path="url(#efd60b6277)"><path fill="#ffffff" d="M 81.917969 18.488281 L 83.609375 29.066406 L 82.40625 18.488281 Z M 81.917969 18.488281 " fill-opacity="1" fill-rule="nonzero"/></g><g clip-path="url(#5ade794db7)"><path fill="#ffffff" d="M 31.839844 18.488281 L 28.652344 18.488281 L 45.074219 35.285156 Z M 31.839844 18.488281 " fill-opacity="1" fill-rule="nonzero"/></g><g clip-path="url(#88d68bad2f)"><path fill="#ffffff" d="M 26.847656 18.488281 L 24.390625 18.488281 L 55.527344 50.851562 Z M 26.847656 18.488281 " fill-opacity="1" fill-rule="nonzero"/></g><g clip-path="url(#c21f6f1384)"><path fill="#ffffff" d="M 24.605469 23.613281 L 41.375 38.539062 L 23.183594 18.488281 L 18.488281 18.488281 L 18.488281 21.222656 L 48.414062 47.988281 Z M 24.605469 23.613281 " fill-opacity="1" fill-rule="nonzero"/></g><g clip-path="url(#e802362a4a)"><path fill="#ffffff" d="M 36.207031 18.488281 L 35.203125 18.488281 L 39.535156 22.773438 Z M 36.207031 18.488281 " fill-opacity="1" fill-rule="nonzero"/></g><g clip-path="url(#214ffb959a)"><path fill="#ffffff" d="M 18.488281 134.738281 L 18.488281 135.210938 L 22.355469 132.597656 Z M 18.488281 134.738281 " fill-opacity="1" fill-rule="nonzero"/></g><g clip-path="url(#43909fcdda)"><path fill="#ffffff" d="M 18.488281 130.597656 L 18.488281 132.492188 L 38.988281 119.078125 Z M 18.488281 130.597656 " fill-opacity="1" fill-rule="nonzero"/></g><g clip-path="url(#e82964982d)"><path fill="#ffffff" d="M 18.488281 116.542969 L 18.488281 117.570312 L 39.691406 108.609375 Z M 18.488281 116.542969 " fill-opacity="1" fill-rule="nonzero"/></g><g clip-path="url(#2db7afb3b6)"><path fill="#ffffff" d="M 18.488281 122.183594 L 18.488281 123.164062 L 25.859375 119.019531 Z M 18.488281 122.183594 " fill-opacity="1" fill-rule="nonzero"/></g><g clip-path="url(#c1236e6d93)"><path fill="#ffffff" d="M 18.488281 125.589844 L 18.488281 126.574219 L 35.515625 117.109375 Z M 18.488281 125.589844 " fill-opacity="1" fill-rule="nonzero"/></g><g clip-path="url(#644c2123e7)"><path fill="#ffffff" d="M 18.488281 128.304688 L 18.488281 129.671875 L 28.023438 123.402344 Z M 18.488281 128.304688 " fill-opacity="1" fill-rule="nonzero"/></g><g clip-path="url(#1b6783c480)"><path fill="#ffffff" d="M 39.25 161.503906 L 41.554688 161.503906 L 56.199219 137.894531 Z M 39.25 161.503906 " fill-opacity="1" fill-rule="nonzero"/></g><g clip-path="url(#c2394b020b)"><path fill="#ffffff" d="M 19.660156 161.503906 L 22.066406 161.503906 L 47.375 133.34375 Z M 19.660156 161.503906 " fill-opacity="1" fill-rule="nonzero"/></g><g clip-path="url(#35a59783f4)"><path fill="#ffffff" d="M 44.097656 161.503906 L 44.828125 161.503906 L 48.359375 155.632812 Z M 44.097656 161.503906 " fill-opacity="1" fill-rule="nonzero"/></g><g clip-path="url(#bd7779592d)"><path fill="#ffffff" d="M 36.398438 161.503906 L 38.785156 161.503906 L 48.082031 146.433594 Z M 36.398438 161.503906 " fill-opacity="1" fill-rule="nonzero"/></g><g clip-path="url(#f6b6f3fc5c)"><path fill="#ffffff" d="M 33.164062 161.503906 L 34.878906 161.503906 L 52.21875 137.574219 Z M 33.164062 161.503906 " fill-opacity="1" fill-rule="nonzero"/></g><g clip-path="url(#6c517de611)"><path fill="#ffffff" d="M 23.074219 161.503906 L 25.070312 161.503906 L 31.371094 153.523438 Z M 23.074219 161.503906 " fill-opacity="1" fill-rule="nonzero"/></g><g clip-path="url(#e83e14c28d)"><path fill="#ffffff" d="M 28.09375 161.503906 L 31.277344 161.503906 L 44.273438 143.386719 Z M 28.09375 161.503906 " fill-opacity="1" fill-rule="nonzero"/></g><g clip-path="url(#a5941234d0)"><path fill="#ffffff" d="M 18.488281 158.25 L 18.488281 159.902344 L 34.296875 144.363281 Z M 18.488281 158.25 " fill-opacity="1" fill-rule="nonzero"/></g><g clip-path="url(#414a389672)"><path fill="#ffffff" d="M 18.488281 153.25 L 18.488281 155.4375 L 44.472656 130.28125 Z M 18.488281 153.25 " fill-opacity="1" fill-rule="nonzero"/></g><g clip-path="url(#efbec00e45)"><path fill="#ffffff" d="M 18.488281 148.945312 L 18.488281 152.675781 L 54.375 119.394531 Z M 18.488281 148.945312 " fill-opacity="1" fill-rule="nonzero"/></g><g clip-path="url(#2787c3bae4)"><path fill="#ffffff" d="M 64.984375 161.503906 L 65.71875 161.503906 L 70.644531 147.320312 Z M 64.984375 161.503906 " fill-opacity="1" fill-rule="nonzero"/></g><g clip-path="url(#6513720bb2)"><path fill="#ffffff" d="M 75.683594 161.503906 L 75.996094 158.828125 L 75.390625 161.503906 Z M 75.683594 161.503906 " fill-opacity="1" fill-rule="nonzero"/></g><g clip-path="url(#08958a2490)"><path fill="#ffffff" d="M 70.542969 161.503906 L 71.257812 157.691406 L 70.109375 161.503906 Z M 70.542969 161.503906 " fill-opacity="1" fill-rule="nonzero"/></g><g clip-path="url(#bf44360eba)"><path fill="#ffffff" d="M 78.09375 161.503906 L 79.746094 147.671875 L 77.140625 161.503906 Z M 78.09375 161.503906 " fill-opacity="1" fill-rule="nonzero"/></g><g clip-path="url(#7b5a2a4ac2)"><path fill="#ffffff" d="M 73.601562 161.503906 L 76.003906 149.066406 L 73.011719 161.503906 Z M 73.601562 161.503906 " fill-opacity="1" fill-rule="nonzero"/></g><g clip-path="url(#d313e2b903)"><path fill="#ffffff" d="M 61.972656 161.503906 L 63.265625 161.503906 L 74.375 132.871094 Z M 61.972656 161.503906 " fill-opacity="1" fill-rule="nonzero"/></g><g clip-path="url(#98ed580d6c)"><path fill="#ffffff" d="M 59.035156 161.503906 L 59.871094 161.503906 L 65.902344 145.730469 Z M 59.035156 161.503906 " fill-opacity="1" fill-rule="nonzero"/></g><g clip-path="url(#0560bd77eb)"><path fill="#ffffff" d="M 56.210938 161.503906 L 57.695312 161.503906 L 65.085938 143.035156 Z M 56.210938 161.503906 " fill-opacity="1" fill-rule="nonzero"/></g><g clip-path="url(#1844bd92c8)"><path fill="#ffffff" d="M 104.867188 161.503906 L 105.445312 161.503906 L 102.417969 149.429688 Z M 104.867188 161.503906 " fill-opacity="1" fill-rule="nonzero"/></g><g clip-path="url(#df42034f9d)"><path fill="#ffffff" d="M 108.898438 161.503906 L 110.457031 161.503906 L 102.851562 138.011719 Z M 108.898438 161.503906 " fill-opacity="1" fill-rule="nonzero"/></g><g clip-path="url(#ad04accb20)"><path fill="#ffffff" d="M 102.089844 161.503906 L 102.339844 161.503906 L 101.761719 159.25 Z M 102.089844 161.503906 " fill-opacity="1" fill-rule="nonzero"/></g><g clip-path="url(#692d1ee79c)"><path fill="#ffffff" d="M 97.117188 161.503906 L 97.625 161.503906 L 96.054688 150.394531 Z M 97.117188 161.503906 " fill-opacity="1" fill-rule="nonzero"/></g><g clip-path="url(#0c60545279)"><path fill="#ffffff" d="M 92.132812 161.503906 L 92.625 161.503906 L 91.855469 150.671875 Z M 92.132812 161.503906 " fill-opacity="1" fill-rule="nonzero"/></g><g clip-path="url(#dab0bf1009)"><path fill="#ffffff" d="M 89.824219 161.503906 L 90.695312 161.503906 L 89.972656 148.574219 Z M 89.824219 161.503906 " fill-opacity="1" fill-rule="nonzero"/></g><g clip-path="url(#3a4095df52)"><path fill="#ffffff" d="M 149.054688 160.832031 L 133.976562 144.847656 L 146.625 161.503906 L 153.125 161.503906 L 123.464844 129.6875 Z M 149.054688 160.832031 " fill-opacity="1" fill-rule="nonzero"/></g><g clip-path="url(#09d5e81c7b)"><path fill="#ffffff" d="M 135.636719 161.503906 L 137.417969 161.503906 L 128.78125 150.027344 Z M 135.636719 161.503906 " fill-opacity="1" fill-rule="nonzero"/></g><g clip-path="url(#32f9417f1f)"><path fill="#ffffff" d="M 153.296875 161.503906 L 155.613281 161.503906 L 140.414062 146.628906 Z M 153.296875 161.503906 " fill-opacity="1" fill-rule="nonzero"/></g><g clip-path="url(#3dff2ac6e0)"><path fill="#ffffff" d="M 139.066406 161.503906 L 141.328125 161.503906 L 130.066406 147.773438 Z M 139.066406 161.503906 " fill-opacity="1" fill-rule="nonzero"/></g><g clip-path="url(#4fc1923a04)"><path fill="#ffffff" d="M 143.445312 161.503906 L 145.109375 161.503906 L 126.511719 138.59375 Z M 143.445312 161.503906 " fill-opacity="1" fill-rule="nonzero"/></g><g clip-path="url(#b5527e0d6f)"><path fill="#ffffff" d="M 119.738281 161.503906 L 120.453125 161.503906 L 117.640625 155.894531 Z M 119.738281 161.503906 " fill-opacity="1" fill-rule="nonzero"/></g><g clip-path="url(#ab788c0fcf)"><path fill="#ffffff" d="M 115.429688 161.503906 L 116.085938 161.503906 L 113.667969 156.15625 Z M 115.429688 161.503906 " fill-opacity="1" fill-rule="nonzero"/></g><g clip-path="url(#73b2949d01)"><path fill="#ffffff" d="M 112.492188 161.503906 L 113.421875 161.503906 L 108.8125 149.140625 Z M 112.492188 161.503906 " fill-opacity="1" fill-rule="nonzero"/></g><g clip-path="url(#aa125f5cb0)"><path fill="#ffffff" d="M 123.203125 161.503906 L 124.746094 161.503906 L 114.871094 143.078125 Z M 123.203125 161.503906 " fill-opacity="1" fill-rule="nonzero"/></g><g clip-path="url(#ac5d7d818b)"><path fill="#ffffff" d="M 129.578125 161.503906 L 130.265625 161.503906 L 124.234375 150.734375 Z M 129.578125 161.503906 " fill-opacity="1" fill-rule="nonzero"/></g><g clip-path="url(#7a71407e3b)"><path fill="#ffffff" d="M 126.085938 161.503906 L 127.089844 161.503906 L 117.460938 144.183594 Z M 126.085938 161.503906 " fill-opacity="1" fill-rule="nonzero"/></g><g clip-path="url(#61da6dcbd3)"><path fill="#ffffff" d="M 152.042969 142.121094 L 134.554688 129.035156 L 161.503906 152.191406 L 161.503906 147.324219 L 135.113281 127.574219 Z M 152.042969 142.121094 " fill-opacity="1" fill-rule="nonzero"/></g><g clip-path="url(#2beb5d4750)"><path fill="#ffffff" d="M 161.503906 141.582031 L 161.503906 139.578125 L 129.460938 116.15625 Z M 161.503906 141.582031 " fill-opacity="1" fill-rule="nonzero"/></g><g clip-path="url(#4911ef09be)"><path fill="#ffffff" d="M 161.503906 146.253906 L 161.503906 144.566406 L 137.929688 127.484375 Z M 161.503906 146.253906 " fill-opacity="1" fill-rule="nonzero"/></g><g clip-path="url(#af28cb95d4)"><path fill="#ffffff" d="M 161.503906 71.609375 L 161.503906 71.5 L 159.496094 72.082031 Z M 161.503906 71.609375 " fill-opacity="1" fill-rule="nonzero"/></g><g clip-path="url(#ec4ceb477f)"><path fill="#ffffff" d="M 161.335938 18.488281 L 141.480469 41.613281 L 161.503906 22.789062 L 161.503906 18.488281 Z M 161.335938 18.488281 " fill-opacity="1" fill-rule="nonzero"/></g><g clip-path="url(#cd13f54102)"><path fill="#ffffff" d="M 153.625 18.488281 L 150.316406 18.488281 L 136.699219 36.777344 Z M 153.625 18.488281 " fill-opacity="1" fill-rule="nonzero"/></g><g clip-path="url(#4994bca799)"><path fill="#ffffff" d="M 157.289062 18.488281 L 155.074219 18.488281 L 131.867188 45.25 Z M 157.289062 18.488281 " fill-opacity="1" fill-rule="nonzero"/></g><g clip-path="url(#ab5426998e)"><path fill="#ffffff" d="M 161.503906 30.921875 L 161.503906 30.273438 L 155.105469 35.601562 Z M 161.503906 30.921875 " fill-opacity="1" fill-rule="nonzero"/></g><g clip-path="url(#5327e0825e)"><path fill="#ffffff" d="M 161.503906 40.089844 L 161.503906 37.683594 L 138.304688 55.933594 Z M 161.503906 40.089844 " fill-opacity="1" fill-rule="nonzero"/></g><g clip-path="url(#9eeff318b9)"><path fill="#ffffff" d="M 161.503906 33.730469 L 161.503906 33.019531 L 156.753906 36.777344 Z M 161.503906 33.730469 " fill-opacity="1" fill-rule="nonzero"/></g><g clip-path="url(#430636a8e8)"><path fill="#ffffff" d="M 161.503906 49.421875 L 161.503906 47.9375 L 151.394531 54.847656 Z M 161.503906 49.421875 " fill-opacity="1" fill-rule="nonzero"/></g><g clip-path="url(#1acdb3d4aa)"><path fill="#ffffff" d="M 38.988281 18.488281 L 37.460938 18.488281 L 54.386719 40.113281 Z M 38.988281 18.488281 " fill-opacity="1" fill-rule="nonzero"/></g><g clip-path="url(#9d9dcb1e14)"><path fill="#ffffff" d="M 18.488281 55.4375 L 18.488281 56.433594 L 26.300781 59.378906 Z M 18.488281 55.4375 " fill-opacity="1" fill-rule="nonzero"/></g><g clip-path="url(#4e59909feb)"><path fill="#ffffff" d="M 18.488281 58.808594 L 18.488281 59.628906 L 33.972656 65.550781 Z M 18.488281 58.808594 " fill-opacity="1" fill-rule="nonzero"/></g><g clip-path="url(#2a689df12e)"><path fill="#ffffff" d="M 18.488281 49.4375 L 18.488281 50.503906 L 36.777344 59.804688 Z M 18.488281 49.4375 " fill-opacity="1" fill-rule="nonzero"/></g><g clip-path="url(#b58b769cda)"><path fill="#ffffff" d="M 18.488281 63.289062 L 18.488281 64.761719 L 39.117188 71.050781 Z M 18.488281 63.289062 " fill-opacity="1" fill-rule="nonzero"/></g><g clip-path="url(#d64488fd1c)"><path fill="#ffffff" d="M 18.488281 61.425781 L 18.488281 62.128906 L 24.320312 63.875 Z M 18.488281 61.425781 " fill-opacity="1" fill-rule="nonzero"/></g><g clip-path="url(#6d927236b9)"><path fill="#ffffff" d="M 18.488281 94.089844 L 18.488281 94.207031 L 19.574219 94.046875 Z M 18.488281 94.089844 " fill-opacity="1" fill-rule="nonzero"/></g><g clip-path="url(#bd88e71f27)"><path fill="#ffffff" d="M 18.488281 91.773438 L 18.488281 92.25 L 29.027344 91.5 Z M 18.488281 91.773438 " fill-opacity="1" fill-rule="nonzero"/></g><g clip-path="url(#74fc4d9a87)"><path fill="#ffffff" d="M 18.488281 95.703125 L 18.488281 96.664062 L 32.8125 94.617188 Z M 18.488281 95.703125 " fill-opacity="1" fill-rule="nonzero"/></g><g clip-path="url(#06719352ac)"><path fill="#ffffff" d="M 18.488281 89.121094 L 18.488281 89.226562 L 19.46875 89.152344 Z M 18.488281 89.121094 " fill-opacity="1" fill-rule="nonzero"/></g><g clip-path="url(#69dc10b477)"><path fill="#ffffff" d="M 18.488281 84.292969 L 18.488281 84.613281 L 25.128906 84.828125 Z M 18.488281 84.292969 " fill-opacity="1" fill-rule="nonzero"/></g><g clip-path="url(#cdf2c43cf1)"><path fill="#ffffff" d="M 51.398438 161.503906 L 52.304688 161.503906 L 56.46875 151.859375 Z M 51.398438 161.503906 " fill-opacity="1" fill-rule="nonzero"/></g><g clip-path="url(#a9a33d406f)"><path fill="#ffffff" d="M 47.492188 161.503906 L 49.019531 161.503906 L 54.292969 150.515625 Z M 47.492188 161.503906 " fill-opacity="1" fill-rule="nonzero"/></g><g clip-path="url(#7a7e1fb659)"><path fill="#ffffff" d="M 132.445312 161.503906 L 132.492188 161.503906 L 132.121094 160.925781 Z M 132.445312 161.503906 " fill-opacity="1" fill-rule="nonzero"/></g><g clip-path="url(#a673c58629)"><path fill="#ffffff" d="M 161.503906 112.125 L 161.503906 111.914062 L 159.042969 111.328125 Z M 161.503906 112.125 " fill-opacity="1" fill-rule="nonzero"/></g><g clip-path="url(#b98b4e2ac9)"><path fill="#ffffff" d="M 161.503906 137.734375 L 161.503906 136.355469 L 141.355469 122.648438 Z M 161.503906 137.734375 " fill-opacity="1" fill-rule="nonzero"/></g><g clip-path="url(#c709719423)"><path fill="#ffffff" d="M 159.015625 57.78125 L 140.144531 67.839844 L 161.503906 58.15625 L 161.503906 55.140625 L 143.433594 64.828125 Z M 159.015625 57.78125 " fill-opacity="1" fill-rule="nonzero"/></g><g clip-path="url(#a08572315f)"><path fill="#ffffff" d="M 161.503906 69.632812 L 161.503906 69 L 148.746094 73.160156 Z M 161.503906 69.632812 " fill-opacity="1" fill-rule="nonzero"/></g><g clip-path="url(#f4bb3c5a09)"><path fill="#ffffff" d="M 161.503906 28.355469 L 161.503906 26.296875 L 136.261719 49.878906 Z M 161.503906 28.355469 " fill-opacity="1" fill-rule="nonzero"/></g><path fill="#000000" d="M 69.203125 134.503906 C 69.203125 136.652344 70.949219 138.398438 73.101562 138.398438 L 105.972656 138.398438 C 108.125 138.398438 109.867188 136.652344 109.867188 134.503906 L 109.867188 131.660156 L 69.203125 131.660156 Z M 69.203125 134.503906 " fill-opacity="1" fill-rule="nonzero"/><path fill="#000000" d="M 69.203125 93.21875 L 109.867188 93.21875 L 109.867188 78.214844 L 69.203125 78.214844 Z M 103.007812 80.960938 C 105.613281 80.960938 107.742188 83.089844 107.742188 85.691406 C 107.742188 88.296875 105.613281 90.421875 103.007812 90.421875 C 100.402344 90.421875 98.273438 88.296875 98.273438 85.691406 C 98.273438 83.089844 100.402344 80.960938 103.007812 80.960938 Z M 89.546875 80.960938 C 92.152344 80.960938 94.28125 83.089844 94.28125 85.691406 C 94.28125 88.296875 92.152344 90.421875 89.546875 90.421875 C 86.941406 90.421875 84.816406 88.296875 84.816406 85.691406 C 84.789062 83.089844 86.917969 80.960938 89.546875 80.960938 Z M 76.066406 80.960938 C 78.671875 80.960938 80.796875 83.089844 80.796875 85.691406 C 80.796875 88.296875 78.671875 90.421875 76.066406 90.421875 C 73.460938 90.421875 71.332031 88.296875 71.332031 85.691406 C 71.332031 83.089844 73.460938 80.960938 76.066406 80.960938 Z M 76.066406 80.960938 " fill-opacity="1" fill-rule="nonzero"/><path fill="#000000" d="M 69.203125 111.019531 L 109.867188 111.019531 L 109.867188 96.015625 L 69.203125 96.015625 Z M 103.007812 98.785156 C 105.613281 98.785156 107.742188 100.910156 107.742188 103.515625 C 107.742188 106.121094 105.613281 108.246094 103.007812 108.246094 C 100.402344 108.246094 98.273438 106.121094 98.273438 103.515625 C 98.273438 100.910156 100.402344 98.785156 103.007812 98.785156 Z M 89.546875 98.785156 C 92.152344 98.785156 94.28125 100.910156 94.28125 103.515625 C 94.28125 106.121094 92.152344 108.246094 89.546875 108.246094 C 86.941406 108.246094 84.816406 106.121094 84.816406 103.515625 C 84.789062 100.910156 86.917969 98.785156 89.546875 98.785156 Z M 76.066406 98.785156 C 78.671875 98.785156 80.796875 100.910156 80.796875 103.515625 C 80.796875 106.121094 78.671875 108.246094 76.066406 108.246094 C 73.460938 108.246094 71.332031 106.121094 71.332031 103.515625 C 71.332031 100.910156 73.460938 98.785156 76.066406 98.785156 Z M 76.066406 98.785156 " fill-opacity="1" fill-rule="nonzero"/><path fill="#000000" d="M 69.203125 128.839844 L 109.867188 128.839844 L 109.867188 113.835938 L 69.203125 113.835938 Z M 103.007812 116.609375 C 105.613281 116.609375 107.742188 118.734375 107.742188 121.339844 C 107.742188 123.945312 105.613281 126.070312 103.007812 126.070312 C 100.402344 126.070312 98.273438 123.945312 98.273438 121.339844 C 98.273438 118.734375 100.402344 116.609375 103.007812 116.609375 Z M 89.546875 116.609375 C 92.152344 116.609375 94.28125 118.734375 94.28125 121.339844 C 94.28125 123.945312 92.152344 126.070312 89.546875 126.070312 C 86.941406 126.070312 84.816406 123.945312 84.816406 121.339844 C 84.789062 118.734375 86.917969 116.609375 89.546875 116.609375 Z M 76.066406 116.609375 C 78.671875 116.609375 80.796875 118.734375 80.796875 121.339844 C 80.796875 123.945312 78.671875 126.070312 76.066406 126.070312 C 73.460938 126.070312 71.332031 123.945312 71.332031 121.339844 C 71.332031 118.734375 73.460938 116.609375 76.066406 116.609375 Z M 76.066406 116.609375 " fill-opacity="1" fill-rule="nonzero"/><path fill="#000000" d="M 109.867188 72.550781 C 109.867188 70.402344 108.125 68.65625 105.972656 68.65625 L 73.101562 68.65625 C 70.949219 68.65625 69.203125 70.402344 69.203125 72.550781 L 69.203125 75.394531 L 109.867188 75.394531 Z M 109.867188 72.550781 " fill-opacity="1" fill-rule="nonzero"/><path fill="#000000" d="M 76.066406 87.628906 C 77.117188 87.628906 77.976562 86.769531 77.976562 85.71875 C 77.976562 84.664062 77.117188 83.804688 76.066406 83.804688 C 75.011719 83.804688 74.152344 84.664062 74.152344 85.71875 C 74.152344 86.769531 75.011719 87.628906 76.066406 87.628906 Z M 76.066406 87.628906 " fill-opacity="1" fill-rule="nonzero"/><path fill="#000000" d="M 89.546875 87.628906 C 90.601562 87.628906 91.460938 86.769531 91.460938 85.71875 C 91.460938 84.664062 90.601562 83.804688 89.546875 83.804688 C 88.496094 83.804688 87.636719 84.664062 87.636719 85.71875 C 87.613281 86.769531 88.472656 87.628906 89.546875 87.628906 Z M 89.546875 87.628906 " fill-opacity="1" fill-rule="nonzero"/><path fill="#000000" d="M 103.007812 87.628906 C 104.058594 87.628906 104.917969 86.769531 104.917969 85.71875 C 104.917969 84.664062 104.058594 83.804688 103.007812 83.804688 C 101.957031 83.804688 101.09375 84.664062 101.09375 85.71875 C 101.09375 86.769531 101.957031 87.628906 103.007812 87.628906 Z M 103.007812 87.628906 " fill-opacity="1" fill-rule="nonzero"/><path fill="#000000" d="M 77.976562 103.539062 C 77.976562 103.792969 77.929688 104.039062 77.832031 104.269531 C 77.734375 104.503906 77.597656 104.710938 77.417969 104.890625 C 77.238281 105.070312 77.03125 105.207031 76.796875 105.304688 C 76.5625 105.402344 76.320312 105.453125 76.066406 105.453125 C 75.8125 105.453125 75.566406 105.402344 75.332031 105.304688 C 75.097656 105.207031 74.890625 105.070312 74.710938 104.890625 C 74.535156 104.710938 74.394531 104.503906 74.296875 104.269531 C 74.199219 104.039062 74.152344 103.792969 74.152344 103.539062 C 74.152344 103.285156 74.199219 103.042969 74.296875 102.808594 C 74.394531 102.574219 74.535156 102.367188 74.710938 102.1875 C 74.890625 102.007812 75.097656 101.871094 75.332031 101.773438 C 75.566406 101.675781 75.8125 101.628906 76.066406 101.628906 C 76.320312 101.628906 76.5625 101.675781 76.796875 101.773438 C 77.03125 101.871094 77.238281 102.007812 77.417969 102.1875 C 77.597656 102.367188 77.734375 102.574219 77.832031 102.808594 C 77.929688 103.042969 77.976562 103.285156 77.976562 103.539062 Z M 77.976562 103.539062 " fill-opacity="1" fill-rule="nonzero"/><path fill="#000000" d="M 90.347656 101.792969 C 90.578125 101.898438 90.777344 102.042969 90.953125 102.226562 C 91.125 102.414062 91.253906 102.625 91.34375 102.863281 C 91.433594 103.101562 91.472656 103.34375 91.460938 103.597656 C 91.453125 103.851562 91.394531 104.09375 91.289062 104.324219 C 91.183594 104.554688 91.039062 104.757812 90.855469 104.929688 C 90.667969 105.101562 90.457031 105.230469 90.21875 105.320312 C 89.980469 105.410156 89.734375 105.449219 89.480469 105.441406 C 89.230469 105.429688 88.988281 105.375 88.757812 105.269531 C 88.527344 105.164062 88.324219 105.015625 88.152344 104.832031 C 87.976562 104.644531 87.847656 104.433594 87.757812 104.195312 C 87.671875 103.960938 87.632812 103.714844 87.640625 103.460938 C 87.648438 103.207031 87.707031 102.964844 87.8125 102.734375 C 87.917969 102.503906 88.0625 102.304688 88.25 102.128906 C 88.433594 101.957031 88.644531 101.828125 88.882812 101.738281 C 89.121094 101.648438 89.367188 101.609375 89.621094 101.621094 C 89.875 101.628906 90.117188 101.6875 90.347656 101.792969 Z M 90.347656 101.792969 " fill-opacity="1" fill-rule="nonzero"/><path fill="#000000" d="M 104.917969 103.539062 C 104.917969 103.792969 104.871094 104.039062 104.773438 104.269531 C 104.675781 104.503906 104.539062 104.710938 104.359375 104.890625 C 104.179688 105.070312 103.972656 105.207031 103.738281 105.304688 C 103.503906 105.402344 103.261719 105.453125 103.007812 105.453125 C 102.753906 105.453125 102.507812 105.402344 102.273438 105.304688 C 102.042969 105.207031 101.835938 105.070312 101.65625 104.890625 C 101.476562 104.710938 101.335938 104.503906 101.242188 104.269531 C 101.144531 104.039062 101.09375 103.792969 101.09375 103.539062 C 101.09375 103.285156 101.144531 103.042969 101.242188 102.808594 C 101.335938 102.574219 101.476562 102.367188 101.65625 102.1875 C 101.835938 102.007812 102.042969 101.871094 102.273438 101.773438 C 102.507812 101.675781 102.753906 101.628906 103.007812 101.628906 C 103.261719 101.628906 103.503906 101.675781 103.738281 101.773438 C 103.972656 101.871094 104.179688 102.007812 104.359375 102.1875 C 104.539062 102.367188 104.675781 102.574219 104.773438 102.808594 C 104.871094 103.042969 104.917969 103.285156 104.917969 103.539062 Z M 104.917969 103.539062 " fill-opacity="1" fill-rule="nonzero"/><path fill="#000000" d="M 77.976562 121.339844 C 77.976562 121.59375 77.929688 121.835938 77.832031 122.070312 C 77.734375 122.304688 77.597656 122.511719 77.417969 122.691406 C 77.238281 122.871094 77.03125 123.007812 76.796875 123.105469 C 76.5625 123.203125 76.320312 123.25 76.066406 123.25 C 75.8125 123.25 75.566406 123.203125 75.332031 123.105469 C 75.097656 123.007812 74.890625 122.871094 74.710938 122.691406 C 74.535156 122.511719 74.394531 122.304688 74.296875 122.070312 C 74.199219 121.835938 74.152344 121.59375 74.152344 121.339844 C 74.152344 121.085938 74.199219 120.84375 74.296875 120.609375 C 74.394531 120.375 74.535156 120.167969 74.710938 119.988281 C 74.890625 119.808594 75.097656 119.671875 75.332031 119.574219 C 75.566406 119.476562 75.8125 119.429688 76.066406 119.429688 C 76.320312 119.429688 76.5625 119.476562 76.796875 119.574219 C 77.03125 119.671875 77.238281 119.808594 77.417969 119.988281 C 77.597656 120.167969 77.734375 120.375 77.832031 120.609375 C 77.929688 120.84375 77.976562 121.085938 77.976562 121.339844 Z M 77.976562 121.339844 " fill-opacity="1" fill-rule="nonzero"/><path fill="#000000" d="M 90.433594 119.640625 C 90.65625 119.761719 90.851562 119.917969 91.011719 120.113281 C 91.175781 120.304688 91.292969 120.523438 91.367188 120.765625 C 91.441406 121.007812 91.46875 121.257812 91.445312 121.507812 C 91.421875 121.761719 91.351562 122 91.234375 122.222656 C 91.117188 122.449219 90.957031 122.640625 90.761719 122.804688 C 90.570312 122.964844 90.351562 123.082031 90.109375 123.160156 C 89.867188 123.234375 89.617188 123.257812 89.367188 123.234375 C 89.113281 123.214844 88.875 123.140625 88.648438 123.023438 C 88.425781 122.90625 88.234375 122.75 88.070312 122.554688 C 87.910156 122.359375 87.789062 122.140625 87.714844 121.898438 C 87.640625 121.65625 87.613281 121.410156 87.636719 121.15625 C 87.660156 120.90625 87.730469 120.667969 87.847656 120.441406 C 87.96875 120.21875 88.125 120.023438 88.320312 119.863281 C 88.515625 119.699219 88.734375 119.582031 88.976562 119.507812 C 89.21875 119.433594 89.464844 119.40625 89.71875 119.429688 C 89.96875 119.453125 90.207031 119.523438 90.433594 119.640625 Z M 90.433594 119.640625 " fill-opacity="1" fill-rule="nonzero"/><path fill="#000000" d="M 104.917969 121.339844 C 104.917969 121.59375 104.871094 121.835938 104.773438 122.070312 C 104.675781 122.304688 104.539062 122.511719 104.359375 122.691406 C 104.179688 122.871094 103.972656 123.007812 103.738281 123.105469 C 103.503906 123.203125 103.261719 123.25 103.007812 123.25 C 102.753906 123.25 102.507812 123.203125 102.273438 123.105469 C 102.042969 123.007812 101.835938 122.871094 101.65625 122.691406 C 101.476562 122.511719 101.335938 122.304688 101.242188 122.070312 C 101.144531 121.835938 101.09375 121.59375 101.09375 121.339844 C 101.09375 121.085938 101.144531 120.84375 101.242188 120.609375 C 101.335938 120.375 101.476562 120.167969 101.65625 119.988281 C 101.835938 119.808594 102.042969 119.671875 102.273438 119.574219 C 102.507812 119.476562 102.753906 119.429688 103.007812 119.429688 C 103.261719 119.429688 103.503906 119.476562 103.738281 119.574219 C 103.972656 119.671875 104.179688 119.808594 104.359375 119.988281 C 104.539062 120.167969 104.675781 120.375 104.773438 120.609375 C 104.871094 120.84375 104.917969 121.085938 104.917969 121.339844 Z M 104.917969 121.339844 " fill-opacity="1" fill-rule="nonzero"/><path fill="#000000" d="M 115.246094 59.792969 L 63.847656 59.792969 C 63.515625 59.792969 63.25 60.058594 63.25 60.390625 L 63.25 65.21875 C 63.25 65.550781 63.515625 65.816406 63.847656 65.816406 L 115.246094 65.816406 C 115.582031 65.816406 115.84375 65.550781 115.84375 65.21875 L 115.84375 60.390625 C 115.84375 60.058594 115.582031 59.792969 115.246094 59.792969 Z M 115.246094 59.792969 " fill-opacity="1" fill-rule="nonzero"/><g clip-path="url(#c36f93f61f)"><path fill="#000000" d="M 115.246094 141.21875 L 63.847656 141.21875 C 63.515625 141.21875 63.25 141.480469 63.25 141.8125 L 63.25 146.640625 C 63.25 146.976562 63.515625 147.238281 63.847656 147.238281 L 115.246094 147.238281 C 115.582031 147.238281 115.84375 146.976562 115.84375 146.640625 L 115.84375 141.8125 C 115.84375 141.503906 115.582031 141.21875 115.246094 141.21875 Z M 115.246094 141.21875 " fill-opacity="1" fill-rule="nonzero"/></g><path fill="#000000" d="M 94.234375 45.625 L 79.675781 45.625 L 78.40625 56.953125 L 97.820312 56.953125 L 96.886719 47.921875 C 95.835938 47.394531 94.925781 46.605469 94.234375 45.625 Z M 94.234375 45.625 " fill-opacity="1" fill-rule="nonzero"/><path fill="#000000" d="M 95.644531 41.277344 C 95.644531 42.089844 95.859375 42.878906 96.242188 43.546875 C 96.242188 43.546875 96.242188 43.570312 96.265625 43.570312 C 96.816406 44.527344 97.675781 45.292969 98.726562 45.675781 C 99.230469 45.867188 99.78125 45.960938 100.328125 45.960938 C 102.910156 45.960938 105.015625 43.859375 105.015625 41.277344 C 105.015625 38.722656 102.960938 36.644531 100.425781 36.59375 C 100.402344 36.59375 100.355469 36.59375 100.328125 36.59375 C 97.746094 36.59375 95.644531 38.699219 95.644531 41.277344 Z M 95.644531 41.277344 " fill-opacity="1" fill-rule="nonzero"/><path fill="#000000" d="M 79.84375 38.960938 L 79.84375 42.808594 L 92.992188 42.808594 C 92.894531 42.304688 92.824219 41.78125 92.824219 41.253906 C 92.824219 38.078125 94.808594 35.351562 97.605469 34.253906 C 97.148438 33.824219 96.792969 33.488281 96.527344 33.296875 L 83.332031 33.296875 L 83.332031 35.757812 C 83.332031 36.546875 82.710938 37.167969 81.921875 37.167969 C 81.132812 37.167969 80.511719 36.546875 80.511719 35.757812 L 80.511719 33.324219 L 75.15625 33.324219 L 75.15625 37.574219 L 78.429688 37.574219 C 79.195312 37.550781 79.84375 38.195312 79.84375 38.960938 Z M 81.945312 39.082031 L 85.820312 39.082031 C 86.609375 39.082031 87.230469 39.703125 87.230469 40.488281 C 87.230469 41.277344 86.609375 41.898438 85.820312 41.898438 L 81.945312 41.898438 C 81.15625 41.898438 80.535156 41.277344 80.535156 40.488281 C 80.535156 39.703125 81.15625 39.082031 81.945312 39.082031 Z M 81.945312 39.082031 " fill-opacity="1" fill-rule="nonzero"/><g clip-path="url(#29e2047c71)"><path fill="#000000" d="M 133.367188 75.800781 C 131.214844 59.675781 124.140625 50.789062 118.59375 46.175781 C 114.003906 42.351562 109.699219 40.730469 107.789062 40.15625 C 107.835938 40.515625 107.859375 40.894531 107.859375 41.253906 C 107.859375 41.875 107.789062 42.496094 107.644531 43.070312 C 109.582031 43.738281 113.144531 45.269531 116.921875 48.421875 C 124.261719 54.585938 128.992188 64.191406 130.59375 76.160156 C 130.691406 76.875 131.289062 77.378906 131.980469 77.378906 C 132.054688 77.378906 132.101562 77.378906 132.171875 77.378906 C 132.914062 77.28125 133.464844 76.589844 133.367188 75.800781 Z M 133.367188 75.800781 " fill-opacity="1" fill-rule="nonzero"/></g><path fill="#000000" d="M 72.359375 36.59375 L 72.359375 33.777344 L 64.804688 33.777344 C 64.925781 34.230469 64.996094 34.707031 64.996094 35.1875 C 64.996094 35.664062 64.925781 36.140625 64.804688 36.59375 Z M 72.359375 36.59375 " fill-opacity="1" fill-rule="nonzero"/><g clip-path="url(#2370d57a30)"><path fill="#000000" d="M 59.570312 32.582031 C 58.136719 32.582031 56.964844 33.753906 56.964844 35.1875 C 56.964844 36.621094 58.136719 37.789062 59.570312 37.789062 C 60.980469 37.789062 62.152344 36.644531 62.175781 35.234375 C 62.175781 35.234375 62.175781 35.210938 62.175781 35.210938 C 62.175781 35.210938 62.175781 35.1875 62.175781 35.1875 C 62.128906 33.730469 60.980469 32.582031 59.570312 32.582031 Z M 59.570312 32.582031 " fill-opacity="1" fill-rule="nonzero"/></g></svg>