<svg xmlns="http://www.w3.org/2000/svg" xmlns:xlink="http://www.w3.org/1999/xlink" width="240" zoomAndPan="magnify" viewBox="0 0 180 179.999997" height="240" preserveAspectRatio="xMidYMid meet" version="1.0"><defs><clipPath id="517ffffbc4"><path d="M 26.183594 26.324219 L 153.816406 26.324219 L 153.816406 153.675781 L 26.183594 153.675781 Z M 26.183594 26.324219 " clip-rule="nonzero"/></clipPath><clipPath id="a202271e0a"><path d="M 91.859375 26.324219 L 154 26.324219 L 154 88.574219 L 91.859375 88.574219 Z M 91.859375 26.324219 " clip-rule="nonzero"/></clipPath><clipPath id="6b2c4e6cd0"><path d="M 62 84 L 109 84 L 109 153.824219 L 62 153.824219 Z M 62 84 " clip-rule="nonzero"/></clipPath><clipPath id="2beece1dfb"><path d="M 65 26.324219 L 106 26.324219 L 106 80 L 65 80 Z M 65 26.324219 " clip-rule="nonzero"/></clipPath></defs><path fill="#a9bab4" d="M 18 18 L 162 18 L 162 162 L 18 162 Z M 18 18 " fill-opacity="1" fill-rule="nonzero"/><g clip-path="url(#517ffffbc4)"><path fill="#50665a" d="M 26.183594 26.324219 L 154.027344 26.324219 L 154.027344 153.675781 L 26.183594 153.675781 Z M 26.183594 26.324219 " fill-opacity="1" fill-rule="nonzero"/></g><path fill="#ffffff" d="M 128.847656 63.921875 C 127.78125 63.023438 126.546875 62.390625 125.179688 62.035156 C 124.410156 61.835938 123.597656 61.730469 122.835938 61.730469 C 121.441406 61.730469 120.089844 62.039062 118.816406 62.648438 C 118.097656 62.988281 117.410156 63.429688 116.824219 63.921875 C 116.097656 64.535156 116.007812 65.621094 116.617188 66.347656 C 117.230469 67.070312 118.316406 67.164062 119.039062 66.554688 C 119.535156 66.136719 120.894531 65.167969 122.835938 65.167969 C 123.480469 65.167969 125.144531 65.300781 126.628906 66.554688 C 126.953125 66.824219 127.347656 66.957031 127.738281 66.957031 C 128.226562 66.957031 128.714844 66.75 129.054688 66.347656 C 129.664062 65.621094 129.574219 64.535156 128.847656 63.921875 Z M 128.847656 63.921875 " fill-opacity="1" fill-rule="nonzero"/><path fill="#ffffff" d="M 136.851562 52.765625 C 134.367188 50.675781 131.488281 49.191406 128.300781 48.363281 C 126.5 47.898438 124.609375 47.648438 122.835938 47.648438 C 119.589844 47.648438 116.433594 48.371094 113.460938 49.792969 C 111.785156 50.59375 110.179688 51.621094 108.820312 52.765625 C 108.09375 53.378906 108.003906 54.464844 108.613281 55.1875 C 109.226562 55.914062 110.3125 56.007812 111.039062 55.394531 C 112.574219 54.101562 116.800781 51.089844 122.835938 51.089844 C 124.847656 51.089844 130.019531 51.507812 134.632812 55.394531 C 134.957031 55.667969 135.351562 55.800781 135.742188 55.800781 C 136.230469 55.800781 136.71875 55.59375 137.058594 55.1875 C 137.667969 54.464844 137.574219 53.378906 136.851562 52.765625 Z M 136.851562 52.765625 " fill-opacity="1" fill-rule="nonzero"/><path fill="#ffffff" d="M 132.679688 58.367188 C 130.933594 56.898438 128.914062 55.855469 126.675781 55.273438 C 125.410156 54.945312 124.085938 54.773438 122.835938 54.773438 C 120.554688 54.773438 118.339844 55.277344 116.25 56.277344 C 115.074219 56.839844 113.945312 57.5625 112.992188 58.367188 C 112.265625 58.980469 112.171875 60.0625 112.785156 60.789062 C 113.394531 61.515625 114.480469 61.609375 115.207031 60.996094 C 116.203125 60.160156 118.933594 58.210938 122.835938 58.210938 C 124.136719 58.210938 127.480469 58.484375 130.464844 60.996094 C 130.785156 61.269531 131.179688 61.402344 131.570312 61.402344 C 132.0625 61.402344 132.546875 61.195312 132.886719 60.789062 C 133.5 60.0625 133.40625 58.980469 132.679688 58.367188 Z M 132.679688 58.367188 " fill-opacity="1" fill-rule="nonzero"/><g clip-path="url(#a202271e0a)"><path fill="#ffffff" d="M 151.378906 45.246094 C 149.820312 41.554688 147.585938 38.242188 144.742188 35.398438 C 141.894531 32.554688 138.582031 30.320312 134.894531 28.761719 C 131.074219 27.144531 127.015625 26.324219 122.835938 26.324219 C 118.652344 26.324219 114.597656 27.144531 110.777344 28.761719 C 107.089844 30.320312 103.777344 32.554688 100.929688 35.398438 C 98.085938 38.242188 95.851562 41.554688 94.292969 45.246094 C 92.675781 49.066406 91.859375 53.121094 91.859375 57.304688 C 91.859375 61.484375 92.675781 65.542969 94.292969 69.363281 C 95.851562 73.050781 98.085938 76.363281 100.929688 79.207031 C 103.777344 82.054688 107.089844 84.285156 110.777344 85.847656 C 114.597656 87.460938 118.652344 88.28125 122.835938 88.28125 C 127.015625 88.28125 131.074219 87.460938 134.894531 85.847656 C 138.582031 84.285156 141.894531 82.054688 144.742188 79.207031 C 147.585938 76.363281 149.820312 73.050781 151.378906 69.363281 C 152.996094 65.542969 153.8125 61.484375 153.8125 57.304688 C 153.8125 53.121094 152.996094 49.066406 151.378906 45.246094 Z M 122.835938 86.84375 C 106.546875 86.84375 93.292969 73.59375 93.292969 57.304688 C 93.292969 49.332031 96.46875 42.085938 101.621094 36.765625 L 144.820312 77.015625 C 139.40625 83.046875 131.558594 86.84375 122.835938 86.84375 Z M 145.753906 75.921875 L 102.648438 35.757812 C 107.933594 30.800781 115.035156 27.761719 122.835938 27.761719 C 139.125 27.761719 152.375 41.015625 152.375 57.304688 C 152.375 64.355469 149.894531 70.839844 145.753906 75.921875 Z M 145.753906 75.921875 " fill-opacity="1" fill-rule="nonzero"/></g><g clip-path="url(#6b2c4e6cd0)"><path fill="#000000" d="M 62.070312 84.414062 L 62.070312 153.671875 L 108.988281 153.671875 L 108.988281 84.414062 Z M 89.996094 91.675781 L 94.464844 91.675781 L 94.464844 96.144531 L 89.996094 96.144531 Z M 98.933594 91.675781 L 103.402344 91.675781 L 103.402344 96.144531 L 98.933594 96.144531 Z M 78.667969 98.378906 C 78.71875 98.375 78.773438 98.375 78.824219 98.378906 C 79.121094 98.378906 79.40625 98.433594 79.679688 98.546875 C 79.953125 98.660156 80.195312 98.824219 80.40625 99.03125 C 80.613281 99.242188 80.773438 99.484375 80.886719 99.757812 C 81.003906 100.03125 81.058594 100.316406 81.058594 100.613281 C 81.058594 100.910156 81.003906 101.191406 80.886719 101.464844 C 80.773438 101.738281 80.613281 101.980469 80.40625 102.191406 C 80.195312 102.402344 79.953125 102.5625 79.679688 102.675781 C 79.40625 102.789062 79.121094 102.847656 78.824219 102.847656 C 78.527344 102.847656 78.242188 102.789062 77.96875 102.675781 C 77.695312 102.5625 77.453125 102.402344 77.246094 102.191406 C 77.035156 101.980469 76.875 101.738281 76.761719 101.464844 C 76.648438 101.191406 76.589844 100.910156 76.589844 100.613281 C 76.589844 100.328125 76.640625 100.054688 76.746094 99.792969 C 76.847656 99.527344 76.996094 99.292969 77.1875 99.085938 C 77.382812 98.878906 77.605469 98.714844 77.859375 98.589844 C 78.117188 98.46875 78.386719 98.398438 78.667969 98.378906 Z M 71.964844 100.613281 C 72.019531 100.609375 72.070312 100.609375 72.121094 100.613281 C 72.417969 100.613281 72.703125 100.667969 72.976562 100.78125 C 73.25 100.894531 73.492188 101.058594 73.703125 101.265625 C 73.910156 101.476562 74.074219 101.71875 74.1875 101.992188 C 74.300781 102.265625 74.355469 102.550781 74.355469 102.847656 C 74.355469 103.140625 74.300781 103.425781 74.1875 103.699219 C 74.074219 103.972656 73.910156 104.214844 73.703125 104.425781 C 73.492188 104.636719 73.25 104.796875 72.976562 104.910156 C 72.703125 105.023438 72.417969 105.078125 72.121094 105.082031 C 71.824219 105.078125 71.539062 105.023438 71.265625 104.910156 C 70.992188 104.796875 70.75 104.636719 70.542969 104.425781 C 70.332031 104.214844 70.171875 103.972656 70.058594 103.699219 C 69.945312 103.425781 69.886719 103.140625 69.886719 102.847656 C 69.886719 102.5625 69.9375 102.289062 70.042969 102.027344 C 70.144531 101.761719 70.292969 101.527344 70.484375 101.320312 C 70.679688 101.113281 70.902344 100.945312 71.15625 100.824219 C 71.414062 100.703125 71.683594 100.632812 71.964844 100.613281 Z M 85.371094 100.613281 C 85.421875 100.609375 85.476562 100.609375 85.527344 100.613281 C 85.824219 100.613281 86.109375 100.667969 86.382812 100.78125 C 86.65625 100.894531 86.898438 101.058594 87.105469 101.265625 C 87.316406 101.476562 87.476562 101.71875 87.589844 101.992188 C 87.703125 102.265625 87.761719 102.550781 87.761719 102.847656 C 87.761719 103.140625 87.703125 103.425781 87.589844 103.699219 C 87.476562 103.972656 87.316406 104.214844 87.105469 104.425781 C 86.898438 104.636719 86.65625 104.796875 86.382812 104.910156 C 86.109375 105.023438 85.824219 105.078125 85.527344 105.082031 C 85.230469 105.078125 84.945312 105.023438 84.671875 104.910156 C 84.398438 104.796875 84.15625 104.636719 83.949219 104.425781 C 83.738281 104.214844 83.578125 103.972656 83.464844 103.699219 C 83.347656 103.425781 83.292969 103.140625 83.292969 102.847656 C 83.292969 102.5625 83.34375 102.289062 83.445312 102.027344 C 83.550781 101.761719 83.699219 101.527344 83.890625 101.320312 C 84.082031 101.113281 84.308594 100.945312 84.5625 100.824219 C 84.820312 100.703125 85.085938 100.632812 85.371094 100.613281 Z M 69.730469 107.316406 C 69.785156 107.3125 69.835938 107.3125 69.886719 107.316406 C 70.183594 107.316406 70.46875 107.371094 70.742188 107.484375 C 71.015625 107.597656 71.257812 107.757812 71.46875 107.96875 C 71.675781 108.179688 71.839844 108.417969 71.953125 108.695312 C 72.066406 108.96875 72.121094 109.253906 72.121094 109.546875 C 72.121094 109.84375 72.066406 110.128906 71.953125 110.402344 C 71.839844 110.675781 71.675781 110.917969 71.46875 111.128906 C 71.257812 111.335938 71.015625 111.5 70.742188 111.613281 C 70.46875 111.726562 70.183594 111.78125 69.886719 111.78125 C 69.589844 111.78125 69.304688 111.726562 69.03125 111.613281 C 68.757812 111.5 68.519531 111.335938 68.308594 111.128906 C 68.097656 110.917969 67.9375 110.675781 67.824219 110.402344 C 67.710938 110.128906 67.652344 109.84375 67.652344 109.546875 C 67.652344 109.265625 67.703125 108.992188 67.808594 108.726562 C 67.910156 108.464844 68.058594 108.230469 68.25 108.023438 C 68.445312 107.816406 68.667969 107.648438 68.925781 107.527344 C 69.179688 107.40625 69.449219 107.335938 69.730469 107.316406 Z M 78.667969 107.316406 C 78.71875 107.3125 78.773438 107.3125 78.824219 107.316406 C 79.121094 107.316406 79.40625 107.371094 79.679688 107.484375 C 79.953125 107.597656 80.195312 107.757812 80.40625 107.96875 C 80.613281 108.179688 80.773438 108.417969 80.886719 108.695312 C 81.003906 108.96875 81.058594 109.253906 81.058594 109.546875 C 81.058594 109.84375 81.003906 110.128906 80.886719 110.402344 C 80.773438 110.675781 80.613281 110.917969 80.40625 111.128906 C 80.195312 111.335938 79.953125 111.5 79.679688 111.613281 C 79.40625 111.726562 79.121094 111.78125 78.824219 111.78125 C 78.527344 111.78125 78.242188 111.726562 77.96875 111.613281 C 77.695312 111.5 77.453125 111.335938 77.246094 111.128906 C 77.035156 110.917969 76.875 110.675781 76.761719 110.402344 C 76.648438 110.128906 76.589844 109.84375 76.589844 109.546875 C 76.589844 109.265625 76.640625 108.992188 76.746094 108.726562 C 76.847656 108.464844 76.996094 108.230469 77.1875 108.023438 C 77.382812 107.816406 77.605469 107.648438 77.859375 107.527344 C 78.117188 107.40625 78.386719 107.335938 78.667969 107.316406 Z M 87.605469 107.316406 C 87.65625 107.3125 87.710938 107.3125 87.761719 107.316406 C 88.058594 107.316406 88.34375 107.371094 88.617188 107.484375 C 88.890625 107.597656 89.132812 107.757812 89.339844 107.96875 C 89.550781 108.179688 89.710938 108.417969 89.824219 108.695312 C 89.9375 108.96875 89.996094 109.253906 89.996094 109.546875 C 89.996094 109.84375 89.9375 110.128906 89.824219 110.402344 C 89.710938 110.675781 89.550781 110.917969 89.339844 111.128906 C 89.132812 111.335938 88.890625 111.5 88.617188 111.613281 C 88.34375 111.726562 88.058594 111.78125 87.761719 111.78125 C 87.464844 111.78125 87.179688 111.726562 86.90625 111.613281 C 86.632812 111.5 86.390625 111.335938 86.179688 111.128906 C 85.972656 110.917969 85.808594 110.675781 85.695312 110.402344 C 85.582031 110.128906 85.527344 109.84375 85.527344 109.546875 C 85.527344 109.265625 85.578125 108.992188 85.679688 108.726562 C 85.785156 108.464844 85.933594 108.230469 86.125 108.023438 C 86.316406 107.816406 86.542969 107.648438 86.796875 107.527344 C 87.050781 107.40625 87.320312 107.335938 87.605469 107.316406 Z M 71.964844 114.015625 C 72.019531 114.015625 72.070312 114.015625 72.121094 114.015625 C 72.417969 114.015625 72.703125 114.074219 72.976562 114.1875 C 73.25 114.300781 73.492188 114.460938 73.703125 114.671875 C 73.910156 114.882812 74.074219 115.121094 74.1875 115.394531 C 74.300781 115.667969 74.355469 115.957031 74.355469 116.25 C 74.355469 116.546875 74.300781 116.832031 74.1875 117.105469 C 74.074219 117.378906 73.910156 117.621094 73.703125 117.832031 C 73.492188 118.039062 73.25 118.203125 72.976562 118.316406 C 72.703125 118.429688 72.417969 118.484375 72.121094 118.484375 C 71.824219 118.484375 71.539062 118.429688 71.265625 118.316406 C 70.992188 118.203125 70.75 118.039062 70.542969 117.832031 C 70.332031 117.621094 70.171875 117.378906 70.058594 117.105469 C 69.945312 116.832031 69.886719 116.546875 69.886719 116.25 C 69.886719 115.96875 69.9375 115.695312 70.042969 115.429688 C 70.144531 115.167969 70.292969 114.933594 70.484375 114.726562 C 70.679688 114.515625 70.902344 114.351562 71.15625 114.230469 C 71.414062 114.109375 71.683594 114.039062 71.964844 114.015625 Z M 85.371094 114.015625 C 85.421875 114.015625 85.476562 114.015625 85.527344 114.015625 C 85.824219 114.015625 86.109375 114.074219 86.382812 114.1875 C 86.65625 114.300781 86.898438 114.460938 87.105469 114.671875 C 87.316406 114.882812 87.476562 115.121094 87.589844 115.394531 C 87.703125 115.667969 87.761719 115.957031 87.761719 116.25 C 87.761719 116.546875 87.703125 116.832031 87.589844 117.105469 C 87.476562 117.378906 87.316406 117.621094 87.105469 117.832031 C 86.898438 118.039062 86.65625 118.203125 86.382812 118.316406 C 86.109375 118.429688 85.824219 118.484375 85.527344 118.484375 C 85.230469 118.484375 84.945312 118.429688 84.671875 118.316406 C 84.398438 118.203125 84.15625 118.039062 83.949219 117.832031 C 83.738281 117.621094 83.578125 117.378906 83.464844 117.105469 C 83.347656 116.832031 83.292969 116.546875 83.292969 116.25 C 83.292969 115.96875 83.34375 115.695312 83.445312 115.429688 C 83.550781 115.167969 83.699219 114.933594 83.890625 114.726562 C 84.082031 114.515625 84.308594 114.351562 84.5625 114.230469 C 84.820312 114.109375 85.085938 114.039062 85.371094 114.015625 Z M 78.667969 116.25 C 78.71875 116.25 78.773438 116.25 78.824219 116.25 C 79.121094 116.25 79.40625 116.308594 79.679688 116.421875 C 79.953125 116.535156 80.195312 116.695312 80.40625 116.90625 C 80.613281 117.113281 80.773438 117.355469 80.886719 117.628906 C 81.003906 117.902344 81.058594 118.1875 81.058594 118.484375 C 81.058594 118.78125 81.003906 119.066406 80.886719 119.339844 C 80.773438 119.613281 80.613281 119.855469 80.40625 120.066406 C 80.195312 120.273438 79.953125 120.433594 79.679688 120.550781 C 79.40625 120.664062 79.121094 120.71875 78.824219 120.71875 C 78.527344 120.71875 78.242188 120.664062 77.96875 120.550781 C 77.695312 120.433594 77.453125 120.273438 77.246094 120.066406 C 77.035156 119.855469 76.875 119.613281 76.761719 119.339844 C 76.648438 119.066406 76.589844 118.78125 76.589844 118.484375 C 76.589844 118.203125 76.640625 117.929688 76.746094 117.664062 C 76.847656 117.402344 76.996094 117.167969 77.1875 116.957031 C 77.382812 116.75 77.605469 116.585938 77.859375 116.464844 C 78.117188 116.34375 78.386719 116.273438 78.667969 116.25 Z M 98.933594 137.476562 L 103.402344 137.476562 L 103.402344 146.414062 L 98.933594 146.414062 Z M 98.933594 137.476562 " fill-opacity="1" fill-rule="nonzero"/></g><g clip-path="url(#2beece1dfb)"><path fill="#000000" d="M 67.621094 26.300781 C 66.390625 26.300781 65.40625 27.328125 65.421875 28.558594 L 65.421875 79.945312 L 69.890625 79.945312 L 69.890625 28.558594 C 69.890625 27.300781 68.878906 26.28125 67.621094 26.300781 Z M 76.554688 33.003906 C 75.324219 33.003906 74.34375 34.03125 74.355469 35.261719 L 74.355469 79.945312 L 78.824219 79.945312 L 78.824219 35.261719 C 78.824219 34.003906 77.8125 32.984375 76.554688 33.003906 Z M 85.492188 39.707031 C 84.261719 39.707031 83.28125 40.734375 83.292969 41.964844 L 83.292969 79.945312 L 87.761719 79.945312 L 87.761719 41.964844 C 87.761719 40.707031 86.75 39.6875 85.492188 39.707031 Z M 94.429688 44.171875 C 93.199219 44.171875 92.214844 45.203125 92.230469 46.433594 L 92.230469 79.945312 L 96.699219 79.945312 L 96.699219 46.433594 C 96.699219 45.175781 95.6875 44.152344 94.429688 44.171875 Z M 103.367188 48.640625 C 102.136719 48.640625 101.152344 49.671875 101.167969 50.902344 L 101.167969 79.945312 L 105.636719 79.945312 L 105.636719 50.902344 C 105.636719 49.644531 104.625 48.621094 103.367188 48.640625 Z M 103.367188 48.640625 " fill-opacity="1" fill-rule="nonzero"/></g><path fill="#000000" d="M 113.457031 96.699219 L 113.457031 103.402344 L 117.921875 103.402344 L 117.921875 96.699219 Z M 113.457031 96.699219 " fill-opacity="1" fill-rule="nonzero"/><path fill="#000000" d="M 113.457031 114.570312 L 113.457031 121.273438 L 117.921875 121.273438 L 117.921875 114.570312 Z M 113.457031 114.570312 " fill-opacity="1" fill-rule="nonzero"/></svg>