<svg xmlns="http://www.w3.org/2000/svg" xmlns:xlink="http://www.w3.org/1999/xlink" width="240" zoomAndPan="magnify" viewBox="0 0 180 179.999997" height="240" preserveAspectRatio="xMidYMid meet" version="1.0"><defs><clipPath id="d758c52c5f"><path d="M 26.183594 26.324219 L 153.816406 26.324219 L 153.816406 153.675781 L 26.183594 153.675781 Z M 26.183594 26.324219 " clip-rule="nonzero"/></clipPath><clipPath id="4350842bfd"><path d="M 49.082031 13.542969 L 167.582031 13.542969 L 167.582031 137.292969 L 49.082031 137.292969 Z M 49.082031 13.542969 " clip-rule="nonzero"/></clipPath><clipPath id="e9d980eb3d"><path d="M 20 93 L 81 93 L 81 160 L 20 160 Z M 20 93 " clip-rule="nonzero"/></clipPath><clipPath id="1474e63219"><path d="M 51.125 87.375 L 100.941406 131.800781 L 65.5 171.542969 L 15.683594 127.117188 Z M 51.125 87.375 " clip-rule="nonzero"/></clipPath><clipPath id="858278963f"><path d="M 51.125 87.375 L 100.941406 131.800781 L 65.5 171.542969 L 15.683594 127.117188 Z M 51.125 87.375 " clip-rule="nonzero"/></clipPath><clipPath id="98bfcf0999"><path d="M 26 117 L 58 117 L 58 151 L 26 151 Z M 26 117 " clip-rule="nonzero"/></clipPath><clipPath id="937fed0df2"><path d="M 42.269531 113.792969 L 68.019531 136.753906 L 49.550781 157.464844 L 23.800781 134.503906 Z M 42.269531 113.792969 " clip-rule="nonzero"/></clipPath><clipPath id="b66974226b"><path d="M 42.269531 113.792969 L 68.019531 136.753906 L 49.550781 157.464844 L 23.800781 134.503906 Z M 42.269531 113.792969 " clip-rule="nonzero"/></clipPath></defs><path fill="#a9bab4" d="M 18 18 L 162 18 L 162 162 L 18 162 Z M 18 18 " fill-opacity="1" fill-rule="nonzero"/><g clip-path="url(#d758c52c5f)"><path fill="#50665a" d="M 26.183594 26.324219 L 154.027344 26.324219 L 154.027344 153.675781 L 26.183594 153.675781 Z M 26.183594 26.324219 " fill-opacity="1" fill-rule="nonzero"/></g><g clip-path="url(#4350842bfd)"><path fill="#000000" d="M 76.28125 36.484375 L 81.910156 42.125 C 82.746094 42.964844 83.78125 43.320312 84.957031 43.171875 L 93.160156 42.144531 C 95.054688 41.90625 96.828125 42.519531 98.179688 43.871094 L 101.507812 47.210938 C 101.609375 47.3125 101.777344 47.3125 101.878906 47.210938 L 105.195312 43.925781 C 106.464844 42.667969 107.859375 41.605469 109.324219 41.042969 C 109.410156 41.011719 109.46875 40.941406 109.488281 40.851562 C 109.507812 40.761719 109.480469 40.675781 109.417969 40.609375 L 105.425781 36.605469 C 104.074219 35.253906 103.464844 33.476562 103.703125 31.574219 L 104.726562 23.351562 C 104.875 22.175781 104.519531 21.132812 103.679688 20.292969 L 98.054688 14.65625 C 97.292969 13.890625 96.386719 13.535156 95.3125 13.578125 L 87.046875 13.910156 C 86.9375 13.914062 86.847656 13.976562 86.808594 14.078125 C 86.769531 14.179688 86.792969 14.285156 86.871094 14.363281 L 95.242188 22.757812 L 95.242188 22.761719 C 95.464844 22.984375 95.597656 23.296875 95.585938 23.636719 L 95.292969 32.566406 C 95.273438 33.1875 94.777344 33.695312 94.148438 33.714844 L 85.351562 34.003906 C 85.34375 34.003906 85.339844 34.007812 85.332031 34.007812 C 84.988281 34.042969 84.628906 33.929688 84.363281 33.664062 L 75.992188 25.269531 C 75.914062 25.191406 75.808594 25.171875 75.707031 25.210938 C 75.609375 25.25 75.542969 25.339844 75.539062 25.445312 L 75.207031 33.734375 C 75.164062 34.808594 75.519531 35.71875 76.28125 36.484375 Z M 85.539062 76.753906 C 88.984375 72.5 92.742188 67.867188 92.605469 65.949219 C 92.566406 65.425781 92.546875 64.902344 92.546875 64.386719 C 92.546875 64.261719 92.46875 64.160156 92.351562 64.128906 L 89.847656 63.457031 C 89.734375 63.425781 89.621094 63.46875 89.558594 63.566406 L 84.621094 71.183594 C 84.304688 71.675781 83.777344 72.019531 83.152344 72.078125 C 80.335938 72.347656 76.824219 73.21875 74.253906 74.449219 C 74.253906 74.449219 74.25 74.453125 74.25 74.453125 C 73.707031 74.726562 73.042969 74.746094 72.460938 74.449219 L 64.398438 70.332031 C 64.292969 70.277344 64.171875 70.296875 64.089844 70.378906 L 56.007812 78.480469 C 55.925781 78.5625 55.90625 78.683594 55.960938 78.789062 L 60.070312 86.875 L 60.066406 86.875 C 60.328125 87.390625 60.363281 88.019531 60.109375 88.585938 C 58.859375 91.355469 57.972656 94.5625 57.707031 97.5625 C 57.65625 98.15625 57.347656 98.71875 56.8125 99.066406 L 49.214844 104.015625 C 49.117188 104.078125 49.074219 104.191406 49.101562 104.304688 L 52.0625 115.378906 C 52.09375 115.492188 52.1875 115.570312 52.304688 115.574219 L 61.210938 116.042969 C 61.214844 116.042969 61.21875 116.042969 61.226562 116.042969 C 61.847656 116.039062 62.460938 116.328125 62.851562 116.871094 C 64.675781 119.421875 66.886719 121.640625 69.429688 123.46875 L 69.425781 123.46875 C 69.898438 123.808594 70.21875 124.351562 70.25 124.980469 L 70.722656 134.042969 C 70.730469 134.15625 70.804688 134.253906 70.917969 134.285156 L 81.964844 137.25 C 82.078125 137.28125 82.191406 137.238281 82.253906 137.140625 L 87.191406 129.519531 C 87.507812 129.03125 88.035156 128.6875 88.660156 128.628906 C 91.472656 128.359375 94.988281 127.488281 97.558594 126.257812 C 97.558594 126.253906 97.5625 126.253906 97.5625 126.253906 C 98.105469 125.980469 98.769531 125.960938 99.351562 126.257812 L 107.414062 130.375 C 107.519531 130.429688 107.640625 130.410156 107.722656 130.328125 L 115.804688 122.226562 C 115.886719 122.144531 115.90625 122.023438 115.851562 121.917969 L 111.746094 113.835938 C 111.484375 113.316406 111.449219 112.691406 111.707031 112.121094 C 112.957031 109.351562 113.84375 106.144531 114.109375 103.140625 C 114.15625 102.550781 114.46875 101.988281 115 101.640625 L 122.597656 96.691406 C 122.695312 96.628906 122.738281 96.515625 122.710938 96.402344 L 121.449219 91.683594 C 121.410156 91.546875 121.277344 91.464844 121.140625 91.492188 C 117.539062 92.222656 111.769531 93.214844 110.699219 94.46875 L 108.589844 96.9375 C 108.539062 96.996094 108.519531 97.070312 108.527344 97.148438 C 110.460938 110.886719 99.851562 123.261719 85.90625 123.261719 C 73.285156 123.261719 63.054688 113.003906 63.054688 100.351562 C 63.054688 88.078125 72.683594 78.039062 84.839844 77.476562 C 84.917969 77.472656 84.984375 77.441406 85.03125 77.378906 Z M 143.609375 75.660156 C 143.445312 75.90625 143.257812 76.132812 143.050781 76.339844 L 136.996094 82.414062 C 136.890625 82.515625 136.890625 82.683594 136.996094 82.785156 L 140.9375 86.738281 C 141.25 87.054688 141.375 87.535156 141.214844 87.980469 C 138.070312 96.8125 144.582031 106.175781 153.996094 106.175781 C 161.492188 106.175781 167.570312 100.085938 167.570312 92.570312 C 167.570312 86.21875 163.175781 80.683594 156.988281 79.289062 C 154.5 78.730469 151.882812 78.878906 149.457031 79.742188 C 149.453125 79.742188 149.453125 79.742188 149.449219 79.746094 C 149.023438 79.910156 148.523438 79.820312 148.183594 79.476562 L 144.1875 75.46875 C 144.101562 75.382812 143.964844 75.367188 143.859375 75.433594 C 143.75 75.503906 143.691406 75.539062 143.609375 75.660156 Z M 149.441406 88 C 150.699219 86.742188 152.347656 86.109375 153.996094 86.109375 L 153.996094 86.113281 C 157.5625 86.113281 160.4375 89.003906 160.4375 92.570312 L 160.433594 92.570312 C 160.433594 98.324219 153.480469 101.183594 149.441406 97.136719 C 146.925781 94.613281 146.925781 90.523438 149.441406 88 Z M 144.082031 61.804688 L 138.03125 67.871094 C 137.019531 68.894531 137.019531 70.582031 138.042969 71.605469 C 138.664062 72.230469 139.207031 72.613281 140.144531 72.613281 C 140.820312 72.613281 141.5 72.355469 142.011719 71.839844 L 148.050781 65.785156 C 149.78125 64.050781 148.597656 60.988281 146.066406 60.988281 C 145.34375 60.988281 144.625 61.261719 144.082031 61.804688 Z M 137.460938 53.148438 C 138.121094 52.484375 138.996094 52.152344 139.875 52.152344 C 142.949219 52.152344 144.398438 55.875 142.289062 57.988281 L 132.402344 67.898438 C 131.742188 68.5625 130.867188 68.894531 129.988281 68.894531 C 127.046875 68.894531 125.542969 65.457031 127.367188 63.277344 C 127.371094 63.269531 127.375 63.265625 127.382812 63.257812 L 129.542969 61.09375 C 129.757812 60.878906 129.96875 60.652344 130.183594 60.414062 L 130.199219 60.429688 Z M 129.832031 45.503906 L 124.492188 50.855469 C 124.390625 50.960938 124.390625 51.128906 124.492188 51.230469 L 128.945312 55.695312 C 129.046875 55.800781 129.214844 55.800781 129.320312 55.695312 L 134.660156 50.34375 C 136.769531 48.226562 135.320312 44.507812 132.246094 44.507812 C 131.371094 44.507812 130.496094 44.839844 129.832031 45.503906 Z M 116.863281 43.582031 C 116.761719 43.480469 116.761719 43.3125 116.863281 43.210938 L 122.203125 37.855469 C 122.867188 37.191406 123.742188 36.859375 124.617188 36.859375 C 127.691406 36.859375 129.140625 40.582031 127.03125 42.695312 L 121.691406 48.050781 C 121.589844 48.152344 121.421875 48.152344 121.316406 48.050781 Z M 107.964844 46.75 C 108.976562 45.746094 110.027344 44.941406 110.988281 44.664062 C 111.628906 44.480469 112.28125 44.605469 112.90625 45.230469 L 126.128906 58.488281 C 126.183594 58.542969 126.210938 58.609375 126.207031 58.6875 C 126.203125 58.765625 126.171875 58.828125 126.113281 58.878906 C 124.261719 60.445312 122.390625 60.871094 120.507812 60.453125 C 117.820312 59.863281 114.929688 57.691406 111.929688 54.65625 C 110.480469 53.191406 108.035156 54.675781 108.644531 56.640625 L 108.640625 56.640625 C 110.9375 64 110.410156 70.679688 104.941406 76.128906 C 104.167969 76.898438 104.164062 78.152344 104.933594 78.925781 C 105.703125 79.703125 106.953125 79.707031 107.726562 78.933594 C 112.484375 74.195312 114.347656 68.429688 113.769531 62.027344 C 113.761719 61.925781 113.808594 61.828125 113.902344 61.777344 C 113.992188 61.722656 114.097656 61.726562 114.183594 61.785156 C 116.71875 63.53125 119.488281 64.710938 122.378906 64.582031 C 122.457031 64.578125 122.527344 64.605469 122.582031 64.664062 C 122.632812 64.71875 122.660156 64.789062 122.652344 64.867188 C 122.15625 70.699219 128.316406 74.707031 133.40625 72.03125 C 133.472656 71.996094 133.546875 71.992188 133.621094 72.019531 C 133.691406 72.042969 133.746094 72.09375 133.773438 72.167969 C 134.410156 73.769531 135.777344 75.214844 137.335938 75.957031 C 137.414062 75.996094 137.46875 76.0625 137.480469 76.152344 C 137.496094 76.238281 137.472656 76.320312 137.410156 76.382812 L 131.726562 82.082031 C 129.597656 84.214844 127.433594 85.578125 124.605469 86.566406 C 120.339844 88.058594 110.453125 88.667969 107.695312 91.894531 L 84.4375 119.125 C 84.382812 119.191406 84.300781 119.226562 84.214844 119.21875 C 76.351562 118.511719 69.714844 112.953125 67.660156 105.277344 C 67.640625 105.191406 67.65625 105.109375 67.710938 105.039062 L 88.601562 79.253906 C 92.527344 74.410156 96.800781 69.136719 96.550781 65.671875 C 96.210938 61.019531 97.714844 56.90625 101.027344 53.625 Z M 107.964844 46.75 " fill-opacity="1" fill-rule="evenodd"/></g><g clip-path="url(#e9d980eb3d)"><g clip-path="url(#1474e63219)"><g clip-path="url(#858278963f)"><path fill="#ffffff" d="M 62.117188 143.132812 L 76.515625 131.828125 L 54.625 137.152344 L 74.941406 108.613281 L 41.988281 128.5625 L 58.4375 93.898438 L 31.046875 125.921875 L 33.054688 108.234375 L 20.527344 131.703125 L 26.828125 137.324219 L 32.671875 126.324219 L 31.667969 134.640625 L 44.496094 119.605469 L 36.792969 135.828125 L 52.226562 126.5 L 42.691406 139.804688 L 52.910156 137.371094 L 46.242188 142.625 L 54.679688 147.8125 L 41.382812 150.300781 L 51.644531 159.457031 L 80.261719 154.179688 Z M 62.117188 143.132812 " fill-opacity="1" fill-rule="nonzero"/></g></g></g><g clip-path="url(#98bfcf0999)"><g clip-path="url(#937fed0df2)"><g clip-path="url(#b66974226b)"><path fill="#a9bab4" d="M 47.921875 142.449219 L 55.320312 136.640625 L 44.070312 139.375 L 54.511719 124.707031 L 37.574219 134.960938 L 46.03125 117.144531 L 31.953125 133.601562 L 32.984375 124.511719 L 26.546875 136.574219 L 29.785156 139.460938 L 32.789062 133.808594 L 32.273438 138.085938 L 38.863281 130.355469 L 34.90625 138.695312 L 42.835938 133.898438 L 37.9375 140.738281 L 43.1875 139.488281 L 39.761719 142.1875 L 44.097656 144.855469 L 37.261719 146.132812 L 42.539062 150.835938 L 57.246094 148.125 Z M 47.921875 142.449219 " fill-opacity="1" fill-rule="nonzero"/></g></g></g></svg>