<svg xmlns="http://www.w3.org/2000/svg" xmlns:xlink="http://www.w3.org/1999/xlink" width="240" zoomAndPan="magnify" viewBox="0 0 180 179.999997" height="240" preserveAspectRatio="xMidYMid meet" version="1.0"><defs><clipPath id="397a9fdd62"><path d="M 26.183594 26.324219 L 153.816406 26.324219 L 153.816406 153.675781 L 26.183594 153.675781 Z M 26.183594 26.324219 " clip-rule="nonzero"/></clipPath><clipPath id="dfb272ecbc"><path d="M 77 112 L 114 112 L 114 147.4375 L 77 147.4375 Z M 77 112 " clip-rule="nonzero"/></clipPath><clipPath id="22854d43b6"><path d="M 2.011719 16.1875 L 38 16.1875 L 38 52 L 2.011719 52 Z M 2.011719 16.1875 " clip-rule="nonzero"/></clipPath><clipPath id="d2362340d1"><path d="M 52 16.1875 L 128.761719 16.1875 L 128.761719 93 L 52 93 Z M 52 16.1875 " clip-rule="nonzero"/></clipPath><clipPath id="7c6d34828e"><path d="M 85 118 L 108 118 L 108 139.914062 L 85 139.914062 Z M 85 118 " clip-rule="nonzero"/></clipPath><clipPath id="72342dcafa"><path d="M 58 59 L 134.769531 59 L 134.769531 106 L 58 106 Z M 58 59 " clip-rule="nonzero"/></clipPath><clipPath id="833b16bb26"><path d="M 45.519531 84 L 83 84 L 83 128 L 45.519531 128 Z M 45.519531 84 " clip-rule="nonzero"/></clipPath><clipPath id="ccb533d9d0"><path d="M 69 40.164062 L 124 40.164062 L 124 59 L 69 59 Z M 69 40.164062 " clip-rule="nonzero"/></clipPath></defs><path fill="#a9bab4" d="M 18 18 L 162 18 L 162 162 L 18 162 Z M 18 18 " fill-opacity="1" fill-rule="nonzero"/><g clip-path="url(#397a9fdd62)"><path fill="#50665a" d="M 26.183594 26.324219 L 154.027344 26.324219 L 154.027344 153.675781 L 26.183594 153.675781 Z M 26.183594 26.324219 " fill-opacity="1" fill-rule="nonzero"/></g><g clip-path="url(#dfb272ecbc)"><path fill="#ffffff" d="M 95.589844 112.3125 C 85.8125 112.3125 77.886719 120.246094 77.886719 130.015625 C 77.886719 139.800781 85.8125 147.722656 95.589844 147.722656 C 105.367188 147.722656 113.292969 139.800781 113.292969 130.015625 C 113.292969 120.246094 105.367188 112.3125 95.589844 112.3125 Z M 95.589844 142.664062 C 88.613281 142.664062 82.945312 136.992188 82.945312 130.015625 C 82.945312 123.042969 88.613281 117.371094 95.589844 117.371094 C 102.566406 117.371094 108.234375 123.042969 108.234375 130.015625 C 108.234375 136.992188 102.566406 142.664062 95.589844 142.664062 Z M 95.589844 142.664062 " fill-opacity="1" fill-rule="nonzero"/></g><g clip-path="url(#22854d43b6)"><path fill="#ffffff" d="M 19.714844 16.207031 C 9.9375 16.207031 2.011719 24.136719 2.011719 33.910156 C 2.011719 43.691406 9.9375 51.613281 19.714844 51.613281 C 29.492188 51.613281 37.417969 43.691406 37.417969 33.910156 C 37.417969 24.136719 29.492188 16.207031 19.714844 16.207031 Z M 19.714844 46.554688 C 12.742188 46.554688 7.070312 40.886719 7.070312 33.910156 C 7.070312 26.933594 12.742188 21.265625 19.714844 21.265625 C 26.691406 21.265625 32.359375 26.933594 32.359375 33.910156 C 32.359375 40.886719 26.691406 46.554688 19.714844 46.554688 Z M 19.714844 46.554688 " fill-opacity="1" fill-rule="nonzero"/></g><path fill="#ffffff" d="M 55.125 117.371094 C 42.574219 117.371094 32.359375 107.164062 32.359375 94.609375 C 32.359375 83.277344 40.707031 73.929688 51.566406 72.210938 C 50.835938 70.628906 50.171875 69.007812 49.628906 67.339844 C 36.914062 69.898438 27.304688 81.152344 27.304688 94.609375 C 27.304688 109.949219 39.785156 122.429688 55.125 122.429688 C 69.851562 122.429688 81.917969 110.914062 82.851562 96.414062 C 81.144531 96.097656 79.453125 95.722656 77.824219 95.222656 C 77.492188 107.484375 67.464844 117.371094 55.125 117.371094 Z M 55.125 117.371094 " fill-opacity="1" fill-rule="nonzero"/><path fill="#ffffff" d="M 37.417969 94.609375 C 37.417969 96.011719 38.550781 97.136719 39.949219 97.136719 C 41.34375 97.136719 42.476562 96.011719 42.476562 94.609375 C 42.476562 87.632812 48.148438 81.964844 55.125 81.964844 C 55.902344 81.964844 56.574219 81.589844 57.039062 81.03125 C 56.003906 79.757812 55.0625 78.398438 54.183594 77 C 44.867188 77.507812 37.417969 85.175781 37.417969 94.609375 Z M 37.417969 94.609375 " fill-opacity="1" fill-rule="nonzero"/><g clip-path="url(#d2362340d1)"><path fill="#ffffff" d="M 90.53125 16.207031 C 69.574219 16.207031 52.59375 33.1875 52.59375 54.144531 C 52.59375 75.097656 69.574219 92.082031 90.53125 92.082031 C 111.488281 92.082031 128.46875 75.097656 128.46875 54.144531 C 128.46875 33.1875 111.488281 16.207031 90.53125 16.207031 Z M 90.53125 87.023438 C 72.402344 87.023438 57.652344 72.273438 57.652344 54.144531 C 57.652344 36.015625 72.402344 21.265625 90.53125 21.265625 C 108.660156 21.265625 123.410156 36.015625 123.410156 54.144531 C 123.410156 72.273438 108.660156 87.023438 90.53125 87.023438 Z M 90.53125 87.023438 " fill-opacity="1" fill-rule="nonzero"/></g><path fill="#ffffff" d="M 65.238281 56.671875 C 63.84375 56.671875 62.710938 55.542969 62.710938 54.144531 C 62.710938 38.800781 75.191406 26.324219 90.53125 26.324219 C 91.925781 26.324219 93.0625 27.460938 93.0625 28.851562 C 93.0625 30.253906 91.925781 31.378906 90.53125 31.378906 C 77.980469 31.378906 67.769531 41.59375 67.769531 54.144531 C 67.769531 55.542969 66.636719 56.671875 65.238281 56.671875 Z M 65.238281 56.671875 " fill-opacity="1" fill-rule="nonzero"/><g clip-path="url(#7c6d34828e)"><path fill="#000000" d="M 107.273438 128.910156 C 107.273438 129.617188 107.203125 130.320312 107.0625 131.015625 C 106.925781 131.707031 106.71875 132.382812 106.449219 133.039062 C 106.175781 133.691406 105.84375 134.3125 105.449219 134.902344 C 105.054688 135.492188 104.605469 136.035156 104.105469 136.535156 C 103.601562 137.039062 103.054688 137.484375 102.464844 137.878906 C 101.875 138.273438 101.253906 138.605469 100.597656 138.875 C 99.941406 139.144531 99.265625 139.351562 98.566406 139.488281 C 97.871094 139.625 97.167969 139.695312 96.457031 139.695312 C 95.75 139.695312 95.046875 139.625 94.347656 139.488281 C 93.652344 139.351562 92.976562 139.144531 92.320312 138.875 C 91.664062 138.605469 91.042969 138.273438 90.449219 137.878906 C 89.859375 137.484375 89.316406 137.039062 88.8125 136.535156 C 88.308594 136.035156 87.863281 135.492188 87.46875 134.902344 C 87.074219 134.3125 86.738281 133.691406 86.46875 133.039062 C 86.195312 132.382812 85.992188 131.707031 85.851562 131.015625 C 85.714844 130.320312 85.644531 129.617188 85.644531 128.910156 C 85.644531 128.203125 85.714844 127.5 85.851562 126.804688 C 85.992188 126.109375 86.195312 125.4375 86.46875 124.78125 C 86.738281 124.128906 87.074219 123.503906 87.46875 122.917969 C 87.863281 122.328125 88.308594 121.78125 88.8125 121.28125 C 89.316406 120.78125 89.859375 120.335938 90.449219 119.941406 C 91.042969 119.546875 91.664062 119.214844 92.320312 118.945312 C 92.976562 118.671875 93.652344 118.46875 94.347656 118.332031 C 95.046875 118.191406 95.75 118.121094 96.457031 118.121094 C 97.167969 118.121094 97.871094 118.191406 98.566406 118.332031 C 99.265625 118.46875 99.941406 118.671875 100.597656 118.945312 C 101.253906 119.214844 101.875 119.546875 102.464844 119.941406 C 103.054688 120.335938 103.601562 120.78125 104.105469 121.28125 C 104.605469 121.78125 105.054688 122.328125 105.449219 122.917969 C 105.84375 123.503906 106.175781 124.128906 106.449219 124.78125 C 106.71875 125.4375 106.925781 126.109375 107.0625 126.804688 C 107.203125 127.5 107.273438 128.203125 107.273438 128.910156 Z M 107.273438 128.910156 " fill-opacity="1" fill-rule="nonzero"/></g><path fill="#000000" d="M 123.730469 106.355469 C 119.917969 108.3125 115.867188 109.292969 111.578125 109.292969 L 101.453125 109.292969 C 101.214844 109.292969 100.988281 109.25 100.773438 109.160156 C 100.554688 109.070312 100.363281 108.941406 100.195312 108.773438 C 100.027344 108.609375 99.898438 108.417969 99.808594 108.199219 C 99.71875 107.980469 99.675781 107.757812 99.675781 107.519531 L 99.675781 101.953125 C 99.675781 101.601562 99.605469 101.265625 99.472656 100.941406 C 99.335938 100.617188 99.144531 100.332031 98.898438 100.082031 C 98.648438 99.835938 98.363281 99.644531 98.035156 99.511719 C 97.710938 99.375 97.375 99.308594 97.023438 99.308594 L 95.875 99.308594 C 95.523438 99.308594 95.1875 99.378906 94.863281 99.511719 C 94.542969 99.648438 94.257812 99.839844 94.011719 100.089844 C 93.765625 100.335938 93.574219 100.621094 93.441406 100.945312 C 93.308594 101.269531 93.242188 101.605469 93.242188 101.953125 L 93.242188 107.515625 C 93.242188 107.753906 93.199219 107.980469 93.109375 108.195312 C 93.019531 108.414062 92.890625 108.605469 92.722656 108.769531 C 92.554688 108.9375 92.363281 109.066406 92.148438 109.15625 C 91.929688 109.246094 91.703125 109.289062 91.464844 109.289062 L 81.316406 109.289062 C 77.035156 109.289062 72.988281 108.308594 69.183594 106.355469 C 69.777344 108.113281 70.546875 109.792969 71.484375 111.398438 C 72.425781 113 73.519531 114.492188 74.765625 115.871094 C 76.011719 117.25 77.382812 118.492188 78.882812 119.589844 C 80.382812 120.691406 81.980469 121.628906 83.671875 122.402344 C 84.273438 121.226562 85.019531 120.152344 85.917969 119.179688 C 86.816406 118.210938 87.828125 117.378906 88.957031 116.6875 C 90.085938 115.996094 91.289062 115.472656 92.5625 115.113281 C 93.835938 114.753906 95.136719 114.574219 96.460938 114.574219 C 97.785156 114.574219 99.082031 114.753906 100.355469 115.113281 C 101.632812 115.472656 102.832031 115.996094 103.960938 116.6875 C 105.089844 117.378906 106.101562 118.210938 107 119.179688 C 107.898438 120.152344 108.648438 121.226562 109.246094 122.402344 C 110.9375 121.628906 112.535156 120.691406 114.035156 119.59375 C 115.535156 118.492188 116.90625 117.253906 118.152344 115.871094 C 119.398438 114.492188 120.492188 113 121.429688 111.398438 C 122.371094 109.796875 123.136719 108.113281 123.730469 106.355469 Z M 123.730469 106.355469 " fill-opacity="1" fill-rule="nonzero"/><g clip-path="url(#72342dcafa)"><path fill="#000000" d="M 134.769531 82.625 C 134.769531 81.867188 134.730469 81.109375 134.65625 80.355469 C 134.582031 79.601562 134.46875 78.855469 134.320312 78.113281 C 134.171875 77.367188 133.988281 76.632812 133.769531 75.910156 C 133.546875 75.183594 133.292969 74.472656 133 73.773438 C 132.710938 73.074219 132.386719 72.386719 132.027344 71.71875 C 131.667969 71.050781 131.277344 70.402344 130.855469 69.773438 C 130.433594 69.144531 129.984375 68.535156 129.5 67.949219 C 129.019531 67.363281 128.507812 66.804688 127.972656 66.265625 C 127.4375 65.730469 126.875 65.222656 126.285156 64.742188 C 125.699219 64.261719 125.089844 63.808594 124.460938 63.390625 C 123.828125 62.96875 123.175781 62.578125 122.507812 62.222656 C 121.839844 61.863281 121.152344 61.539062 120.449219 61.25 C 119.75 60.957031 119.035156 60.703125 118.308594 60.484375 C 117.582031 60.261719 116.847656 60.078125 116.101562 59.929688 C 115.355469 59.78125 114.605469 59.667969 113.851562 59.59375 C 113.09375 59.519531 112.335938 59.480469 111.578125 59.480469 L 81.316406 59.480469 C 80.558594 59.480469 79.800781 59.515625 79.046875 59.589844 C 78.289062 59.664062 77.539062 59.777344 76.792969 59.925781 C 76.050781 60.074219 75.3125 60.257812 74.585938 60.476562 C 73.859375 60.695312 73.144531 60.949219 72.445312 61.242188 C 71.742188 61.53125 71.054688 61.855469 70.386719 62.210938 C 69.71875 62.570312 69.066406 62.957031 68.433594 63.378906 C 67.804688 63.800781 67.195312 64.25 66.605469 64.730469 C 66.019531 65.210938 65.457031 65.71875 64.921875 66.253906 C 64.382812 66.789062 63.875 67.351562 63.394531 67.9375 C 62.910156 68.523438 62.457031 69.128906 62.035156 69.761719 C 61.613281 70.390625 61.226562 71.039062 60.867188 71.707031 C 60.507812 72.375 60.183594 73.058594 59.894531 73.761719 C 59.601562 74.460938 59.347656 75.171875 59.128906 75.898438 C 58.90625 76.621094 58.722656 77.355469 58.574219 78.097656 C 58.425781 78.84375 58.316406 79.589844 58.242188 80.34375 C 58.167969 81.097656 58.128906 81.855469 58.128906 82.613281 C 58.128906 83.371094 58.167969 84.125 58.242188 84.878906 C 58.316406 85.632812 58.425781 86.382812 58.574219 87.125 C 58.722656 87.867188 58.90625 88.601562 59.128906 89.328125 C 59.347656 90.050781 59.601562 90.765625 59.894531 91.464844 C 60.183594 92.164062 60.507812 92.847656 60.867188 93.515625 C 61.226562 94.183594 61.613281 94.832031 62.035156 95.464844 C 62.457031 96.09375 62.910156 96.699219 63.394531 97.285156 C 63.875 97.871094 64.382812 98.433594 64.921875 98.96875 C 65.457031 99.503906 66.019531 100.011719 66.605469 100.492188 C 67.195312 100.972656 67.804688 101.425781 68.433594 101.84375 C 69.066406 102.265625 69.71875 102.65625 70.386719 103.011719 C 71.054688 103.371094 71.742188 103.691406 72.445312 103.984375 C 73.144531 104.273438 73.859375 104.527344 74.585938 104.746094 C 75.3125 104.96875 76.050781 105.152344 76.792969 105.300781 C 77.539062 105.445312 78.289062 105.558594 79.046875 105.632812 C 79.800781 105.707031 80.558594 105.742188 81.316406 105.742188 L 89.6875 105.742188 L 89.6875 101.953125 C 89.6875 101.546875 89.726562 101.144531 89.804688 100.75 C 89.886719 100.351562 90.003906 99.964844 90.15625 99.589844 C 90.3125 99.214844 90.503906 98.855469 90.726562 98.519531 C 90.953125 98.179688 91.210938 97.867188 91.496094 97.582031 C 91.785156 97.292969 92.097656 97.035156 92.433594 96.8125 C 92.773438 96.585938 93.128906 96.394531 93.503906 96.238281 C 93.878906 96.082031 94.265625 95.964844 94.664062 95.882812 C 95.0625 95.800781 95.464844 95.761719 95.875 95.761719 L 97.023438 95.761719 C 97.429688 95.761719 97.832031 95.800781 98.230469 95.882812 C 98.632812 95.960938 99.019531 96.078125 99.394531 96.234375 C 99.773438 96.390625 100.128906 96.582031 100.46875 96.808594 C 100.804688 97.035156 101.121094 97.292969 101.40625 97.578125 C 101.695312 97.867188 101.953125 98.179688 102.179688 98.515625 C 102.40625 98.855469 102.597656 99.210938 102.753906 99.585938 C 102.910156 99.960938 103.027344 100.347656 103.109375 100.746094 C 103.1875 101.144531 103.230469 101.546875 103.230469 101.953125 L 103.230469 105.742188 L 111.585938 105.742188 C 112.34375 105.742188 113.101562 105.703125 113.859375 105.628906 C 114.613281 105.554688 115.363281 105.441406 116.105469 105.292969 C 116.851562 105.144531 117.585938 104.960938 118.3125 104.742188 C 119.039062 104.519531 119.75 104.265625 120.453125 103.976562 C 121.152344 103.6875 121.839844 103.363281 122.507812 103.003906 C 123.175781 102.648438 123.828125 102.257812 124.457031 101.839844 C 125.089844 101.417969 125.695312 100.96875 126.285156 100.488281 C 126.871094 100.007812 127.433594 99.5 127.96875 98.964844 C 128.503906 98.429688 129.015625 97.867188 129.496094 97.285156 C 129.976562 96.699219 130.429688 96.089844 130.851562 95.460938 C 131.273438 94.832031 131.664062 94.183594 132.023438 93.515625 C 132.378906 92.851562 132.703125 92.167969 132.996094 91.46875 C 133.285156 90.769531 133.542969 90.058594 133.761719 89.332031 C 133.984375 88.609375 134.167969 87.875 134.320312 87.132812 C 134.46875 86.390625 134.578125 85.644531 134.65625 84.890625 C 134.730469 84.136719 134.769531 83.382812 134.769531 82.625 Z M 111.460938 100.589844 L 108.914062 100.589844 C 108.679688 100.589844 108.453125 100.546875 108.234375 100.453125 C 108.015625 100.363281 107.824219 100.238281 107.65625 100.070312 C 107.492188 99.90625 107.363281 99.710938 107.273438 99.496094 C 107.179688 99.277344 107.136719 99.050781 107.136719 98.816406 L 107.136719 98.355469 C 107.136719 97.65625 107.066406 96.964844 106.929688 96.277344 C 106.792969 95.59375 106.59375 94.925781 106.324219 94.28125 C 106.054688 93.636719 105.726562 93.019531 105.335938 92.4375 C 104.949219 91.859375 104.503906 91.320312 104.007812 90.824219 C 103.511719 90.332031 102.972656 89.890625 102.390625 89.5 C 101.808594 89.113281 101.191406 88.785156 100.542969 88.515625 C 99.898438 88.25 99.230469 88.046875 98.542969 87.910156 C 97.855469 87.773438 97.160156 87.707031 96.457031 87.707031 C 95.757812 87.707031 95.0625 87.773438 94.375 87.910156 C 93.6875 88.046875 93.019531 88.25 92.371094 88.515625 C 91.722656 88.785156 91.109375 89.113281 90.527344 89.5 C 89.941406 89.890625 89.402344 90.332031 88.90625 90.824219 C 88.414062 91.320312 87.96875 91.859375 87.578125 92.4375 C 87.191406 93.019531 86.863281 93.636719 86.59375 94.28125 C 86.324219 94.925781 86.121094 95.59375 85.984375 96.277344 C 85.847656 96.964844 85.78125 97.65625 85.78125 98.355469 L 85.78125 98.816406 C 85.78125 99.050781 85.734375 99.277344 85.644531 99.496094 C 85.554688 99.710938 85.425781 99.90625 85.257812 100.070312 C 85.09375 100.238281 84.902344 100.363281 84.683594 100.453125 C 84.464844 100.546875 84.238281 100.589844 84.003906 100.589844 L 81.453125 100.589844 C 80.867188 100.585938 80.285156 100.550781 79.699219 100.488281 C 79.117188 100.425781 78.539062 100.332031 77.964844 100.214844 C 77.390625 100.09375 76.824219 99.949219 76.261719 99.773438 C 75.703125 99.601562 75.152344 99.398438 74.613281 99.171875 C 74.074219 98.941406 73.546875 98.6875 73.03125 98.410156 C 72.515625 98.128906 72.015625 97.828125 71.527344 97.5 C 71.042969 97.171875 70.574219 96.820312 70.121094 96.445312 C 69.671875 96.074219 69.238281 95.679688 68.828125 95.261719 C 68.414062 94.847656 68.023438 94.410156 67.652344 93.957031 C 67.28125 93.503906 66.9375 93.03125 66.613281 92.546875 C 66.289062 92.058594 65.988281 91.554688 65.714844 91.039062 C 65.4375 90.523438 65.1875 89.992188 64.964844 89.453125 C 64.742188 88.910156 64.546875 88.359375 64.378906 87.800781 C 64.207031 87.238281 64.066406 86.671875 63.953125 86.097656 C 63.839844 85.523438 63.753906 84.945312 63.695312 84.363281 C 63.640625 83.78125 63.613281 83.199219 63.613281 82.613281 C 63.613281 82.027344 63.640625 81.445312 63.695312 80.863281 C 63.753906 80.28125 63.839844 79.703125 63.953125 79.128906 C 64.066406 78.554688 64.207031 77.988281 64.378906 77.425781 C 64.546875 76.867188 64.742188 76.316406 64.964844 75.773438 C 65.1875 75.234375 65.4375 74.703125 65.714844 74.1875 C 65.988281 73.671875 66.289062 73.167969 66.613281 72.679688 C 66.9375 72.191406 67.28125 71.722656 67.652344 71.269531 C 68.023438 70.8125 68.414062 70.378906 68.828125 69.964844 C 69.238281 69.546875 69.671875 69.152344 70.121094 68.78125 C 70.574219 68.40625 71.042969 68.054688 71.527344 67.726562 C 72.015625 67.398438 72.515625 67.09375 73.03125 66.816406 C 73.546875 66.535156 74.074219 66.28125 74.613281 66.054688 C 75.152344 65.828125 75.703125 65.625 76.261719 65.453125 C 76.824219 65.277344 77.390625 65.128906 77.964844 65.011719 C 78.539062 64.890625 79.117188 64.800781 79.699219 64.738281 C 80.285156 64.675781 80.867188 64.640625 81.453125 64.636719 L 111.460938 64.636719 C 112.046875 64.640625 112.632812 64.675781 113.214844 64.738281 C 113.800781 64.800781 114.378906 64.890625 114.953125 65.011719 C 115.527344 65.128906 116.09375 65.277344 116.652344 65.453125 C 117.214844 65.625 117.761719 65.828125 118.304688 66.054688 C 118.84375 66.28125 119.371094 66.535156 119.886719 66.816406 C 120.402344 67.09375 120.902344 67.398438 121.386719 67.726562 C 121.875 68.054688 122.34375 68.40625 122.792969 68.78125 C 123.246094 69.152344 123.675781 69.546875 124.089844 69.964844 C 124.503906 70.378906 124.894531 70.8125 125.265625 71.269531 C 125.632812 71.722656 125.980469 72.191406 126.304688 72.679688 C 126.628906 73.167969 126.929688 73.671875 127.203125 74.1875 C 127.480469 74.703125 127.726562 75.234375 127.949219 75.773438 C 128.171875 76.316406 128.371094 76.867188 128.539062 77.425781 C 128.707031 77.988281 128.851562 78.554688 128.964844 79.128906 C 129.078125 79.703125 129.164062 80.28125 129.21875 80.863281 C 129.277344 81.445312 129.304688 82.027344 129.304688 82.613281 C 129.304688 83.199219 129.277344 83.78125 129.21875 84.363281 C 129.164062 84.945312 129.078125 85.523438 128.964844 86.097656 C 128.851562 86.671875 128.707031 87.238281 128.539062 87.800781 C 128.371094 88.359375 128.171875 88.910156 127.949219 89.453125 C 127.726562 89.992188 127.480469 90.523438 127.203125 91.039062 C 126.929688 91.554688 126.628906 92.058594 126.304688 92.546875 C 125.980469 93.03125 125.632812 93.503906 125.265625 93.957031 C 124.894531 94.410156 124.503906 94.847656 124.089844 95.261719 C 123.675781 95.679688 123.246094 96.074219 122.792969 96.445312 C 122.34375 96.820312 121.875 97.171875 121.386719 97.5 C 120.902344 97.828125 120.402344 98.128906 119.886719 98.410156 C 119.371094 98.6875 118.84375 98.941406 118.304688 99.171875 C 117.761719 99.398438 117.214844 99.601562 116.652344 99.773438 C 116.09375 99.949219 115.527344 100.09375 114.953125 100.214844 C 114.378906 100.332031 113.800781 100.425781 113.214844 100.488281 C 112.632812 100.550781 112.046875 100.585938 111.460938 100.589844 Z M 111.460938 100.589844 " fill-opacity="1" fill-rule="nonzero"/></g><g clip-path="url(#833b16bb26)"><path fill="#000000" d="M 45.519531 95.195312 L 45.519531 116.3125 C 45.519531 117.023438 45.589844 117.726562 45.730469 118.421875 C 45.871094 119.117188 46.078125 119.792969 46.351562 120.449219 C 46.621094 121.105469 46.957031 121.730469 47.351562 122.320312 C 47.75 122.910156 48.199219 123.457031 48.703125 123.957031 C 49.203125 124.460938 49.753906 124.90625 50.34375 125.300781 C 50.9375 125.695312 51.558594 126.03125 52.21875 126.304688 C 52.875 126.574219 53.550781 126.78125 54.25 126.921875 C 54.949219 127.058594 55.652344 127.128906 56.367188 127.128906 L 82.214844 127.128906 C 82.273438 126.65625 82.355469 126.191406 82.460938 125.734375 C 80.199219 124.726562 78.09375 123.46875 76.136719 121.953125 C 74.183594 120.441406 72.4375 118.71875 70.898438 116.785156 C 69.359375 114.851562 68.070312 112.765625 67.035156 110.523438 C 66 108.28125 65.25 105.949219 64.777344 103.523438 C 63.320312 102.378906 61.996094 101.09375 60.804688 99.671875 C 59.617188 98.25 58.585938 96.71875 57.71875 95.082031 C 56.847656 93.445312 56.160156 91.734375 55.648438 89.957031 C 55.136719 88.175781 54.816406 86.359375 54.683594 84.511719 C 54.050781 84.613281 53.429688 84.765625 52.824219 84.976562 C 52.21875 85.183594 51.636719 85.445312 51.078125 85.757812 C 50.519531 86.070312 49.992188 86.429688 49.496094 86.832031 C 49 87.238281 48.542969 87.683594 48.128906 88.167969 C 47.710938 88.65625 47.339844 89.175781 47.015625 89.726562 C 46.691406 90.277344 46.417969 90.851562 46.195312 91.453125 C 45.972656 92.050781 45.804688 92.664062 45.691406 93.292969 C 45.578125 93.921875 45.519531 94.558594 45.519531 95.195312 Z M 45.519531 95.195312 " fill-opacity="1" fill-rule="nonzero"/></g><g clip-path="url(#ccb533d9d0)"><path fill="#000000" d="M 69.183594 58.871094 C 72.992188 56.914062 77.035156 55.933594 81.316406 55.933594 L 111.578125 55.933594 C 115.871094 55.933594 119.921875 56.914062 123.738281 58.878906 C 123.292969 57.535156 122.746094 56.238281 122.09375 54.980469 C 121.445312 53.726562 120.699219 52.53125 119.859375 51.390625 C 119.023438 50.253906 118.101562 49.183594 117.09375 48.191406 C 116.085938 47.195312 115.007812 46.289062 113.859375 45.460938 C 112.707031 44.636719 111.5 43.90625 110.238281 43.269531 C 108.972656 42.632812 107.664062 42.101562 106.316406 41.667969 C 104.96875 41.238281 103.59375 40.914062 102.191406 40.695312 C 100.792969 40.480469 99.382812 40.375 97.96875 40.378906 L 94.957031 40.378906 C 93.539062 40.375 92.132812 40.480469 90.734375 40.699219 C 89.332031 40.914062 87.960938 41.238281 86.609375 41.671875 C 85.261719 42.101562 83.957031 42.636719 82.691406 43.273438 C 81.425781 43.90625 80.21875 44.636719 79.070312 45.460938 C 77.917969 46.289062 76.839844 47.195312 75.835938 48.191406 C 74.828125 49.183594 73.90625 50.25 73.066406 51.386719 C 72.226562 52.527344 71.480469 53.722656 70.832031 54.976562 C 70.179688 56.230469 69.628906 57.53125 69.183594 58.871094 Z M 69.183594 58.871094 " fill-opacity="1" fill-rule="nonzero"/></g><path fill="#000000" d="M 111.460938 68.183594 L 81.453125 68.183594 C 80.511719 68.191406 79.578125 68.292969 78.65625 68.488281 C 77.730469 68.679688 76.835938 68.960938 75.96875 69.328125 C 75.101562 69.695312 74.273438 70.140625 73.496094 70.667969 C 72.714844 71.199219 71.992188 71.796875 71.328125 72.464844 C 70.664062 73.132812 70.074219 73.859375 69.554688 74.644531 C 69.03125 75.429688 68.59375 76.257812 68.234375 77.128906 C 67.875 77.996094 67.605469 78.894531 67.421875 79.816406 C 67.238281 80.738281 67.148438 81.671875 67.148438 82.613281 C 67.148438 83.554688 67.238281 84.484375 67.421875 85.410156 C 67.605469 86.332031 67.875 87.226562 68.234375 88.097656 C 68.59375 88.96875 69.03125 89.796875 69.554688 90.582031 C 70.074219 91.363281 70.664062 92.089844 71.328125 92.761719 C 71.992188 93.429688 72.714844 94.027344 73.496094 94.554688 C 74.273438 95.085938 75.101562 95.53125 75.96875 95.898438 C 76.835938 96.265625 77.730469 96.546875 78.65625 96.738281 C 79.578125 96.929688 80.511719 97.03125 81.453125 97.042969 L 82.285156 97.042969 C 82.367188 96.171875 82.53125 95.3125 82.769531 94.46875 C 83.011719 93.625 83.328125 92.8125 83.71875 92.027344 C 84.113281 91.242188 84.574219 90.5 85.101562 89.800781 C 85.632812 89.101562 86.222656 88.457031 86.871094 87.863281 C 87.523438 87.273438 88.222656 86.746094 88.96875 86.285156 C 89.714844 85.824219 90.5 85.4375 91.320312 85.121094 C 92.140625 84.800781 92.980469 84.5625 93.84375 84.402344 C 94.707031 84.242188 95.582031 84.160156 96.460938 84.160156 C 97.339844 84.160156 98.210938 84.242188 99.074219 84.402344 C 99.9375 84.5625 100.78125 84.800781 101.601562 85.121094 C 102.417969 85.4375 103.203125 85.824219 103.949219 86.285156 C 104.699219 86.746094 105.394531 87.273438 106.046875 87.863281 C 106.695312 88.457031 107.285156 89.101562 107.816406 89.800781 C 108.34375 90.5 108.804688 91.242188 109.199219 92.027344 C 109.589844 92.8125 109.90625 93.625 110.148438 94.46875 C 110.390625 95.3125 110.550781 96.171875 110.632812 97.042969 L 111.460938 97.042969 C 112.40625 97.03125 113.339844 96.929688 114.261719 96.738281 C 115.183594 96.546875 116.082031 96.265625 116.949219 95.898438 C 117.816406 95.53125 118.640625 95.085938 119.421875 94.554688 C 120.203125 94.027344 120.925781 93.429688 121.585938 92.761719 C 122.25 92.089844 122.84375 91.363281 123.363281 90.582031 C 123.882812 89.796875 124.324219 88.96875 124.683594 88.097656 C 125.042969 87.226562 125.3125 86.332031 125.496094 85.410156 C 125.675781 84.484375 125.769531 83.554688 125.769531 82.613281 C 125.769531 81.671875 125.675781 80.738281 125.496094 79.816406 C 125.3125 78.894531 125.042969 77.996094 124.683594 77.128906 C 124.324219 76.257812 123.882812 75.429688 123.363281 74.644531 C 122.84375 73.859375 122.25 73.132812 121.585938 72.464844 C 120.925781 71.796875 120.203125 71.199219 119.421875 70.667969 C 118.640625 70.140625 117.816406 69.695312 116.949219 69.328125 C 116.082031 68.960938 115.183594 68.679688 114.261719 68.488281 C 113.339844 68.292969 112.40625 68.191406 111.460938 68.183594 Z M 111.460938 68.183594 " fill-opacity="1" fill-rule="nonzero"/></svg>