<svg xmlns="http://www.w3.org/2000/svg" xmlns:xlink="http://www.w3.org/1999/xlink" width="300" zoomAndPan="magnify" viewBox="0 0 224.87999 74.999997" height="100" preserveAspectRatio="xMidYMid meet" version="1.0"><defs><clipPath id="f133d83abf"><path d="M 0 6 L 224.761719 6 L 224.761719 68.84375 L 0 68.84375 Z M 0 6 " clip-rule="nonzero"/></clipPath></defs><g clip-path="url(#f133d83abf)"><path fill="#000000" d="M 88.441406 13.335938 C 89.386719 13.335938 90.28125 13.335938 91.238281 13.335938 C 91.34375 13.117188 91.460938 12.878906 91.554688 12.683594 C 91.34375 11.664062 91.488281 10.699219 91.476562 9.71875 C 91.699219 9.664062 91.882812 9.613281 92.117188 9.5625 C 92.117188 9.246094 92.117188 8.933594 92.117188 8.621094 C 92.105469 8.003906 92.066406 7.402344 92.078125 6.789062 C 92.078125 6.359375 92.132812 6.292969 92.589844 6.214844 C 93.128906 6.125 93.679688 6.058594 94.230469 6.046875 C 95.320312 6.03125 96.410156 6.046875 97.488281 6.085938 C 97.894531 6.097656 98.289062 6.214844 98.761719 6.292969 C 98.761719 7.457031 98.761719 8.542969 98.761719 9.652344 C 99.011719 9.71875 99.195312 9.757812 99.402344 9.820312 C 99.417969 9.980469 99.46875 10.136719 99.457031 10.28125 C 99.378906 11.078125 99.535156 11.886719 99.3125 12.683594 C 99.21875 13.011719 99.546875 13.375 99.929688 13.375 C 100.742188 13.402344 101.542969 13.402344 102.359375 13.402344 C 103.488281 13.402344 104.617188 13.417969 105.746094 13.417969 C 105.835938 13.417969 105.941406 13.402344 106.046875 13.390625 C 106.125 13.207031 106.191406 13.023438 106.28125 12.800781 C 107.371094 12.800781 108.476562 12.800781 109.578125 12.800781 C 109.644531 12.984375 109.683594 13.128906 109.75 13.3125 C 109.878906 13.296875 110.011719 13.3125 110.144531 13.273438 C 111.953125 12.800781 113.765625 12.316406 115.578125 11.835938 C 116.011719 11.71875 116.445312 11.574219 116.890625 11.480469 C 117.296875 11.402344 117.703125 11.363281 118.125 11.363281 C 119.816406 11.351562 121.523438 11.351562 123.21875 11.339844 C 123.53125 11.339844 123.847656 11.339844 124.214844 11.339844 C 124.253906 11.652344 124.320312 11.9375 124.320312 12.226562 C 124.320312 15.335938 124.320312 18.449219 124.320312 21.558594 C 124.320312 21.871094 124.28125 22.171875 124.253906 22.5 C 124.070312 22.527344 123.925781 22.550781 123.796875 22.550781 C 121.839844 22.566406 119.882812 22.578125 117.925781 22.578125 C 117.535156 22.578125 117.140625 22.511719 116.757812 22.421875 C 114.539062 21.847656 112.335938 21.257812 110.117188 20.667969 C 110.023438 20.644531 109.933594 20.644531 109.75 20.617188 C 109.734375 21.179688 109.722656 21.703125 109.722656 22.210938 C 109.722656 22.761719 109.511719 23.230469 109.078125 23.546875 C 108.804688 23.742188 108.460938 23.910156 108.121094 23.949219 C 107.28125 24.066406 106.425781 24.105469 105.585938 24.171875 C 103.421875 24.328125 101.253906 24.472656 99.074219 24.628906 C 98.367188 24.683594 97.65625 24.722656 96.898438 24.773438 C 96.9375 25.023438 96.960938 25.242188 96.988281 25.480469 C 97.265625 25.480469 97.488281 25.480469 97.722656 25.480469 C 97.960938 24.839844 98.011719 24.8125 98.984375 24.929688 C 99.011719 25.085938 99.050781 25.242188 99.089844 25.464844 C 99.339844 25.480469 99.585938 25.492188 99.824219 25.503906 C 99.941406 25.285156 99.996094 24.996094 100.125 24.945312 C 100.414062 24.851562 100.742188 24.890625 101.058594 24.878906 C 101.109375 25.101562 101.148438 25.269531 101.214844 25.480469 C 101.453125 25.492188 101.703125 25.503906 101.9375 25.519531 C 102.054688 25.296875 102.109375 25.007812 102.253906 24.957031 C 102.515625 24.851562 102.832031 24.890625 103.144531 24.878906 C 103.210938 25.101562 103.261719 25.269531 103.328125 25.492188 C 103.59375 25.503906 103.839844 25.519531 104.089844 25.53125 C 104.183594 25.324219 104.207031 25.074219 104.339844 24.996094 C 104.511719 24.890625 104.761719 24.902344 104.96875 24.902344 C 105.875 24.890625 106.78125 24.902344 107.699219 24.902344 C 107.765625 25.113281 107.820312 25.285156 107.882812 25.492188 C 108.121094 25.492188 108.371094 25.492188 108.621094 25.492188 C 108.960938 24.863281 108.960938 24.863281 109.8125 24.957031 C 109.867188 25.125 109.933594 25.296875 110 25.503906 C 110.273438 25.503906 110.550781 25.503906 110.8125 25.503906 C 111.046875 24.800781 111.046875 24.917969 111.929688 24.957031 C 111.980469 25.125 112.03125 25.308594 112.097656 25.519531 C 112.230469 25.542969 112.359375 25.570312 112.492188 25.582031 C 112.625 25.597656 112.769531 25.582031 112.886719 25.582031 C 113.003906 25.363281 113.070312 25.074219 113.226562 24.996094 C 113.449219 24.890625 113.753906 24.945312 114.054688 24.929688 C 114.09375 25.152344 114.132812 25.324219 114.171875 25.558594 C 114.449219 25.570312 114.738281 25.597656 115.011719 25.609375 C 115.132812 25.386719 115.183594 25.101562 115.355469 25.007812 C 115.550781 24.890625 115.839844 24.945312 116.117188 24.917969 C 116.195312 25.140625 116.246094 25.324219 116.3125 25.53125 C 116.445312 25.542969 116.574219 25.570312 116.71875 25.570312 C 116.878906 25.582031 117.035156 25.570312 117.179688 25.570312 C 117.441406 24.890625 117.441406 24.890625 118.253906 24.996094 C 118.269531 25.101562 118.28125 25.203125 118.320312 25.308594 C 118.347656 25.402344 118.386719 25.492188 118.425781 25.597656 C 118.726562 25.597656 119.03125 25.597656 119.304688 25.597656 C 119.582031 24.902344 119.582031 24.902344 120.355469 24.984375 C 120.394531 25.152344 120.433594 25.335938 120.472656 25.570312 C 120.789062 25.582031 121.105469 25.597656 121.445312 25.609375 C 121.511719 25.414062 121.5625 25.230469 121.644531 24.996094 C 121.890625 24.984375 122.15625 24.957031 122.457031 24.929688 C 122.507812 25.140625 122.546875 25.324219 122.601562 25.570312 C 122.917969 25.570312 123.230469 25.570312 123.558594 25.570312 C 123.796875 24.878906 123.796875 24.878906 124.597656 25.007812 C 124.636719 25.179688 124.675781 25.363281 124.726562 25.582031 C 125.042969 25.582031 125.371094 25.582031 125.699219 25.582031 C 125.882812 24.902344 125.921875 24.878906 126.722656 25.007812 C 126.761719 25.164062 126.800781 25.335938 126.855469 25.558594 C 127.15625 25.570312 127.484375 25.597656 127.800781 25.621094 C 128.023438 24.902344 128.0625 24.878906 128.851562 25.046875 C 128.890625 25.203125 128.929688 25.375 128.980469 25.582031 C 129.296875 25.582031 129.625 25.582031 129.953125 25.582031 C 130.148438 24.773438 130.242188 24.929688 130.949219 25.023438 C 130.988281 25.203125 131.042969 25.386719 131.09375 25.597656 C 131.4375 25.597656 131.765625 25.597656 132.105469 25.597656 C 132.144531 25.414062 132.171875 25.242188 132.222656 24.996094 C 132.5 24.984375 132.789062 24.96875 133.0625 24.957031 C 133.117188 25.21875 133.167969 25.402344 133.207031 25.609375 C 133.550781 25.609375 133.878906 25.609375 134.230469 25.609375 C 134.273438 25.402344 134.3125 25.21875 134.351562 24.996094 C 134.640625 24.996094 134.902344 24.996094 135.191406 24.996094 C 135.242188 25.203125 135.296875 25.386719 135.335938 25.597656 C 135.675781 25.597656 136.003906 25.597656 136.359375 25.597656 C 136.386719 25.402344 136.425781 25.230469 136.464844 24.996094 C 136.738281 24.984375 137.015625 24.96875 137.304688 24.957031 C 137.355469 25.191406 137.410156 25.363281 137.460938 25.570312 C 137.789062 25.570312 138.132812 25.570312 138.5 25.570312 C 138.523438 25.402344 138.550781 25.230469 138.578125 25.007812 C 138.867188 25.007812 139.15625 25.007812 139.457031 25.007812 C 139.496094 25.21875 139.535156 25.386719 139.574219 25.597656 C 139.902344 25.597656 140.230469 25.597656 140.585938 25.597656 C 140.625 25.414062 140.679688 25.230469 140.730469 24.996094 C 141.007812 24.996094 141.28125 24.996094 141.582031 24.996094 C 141.636719 25.21875 141.6875 25.402344 141.742188 25.597656 C 142.070312 25.597656 142.382812 25.597656 142.726562 25.597656 C 142.765625 25.414062 142.804688 25.230469 142.871094 24.996094 C 143.144531 24.996094 143.433594 24.996094 143.722656 24.996094 C 143.777344 25.21875 143.828125 25.402344 143.882812 25.609375 C 144.210938 25.609375 144.523438 25.609375 144.867188 25.609375 C 144.917969 25.414062 144.957031 25.230469 145.011719 25.007812 C 145.285156 25.007812 145.574219 25.007812 145.875 25.007812 C 145.929688 25.230469 145.980469 25.414062 146.035156 25.609375 C 146.363281 25.609375 146.675781 25.609375 147.003906 25.609375 C 147.058594 25.402344 147.097656 25.21875 147.136719 25.035156 C 147.820312 24.902344 148.003906 24.800781 148.1875 25.582031 C 148.320312 25.597656 148.476562 25.621094 148.632812 25.636719 C 148.792969 25.648438 148.949219 25.636719 149.132812 25.636719 C 149.183594 25.414062 149.238281 25.203125 149.289062 25.023438 C 150.105469 24.890625 150.183594 24.878906 150.3125 25.558594 C 150.601562 25.570312 150.90625 25.582031 151.207031 25.609375 C 151.273438 25.363281 151.324219 25.179688 151.390625 24.957031 C 151.691406 24.96875 151.980469 24.996094 152.296875 25.007812 C 152.363281 25.230469 152.414062 25.414062 152.46875 25.621094 C 152.769531 25.621094 153.058594 25.621094 153.332031 25.621094 C 153.425781 25.402344 153.464844 25.191406 153.597656 25.035156 C 153.660156 24.957031 153.859375 24.984375 153.988281 24.984375 C 154.460938 24.984375 154.460938 24.984375 154.644531 25.621094 C 154.710938 25.636719 154.789062 25.648438 154.871094 25.648438 C 155.066406 25.648438 155.261719 25.648438 155.5 25.648438 C 155.550781 25.453125 155.589844 25.269531 155.628906 25.085938 C 156.445312 24.851562 156.613281 24.929688 156.773438 25.609375 C 156.902344 25.621094 157.0625 25.648438 157.21875 25.648438 C 157.351562 25.648438 157.496094 25.636719 157.652344 25.621094 C 157.691406 25.414062 157.71875 25.230469 157.757812 25.0625 C 158.625 24.863281 158.753906 24.929688 158.925781 25.609375 C 159.203125 25.609375 159.488281 25.609375 159.792969 25.609375 C 159.832031 25.402344 159.859375 25.21875 159.898438 25.046875 C 160.789062 24.878906 160.882812 24.917969 161.09375 25.570312 C 161.355469 25.570312 161.628906 25.570312 161.90625 25.570312 C 161.957031 25.363281 161.996094 25.191406 162.050781 24.957031 C 162.40625 24.984375 162.746094 25.007812 163.085938 25.046875 C 163.140625 25.285156 163.164062 25.441406 163.207031 25.621094 C 163.496094 25.621094 163.769531 25.621094 164.046875 25.621094 C 164.097656 25.402344 164.136719 25.21875 164.164062 25.046875 C 165.070312 24.890625 165.199219 24.957031 165.332031 25.609375 C 165.582031 25.609375 165.855469 25.609375 166.160156 25.609375 C 166.199219 25.441406 166.25 25.257812 166.304688 25.074219 C 167.105469 24.824219 167.339844 24.929688 167.484375 25.609375 C 167.734375 25.609375 167.996094 25.609375 168.300781 25.609375 C 168.351562 25.414062 168.390625 25.230469 168.429688 25.046875 C 169.296875 24.863281 169.46875 24.929688 169.664062 25.597656 C 169.914062 25.597656 170.175781 25.597656 170.453125 25.597656 C 170.492188 25.386719 170.519531 25.21875 170.542969 25.0625 C 171.371094 24.8125 171.621094 24.917969 171.804688 25.597656 C 172.039062 25.597656 172.289062 25.597656 172.550781 25.597656 C 172.59375 25.402344 172.632812 25.230469 172.65625 25.0625 C 173.472656 24.824219 173.734375 24.929688 173.96875 25.597656 C 174.667969 25.6875 174.679688 25.6875 174.796875 25.0625 C 175.636719 24.824219 175.914062 24.929688 176.125 25.597656 C 176.242188 25.609375 176.386719 25.621094 176.515625 25.621094 C 176.609375 25.621094 176.699219 25.597656 176.820312 25.570312 C 176.859375 25.386719 176.898438 25.21875 176.925781 25.046875 C 177.789062 24.8125 178.066406 24.929688 178.261719 25.570312 C 178.484375 25.570312 178.710938 25.570312 178.957031 25.570312 C 179 25.375 179.039062 25.203125 179.078125 25.046875 C 180.023438 24.839844 180.246094 24.929688 180.417969 25.597656 C 180.519531 25.597656 180.625 25.609375 180.746094 25.609375 C 180.835938 25.609375 180.941406 25.609375 181.058594 25.609375 C 181.125 25.414062 181.175781 25.230469 181.242188 25.007812 C 181.675781 25.007812 182.136719 24.96875 182.570312 25.023438 C 182.949219 25.074219 183.25 25.492188 183.199219 25.882812 C 183.042969 27.242188 183.265625 28.589844 183.421875 29.988281 C 184.039062 30.039062 184.667969 30.144531 185.285156 30.144531 C 188.988281 30.15625 192.675781 30.144531 196.378906 30.144531 C 200.054688 30.144531 203.730469 30.144531 207.421875 30.132812 C 208.222656 30.132812 209.035156 30.054688 209.835938 30.027344 C 209.925781 30.027344 210.019531 30.078125 210.109375 30.09375 C 210.425781 30.15625 210.742188 30.199219 210.964844 29.871094 C 211.003906 29.804688 211.082031 29.738281 211.148438 29.726562 C 211.570312 29.648438 211.988281 29.53125 212.410156 29.519531 C 216.164062 29.503906 219.917969 29.503906 223.683594 29.519531 C 224.355469 29.519531 224.578125 29.660156 224.710938 30.316406 C 224.800781 30.757812 224.8125 31.214844 224.828125 31.660156 C 224.828125 32.277344 224.828125 32.890625 224.761719 33.492188 C 224.695312 34.078125 224.484375 34.484375 223.632812 34.472656 C 219.96875 34.445312 216.320312 34.472656 212.65625 34.472656 C 212.171875 34.472656 211.6875 34.351562 211.199219 34.289062 C 211.160156 34.289062 211.109375 34.273438 211.097656 34.25 C 210.742188 33.753906 210.214844 33.910156 209.742188 33.910156 C 204.898438 33.894531 200.054688 33.894531 195.210938 33.894531 C 191.96875 33.894531 188.726562 33.894531 185.484375 33.921875 C 184.8125 33.921875 184.15625 34.011719 183.476562 34.066406 C 183.355469 34.96875 183.226562 35.832031 183.105469 36.730469 C 178.773438 36.730469 174.523438 36.730469 170.214844 36.730469 C 170.148438 37.097656 169.941406 37.292969 169.546875 37.253906 C 169.574219 37.542969 169.613281 37.789062 169.625 38.039062 C 169.636719 38.679688 169.230469 39.085938 168.613281 39.070312 C 167.996094 39.058594 167.628906 38.691406 167.644531 38.066406 C 167.644531 37.816406 167.695312 37.570312 167.722656 37.28125 C 167.433594 37.191406 167.050781 37.214844 167.078125 36.707031 C 166.265625 36.707031 165.503906 36.707031 164.726562 36.707031 C 161.90625 36.707031 159.070312 36.691406 156.246094 36.691406 C 152.414062 36.691406 148.582031 36.679688 144.734375 36.679688 C 140.757812 36.667969 136.777344 36.652344 132.8125 36.640625 C 129.191406 36.628906 125.582031 36.640625 121.957031 36.628906 C 121.5 36.628906 121.105469 36.757812 120.777344 37.085938 C 120.34375 37.515625 119.898438 37.933594 119.476562 38.378906 C 119.136719 38.746094 118.742188 38.941406 118.214844 38.929688 C 116.773438 38.914062 115.328125 38.929688 113.882812 38.914062 C 112.257812 38.914062 110.640625 38.875 109.011719 38.886719 C 108.4375 38.886719 107.976562 38.71875 107.582031 38.3125 C 107.003906 37.710938 106.414062 37.148438 105.824219 36.5625 C 105.730469 36.472656 105.625 36.378906 105.496094 36.261719 C 105.351562 36.484375 105.417969 36.691406 105.457031 36.902344 C 105.546875 37.371094 105.417969 37.75 105.089844 38.089844 C 104.746094 38.445312 104.433594 38.824219 103.90625 38.929688 C 103.539062 39.007812 103.449219 39.332031 103.421875 39.660156 C 103.394531 39.972656 103.40625 40.285156 103.40625 40.601562 C 103.40625 41.605469 103.421875 42.613281 103.40625 43.605469 C 103.40625 44.089844 103.472656 44.535156 103.800781 44.925781 C 104.0625 45.242188 104.011719 45.4375 103.789062 45.789062 C 103.460938 46.300781 103.066406 46.679688 102.421875 46.664062 C 102.332031 46.664062 102.238281 46.71875 102.175781 46.742188 C 102.160156 46.808594 102.132812 46.875 102.148438 46.886719 C 102.542969 47.292969 102.554688 47.800781 102.566406 48.3125 C 102.582031 49.226562 102.582031 50.15625 102.621094 51.070312 C 102.648438 51.789062 102.726562 52.507812 102.792969 53.210938 C 102.855469 53.867188 102.988281 54.53125 103.039062 55.1875 C 103.09375 55.800781 103.039062 56.429688 103.105469 57.042969 C 103.199219 57.984375 103.238281 58.9375 103.488281 59.863281 C 103.617188 60.386719 103.59375 60.949219 103.644531 61.5 C 103.695312 62.125 103.761719 62.742188 103.839844 63.367188 C 103.855469 63.523438 103.921875 63.667969 103.960938 63.824219 C 104.0625 64.269531 104.207031 64.699219 104.25 65.144531 C 104.328125 66.035156 103.945312 66.515625 103.066406 66.660156 C 101.492188 66.910156 99.902344 67.132812 98.3125 67.355469 C 96.320312 67.640625 94.324219 67.941406 92.328125 68.230469 C 91.015625 68.425781 89.714844 68.621094 88.390625 68.777344 C 88.007812 68.816406 87.617188 68.726562 87.234375 68.648438 C 86.984375 68.59375 86.855469 68.414062 86.800781 68.136719 C 86.695312 67.523438 86.5 66.910156 86.828125 66.296875 C 86.878906 66.191406 86.867188 66.019531 86.839844 65.890625 C 86.683594 64.820312 86.5 63.734375 86.355469 62.660156 C 86.25 61.851562 86.183594 61.027344 86.09375 60.203125 C 85.988281 59.144531 85.871094 58.101562 85.777344 57.042969 C 85.75 56.675781 85.777344 56.296875 85.765625 55.929688 C 85.765625 55.644531 85.75 55.355469 85.726562 55.070312 C 85.671875 54.402344 85.605469 53.722656 85.542969 53.054688 C 85.515625 52.730469 85.488281 52.402344 85.476562 52.074219 C 85.4375 51.332031 85.410156 50.597656 85.382812 49.855469 C 85.382812 49.816406 85.355469 49.777344 85.332031 49.722656 C 85.015625 49.566406 84.660156 49.59375 84.308594 49.644531 C 82.691406 49.917969 81.078125 50.179688 79.460938 50.480469 C 78.78125 50.613281 78.136719 50.558594 77.480469 50.375 C 76.300781 50.050781 75.117188 49.722656 73.9375 49.410156 C 73.777344 49.371094 73.621094 49.34375 73.4375 49.304688 C 73.265625 49.65625 72.976562 49.816406 72.570312 49.867188 C 72.097656 49.917969 71.757812 50.257812 71.546875 50.691406 C 71.308594 51.175781 71.101562 51.65625 70.863281 52.128906 C 70.589844 52.703125 70.613281 53.25 70.96875 53.8125 C 71.285156 54.3125 71.179688 54.546875 70.601562 54.570312 C 69.894531 54.625 69.5 55.03125 69.222656 55.617188 C 68.59375 56.988281 67.960938 58.375 67.332031 59.746094 C 67.03125 60.414062 66.742188 61.082031 66.414062 61.734375 C 66.136719 62.28125 66.097656 62.832031 66.402344 63.367188 C 66.636719 63.785156 66.625 64.179688 66.296875 64.503906 C 65.953125 64.832031 65.535156 64.976562 65.046875 64.792969 C 63.238281 64.113281 61.453125 63.378906 59.707031 62.53125 C 58.90625 62.140625 58.089844 61.800781 57.304688 61.394531 C 56.871094 61.171875 56.4375 60.921875 56.054688 60.625 C 55.570312 60.246094 55.492188 59.878906 55.792969 59.328125 C 56.632812 57.785156 57.449219 56.246094 58.367188 54.753906 C 59.902344 52.257812 61.503906 49.800781 63.105469 47.332031 C 64 45.945312 64.011719 44.480469 63.078125 43.265625 C 62.855469 42.980469 62.566406 42.730469 62.277344 42.496094 C 61.898438 42.183594 61.503906 41.867188 61.082031 41.621094 C 60.652344 41.359375 60.46875 40.980469 60.441406 40.496094 C 60.425781 40.328125 60.386719 40.15625 60.347656 39.90625 C 60.113281 39.90625 59.902344 39.90625 59.691406 39.90625 C 58.984375 39.90625 58.273438 39.90625 57.550781 39.921875 C 57.277344 39.921875 57.078125 39.84375 57.027344 39.566406 C 56.960938 39.226562 56.710938 39.1875 56.449219 39.1875 C 55.820312 39.175781 55.191406 39.175781 54.546875 39.175781 C 50.003906 39.164062 45.449219 39.125 40.90625 39.125 C 39.632812 39.125 38.476562 39.554688 37.558594 40.429688 C 36.179688 41.75 34.839844 43.125 33.503906 44.496094 C 32.742188 45.265625 32.414062 46.273438 32.148438 47.277344 C 31.847656 48.457031 31.574219 49.632812 31.285156 50.820312 C 31.179688 51.253906 31.230469 51.617188 31.492188 51.984375 C 31.941406 52.597656 31.914062 53.109375 31.492188 53.722656 C 30.996094 54.441406 30.285156 54.792969 29.433594 54.832031 C 28.421875 54.871094 27.410156 54.859375 26.414062 54.859375 C 21.609375 54.847656 16.804688 54.820312 12 54.792969 C 10.554688 54.78125 9.109375 54.742188 7.667969 54.730469 C 6.484375 54.730469 5.304688 54.769531 4.121094 54.753906 C 3.558594 54.753906 2.980469 54.714844 2.414062 54.664062 C 1.878906 54.609375 1.378906 53.917969 1.445312 53.394531 C 1.457031 53.238281 1.46875 53.070312 1.417969 52.9375 C 1.339844 52.714844 1.300781 52.519531 1.445312 52.324219 C 1.457031 52.3125 1.46875 52.285156 1.46875 52.273438 C 1.246094 51.75 1.679688 51.226562 1.496094 50.691406 C 1.457031 50.574219 1.457031 50.402344 1.507812 50.296875 C 1.628906 50.0625 1.628906 49.855469 1.523438 49.617188 C 1.484375 49.515625 1.445312 49.355469 1.496094 49.277344 C 1.679688 48.992188 1.523438 48.71875 1.535156 48.457031 C 1.550781 48.011719 1.550781 47.566406 1.574219 47.109375 C 1.589844 46.847656 1.734375 46.597656 1.5625 46.339844 C 1.550781 46.324219 1.535156 46.300781 1.535156 46.285156 C 1.757812 45.816406 1.523438 45.320312 1.589844 44.835938 C 1.601562 44.78125 1.667969 44.71875 1.640625 44.664062 C 1.46875 44.207031 1.574219 43.722656 1.5625 43.253906 C 1.5625 43.203125 1.484375 43.148438 1.496094 43.097656 C 1.507812 42.835938 1.589844 42.5625 1.550781 42.300781 C 1.507812 42.039062 1.273438 41.816406 1.46875 41.527344 C 1.496094 41.488281 1.523438 41.398438 1.496094 41.359375 C 1.324219 40.980469 1.285156 40.585938 1.378906 40.167969 C 1.023438 39.699219 1.46875 39.085938 1.101562 38.613281 C 1.0625 38.5625 1.140625 38.429688 1.140625 38.328125 C 1.140625 38.167969 1.15625 38 1.089844 37.882812 C 0.972656 37.671875 0.933594 37.503906 0.996094 37.269531 C 1.039062 37.125 1.023438 36.941406 0.957031 36.824219 C 0.828125 36.601562 0.8125 36.390625 0.878906 36.15625 C 0.90625 36.039062 0.878906 35.871094 0.800781 35.765625 C 0.644531 35.554688 0.617188 35.347656 0.707031 35.097656 C 0.75 35.007812 0.707031 34.851562 0.65625 34.757812 C 0.5 34.523438 0.523438 34.261719 0.484375 34 C 0.421875 33.515625 0.339844 33.019531 0.183594 32.5625 C 0.0664062 32.222656 -0.0390625 31.882812 0.0117188 31.542969 C 0.117188 30.824219 0.261719 30.105469 0.433594 29.398438 C 0.511719 29.097656 0.695312 28.839844 0.867188 28.5625 C 1.128906 28.144531 1.507812 27.960938 2.023438 27.976562 C 2.808594 27.988281 3.597656 27.960938 4.398438 27.960938 C 6.511719 27.976562 8.625 28.015625 10.738281 28.027344 C 16.726562 28.054688 22.722656 28.066406 28.710938 28.066406 C 31.285156 28.066406 33.855469 28.039062 36.417969 28.054688 C 39.933594 28.066406 43.453125 28.09375 46.972656 28.105469 C 50.015625 28.121094 53.0625 28.121094 56.109375 28.144531 C 56.34375 28.144531 56.59375 28.238281 56.792969 28.289062 C 56.976562 28.09375 57.132812 27.84375 57.355469 27.742188 C 57.59375 27.636719 57.894531 27.660156 58.207031 27.636719 C 58.207031 26.917969 58.207031 26.261719 58.207031 25.542969 C 58.640625 25.480469 59.023438 25.414062 59.417969 25.375 C 59.757812 25.347656 60.046875 25.269531 60.074219 24.839844 C 63.25 24.839844 66.386719 24.839844 69.523438 24.839844 C 69.605469 25.035156 69.65625 25.242188 69.773438 25.375 C 69.839844 25.453125 70.023438 25.414062 70.179688 25.441406 C 70.246094 25.257812 70.300781 25.085938 70.367188 24.890625 C 70.796875 24.890625 71.21875 24.890625 71.679688 24.890625 C 71.71875 25.0625 71.757812 25.21875 71.808594 25.425781 C 71.96875 25.441406 72.109375 25.464844 72.296875 25.480469 C 72.359375 25.285156 72.425781 25.101562 72.492188 24.890625 C 72.898438 24.863281 73.320312 24.839844 73.726562 24.824219 C 73.804688 25.0625 73.871094 25.242188 73.9375 25.441406 C 74.09375 25.453125 74.25 25.453125 74.433594 25.464844 C 74.488281 25.285156 74.539062 25.125 74.605469 24.917969 C 75.011719 24.917969 75.417969 24.917969 75.878906 24.917969 C 75.90625 25.023438 75.917969 25.152344 75.972656 25.269531 C 76.023438 25.363281 76.167969 25.480469 76.207031 25.464844 C 76.3125 25.414062 76.429688 25.296875 76.445312 25.203125 C 76.46875 24.839844 76.457031 24.460938 76.46875 24.082031 C 76.496094 23.425781 76.730469 23.179688 77.414062 23.152344 C 77.636719 23.140625 77.859375 23.101562 78.070312 23.140625 C 78.609375 23.246094 79.121094 22.96875 79.6875 23.101562 C 80.183594 23.21875 80.75 23.152344 81.273438 23.125 C 81.617188 23.101562 81.96875 23.035156 82.3125 22.929688 C 82.875 22.746094 83.425781 22.539062 83.980469 22.328125 C 84.648438 22.066406 84.699219 21.988281 84.648438 21.285156 C 84.636719 21.046875 84.570312 20.828125 84.53125 20.578125 C 84.410156 20.550781 84.320312 20.511719 84.226562 20.511719 C 82.234375 20.511719 80.238281 20.527344 78.242188 20.5 C 77.847656 20.5 77.597656 20.605469 77.480469 20.984375 C 77.480469 20.996094 77.46875 21.023438 77.453125 21.035156 C 77.085938 21.742188 76.8125 21.859375 76.035156 21.664062 C 75.839844 21.609375 75.667969 21.507812 75.472656 21.480469 C 75.222656 21.441406 74.972656 21.425781 74.722656 21.425781 C 74.527344 21.425781 74.328125 21.46875 74.132812 21.46875 C 70.417969 21.46875 66.703125 21.46875 62.972656 21.453125 C 62.527344 21.453125 62.070312 21.507812 61.648438 21.246094 C 61.515625 21.167969 61.269531 21.257812 61.042969 21.269531 C 60.753906 20.984375 60.753906 20.566406 60.703125 20.199219 C 60.414062 18.304688 60.507812 16.410156 60.585938 14.5 C 60.597656 14.03125 60.664062 13.558594 60.730469 13.101562 C 60.78125 12.699219 61.003906 12.539062 61.398438 12.527344 C 61.636719 12.515625 61.871094 12.398438 62.109375 12.382812 C 62.632812 12.34375 63.171875 12.316406 63.710938 12.316406 C 65.847656 12.316406 67.976562 12.316406 70.117188 12.316406 C 71.414062 12.316406 72.726562 12.316406 74.027344 12.316406 C 74.226562 12.316406 74.433594 12.316406 74.605469 12.398438 C 75.027344 12.566406 75.378906 12.382812 75.746094 12.238281 C 75.867188 12.1875 75.972656 12.03125 76.011719 11.898438 C 76.074219 11.71875 76.15625 11.546875 76.363281 11.585938 C 76.523438 11.613281 76.71875 11.691406 76.796875 11.808594 C 77.058594 12.199219 77.285156 12.617188 77.492188 13.050781 C 77.597656 13.246094 77.703125 13.363281 77.941406 13.363281 C 80.132812 13.363281 82.324219 13.363281 84.554688 13.363281 C 84.648438 12.761719 85.082031 12.722656 85.566406 12.738281 C 86.222656 12.75 86.867188 12.777344 87.523438 12.75 C 87.996094 12.710938 88.375 12.761719 88.441406 13.335938 Z M 76.890625 43.320312 C 76.300781 43.320312 75.785156 43.332031 75.273438 43.320312 C 74.882812 43.304688 74.632812 43.488281 74.5 43.828125 C 74.410156 44.0625 74.355469 44.324219 74.355469 44.574219 C 74.328125 45.304688 74.34375 46.023438 74.34375 46.757812 C 74.355469 47.789062 74.617188 48.167969 75.578125 48.519531 C 76.3125 48.796875 77.058594 49.058594 77.78125 49.371094 C 78.425781 49.65625 79.082031 49.695312 79.75 49.578125 C 80.921875 49.382812 82.089844 49.1875 83.257812 48.976562 C 84.175781 48.820312 84.4375 48.507812 84.453125 47.59375 C 84.464844 46.691406 84.464844 45.777344 84.453125 44.875 C 84.4375 44.585938 84.386719 44.285156 84.269531 44.023438 C 84.109375 43.671875 83.835938 43.421875 83.402344 43.410156 C 82.101562 43.382812 80.800781 43.371094 79.503906 43.320312 C 79.042969 43.304688 78.714844 43.488281 78.414062 43.800781 C 77.386719 44.902344 77.203125 46.597656 77.964844 47.917969 C 78.058594 48.089844 78.164062 48.246094 78.253906 48.402344 C 77.914062 48.703125 77.902344 48.71875 77.730469 48.519531 C 76.667969 47.304688 76.257812 45.894531 76.535156 44.3125 C 76.574219 44.011719 76.730469 43.722656 76.890625 43.320312 Z M 105.96875 20.578125 C 105.757812 20.550781 105.625 20.527344 105.496094 20.527344 C 103.816406 20.527344 102.132812 20.511719 100.453125 20.527344 C 100.085938 20.527344 99.707031 20.460938 99.390625 20.761719 C 99.3125 20.839844 99.128906 20.8125 98.984375 20.8125 C 96.832031 20.8125 94.679688 20.828125 92.523438 20.8125 C 92.050781 20.8125 91.539062 20.929688 91.121094 20.550781 C 91.054688 20.488281 90.898438 20.527344 90.777344 20.527344 C 90.160156 20.527344 89.558594 20.527344 88.941406 20.527344 C 88.824219 20.527344 88.691406 20.550781 88.546875 20.566406 C 88.71875 20.96875 89.019531 21.035156 89.347656 21.035156 C 90.253906 21.046875 91.160156 21.074219 92.078125 21.074219 C 95.453125 21.074219 98.839844 21.074219 102.214844 21.074219 C 103.199219 21.074219 104.195312 21.074219 105.179688 21.046875 C 105.457031 21.0625 105.785156 21.023438 105.96875 20.578125 Z M 217.582031 30.378906 C 216.886719 30.183594 216.582031 30.40625 216.648438 31.085938 C 216.648438 31.136719 216.675781 31.203125 216.675781 31.257812 C 216.675781 31.542969 216.6875 31.832031 216.6875 32.117188 C 216.6875 32.472656 216.636719 32.824219 216.660156 33.175781 C 216.6875 33.542969 216.964844 33.660156 217.226562 33.425781 C 217.382812 33.28125 217.554688 33.046875 217.566406 32.835938 C 217.605469 32.015625 217.582031 31.191406 217.582031 30.378906 Z M 220.457031 31.84375 C 220.46875 31.84375 220.46875 31.84375 220.480469 31.84375 C 220.480469 31.492188 220.496094 31.136719 220.46875 30.785156 C 220.457031 30.628906 220.378906 30.367188 220.296875 30.355469 C 220.128906 30.328125 219.890625 30.394531 219.773438 30.511719 C 219.65625 30.628906 219.589844 30.851562 219.578125 31.035156 C 219.535156 31.675781 219.535156 32.316406 219.523438 32.96875 C 219.523438 33.085938 219.523438 33.203125 219.550781 33.320312 C 219.601562 33.554688 219.761719 33.632812 219.996094 33.582031 C 220.3125 33.503906 220.441406 33.269531 220.457031 32.980469 C 220.46875 32.589844 220.457031 32.210938 220.457031 31.84375 Z M 223.277344 30.289062 C 222.609375 30.417969 222.476562 30.539062 222.464844 31.074219 C 222.453125 31.753906 222.453125 32.433594 222.453125 33.125 C 222.453125 33.175781 222.453125 33.242188 222.453125 33.292969 C 222.476562 33.515625 222.621094 33.59375 222.820312 33.570312 C 223.082031 33.53125 223.253906 33.375 223.292969 33.113281 C 223.316406 32.914062 223.332031 32.71875 223.332031 32.523438 C 223.34375 31.976562 223.371094 31.425781 223.355469 30.890625 C 223.371094 30.695312 223.316406 30.484375 223.277344 30.289062 Z M 139.378906 29.085938 C 139.773438 29.648438 140.308594 29.804688 140.902344 29.6875 C 141.347656 29.597656 141.753906 29.398438 141.886719 28.890625 C 141.152344 28.210938 139.890625 28.300781 139.378906 29.085938 Z M 131.855469 28.941406 C 132.183594 29.871094 133.574219 29.921875 134.207031 29.257812 C 134.414062 29.035156 134.402344 28.851562 134.128906 28.679688 C 133.707031 28.433594 133.222656 28.378906 132.75 28.445312 C 132.394531 28.5 132.039062 28.589844 131.855469 28.941406 Z M 135.609375 28.96875 C 135.976562 29.84375 137.316406 29.9375 137.949219 29.269531 C 138.195312 28.996094 138.183594 28.800781 137.828125 28.640625 C 137.621094 28.550781 137.382812 28.484375 137.160156 28.460938 C 136.570312 28.40625 136.003906 28.433594 135.609375 28.96875 Z M 129.363281 29.6875 C 129.769531 29.738281 130.109375 29.570312 130.410156 29.28125 C 130.621094 29.074219 130.609375 28.863281 130.371094 28.679688 C 129.9375 28.339844 128.746094 28.328125 128.285156 28.667969 C 128.050781 28.839844 128.035156 28.980469 128.246094 29.203125 C 128.546875 29.519531 128.890625 29.738281 129.363281 29.6875 Z M 139.445312 35.152344 C 139.957031 35.53125 140.507812 35.59375 141.085938 35.476562 C 141.4375 35.398438 141.78125 35.320312 141.886719 34.914062 C 141.203125 34.039062 139.957031 34.132812 139.445312 35.152344 Z M 131.882812 35.03125 C 132.460938 35.59375 133.523438 35.699219 134.113281 35.253906 C 134.335938 35.085938 134.335938 34.953125 134.152344 34.71875 C 133.707031 34.144531 132.210938 34.132812 131.882812 35.03125 Z M 147.003906 35.214844 C 147.6875 35.59375 148.34375 35.660156 149.027344 35.347656 C 149.183594 35.28125 149.328125 35.085938 149.367188 34.914062 C 149.433594 34.679688 149.210938 34.589844 149.039062 34.496094 C 148.292969 34.105469 147.4375 34.394531 147.003906 35.214844 Z M 145.667969 34.863281 C 145.300781 34.394531 144.785156 34.25 144.210938 34.367188 C 143.761719 34.457031 143.371094 34.652344 143.238281 35.136719 C 144.089844 35.765625 145.257812 35.632812 145.667969 34.863281 Z M 135.664062 35.046875 C 136.203125 35.609375 137.289062 35.699219 137.855469 35.269531 C 138.132812 35.058594 138.132812 34.875 137.867188 34.652344 C 137.210938 34.078125 136.175781 34.25 135.664062 35.046875 Z M 130.570312 35.007812 C 129.925781 34.054688 128.691406 34.039062 128.128906 34.953125 C 128.652344 35.6875 129.886719 35.726562 130.570312 35.007812 Z M 144.261719 29.699219 C 144.800781 29.699219 145.246094 29.53125 145.496094 29.191406 C 145.5625 29.097656 145.613281 28.941406 145.585938 28.824219 C 145.574219 28.757812 145.402344 28.695312 145.300781 28.679688 C 144.851562 28.628906 144.40625 28.578125 143.945312 28.578125 C 143.75 28.578125 143.527344 28.65625 143.371094 28.773438 C 143.121094 28.957031 143.144531 29.164062 143.382812 29.359375 C 143.644531 29.597656 143.933594 29.738281 144.261719 29.699219 Z M 150.863281 35.191406 C 151.351562 35.59375 152.375 35.671875 152.886719 35.320312 C 152.9375 35.292969 152.980469 35.253906 153.03125 35.214844 C 153.253906 34.992188 153.226562 34.757812 152.980469 34.574219 C 152.28125 34.066406 151.207031 34.367188 150.863281 35.191406 Z M 158.425781 35.292969 C 159.082031 35.609375 159.714844 35.648438 160.332031 35.371094 C 160.5 35.292969 160.683594 35.074219 160.710938 34.902344 C 160.738281 34.652344 160.527344 34.496094 160.277344 34.417969 C 159.582031 34.171875 158.808594 34.511719 158.425781 35.292969 Z M 154.660156 35.292969 C 154.816406 35.359375 154.960938 35.4375 155.132812 35.476562 C 155.65625 35.582031 156.195312 35.609375 156.667969 35.308594 C 157.023438 35.085938 157.035156 34.773438 156.734375 34.550781 C 156.078125 34.054688 154.933594 34.433594 154.660156 35.292969 Z M 162.273438 35.28125 C 162.890625 35.621094 163.691406 35.632812 164.164062 35.359375 C 164.347656 35.253906 164.480469 35.125 164.464844 34.890625 C 164.453125 34.640625 164.308594 34.511719 164.070312 34.433594 C 163.375 34.183594 162.613281 34.523438 162.273438 35.28125 Z M 169.980469 35.308594 C 170.453125 35.632812 171.382812 35.632812 171.816406 35.320312 C 172.160156 35.058594 172.105469 34.601562 171.699219 34.417969 C 171.070312 34.144531 170.164062 34.613281 169.980469 35.308594 Z M 124.242188 28.929688 C 124.398438 29.035156 124.476562 29.140625 124.582031 29.164062 C 125.148438 29.257812 125.710938 29.320312 126.277344 29.398438 C 126.511719 29.425781 126.722656 29.375 126.789062 29.113281 C 126.867188 28.839844 126.65625 28.695312 126.460938 28.628906 C 125.882812 28.417969 125.277344 28.328125 124.675781 28.589844 C 124.53125 28.640625 124.425781 28.785156 124.242188 28.929688 Z M 126.761719 35.085938 C 126.550781 34.589844 126.5 34.535156 126.078125 34.5625 C 125.59375 34.601562 125.109375 34.667969 124.621094 34.734375 C 124.519531 34.746094 124.425781 34.824219 124.332031 34.875 C 124.820312 35.648438 126 35.726562 126.761719 35.085938 Z M 167.25 35.59375 C 167.355469 35.332031 167.417969 35.152344 167.472656 34.980469 C 167.746094 34.941406 167.984375 34.902344 168.246094 34.851562 C 167.957031 34.378906 167.667969 34.261719 167.171875 34.367188 C 166.605469 34.484375 166.226562 34.824219 166.121094 35.398438 C 166.488281 35.476562 166.839844 35.53125 167.25 35.59375 Z M 149.316406 29.074219 C 148.855469 28.902344 147.570312 28.851562 147.019531 28.996094 C 147.03125 29.4375 147.359375 29.582031 147.6875 29.675781 C 148.371094 29.859375 148.910156 29.636719 149.316406 29.074219 Z M 153.097656 29.058594 C 152.28125 29.058594 151.574219 29.058594 150.851562 29.058594 C 151.023438 29.519531 151.167969 29.648438 151.5625 29.6875 C 152.136719 29.753906 152.675781 29.6875 153.097656 29.058594 Z M 154.699219 29.085938 C 154.789062 29.503906 154.894531 29.636719 155.277344 29.6875 C 155.972656 29.804688 156.417969 29.636719 156.757812 29.085938 C 156.050781 29.085938 155.382812 29.085938 154.699219 29.085938 Z M 160.566406 29.097656 C 159.832031 29.097656 159.175781 29.097656 158.492188 29.097656 C 158.675781 29.597656 158.730469 29.648438 159.136719 29.699219 C 159.699219 29.777344 160.171875 29.675781 160.566406 29.097656 Z M 142.214844 27.453125 C 142.59375 27.453125 142.84375 27.21875 142.84375 26.851562 C 142.84375 26.523438 142.621094 26.328125 142.28125 26.328125 C 141.925781 26.328125 141.648438 26.601562 141.636719 26.957031 C 141.636719 27.28125 141.832031 27.453125 142.214844 27.453125 Z M 146.453125 27.492188 C 146.808594 27.503906 147.097656 27.230469 147.109375 26.890625 C 147.125 26.578125 146.886719 26.328125 146.574219 26.328125 C 146.230469 26.316406 145.929688 26.601562 145.914062 26.941406 C 145.902344 27.257812 146.113281 27.480469 146.453125 27.492188 Z M 149.238281 26.863281 C 149.238281 26.5625 149.039062 26.355469 148.726562 26.34375 C 148.371094 26.328125 148.082031 26.589844 148.054688 26.941406 C 148.042969 27.269531 148.253906 27.503906 148.59375 27.503906 C 148.933594 27.492188 149.222656 27.203125 149.238281 26.863281 Z M 144.339844 27.492188 C 144.695312 27.492188 144.984375 27.203125 144.984375 26.851562 C 144.984375 26.539062 144.734375 26.316406 144.40625 26.300781 C 144.066406 26.300781 143.777344 26.589844 143.777344 26.941406 C 143.777344 27.28125 144 27.503906 144.339844 27.492188 Z M 150.734375 27.503906 C 151.089844 27.492188 151.363281 27.191406 151.351562 26.851562 C 151.335938 26.5625 151.113281 26.328125 150.8125 26.328125 C 150.445312 26.328125 150.144531 26.65625 150.167969 27.019531 C 150.207031 27.335938 150.417969 27.519531 150.734375 27.503906 Z M 152.820312 27.503906 C 153.175781 27.519531 153.476562 27.257812 153.492188 26.902344 C 153.503906 26.589844 153.253906 26.328125 152.964844 26.328125 C 152.636719 26.328125 152.335938 26.628906 152.335938 26.96875 C 152.324219 27.28125 152.507812 27.492188 152.820312 27.503906 Z M 154.949219 27.503906 C 155.289062 27.519531 155.589844 27.242188 155.617188 26.902344 C 155.628906 26.589844 155.394531 26.328125 155.09375 26.328125 C 154.765625 26.328125 154.476562 26.628906 154.460938 26.96875 C 154.449219 27.28125 154.644531 27.492188 154.949219 27.503906 Z M 157.21875 26.355469 C 156.890625 26.34375 156.628906 26.589844 156.601562 26.917969 C 156.574219 27.21875 156.773438 27.464844 157.0625 27.492188 C 157.414062 27.519531 157.757812 27.203125 157.757812 26.851562 C 157.746094 26.5625 157.546875 26.382812 157.21875 26.355469 Z M 133.707031 27.21875 C 133.707031 27.21875 133.707031 27.230469 133.707031 27.21875 C 133.785156 27.21875 133.863281 27.21875 133.945312 27.21875 C 134.128906 27.21875 134.351562 27.21875 134.375 27.007812 C 134.390625 26.839844 134.324219 26.617188 134.207031 26.484375 C 134.046875 26.300781 133.800781 26.25 133.550781 26.328125 C 133.285156 26.40625 133.0625 26.734375 133.117188 26.957031 C 133.183594 27.257812 133.429688 27.191406 133.640625 27.203125 C 133.667969 27.230469 133.679688 27.21875 133.707031 27.21875 Z M 159.253906 27.503906 C 159.59375 27.503906 159.882812 27.203125 159.871094 26.863281 C 159.859375 26.550781 159.648438 26.34375 159.359375 26.34375 C 159.03125 26.34375 158.730469 26.640625 158.730469 26.980469 C 158.742188 27.28125 158.964844 27.503906 159.253906 27.503906 Z M 165.1875 26.957031 C 165.1875 27.269531 165.382812 27.503906 165.671875 27.492188 C 165.988281 27.480469 166.277344 27.203125 166.277344 26.890625 C 166.277344 26.578125 166.054688 26.328125 165.792969 26.34375 C 165.476562 26.355469 165.199219 26.640625 165.1875 26.957031 Z M 161.378906 27.503906 C 161.722656 27.503906 162.023438 27.191406 162.011719 26.851562 C 161.996094 26.539062 161.773438 26.316406 161.484375 26.328125 C 161.171875 26.355469 160.894531 26.640625 160.894531 26.957031 C 160.882812 27.269531 161.105469 27.519531 161.378906 27.503906 Z M 162.3125 29.125 C 162.390625 29.492188 162.589844 29.6875 162.917969 29.714844 C 163.441406 29.753906 163.914062 29.675781 164.308594 29.125 C 163.597656 29.125 162.980469 29.125 162.3125 29.125 Z M 135.320312 27.21875 C 135.570312 27.230469 135.847656 27.257812 136.109375 27.242188 C 136.242188 27.230469 136.410156 27.140625 136.464844 27.035156 C 136.515625 26.917969 136.488281 26.722656 136.425781 26.601562 C 136.28125 26.34375 135.925781 26.25 135.648438 26.355469 C 135.347656 26.472656 135.242188 26.722656 135.320312 27.21875 Z M 164.125 26.863281 C 164.125 26.539062 163.902344 26.300781 163.625 26.328125 C 163.335938 26.355469 163.046875 26.667969 163.046875 26.980469 C 163.046875 27.296875 163.257812 27.519531 163.558594 27.503906 C 163.886719 27.480469 164.125 27.203125 164.125 26.863281 Z M 140.191406 27.320312 C 140.597656 27.320312 140.730469 27.21875 140.730469 26.878906 C 140.742188 26.539062 140.480469 26.300781 140.125 26.316406 C 139.785156 26.328125 139.496094 26.628906 139.507812 26.96875 C 139.523438 27.242188 139.652344 27.308594 140.191406 27.320312 Z M 138.511719 27.269531 C 138.644531 26.65625 138.539062 26.421875 138.171875 26.328125 C 137.816406 26.238281 137.449219 26.484375 137.382812 26.839844 C 137.332031 27.113281 137.433594 27.242188 137.710938 27.269531 C 137.972656 27.28125 138.234375 27.269531 138.511719 27.269531 Z M 169.507812 26.980469 C 169.507812 27.28125 169.675781 27.492188 169.941406 27.503906 C 170.253906 27.503906 170.53125 27.230469 170.53125 26.902344 C 170.542969 26.601562 170.308594 26.328125 170.058594 26.34375 C 169.769531 26.355469 169.507812 26.65625 169.507812 26.980469 Z M 167.355469 27.007812 C 167.367188 27.320312 167.539062 27.519531 167.800781 27.519531 C 168.113281 27.519531 168.378906 27.230469 168.390625 26.890625 C 168.390625 26.578125 168.179688 26.328125 167.90625 26.355469 C 167.589844 26.367188 167.355469 26.65625 167.355469 27.007812 Z M 131.726562 27.203125 C 132.132812 27.21875 132.222656 27.191406 132.261719 27.007812 C 132.328125 26.773438 132.144531 26.472656 131.882812 26.355469 C 131.605469 26.238281 131.265625 26.328125 131.109375 26.578125 C 130.898438 26.890625 131.003906 27.125 131.382812 27.179688 C 131.488281 27.191406 131.605469 27.203125 131.726562 27.203125 Z M 171.648438 27.007812 C 171.660156 27.320312 171.832031 27.503906 172.105469 27.492188 C 172.433594 27.480469 172.671875 27.191406 172.65625 26.851562 C 172.644531 26.550781 172.433594 26.328125 172.183594 26.34375 C 171.894531 26.367188 171.648438 26.667969 171.648438 27.007812 Z M 166.144531 29.113281 C 166.25 29.558594 166.472656 29.699219 166.828125 29.714844 C 167.3125 29.726562 167.734375 29.648438 168.050781 29.164062 C 167.378906 29.097656 166.789062 29.085938 166.144531 29.113281 Z M 176.949219 26.878906 C 176.9375 26.578125 176.738281 26.367188 176.492188 26.382812 C 176.1875 26.394531 175.925781 26.722656 175.953125 27.046875 C 175.964844 27.308594 176.164062 27.519531 176.386719 27.519531 C 176.6875 27.503906 176.964844 27.191406 176.949219 26.878906 Z M 173.800781 26.917969 C 173.761719 27.21875 173.917969 27.464844 174.152344 27.503906 C 174.457031 27.558594 174.769531 27.296875 174.796875 26.957031 C 174.824219 26.640625 174.625 26.355469 174.378906 26.34375 C 174.128906 26.328125 173.839844 26.601562 173.800781 26.917969 Z M 121.617188 27.113281 C 121.5625 26.433594 121.222656 26.160156 120.75 26.328125 C 120.527344 26.40625 120.371094 26.667969 120.410156 26.878906 C 120.449219 27.113281 120.644531 27.113281 120.816406 27.113281 C 121.078125 27.125 121.328125 27.113281 121.617188 27.113281 Z M 128.96875 27.125 C 129.347656 27.125 129.730469 27.125 130.097656 27.125 C 130.203125 26.734375 130.070312 26.472656 129.753906 26.367188 C 129.558594 26.300781 129.28125 26.355469 129.097656 26.460938 C 128.863281 26.589844 128.796875 26.839844 128.96875 27.125 Z M 178.511719 27.503906 C 178.789062 27.519531 179.0625 27.242188 179.101562 26.941406 C 179.128906 26.628906 178.917969 26.34375 178.671875 26.355469 C 178.394531 26.367188 178.132812 26.640625 178.117188 26.941406 C 178.078125 27.230469 178.277344 27.492188 178.511719 27.503906 Z M 122.613281 27.113281 C 122.980469 27.113281 123.347656 27.113281 123.71875 27.113281 C 123.820312 26.785156 123.71875 26.523438 123.453125 26.40625 C 123.269531 26.328125 122.980469 26.316406 122.796875 26.394531 C 122.535156 26.484375 122.46875 26.746094 122.613281 27.113281 Z M 125.855469 27.113281 C 125.855469 26.511719 125.648438 26.300781 125.148438 26.316406 C 124.78125 26.328125 124.648438 26.5625 124.726562 27.113281 C 125.082031 27.113281 125.449219 27.113281 125.855469 27.113281 Z M 127.957031 27.140625 C 128.0625 26.722656 127.917969 26.484375 127.628906 26.355469 C 127.378906 26.25 127.128906 26.277344 126.921875 26.472656 C 126.722656 26.683594 126.695312 26.902344 126.867188 27.140625 C 127.25 27.140625 127.589844 27.140625 127.957031 27.140625 Z M 180.808594 26.355469 C 180.519531 26.355469 180.285156 26.667969 180.285156 27.023438 C 180.285156 27.335938 180.429688 27.503906 180.679688 27.503906 C 180.980469 27.503906 181.269531 27.203125 181.269531 26.890625 C 181.269531 26.628906 181.03125 26.355469 180.808594 26.355469 Z M 170.003906 29.152344 C 170.109375 29.636719 170.398438 29.714844 170.765625 29.714844 C 171.1875 29.714844 171.527344 29.582031 171.816406 29.152344 C 171.160156 29.152344 170.609375 29.152344 170.003906 29.152344 Z M 119.488281 27.035156 C 119.425781 26.445312 119.148438 26.210938 118.703125 26.300781 C 118.453125 26.355469 118.296875 26.550781 118.308594 26.8125 C 118.320312 27.101562 118.542969 27.085938 118.742188 27.085938 C 118.992188 27.074219 119.238281 27.046875 119.488281 27.035156 Z M 122.996094 35.074219 C 122.546875 34.96875 121.445312 35.074219 120.972656 35.242188 C 121.617188 35.632812 122.402344 35.582031 122.996094 35.074219 Z M 117.351562 26.996094 C 117.285156 26.445312 117.074219 26.25 116.667969 26.289062 C 116.324219 26.316406 116.234375 26.472656 116.261719 26.996094 C 116.613281 26.996094 116.957031 26.996094 117.351562 26.996094 Z M 122.914062 28.941406 C 122.535156 28.367188 121.5625 28.25 120.777344 28.707031 C 121.539062 28.785156 122.207031 28.863281 122.914062 28.941406 Z M 169.179688 38.273438 C 168.941406 38.078125 168.824219 37.921875 168.667969 37.882812 C 168.457031 37.816406 168.246094 38.039062 168.246094 38.25 C 168.246094 38.484375 168.429688 38.574219 168.601562 38.546875 C 168.757812 38.535156 168.914062 38.40625 169.179688 38.273438 Z M 89.375 24.929688 C 89.074219 24.929688 88.835938 24.929688 88.546875 24.929688 C 88.574219 25.140625 88.601562 25.296875 88.613281 25.464844 C 88.863281 25.464844 89.074219 25.464844 89.28125 25.464844 C 89.320312 25.285156 89.347656 25.125 89.375 24.929688 Z M 87.183594 25.480469 C 87.183594 25.269531 87.183594 25.101562 87.183594 24.929688 C 86.917969 24.929688 86.710938 24.929688 86.460938 24.929688 C 86.472656 25.125 86.484375 25.296875 86.5 25.480469 C 86.734375 25.480469 86.917969 25.480469 87.183594 25.480469 Z M 82.929688 25.464844 C 82.953125 25.285156 82.96875 25.101562 82.996094 24.917969 C 82.730469 24.917969 82.507812 24.917969 82.234375 24.917969 C 82.257812 25.113281 82.273438 25.285156 82.296875 25.464844 C 82.523438 25.464844 82.71875 25.464844 82.929688 25.464844 Z M 84.347656 24.917969 C 84.386719 25.542969 84.386719 25.542969 85.070312 25.441406 C 85.082031 25.285156 85.09375 25.113281 85.109375 24.917969 C 84.84375 24.917969 84.621094 24.917969 84.347656 24.917969 Z M 175.296875 35.492188 C 175.296875 35.453125 175.296875 35.398438 175.296875 35.359375 C 174.796875 35.332031 174.296875 35.308594 173.8125 35.28125 C 174.296875 35.632812 174.796875 35.59375 175.296875 35.492188 Z M 179.101562 35.386719 C 178.683594 35.386719 178.25 35.386719 177.828125 35.386719 C 178.25 35.570312 178.683594 35.632812 179.101562 35.386719 Z M 95.675781 24.851562 C 95.375 24.96875 95.175781 25.101562 95.214844 25.402344 C 95.675781 25.53125 95.675781 25.53125 95.675781 24.851562 Z M 90.84375 24.96875 C 90.804688 25.007812 90.753906 25.035156 90.714844 25.074219 C 90.675781 25.53125 90.6875 25.542969 91.226562 25.347656 C 91.082031 25.203125 90.960938 25.085938 90.84375 24.96875 Z M 80.734375 25.480469 C 80.75 25.347656 80.75 25.230469 80.777344 25.007812 C 80.488281 25.191406 80.472656 25.324219 80.734375 25.480469 Z M 80.734375 25.480469 " fill-opacity="1" fill-rule="nonzero"/></g></svg>