<svg xmlns="http://www.w3.org/2000/svg" xmlns:xlink="http://www.w3.org/1999/xlink" width="240" zoomAndPan="magnify" viewBox="0 0 180 179.999997" height="240" preserveAspectRatio="xMidYMid meet" version="1.0"><defs><clipPath id="ad86ca85ed"><path d="M 26.183594 26.324219 L 153.816406 26.324219 L 153.816406 153.675781 L 26.183594 153.675781 Z M 26.183594 26.324219 " clip-rule="nonzero"/></clipPath><clipPath id="63ec41294c"><path d="M 13 114 L 83 114 L 83 177 L 13 177 Z M 13 114 " clip-rule="nonzero"/></clipPath><clipPath id="c771f2a3ed"><path d="M 75.339844 113.683594 L 90.125 145.683594 L 15.230469 180.285156 L 0.445312 148.28125 Z M 75.339844 113.683594 " clip-rule="nonzero"/></clipPath><clipPath id="e6445bdba0"><path d="M 89.996094 145.410156 L 75.214844 113.40625 L 0.320312 148.007812 L 15.101562 180.007812 Z M 89.996094 145.410156 " clip-rule="nonzero"/></clipPath><clipPath id="e35a5e66cf"><path d="M 96 34 L 164 34 L 164 100 L 96 100 Z M 96 34 " clip-rule="nonzero"/></clipPath><clipPath id="204dc80ab4"><path d="M 161.855469 30.667969 L 178.367188 61.808594 L 104.816406 100.808594 L 88.304688 69.667969 Z M 161.855469 30.667969 " clip-rule="nonzero"/></clipPath><clipPath id="d6266be342"><path d="M 88.460938 69.585938 L 104.972656 100.726562 L 178.523438 61.726562 L 162.007812 30.585938 Z M 88.460938 69.585938 " clip-rule="nonzero"/></clipPath><clipPath id="01de31cf5e"><path d="M 100 121 L 161 121 L 161 176 L 100 176 Z M 100 121 " clip-rule="nonzero"/></clipPath><clipPath id="7db11052b8"><path d="M 172.480469 150.46875 L 159.691406 178.433594 L 94.214844 148.488281 L 107.003906 120.523438 Z M 172.480469 150.46875 " clip-rule="nonzero"/></clipPath><clipPath id="7e0dee1d40"><path d="M 94.316406 148.261719 L 107.105469 120.300781 L 172.582031 150.242188 L 159.792969 178.207031 Z M 94.316406 148.261719 " clip-rule="nonzero"/></clipPath><clipPath id="83bca1b85a"><path d="M 16 32 L 80 32 L 80 102 L 16 102 Z M 16 32 " clip-rule="nonzero"/></clipPath><clipPath id="7ea805b947"><path d="M 88.457031 72.527344 L 69.9375 102.519531 L -0.894531 58.773438 L 17.628906 28.78125 Z M 88.457031 72.527344 " clip-rule="nonzero"/></clipPath><clipPath id="96c371a43f"><path d="M 88.457031 72.527344 L 69.9375 102.519531 L -0.894531 58.773438 L 17.628906 28.78125 Z M 88.457031 72.527344 " clip-rule="nonzero"/></clipPath><clipPath id="0fd6f8dfea"><path d="M 89 35 L 108 35 L 108 78 L 89 78 Z M 89 35 " clip-rule="nonzero"/></clipPath><clipPath id="45ac829050"><path d="M 18.003906 89.996094 L 90.128906 17.871094 L 162.253906 89.996094 L 90.128906 162.121094 Z M 18.003906 89.996094 " clip-rule="nonzero"/></clipPath><clipPath id="c46a6ac685"><path d="M 18.003906 89.996094 L 90.128906 17.871094 L 162.253906 89.996094 L 90.128906 162.121094 Z M 18.003906 89.996094 " clip-rule="nonzero"/></clipPath><clipPath id="0919cd4d44"><path d="M 18.003906 89.996094 L 90.128906 17.871094 L 162.253906 89.996094 L 90.128906 162.121094 Z M 18.003906 89.996094 " clip-rule="nonzero"/></clipPath><clipPath id="7edd0c1278"><path d="M 72 35 L 91 35 L 91 78 L 72 78 Z M 72 35 " clip-rule="nonzero"/></clipPath><clipPath id="a3f4d25841"><path d="M 18.003906 89.996094 L 90.128906 17.871094 L 162.253906 89.996094 L 90.128906 162.121094 Z M 18.003906 89.996094 " clip-rule="nonzero"/></clipPath><clipPath id="dbc92b17a7"><path d="M 18.003906 89.996094 L 90.128906 17.871094 L 162.253906 89.996094 L 90.128906 162.121094 Z M 18.003906 89.996094 " clip-rule="nonzero"/></clipPath><clipPath id="68ab95f020"><path d="M 18.003906 89.996094 L 90.128906 17.871094 L 162.253906 89.996094 L 90.128906 162.121094 Z M 18.003906 89.996094 " clip-rule="nonzero"/></clipPath><clipPath id="a5659d7a51"><path d="M 68 70 L 112 70 L 112 151 L 68 151 Z M 68 70 " clip-rule="nonzero"/></clipPath><clipPath id="44a7810c9f"><path d="M 18.003906 89.996094 L 90.128906 17.871094 L 162.253906 89.996094 L 90.128906 162.121094 Z M 18.003906 89.996094 " clip-rule="nonzero"/></clipPath><clipPath id="cd7a5702ae"><path d="M 18.003906 89.996094 L 90.128906 17.871094 L 162.253906 89.996094 L 90.128906 162.121094 Z M 18.003906 89.996094 " clip-rule="nonzero"/></clipPath><clipPath id="d979d48dd7"><path d="M 18.003906 89.996094 L 90.128906 17.871094 L 162.253906 89.996094 L 90.128906 162.121094 Z M 18.003906 89.996094 " clip-rule="nonzero"/></clipPath><clipPath id="91f166f7b5"><path d="M 71.375 82.523438 L 107.375 82.523438 L 107.375 118.523438 L 71.375 118.523438 Z M 71.375 82.523438 " clip-rule="nonzero"/></clipPath></defs><path fill="#a9bab4" d="M 18 18 L 162 18 L 162 162 L 18 162 Z M 18 18 " fill-opacity="1" fill-rule="nonzero"/><g clip-path="url(#ad86ca85ed)"><path fill="#50665a" d="M 26.183594 26.324219 L 154.027344 26.324219 L 154.027344 153.675781 L 26.183594 153.675781 Z M 26.183594 26.324219 " fill-opacity="1" fill-rule="nonzero"/></g><g clip-path="url(#63ec41294c)"><g clip-path="url(#c771f2a3ed)"><g clip-path="url(#e6445bdba0)"><path fill="#ffffff" d="M 46.191406 127.148438 L 53.058594 142.011719 L 75.324219 114.386719 L 82.847656 130.675781 L 52.273438 162.835938 L 45.9375 149.117188 L 13.820312 176.4375 Z M 46.191406 127.148438 " fill-opacity="1" fill-rule="nonzero"/></g></g></g><g clip-path="url(#e35a5e66cf)"><g clip-path="url(#204dc80ab4)"><g clip-path="url(#d6266be342)"><path fill="#ffffff" d="M 133.523438 85.535156 L 125.796875 70.964844 L 104.925781 99.980469 L 96.457031 84.011719 L 125.4375 49.976562 L 132.566406 63.425781 L 163.363281 34.175781 Z M 133.523438 85.535156 " fill-opacity="1" fill-rule="nonzero"/></g></g></g><g clip-path="url(#01de31cf5e)"><g clip-path="url(#7db11052b8)"><g clip-path="url(#7e0dee1d40)"><path fill="#ffffff" d="M 132.496094 132.179688 L 126.550781 145.175781 L 107.023438 121.136719 L 100.511719 135.382812 L 127.304688 163.351562 L 132.792969 151.355469 L 160.917969 175.09375 Z M 132.496094 132.179688 " fill-opacity="1" fill-rule="nonzero"/></g></g></g><g clip-path="url(#83bca1b85a)"><g clip-path="url(#7ea805b947)"><g clip-path="url(#96c371a43f)"><path fill="#ffffff" d="M 42.445312 85.484375 L 51.109375 71.453125 L 70.03125 101.777344 L 79.53125 86.398438 L 52.847656 50.535156 L 44.847656 63.488281 L 16.039062 32.273438 Z M 42.445312 85.484375 " fill-opacity="1" fill-rule="nonzero"/></g></g></g><g clip-path="url(#0fd6f8dfea)"><g clip-path="url(#45ac829050)"><g clip-path="url(#c46a6ac685)"><g clip-path="url(#0919cd4d44)"><path fill="#000000" d="M 107.394531 37.070312 C 107.394531 35.246094 106.796875 34.5 105.097656 36.203125 C 103.394531 37.90625 92.742188 48.554688 91.355469 49.945312 C 89.96875 51.332031 89.953125 51.433594 89.953125 52.957031 C 89.953125 54.480469 89.960938 77.929688 89.960938 77.929688 C 89.960938 77.929688 104.640625 63.253906 105.898438 61.996094 C 107.15625 60.734375 107.511719 60.179688 107.507812 58.660156 C 107.507812 57.140625 107.394531 38.890625 107.394531 37.070312 Z M 107.394531 37.070312 " fill-opacity="1" fill-rule="nonzero"/></g></g></g></g><g clip-path="url(#7edd0c1278)"><g clip-path="url(#a3f4d25841)"><g clip-path="url(#dbc92b17a7)"><g clip-path="url(#68ab95f020)"><path fill="#000000" d="M 72.859375 37.070312 C 72.859375 35.25 73.457031 34.5 75.15625 36.203125 C 76.855469 37.902344 87.507812 48.550781 88.894531 49.941406 C 90.285156 51.328125 90.300781 51.433594 90.300781 52.957031 C 90.300781 54.480469 90.292969 77.929688 90.292969 77.929688 C 90.292969 77.929688 75.613281 63.25 74.355469 61.992188 C 73.097656 60.734375 72.742188 60.179688 72.742188 58.65625 C 72.746094 57.140625 72.859375 38.890625 72.859375 37.070312 Z M 72.859375 37.070312 " fill-opacity="1" fill-rule="nonzero"/></g></g></g></g><g clip-path="url(#a5659d7a51)"><g clip-path="url(#44a7810c9f)"><g clip-path="url(#cd7a5702ae)"><g clip-path="url(#d979d48dd7)"><path fill="#000000" d="M 68.902344 129.390625 C 68.90625 141.113281 78.402344 150.617188 90.125 150.621094 C 101.84375 150.621094 111.351562 141.113281 111.351562 129.394531 C 111.347656 124.347656 111.351562 96.855469 111.351562 91.8125 C 111.351562 80.09375 101.847656 70.589844 90.125 70.582031 C 78.398438 70.582031 68.902344 80.085938 68.898438 91.808594 C 68.90625 96.855469 68.902344 124.347656 68.902344 129.390625 Z M 68.902344 129.390625 " fill-opacity="1" fill-rule="nonzero"/></g></g></g></g><path fill="#ffffff" d="M 92.089844 95.582031 L 96.078125 88.726562 C 94.085938 87.5625 91.777344 86.882812 89.304688 86.875 C 86.828125 86.871094 84.511719 87.53125 82.511719 88.683594 L 86.457031 95.5625 C 87.292969 95.089844 88.242188 94.792969 89.277344 94.792969 C 90.304688 94.792969 91.253906 95.101562 92.089844 95.582031 Z M 92.089844 95.582031 " fill-opacity="1" fill-rule="nonzero"/><path fill="#ffffff" d="M 83.601562 100.433594 L 75.679688 100.40625 C 75.667969 105.425781 78.390625 109.816406 82.4375 112.175781 L 86.421875 105.324219 C 84.742188 104.332031 83.597656 102.523438 83.601562 100.433594 Z M 83.601562 100.433594 " fill-opacity="1" fill-rule="nonzero"/><path fill="#ffffff" d="M 94.914062 100.46875 C 94.90625 102.566406 93.75 104.363281 92.0625 105.339844 L 96.003906 112.21875 C 100.070312 109.886719 102.824219 105.519531 102.835938 100.496094 Z M 94.914062 100.46875 " fill-opacity="1" fill-rule="nonzero"/><path fill="#ffffff" d="M 92.023438 100.46875 C 92.023438 100.835938 91.953125 101.1875 91.8125 101.527344 C 91.671875 101.867188 91.472656 102.167969 91.214844 102.425781 C 90.953125 102.683594 90.65625 102.882812 90.316406 103.023438 C 89.976562 103.164062 89.625 103.234375 89.257812 103.234375 C 88.890625 103.234375 88.539062 103.164062 88.199219 103.023438 C 87.859375 102.882812 87.5625 102.683594 87.300781 102.425781 C 87.042969 102.167969 86.84375 101.867188 86.703125 101.527344 C 86.5625 101.1875 86.492188 100.835938 86.492188 100.46875 C 86.492188 100.101562 86.5625 99.75 86.703125 99.410156 C 86.84375 99.074219 87.042969 98.773438 87.300781 98.515625 C 87.5625 98.253906 87.859375 98.054688 88.199219 97.914062 C 88.539062 97.773438 88.890625 97.703125 89.257812 97.703125 C 89.625 97.703125 89.976562 97.773438 90.316406 97.914062 C 90.65625 98.054688 90.953125 98.253906 91.214844 98.515625 C 91.472656 98.773438 91.671875 99.074219 91.8125 99.410156 C 91.953125 99.75 92.023438 100.101562 92.023438 100.46875 Z M 92.023438 100.46875 " fill-opacity="1" fill-rule="nonzero"/><g clip-path="url(#91f166f7b5)"><path fill="#ffffff" d="M 89.257812 82.425781 C 79.34375 82.425781 71.28125 90.492188 71.28125 100.40625 C 71.28125 110.324219 79.34375 118.390625 89.257812 118.390625 C 99.171875 118.390625 107.238281 110.324219 107.238281 100.40625 C 107.238281 90.492188 99.171875 82.425781 89.257812 82.425781 Z M 89.257812 116.941406 C 80.144531 116.941406 72.726562 109.523438 72.726562 100.40625 C 72.726562 91.292969 80.144531 83.875 89.257812 83.875 C 98.371094 83.875 105.789062 91.292969 105.789062 100.40625 C 105.789062 109.523438 98.371094 116.941406 89.257812 116.941406 Z M 89.257812 116.941406 " fill-opacity="1" fill-rule="nonzero"/></g></svg>