<svg xmlns="http://www.w3.org/2000/svg" xmlns:xlink="http://www.w3.org/1999/xlink" width="100" zoomAndPan="magnify" viewBox="0 0 75 74.999997" height="100" preserveAspectRatio="xMidYMid meet" version="1.2"><defs><clipPath id="89f0e0c68c"><path d="M 14 2.28125 L 60 2.28125 L 60 19 L 14 19 Z M 14 2.28125 "/></clipPath><clipPath id="b6750644e5"><path d="M 27 51 L 48 51 L 48 72.78125 L 27 72.78125 Z M 27 51 "/></clipPath><clipPath id="df9602462e"><path d="M 17.769531 22.230469 L 28.773438 22.230469 L 28.773438 33.238281 L 17.769531 33.238281 Z M 17.769531 22.230469 "/></clipPath><clipPath id="62d5c55fe7"><path d="M 23.269531 22.230469 C 20.230469 22.230469 17.769531 24.695312 17.769531 27.734375 C 17.769531 30.773438 20.230469 33.238281 23.269531 33.238281 C 26.308594 33.238281 28.773438 30.773438 28.773438 27.734375 C 28.773438 24.695312 26.308594 22.230469 23.269531 22.230469 Z M 23.269531 22.230469 "/></clipPath></defs><g id="a4ec833331"><path style=" stroke:none;fill-rule:nonzero;fill:#000000;fill-opacity:1;" d="M 7.761719 68.21875 C 7.597656 68.414062 6.625 67.863281 5.734375 66.851562 C 4.835938 65.835938 4.390625 64.808594 4.609375 64.664062 C 4.832031 64.515625 5.59375 65.257812 6.445312 66.214844 C 7.292969 67.171875 7.9375 68.019531 7.761719 68.21875 Z M 4.066406 59.5 C 4.070312 59.234375 4.710938 59.042969 5.480469 59.175781 C 6.246094 59.304688 6.789062 59.695312 6.710938 59.941406 C 6.632812 60.199219 6.023438 60.234375 5.320312 60.113281 C 4.625 59.992188 4.054688 59.769531 4.066406 59.5 Z M 2.132812 50.585938 C 1.8125 51.628906 1.347656 52.414062 1.09375 52.332031 C 0.847656 52.253906 0.898438 51.34375 1.222656 50.304688 C 1.550781 49.257812 2.015625 48.476562 2.269531 48.558594 C 2.515625 48.636719 2.460938 49.542969 2.132812 50.585938 Z M 0.109375 44.554688 C 0.117188 44.96875 0.121094 45.386719 0.101562 45.800781 C 0.0195312 47.453125 0.0117188 49.128906 0.0820312 50.773438 C 0.109375 51.429688 0.144531 52.03125 0.1875 52.605469 C 0.222656 52.613281 0.257812 52.613281 0.296875 52.625 C 0.699219 52.738281 0.949219 53.058594 1.148438 53.386719 C 3.027344 56.363281 3.644531 59.960938 3.992188 63.089844 C 4.019531 63.347656 4.09375 64.097656 3.585938 64.488281 C 3.734375 64.757812 3.890625 65.015625 4.046875 65.273438 C 5.296875 67.230469 6.589844 69.25 8.164062 70.957031 C 8.433594 71.25 8.746094 71.558594 9.054688 71.707031 C 8.734375 67.535156 8.277344 63.117188 6.796875 58.75 C 5.105469 53.785156 2.863281 49.011719 0.109375 44.554688 "/><path style=" stroke:none;fill-rule:nonzero;fill:#000000;fill-opacity:1;" d="M 12.066406 53.96875 C 11.53125 52.574219 10.960938 51.207031 10.476562 50.066406 C 10.355469 49.789062 10.242188 49.511719 10.128906 49.242188 C 9.773438 48.375 9.441406 47.558594 8.964844 46.75 C 7.738281 44.652344 6.359375 42.835938 4.851562 41.34375 C 3.628906 41.699219 2.410156 42.085938 1.214844 42.503906 C 0.882812 42.621094 0.613281 42.746094 0.394531 42.882812 C 3.496094 47.722656 6.015625 52.933594 7.863281 58.382812 C 9.382812 62.863281 9.855469 67.355469 10.179688 71.585938 C 10.214844 71.566406 10.25 71.558594 10.28125 71.542969 C 11.714844 70.96875 13.148438 70.316406 14.570312 69.605469 C 15.0625 66.382812 14.761719 62.753906 13.691406 58.824219 C 13.277344 57.328125 12.753906 55.746094 12.066406 53.96875 "/><path style=" stroke:none;fill-rule:nonzero;fill:#000000;fill-opacity:1;" d="M 59.035156 41.515625 C 59.121094 41.457031 59.199219 41.394531 59.277344 41.328125 C 57.929688 41.726562 56.707031 41.9375 55.566406 41.9375 C 54.683594 41.9375 53.851562 41.820312 53.050781 41.589844 C 52.011719 41.289062 51.074219 40.761719 50.164062 40.257812 L 49.640625 39.96875 C 49.214844 39.730469 48.777344 39.5 48.347656 39.273438 C 46.820312 38.464844 45.238281 37.628906 43.804688 36.519531 C 42.988281 35.890625 42.214844 35.199219 41.511719 34.453125 C 40.894531 33.808594 40.363281 33.199219 39.917969 32.644531 C 39.691406 32.351562 39.480469 32.042969 39.285156 31.75 C 39.136719 31.527344 38.992188 31.316406 38.832031 31.105469 C 38.765625 31.003906 38.691406 30.902344 38.609375 30.792969 C 38.378906 30.464844 38.140625 30.125 37.886719 29.894531 C 37.769531 29.792969 37.671875 29.78125 37.609375 29.789062 C 37.160156 29.816406 36.574219 30.515625 36.378906 30.742188 C 36.121094 31.054688 35.898438 31.386719 35.660156 31.738281 C 35.457031 32.035156 35.25 32.34375 35.015625 32.644531 C 34.570312 33.203125 34.050781 33.796875 33.425781 34.453125 C 32.710938 35.199219 31.945312 35.898438 31.128906 36.519531 C 29.695312 37.628906 28.113281 38.464844 26.585938 39.273438 C 26.15625 39.5 25.726562 39.730469 25.292969 39.96875 L 24.769531 40.257812 C 23.863281 40.761719 22.925781 41.289062 21.890625 41.589844 C 20.027344 42.125 18.042969 42.039062 15.660156 41.332031 C 15.742188 41.394531 15.820312 41.457031 15.898438 41.515625 C 17.785156 42.304688 20.121094 42.367188 22.53125 41.65625 C 24.917969 40.949219 27.097656 39.625 29.136719 38.328125 C 31.113281 37.0625 33.183594 35.675781 34.835938 33.871094 C 35.0625 33.621094 35.273438 33.355469 35.488281 33.074219 C 35.644531 32.871094 35.800781 32.671875 35.960938 32.480469 L 36.085938 32.320312 C 36.453125 31.863281 37.21875 30.90625 38.3125 31.628906 C 38.632812 31.839844 38.832031 32.179688 39.007812 32.480469 C 39.070312 32.582031 39.125 32.679688 39.1875 32.761719 C 39.464844 33.136719 39.769531 33.511719 40.097656 33.871094 C 41.75 35.675781 43.820312 37.0625 45.800781 38.328125 C 47.835938 39.625 50.015625 40.949219 52.40625 41.65625 C 54.8125 42.367188 57.148438 42.304688 59.035156 41.515625 "/><path style=" stroke:none;fill-rule:nonzero;fill:#000000;fill-opacity:1;" d="M 0.4375 53.839844 C 0.382812 53.753906 0.324219 53.667969 0.269531 53.601562 C 0.320312 54.101562 0.371094 54.574219 0.425781 55.027344 C 0.453125 55.21875 0.527344 55.40625 0.605469 55.632812 C 0.6875 55.835938 0.777344 56.074219 0.839844 56.34375 C 0.894531 56.613281 0.953125 56.878906 1.007812 57.148438 C 1.089844 57.523438 1.167969 57.894531 1.257812 58.269531 C 1.765625 60.351562 2.386719 62.128906 3.144531 63.660156 C 3.167969 63.5625 3.171875 63.414062 3.152344 63.179688 C 2.804688 60.144531 2.21875 56.667969 0.4375 53.839844 "/><path style=" stroke:none;fill-rule:nonzero;fill:#000000;fill-opacity:1;" d="M 21.964844 60.117188 C 23.546875 59.484375 24.449219 57.84375 24.703125 56.3125 C 24.699219 56.25 24.703125 56.1875 24.726562 56.125 C 24.734375 56.113281 24.738281 56.097656 24.742188 56.085938 C 24.757812 55.988281 24.765625 55.894531 24.769531 55.796875 C 24.933594 53.609375 24.664062 51.398438 24.347656 49.34375 C 24.132812 47.917969 23.84375 46.433594 22.964844 45.40625 C 22.230469 44.550781 21.042969 43.984375 19.628906 43.816406 C 18.5625 43.683594 17.464844 43.777344 16.378906 43.90625 C 16.160156 44.097656 15.949219 44.300781 15.765625 44.527344 C 15.882812 44.773438 16.007812 45.015625 16.125 45.261719 C 18.195312 46.046875 19.929688 47.917969 20.890625 50.4375 C 21.828125 52.882812 22.28125 56.011719 22.136719 59.007812 C 22.121094 59.367188 22.078125 59.757812 21.964844 60.117188 "/><path style=" stroke:none;fill-rule:nonzero;fill:#000000;fill-opacity:1;" d="M 16.722656 46.492188 C 17.636719 48.410156 18.496094 50.34375 19.238281 52.324219 C 20.132812 54.6875 20.804688 56.953125 21.277344 59.144531 C 21.285156 59.089844 21.285156 59.027344 21.292969 58.972656 C 21.425781 56.078125 20.996094 53.082031 20.097656 50.746094 C 19.367188 48.832031 18.164062 47.347656 16.722656 46.492188 "/><path style=" stroke:none;fill-rule:nonzero;fill:#000000;fill-opacity:1;" d="M 51.117188 44.664062 C 51.722656 43.960938 52.554688 43.417969 53.535156 43.074219 C 53.058594 42.992188 52.574219 42.882812 52.085938 42.742188 C 50.140625 42.164062 48.355469 41.21875 46.679688 40.207031 C 47.835938 42.59375 48.875 45.046875 49.769531 47.550781 C 50.019531 46.5 50.40625 45.496094 51.117188 44.664062 "/><path style=" stroke:none;fill-rule:nonzero;fill:#000000;fill-opacity:1;" d="M 35.167969 61.707031 C 35.457031 62.363281 36.105469 62.839844 36.792969 62.886719 C 37.464844 62.929688 37.476562 62.929688 38.140625 62.886719 C 38.828125 62.839844 39.476562 62.363281 39.765625 61.707031 C 40.042969 61.070312 39.972656 60.253906 39.589844 59.636719 C 39.269531 59.125 38.734375 58.726562 38.128906 58.539062 C 38.113281 58.535156 38.101562 58.535156 38.085938 58.53125 C 37.988281 58.5 37.886719 58.480469 37.789062 58.460938 C 37.726562 58.449219 37.667969 58.429688 37.617188 58.394531 C 37.539062 58.394531 37.4375 58.410156 37.273438 58.4375 L 37.144531 58.460938 C 36.394531 58.585938 35.726562 59.027344 35.34375 59.636719 C 34.960938 60.253906 34.890625 61.070312 35.167969 61.707031 "/><path style=" stroke:none;fill-rule:nonzero;fill:#000000;fill-opacity:1;" d="M 11.597656 40.230469 C 11.46875 40.171875 11.355469 40.105469 11.242188 40.046875 C 11.117188 39.980469 10.9375 39.878906 10.871094 39.871094 C 9.167969 40.199219 7.460938 40.609375 5.777344 41.078125 C 7.207031 42.554688 8.523438 44.3125 9.699219 46.320312 C 10.199219 47.179688 10.546875 48.023438 10.917969 48.917969 C 11.023438 49.1875 11.136719 49.460938 11.253906 49.734375 C 11.746094 50.886719 12.316406 52.253906 12.859375 53.664062 C 13.554688 55.460938 14.09375 57.082031 14.503906 58.597656 C 15.550781 62.40625 15.871094 65.949219 15.480469 69.140625 C 17.144531 68.28125 18.796875 67.332031 20.433594 66.300781 C 20.378906 62.128906 19.472656 57.742188 17.65625 52.921875 C 16.023438 48.585938 13.859375 44.4375 11.597656 40.230469 "/><path style=" stroke:none;fill-rule:nonzero;fill:#000000;fill-opacity:1;" d="M 21.402344 43.074219 C 22.382812 43.425781 23.21875 43.960938 23.820312 44.664062 C 24.535156 45.496094 24.914062 46.5 25.164062 47.550781 C 26.058594 45.046875 27.097656 42.59375 28.253906 40.207031 C 26.578125 41.21875 24.792969 42.164062 22.851562 42.742188 C 22.363281 42.882812 21.878906 42.992188 21.402344 43.074219 "/><path style=" stroke:none;fill-rule:nonzero;fill:#000000;fill-opacity:1;" d="M 45.027344 33.105469 C 47.230469 34.78125 49.597656 36.269531 52.074219 37.535156 C 53.621094 38.328125 55.417969 39.0625 56.996094 38.511719 C 58.015625 38.148438 58.898438 37.226562 59.417969 35.980469 C 59.921875 34.765625 60.050781 33.371094 60.144531 32.164062 C 60.308594 29.816406 60.382812 27.0625 59.65625 24.417969 C 59.210938 22.789062 58.542969 21.695312 57.617188 21.082031 C 56.699219 20.464844 55.519531 20.320312 54.382812 20.261719 C 53.875 20.234375 53.375 20.214844 52.863281 20.214844 C 50.335938 20.214844 47.816406 20.566406 45.359375 21.25 L 44.9375 21.371094 C 43.902344 21.652344 42.726562 21.972656 41.890625 22.558594 C 41.371094 22.921875 41.136719 23.550781 40.886719 24.230469 L 40.835938 24.375 C 40.3125 25.792969 40.351562 27.253906 40.953125 28.585938 C 41.789062 30.476562 43.480469 31.929688 45.027344 33.105469 "/><path style=" stroke:none;fill-rule:nonzero;fill:#000000;fill-opacity:1;" d="M 15.515625 35.980469 C 16.035156 37.226562 16.921875 38.148438 17.9375 38.511719 C 19.515625 39.0625 21.3125 38.328125 22.859375 37.535156 C 25.335938 36.269531 27.707031 34.78125 29.910156 33.105469 C 30.683594 32.519531 31.492188 31.863281 32.210938 31.117188 C 32.933594 30.367188 33.566406 29.53125 33.988281 28.585938 C 34.582031 27.253906 34.621094 25.792969 34.097656 24.375 L 34.046875 24.230469 C 33.800781 23.558594 33.574219 22.921875 33.046875 22.558594 C 32.210938 21.972656 31.03125 21.652344 30 21.371094 L 29.574219 21.25 C 27.117188 20.566406 24.597656 20.214844 22.070312 20.214844 C 21.5625 20.214844 21.058594 20.234375 20.550781 20.261719 C 19.414062 20.320312 18.234375 20.464844 17.316406 21.082031 C 16.402344 21.691406 15.71875 22.8125 15.28125 24.410156 C 14.554688 27.0625 14.628906 29.816406 14.789062 32.164062 C 14.882812 33.371094 15.011719 34.765625 15.515625 35.980469 "/><g clip-rule="nonzero" clip-path="url(#89f0e0c68c)"><path style=" stroke:none;fill-rule:nonzero;fill:#000000;fill-opacity:1;" d="M 17.085938 16.503906 C 22.242188 15.085938 27.878906 15.195312 32.964844 16.820312 C 33.984375 17.148438 34.847656 17.507812 35.605469 17.917969 C 35.898438 18.078125 36.152344 18.273438 36.378906 18.445312 C 36.792969 18.761719 37.035156 18.9375 37.335938 18.941406 C 37.339844 18.941406 37.339844 18.941406 37.34375 18.941406 C 37.726562 18.941406 38.148438 18.660156 38.59375 18.367188 C 38.796875 18.234375 38.996094 18.105469 39.195312 17.992188 C 39.984375 17.550781 40.886719 17.164062 41.96875 16.820312 C 47.054688 15.195312 52.691406 15.085938 57.847656 16.503906 C 58.011719 16.550781 58.183594 16.59375 58.351562 16.632812 C 58.867188 16.757812 59.4375 16.90625 59.972656 17.179688 C 59.875 15.703125 59.730469 14.21875 59.414062 12.792969 C 58.917969 10.589844 58.0625 8.792969 56.867188 7.46875 C 55.351562 5.789062 53.089844 4.589844 49.738281 3.699219 C 47.714844 3.15625 45.429688 2.542969 43.386719 2.644531 C 42.207031 2.707031 41.148438 2.59375 40.125 2.488281 C 39.613281 2.433594 39.085938 2.371094 38.53125 2.339844 C 37.402344 2.265625 36.277344 2.320312 35.089844 2.378906 C 34.597656 2.402344 34.101562 2.425781 33.609375 2.441406 C 30.835938 2.519531 28.003906 2.945312 25.195312 3.699219 C 21.84375 4.589844 19.585938 5.789062 18.070312 7.46875 C 16.871094 8.792969 16.019531 10.589844 15.523438 12.800781 C 15.203125 14.21875 15.058594 15.703125 14.960938 17.179688 C 15.492188 16.90625 16.070312 16.757812 16.585938 16.632812 C 16.753906 16.59375 16.921875 16.550781 17.085938 16.503906 "/></g><path style=" stroke:none;fill-rule:nonzero;fill:#000000;fill-opacity:1;" d="M 39.527344 19.785156 C 38.949219 20.164062 38.230469 20.640625 37.34375 20.640625 C 37.335938 20.640625 37.324219 20.640625 37.3125 20.640625 C 36.441406 20.621094 35.835938 20.164062 35.351562 19.796875 C 35.160156 19.644531 34.972656 19.507812 34.792969 19.40625 C 34.128906 19.050781 33.367188 18.734375 32.453125 18.441406 C 30.605469 17.851562 28.675781 17.480469 26.734375 17.3125 C 28.113281 17.613281 29.433594 17.980469 30.644531 18.320312 C 31.988281 18.699219 33.507812 19.125 34.824219 19.945312 L 34.933594 20.003906 C 35.160156 20.148438 35.410156 20.300781 35.609375 20.511719 C 35.726562 20.632812 35.800781 20.765625 35.863281 20.878906 C 35.898438 20.9375 35.933594 21.007812 35.980469 21.0625 C 36.296875 21.476562 36.648438 21.761719 37.027344 21.894531 C 37.46875 22.058594 38.082031 22.015625 38.410156 21.613281 C 38.5 21.5 38.582031 21.378906 38.667969 21.269531 C 38.871094 20.988281 39.078125 20.707031 39.398438 20.445312 C 39.78125 20.128906 40.25 19.828125 40.832031 19.535156 C 41.957031 18.976562 43.144531 18.644531 44.292969 18.320312 C 45.5 17.984375 46.820312 17.613281 48.195312 17.3125 C 46.25 17.480469 44.328125 17.851562 42.484375 18.441406 C 41.519531 18.75 40.710938 19.085938 40.023438 19.476562 C 39.859375 19.566406 39.691406 19.679688 39.527344 19.785156 "/><path style=" stroke:none;fill-rule:nonzero;fill:#000000;fill-opacity:1;" d="M 43.738281 47.625 C 42.816406 47.066406 41.695312 46.667969 40.316406 46.398438 C 39.921875 46.320312 39.503906 46.253906 39.046875 46.191406 C 38.894531 46.175781 38.742188 46.179688 38.566406 46.191406 C 38.414062 46.203125 38.265625 46.214844 38.109375 46.207031 L 37.6875 46.1875 C 37.007812 46.15625 36.371094 46.125 35.707031 46.191406 C 34.050781 46.351562 32.496094 46.84375 31.199219 47.625 C 29.835938 48.433594 28.648438 49.722656 27.660156 51.445312 C 27.367188 51.960938 27.105469 52.5 26.859375 53.042969 C 27.878906 51.785156 29.167969 50.707031 30.648438 49.871094 C 31.863281 49.195312 33.214844 48.679688 34.65625 48.347656 C 35.058594 48.25 35.453125 48.234375 35.835938 48.210938 C 36.035156 48.199219 36.238281 48.195312 36.441406 48.171875 C 37.878906 48.019531 39.214844 48.085938 40.417969 48.382812 C 41.8125 48.714844 43.109375 49.21875 44.285156 49.871094 C 45.765625 50.707031 47.054688 51.785156 48.070312 53.039062 C 47.832031 52.492188 47.566406 51.960938 47.273438 51.445312 C 46.285156 49.722656 45.097656 48.433594 43.738281 47.625 "/><path style=" stroke:none;fill-rule:nonzero;fill:#000000;fill-opacity:1;" d="M 49.464844 49.210938 C 48.320312 45.839844 46.929688 42.53125 45.324219 39.363281 C 45.28125 39.335938 45.234375 39.304688 45.195312 39.277344 C 43.152344 37.976562 41.007812 36.542969 39.261719 34.632812 C 38.90625 34.246094 38.578125 33.835938 38.273438 33.429688 C 38.195312 33.316406 38.113281 33.1875 38.035156 33.050781 C 37.933594 32.875 37.789062 32.644531 37.691406 32.574219 C 37.527344 32.460938 37.460938 32.417969 36.96875 33.03125 L 36.824219 33.203125 C 36.671875 33.390625 36.523438 33.578125 36.382812 33.761719 C 36.15625 34.050781 35.933594 34.351562 35.671875 34.632812 C 33.925781 36.542969 31.785156 37.976562 29.738281 39.277344 C 29.699219 39.304688 29.65625 39.335938 29.609375 39.363281 C 28.003906 42.535156 26.613281 45.847656 25.472656 49.210938 C 25.535156 49.625 25.597656 50.046875 25.65625 50.472656 C 25.933594 49.753906 26.246094 49.035156 26.632812 48.347656 C 27.714844 46.394531 29.316406 44.789062 31.265625 43.703125 C 33.164062 42.652344 35.300781 42.128906 37.464844 42.203125 C 39.636719 42.128906 41.769531 42.644531 43.671875 43.703125 C 45.617188 44.789062 47.21875 46.394531 48.304688 48.347656 C 48.6875 49.03125 49 49.753906 49.28125 50.472656 C 49.339844 50.046875 49.398438 49.625 49.464844 49.210938 "/><path style=" stroke:none;fill-rule:nonzero;fill:#000000;fill-opacity:1;" d="M 14.191406 24.113281 C 14.710938 22.21875 15.527344 20.914062 16.6875 20.140625 C 17.832031 19.375 19.25 19.199219 20.488281 19.128906 C 23.640625 18.953125 26.808594 19.304688 29.882812 20.164062 L 30.292969 20.277344 C 31.417969 20.582031 32.695312 20.933594 33.691406 21.625 C 34.511719 22.195312 34.824219 23.074219 35.109375 23.847656 L 35.160156 23.984375 C 35.449219 24.757812 35.585938 25.5625 35.585938 26.363281 C 35.585938 27.285156 35.394531 28.199219 35.015625 29.054688 C 34.074219 31.171875 32.246094 32.746094 30.59375 34.007812 C 28.335938 35.722656 25.90625 37.25 23.375 38.542969 C 22.078125 39.210938 20.605469 39.839844 19.132812 39.839844 C 18.605469 39.839844 18.082031 39.761719 17.566406 39.574219 C 16.246094 39.109375 15.113281 37.953125 14.476562 36.410156 C 13.902344 35.042969 13.757812 33.542969 13.667969 32.242188 C 13.492188 29.796875 13.417969 26.921875 14.191406 24.113281 Z M 39.773438 23.984375 L 39.828125 23.839844 C 40.109375 23.066406 40.429688 22.1875 41.246094 21.625 C 42.242188 20.933594 43.511719 20.582031 44.636719 20.277344 L 45.054688 20.164062 C 48.128906 19.304688 51.292969 18.953125 54.445312 19.128906 C 55.683594 19.199219 57.101562 19.375 58.25 20.140625 C 59.40625 20.914062 60.222656 22.21875 60.742188 24.113281 C 61.515625 26.921875 61.441406 29.800781 61.265625 32.242188 C 61.175781 33.542969 61.03125 35.042969 60.460938 36.410156 C 59.820312 37.953125 58.691406 39.109375 57.375 39.574219 C 56.851562 39.761719 56.328125 39.839844 55.804688 39.839844 C 54.328125 39.839844 52.859375 39.210938 51.558594 38.542969 C 49.027344 37.25 46.597656 35.722656 44.34375 34.007812 C 42.6875 32.746094 40.859375 31.171875 39.917969 29.054688 C 39.210938 27.460938 39.160156 25.664062 39.773438 23.984375 Z M 13.9375 39.277344 C 14.027344 39.429688 14.121094 39.578125 14.214844 39.71875 C 14.664062 40.03125 15.148438 40.285156 15.667969 40.449219 C 17.988281 41.179688 19.894531 41.28125 21.652344 40.773438 C 22.597656 40.5 23.496094 39.996094 24.359375 39.515625 L 24.886719 39.222656 C 25.320312 38.984375 25.753906 38.753906 26.191406 38.527344 C 27.753906 37.695312 29.230469 36.914062 30.613281 35.851562 C 31.390625 35.246094 32.128906 34.582031 32.808594 33.871094 C 33.410156 33.238281 33.933594 32.648438 34.347656 32.117188 C 34.566406 31.839844 34.757812 31.5625 34.957031 31.261719 C 35.199219 30.90625 35.441406 30.542969 35.730469 30.199219 C 36.203125 29.640625 36.835938 28.988281 37.550781 28.9375 C 37.882812 28.914062 38.195312 29.03125 38.453125 29.265625 C 38.78125 29.558594 39.058594 29.957031 39.304688 30.300781 C 39.375 30.402344 39.445312 30.507812 39.515625 30.59375 C 39.679688 30.816406 39.832031 31.050781 39.984375 31.273438 C 40.183594 31.570312 40.375 31.851562 40.585938 32.117188 C 41.007812 32.65625 41.527344 33.242188 42.125 33.871094 C 42.804688 34.582031 43.539062 35.246094 44.320312 35.851562 C 45.707031 36.914062 47.179688 37.695312 48.746094 38.527344 C 49.179688 38.753906 49.617188 38.984375 50.050781 39.222656 L 50.574219 39.515625 C 51.445312 39.996094 52.339844 40.5 53.28125 40.773438 C 55.039062 41.28125 56.945312 41.179688 59.265625 40.449219 C 59.789062 40.285156 60.269531 40.03125 60.71875 39.71875 C 60.8125 39.578125 60.90625 39.429688 60.996094 39.277344 C 61.664062 38.160156 62.125 37.210938 62.371094 35.910156 C 63.082031 32.164062 63.191406 28.347656 62.707031 24.566406 L 62.691406 24.441406 C 62.511719 23.015625 62.261719 21.070312 61.121094 20.476562 C 60.539062 20.171875 60.191406 19.722656 59.917969 19.359375 C 59.738281 19.125 59.582031 18.917969 59.390625 18.792969 C 59.019531 18.542969 58.503906 18.417969 57.957031 18.285156 C 57.761719 18.242188 57.578125 18.195312 57.394531 18.144531 C 56.492188 17.898438 55.578125 17.699219 54.648438 17.546875 C 51.117188 17.296875 47.480469 18.308594 44.523438 19.140625 C 43.410156 19.453125 42.261719 19.769531 41.210938 20.292969 C 40.683594 20.5625 40.265625 20.820312 39.933594 21.097656 C 39.703125 21.289062 39.539062 21.519531 39.351562 21.769531 C 39.261719 21.894531 39.164062 22.023438 39.066406 22.148438 C 38.703125 22.589844 38.128906 22.832031 37.519531 22.832031 C 37.261719 22.832031 36.996094 22.789062 36.742188 22.699219 C 36.203125 22.5 35.726562 22.128906 35.304688 21.578125 C 35.238281 21.488281 35.179688 21.398438 35.132812 21.300781 C 35.082031 21.21875 35.039062 21.144531 34.988281 21.09375 C 34.871094 20.96875 34.667969 20.84375 34.492188 20.730469 L 34.375 20.660156 C 33.164062 19.910156 31.707031 19.496094 30.410156 19.140625 C 27.457031 18.308594 23.824219 17.296875 20.289062 17.546875 C 19.359375 17.691406 18.445312 17.898438 17.539062 18.144531 C 17.359375 18.195312 17.171875 18.242188 16.980469 18.285156 C 16.4375 18.417969 15.917969 18.542969 15.542969 18.792969 C 15.355469 18.917969 15.199219 19.125 15.015625 19.359375 C 14.742188 19.722656 14.394531 20.171875 13.816406 20.476562 C 12.671875 21.070312 12.425781 23.015625 12.242188 24.441406 L 12.226562 24.566406 C 11.738281 28.34375 11.855469 32.164062 12.566406 35.910156 C 12.808594 37.203125 13.289062 38.195312 13.9375 39.277344 "/><path style=" stroke:none;fill-rule:nonzero;fill:#000000;fill-opacity:1;" d="M 49.113281 51.996094 C 49.003906 51.957031 48.914062 51.871094 48.871094 51.757812 C 48.484375 50.746094 48.085938 49.703125 47.5625 48.753906 C 46.570312 46.972656 45.042969 45.4375 43.257812 44.445312 C 41.5625 43.496094 39.578125 43.011719 37.636719 43.050781 C 37.628906 43.050781 37.617188 43.050781 37.609375 43.050781 C 37.566406 43.050781 37.515625 43.050781 37.46875 43.050781 C 37.417969 43.050781 37.375 43.050781 37.324219 43.050781 C 37.316406 43.050781 37.3125 43.050781 37.300781 43.050781 C 35.359375 43.011719 33.375 43.496094 31.675781 44.445312 C 29.890625 45.4375 28.367188 46.972656 27.371094 48.753906 C 26.839844 49.710938 26.445312 50.75 26.066406 51.757812 C 26.023438 51.871094 25.929688 51.957031 25.824219 51.996094 C 25.855469 52.363281 25.882812 52.730469 25.90625 53.097656 C 26.214844 52.390625 26.542969 51.695312 26.925781 51.023438 C 27.988281 49.175781 29.277344 47.78125 30.761719 46.890625 C 32.167969 46.050781 33.847656 45.515625 35.628906 45.34375 C 36.347656 45.273438 37.046875 45.308594 37.726562 45.335938 L 38.140625 45.359375 C 38.265625 45.363281 38.390625 45.355469 38.507812 45.347656 C 38.703125 45.332031 38.917969 45.320312 39.160156 45.347656 C 39.636719 45.414062 40.066406 45.484375 40.480469 45.570312 C 41.957031 45.855469 43.160156 46.289062 44.171875 46.890625 C 45.65625 47.78125 46.945312 49.167969 48.007812 51.023438 C 48.394531 51.695312 48.722656 52.390625 49.027344 53.097656 C 49.050781 52.730469 49.078125 52.363281 49.113281 51.996094 "/><path style=" stroke:none;fill-rule:nonzero;fill:#000000;fill-opacity:1;" d="M 35.210938 56.589844 C 35.214844 56.09375 35.21875 55.585938 35.226562 55.089844 L 35.234375 54.726562 C 35.238281 54.636719 35.242188 54.542969 35.242188 54.445312 C 35.265625 54.082031 35.285156 53.703125 35.117188 53.492188 C 35.082031 53.449219 34.984375 53.324219 34.65625 53.324219 C 34.589844 53.324219 34.503906 53.332031 34.414062 53.339844 C 33.84375 53.425781 33.222656 53.589844 32.628906 53.824219 C 31.660156 54.195312 30.894531 54.757812 30.40625 55.445312 C 29.96875 56.054688 29.726562 56.792969 29.496094 57.707031 L 29.480469 57.773438 C 29.253906 58.671875 29.039062 59.515625 29.125 60.390625 C 29.144531 60.601562 29.15625 60.816406 29.164062 61.023438 C 29.171875 61.328125 29.1875 61.617188 29.238281 61.902344 C 29.296875 62.234375 29.394531 62.585938 29.523438 62.96875 L 31.617188 62.171875 C 31.808594 60.65625 32.410156 59.191406 33.324219 58.019531 C 33.910156 57.265625 34.542969 56.785156 35.210938 56.589844 "/><path style=" stroke:none;fill-rule:nonzero;fill:#000000;fill-opacity:1;" d="M 49.066406 56.160156 C 49.003906 56.121094 48.953125 56.0625 48.925781 55.988281 C 47.941406 53.792969 46.144531 51.886719 43.875 50.613281 C 42.765625 49.996094 41.53125 49.523438 40.222656 49.203125 C 39.117188 48.933594 37.871094 48.875 36.53125 49.011719 C 36.3125 49.035156 36.097656 49.050781 35.875 49.058594 C 35.515625 49.078125 35.175781 49.09375 34.847656 49.175781 C 33.480469 49.492188 32.210938 49.976562 31.0625 50.613281 C 28.792969 51.886719 26.992188 53.792969 26.007812 55.988281 C 25.980469 56.0625 25.929688 56.113281 25.871094 56.152344 C 25.664062 57.949219 24.734375 59.882812 23.019531 60.867188 C 23.398438 61.175781 23.710938 61.511719 23.949219 61.808594 C 24.53125 62.554688 24.933594 63.382812 25.320312 64.179688 L 25.414062 64.378906 C 26.21875 66.023438 27.136719 67.726562 28.417969 69.046875 C 28.503906 69.128906 28.59375 69.207031 28.675781 69.289062 C 27.269531 66.527344 26.410156 63.511719 26.171875 60.394531 C 26.082031 59.273438 26.03125 57.605469 26.578125 56.0625 C 27.328125 53.957031 29.117188 52.183594 31.5 51.199219 C 32.984375 50.582031 34.648438 50.257812 36.648438 50.195312 C 36.65625 50.195312 36.65625 50.191406 36.664062 50.191406 C 36.734375 50.191406 36.800781 50.191406 36.871094 50.191406 C 37.070312 50.1875 37.265625 50.179688 37.46875 50.179688 C 37.667969 50.179688 37.859375 50.1875 38.054688 50.191406 C 38.128906 50.191406 38.195312 50.191406 38.273438 50.191406 C 38.277344 50.191406 38.277344 50.195312 38.285156 50.195312 C 40.285156 50.257812 41.949219 50.582031 43.433594 51.199219 C 45.816406 52.183594 47.609375 53.957031 48.355469 56.0625 C 48.902344 57.605469 48.851562 59.273438 48.765625 60.394531 C 48.527344 63.511719 47.664062 66.527344 46.257812 69.289062 C 46.34375 69.207031 46.429688 69.128906 46.519531 69.046875 C 47.800781 67.726562 48.714844 66.023438 49.519531 64.378906 L 49.617188 64.183594 C 50 63.386719 50.40625 62.554688 50.984375 61.808594 C 51.226562 61.511719 51.535156 61.175781 51.917969 60.867188 C 50.203125 59.882812 49.269531 57.957031 49.066406 56.160156 "/><g clip-rule="nonzero" clip-path="url(#b6750644e5)"><path style=" stroke:none;fill-rule:nonzero;fill:#000000;fill-opacity:1;" d="M 46.652344 60.476562 C 46.628906 60.667969 46.625 60.867188 46.621094 61.058594 C 46.601562 61.378906 46.59375 61.714844 46.527344 62.054688 C 46.4375 62.546875 46.292969 63.0625 46.058594 63.671875 C 46.019531 63.777344 45.941406 63.863281 45.835938 63.90625 C 45.785156 63.9375 45.722656 63.949219 45.664062 63.949219 C 45.613281 63.949219 45.5625 63.9375 45.511719 63.921875 L 42.777344 62.871094 C 42.625 62.8125 42.523438 62.675781 42.507812 62.519531 C 42.363281 61.0625 41.8125 59.652344 40.945312 58.546875 C 40.386719 57.832031 39.816406 57.429688 39.25 57.351562 C 39.042969 57.320312 38.890625 57.144531 38.882812 56.933594 C 38.875 56.285156 38.867188 55.632812 38.855469 54.984375 L 38.855469 54.738281 C 38.847656 54.660156 38.847656 54.574219 38.84375 54.484375 C 38.820312 54.015625 38.785156 53.425781 39.152344 52.96875 C 39.472656 52.566406 39.96875 52.40625 40.640625 52.503906 C 41.273438 52.597656 41.964844 52.777344 42.617188 53.03125 C 43.738281 53.464844 44.636719 54.128906 45.222656 54.953125 C 45.761719 55.71875 46.042969 56.628906 46.261719 57.5 L 46.277344 57.554688 C 46.511719 58.484375 46.753906 59.445312 46.652344 60.476562 Z M 44.257812 66.027344 C 43.855469 66.535156 43.402344 66.976562 42.917969 67.335938 C 42.664062 67.523438 42.398438 67.671875 42.136719 67.816406 C 41.945312 67.925781 41.75 68.035156 41.5625 68.15625 C 40.535156 68.863281 38.984375 68.875 37.855469 68.886719 L 37.789062 68.886719 C 37.703125 68.886719 37.609375 68.886719 37.515625 68.886719 C 37.074219 68.886719 36.617188 68.871094 36.148438 68.738281 C 35.929688 68.679688 35.679688 68.660156 35.417969 68.644531 C 35.148438 68.628906 34.867188 68.605469 34.570312 68.53125 C 34.363281 68.480469 34.179688 68.386719 34.023438 68.304688 C 33.933594 68.257812 33.84375 68.214844 33.746094 68.179688 L 33.625 68.136719 C 33.289062 68.003906 32.941406 67.871094 32.605469 67.679688 C 31.882812 67.273438 31.230469 66.71875 30.679688 66.027344 C 30.59375 65.921875 30.5625 65.78125 30.601562 65.652344 C 30.636719 65.523438 30.734375 65.414062 30.863281 65.367188 C 32.003906 64.960938 33.113281 64.550781 34.136719 64.015625 C 34.375 63.890625 34.59375 63.996094 35.136719 64.226562 C 35.238281 64.269531 35.324219 64.308594 35.363281 64.324219 L 35.441406 64.34375 C 35.703125 64.421875 35.996094 64.5 36.214844 64.492188 C 37.035156 64.429688 37.769531 64.433594 38.464844 64.515625 C 38.78125 64.550781 39.378906 64.492188 40.417969 64.007812 C 40.542969 63.953125 40.679688 63.953125 40.800781 64.015625 C 41.820312 64.550781 42.929688 64.960938 44.070312 65.367188 C 44.199219 65.414062 44.296875 65.523438 44.335938 65.652344 C 44.371094 65.78125 44.34375 65.921875 44.257812 66.027344 Z M 29.269531 63.949219 C 29.214844 63.949219 29.148438 63.9375 29.097656 63.90625 C 28.996094 63.863281 28.914062 63.777344 28.875 63.671875 C 28.648438 63.066406 28.496094 62.550781 28.40625 62.054688 C 28.34375 61.714844 28.332031 61.378906 28.316406 61.058594 C 28.308594 60.867188 28.304688 60.667969 28.28125 60.476562 C 28.179688 59.449219 28.425781 58.488281 28.660156 57.570312 L 28.671875 57.5 C 28.898438 56.628906 29.171875 55.71875 29.710938 54.953125 C 30.300781 54.128906 31.199219 53.464844 32.316406 53.03125 C 32.976562 52.777344 33.660156 52.597656 34.300781 52.503906 C 34.960938 52.40625 35.460938 52.566406 35.78125 52.96875 C 36.148438 53.425781 36.113281 54.015625 36.09375 54.492188 C 36.085938 54.574219 36.085938 54.660156 36.078125 54.738281 L 36.074219 55.105469 C 36.070312 55.710938 36.058594 56.320312 36.050781 56.933594 C 36.050781 57.144531 35.894531 57.320312 35.683594 57.351562 C 35.117188 57.429688 34.546875 57.832031 33.988281 58.546875 C 33.125 59.652344 32.570312 61.0625 32.429688 62.519531 C 32.417969 62.675781 32.3125 62.8125 32.160156 62.871094 L 29.421875 63.921875 C 29.375 63.9375 29.320312 63.949219 29.269531 63.949219 Z M 37 57.625 L 37.132812 57.601562 C 37.628906 57.515625 37.832031 57.496094 38.371094 57.726562 C 39.171875 57.972656 39.878906 58.5 40.308594 59.191406 C 40.84375 60.050781 40.933594 61.148438 40.542969 62.046875 C 40.132812 62.988281 39.1875 63.664062 38.195312 63.734375 C 37.84375 63.753906 37.65625 63.765625 37.464844 63.765625 C 37.277344 63.765625 37.089844 63.753906 36.734375 63.734375 C 35.746094 63.664062 34.804688 62.988281 34.394531 62.046875 C 34 61.148438 34.09375 60.050781 34.628906 59.183594 C 35.136719 58.375 36.023438 57.792969 37 57.625 Z M 47.285156 56.4375 C 46.652344 54.636719 45.085938 53.105469 42.996094 52.238281 C 41.601562 51.664062 40.003906 51.367188 38.054688 51.324219 C 37.847656 51.316406 37.65625 51.3125 37.464844 51.3125 C 37.277344 51.3125 37.085938 51.316406 36.894531 51.324219 C 34.9375 51.367188 33.332031 51.664062 31.9375 52.238281 C 29.847656 53.105469 28.28125 54.636719 27.648438 56.4375 C 27.28125 57.476562 27.171875 58.671875 27.296875 60.3125 C 27.582031 64.03125 28.800781 67.609375 30.8125 70.730469 C 31.523438 71.046875 32.253906 71.222656 32.960938 71.226562 C 32.964844 71.226562 32.972656 71.234375 32.976562 71.234375 C 33.375 71.160156 33.769531 71.375 33.917969 71.765625 C 34.019531 72.027344 34.101562 72.296875 34.175781 72.570312 C 35.304688 72.59375 36.445312 72.625 37.589844 72.660156 C 38.734375 72.6875 39.890625 72.722656 41.027344 72.746094 C 41.03125 72.726562 41.042969 72.703125 41.046875 72.6875 C 41.09375 72.558594 41.136719 72.425781 41.171875 72.316406 C 41.148438 72.242188 41.136719 72.167969 41.132812 72.085938 C 41.132812 71.617188 41.503906 71.234375 41.972656 71.226562 C 42.679688 71.222656 43.410156 71.046875 44.121094 70.730469 C 46.132812 67.609375 47.355469 64.03125 47.636719 60.3125 C 47.761719 58.671875 47.65625 57.476562 47.285156 56.4375 "/></g><path style=" stroke:none;fill-rule:nonzero;fill:#000000;fill-opacity:1;" d="M 71.78125 63.179688 C 71.761719 63.398438 71.769531 63.554688 71.789062 63.65625 C 72.546875 62.128906 73.167969 60.34375 73.675781 58.269531 C 73.765625 57.902344 73.839844 57.53125 73.921875 57.164062 C 73.976562 56.886719 74.03125 56.617188 74.097656 56.34375 C 74.15625 56.074219 74.25 55.835938 74.328125 55.632812 C 74.40625 55.40625 74.480469 55.21875 74.507812 55.027344 C 74.566406 54.574219 74.617188 54.101562 74.667969 53.601562 C 74.601562 53.675781 74.546875 53.753906 74.496094 53.839844 C 72.71875 56.667969 72.128906 60.144531 71.78125 63.179688 "/><path style=" stroke:none;fill-rule:nonzero;fill:#000000;fill-opacity:1;" d="M 74.542969 42.882812 C 74.324219 42.746094 74.050781 42.621094 73.722656 42.503906 C 72.523438 42.085938 71.304688 41.699219 70.082031 41.34375 C 68.574219 42.835938 67.195312 44.652344 65.96875 46.75 C 65.492188 47.558594 65.164062 48.375 64.804688 49.242188 C 64.691406 49.511719 64.578125 49.789062 64.460938 50.066406 C 64.003906 51.136719 63.410156 52.550781 62.867188 53.96875 C 62.183594 55.746094 61.65625 57.328125 61.246094 58.824219 C 60.503906 61.527344 60.132812 64.089844 60.132812 66.476562 C 60.132812 67.554688 60.210938 68.597656 60.363281 69.605469 C 61.789062 70.316406 63.222656 70.96875 64.652344 71.542969 C 64.6875 71.558594 64.71875 71.574219 64.753906 71.585938 C 65.082031 67.355469 65.550781 62.867188 67.070312 58.382812 C 68.917969 52.933594 71.4375 47.722656 74.542969 42.882812 "/><path style=" stroke:none;fill-rule:nonzero;fill:#000000;fill-opacity:1;" d="M 54.046875 50.4375 C 55.007812 47.917969 56.742188 46.046875 58.808594 45.261719 C 58.925781 45.015625 59.050781 44.773438 59.171875 44.527344 C 58.988281 44.300781 58.773438 44.097656 58.554688 43.90625 C 57.46875 43.777344 56.375 43.683594 55.3125 43.816406 C 53.894531 43.984375 52.707031 44.550781 51.96875 45.40625 C 51.089844 46.433594 50.804688 47.917969 50.585938 49.34375 C 50.277344 51.398438 50.003906 53.609375 50.164062 55.796875 C 50.167969 55.894531 50.179688 55.988281 50.195312 56.09375 C 50.195312 56.101562 50.203125 56.113281 50.207031 56.125 C 50.230469 56.1875 50.238281 56.25 50.230469 56.3125 C 50.484375 57.84375 51.394531 59.484375 52.96875 60.117188 C 52.859375 59.757812 52.8125 59.367188 52.796875 59.007812 C 52.65625 56.003906 53.105469 52.882812 54.046875 50.4375 "/><path style=" stroke:none;fill-rule:nonzero;fill:#000000;fill-opacity:1;" d="M 58.210938 46.492188 C 56.769531 47.347656 55.566406 48.832031 54.839844 50.746094 C 53.945312 53.082031 53.507812 56.078125 53.644531 58.972656 C 53.652344 59.027344 53.652344 59.089844 53.65625 59.144531 C 54.128906 56.953125 54.800781 54.6875 55.6875 52.324219 C 56.441406 50.34375 57.296875 48.410156 58.210938 46.492188 "/><path style=" stroke:none;fill-rule:nonzero;fill:#000000;fill-opacity:1;" d="M 38.371094 65.355469 C 37.730469 65.289062 37.046875 65.277344 36.277344 65.335938 C 35.902344 65.363281 35.519531 65.25 35.207031 65.164062 L 35.125 65.140625 C 35.074219 65.125 34.949219 65.074219 34.796875 65.007812 C 34.695312 64.960938 34.515625 64.882812 34.394531 64.835938 C 33.542969 65.273438 32.65625 65.625 31.742188 65.957031 C 32.121094 66.351562 32.554688 66.6875 33.015625 66.945312 C 33.300781 67.105469 33.605469 67.21875 33.925781 67.335938 L 34.046875 67.386719 C 34.171875 67.433594 34.28125 67.488281 34.398438 67.546875 C 34.539062 67.613281 34.664062 67.675781 34.78125 67.710938 C 34.996094 67.761719 35.234375 67.777344 35.480469 67.800781 C 35.769531 67.816406 36.070312 67.839844 36.375 67.925781 C 36.824219 68.046875 37.273438 68.042969 37.785156 68.039062 L 37.847656 68.460938 L 37.84375 68.039062 C 38.867188 68.027344 40.265625 68.015625 41.085938 67.453125 C 41.289062 67.3125 41.511719 67.195312 41.726562 67.070312 C 41.972656 66.933594 42.207031 66.8125 42.414062 66.652344 C 42.6875 66.445312 42.953125 66.214844 43.199219 65.957031 C 42.300781 65.628906 41.425781 65.289062 40.589844 64.863281 C 39.6875 65.265625 38.953125 65.425781 38.371094 65.355469 "/><path style=" stroke:none;fill-rule:nonzero;fill:#000000;fill-opacity:1;" d="M 45.4375 57.707031 C 45.207031 56.792969 44.964844 56.0625 44.527344 55.445312 C 44.042969 54.757812 43.277344 54.195312 42.308594 53.824219 C 41.714844 53.589844 41.09375 53.425781 40.523438 53.339844 C 39.996094 53.269531 39.859375 53.4375 39.816406 53.492188 C 39.652344 53.703125 39.667969 54.082031 39.691406 54.445312 C 39.695312 54.542969 39.695312 54.636719 39.703125 54.726562 L 39.703125 54.96875 C 39.714844 55.507812 39.71875 56.050781 39.722656 56.589844 C 40.390625 56.785156 41.027344 57.265625 41.613281 58.019531 C 42.523438 59.191406 43.128906 60.65625 43.320312 62.171875 L 45.410156 62.96875 C 45.539062 62.578125 45.636719 62.234375 45.699219 61.902344 C 45.75 61.617188 45.761719 61.328125 45.773438 61.023438 C 45.777344 60.816406 45.789062 60.601562 45.808594 60.390625 C 45.898438 59.515625 45.679688 58.664062 45.457031 57.765625 L 45.4375 57.707031 "/><path style=" stroke:none;fill-rule:nonzero;fill:#000000;fill-opacity:1;" d="M 73.839844 52.332031 C 73.585938 52.414062 73.121094 51.628906 72.800781 50.585938 C 72.472656 49.542969 72.417969 48.636719 72.667969 48.558594 C 72.917969 48.476562 73.382812 49.257812 73.710938 50.304688 C 74.03125 51.34375 74.089844 52.253906 73.839844 52.332031 Z M 69.613281 60.113281 C 68.914062 60.234375 68.304688 60.199219 68.222656 59.941406 C 68.144531 59.695312 68.6875 59.304688 69.457031 59.175781 C 70.222656 59.042969 70.863281 59.234375 70.867188 59.5 C 70.878906 59.769531 70.308594 59.992188 69.613281 60.113281 Z M 69.199219 66.851562 C 68.308594 67.863281 67.335938 68.414062 67.171875 68.21875 C 66.996094 68.019531 67.640625 67.171875 68.488281 66.214844 C 69.34375 65.257812 70.105469 64.515625 70.324219 64.664062 C 70.542969 64.808594 70.097656 65.835938 69.199219 66.851562 Z M 74.835938 45.800781 C 74.8125 45.386719 74.820312 44.96875 74.824219 44.550781 C 72.070312 49.011719 69.828125 53.785156 68.136719 58.75 C 66.65625 63.117188 66.203125 67.535156 65.878906 71.707031 C 66.1875 71.558594 66.5 71.25 66.773438 70.957031 C 68.347656 69.25 69.636719 67.222656 70.886719 65.273438 C 71.050781 65.015625 71.203125 64.75 71.355469 64.480469 C 71.015625 64.222656 70.867188 63.761719 70.941406 63.089844 C 71.292969 59.960938 71.90625 56.355469 73.785156 53.386719 C 73.988281 53.058594 74.234375 52.738281 74.636719 52.625 C 74.675781 52.613281 74.710938 52.613281 74.746094 52.605469 C 74.789062 52.03125 74.824219 51.429688 74.851562 50.773438 C 74.921875 49.117188 74.917969 47.449219 74.835938 45.800781 "/><path style=" stroke:none;fill-rule:nonzero;fill:#000000;fill-opacity:1;" d="M 60.433594 58.597656 C 60.84375 57.082031 61.378906 55.46875 62.074219 53.664062 C 62.621094 52.234375 63.222656 50.8125 63.679688 49.734375 C 63.800781 49.460938 63.910156 49.1875 64.019531 48.917969 C 64.386719 48.023438 64.738281 47.179688 65.234375 46.320312 C 66.410156 44.3125 67.726562 42.554688 69.15625 41.078125 C 67.46875 40.609375 65.761719 40.199219 64.042969 39.867188 C 64 39.878906 63.816406 39.980469 63.691406 40.046875 C 63.578125 40.105469 63.464844 40.171875 63.335938 40.230469 C 61.070312 44.4375 58.910156 48.585938 57.277344 52.921875 C 55.460938 57.742188 54.554688 62.128906 54.5 66.300781 C 56.136719 67.332031 57.789062 68.28125 59.453125 69.140625 C 59.0625 65.949219 59.386719 62.40625 60.433594 58.597656 "/><g clip-rule="nonzero" clip-path="url(#df9602462e)"><g clip-rule="nonzero" clip-path="url(#62d5c55fe7)"><path style=" stroke:none;fill-rule:nonzero;fill:#000000;fill-opacity:1;" d="M 17.769531 22.230469 L 28.773438 22.230469 L 28.773438 33.238281 L 17.769531 33.238281 Z M 17.769531 22.230469 "/></g></g></g></svg>