<svg xmlns="http://www.w3.org/2000/svg" xmlns:xlink="http://www.w3.org/1999/xlink" width="500" zoomAndPan="magnify" viewBox="0 0 375 74.999997" height="100" preserveAspectRatio="xMidYMid meet" version="1.0"><defs><g/><clipPath id="80795f3eda"><path d="M 323 1.449219 L 356 1.449219 L 356 34 L 323 34 Z M 323 1.449219 " clip-rule="nonzero"/></clipPath><clipPath id="71b007e3c6"><path d="M 300.59375 46.375 L 350 46.375 L 350 73.449219 L 300.59375 73.449219 Z M 300.59375 46.375 " clip-rule="nonzero"/></clipPath><clipPath id="2aa476ea52"><path d="M 280.234375 36 L 312 36 L 312 58 L 280.234375 58 Z M 280.234375 36 " clip-rule="nonzero"/></clipPath></defs><g clip-path="url(#80795f3eda)"><path fill="#78866b" d="M 330.4375 33.339844 C 329.460938 30.050781 326.523438 27.363281 323.546875 26.566406 L 331.527344 1.449219 C 333.726562 2.144531 335.890625 3.058594 337.992188 4.195312 C 346.960938 9.050781 353.113281 17.078125 355.8125 26.136719 L 330.4375 33.339844 " fill-opacity="1" fill-rule="nonzero"/></g><g clip-path="url(#71b007e3c6)"><path fill="#78866b" d="M 333.332031 46.453125 L 349.875 59.003906 C 343.125 67.890625 332.449219 73.628906 320.429688 73.628906 C 313.167969 73.628906 306.394531 71.535156 300.683594 67.914062 L 311.792969 50.316406 C 314.269531 51.929688 317.222656 52.863281 320.429688 52.863281 C 325.695312 52.863281 330.375 50.347656 333.332031 46.453125 " fill-opacity="1" fill-rule="nonzero"/></g><path fill="#d9d9d9" d="M 304.796875 33.59375 L 283.984375 29.117188 L 284.039062 28.867188 C 286.164062 18.914062 292.394531 10.160156 301.132812 4.851562 L 301.355469 4.71875 L 312.390625 22.917969 L 312.171875 23.050781 C 308.425781 25.328125 305.757812 29.078125 304.851562 33.339844 L 304.796875 33.59375 M 301.183594 5.429688 C 292.753906 10.632812 286.730469 19.097656 284.601562 28.722656 L 304.402344 32.980469 C 305.371094 28.765625 308.003906 25.058594 311.683594 22.746094 L 301.183594 5.429688 " fill-opacity="1" fill-rule="nonzero"/><g clip-path="url(#2aa476ea52)"><path fill="#78866b" d="M 311.335938 42.125 L 285.984375 57.269531 C 282.378906 51.25 280.304688 44.203125 280.304688 36.675781 L 309.832031 36.675781 C 309.832031 38.667969 310.378906 40.53125 311.335938 42.125 " fill-opacity="1" fill-rule="nonzero"/></g><path fill="#d9d9d9" d="M 360.816406 36.933594 L 330.773438 36.933594 L 330.773438 36.675781 C 330.773438 34.804688 330.265625 32.96875 329.3125 31.375 L 329.175781 31.152344 L 329.382812 31.027344 C 329.835938 31.75 330.199219 32.527344 330.4375 33.339844 L 330.738281 33.253906 C 331.074219 34.269531 331.261719 35.335938 331.285156 36.417969 L 360.296875 36.417969 C 360.253906 29.378906 358.355469 22.488281 354.796875 16.460938 L 352.265625 17.96875 C 352.179688 17.820312 352.089844 17.671875 352 17.527344 L 354.976562 15.75 L 355.109375 15.972656 C 358.84375 22.207031 360.816406 29.367188 360.816406 36.675781 L 360.816406 36.933594 " fill-opacity="1" fill-rule="nonzero"/><path fill="#222831" d="M 330.4375 33.339844 C 330.199219 32.527344 329.835938 31.75 329.382812 31.027344 L 352 17.527344 C 352.089844 17.671875 352.179688 17.820312 352.265625 17.96875 L 329.886719 31.332031 C 330.234375 31.945312 330.519531 32.589844 330.738281 33.253906 L 330.4375 33.339844 " fill-opacity="1" fill-rule="nonzero"/><path fill="#aebfb1" d="M 343.628906 40.152344 L 342.050781 39.894531 C 340.824219 48.199219 334.925781 54.980469 327.113281 57.488281 L 327.613281 59.003906 C 335.984375 56.3125 342.304688 49.046875 343.628906 40.152344 " fill-opacity="1" fill-rule="nonzero"/><path fill="#aebfb1" d="M 313.710938 15.867188 L 313.222656 14.34375 C 304.859375 17.039062 298.550781 24.304688 297.230469 33.195312 L 298.808594 33.460938 C 300.027344 25.164062 305.910156 18.382812 313.710938 15.867188 " fill-opacity="1" fill-rule="nonzero"/><path fill="#2c3c38" d="M 320.429688 8.417969 C 335.65625 8.417969 348.066406 20.460938 348.660156 35.542969 L 349.378906 35.507812 C 348.769531 20.046875 336.042969 7.699219 320.429688 7.699219 C 317.410156 7.699219 314.496094 8.160156 311.761719 9.019531 L 311.980469 9.703125 C 314.648438 8.867188 317.488281 8.417969 320.429688 8.417969 " fill-opacity="1" fill-rule="nonzero"/><path fill="#2c3c38" d="M 320.429688 64.921875 C 305.203125 64.921875 292.789062 52.875 292.199219 37.789062 L 291.480469 37.828125 C 292.089844 53.292969 304.816406 65.640625 320.429688 65.640625 C 323.449219 65.640625 326.359375 65.179688 329.09375 64.324219 L 328.875 63.636719 C 326.207031 64.472656 323.371094 64.921875 320.429688 64.921875 " fill-opacity="1" fill-rule="nonzero"/><path fill="#aebfb1" d="M 350.675781 37.023438 C 350.488281 53.566406 337.019531 66.917969 320.429688 66.917969 C 307.625 66.917969 296.675781 58.960938 292.261719 47.722656 L 291.371094 48.078125 C 295.925781 59.671875 307.21875 67.878906 320.429688 67.878906 C 337.539062 67.878906 351.4375 54.109375 351.636719 37.046875 L 350.675781 37.023438 " fill-opacity="1" fill-rule="nonzero"/><path fill="#aebfb1" d="M 320.429688 6.421875 C 333.253906 6.421875 344.214844 14.402344 348.617188 25.667969 L 349.507812 25.316406 C 344.96875 13.695312 333.660156 5.460938 320.429688 5.460938 C 303.339844 5.460938 289.457031 19.199219 289.222656 36.238281 L 290.183594 36.253906 C 290.40625 19.738281 303.863281 6.421875 320.429688 6.421875 " fill-opacity="1" fill-rule="nonzero"/><path fill="#2c3c38" d="M 320.429688 21.046875 C 328.652344 21.046875 335.386719 27.394531 336.007812 35.457031 L 337.042969 35.386719 C 336.390625 26.785156 329.203125 20.007812 320.429688 20.007812 C 312.988281 20.007812 306.6875 24.886719 304.546875 31.617188 L 305.535156 31.941406 C 307.539062 25.625 313.449219 21.046875 320.429688 21.046875 " fill-opacity="1" fill-rule="nonzero"/><path fill="#2c3c38" d="M 335.316406 41.421875 C 333.304688 47.726562 327.402344 52.292969 320.429688 52.292969 C 312.195312 52.292969 305.449219 45.925781 304.847656 37.84375 L 303.8125 37.933594 C 304.460938 46.546875 311.652344 53.332031 320.429688 53.332031 C 327.859375 53.332031 334.152344 48.472656 336.300781 41.753906 L 335.316406 41.421875 " fill-opacity="1" fill-rule="nonzero"/><path fill="#2c3c38" d="M 320.429688 26.28125 C 314.699219 26.28125 310.039062 30.941406 310.039062 36.667969 C 310.039062 42.398438 314.699219 47.058594 320.429688 47.058594 C 326.160156 47.058594 330.820312 42.398438 330.820312 36.667969 C 330.820312 30.941406 326.160156 26.28125 320.429688 26.28125 Z M 320.429688 47.457031 C 314.480469 47.457031 309.640625 42.621094 309.640625 36.667969 C 309.640625 30.71875 314.480469 25.882812 320.429688 25.882812 C 326.378906 25.882812 331.21875 30.71875 331.21875 36.667969 C 331.21875 42.621094 326.378906 47.457031 320.429688 47.457031 " fill-opacity="1" fill-rule="nonzero"/><path fill="#2c3c38" d="M 324.015625 38.703125 C 323.300781 39.941406 321.964844 40.773438 320.433594 40.773438 C 318.773438 40.773438 317.34375 39.800781 316.6875 38.390625 L 314.382812 39.527344 C 315.460938 41.785156 317.765625 43.34375 320.433594 43.34375 C 322.914062 43.34375 325.078125 41.992188 326.238281 39.988281 L 324.015625 38.703125 " fill-opacity="1" fill-rule="nonzero"/><path fill="#aebfb1" d="M 316.316406 36.992188 L 313.757812 37.253906 C 313.8125 37.835938 313.9375 38.394531 314.128906 38.921875 L 316.535156 38.015625 C 316.417969 37.691406 316.34375 37.347656 316.316406 36.992188 " fill-opacity="1" fill-rule="nonzero"/><path fill="#2c3c38" d="M 320.429688 32.554688 C 321.890625 32.554688 323.171875 33.316406 323.902344 34.464844 L 326.09375 33.140625 C 324.914062 31.253906 322.820312 29.996094 320.429688 29.996094 C 318.828125 29.996094 317.359375 30.5625 316.207031 31.5 L 317.820312 33.488281 C 318.53125 32.90625 319.4375 32.554688 320.429688 32.554688 " fill-opacity="1" fill-rule="nonzero"/><path fill="#2c3c38" d="M 317.507812 33.722656 L 315.695312 31.902344 C 314.492188 33.101562 313.746094 34.753906 313.730469 36.582031 L 316.300781 36.582031 C 316.316406 35.464844 316.773438 34.457031 317.507812 33.722656 " fill-opacity="1" fill-rule="nonzero"/><path fill="#aebfb1" d="M 324.183594 38.210938 L 326.550781 39.207031 C 327.207031 37.640625 327.265625 35.828125 326.585938 34.132812 L 324.210938 35.109375 C 324.621094 36.148438 324.582031 37.253906 324.183594 38.210938 " fill-opacity="1" fill-rule="nonzero"/><path fill="#aebfb1" d="M 334.382812 35.917969 L 332.890625 35.996094 C 332.875 35.65625 332.84375 35.316406 332.796875 34.976562 L 334.277344 34.773438 C 334.222656 34.410156 334.167969 34.042969 334.082031 33.683594 L 332.625 34 C 332.550781 33.667969 332.464844 33.335938 332.363281 33.007812 L 333.792969 32.574219 C 333.519531 31.675781 333.15625 30.808594 332.707031 29.988281 L 331.394531 30.703125 C 331.234375 30.40625 331.058594 30.113281 330.867188 29.824219 L 332.121094 29.003906 L 331.46875 28.101562 L 330.292969 29.019531 C 330.105469 28.78125 329.910156 28.546875 329.707031 28.320312 C 328.777344 27.289062 327.714844 26.449219 326.570312 25.804688 L 327.3125 24.488281 C 326.996094 24.300781 326.660156 24.144531 326.328125 23.980469 L 325.691406 25.351562 C 325.382812 25.207031 325.066406 25.074219 324.746094 24.957031 L 325.269531 23.542969 C 325.097656 23.472656 324.210938 23.203125 324.210938 23.203125 L 323.804688 24.652344 C 323.304688 24.511719 322.792969 24.402344 322.277344 24.324219 L 322.242188 25.046875 C 324.820312 25.449219 327.285156 26.707031 329.171875 28.800781 C 333.515625 33.628906 333.128906 41.066406 328.300781 45.410156 C 326.207031 47.296875 323.621094 48.289062 321.015625 48.417969 L 320.976562 49.140625 C 321.667969 49.109375 322.359375 49.019531 323.042969 48.875 L 323.355469 50.335938 C 323.535156 50.296875 323.71875 50.261719 323.894531 50.210938 C 324.074219 50.160156 324.253906 50.121094 324.429688 50.066406 L 324.003906 48.628906 C 324.328125 48.53125 324.652344 48.421875 324.96875 48.296875 L 325.515625 49.691406 L 325.644531 49.644531 L 325.769531 49.589844 L 326.027344 49.480469 L 326.28125 49.371094 L 326.527344 49.246094 L 325.875 47.902344 C 326.179688 47.753906 326.480469 47.589844 326.777344 47.417969 L 327.539062 48.707031 L 328.011719 48.414062 C 328.089844 48.367188 328.164062 48.3125 328.242188 48.257812 L 328.46875 48.101562 L 327.605469 46.878906 C 327.882812 46.683594 328.15625 46.476562 328.421875 46.253906 L 329.378906 47.402344 C 330.101562 46.800781 330.765625 46.125 331.347656 45.394531 L 330.183594 44.460938 C 330.398438 44.191406 330.597656 43.917969 330.789062 43.636719 L 332.03125 44.472656 C 332.085938 44.398438 332.132812 44.316406 332.179688 44.238281 L 332.328125 44.003906 C 332.375 43.925781 332.429688 43.851562 332.472656 43.769531 L 332.609375 43.527344 L 331.308594 42.792969 C 331.476562 42.496094 331.628906 42.191406 331.773438 41.882812 L 333.132812 42.507812 L 333.355469 42 L 333.554688 41.480469 L 332.148438 40.96875 C 332.265625 40.648438 332.371094 40.320312 332.460938 39.992188 L 333.902344 40.390625 L 333.976562 40.117188 C 334.003906 40.027344 334.019531 39.933594 334.039062 39.84375 L 334.101562 39.566406 C 334.121094 39.476562 334.144531 39.382812 334.15625 39.289062 L 334.253906 38.734375 L 334.324219 38.171875 C 334.402344 37.425781 334.421875 36.667969 334.382812 35.917969 " fill-opacity="1" fill-rule="nonzero"/><path fill="#aebfb1" d="M 312.5625 27.929688 C 314.652344 26.042969 317.238281 25.050781 319.847656 24.921875 L 319.882812 24.199219 C 319.191406 24.230469 318.5 24.320312 317.816406 24.464844 L 317.503906 23.003906 C 317.324219 23.042969 316.605469 23.21875 316.429688 23.273438 L 316.855469 24.710938 C 316.53125 24.808594 316.207031 24.917969 315.890625 25.042969 L 315.347656 23.648438 L 314.332031 24.09375 L 314.984375 25.4375 C 314.679688 25.585938 314.378906 25.75 314.085938 25.921875 L 313.320312 24.632812 L 312.390625 25.238281 L 313.253906 26.460938 C 312.976562 26.65625 312.703125 26.863281 312.4375 27.085938 L 311.480469 25.9375 C 310.757812 26.539062 310.097656 27.214844 309.511719 27.945312 L 310.675781 28.878906 C 310.464844 29.148438 310.261719 29.421875 310.070312 29.703125 L 308.832031 28.867188 C 308.773438 28.941406 308.726562 29.023438 308.679688 29.101562 L 308.53125 29.335938 C 308.484375 29.414062 308.429688 29.488281 308.386719 29.570312 L 308.25 29.8125 L 309.550781 30.546875 C 309.382812 30.84375 309.230469 31.148438 309.089844 31.457031 L 307.726562 30.832031 L 307.503906 31.339844 L 307.304688 31.859375 L 308.710938 32.371094 C 308.59375 32.691406 308.488281 33.019531 308.398438 33.347656 L 306.957031 32.949219 L 306.882812 33.222656 C 306.855469 33.3125 306.839844 33.40625 306.820312 33.496094 L 306.757812 33.773438 C 306.738281 33.863281 306.714844 33.957031 306.703125 34.050781 L 306.605469 34.605469 L 306.535156 35.167969 C 306.457031 35.917969 306.4375 36.671875 306.476562 37.421875 L 307.96875 37.34375 C 307.984375 37.683594 308.015625 38.023438 308.0625 38.363281 L 306.582031 38.566406 C 306.636719 38.929688 306.691406 39.296875 306.777344 39.65625 L 308.234375 39.339844 C 308.308594 39.671875 308.394531 40.003906 308.496094 40.332031 L 307.066406 40.769531 C 307.339844 41.664062 307.707031 42.53125 308.152344 43.351562 L 309.464844 42.636719 C 309.628906 42.933594 309.800781 43.226562 309.992188 43.515625 L 308.738281 44.335938 L 309.054688 44.792969 L 309.136719 44.90625 L 309.21875 45.015625 L 309.390625 45.238281 L 310.570312 44.320312 C 310.753906 44.558594 310.949219 44.792969 311.152344 45.019531 C 311.613281 45.53125 312.105469 45.992188 312.625 46.410156 L 311.679688 47.585938 L 312.117188 47.925781 L 312.570312 48.246094 L 313.421875 46.996094 C 313.703125 47.191406 313.992188 47.371094 314.289062 47.535156 L 313.546875 48.851562 C 313.863281 49.039062 314.199219 49.195312 314.53125 49.359375 L 315.167969 47.988281 C 316.257812 48.496094 317.410156 48.839844 318.582031 49.015625 L 318.621094 48.292969 C 316.039062 47.890625 313.574219 46.632812 311.6875 44.539062 C 307.34375 39.710938 307.734375 32.273438 312.5625 27.929688 " fill-opacity="1" fill-rule="nonzero"/><path fill="#2c3c38" d="M 319.472656 35.34375 C 320.203125 34.8125 321.226562 34.976562 321.757812 35.710938 C 321.871094 35.867188 321.953125 36.039062 322.003906 36.21875 L 322.925781 35.953125 C 322.847656 35.671875 322.714844 35.398438 322.535156 35.148438 C 321.695312 33.984375 320.074219 33.726562 318.910156 34.5625 C 318.328125 34.984375 317.972656 35.601562 317.867188 36.253906 L 318.8125 36.410156 C 318.878906 35.996094 319.105469 35.605469 319.472656 35.34375 " fill-opacity="1" fill-rule="nonzero"/><path fill="#2c3c38" d="M 322.046875 36.929688 C 321.980469 37.34375 321.757812 37.734375 321.390625 38 C 320.65625 38.527344 319.632812 38.363281 319.101562 37.628906 C 318.988281 37.472656 318.90625 37.300781 318.855469 37.121094 L 317.933594 37.386719 C 318.011719 37.667969 318.144531 37.941406 318.324219 38.191406 C 319.164062 39.355469 320.785156 39.617188 321.949219 38.777344 C 322.53125 38.355469 322.886719 37.738281 322.992188 37.085938 L 322.046875 36.929688 " fill-opacity="1" fill-rule="nonzero"/><path fill="#2c3c38" d="M 328.570312 38.703125 L 328.617188 38.503906 C 328.632812 38.4375 328.652344 38.371094 328.660156 38.300781 L 328.695312 38.097656 C 328.707031 38.027344 328.726562 37.960938 328.730469 37.890625 L 329.601562 38.019531 C 329.59375 38.09375 329.578125 38.167969 329.5625 38.242188 L 329.523438 38.46875 C 329.515625 38.546875 329.492188 38.621094 329.476562 38.695312 L 329.425781 38.917969 L 328.570312 38.703125 " fill-opacity="1" fill-rule="nonzero"/><path fill="#2c3c38" d="M 328.175781 39.90625 C 328.222656 39.777344 328.277344 39.652344 328.324219 39.523438 C 328.363281 39.390625 328.414062 39.261719 328.457031 39.128906 L 329.296875 39.386719 C 329.25 39.53125 329.195312 39.675781 329.152344 39.820312 C 329.097656 39.964844 329.039062 40.101562 328.984375 40.246094 L 328.175781 39.90625 " fill-opacity="1" fill-rule="nonzero"/><path fill="#2c3c38" d="M 327.597656 41.039062 C 327.667969 40.917969 327.730469 40.796875 327.804688 40.679688 C 327.867188 40.554688 327.929688 40.429688 327.996094 40.308594 L 328.785156 40.691406 C 328.714844 40.828125 328.644531 40.964844 328.578125 41.101562 C 328.496094 41.230469 328.425781 41.363281 328.347656 41.496094 L 327.597656 41.039062 " fill-opacity="1" fill-rule="nonzero"/><path fill="#2c3c38" d="M 326.847656 42.074219 C 326.871094 42.046875 326.894531 42.023438 326.914062 41.996094 L 326.980469 41.910156 L 327.109375 41.746094 C 327.152344 41.695312 327.191406 41.636719 327.230469 41.578125 L 327.351562 41.410156 L 328.078125 41.90625 L 327.945312 42.09375 C 327.898438 42.15625 327.855469 42.222656 327.808594 42.28125 L 327.664062 42.460938 L 327.59375 42.554688 C 327.570312 42.582031 327.542969 42.609375 327.519531 42.640625 L 326.847656 42.074219 " fill-opacity="1" fill-rule="nonzero"/><path fill="#2c3c38" d="M 325.945312 42.988281 C 326 42.941406 326.054688 42.898438 326.105469 42.847656 L 326.253906 42.703125 C 326.359375 42.613281 326.453125 42.503906 326.550781 42.40625 L 327.191406 43.007812 C 327.082031 43.117188 326.980469 43.234375 326.867188 43.335938 L 326.699219 43.496094 C 326.644531 43.550781 326.582031 43.597656 326.527344 43.648438 L 325.945312 42.988281 " fill-opacity="1" fill-rule="nonzero"/><path fill="#2c3c38" d="M 324.921875 43.753906 L 325.101562 43.644531 C 325.15625 43.605469 325.210938 43.558594 325.269531 43.519531 L 325.441406 43.402344 L 325.605469 43.269531 L 326.148438 43.960938 L 325.964844 44.105469 L 325.777344 44.238281 C 325.714844 44.28125 325.65625 44.328125 325.589844 44.371094 L 325.394531 44.496094 L 324.921875 43.753906 " fill-opacity="1" fill-rule="nonzero"/><path fill="#2c3c38" d="M 323.804688 44.355469 C 323.925781 44.292969 324.058594 44.246094 324.175781 44.175781 C 324.300781 44.113281 324.425781 44.058594 324.542969 43.984375 L 324.976562 44.746094 C 324.847656 44.828125 324.707031 44.890625 324.570312 44.964844 C 324.4375 45.039062 324.292969 45.09375 324.15625 45.15625 L 323.804688 44.355469 " fill-opacity="1" fill-rule="nonzero"/><path fill="#2c3c38" d="M 322.609375 44.773438 L 322.808594 44.71875 C 322.875 44.699219 322.941406 44.683594 323.003906 44.65625 L 323.199219 44.589844 L 323.300781 44.558594 C 323.332031 44.550781 323.363281 44.535156 323.394531 44.519531 L 323.707031 45.34375 C 323.671875 45.359375 323.636719 45.375 323.601562 45.386719 L 323.492188 45.421875 L 323.273438 45.496094 C 323.203125 45.523438 323.128906 45.539062 323.054688 45.5625 L 322.835938 45.625 L 322.609375 44.773438 " fill-opacity="1" fill-rule="nonzero"/><path fill="#2c3c38" d="M 321.359375 45.007812 L 321.566406 44.980469 C 321.636719 44.96875 321.707031 44.96875 321.773438 44.953125 L 321.976562 44.914062 C 322.042969 44.902344 322.113281 44.898438 322.179688 44.878906 L 322.363281 45.738281 C 322.289062 45.757812 322.210938 45.765625 322.136719 45.78125 L 321.910156 45.820312 C 321.835938 45.839844 321.761719 45.839844 321.683594 45.851562 L 321.457031 45.882812 L 321.359375 45.007812 " fill-opacity="1" fill-rule="nonzero"/><path fill="#2c3c38" d="M 320.070312 45.050781 L 320.28125 45.054688 C 320.351562 45.054688 320.421875 45.0625 320.496094 45.058594 C 320.632812 45.050781 320.777344 45.054688 320.917969 45.046875 L 320.964844 45.921875 C 320.8125 45.933594 320.65625 45.929688 320.5 45.9375 C 320.421875 45.945312 320.34375 45.933594 320.269531 45.933594 L 320.035156 45.929688 L 320.070312 45.050781 " fill-opacity="1" fill-rule="nonzero"/><path fill="#2c3c38" d="M 318.800781 44.902344 L 319.007812 44.9375 C 319.074219 44.949219 319.140625 44.96875 319.210938 44.972656 L 319.417969 44.996094 C 319.488281 45.003906 319.554688 45.019531 319.625 45.019531 L 319.542969 45.898438 C 319.464844 45.894531 319.390625 45.878906 319.3125 45.871094 L 319.085938 45.839844 C 319.007812 45.835938 318.933594 45.816406 318.859375 45.804688 L 318.632812 45.765625 L 318.800781 44.902344 " fill-opacity="1" fill-rule="nonzero"/><path fill="#2c3c38" d="M 317.582031 44.566406 C 317.714844 44.605469 317.839844 44.65625 317.972656 44.695312 C 318.105469 44.730469 318.238281 44.773438 318.371094 44.808594 L 318.15625 45.660156 C 318.007812 45.621094 317.863281 45.574219 317.71875 45.539062 C 317.570312 45.492188 317.429688 45.4375 317.28125 45.394531 L 317.582031 44.566406 " fill-opacity="1" fill-rule="nonzero"/><path fill="#2c3c38" d="M 316.425781 44.046875 C 316.546875 44.109375 316.671875 44.167969 316.792969 44.238281 C 316.921875 44.289062 317.046875 44.347656 317.171875 44.40625 L 316.828125 45.21875 C 316.691406 45.152344 316.550781 45.089844 316.410156 45.027344 C 316.277344 44.957031 316.140625 44.886719 316.003906 44.820312 L 316.425781 44.046875 " fill-opacity="1" fill-rule="nonzero"/><path fill="#2c3c38" d="M 315.355469 43.351562 C 315.40625 43.394531 315.464844 43.433594 315.523438 43.472656 L 315.691406 43.59375 C 315.746094 43.640625 315.808594 43.671875 315.867188 43.710938 L 316.042969 43.824219 L 315.582031 44.570312 L 315.386719 44.445312 C 315.324219 44.40625 315.257812 44.367188 315.195312 44.320312 L 315.007812 44.1875 C 314.945312 44.140625 314.878906 44.101562 314.824219 44.050781 L 315.355469 43.351562 " fill-opacity="1" fill-rule="nonzero"/><path fill="#2c3c38" d="M 314.398438 42.496094 C 314.492188 42.605469 314.597656 42.695312 314.695312 42.792969 C 314.792969 42.894531 314.90625 42.976562 315.007812 43.070312 L 314.441406 43.742188 C 314.324219 43.636719 314.203125 43.542969 314.09375 43.433594 C 313.984375 43.324219 313.867188 43.222656 313.765625 43.109375 L 314.398438 42.496094 " fill-opacity="1" fill-rule="nonzero"/><path fill="#2c3c38" d="M 313.582031 41.511719 L 313.699219 41.683594 L 313.832031 41.847656 L 313.957031 42.011719 L 314.097656 42.167969 L 313.433594 42.746094 L 313.28125 42.570312 L 313.140625 42.390625 L 312.996094 42.210938 L 312.863281 42.019531 L 313.582031 41.511719 " fill-opacity="1" fill-rule="nonzero"/><path fill="#2c3c38" d="M 312.925781 40.421875 C 312.988281 40.542969 313.042969 40.671875 313.121094 40.785156 C 313.191406 40.90625 313.253906 41.03125 313.332031 41.144531 L 312.589844 41.613281 C 312.503906 41.488281 312.433594 41.351562 312.355469 41.21875 C 312.273438 41.089844 312.210938 40.949219 312.136719 40.816406 L 312.925781 40.421875 " fill-opacity="1" fill-rule="nonzero"/><path fill="#2c3c38" d="M 312.445312 39.25 C 312.527344 39.511719 312.625 39.769531 312.734375 40.019531 L 311.929688 40.375 C 311.808594 40.09375 311.703125 39.808594 311.605469 39.519531 L 312.445312 39.25 " fill-opacity="1" fill-rule="nonzero"/><path fill="#2c3c38" d="M 312.148438 38.015625 L 312.183594 38.222656 C 312.199219 38.289062 312.203125 38.359375 312.222656 38.425781 L 312.269531 38.625 C 312.289062 38.691406 312.296875 38.761719 312.320312 38.828125 L 311.46875 39.050781 C 311.445312 38.980469 311.433594 38.902344 311.414062 38.828125 L 311.363281 38.605469 C 311.339844 38.53125 311.335938 38.457031 311.320312 38.382812 L 311.28125 38.15625 L 312.148438 38.015625 " fill-opacity="1" fill-rule="nonzero"/><path fill="#2c3c38" d="M 312.042969 36.738281 L 312.046875 36.949219 L 312.050781 37.054688 C 312.046875 37.089844 312.050781 37.125 312.054688 37.160156 C 312.070312 37.296875 312.074219 37.4375 312.089844 37.578125 L 311.214844 37.667969 C 311.199219 37.515625 311.191406 37.363281 311.175781 37.210938 C 311.171875 37.171875 311.171875 37.132812 311.171875 37.09375 L 311.167969 36.976562 L 311.164062 36.746094 L 312.042969 36.738281 " fill-opacity="1" fill-rule="nonzero"/><path fill="#2c3c38" d="M 312.289062 34.636719 L 312.242188 34.835938 C 312.226562 34.902344 312.207031 34.96875 312.199219 35.039062 L 312.164062 35.242188 C 312.152344 35.3125 312.132812 35.378906 312.128906 35.449219 L 311.257812 35.320312 C 311.265625 35.246094 311.28125 35.171875 311.296875 35.097656 L 311.335938 34.871094 C 311.34375 34.792969 311.367188 34.722656 311.382812 34.644531 L 311.433594 34.421875 L 312.289062 34.636719 " fill-opacity="1" fill-rule="nonzero"/><path fill="#2c3c38" d="M 312.683594 33.433594 C 312.636719 33.5625 312.582031 33.6875 312.535156 33.816406 C 312.496094 33.949219 312.445312 34.078125 312.40625 34.210938 L 311.5625 33.953125 C 311.609375 33.808594 311.664062 33.664062 311.707031 33.519531 C 311.761719 33.375 311.820312 33.238281 311.875 33.09375 L 312.683594 33.433594 " fill-opacity="1" fill-rule="nonzero"/><path fill="#2c3c38" d="M 313.265625 32.300781 C 313.195312 32.421875 313.128906 32.542969 313.054688 32.660156 C 312.992188 32.785156 312.933594 32.910156 312.863281 33.03125 L 312.074219 32.648438 C 312.144531 32.515625 312.214844 32.375 312.285156 32.242188 C 312.363281 32.109375 312.4375 31.976562 312.515625 31.84375 L 313.265625 32.300781 " fill-opacity="1" fill-rule="nonzero"/><path fill="#2c3c38" d="M 314.011719 31.265625 C 313.992188 31.292969 313.964844 31.316406 313.945312 31.34375 L 313.882812 31.429688 L 313.753906 31.59375 C 313.707031 31.644531 313.667969 31.703125 313.628906 31.761719 L 313.507812 31.929688 L 312.78125 31.433594 L 312.917969 31.246094 C 312.960938 31.183594 313.003906 31.117188 313.050781 31.058594 L 313.195312 30.878906 L 313.265625 30.785156 C 313.289062 30.757812 313.316406 30.730469 313.34375 30.699219 L 314.011719 31.265625 " fill-opacity="1" fill-rule="nonzero"/><path fill="#2c3c38" d="M 314.914062 30.351562 C 314.859375 30.398438 314.804688 30.441406 314.753906 30.492188 L 314.605469 30.636719 C 314.5 30.726562 314.410156 30.835938 314.308594 30.933594 L 313.667969 30.332031 C 313.777344 30.222656 313.878906 30.105469 313.992188 30.003906 L 314.160156 29.84375 C 314.214844 29.789062 314.277344 29.742188 314.332031 29.691406 L 314.914062 30.351562 " fill-opacity="1" fill-rule="nonzero"/><path fill="#2c3c38" d="M 315.9375 29.585938 L 315.757812 29.695312 C 315.703125 29.734375 315.648438 29.78125 315.589844 29.820312 L 315.417969 29.9375 L 315.257812 30.070312 L 314.710938 29.378906 L 314.894531 29.234375 L 315.082031 29.101562 C 315.144531 29.058594 315.207031 29.011719 315.269531 28.96875 L 315.464844 28.84375 L 315.9375 29.585938 " fill-opacity="1" fill-rule="nonzero"/><path fill="#2c3c38" d="M 317.058594 28.988281 C 316.933594 29.046875 316.800781 29.09375 316.683594 29.164062 C 316.558594 29.226562 316.433594 29.28125 316.316406 29.359375 L 315.882812 28.59375 C 316.011719 28.511719 316.152344 28.449219 316.289062 28.375 C 316.421875 28.300781 316.566406 28.246094 316.703125 28.183594 L 317.058594 28.988281 " fill-opacity="1" fill-rule="nonzero"/><path fill="#2c3c38" d="M 318.25 28.566406 L 318.050781 28.621094 C 317.984375 28.640625 317.917969 28.65625 317.855469 28.683594 L 317.660156 28.75 L 317.5625 28.78125 C 317.527344 28.789062 317.496094 28.804688 317.464844 28.820312 L 317.152344 27.996094 C 317.191406 27.984375 317.222656 27.964844 317.261719 27.953125 L 317.367188 27.917969 L 317.585938 27.84375 C 317.65625 27.816406 317.730469 27.800781 317.804688 27.777344 L 318.023438 27.714844 L 318.25 28.566406 " fill-opacity="1" fill-rule="nonzero"/><path fill="#2c3c38" d="M 319.5 28.332031 L 319.292969 28.359375 C 319.222656 28.371094 319.152344 28.371094 319.085938 28.386719 L 318.882812 28.425781 C 318.816406 28.4375 318.746094 28.441406 318.679688 28.460938 L 318.496094 27.601562 C 318.570312 27.582031 318.648438 27.574219 318.722656 27.558594 L 318.949219 27.519531 C 319.023438 27.5 319.101562 27.5 319.175781 27.488281 L 319.402344 27.457031 L 319.5 28.332031 " fill-opacity="1" fill-rule="nonzero"/><path fill="#2c3c38" d="M 320.789062 28.289062 L 320.578125 28.285156 C 320.507812 28.285156 320.4375 28.277344 320.367188 28.28125 C 320.226562 28.289062 320.082031 28.285156 319.945312 28.292969 L 319.894531 27.417969 C 320.046875 27.40625 320.203125 27.410156 320.359375 27.402344 C 320.4375 27.394531 320.515625 27.40625 320.589844 27.40625 L 320.824219 27.410156 L 320.789062 28.289062 " fill-opacity="1" fill-rule="nonzero"/><path fill="#2c3c38" d="M 322.058594 28.4375 L 321.851562 28.402344 C 321.785156 28.390625 321.71875 28.375 321.648438 28.367188 L 321.441406 28.34375 C 321.371094 28.335938 321.304688 28.320312 321.234375 28.320312 L 321.316406 27.445312 C 321.394531 27.445312 321.46875 27.460938 321.546875 27.46875 L 321.773438 27.5 C 321.851562 27.503906 321.925781 27.523438 322 27.535156 L 322.226562 27.574219 L 322.058594 28.4375 " fill-opacity="1" fill-rule="nonzero"/><path fill="#2c3c38" d="M 323.277344 28.773438 C 323.144531 28.734375 323.019531 28.683594 322.886719 28.644531 C 322.753906 28.609375 322.621094 28.566406 322.488281 28.53125 L 322.703125 27.679688 C 322.851562 27.71875 322.996094 27.765625 323.144531 27.800781 C 323.289062 27.847656 323.429688 27.902344 323.578125 27.945312 L 323.277344 28.773438 " fill-opacity="1" fill-rule="nonzero"/><path fill="#2c3c38" d="M 324.433594 29.292969 C 324.3125 29.230469 324.1875 29.171875 324.066406 29.101562 C 323.9375 29.050781 323.8125 28.992188 323.6875 28.933594 L 324.03125 28.125 C 324.167969 28.1875 324.308594 28.25 324.449219 28.3125 C 324.582031 28.382812 324.71875 28.453125 324.855469 28.523438 L 324.433594 29.292969 " fill-opacity="1" fill-rule="nonzero"/><path fill="#2c3c38" d="M 325.503906 29.988281 C 325.453125 29.945312 325.394531 29.90625 325.335938 29.867188 L 325.167969 29.746094 C 325.113281 29.699219 325.050781 29.667969 324.992188 29.628906 L 324.816406 29.515625 L 325.277344 28.769531 L 325.472656 28.894531 C 325.535156 28.9375 325.605469 28.972656 325.664062 29.019531 L 325.851562 29.152344 C 325.914062 29.199219 325.980469 29.238281 326.039062 29.289062 L 325.503906 29.988281 " fill-opacity="1" fill-rule="nonzero"/><path fill="#2c3c38" d="M 326.460938 30.84375 C 326.371094 30.734375 326.261719 30.644531 326.164062 30.546875 C 326.066406 30.445312 325.953125 30.363281 325.851562 30.269531 L 326.421875 29.601562 C 326.535156 29.703125 326.65625 29.796875 326.765625 29.90625 C 326.875 30.015625 326.992188 30.113281 327.09375 30.230469 L 326.460938 30.84375 " fill-opacity="1" fill-rule="nonzero"/><path fill="#2c3c38" d="M 327.277344 31.828125 L 327.160156 31.65625 L 327.027344 31.492188 L 326.902344 31.328125 L 326.761719 31.171875 L 327.425781 30.59375 L 327.578125 30.769531 L 327.71875 30.949219 L 327.863281 31.128906 L 327.996094 31.320312 L 327.277344 31.828125 " fill-opacity="1" fill-rule="nonzero"/><path fill="#2c3c38" d="M 327.933594 32.917969 C 327.871094 32.796875 327.816406 32.671875 327.742188 32.554688 C 327.671875 32.433594 327.605469 32.308594 327.527344 32.195312 L 328.269531 31.726562 C 328.359375 31.851562 328.429688 31.988281 328.507812 32.121094 C 328.585938 32.25 328.648438 32.390625 328.722656 32.523438 L 327.933594 32.917969 " fill-opacity="1" fill-rule="nonzero"/><path fill="#2c3c38" d="M 328.417969 34.089844 C 328.332031 33.828125 328.234375 33.570312 328.125 33.320312 L 328.929688 32.964844 C 329.050781 33.246094 329.160156 33.53125 329.253906 33.820312 L 328.417969 34.089844 " fill-opacity="1" fill-rule="nonzero"/><path fill="#2c3c38" d="M 328.710938 35.324219 L 328.675781 35.117188 C 328.660156 35.050781 328.65625 34.980469 328.636719 34.914062 L 328.589844 34.714844 C 328.574219 34.648438 328.5625 34.578125 328.542969 34.515625 L 329.390625 34.289062 C 329.417969 34.359375 329.425781 34.4375 329.445312 34.511719 L 329.496094 34.734375 C 329.519531 34.808594 329.523438 34.882812 329.539062 34.957031 L 329.582031 35.183594 L 328.710938 35.324219 " fill-opacity="1" fill-rule="nonzero"/><path fill="#2c3c38" d="M 328.816406 36.601562 L 328.8125 36.390625 L 328.808594 36.285156 C 328.8125 36.25 328.808594 36.214844 328.804688 36.179688 C 328.789062 36.042969 328.785156 35.902344 328.773438 35.761719 L 329.644531 35.671875 C 329.660156 35.824219 329.667969 35.976562 329.683594 36.128906 C 329.6875 36.167969 329.6875 36.207031 329.6875 36.246094 L 329.691406 36.363281 L 329.695312 36.59375 L 328.816406 36.601562 " fill-opacity="1" fill-rule="nonzero"/><path fill="#2c3c38" d="M 320.027344 55.203125 C 321.003906 55.222656 321.988281 55.175781 322.960938 55.035156 L 323.621094 59.867188 C 322.390625 60.039062 321.152344 60.101562 319.921875 60.074219 L 320.027344 55.203125 " fill-opacity="1" fill-rule="nonzero"/><path fill="#2c3c38" d="M 317.632812 59.527344 C 316.691406 59.410156 315.742188 59.234375 314.796875 58.996094 L 315.867188 55.039062 C 316.597656 55.21875 317.332031 55.355469 318.058594 55.449219 Z M 315.589844 54.570312 L 314.320312 59.277344 C 315.519531 59.59375 316.746094 59.828125 317.976562 59.957031 L 318.484375 55.109375 C 317.507812 55.003906 316.539062 54.820312 315.589844 54.570312 " fill-opacity="1" fill-rule="nonzero"/><path fill="#2c3c38" d="M 312.222656 58.1875 C 311.324219 57.84375 310.445312 57.441406 309.597656 56.988281 L 311.589844 53.40625 C 312.246094 53.753906 312.925781 54.0625 313.617188 54.332031 Z M 311.4375 52.882812 L 309.066406 57.144531 C 310.152344 57.746094 311.285156 58.261719 312.453125 58.6875 L 314.113281 54.105469 C 313.191406 53.765625 312.296875 53.359375 311.4375 52.882812 " fill-opacity="1" fill-rule="nonzero"/><path fill="#2c3c38" d="M 307.8125 50.25 C 308.53125 50.917969 309.300781 51.527344 310.117188 52.078125 L 307.402344 56.128906 C 306.375 55.433594 305.402344 54.664062 304.492188 53.820312 L 307.8125 50.25 " fill-opacity="1" fill-rule="nonzero"/><path fill="#2c3c38" d="M 304.921875 46.828125 C 305.460938 47.648438 306.0625 48.425781 306.722656 49.15625 L 303.121094 52.4375 C 302.289062 51.519531 301.527344 50.539062 300.847656 49.503906 L 304.921875 46.828125 " fill-opacity="1" fill-rule="nonzero"/><path fill="#aebfb1" d="M 320.832031 18.136719 C 319.855469 18.117188 318.871094 18.164062 317.898438 18.304688 L 317.238281 13.472656 C 318.46875 13.300781 319.707031 13.238281 320.9375 13.265625 L 320.832031 18.136719 " fill-opacity="1" fill-rule="nonzero"/><path fill="#2c3c38" d="M 325.269531 18.769531 C 324.320312 18.519531 323.351562 18.335938 322.375 18.230469 L 322.882812 13.382812 C 324.113281 13.511719 325.339844 13.746094 326.539062 14.0625 L 325.269531 18.769531 " fill-opacity="1" fill-rule="nonzero"/><path fill="#2c3c38" d="M 329.269531 19.933594 C 328.613281 19.585938 327.933594 19.277344 327.242188 19.007812 L 328.636719 15.152344 C 329.535156 15.496094 330.414062 15.898438 331.261719 16.351562 Z M 328.40625 14.652344 L 326.746094 19.234375 C 327.667969 19.574219 328.5625 19.980469 329.425781 20.457031 L 331.792969 16.195312 C 330.707031 15.59375 329.574219 15.078125 328.40625 14.652344 " fill-opacity="1" fill-rule="nonzero"/><path fill="#2c3c38" d="M 333.023438 22.542969 C 332.46875 22.050781 331.886719 21.585938 331.277344 21.160156 L 333.5625 17.753906 C 334.347656 18.304688 335.101562 18.902344 335.816406 19.542969 Z M 333.460938 17.210938 L 330.742188 21.261719 C 331.558594 21.8125 332.328125 22.421875 333.046875 23.089844 L 336.367188 19.519531 C 335.457031 18.675781 334.488281 17.90625 333.460938 17.210938 " fill-opacity="1" fill-rule="nonzero"/><path fill="#2c3c38" d="M 335.9375 26.511719 C 335.398438 25.691406 334.796875 24.914062 334.136719 24.183594 L 337.742188 20.902344 C 338.570312 21.820312 339.332031 22.800781 340.011719 23.835938 L 335.9375 26.511719 " fill-opacity="1" fill-rule="nonzero"/><path fill="#2c3c38" d="M 337.441406 44.046875 C 337.527344 43.863281 337.597656 43.671875 337.671875 43.484375 L 337.785156 43.203125 C 337.820312 43.109375 337.859375 43.011719 337.890625 42.914062 C 338.019531 42.53125 338.15625 42.148438 338.257812 41.757812 C 338.488281 40.980469 338.644531 40.183594 338.773438 39.382812 L 340.351562 39.613281 C 340.21875 40.484375 340.046875 41.351562 339.796875 42.195312 C 339.683594 42.621094 339.535156 43.035156 339.394531 43.453125 C 339.359375 43.558594 339.320312 43.664062 339.28125 43.765625 L 339.160156 44.070312 C 339.078125 44.277344 339.003906 44.484375 338.910156 44.683594 L 337.441406 44.046875 " fill-opacity="1" fill-rule="nonzero"/><path fill="#2c3c38" d="M 336.605469 45.726562 C 336.652344 45.648438 336.699219 45.570312 336.742188 45.488281 L 336.867188 45.242188 L 337.121094 44.75 L 338.558594 45.449219 L 338.285156 45.980469 L 338.148438 46.25 C 338.101562 46.335938 338.050781 46.421875 338 46.511719 L 336.605469 45.726562 " fill-opacity="1" fill-rule="nonzero"/><path fill="#2c3c38" d="M 335.5 47.464844 C 335.605469 47.316406 335.714844 47.167969 335.816406 47.015625 L 336.117188 46.550781 L 337.46875 47.402344 L 337.144531 47.90625 C 337.03125 48.074219 336.914062 48.234375 336.796875 48.398438 L 335.5 47.464844 " fill-opacity="1" fill-rule="nonzero"/><path fill="#2c3c38" d="M 334.210938 49.074219 L 334.570312 48.65625 C 334.632812 48.585938 334.691406 48.515625 334.75 48.445312 L 334.921875 48.230469 L 336.171875 49.226562 L 335.984375 49.460938 C 335.921875 49.539062 335.855469 49.613281 335.789062 49.6875 L 335.398438 50.140625 L 334.210938 49.074219 " fill-opacity="1" fill-rule="nonzero"/><path fill="#2c3c38" d="M 328.316406 53.878906 C 330.253906 52.996094 332.011719 51.796875 333.550781 50.3125 L 334.132812 50.894531 C 332.519531 52.449219 330.675781 53.707031 328.644531 54.632812 Z M 333.554688 49.765625 C 331.90625 51.417969 329.949219 52.753906 327.804688 53.683594 L 328.441406 55.148438 C 330.769531 54.140625 332.898438 52.6875 334.683594 50.894531 L 333.554688 49.765625 " fill-opacity="1" fill-rule="nonzero"/><path fill="#2c3c38" d="M 326.117188 54.320312 L 326.605469 54.152344 C 326.6875 54.125 326.769531 54.101562 326.851562 54.066406 L 327.089844 53.972656 L 327.664062 55.464844 L 327.402344 55.566406 C 327.316406 55.601562 327.226562 55.628906 327.136719 55.660156 L 326.609375 55.839844 L 326.117188 54.320312 " fill-opacity="1" fill-rule="nonzero"/><path fill="#2c3c38" d="M 303.417969 29.292969 C 303.332031 29.476562 303.261719 29.667969 303.1875 29.855469 L 303.074219 30.140625 C 303.039062 30.234375 303 30.328125 302.96875 30.425781 C 302.839844 30.808594 302.703125 31.191406 302.601562 31.582031 C 302.371094 32.359375 302.214844 33.15625 302.089844 33.957031 L 300.507812 33.726562 C 300.640625 32.855469 300.816406 31.992188 301.0625 31.144531 C 301.175781 30.71875 301.324219 30.304688 301.464844 29.886719 C 301.5 29.78125 301.539062 29.675781 301.578125 29.574219 L 301.699219 29.269531 C 301.785156 29.0625 301.859375 28.855469 301.953125 28.65625 L 303.417969 29.292969 " fill-opacity="1" fill-rule="nonzero"/><path fill="#2c3c38" d="M 304.253906 27.613281 C 304.207031 27.691406 304.160156 27.769531 304.117188 27.851562 L 303.992188 28.097656 L 303.738281 28.589844 L 302.300781 27.890625 L 302.574219 27.359375 L 302.710938 27.089844 C 302.757812 27.003906 302.808594 26.917969 302.859375 26.828125 L 304.253906 27.613281 " fill-opacity="1" fill-rule="nonzero"/><path fill="#2c3c38" d="M 305.359375 25.875 C 305.253906 26.023438 305.144531 26.171875 305.042969 26.324219 L 304.742188 26.789062 L 303.390625 25.9375 L 303.714844 25.433594 C 303.828125 25.269531 303.945312 25.105469 304.0625 24.941406 L 305.359375 25.875 " fill-opacity="1" fill-rule="nonzero"/><path fill="#2c3c38" d="M 306.648438 24.265625 L 306.289062 24.683594 C 306.226562 24.753906 306.167969 24.824219 306.109375 24.894531 L 305.9375 25.109375 L 304.6875 24.113281 L 304.875 23.878906 C 304.9375 23.800781 305.003906 23.726562 305.070312 23.652344 L 305.460938 23.199219 L 306.648438 24.265625 " fill-opacity="1" fill-rule="nonzero"/><path fill="#2c3c38" d="M 313.054688 19.660156 C 310.910156 20.585938 308.953125 21.921875 307.304688 23.574219 L 306.175781 22.445312 C 307.960938 20.652344 310.089844 19.199219 312.417969 18.191406 L 313.054688 19.660156 " fill-opacity="1" fill-rule="nonzero"/><path fill="#2c3c38" d="M 314.742188 19.023438 L 314.253906 19.1875 C 314.171875 19.214844 314.089844 19.238281 314.011719 19.273438 L 313.769531 19.367188 L 313.195312 17.875 L 313.457031 17.773438 C 313.542969 17.738281 313.632812 17.710938 313.722656 17.679688 L 314.253906 17.5 L 314.742188 19.023438 " fill-opacity="1" fill-rule="nonzero"/><path fill="#2c3c38" d="M 338.941406 54.308594 L 339.289062 53.941406 C 339.40625 53.820312 339.515625 53.6875 339.625 53.5625 L 339.957031 53.179688 C 340.066406 53.050781 340.179688 52.921875 340.28125 52.789062 L 341.523438 53.796875 C 341.410156 53.941406 341.292969 54.074219 341.179688 54.210938 L 340.824219 54.617188 C 340.707031 54.753906 340.589844 54.890625 340.46875 55.019531 L 340.097656 55.410156 L 338.941406 54.308594 " fill-opacity="1" fill-rule="nonzero"/><path fill="#2c3c38" d="M 336.667969 56.425781 C 336.925781 56.210938 337.183594 55.988281 337.4375 55.765625 L 337.628906 55.597656 L 337.8125 55.425781 L 338.179688 55.074219 L 339.289062 56.226562 L 338.898438 56.597656 L 338.703125 56.78125 L 338.5 56.960938 C 338.230469 57.195312 337.960938 57.429688 337.683594 57.660156 L 336.667969 56.425781 " fill-opacity="1" fill-rule="nonzero"/><path fill="#aebfb1" d="M 334.148438 58.25 C 334.722656 57.890625 335.273438 57.496094 335.816406 57.097656 L 336.78125 58.371094 C 336.203125 58.796875 335.617188 59.21875 335.007812 59.597656 L 334.148438 58.25 " fill-opacity="1" fill-rule="nonzero"/><path fill="#aebfb1" d="M 331.425781 59.761719 C 332.035156 59.464844 332.640625 59.15625 333.222656 58.8125 L 334.023438 60.195312 C 333.402344 60.5625 332.761719 60.886719 332.113281 61.207031 L 331.425781 59.761719 " fill-opacity="1" fill-rule="nonzero"/><path fill="#aebfb1" d="M 328.53125 60.925781 C 329.175781 60.71875 329.808594 60.464844 330.4375 60.207031 L 331.0625 61.679688 C 330.394531 61.953125 329.722656 62.21875 329.035156 62.441406 L 328.53125 60.925781 " fill-opacity="1" fill-rule="nonzero"/><path fill="#2c3c38" d="M 325.515625 61.734375 C 326.179688 61.59375 326.84375 61.445312 327.492188 61.25 L 327.933594 62.785156 C 327.242188 62.992188 326.539062 63.148438 325.832031 63.300781 L 325.515625 61.734375 " fill-opacity="1" fill-rule="nonzero"/><path fill="#2c3c38" d="M 322.433594 62.160156 L 322.9375 62.121094 C 323.105469 62.105469 323.273438 62.082031 323.441406 62.0625 C 323.777344 62.019531 324.113281 61.980469 324.449219 61.925781 L 324.699219 63.507812 C 324.34375 63.566406 323.984375 63.605469 323.628906 63.652344 C 323.449219 63.671875 323.273438 63.699219 323.09375 63.710938 L 322.558594 63.753906 L 322.433594 62.160156 " fill-opacity="1" fill-rule="nonzero"/><path fill="#2c3c38" d="M 319.335938 62.21875 C 319.671875 62.230469 320.007812 62.238281 320.347656 62.242188 C 320.683594 62.242188 321.019531 62.230469 321.355469 62.222656 L 321.414062 63.820312 C 321.054688 63.828125 320.699219 63.84375 320.339844 63.839844 C 319.984375 63.835938 319.625 63.828125 319.269531 63.816406 L 319.335938 62.21875 " fill-opacity="1" fill-rule="nonzero"/><path fill="#aebfb1" d="M 316.242188 61.898438 C 316.578125 61.960938 316.914062 61.996094 317.25 62.042969 L 317.753906 62.105469 C 317.921875 62.125 318.089844 62.132812 318.257812 62.148438 L 318.125 63.742188 C 317.945312 63.726562 317.765625 63.714844 317.589844 63.695312 L 317.050781 63.628906 C 316.695312 63.582031 316.339844 63.542969 315.984375 63.476562 L 316.242188 61.898438 " fill-opacity="1" fill-rule="nonzero"/><path fill="#aebfb1" d="M 313.203125 61.203125 C 313.53125 61.292969 313.855469 61.390625 314.183594 61.472656 C 314.515625 61.550781 314.847656 61.628906 315.175781 61.699219 L 314.851562 63.265625 C 314.496094 63.1875 314.144531 63.105469 313.796875 63.023438 C 313.445312 62.9375 313.101562 62.832031 312.753906 62.734375 L 313.203125 61.203125 " fill-opacity="1" fill-rule="nonzero"/><path fill="#2c3c38" d="M 310.269531 60.140625 C 310.347656 60.175781 310.421875 60.210938 310.5 60.242188 L 310.738281 60.335938 L 311.210938 60.523438 C 311.371094 60.585938 311.527344 60.648438 311.6875 60.707031 L 312.167969 60.871094 L 311.652344 62.386719 L 311.140625 62.210938 C 310.96875 62.148438 310.804688 62.082031 310.632812 62.015625 L 310.132812 61.816406 L 309.878906 61.714844 C 309.796875 61.679688 309.714844 61.644531 309.632812 61.605469 L 310.269531 60.140625 " fill-opacity="1" fill-rule="nonzero"/><path fill="#aebfb1" d="M 307.488281 58.726562 L 307.929688 58.980469 C 308.078125 59.0625 308.222656 59.148438 308.375 59.226562 C 308.675781 59.382812 308.976562 59.535156 309.28125 59.6875 L 308.585938 61.128906 C 308.261719 60.964844 307.941406 60.800781 307.621094 60.636719 C 307.460938 60.554688 307.304688 60.464844 307.148438 60.375 L 306.679688 60.105469 L 307.488281 58.726562 " fill-opacity="1" fill-rule="nonzero"/><path fill="#2c3c38" d="M 304.90625 56.992188 L 305.109375 57.148438 L 305.3125 57.296875 L 306.140625 57.882812 L 306.566406 58.160156 L 305.703125 59.5 L 305.25 59.207031 L 304.808594 58.898438 L 304.367188 58.585938 L 304.148438 58.425781 L 303.9375 58.261719 L 304.90625 56.992188 " fill-opacity="1" fill-rule="nonzero"/><path fill="#2c3c38" d="M 302.558594 54.960938 C 302.804688 55.191406 303.046875 55.429688 303.296875 55.65625 C 303.550781 55.878906 303.804688 56.097656 304.0625 56.320312 L 303.039062 57.546875 C 302.765625 57.3125 302.492188 57.078125 302.226562 56.839844 C 301.957031 56.601562 301.699219 56.351562 301.441406 56.101562 L 302.558594 54.960938 " fill-opacity="1" fill-rule="nonzero"/><path fill="#2c3c38" d="M 300.65625 54.734375 C 300.625 54.699219 300.59375 54.667969 300.5625 54.632812 L 300.210938 54.230469 L 300.15625 54.167969 C 300.027344 54.019531 299.898438 53.867188 299.773438 53.71875 L 300.414062 53.203125 C 300.53125 53.34375 300.652344 53.480469 300.765625 53.617188 L 300.832031 53.691406 L 301.167969 54.074219 C 301.195312 54.105469 301.222656 54.140625 301.253906 54.171875 Z M 301.457031 53.816406 L 301.121094 53.433594 C 300.902344 53.179688 300.679688 52.925781 300.472656 52.65625 L 299.226562 53.65625 C 299.445312 53.941406 299.683594 54.210938 299.917969 54.484375 L 300.269531 54.886719 C 300.390625 55.023438 300.515625 55.152344 300.636719 55.28125 L 301.804688 54.1875 C 301.6875 54.0625 301.570312 53.941406 301.457031 53.816406 " fill-opacity="1" fill-rule="nonzero"/><path fill="#2c3c38" d="M 298.222656 51.648438 C 298.101562 51.460938 297.976562 51.273438 297.855469 51.082031 L 298.554688 50.648438 C 298.671875 50.828125 298.785156 51.007812 298.902344 51.183594 L 298.90625 51.195312 C 299.027344 51.363281 299.148438 51.535156 299.273438 51.714844 L 298.613281 52.199219 C 298.476562 52.011719 298.347656 51.828125 298.222656 51.648438 Z M 299.226562 50.972656 C 299.042969 50.6875 298.859375 50.402344 298.675781 50.117188 L 297.316406 50.960938 C 297.511719 51.261719 297.703125 51.566406 297.902344 51.867188 C 298.105469 52.160156 298.316406 52.453125 298.523438 52.746094 L 299.8125 51.800781 C 299.617188 51.523438 299.421875 51.25 299.226562 50.972656 " fill-opacity="1" fill-rule="nonzero"/><path fill="#2c3c38" d="M 296.882812 49.4375 C 296.789062 49.261719 296.695312 49.082031 296.605469 48.90625 L 296.570312 48.839844 L 296.328125 48.359375 C 296.308594 48.316406 296.285156 48.273438 296.265625 48.234375 L 297.011719 47.886719 C 297.03125 47.929688 297.050781 47.96875 297.070312 48.007812 L 297.304688 48.464844 L 297.34375 48.546875 C 297.425781 48.707031 297.511719 48.871094 297.601562 49.035156 Z M 297.648438 48.289062 L 297.417969 47.832031 C 297.34375 47.683594 297.273438 47.527344 297.203125 47.371094 L 295.75 48.042969 C 295.828125 48.207031 295.898438 48.371094 295.980469 48.53125 L 296.226562 49.015625 C 296.390625 49.335938 296.550781 49.65625 296.734375 49.964844 L 298.128906 49.183594 C 297.957031 48.890625 297.804688 48.589844 297.648438 48.289062 " fill-opacity="1" fill-rule="nonzero"/><path fill="#2c3c38" d="M 296.070312 44.464844 C 296.175781 44.789062 296.285156 45.109375 296.398438 45.429688 C 296.519531 45.746094 296.644531 46.0625 296.769531 46.378906 L 295.289062 46.984375 C 295.15625 46.648438 295.023438 46.316406 294.898438 45.976562 C 294.777344 45.636719 294.660156 45.292969 294.546875 44.953125 L 296.070312 44.464844 " fill-opacity="1" fill-rule="nonzero"/><path fill="#2c3c38" d="M 295.304688 41.441406 C 295.363281 41.773438 295.4375 42.105469 295.515625 42.433594 C 295.59375 42.765625 295.667969 43.097656 295.765625 43.421875 L 294.222656 43.84375 C 294.121094 43.5 294.039062 43.148438 293.957031 42.792969 C 293.875 42.441406 293.796875 42.089844 293.734375 41.738281 L 295.304688 41.441406 " fill-opacity="1" fill-rule="nonzero"/><path fill="#aebfb1" d="M 294.914062 38.351562 C 294.941406 38.691406 294.964844 39.027344 295 39.363281 C 295.039062 39.699219 295.082031 40.035156 295.125 40.371094 L 293.542969 40.601562 C 293.496094 40.242188 293.449219 39.886719 293.40625 39.53125 C 293.371094 39.171875 293.347656 38.816406 293.320312 38.457031 L 294.914062 38.351562 " fill-opacity="1" fill-rule="nonzero"/><path fill="#aebfb1" d="M 301.917969 19.03125 L 301.570312 19.398438 C 301.453125 19.519531 301.347656 19.652344 301.234375 19.777344 L 300.902344 20.160156 C 300.792969 20.289062 300.679688 20.417969 300.578125 20.550781 L 299.335938 19.542969 C 299.449219 19.398438 299.566406 19.265625 299.683594 19.128906 L 300.035156 18.722656 C 300.152344 18.585938 300.269531 18.449219 300.390625 18.320312 L 300.761719 17.929688 L 301.917969 19.03125 " fill-opacity="1" fill-rule="nonzero"/><path fill="#2c3c38" d="M 304.191406 16.914062 C 303.933594 17.128906 303.679688 17.351562 303.421875 17.574219 L 303.234375 17.742188 L 303.046875 17.914062 L 302.679688 18.265625 L 301.570312 17.113281 L 301.960938 16.742188 L 302.15625 16.558594 L 302.359375 16.378906 C 302.628906 16.144531 302.902344 15.910156 303.175781 15.679688 L 304.191406 16.914062 " fill-opacity="1" fill-rule="nonzero"/><path fill="#2c3c38" d="M 306.710938 15.089844 C 306.136719 15.449219 305.585938 15.84375 305.042969 16.242188 L 304.078125 14.96875 C 304.65625 14.542969 305.242188 14.121094 305.851562 13.742188 L 306.710938 15.089844 " fill-opacity="1" fill-rule="nonzero"/><path fill="#2c3c38" d="M 307.367188 13.285156 C 307.769531 13.0625 308.171875 12.851562 308.566406 12.65625 L 308.917969 13.398438 C 308.542969 13.585938 308.160156 13.785156 307.777344 14 Z M 308.746094 12.132812 C 308.101562 12.453125 307.457031 12.777344 306.835938 13.144531 L 307.636719 14.527344 C 308.21875 14.183594 308.824219 13.875 309.433594 13.578125 L 308.746094 12.132812 " fill-opacity="1" fill-rule="nonzero"/><path fill="#2c3c38" d="M 310.308594 11.871094 C 310.757812 11.691406 311.167969 11.53125 311.578125 11.390625 L 311.839844 12.167969 C 311.417969 12.316406 311.011719 12.472656 310.632812 12.628906 Z M 311.824219 10.898438 C 311.136719 11.121094 310.464844 11.386719 309.796875 11.660156 L 310.421875 13.132812 C 311.050781 12.875 311.683594 12.621094 312.328125 12.414062 L 311.824219 10.898438 " fill-opacity="1" fill-rule="nonzero"/><path fill="#2c3c38" d="M 315.34375 11.605469 C 314.679688 11.75 314.015625 11.898438 313.367188 12.089844 L 312.925781 10.554688 C 313.617188 10.347656 314.320312 10.191406 315.027344 10.039062 L 315.34375 11.605469 " fill-opacity="1" fill-rule="nonzero"/><path fill="#2c3c38" d="M 317.890625 10.832031 C 317.765625 10.84375 317.648438 10.855469 317.53125 10.871094 C 317.476562 10.878906 317.425781 10.886719 317.367188 10.890625 C 317.285156 10.902344 317.199219 10.914062 317.117188 10.925781 C 316.992188 10.941406 316.863281 10.957031 316.734375 10.972656 L 316.605469 10.160156 C 316.746094 10.140625 316.890625 10.125 317.027344 10.105469 C 317.113281 10.09375 317.195312 10.085938 317.277344 10.074219 C 317.332031 10.070312 317.390625 10.0625 317.445312 10.054688 C 317.566406 10.039062 317.683594 10.023438 317.796875 10.015625 L 317.945312 10.003906 L 318.007812 10.824219 Z M 318.304688 9.585938 L 317.765625 9.628906 C 317.585938 9.644531 317.410156 9.667969 317.230469 9.6875 C 316.875 9.734375 316.515625 9.777344 316.160156 9.835938 L 316.410156 11.414062 C 316.746094 11.359375 317.082031 11.320312 317.417969 11.277344 C 317.585938 11.257812 317.753906 11.234375 317.921875 11.21875 L 318.425781 11.179688 L 318.304688 9.585938 " fill-opacity="1" fill-rule="nonzero"/><path fill="#2c3c38" d="M 321.152344 10.722656 C 320.941406 10.71875 320.726562 10.710938 320.515625 10.707031 L 320.496094 10.707031 C 320.289062 10.707031 320.082031 10.714844 319.878906 10.71875 L 319.847656 9.898438 C 320.066406 9.890625 320.285156 9.886719 320.5 9.886719 L 320.511719 9.886719 C 320.738281 9.890625 320.960938 9.894531 321.1875 9.902344 Z M 320.519531 9.5 L 320.5 9.5 C 320.148438 9.5 319.796875 9.511719 319.445312 9.519531 L 319.503906 11.117188 C 319.835938 11.109375 320.167969 11.097656 320.496094 11.097656 L 320.515625 11.097656 C 320.851562 11.101562 321.1875 11.109375 321.523438 11.121094 L 321.589844 9.523438 C 321.234375 9.511719 320.875 9.503906 320.519531 9.5 " fill-opacity="1" fill-rule="nonzero"/><path fill="#2c3c38" d="M 324.617188 11.441406 C 324.28125 11.378906 323.945312 11.34375 323.609375 11.296875 L 323.105469 11.234375 C 322.9375 11.214844 322.769531 11.207031 322.601562 11.191406 L 322.734375 9.597656 C 322.914062 9.613281 323.09375 9.625 323.273438 9.644531 L 323.808594 9.710938 C 324.164062 9.757812 324.519531 9.796875 324.875 9.863281 L 324.617188 11.441406 " fill-opacity="1" fill-rule="nonzero"/><path fill="#aebfb1" d="M 327.65625 12.136719 C 327.328125 12.046875 327.003906 11.949219 326.675781 11.867188 C 326.34375 11.789062 326.011719 11.714844 325.683594 11.640625 L 326.007812 10.074219 C 326.363281 10.152344 326.714844 10.234375 327.0625 10.316406 C 327.414062 10.402344 327.761719 10.507812 328.109375 10.605469 L 327.65625 12.136719 " fill-opacity="1" fill-rule="nonzero"/><path fill="#aebfb1" d="M 330.589844 13.199219 C 330.511719 13.164062 330.4375 13.128906 330.359375 13.097656 L 330.121094 13.003906 L 329.648438 12.816406 C 329.492188 12.753906 329.332031 12.691406 329.171875 12.632812 L 328.691406 12.46875 L 329.207031 10.953125 L 329.71875 11.128906 C 329.890625 11.191406 330.058594 11.257812 330.226562 11.324219 L 330.726562 11.523438 L 330.980469 11.625 C 331.0625 11.660156 331.144531 11.695312 331.226562 11.734375 L 330.589844 13.199219 " fill-opacity="1" fill-rule="nonzero"/><path fill="#aebfb1" d="M 333.371094 14.613281 L 332.929688 14.359375 C 332.78125 14.277344 332.636719 14.191406 332.484375 14.113281 C 332.183594 13.957031 331.882812 13.804688 331.578125 13.652344 L 332.277344 12.210938 C 332.597656 12.375 332.917969 12.539062 333.238281 12.703125 C 333.398438 12.785156 333.554688 12.875 333.710938 12.964844 L 334.179688 13.234375 L 333.371094 14.613281 " fill-opacity="1" fill-rule="nonzero"/><path fill="#aebfb1" d="M 335.953125 16.347656 L 335.75 16.191406 L 335.546875 16.042969 L 334.71875 15.457031 L 334.292969 15.179688 L 335.160156 13.839844 L 335.609375 14.132812 L 336.050781 14.441406 L 336.492188 14.753906 L 336.710938 14.914062 L 336.921875 15.078125 L 335.953125 16.347656 " fill-opacity="1" fill-rule="nonzero"/><path fill="#2c3c38" d="M 338.300781 18.378906 C 338.058594 18.148438 337.8125 17.914062 337.5625 17.6875 C 337.308594 17.460938 337.054688 17.242188 336.796875 17.019531 L 337.820312 15.792969 C 338.09375 16.027344 338.367188 16.261719 338.636719 16.5 C 338.902344 16.742188 339.160156 16.988281 339.417969 17.238281 L 338.300781 18.378906 " fill-opacity="1" fill-rule="nonzero"/><path fill="#2c3c38" d="M 340.386719 20.683594 C 340.179688 20.414062 339.957031 20.160156 339.738281 19.90625 L 339.402344 19.523438 C 339.289062 19.398438 339.171875 19.277344 339.058594 19.152344 L 340.222656 18.058594 C 340.34375 18.1875 340.46875 18.316406 340.589844 18.453125 L 340.941406 18.855469 C 341.179688 19.128906 341.414062 19.398438 341.632812 19.683594 L 340.386719 20.683594 " fill-opacity="1" fill-rule="nonzero"/><path fill="#2c3c38" d="M 342.183594 23.222656 C 342 22.9375 341.816406 22.652344 341.632812 22.367188 C 341.441406 22.089844 341.242188 21.816406 341.046875 21.539062 L 342.335938 20.59375 C 342.542969 20.886719 342.753906 21.179688 342.957031 21.472656 C 343.15625 21.773438 343.347656 22.078125 343.542969 22.382812 L 342.183594 23.222656 " fill-opacity="1" fill-rule="nonzero"/><path fill="#2c3c38" d="M 343.65625 25.96875 C 343.585938 25.8125 343.519531 25.65625 343.441406 25.507812 L 343.210938 25.050781 C 343.058594 24.75 342.902344 24.449219 342.730469 24.15625 L 344.125 23.375 C 344.308594 23.683594 344.46875 24.003906 344.636719 24.324219 L 344.878906 24.808594 C 344.960938 24.96875 345.03125 25.132812 345.109375 25.296875 L 343.65625 25.96875 " fill-opacity="1" fill-rule="nonzero"/><path fill="#aebfb1" d="M 344.789062 28.875 C 344.683594 28.554688 344.574219 28.230469 344.460938 27.910156 C 344.339844 27.59375 344.214844 27.277344 344.089844 26.960938 L 345.570312 26.355469 C 345.703125 26.691406 345.835938 27.023438 345.964844 27.363281 C 346.082031 27.703125 346.199219 28.046875 346.3125 28.386719 L 344.789062 28.875 " fill-opacity="1" fill-rule="nonzero"/><path fill="#aebfb1" d="M 345.554688 31.902344 C 345.496094 31.566406 345.421875 31.234375 345.34375 30.90625 C 345.269531 30.574219 345.191406 30.242188 345.097656 29.917969 L 346.636719 29.496094 C 346.738281 29.84375 346.820312 30.195312 346.902344 30.546875 C 346.984375 30.898438 347.066406 31.25 347.125 31.605469 L 345.554688 31.902344 " fill-opacity="1" fill-rule="nonzero"/><path fill="#2c3c38" d="M 345.945312 34.988281 C 345.917969 34.652344 345.898438 34.3125 345.863281 33.976562 C 345.820312 33.640625 345.78125 33.304688 345.734375 32.96875 L 347.316406 32.738281 C 347.363281 33.097656 347.410156 33.453125 347.453125 33.808594 C 347.488281 34.167969 347.511719 34.523438 347.539062 34.882812 L 345.945312 34.988281 " fill-opacity="1" fill-rule="nonzero"/><g fill="#aebfb1" fill-opacity="1"><g transform="translate(0.744527, 51.837698)"><g><path d="M 32.265625 -22.1875 L 12.625 -22.1875 L 12.625 -5.09375 L 32.265625 -5.09375 L 32.265625 -11.09375 L 21.984375 -11.09375 L 21.984375 -15.703125 L 38.375 -15.703125 L 38.375 -6.390625 C 38.375 -3.921875 37.910156 -2.238281 36.984375 -1.34375 C 36.066406 -0.445312 34.296875 0 31.671875 0 L 13.03125 0 C 10.40625 0 8.632812 -0.445312 7.71875 -1.34375 C 6.800781 -2.238281 6.34375 -3.921875 6.34375 -6.390625 L 6.34375 -20.625 C 6.34375 -23.082031 6.800781 -24.757812 7.71875 -25.65625 C 8.632812 -26.5625 10.40625 -27.015625 13.03125 -27.015625 L 31.671875 -27.015625 C 34.265625 -27.015625 36.03125 -26.570312 36.96875 -25.6875 C 37.90625 -24.800781 38.375 -23.203125 38.375 -20.890625 L 38.375 -20.28125 L 32.265625 -19.171875 Z M 32.265625 -22.1875 "/></g></g></g><g fill="#aebfb1" fill-opacity="1"><g transform="translate(45.504586, 51.837698)"><g><path d="M 4.9375 0 L 4.9375 -22.140625 L 10.375 -22.140625 L 10.375 -13.734375 L 27.234375 -13.734375 L 27.234375 -22.140625 L 32.625 -22.140625 L 32.625 0 L 27.234375 0 L 27.234375 -9.328125 L 10.375 -9.328125 L 10.375 0 Z M 4.9375 0 "/></g></g></g><g fill="#aebfb1" fill-opacity="1"><g transform="translate(83.081559, 51.837698)"><g><path d="M 9.796875 -4.25 L 27.640625 -4.25 L 27.640625 -18.078125 L 9.796875 -18.078125 Z M 4.390625 -16.921875 C 4.390625 -18.929688 4.78125 -20.300781 5.5625 -21.03125 C 6.351562 -21.769531 7.882812 -22.140625 10.15625 -22.140625 L 27.28125 -22.140625 C 29.5625 -22.140625 31.085938 -21.769531 31.859375 -21.03125 C 32.640625 -20.300781 33.03125 -18.929688 33.03125 -16.921875 L 33.03125 -5.234375 C 33.03125 -3.210938 32.632812 -1.832031 31.84375 -1.09375 C 31.050781 -0.363281 29.53125 0 27.28125 0 L 10.15625 0 C 7.882812 0 6.351562 -0.363281 5.5625 -1.09375 C 4.78125 -1.832031 4.390625 -3.210938 4.390625 -5.234375 Z M 4.390625 -16.921875 "/></g></g></g><g fill="#aebfb1" fill-opacity="1"><g transform="translate(120.505155, 51.837698)"><g><path d="M 25.390625 -18.171875 L 10.15625 -18.171875 L 10.15625 -13.5 L 24.5625 -13.5 C 26.832031 -13.5 28.359375 -13.132812 29.140625 -12.40625 C 29.929688 -11.6875 30.328125 -10.3125 30.328125 -8.28125 L 30.328125 -5.234375 C 30.328125 -3.210938 29.925781 -1.832031 29.125 -1.09375 C 28.320312 -0.363281 26.800781 0 24.5625 0 L 10.203125 0 C 7.921875 0 6.375 -0.363281 5.5625 -1.09375 C 4.75 -1.832031 4.34375 -3.210938 4.34375 -5.234375 L 4.34375 -5.859375 L 9.15625 -6.75 L 9.15625 -4.140625 L 25.4375 -4.140625 L 25.4375 -9.203125 L 11.09375 -9.203125 C 8.832031 -9.203125 7.300781 -9.570312 6.5 -10.3125 C 5.695312 -11.050781 5.296875 -12.425781 5.296875 -14.4375 L 5.296875 -16.921875 C 5.296875 -18.921875 5.695312 -20.289062 6.5 -21.03125 C 7.300781 -21.769531 8.832031 -22.140625 11.09375 -22.140625 L 24.234375 -22.140625 C 26.460938 -22.140625 27.988281 -21.785156 28.8125 -21.078125 C 29.644531 -20.367188 30.0625 -19.117188 30.0625 -17.328125 L 30.0625 -16.796875 L 25.390625 -15.796875 Z M 25.390625 -18.171875 "/></g></g></g><g fill="#aebfb1" fill-opacity="1"><g transform="translate(155.21912, 51.837698)"><g><path d="M 18.125 -18.171875 L 18.125 0 L 12.734375 0 L 12.734375 -18.171875 L 2.046875 -18.171875 L 2.046875 -22.140625 L 28.84375 -22.140625 L 28.84375 -18.171875 Z M 18.125 -18.171875 "/></g></g></g><g fill="#ffffff" fill-opacity="1"><g transform="translate(186.105086, 51.837698)"><g><path d="M 6.34375 -20.625 C 6.34375 -23.082031 6.800781 -24.757812 7.71875 -25.65625 C 8.632812 -26.5625 10.40625 -27.015625 13.03125 -27.015625 L 32.921875 -27.015625 C 35.546875 -27.015625 37.316406 -26.5625 38.234375 -25.65625 C 39.160156 -24.757812 39.625 -23.082031 39.625 -20.625 L 39.625 -6.390625 C 39.625 -3.921875 39.160156 -2.238281 38.234375 -1.34375 C 37.316406 -0.445312 35.546875 0 32.921875 0 L 13.03125 0 C 10.40625 0 8.632812 -0.445312 7.71875 -1.34375 C 6.800781 -2.238281 6.34375 -3.921875 6.34375 -6.390625 Z M 12.625 -5.09375 L 33.359375 -5.09375 L 33.359375 -22.1875 L 12.625 -22.1875 Z M 12.625 -5.09375 "/></g></g></g><g fill="#ffffff" fill-opacity="1"><g transform="translate(232.06658, 51.837698)"><g><path d="M 4.9375 0 L 4.9375 -22.140625 L 24.875 -22.140625 C 26.71875 -22.140625 28.039062 -21.800781 28.84375 -21.125 C 29.65625 -20.457031 30.0625 -19.363281 30.0625 -17.84375 L 30.0625 -12.9375 C 30.0625 -11.414062 29.648438 -10.316406 28.828125 -9.640625 C 28.015625 -8.972656 26.695312 -8.640625 24.875 -8.640625 L 10.25 -8.640625 L 10.25 0 Z M 22.578125 -18.328125 L 10.25 -18.328125 L 10.25 -12.453125 L 22.578125 -12.453125 C 23.515625 -12.453125 24.15625 -12.585938 24.5 -12.859375 C 24.851562 -13.128906 25.03125 -13.585938 25.03125 -14.234375 L 25.03125 -16.546875 C 25.03125 -17.191406 24.851562 -17.648438 24.5 -17.921875 C 24.15625 -18.191406 23.515625 -18.328125 22.578125 -18.328125 Z M 22.578125 -18.328125 "/></g></g></g><g fill="#ffffff" fill-opacity="1"><g transform="translate(264.94004, 51.837698)"><g><path d="M 25.390625 -18.171875 L 10.15625 -18.171875 L 10.15625 -13.5 L 24.5625 -13.5 C 26.832031 -13.5 28.359375 -13.132812 29.140625 -12.40625 C 29.929688 -11.6875 30.328125 -10.3125 30.328125 -8.28125 L 30.328125 -5.234375 C 30.328125 -3.210938 29.925781 -1.832031 29.125 -1.09375 C 28.320312 -0.363281 26.800781 0 24.5625 0 L 10.203125 0 C 7.921875 0 6.375 -0.363281 5.5625 -1.09375 C 4.75 -1.832031 4.34375 -3.210938 4.34375 -5.234375 L 4.34375 -5.859375 L 9.15625 -6.75 L 9.15625 -4.140625 L 25.4375 -4.140625 L 25.4375 -9.203125 L 11.09375 -9.203125 C 8.832031 -9.203125 7.300781 -9.570312 6.5 -10.3125 C 5.695312 -11.050781 5.296875 -12.425781 5.296875 -14.4375 L 5.296875 -16.921875 C 5.296875 -18.921875 5.695312 -20.289062 6.5 -21.03125 C 7.300781 -21.769531 8.832031 -22.140625 11.09375 -22.140625 L 24.234375 -22.140625 C 26.460938 -22.140625 27.988281 -21.785156 28.8125 -21.078125 C 29.644531 -20.367188 30.0625 -19.117188 30.0625 -17.328125 L 30.0625 -16.796875 L 25.390625 -15.796875 Z M 25.390625 -18.171875 "/></g></g></g><g fill="#c1ff72" fill-opacity="1"><g transform="translate(299.656735, 51.837698)"><g><path d="M 13.828125 -10.78125 L 25.671875 -10.78125 L 19.84375 -21.78125 Z M 1.734375 0 L 17.03125 -27.015625 L 23.09375 -27.015625 L 38.578125 0 L 31.515625 0 L 28.28125 -5.90625 L 11.140625 -5.90625 L 8 0 Z M 1.734375 0 "/></g></g></g><g fill="#c1ff72" fill-opacity="1"><g transform="translate(340.020034, 51.837698)"><g><path d="M 6.90625 0 L 6.90625 -27.015625 L 13.1875 -27.015625 L 13.1875 0 Z M 6.90625 0 "/></g></g></g></svg>