<svg xmlns="http://www.w3.org/2000/svg" width="500" height="100" version="1.0" viewBox="0 0 375 75"><defs><clipPath id="a"><path d="M323 1.45h33V34h-33Zm0 0"/></clipPath><clipPath id="b"><path d="M300.594 46.375H350v27.074h-49.406Zm0 0"/></clipPath><clipPath id="c"><path d="M280.234 36H312v22h-31.766Zm0 0"/></clipPath></defs><g clip-path="url(#a)"><path fill="#78866b" d="M330.438 33.34c-.977-3.29-3.915-5.977-6.891-6.774l7.98-25.117c2.2.696 4.364 1.61 6.465 2.746 8.969 4.856 15.121 12.883 17.82 21.942l-25.375 7.203"/></g><g clip-path="url(#b)"><path fill="#78866b" d="m333.332 46.453 16.543 12.55c-6.75 8.888-17.426 14.626-29.445 14.626a36.752 36.752 0 0 1-19.746-5.715l11.109-17.598a15.731 15.731 0 0 0 8.637 2.547c5.265 0 9.945-2.515 12.902-6.41"/></g><path fill="#d9d9d9" d="m304.797 33.594-20.813-4.477.055-.25c2.125-9.953 8.356-18.707 17.094-24.015l.222-.133 11.036 18.199-.22.133c-3.745 2.277-6.413 6.027-7.32 10.289l-.054.254M301.184 5.43c-8.43 5.203-14.454 13.668-16.582 23.293l19.8 4.257a16.5 16.5 0 0 1 7.282-10.234l-10.5-17.316"/><g clip-path="url(#c)"><path fill="#78866b" d="M311.336 42.125 285.984 57.27a39.956 39.956 0 0 1-5.68-20.594h29.528c0 1.992.547 3.855 1.504 5.449"/></g><path fill="#d9d9d9" d="M360.816 36.934h-30.043v-.258a10.34 10.34 0 0 0-1.46-5.301l-.137-.223.207-.125c.453.723.816 1.5 1.055 2.313l.3-.086c.336 1.016.524 2.082.547 3.164h29.012a39.735 39.735 0 0 0-5.5-19.957l-2.531 1.508a16.5 16.5 0 0 0-.266-.442l2.977-1.777.132.223a40.293 40.293 0 0 1 5.707 20.703v.258"/><path fill="#222831" d="M330.438 33.34a9.295 9.295 0 0 0-1.055-2.313L352 17.527c.09.145.18.293.266.442l-22.38 13.363c.348.613.634 1.258.852 1.922l-.3.086"/><path fill="#aebfb1" d="m343.629 40.152-1.578-.257c-1.227 8.304-7.125 15.085-14.938 17.593l.5 1.516c8.371-2.691 14.692-9.957 16.016-18.852M313.71 15.867l-.487-1.523c-8.364 2.695-14.672 9.96-15.993 18.851l1.579.266c1.218-8.297 7.101-15.078 14.902-17.594"/><path fill="#2c3c38" d="M320.43 8.418c15.226 0 27.636 12.043 28.23 27.125l.719-.035c-.61-15.461-13.336-27.809-28.95-27.809-3.019 0-5.933.461-8.667 1.32l.218.684a28.222 28.222 0 0 1 8.45-1.285M320.43 64.922c-15.227 0-27.64-12.047-28.23-27.133l-.72.04c.61 15.464 13.336 27.812 28.95 27.812 3.02 0 5.93-.461 8.664-1.317l-.219-.687a28.197 28.197 0 0 1-8.445 1.285"/><path fill="#aebfb1" d="M350.676 37.023c-.188 16.543-13.656 29.895-30.246 29.895-12.805 0-23.754-7.957-28.168-19.195l-.89.355c4.554 11.594 15.847 19.8 29.058 19.8 17.11 0 31.007-13.769 31.207-30.831l-.961-.024M320.43 6.422c12.824 0 23.785 7.98 28.187 19.246l.89-.352C344.97 13.696 333.66 5.461 320.43 5.461c-17.09 0-30.973 13.738-31.207 30.777l.96.016c.223-16.516 13.68-29.832 30.247-29.832"/><path fill="#2c3c38" d="M320.43 21.047c8.222 0 14.957 6.348 15.578 14.41l1.035-.07c-.652-8.602-7.84-15.38-16.613-15.38-7.442 0-13.743 4.88-15.883 11.61l.988.324c2.004-6.316 7.914-10.894 14.895-10.894M335.316 41.422c-2.011 6.305-7.914 10.871-14.886 10.871-8.235 0-14.98-6.367-15.582-14.45l-1.036.09c.649 8.614 7.84 15.399 16.618 15.399 7.43 0 13.722-4.86 15.87-11.578l-.984-.332"/><path fill="#2c3c38" d="M320.43 26.281c-5.73 0-10.39 4.66-10.39 10.387 0 5.73 4.66 10.39 10.39 10.39s10.39-4.66 10.39-10.39c0-5.727-4.66-10.387-10.39-10.387Zm0 21.176c-5.95 0-10.79-4.836-10.79-10.789 0-5.95 4.84-10.785 10.79-10.785 5.949 0 10.789 4.836 10.789 10.785 0 5.953-4.84 10.789-10.79 10.789"/><path fill="#2c3c38" d="M324.016 38.703a4.13 4.13 0 0 1-3.582 2.07c-1.66 0-3.09-.972-3.747-2.382l-2.304 1.136a6.702 6.702 0 0 0 11.855.461l-2.222-1.285"/><path fill="#aebfb1" d="m316.316 36.992-2.558.262c.055.582.18 1.14.37 1.668l2.407-.906a3.885 3.885 0 0 1-.219-1.024"/><path fill="#2c3c38" d="M320.43 32.555c1.46 0 2.742.761 3.472 1.91l2.192-1.324a6.67 6.67 0 0 0-5.664-3.145 6.67 6.67 0 0 0-4.223 1.504l1.613 1.988a4.102 4.102 0 0 1 2.61-.933M317.508 33.723l-1.813-1.82a6.665 6.665 0 0 0-1.965 4.679h2.57a4.11 4.11 0 0 1 1.208-2.86"/><path fill="#aebfb1" d="m324.184 38.21 2.367.997a6.67 6.67 0 0 0 .035-5.074l-2.375.976a4.113 4.113 0 0 1-.027 3.102"/><path fill="#aebfb1" d="m334.383 35.918-1.492.078c-.016-.34-.047-.68-.094-1.02l1.48-.203c-.054-.363-.109-.73-.195-1.09l-1.457.317c-.074-.332-.16-.664-.262-.992l1.43-.434a13.67 13.67 0 0 0-1.086-2.586l-1.312.715c-.16-.297-.336-.59-.528-.879l1.254-.82-.652-.902-1.176.918a12.437 12.437 0 0 0-3.723-3.215l.743-1.317c-.317-.187-.653-.343-.985-.508l-.637 1.372a11.763 11.763 0 0 0-.945-.395l.524-1.414c-.172-.07-1.06-.34-1.06-.34l-.405 1.45c-.5-.141-1.012-.25-1.528-.329l-.035.723a11.734 11.734 0 0 1 6.93 3.754c4.344 4.828 3.957 12.265-.871 16.61a11.714 11.714 0 0 1-7.285 3.007l-.04.723a12.785 12.785 0 0 0 2.067-.266l.312 1.46c.18-.038.364-.073.54-.124.18-.05.359-.09.535-.145l-.426-1.437c.324-.098.648-.207.965-.332l.547 1.394.129-.046.125-.055.257-.11.254-.109.246-.125-.652-1.344c.305-.148.605-.312.902-.484l.762 1.289.473-.293c.078-.047.152-.102.23-.156l.227-.156-.864-1.223c.278-.195.551-.402.817-.625l.957 1.148a13.86 13.86 0 0 0 1.969-2.007l-1.164-.934c.214-.27.414-.543.605-.824l1.242.836c.055-.075.102-.157.149-.235l.148-.234c.047-.078.102-.152.145-.234l.136-.243-1.3-.734c.168-.297.32-.602.464-.91l1.36.625.222-.508.2-.52-1.407-.511c.118-.32.223-.649.313-.977l1.441.399.075-.274c.027-.09.043-.183.062-.273l.063-.278c.02-.09.043-.183.054-.277l.098-.555.07-.562c.078-.746.098-1.504.059-2.254M312.563 27.93a11.697 11.697 0 0 1 7.285-3.008l.035-.723c-.692.031-1.383.121-2.067.266l-.312-1.461c-.18.039-.899.215-1.074.27l.425 1.437c-.324.098-.648.207-.964.332l-.543-1.395-1.016.446.652 1.343c-.304.149-.605.313-.898.485l-.766-1.29-.93.606.864 1.223c-.277.195-.55.402-.817.625l-.957-1.148a14.065 14.065 0 0 0-1.968 2.007l1.164.934c-.211.27-.414.543-.606.824l-1.238-.836c-.059.074-.105.156-.152.235l-.149.234c-.047.078-.101.152-.144.234l-.137.242 1.3.735c-.167.297-.32.601-.46.91l-1.363-.625-.223.508-.2.52 1.407.511c-.117.32-.223.649-.313.977l-1.441-.399-.074.274c-.028.09-.043.183-.063.273l-.062.277c-.02.09-.043.184-.055.278l-.098.554-.07.563c-.078.75-.098 1.504-.058 2.254l1.492-.078c.015.34.047.68.094 1.02l-1.481.202c.055.364.11.73.195 1.09l1.457-.316c.075.332.16.664.262.992l-1.43.438c.274.894.641 1.761 1.086 2.582l1.313-.715c.164.297.336.59.527.879l-1.254.82.317.457.082.113.082.11.172.222 1.18-.918a12.261 12.261 0 0 0 2.054 2.09l-.945 1.176.437.34.453.32.852-1.25c.281.195.57.375.867.54l-.742 1.316c.316.187.652.343.984.507l.637-1.37c1.09.507 2.242.85 3.414 1.027l.04-.723a11.733 11.733 0 0 1-6.935-3.754c-4.343-4.828-3.953-12.266.875-16.61"/><path fill="#2c3c38" d="M319.473 35.344a1.634 1.634 0 0 1 2.53.875l.923-.266a2.598 2.598 0 0 0-4.016-1.39 2.597 2.597 0 0 0-1.043 1.69l.945.157c.067-.414.293-.805.66-1.066M322.047 36.93a1.635 1.635 0 0 1-2.945.699 1.61 1.61 0 0 1-.247-.508l-.921.266a2.595 2.595 0 0 0 5.059-.3l-.946-.157M328.57 38.703l.047-.2c.016-.066.035-.132.043-.202l.035-.203c.012-.07.032-.137.035-.207l.872.129c-.008.074-.024.148-.04.222l-.039.227c-.007.078-.03.152-.046.226l-.051.223-.856-.215M328.176 39.906c.047-.129.101-.254.148-.383.04-.132.09-.261.133-.394l.84.258c-.047.144-.102.289-.145.433-.054.145-.113.282-.168.426l-.808-.34M327.598 41.04c.07-.122.132-.243.207-.36.062-.125.125-.25.191-.371l.79.382c-.071.137-.141.274-.208.41-.082.13-.152.262-.23.395l-.75-.457M326.848 42.074c.023-.027.047-.05.066-.078l.066-.086.13-.164c.042-.05.081-.11.12-.168l.122-.168.726.496-.133.188c-.047.062-.09.129-.136.187l-.145.18-.07.094c-.024.027-.051.054-.074.086l-.672-.567M325.945 42.988c.055-.047.11-.09.16-.14l.149-.145c.105-.09.2-.2.297-.297l.64.602c-.109.11-.21.226-.324.328l-.168.16c-.054.055-.117.102-.172.152l-.582-.66M324.922 43.754l.18-.11c.054-.039.109-.085.168-.124l.171-.118.164-.132.543.69-.183.145-.188.133c-.062.043-.12.09-.187.133l-.195.125-.473-.742M323.805 44.355c.12-.062.254-.109.37-.18.126-.062.25-.116.368-.19l.434.761c-.13.082-.27.145-.407.219-.132.074-.277.129-.414.191l-.351-.8M322.61 44.773l.199-.054c.066-.02.132-.035.195-.063l.195-.066.102-.031c.031-.008.062-.024.094-.04l.312.825c-.035.015-.07.031-.105.043l-.11.035-.219.074c-.07.027-.144.043-.218.066l-.22.063-.226-.852M321.36 45.008l.206-.028c.07-.011.141-.011.207-.027l.204-.039c.066-.012.136-.016.203-.035l.183.86c-.074.019-.152.027-.226.042l-.227.04c-.074.019-.148.019-.226.03l-.227.032-.098-.875M320.07 45.05l.211.005c.07 0 .14.008.215.004.137-.008.281-.004.422-.012l.047.875c-.152.012-.309.008-.465.016-.078.007-.156-.004-.23-.004l-.235-.004.035-.88M318.8 44.902l.208.035c.066.012.133.032.203.036l.207.023c.07.008.137.024.207.024l-.082.878c-.078-.003-.152-.02-.23-.027l-.227-.031c-.078-.004-.152-.024-.227-.035l-.226-.04.168-.863M317.582 44.566c.133.04.258.09.39.13.133.034.266.077.4.113l-.216.851c-.148-.039-.293-.086-.437-.12-.149-.048-.29-.102-.438-.145l.301-.829M316.426 44.047c.12.062.246.121.367.191.129.051.254.11.379.168l-.344.813c-.137-.067-.277-.13-.418-.192-.133-.07-.27-.14-.406-.207l.422-.773M315.355 43.352c.051.043.11.082.168.12l.168.122c.055.047.118.078.176.117l.176.113-.461.746-.195-.125c-.063-.039-.13-.078-.192-.125l-.187-.133c-.063-.046-.13-.085-.184-.136l.531-.7M314.398 42.496c.094.11.2.2.297.297.098.102.211.184.313.277l-.567.672c-.117-.105-.238-.199-.347-.308-.11-.11-.227-.211-.328-.325l.632-.613M313.582 41.512l.117.172.133.164.125.164.14.156-.663.578-.153-.176-.14-.18-.145-.18-.133-.19.719-.508M312.926 40.422c.062.121.117.25.195.363.07.121.133.246.211.36l-.742.468c-.086-.125-.156-.261-.235-.394-.082-.13-.144-.27-.218-.403l.789-.394M312.445 39.25c.082.262.18.52.29.77l-.805.355a11.306 11.306 0 0 1-.325-.855l.84-.27M312.148 38.016l.036.207c.015.066.02.136.039.203l.047.199c.02.066.027.137.05.203l-.851.223c-.024-.07-.035-.149-.055-.223l-.05-.223c-.024-.074-.028-.148-.044-.222l-.039-.227.867-.14M312.043 36.738l.004.211.004.106c-.004.035 0 .07.004.105.015.137.02.278.035.418l-.875.09c-.016-.152-.024-.305-.04-.457-.003-.04-.003-.078-.003-.117l-.004-.117-.004-.23.879-.009M312.29 34.637l-.048.199c-.015.066-.035.133-.043.203l-.035.203c-.012.07-.031.137-.035.207l-.871-.129c.008-.074.023-.148.039-.222l.039-.227c.008-.078.031-.148.047-.226l.05-.223.856.215M312.684 33.434c-.047.129-.102.254-.149.382-.039.133-.09.262-.129.395l-.844-.258c.047-.144.102-.289.145-.433.055-.145.113-.282.168-.426l.809.34M313.266 32.3c-.07.122-.137.243-.211.36-.063.125-.121.25-.192.371l-.789-.383c.07-.132.14-.273.211-.406l.23-.398.75.457M314.012 31.266c-.02.027-.047.05-.067.078l-.062.086-.13.164c-.046.05-.085.11-.124.168l-.121.168-.727-.496.137-.188c.043-.062.086-.129.133-.187l.144-.18.07-.094.079-.086.668.567M314.914 30.352c-.055.046-.11.09-.16.14l-.149.145c-.105.09-.195.199-.296.297l-.641-.602c.11-.11.21-.227.324-.328l.168-.16c.055-.055.117-.102.172-.153l.582.66M315.938 29.586l-.18.11c-.055.038-.11.085-.168.124l-.172.117-.16.133-.547-.691.184-.145.187-.132c.063-.043.125-.09.188-.133l.195-.125.473.742M317.059 28.988c-.125.059-.258.106-.375.176-.125.063-.25.117-.368.195l-.433-.765c.129-.082.27-.145.406-.219.133-.074.277-.129.414-.191l.356.804M318.25 28.566l-.2.055c-.066.02-.132.035-.195.063l-.195.066-.098.031c-.035.008-.066.024-.097.04l-.313-.825c.04-.012.07-.031.11-.043l.105-.035.219-.074c.07-.028.144-.043.219-.067l.218-.062.227.851M319.5 28.332l-.207.027c-.07.012-.14.012-.207.028l-.203.039c-.067.012-.137.015-.203.035l-.184-.86c.074-.019.152-.027.227-.042l.226-.04c.074-.019.153-.019.227-.03l.226-.032.098.875M320.79 28.29l-.212-.005c-.07 0-.14-.008-.21-.004-.141.008-.286.004-.423.012l-.05-.875c.152-.012.308-.008.464-.016.079-.007.157.004.23.004l.235.004-.035.88M322.059 28.438l-.207-.036c-.067-.011-.133-.027-.204-.035l-.207-.023c-.07-.008-.136-.024-.207-.024l.082-.875c.079 0 .153.016.23.024l.227.031c.079.004.153.023.227.035l.227.04-.168.863M323.277 28.773c-.132-.039-.257-.09-.39-.128-.133-.036-.266-.079-.399-.114l.215-.851c.149.039.293.086.442.12.144.048.285.102.433.145l-.3.828M324.434 29.293c-.122-.063-.247-.121-.368-.191a6.564 6.564 0 0 1-.378-.168l.343-.809c.137.063.278.125.418.188.133.07.27.14.406.21l-.421.77M325.504 29.988c-.05-.043-.11-.082-.168-.12l-.168-.122c-.055-.047-.117-.078-.176-.117l-.176-.113.461-.746.196.125c.062.043.132.078.191.125l.188.132c.062.047.128.086.187.137l-.535.7M326.46 30.844c-.089-.11-.198-.2-.296-.297-.098-.102-.21-.184-.312-.277l.57-.668c.113.101.234.195.344.304.109.11.226.207.328.324l-.633.614M327.277 31.828l-.117-.172-.133-.164-.125-.164-.14-.156.664-.578.152.176.14.18.145.179.133.191-.719.508M327.934 32.918c-.063-.121-.118-.246-.192-.363-.07-.121-.137-.246-.215-.36l.743-.468c.09.125.16.261.238.394.078.129.14.27.215.402l-.79.395M328.418 34.09a8.673 8.673 0 0 0-.293-.77l.805-.355c.12.281.23.566.324.855l-.836.27M328.71 35.324l-.034-.207c-.016-.066-.02-.137-.04-.203l-.046-.2c-.016-.066-.027-.136-.047-.198l.848-.227c.027.07.035.148.054.223l.051.222c.024.075.027.149.043.223l.043.227-.871.14M328.816 36.602l-.003-.211-.004-.106a.477.477 0 0 0-.004-.105c-.016-.137-.02-.278-.032-.418l.872-.09c.015.152.023.305.039.457.003.039.003.078.003.117l.004.117.004.23-.879.009M320.027 55.203c.977.02 1.961-.027 2.934-.168l.66 4.832c-1.23.172-2.469.235-3.7.207l.106-4.87M317.633 59.527a23.477 23.477 0 0 1-2.836-.53l1.07-3.958c.73.18 1.465.316 2.192.41Zm-2.043-4.957-1.27 4.707c1.2.317 2.426.551 3.657.68l.507-4.848a19.672 19.672 0 0 1-2.894-.539M312.223 58.188a23.046 23.046 0 0 1-2.625-1.2l1.992-3.582c.656.348 1.336.657 2.027.926Zm-.786-5.305-2.37 4.262a23.838 23.838 0 0 0 3.386 1.542l1.66-4.582a19.219 19.219 0 0 1-2.675-1.222M307.813 50.25a18.944 18.944 0 0 0 2.304 1.828l-2.715 4.05c-1.027-.694-2-1.464-2.91-2.308l3.32-3.57M304.922 46.828c.539.82 1.14 1.598 1.8 2.328l-3.6 3.282a23.925 23.925 0 0 1-2.274-2.934l4.074-2.676"/><path fill="#aebfb1" d="M320.832 18.137c-.977-.02-1.96.027-2.934.168l-.66-4.832a23.041 23.041 0 0 1 3.7-.207l-.106 4.87"/><path fill="#2c3c38" d="M325.27 18.77c-.95-.25-1.918-.434-2.895-.54l.508-4.847c1.23.129 2.457.363 3.656.68l-1.27 4.707M329.27 19.934a19.343 19.343 0 0 0-2.028-.926l1.395-3.856c.898.344 1.777.746 2.625 1.2Zm-.864-5.282-1.66 4.582c.922.34 1.817.746 2.68 1.223l2.367-4.262a23.838 23.838 0 0 0-3.387-1.543M333.023 22.543a19.243 19.243 0 0 0-1.746-1.383l2.286-3.406c.785.55 1.539 1.148 2.253 1.789Zm.438-5.332-2.719 4.05c.817.552 1.586 1.16 2.305 1.829l3.32-3.57a24.316 24.316 0 0 0-2.906-2.31M335.938 26.512c-.54-.82-1.141-1.598-1.801-2.328l3.605-3.282c.828.918 1.59 1.899 2.27 2.934l-4.075 2.676M337.441 44.047c.086-.184.157-.375.23-.563l.114-.28c.035-.095.074-.192.106-.29.129-.383.265-.766.367-1.156.23-.778.387-1.574.515-2.375l1.579.23a19.345 19.345 0 0 1-.555 2.582c-.113.426-.262.84-.402 1.258-.036.106-.075.211-.114.313l-.12.304c-.083.207-.157.414-.25.614l-1.47-.637M336.605 45.727c.047-.079.094-.157.137-.239l.125-.246.254-.492 1.438.7-.274.53-.137.27c-.046.086-.097.172-.148.262l-1.395-.785M335.5 47.465c.105-.149.215-.297.316-.45l.301-.464 1.352.851-.324.504c-.114.168-.23.328-.348.492l-1.297-.933M334.21 49.074l.36-.418c.063-.07.121-.14.18-.21l.172-.216 1.25.997-.188.234a5.415 5.415 0 0 1-.195.227l-.39.453-1.188-1.067M328.316 53.879a18.67 18.67 0 0 0 5.235-3.566l.582.582a19.608 19.608 0 0 1-5.488 3.738Zm5.239-4.113a18.575 18.575 0 0 1-5.75 3.918l.636 1.464a20.104 20.104 0 0 0 6.243-4.253l-1.13-1.13M326.117 54.32l.488-.168c.082-.027.165-.05.247-.086l.238-.093.574 1.492-.262.101c-.086.036-.175.063-.265.094l-.528.18-.492-1.52M303.418 29.293c-.086.184-.156.375-.23.562l-.114.286c-.035.093-.074.187-.105.285-.13.383-.266.765-.367 1.156-.23.777-.387 1.574-.512 2.375l-1.582-.23a20.12 20.12 0 0 1 .555-2.582c.113-.426.261-.84.402-1.258a7.36 7.36 0 0 1 .113-.313l.121-.304c.086-.207.16-.415.254-.614l1.465.637M304.254 27.613c-.047.078-.094.157-.137.239l-.125.246-.254.492-1.437-.7.273-.53.137-.27c.047-.086.098-.172.148-.262l1.395.785M305.36 25.875c-.106.148-.215.297-.317.45l-.3.464-1.352-.852.324-.503c.113-.164.23-.329.348-.493l1.296.934M306.648 24.266l-.359.418c-.062.07-.121.14-.18.21l-.171.215-1.25-.996.187-.234c.063-.078.129-.152.195-.227l.39-.453 1.188 1.067M313.055 19.66a18.496 18.496 0 0 0-5.75 3.914l-1.13-1.129a20.104 20.104 0 0 1 6.243-4.254l.637 1.47M314.742 19.023l-.488.165c-.082.027-.164.05-.242.085l-.242.094-.575-1.492.262-.102c.086-.035.176-.062.266-.093l.53-.18.49 1.523M338.941 54.309l.348-.368c.117-.12.227-.254.336-.379l.332-.382c.11-.13.223-.258.324-.39l1.242 1.007c-.113.144-.23.277-.343.414l-.356.406c-.117.137-.234.274-.355.403l-.371.39-1.157-1.101M336.668 56.426c.258-.215.516-.438.77-.66l.19-.168.185-.172.367-.352 1.11 1.153-.392.37-.195.184-.203.18c-.27.234-.54.469-.816.7l-1.016-1.235"/><path fill="#aebfb1" d="M334.148 58.25c.575-.36 1.125-.754 1.668-1.152l.965 1.273c-.578.426-1.164.848-1.773 1.227l-.86-1.348M331.426 59.762a25.4 25.4 0 0 0 1.797-.95l.8 1.383c-.62.367-1.261.692-1.91 1.012l-.687-1.445M328.531 60.926c.645-.207 1.278-.461 1.906-.719l.625 1.473c-.667.273-1.34.539-2.027.761l-.504-1.515"/><path fill="#2c3c38" d="M325.516 61.734a24.3 24.3 0 0 0 1.976-.484l.442 1.535c-.692.207-1.395.363-2.102.516l-.316-1.567M322.434 62.16l.503-.039c.168-.016.336-.039.504-.059.336-.042.672-.082 1.008-.136l.25 1.582c-.355.058-.715.097-1.07.144-.18.02-.356.047-.535.059l-.535.043-.125-1.594M319.336 62.219c.336.011.672.02 1.012.023.336 0 .672-.012 1.007-.02l.06 1.598c-.36.008-.716.024-1.075.02a48.911 48.911 0 0 1-1.07-.024l.066-1.597"/><path fill="#aebfb1" d="M316.242 61.898c.336.063.672.098 1.008.145l.504.062c.168.02.336.028.504.043l-.133 1.594c-.18-.015-.36-.027-.535-.047l-.54-.066c-.355-.047-.71-.086-1.066-.152l.258-1.579M313.203 61.203c.328.09.652.188.98.27.333.078.665.156.993.226l-.324 1.567c-.356-.078-.707-.16-1.055-.243-.352-.086-.695-.191-1.043-.289l.45-1.53"/><path fill="#2c3c38" d="M310.27 60.14c.078.036.152.07.23.102l.238.094.473.187c.16.063.316.125.476.184l.481.164-.516 1.516-.511-.176c-.172-.063-.336-.129-.508-.195l-.5-.2-.254-.101a6.774 6.774 0 0 1-.246-.11l.637-1.464"/><path fill="#aebfb1" d="m307.488 58.727.442.253c.148.083.293.168.445.247.3.156.602.308.906.46l-.695 1.442c-.324-.164-.645-.328-.965-.492-.16-.082-.316-.172-.473-.262l-.468-.27.808-1.378"/><path fill="#2c3c38" d="m304.906 56.992.203.156.204.149.828.586.425.277-.863 1.34-.453-.293-.441-.309-.442-.312-.219-.16-.21-.164.968-1.27M302.559 54.96c.246.231.488.47.738.696.254.223.508.442.765.664l-1.023 1.227c-.273-.234-.547-.469-.812-.707-.27-.238-.528-.488-.786-.738l1.118-1.141M300.656 54.734c-.031-.035-.062-.066-.094-.101l-.351-.403-.055-.062c-.129-.148-.258-.3-.383-.45l.641-.515c.117.14.238.277.352.414l.066.074.336.383c.027.031.055.067.086.098Zm.801-.918-.336-.382c-.219-.254-.441-.508-.648-.778l-1.246 1c.218.285.457.555.691.828l.352.403c.12.136.246.265.367.394l1.168-1.093c-.118-.126-.235-.247-.348-.372M298.223 51.648c-.121-.187-.246-.375-.368-.566l.7-.434c.117.18.23.36.347.536l.004.011c.121.168.242.34.367.52l-.66.484a30.155 30.155 0 0 1-.39-.55Zm1.004-.675-.551-.856-1.36.844c.196.3.387.605.586.906.203.293.414.586.621.88l1.29-.946-.586-.828M296.883 49.438a34.566 34.566 0 0 1-.278-.532l-.035-.066-.242-.48c-.02-.044-.043-.087-.062-.126l.746-.347.058.12.235.458.039.082c.082.16.168.324.258.488Zm.765-1.149-.23-.457c-.074-.148-.145-.305-.215-.46l-1.453.671c.078.164.148.328.23.488l.247.485c.164.32.324.64.507.949l1.395-.781c-.172-.293-.324-.594-.48-.895M296.07 44.465c.106.324.215.644.328.965.122.316.247.633.372.949l-1.48.605c-.134-.336-.267-.668-.392-1.007-.12-.34-.238-.684-.351-1.024l1.523-.488M295.305 41.441c.058.332.132.664.21.993.079.332.153.664.25.988l-1.542.422a17.96 17.96 0 0 1-.266-1.051c-.082-.352-.16-.703-.223-1.055l1.57-.297"/><path fill="#aebfb1" d="M294.914 38.352c.027.34.05.675.086 1.011.04.336.082.672.125 1.008l-1.582.23c-.047-.359-.094-.714-.137-1.07-.035-.36-.058-.715-.086-1.074l1.594-.105M301.918 19.031l-.348.367c-.117.122-.222.254-.336.38l-.332.382c-.109.13-.222.258-.324.39l-1.242-1.007c.113-.145.23-.277.348-.414l.351-.406c.117-.137.235-.274.356-.403l.37-.39 1.157 1.101"/><path fill="#2c3c38" d="M304.191 16.914c-.257.215-.511.438-.77.66l-.187.168-.187.172-.367.352-1.11-1.153.39-.37.196-.184.203-.18c.27-.234.543-.469.817-.7l1.015 1.235M306.71 15.09c-.573.36-1.124.754-1.667 1.152l-.965-1.273a27.525 27.525 0 0 1 1.774-1.227l.859 1.348M307.367 13.285c.403-.223.805-.433 1.2-.629l.351.742c-.375.188-.758.387-1.14.602Zm1.38-1.152c-.645.32-1.29.644-1.911 1.012l.8 1.382a25.4 25.4 0 0 1 1.798-.949l-.688-1.445M310.309 11.871c.449-.18.859-.34 1.27-.48l.26.777c-.421.148-.827.305-1.206.46Zm1.515-.973c-.687.223-1.36.489-2.027.762l.625 1.473a26.1 26.1 0 0 1 1.906-.719l-.504-1.516M315.344 11.605a28.04 28.04 0 0 0-1.977.485l-.441-1.535a27.472 27.472 0 0 1 2.101-.516l.317 1.566M317.89 10.832a9.213 9.213 0 0 0-.359.04c-.054.007-.105.015-.164.019l-.25.035-.383.047-.129-.813c.141-.02.286-.035.422-.055l.25-.03c.055-.005.114-.012.168-.02.121-.016.239-.032.352-.04l.148-.011.063.82Zm.415-1.246-.54.043c-.18.016-.355.039-.535.059-.355.046-.714.09-1.07.148l.25 1.578c.336-.055.672-.094 1.008-.137.168-.02.336-.043.504-.058l.504-.04-.121-1.593M321.152 10.723c-.21-.004-.425-.012-.636-.016h-.02c-.207 0-.414.008-.617.012l-.031-.82c.218-.008.437-.012.652-.012h.012c.226.004.449.008.675.015ZM320.52 9.5h-.02c-.352 0-.703.012-1.055.02l.059 1.597c.332-.008.664-.02.992-.02h.02c.336.005.671.012 1.007.024l.067-1.598c-.356-.011-.715-.02-1.07-.023M324.617 11.441c-.336-.062-.672-.097-1.008-.144l-.504-.063c-.168-.02-.335-.027-.503-.043l.132-1.593c.18.015.36.027.54.047l.535.066c.355.047.71.086 1.066.152l-.258 1.578"/><path fill="#aebfb1" d="M327.656 12.137c-.328-.09-.652-.188-.98-.27-.332-.078-.664-.152-.992-.226l.324-1.567c.355.078.707.16 1.055.242.351.086.699.192 1.046.29l-.453 1.53M330.59 13.2c-.078-.036-.152-.071-.23-.102l-.239-.094-.473-.188a17.22 17.22 0 0 0-.476-.183l-.48-.164.515-1.516.512.176c.172.062.34.129.508.195l.5.2.253.101c.082.035.165.07.247.11l-.637 1.464M333.371 14.613l-.441-.254c-.149-.082-.293-.168-.446-.246-.3-.156-.601-.308-.906-.46l.7-1.442.96.492c.16.082.317.172.473.262l.469.27-.809 1.378M335.953 16.348l-.203-.157-.203-.148-.828-.586-.426-.277.867-1.34.45.293.44.308.442.313.219.16.21.164-.968 1.27"/><path fill="#2c3c38" d="M338.3 18.379c-.241-.23-.488-.465-.738-.692-.253-.226-.507-.445-.765-.667l1.023-1.227c.274.234.547.469.817.707.265.242.523.488.781.738l-1.117 1.14M340.387 20.684c-.207-.27-.43-.524-.649-.778l-.336-.383c-.113-.125-.23-.246-.343-.37l1.164-1.094c.12.128.246.257.367.394l.351.402c.239.274.473.543.692.829l-1.246 1M342.184 23.223l-.551-.856c-.192-.277-.39-.55-.586-.828l1.289-.945c.207.293.418.586.621.879.2.3.39.605.586.91l-1.36.84M343.656 25.969c-.07-.157-.136-.313-.215-.461l-.23-.457c-.152-.301-.309-.602-.48-.895l1.394-.781c.184.309.344.629.512.95l.242.484c.082.16.152.324.23.488l-1.453.672"/><path fill="#aebfb1" d="M344.79 28.875c-.106-.32-.216-.645-.33-.965a95.178 95.178 0 0 0-.37-.95l1.48-.605c.133.336.266.668.395 1.008.117.34.234.684.348 1.024l-1.524.488M345.555 31.902a16.677 16.677 0 0 0-.211-.996 16.595 16.595 0 0 0-.246-.988l1.539-.422c.101.348.183.7.265 1.05.082.352.164.704.223 1.06l-1.57.296"/><path fill="#2c3c38" d="M345.945 34.988c-.027-.336-.047-.675-.082-1.011-.043-.336-.082-.672-.129-1.008l1.582-.23c.047.359.094.714.137 1.07.035.359.059.714.086 1.074l-1.594.105"/><path fill="#aebfb1" d="M33.01 29.65H13.37v17.094h19.64v-6H22.73v-4.61h16.39v9.313c0 2.469-.464 4.152-1.39 5.047-.918.898-2.688 1.344-5.313 1.344h-18.64c-2.625 0-4.399-.446-5.313-1.344-.918-.895-1.375-2.578-1.375-5.047V31.213c0-2.457.457-4.133 1.375-5.032.914-.906 2.688-1.359 5.313-1.359h18.64c2.594 0 4.36.445 5.297 1.328.938.887 1.407 2.485 1.407 4.797v.61l-6.11 1.109ZM50.442 51.838v-22.14h5.438v8.405h16.859v-8.406h5.39v22.14h-5.39V42.51h-16.86v9.328ZM92.878 47.588h17.844V33.76H92.878Zm-5.406-12.672c0-2.008.39-3.38 1.172-4.11.79-.738 2.32-1.109 4.594-1.109h17.125c2.281 0 3.804.371 4.578 1.11.781.73 1.172 2.101 1.172 4.109v11.687c0 2.024-.399 3.403-1.188 4.14-.793.731-2.312 1.095-4.562 1.095H93.238c-2.274 0-3.805-.364-4.594-1.094-.781-.738-1.172-2.117-1.172-4.14ZM145.896 33.666H130.66v4.672h14.407c2.27 0 3.797.367 4.578 1.093.789.72 1.187 2.094 1.187 4.125v3.047c0 2.024-.402 3.403-1.203 4.14-.805.731-2.324 1.095-4.562 1.095h-14.36c-2.281 0-3.828-.364-4.64-1.094-.813-.738-1.22-2.117-1.22-4.14v-.626l4.813-.89v2.61h16.282v-5.063h-14.344c-2.262 0-3.793-.368-4.594-1.11-.805-.738-1.203-2.113-1.203-4.125v-2.484c0-2 .398-3.367 1.203-4.11.8-.738 2.332-1.109 4.594-1.109h13.14c2.227 0 3.754.356 4.579 1.063.832.71 1.25 1.96 1.25 3.75v.53l-4.672 1ZM173.344 33.666v18.172h-5.39V33.666h-10.688v-3.969h26.797v3.969Zm0 0"/><path fill="#fff" d="M192.449 31.213c0-2.457.457-4.133 1.375-5.032.914-.906 2.687-1.359 5.312-1.359h19.891c2.625 0 4.394.453 5.312 1.36.926.898 1.391 2.574 1.391 5.03v14.235c0 2.469-.465 4.152-1.39 5.047-.919.898-2.688 1.344-5.313 1.344h-19.89c-2.626 0-4.4-.446-5.313-1.344-.918-.895-1.375-2.578-1.375-5.047Zm6.281 15.53h20.734V29.65H198.73ZM237.004 51.838v-22.14h19.938c1.843 0 3.164.339 3.968 1.015.813.668 1.22 1.761 1.22 3.28V38.9c0 1.524-.415 2.621-1.235 3.297-.813.668-2.133 1-3.953 1h-14.625v8.64Zm17.64-18.328h-12.327v5.875h12.328c.937 0 1.578-.133 1.922-.407.351-.27.53-.726.53-1.375v-2.312c0-.645-.179-1.102-.53-1.375-.344-.27-.985-.406-1.922-.406ZM290.33 33.666h-15.234v4.672h14.407c2.27 0 3.796.367 4.578 1.093.789.72 1.187 2.094 1.187 4.125v3.047c0 2.024-.402 3.403-1.203 4.14-.805.731-2.324 1.095-4.562 1.095h-14.36c-2.281 0-3.828-.364-4.64-1.094-.813-.738-1.22-2.117-1.22-4.14v-.626l4.813-.89v2.61h16.282v-5.063h-14.344c-2.262 0-3.793-.368-4.594-1.11-.805-.738-1.203-2.113-1.203-4.125v-2.484c0-2 .398-3.367 1.203-4.11.8-.738 2.332-1.109 4.594-1.109h13.14c2.227 0 3.754.356 4.579 1.063.832.71 1.25 1.96 1.25 3.75v.53l-4.672 1Zm0 0"/><path fill="#c1ff72" d="M313.485 41.056h11.844l-5.829-11ZM301.39 51.838l15.297-27.016h6.062l15.485 27.016h-7.063l-3.234-5.907h-17.14l-3.141 5.907ZM346.926 51.838V24.822h6.282v27.016Zm0 0"/></svg>