<!DOCTYPE svg PUBLIC "-//W3C//DTD SVG 1.1//EN" "http://www.w3.org/Graphics/SVG/1.1/DTD/svg11.dtd">
<!-- Uploaded to: SVG Repo, www.svgrepo.com, Transformed by: SVG Repo Mixer Tools -->
<svg width="64px" height="64px" viewBox="0 0 20 20" xmlns="http://www.w3.org/2000/svg" fill="#000000">
<g id="SVGRepo_bgCarrier" stroke-width="0"/>
<g id="SVGRepo_tracerCarrier" stroke-linecap="round" stroke-linejoin="round"/>
<g id="SVGRepo_iconCarrier"> <g id="helicopter" transform="translate(-2 -2)"> <path id="secondary" fill="#50665a" d="M21,13v3a1,1,0,0,1-1,1H11.88a4,4,0,0,1-3.79-2.74l-.86-2.58a1,1,0,0,0-1-.68H4a1,1,0,0,1-1-1V8A1,1,0,0,1,4,7h8v5a1,1,0,0,0,1,1Z"/> <path id="primary" d="M12,7v5a1,1,0,0,0,1,1h7.93" fill="none" stroke="#a9bab4" stroke-linecap="round" stroke-linejoin="round" stroke-width="2"/> <path id="primary-2" data-name="primary" d="M6,3H18M7,21H21M12,3V7m4,10H12v4h4ZM3,8v2a1,1,0,0,0,1,1H6.28a1,1,0,0,1,1,.68l.86,2.58A4,4,0,0,0,11.88,17H20a1,1,0,0,0,1-1V13L19.11,9.21A4,4,0,0,0,15.53,7H4A1,1,0,0,0,3,8Z" fill="none" stroke="#a9bab4" stroke-linecap="round" stroke-linejoin="round" stroke-width="2"/> </g> </g>
</svg>