<svg xmlns="http://www.w3.org/2000/svg" xmlns:xlink="http://www.w3.org/1999/xlink" width="240" zoomAndPan="magnify" viewBox="0 0 180 179.999997" height="240" preserveAspectRatio="xMidYMid meet" version="1.0"><defs><clipPath id="97eb0c089a"><path d="M 26.183594 26.324219 L 153.816406 26.324219 L 153.816406 153.675781 L 26.183594 153.675781 Z M 26.183594 26.324219 " clip-rule="nonzero"/></clipPath><clipPath id="f3124109da"><path d="M 30.304688 26.324219 L 149.554688 26.324219 L 149.554688 153.824219 L 30.304688 153.824219 Z M 30.304688 26.324219 " clip-rule="nonzero"/></clipPath><clipPath id="a0ff74c23e"><path d="M 62.164062 75.75 L 117.835938 75.75 L 117.835938 90 L 62.164062 90 Z M 62.164062 75.75 " clip-rule="nonzero"/></clipPath><clipPath id="21cf887fda"><path d="M 122.699219 48.851562 L 172.949219 48.851562 L 172.949219 99 L 122.699219 99 Z M 122.699219 48.851562 " clip-rule="nonzero"/></clipPath><clipPath id="c8c8dc504c"><path d="M 7.507812 48.851562 L 57.757812 48.851562 L 57.757812 99 L 7.507812 99 Z M 7.507812 48.851562 " clip-rule="nonzero"/></clipPath></defs><path fill="#a9bab4" d="M 18 18 L 162 18 L 162 162 L 18 162 Z M 18 18 " fill-opacity="1" fill-rule="nonzero"/><g clip-path="url(#97eb0c089a)"><path fill="#50665a" d="M 26.183594 26.324219 L 154.027344 26.324219 L 154.027344 153.675781 L 26.183594 153.675781 Z M 26.183594 26.324219 " fill-opacity="1" fill-rule="nonzero"/></g><g clip-path="url(#f3124109da)"><path fill="#000000" d="M 105.78125 132.992188 L 93.855469 125.730469 C 93.695312 125.632812 93.695312 125.402344 93.855469 125.304688 L 107.171875 117.199219 C 107.253906 117.148438 107.347656 117.148438 107.425781 117.195312 L 113.023438 120.433594 C 113.140625 120.5 113.183594 120.652344 113.113281 120.773438 L 106.125 132.90625 C 106.054688 133.027344 105.902344 133.066406 105.78125 132.992188 Z M 66.96875 33.046875 C 72.03125 30.515625 77.148438 28.492188 82.019531 27.007812 C 84.003906 26.402344 85.882812 26.476562 87.8125 27.234375 L 119.152344 39.5625 C 122.132812 40.734375 124.058594 43.339844 124.3125 46.539062 C 124.882812 53.734375 124.71875 60.90625 123.839844 68.054688 C 123.394531 71.699219 119.820312 74.035156 116.3125 72.980469 C 104.8125 69.527344 93.796875 64.992188 83.167969 59.535156 C 82.984375 59.441406 82.988281 59.171875 83.179688 59.085938 C 85.882812 57.867188 88.515625 56.539062 91.101562 55.085938 C 92 54.582031 92.320312 53.445312 91.816406 52.546875 C 91.3125 51.644531 90.179688 51.324219 89.28125 51.828125 C 86.277344 53.519531 83.023438 55.121094 79.863281 56.472656 C 72.035156 59.808594 51.808594 72.027344 42.738281 61.230469 C 37.488281 54.980469 48.335938 42.363281 66.96875 33.046875 Z M 107.863281 41.914062 C 107.789062 41.683594 107.464844 41.683594 107.390625 41.914062 L 105.253906 48.542969 C 105.222656 48.648438 105.128906 48.71875 105.019531 48.71875 L 98.066406 48.703125 C 97.824219 48.703125 97.726562 49.011719 97.917969 49.15625 L 103.550781 53.238281 C 103.640625 53.304688 103.675781 53.414062 103.644531 53.519531 L 101.480469 60.140625 C 101.40625 60.371094 101.671875 60.5625 101.863281 60.421875 L 107.480469 56.3125 C 107.570312 56.25 107.6875 56.25 107.773438 56.3125 L 113.390625 60.421875 C 113.585938 60.5625 113.847656 60.371094 113.773438 60.140625 L 111.613281 53.519531 C 111.578125 53.414062 111.613281 53.304688 111.703125 53.238281 L 117.335938 49.15625 C 117.53125 49.011719 117.429688 48.703125 117.191406 48.703125 L 110.238281 48.71875 C 110.128906 48.71875 110.035156 48.648438 110 48.542969 Z M 112.773438 76.050781 C 112.773438 75.9375 112.707031 75.84375 112.601562 75.8125 C 101.503906 72.300781 90.832031 67.800781 80.507812 62.433594 C 80.441406 62.398438 80.371094 62.394531 80.300781 62.421875 C 76.046875 64.152344 71.503906 65.675781 66.917969 66.761719 C 66.804688 66.789062 66.726562 66.886719 66.726562 67.003906 L 66.726562 86.761719 C 66.726562 89.109375 67.886719 91.128906 69.917969 92.300781 L 74.910156 95.191406 C 76.9375 96.363281 78.101562 98.378906 78.101562 100.730469 L 78.101562 105.667969 C 78.101562 107.507812 79.59375 109.003906 81.429688 109.003906 L 83.753906 109.003906 C 83.890625 109.003906 84.003906 108.894531 84.003906 108.757812 L 84.003906 98.625 C 84.003906 97.59375 84.835938 96.757812 85.867188 96.757812 C 86.898438 96.757812 87.730469 97.59375 87.730469 98.625 L 87.730469 108.757812 C 87.730469 108.894531 87.84375 109.003906 87.980469 109.003906 L 91.519531 109.003906 C 91.65625 109.003906 91.769531 108.894531 91.769531 108.757812 L 91.769531 98.625 C 91.769531 97.59375 92.605469 96.757812 93.632812 96.757812 C 94.664062 96.757812 95.5 97.59375 95.5 98.625 L 95.5 108.757812 C 95.5 108.894531 95.609375 109.003906 95.746094 109.003906 L 98.074219 109.003906 C 99.90625 109.003906 101.402344 107.507812 101.402344 105.667969 L 101.402344 100.730469 C 101.402344 98.378906 102.5625 96.363281 104.59375 95.191406 L 109.585938 92.300781 C 111.613281 91.128906 112.777344 89.109375 112.777344 86.761719 L 112.777344 76.050781 Z M 77.800781 76.238281 L 84.089844 78.472656 C 84.898438 78.757812 85.652344 79.175781 85.652344 80.035156 L 85.652344 85.386719 C 85.652344 86.25 84.949219 86.953125 84.089844 86.953125 L 81.664062 86.953125 C 80.804688 86.953125 80.492188 86.152344 80.101562 85.386719 L 76.242188 77.800781 C 75.851562 77.035156 76.992188 75.949219 77.800781 76.238281 Z M 101.550781 76.238281 C 102.359375 75.949219 103.5 77.035156 103.113281 77.800781 L 99.25 85.386719 C 98.859375 86.152344 98.546875 86.953125 97.691406 86.953125 L 95.261719 86.953125 C 94.402344 86.953125 93.703125 86.25 93.703125 85.386719 L 93.703125 80.035156 C 93.703125 79.175781 94.453125 78.757812 95.261719 78.472656 Z M 57.878906 140.984375 C 57.039062 141.523438 56.40625 142.425781 55.984375 143.703125 C 55.183594 146.171875 53.460938 147.351562 50.535156 146.859375 C 50.53125 146.859375 50.53125 146.859375 50.527344 146.859375 C 47.875 146.332031 46.035156 147.335938 45.082031 150.011719 C 45.082031 150.015625 45.082031 150.015625 45.078125 150.019531 C 44.21875 152.644531 42.449219 153.710938 39.742188 153.191406 C 39.667969 153.175781 39.609375 153.136719 39.574219 153.070312 L 34.777344 144.742188 C 33.785156 143.019531 34.375 140.800781 36.097656 139.804688 L 51.625 130.820312 C 53.507812 129.730469 54.390625 127.578125 53.816406 125.476562 L 53.347656 123.765625 C 52.875 122.035156 53.601562 120.261719 55.152344 119.367188 L 57.105469 118.234375 C 58.695312 117.316406 60.738281 117.863281 61.652344 119.457031 L 72.691406 138.617188 C 73.53125 140.074219 73.03125 141.953125 71.574219 142.796875 L 69.128906 144.210938 C 68.40625 144.628906 67.542969 144.550781 66.90625 144.011719 C 66.308594 143.507812 65.683594 143.035156 65.035156 142.59375 C 63 141.207031 60.300781 139.441406 57.878906 140.984375 Z M 74.050781 132.992188 L 143.765625 90.542969 C 146.421875 88.921875 148.027344 86.402344 148.371094 83.300781 L 149.511719 73.03125 C 149.535156 72.828125 149.316406 72.6875 149.140625 72.789062 L 114.464844 92.898438 C 113.667969 93.945312 112.652344 94.84375 111.449219 95.539062 L 106.457031 98.425781 C 105.582031 98.933594 105.128906 99.714844 105.128906 100.730469 L 105.128906 105.667969 C 105.128906 109.570312 101.964844 112.742188 98.074219 112.742188 L 81.429688 112.742188 C 80.921875 112.742188 80.320312 112.613281 80.1875 112.691406 L 66.808594 120.433594 C 66.691406 120.5 66.648438 120.652344 66.71875 120.773438 L 73.707031 132.90625 C 73.777344 133.027344 73.929688 133.066406 74.050781 132.992188 Z M 121.953125 140.984375 C 122.792969 141.523438 123.425781 142.425781 123.847656 143.703125 C 124.648438 146.171875 126.371094 147.351562 129.296875 146.859375 C 129.300781 146.859375 129.300781 146.859375 129.304688 146.859375 C 131.957031 146.332031 133.796875 147.335938 134.75 150.011719 C 134.75 150.015625 134.75 150.015625 134.753906 150.019531 C 135.609375 152.644531 137.382812 153.710938 140.089844 153.191406 C 140.164062 153.175781 140.222656 153.136719 140.257812 153.070312 L 145.054688 144.742188 C 146.046875 143.019531 145.453125 140.800781 143.734375 139.804688 L 128.207031 130.820312 C 126.324219 129.730469 125.441406 127.578125 126.015625 125.476562 L 126.484375 123.765625 C 126.957031 122.035156 126.230469 120.261719 124.679688 119.367188 L 122.726562 118.234375 C 121.136719 117.316406 119.09375 117.863281 118.179688 119.457031 L 107.140625 138.617188 C 106.300781 140.074219 106.800781 141.953125 108.257812 142.796875 L 110.703125 144.210938 C 111.425781 144.628906 112.289062 144.550781 112.925781 144.011719 C 113.523438 143.507812 114.148438 143.035156 114.796875 142.59375 C 116.832031 141.207031 119.53125 139.441406 121.953125 140.984375 Z M 72.457031 112.699219 C 72.535156 112.75 72.628906 112.75 72.710938 112.703125 L 76.09375 110.746094 C 76.230469 110.664062 76.257812 110.480469 76.152344 110.363281 C 75.042969 109.113281 74.371094 107.46875 74.371094 105.667969 L 74.371094 100.730469 C 74.371094 99.714844 73.917969 98.933594 73.042969 98.425781 L 68.050781 95.539062 C 65.714844 94.183594 64.890625 92.582031 64.695312 92.464844 L 30.691406 72.789062 C 30.511719 72.6875 30.296875 72.828125 30.320312 73.03125 L 31.460938 83.300781 C 31.804688 86.402344 33.410156 88.921875 36.066406 90.542969 Z M 72.457031 112.699219 " fill-opacity="1" fill-rule="evenodd"/></g><g clip-path="url(#a0ff74c23e)"><path fill="#000000" d="M 62.164062 75.75 L 117.820312 75.75 L 117.820312 90 L 62.164062 90 Z M 62.164062 75.75 " fill-opacity="1" fill-rule="nonzero"/></g><g clip-path="url(#21cf887fda)"><path fill="#ffffff" d="M 149.601562 74.832031 L 172.773438 73.890625 L 149.601562 72.945312 L 160.472656 61.148438 L 148.679688 72.023438 L 147.734375 48.851562 L 146.792969 72.023438 L 134.996094 61.148438 L 145.871094 72.945312 L 122.699219 73.890625 L 145.871094 74.832031 L 134.996094 86.628906 L 146.792969 75.753906 L 147.734375 98.925781 L 148.679688 75.753906 L 160.472656 86.628906 Z M 149.601562 74.832031 " fill-opacity="1" fill-rule="nonzero"/></g><g clip-path="url(#c8c8dc504c)"><path fill="#ffffff" d="M 34.410156 74.832031 L 57.582031 73.890625 L 34.410156 72.945312 L 45.285156 61.148438 L 33.488281 72.023438 L 32.546875 48.851562 L 31.601562 72.023438 L 19.804688 61.148438 L 30.679688 72.945312 L 7.507812 73.890625 L 30.679688 74.832031 L 19.804688 86.628906 L 31.601562 75.753906 L 32.546875 98.925781 L 33.488281 75.753906 L 45.285156 86.628906 Z M 34.410156 74.832031 " fill-opacity="1" fill-rule="nonzero"/></g></svg>