<svg xmlns="http://www.w3.org/2000/svg" xmlns:xlink="http://www.w3.org/1999/xlink" width="240" zoomAndPan="magnify" viewBox="0 0 180 179.999997" height="240" preserveAspectRatio="xMidYMid meet" version="1.0"><defs><clipPath id="dbd5cba46f"><path d="M 26.183594 26.324219 L 153.816406 26.324219 L 153.816406 153.675781 L 26.183594 153.675781 Z M 26.183594 26.324219 " clip-rule="nonzero"/></clipPath><clipPath id="b12f03b01a"><path d="M 2.355469 12.550781 L 120 12.550781 L 120 130 L 2.355469 130 Z M 2.355469 12.550781 " clip-rule="nonzero"/></clipPath><clipPath id="a18bede738"><path d="M 25 22 L 144 22 L 144 167.800781 L 25 167.800781 Z M 25 22 " clip-rule="nonzero"/></clipPath><clipPath id="2e0347df83"><path d="M 76 40 L 177.855469 40 L 177.855469 165 L 76 165 Z M 76 40 " clip-rule="nonzero"/></clipPath><clipPath id="683bc10462"><path d="M 31.019531 30 L 125 30 L 125 149 L 31.019531 149 Z M 31.019531 30 " clip-rule="nonzero"/></clipPath><clipPath id="6b0f1d430c"><path d="M 82 95 L 148.769531 95 L 148.769531 153.824219 L 82 153.824219 Z M 82 95 " clip-rule="nonzero"/></clipPath></defs><path fill="#a9bab4" d="M 18 18 L 162 18 L 162 162 L 18 162 Z M 18 18 " fill-opacity="1" fill-rule="nonzero"/><g clip-path="url(#dbd5cba46f)"><path fill="#50665a" d="M 26.183594 26.324219 L 154.027344 26.324219 L 154.027344 153.675781 L 26.183594 153.675781 Z M 26.183594 26.324219 " fill-opacity="1" fill-rule="nonzero"/></g><g clip-path="url(#b12f03b01a)"><path fill="#ffffff" d="M 39.882812 65.871094 C 41.894531 64.160156 43.878906 62.417969 45.941406 60.773438 C 41.300781 65.242188 36.855469 69.90625 32.644531 74.769531 C 33.699219 73.703125 34.789062 72.675781 35.855469 71.625 C 25.621094 82.789062 16.621094 95.140625 9.816406 108.628906 L 11.546875 105.449219 C 12.144531 104.402344 12.773438 103.371094 13.382812 102.332031 L 14.304688 100.777344 C 14.621094 100.265625 14.953125 99.757812 15.28125 99.25 L 17.234375 96.207031 C 16.273438 97.785156 15.296875 99.355469 14.351562 100.9375 C 13.449219 102.550781 12.519531 104.144531 11.648438 105.769531 C 12.367188 104.640625 13.136719 103.542969 13.882812 102.429688 C 13.355469 103.53125 12.820312 104.640625 12.292969 105.75 C 11.792969 106.878906 11.28125 108.003906 10.761719 109.128906 C 10.222656 110.246094 9.742188 111.394531 9.25 112.539062 C 9 113.109375 8.75 113.679688 8.5 114.253906 C 8.242188 114.820312 7.988281 115.390625 7.761719 115.972656 C 7.296875 117.132812 6.816406 118.292969 6.332031 119.445312 C 6.082031 120.015625 5.863281 120.605469 5.640625 121.195312 L 4.964844 122.949219 L 4.277344 124.699219 C 4.042969 125.28125 3.859375 125.882812 3.640625 126.464844 C 3.21875 127.648438 2.792969 128.824219 2.355469 129.996094 C 6.480469 117.835938 12.75 106.507812 20.34375 96.367188 C 19.558594 97.703125 18.859375 99.089844 18.132812 100.457031 C 17.777344 101.144531 17.40625 101.824219 17.0625 102.511719 L 16.058594 104.601562 L 17.230469 102.828125 C 17.625 102.238281 18.054688 101.671875 18.464844 101.089844 L 17.78125 102.65625 L 17.152344 104.246094 C 19.5625 99.820312 22.175781 95.472656 25.0625 91.289062 L 26.125 89.707031 L 27.238281 88.160156 C 27.984375 87.132812 28.722656 86.089844 29.480469 85.066406 C 31.039062 83.050781 32.570312 81.007812 34.214844 79.046875 C 35.808594 77.046875 37.511719 75.136719 39.183594 73.191406 L 41.769531 70.351562 C 42.203125 69.875 42.628906 69.394531 43.070312 68.933594 L 44.402344 67.546875 C 47.9375 63.816406 51.652344 60.253906 55.453125 56.769531 C 54.054688 58.144531 52.71875 59.59375 51.359375 61.003906 C 57.738281 55.269531 64.417969 49.855469 71.296875 44.703125 C 78.1875 39.5625 85.269531 34.660156 92.449219 29.898438 L 88.429688 32.945312 C 98.960938 26.320312 109.523438 19.609375 119.660156 12.628906 C 113.699219 15.535156 107.671875 18.898438 101.933594 22.613281 L 107.484375 17.816406 C 101.335938 21.558594 95.203125 25.351562 89.140625 29.261719 C 90.945312 27.785156 92.769531 26.335938 94.589844 24.878906 C 91.683594 26.652344 88.792969 28.453125 85.910156 30.273438 L 88.839844 27.597656 C 86.789062 29.433594 81.089844 32.527344 78.433594 34.351562 C 74.160156 37.265625 69.964844 40.332031 65.855469 43.480469 C 56.761719 50.378906 48.023438 57.800781 39.882812 65.871094 Z M 39.882812 65.871094 " fill-opacity="1" fill-rule="nonzero"/></g><g clip-path="url(#a18bede738)"><path fill="#ffffff" d="M 63.089844 93.484375 C 65.03125 91.277344 67.011719 89.109375 68.96875 86.925781 C 64.554688 92.578125 60.253906 98.308594 56.195312 104.203125 C 57.238281 102.902344 58.234375 101.566406 59.324219 100.296875 C 58.683594 101.136719 58.078125 102 57.480469 102.867188 L 53.855469 108.046875 L 52.945312 109.339844 L 52.074219 110.660156 C 49.753906 114.183594 47.394531 117.671875 45.210938 121.277344 L 43.542969 123.960938 C 42.988281 124.855469 42.425781 125.746094 41.902344 126.660156 L 38.71875 132.113281 C 36.585938 135.742188 34.570312 139.445312 32.683594 143.21875 C 33.933594 140.828125 35.25 138.472656 36.601562 136.144531 C 37.945312 133.8125 39.382812 131.539062 40.773438 129.234375 L 37.664062 134.574219 C 36.652344 136.371094 35.664062 138.175781 34.695312 139.996094 C 35.492188 138.726562 36.296875 137.472656 37.113281 136.21875 C 32.453125 146.074219 27.613281 156.421875 25.507812 167.355469 C 26.160156 163.855469 27.148438 160.425781 28.382812 157.089844 C 29.621094 153.753906 31.125 150.511719 32.765625 147.351562 C 34.40625 144.183594 36.21875 141.109375 38.101562 138.070312 C 39.042969 136.550781 40.007812 135.046875 41 133.558594 C 41.992188 132.070312 42.980469 130.582031 43.964844 129.09375 L 41.585938 133.761719 C 40.789062 135.3125 40.011719 136.875 39.269531 138.441406 C 40.128906 137.097656 41 135.753906 41.90625 134.425781 L 41.144531 136.195312 L 40.417969 137.976562 C 51.203125 117.816406 63.953125 98.570312 78.535156 80.695312 L 74.675781 86.03125 L 79.316406 80.523438 L 84.101562 75.136719 C 85.675781 73.324219 87.355469 71.609375 88.988281 69.84375 C 90.632812 68.09375 92.261719 66.324219 93.972656 64.640625 L 99.050781 59.519531 L 104.261719 54.535156 C 105.980469 52.847656 107.792969 51.269531 109.566406 49.648438 C 111.351562 48.035156 113.117188 46.402344 114.964844 44.855469 L 112.929688 46.804688 L 110.945312 48.804688 C 121.542969 39.808594 132.410156 31.050781 143.335938 22.691406 C 141.742188 23.632812 140.136719 24.597656 138.539062 25.597656 C 136.949219 26.609375 135.320312 27.59375 133.773438 28.707031 C 132.207031 29.796875 130.65625 30.917969 129.113281 32.050781 C 128.34375 32.621094 127.5625 33.179688 126.816406 33.777344 L 124.582031 35.582031 C 125.527344 34.597656 126.453125 33.585938 127.414062 32.617188 L 130.320312 29.714844 C 123.800781 34.496094 117.546875 39.625 111.359375 44.824219 L 116.855469 39.246094 C 113.902344 41.664062 110.894531 44.027344 108.023438 46.554688 C 108.980469 45.429688 109.921875 44.28125 110.898438 43.167969 C 109.878906 44.328125 107.949219 46.027344 105.902344 47.707031 C 104.882812 48.546875 103.847656 49.398438 102.894531 50.179688 C 101.960938 50.988281 101.113281 51.730469 100.453125 52.34375 C 96.179688 56.253906 92.117188 60.414062 88.085938 64.5625 C 79.246094 73.769531 70.898438 83.421875 63.089844 93.484375 Z M 63.089844 93.484375 " fill-opacity="1" fill-rule="nonzero"/></g><g clip-path="url(#2e0347df83)"><path fill="#ffffff" d="M 109.925781 101.933594 L 114.925781 96.328125 L 112.183594 100 C 111.273438 101.230469 110.34375 102.4375 109.488281 103.703125 C 107.75 106.214844 105.980469 108.707031 104.269531 111.226562 C 105.140625 110.101562 106.058594 109.011719 106.949219 107.902344 C 98.679688 119.671875 91.234375 131.992188 84.691406 144.746094 L 88.042969 138.742188 L 88.878906 137.238281 C 89.160156 136.742188 89.464844 136.253906 89.761719 135.765625 L 91.535156 132.820312 C 90.667969 134.347656 89.785156 135.863281 88.9375 137.394531 L 86.480469 142.050781 L 88.539062 138.835938 C 87.609375 140.972656 86.644531 143.113281 85.632812 145.25 C 85.113281 146.308594 84.644531 147.402344 84.152344 148.488281 C 83.664062 149.570312 83.164062 150.652344 82.65625 151.738281 C 82.148438 152.816406 81.628906 153.894531 81.105469 154.972656 C 80.570312 156.046875 80.101562 157.148438 79.582031 158.234375 C 78.566406 160.40625 77.515625 162.5625 76.429688 164.699219 C 81.699219 153.617188 87.796875 142.957031 94.585938 132.878906 L 92.640625 136.894531 C 92.324219 137.5625 91.984375 138.226562 91.679688 138.902344 L 90.777344 140.9375 C 91.503906 139.78125 92.222656 138.625 93 137.503906 L 92.394531 139.035156 L 91.84375 140.589844 C 100.730469 123.28125 111.261719 106.695312 123.375 91.226562 L 120.1875 95.84375 C 130.457031 83.128906 141.71875 71.183594 153.847656 60.160156 L 150.546875 63.648438 C 159.457031 55.863281 168.546875 48.214844 177.640625 40.816406 C 174.933594 42.4375 172.214844 44.175781 169.53125 46.007812 C 166.890625 47.898438 164.316406 49.933594 161.800781 51.996094 L 166.5 46.785156 C 161.050781 51 155.734375 55.394531 150.582031 59.964844 C 151.324219 59.136719 152.042969 58.277344 152.8125 57.472656 L 155.105469 55.039062 L 153.214844 56.589844 C 152.582031 57.105469 151.949219 57.617188 151.34375 58.160156 L 147.664062 61.378906 L 150.007812 58.382812 C 148.382812 60.472656 143.378906 64.152344 141.214844 66.34375 C 139.445312 68.0625 137.65625 69.773438 135.9375 71.554688 C 134.242188 73.355469 132.542969 75.152344 130.851562 76.949219 C 123.476562 84.941406 116.488281 93.277344 109.925781 101.933594 Z M 109.925781 101.933594 " fill-opacity="1" fill-rule="nonzero"/></g><g clip-path="url(#683bc10462)"><path fill="#000000" d="M 124.015625 94.082031 C 123.273438 93.335938 122.386719 92.734375 121.558594 92.078125 C 120.199219 95.183594 118.882812 98.175781 117.566406 101.175781 C 118.121094 98.179688 118.800781 95.246094 119.429688 92.300781 C 119.8125 90.507812 119.609375 90.140625 118.164062 89.277344 C 115.851562 93.71875 113.53125 98.171875 111.210938 102.625 C 111.109375 102.574219 111.007812 102.527344 110.90625 102.480469 C 110.945312 102.332031 110.957031 102.175781 111.023438 102.039062 C 114.203125 94.941406 115.921875 87.472656 116.6875 79.757812 C 116.753906 79.117188 116.640625 78.707031 116.097656 78.3125 C 114.351562 77.058594 112.664062 75.722656 110.921875 74.46875 C 110.40625 74.097656 110.3125 73.78125 110.429688 73.140625 C 110.980469 70.035156 111.59375 66.933594 111.890625 63.796875 C 112.230469 60.207031 112.296875 56.585938 112.410156 52.980469 C 112.480469 50.589844 112.417969 48.199219 112.390625 45.808594 C 112.386719 45.59375 112.203125 45.210938 112.070312 45.195312 C 111.179688 45.113281 111.011719 44.402344 110.738281 43.773438 C 104.445312 29.257812 87.402344 26.230469 76.3125 34.898438 C 75.65625 35.410156 75.027344 35.960938 74.382812 36.492188 C 76.917969 34.957031 79.714844 34.335938 82.535156 33.773438 C 81.761719 34.253906 80.953125 34.644531 80.167969 35.085938 C 79.351562 35.554688 78.550781 36.042969 77.78125 36.574219 C 77.074219 37.0625 76.417969 37.621094 75.742188 38.152344 C 75.777344 38.191406 75.8125 38.226562 75.84375 38.265625 C 76.941406 38.011719 78.039062 37.761719 79.132812 37.507812 C 78.996094 37.757812 78.8125 37.890625 78.617188 38.015625 C 75.707031 39.941406 72.785156 41.851562 69.886719 43.796875 C 69.425781 44.109375 69.066406 44.582031 68.488281 45.15625 C 79.152344 44.25 98.234375 44.355469 99.730469 45.152344 C 91.824219 45.523438 83.65625 45.914062 75.488281 46.296875 C 75.480469 46.425781 75.472656 46.554688 75.46875 46.679688 C 80.144531 47.378906 84.824219 48.078125 89.292969 48.742188 C 81.941406 49.332031 74.460938 49.15625 67.246094 46.296875 C 67.054688 48.34375 67.042969 48.390625 68.882812 48.84375 C 71.480469 49.484375 74.101562 50.042969 76.710938 50.640625 C 77.796875 50.890625 78.875 51.152344 79.957031 51.40625 C 79.949219 51.496094 79.9375 51.585938 79.921875 51.671875 L 72.039062 51.671875 C 72.019531 51.804688 72.007812 51.933594 71.988281 52.066406 C 76.015625 52.910156 80.042969 53.753906 84.0625 54.605469 C 79.011719 54.664062 74.03125 54.167969 69.144531 52.839844 C 67.863281 52.488281 66.910156 52.007812 67.199219 50.441406 C 67.207031 50.394531 67.125 50.332031 67.050781 50.222656 C 66.652344 50.273438 66.222656 50.308594 65.800781 50.382812 C 61.957031 51.039062 58.101562 51.605469 54.195312 51.050781 C 50.863281 50.582031 47.882812 49.484375 46.242188 45.828125 C 44.972656 48.773438 43.796875 51.492188 42.613281 54.230469 C 46.632812 56.316406 50.644531 57.324219 54.921875 57.230469 C 59.140625 57.136719 63.167969 56.121094 67.132812 54.734375 C 60.222656 65.796875 50.714844 71.539062 37.34375 69.421875 C 37.378906 69.5625 37.371094 69.640625 37.414062 69.683594 C 40.058594 72.398438 42.976562 74.75 46.460938 76.300781 C 46.855469 76.476562 47.386719 76.519531 47.808594 76.429688 C 55.875 74.597656 62.410156 70.488281 66.945312 63.425781 C 67 63.339844 67.078125 63.273438 67.089844 63.261719 C 67.089844 63.265625 67.085938 63.273438 67.085938 63.273438 C 67.777344 66.578125 68.464844 69.929688 69.195312 73.265625 C 69.328125 73.859375 69.164062 74.1875 68.699219 74.527344 C 66.988281 75.769531 65.324219 77.078125 63.605469 78.316406 C 63.015625 78.738281 62.832031 79.167969 62.890625 79.90625 C 63.414062 86.289062 64.890625 92.449219 67.117188 98.429688 C 67.742188 100.113281 68.464844 101.757812 69.144531 103.425781 C 69.054688 103.46875 68.960938 103.519531 68.871094 103.566406 C 66.378906 98.746094 63.886719 93.925781 61.40625 89.128906 C 59.816406 90.425781 59.8125 90.425781 60.207031 92.527344 C 60.277344 92.925781 60.378906 93.316406 60.472656 93.710938 C 61.03125 96.109375 61.585938 98.511719 62.148438 100.914062 C 62.097656 100.929688 62.042969 100.953125 61.992188 100.972656 C 60.644531 98.015625 59.300781 95.070312 57.925781 92.039062 C 57.207031 92.625 56.5625 93.203125 55.867188 93.710938 C 55.375 94.0625 55.28125 94.441406 55.449219 95.003906 C 55.804688 96.15625 56.015625 97.359375 56.457031 98.480469 C 59.78125 106.960938 64.40625 114.703125 69.828125 121.980469 C 70.582031 122.996094 71.347656 124.007812 72.199219 125.136719 C 70.34375 126.457031 68.554688 127.730469 66.652344 129.085938 C 61.214844 118.109375 56.46875 107.085938 54.742188 94.851562 C 53.476562 95.695312 52.371094 96.390625 51.320312 97.160156 C 51.109375 97.316406 50.964844 97.777344 51.019531 98.046875 C 51.53125 100.410156 52.089844 102.757812 52.644531 105.109375 C 53.1875 107.40625 53.75 109.699219 54.304688 112 C 54.234375 112.023438 54.164062 112.042969 54.097656 112.066406 C 52.339844 107.472656 50.589844 102.882812 48.816406 98.246094 C 46.277344 99.523438 43.800781 100.789062 41.300781 102 C 40.796875 102.242188 40.621094 102.507812 40.640625 103.054688 C 40.679688 104.34375 40.648438 105.636719 40.648438 107.058594 C 40 106.472656 39.414062 105.984375 38.875 105.449219 C 38.457031 105.03125 38.09375 104.894531 37.46875 105.136719 C 35.476562 105.917969 33.441406 106.601562 31.304688 107.363281 C 31.75 108.109375 32.109375 108.792969 32.546875 109.421875 C 34.386719 112.070312 36.1875 114.75 38.125 117.332031 C 42.832031 123.613281 48.023438 129.460938 54.054688 134.515625 C 61.105469 140.425781 68.933594 145.074219 77.261719 148.902344 C 77.601562 149.058594 78.1875 149.007812 78.515625 148.8125 C 85.023438 145.007812 91.101562 140.609375 96.699219 135.535156 C 106.835938 126.34375 115.195312 115.789062 121.101562 103.390625 C 122.324219 100.828125 123.144531 98.066406 124.09375 95.382812 C 124.226562 94.988281 124.25 94.316406 124.015625 94.082031 Z M 72.503906 56.507812 C 84.039062 58.722656 95.378906 59.039062 106.84375 56.277344 C 106.84375 56.734375 106.84375 57.082031 106.84375 57.433594 C 106.828125 59.582031 106.816406 61.734375 106.796875 63.886719 C 106.773438 66.871094 104.667969 69.035156 101.660156 69.21875 C 99.640625 69.34375 97.863281 68.5625 96.066406 67.8125 C 95.015625 67.367188 93.949219 66.964844 92.917969 66.492188 C 90.824219 65.535156 88.796875 65.699219 86.703125 66.570312 C 84.453125 67.507812 82.164062 68.410156 79.820312 69.058594 C 77.5 69.699219 75.234375 69.335938 73.632812 67.296875 C 73.082031 66.59375 72.597656 65.640625 72.554688 64.777344 C 72.414062 62.097656 72.503906 59.402344 72.503906 56.507812 Z M 93.316406 93.664062 C 93.160156 93.742188 93.007812 93.820312 92.855469 93.890625 C 92.554688 94.035156 92.25 94.15625 91.945312 94.25 C 91.71875 94.324219 91.496094 94.386719 91.269531 94.4375 C 91.167969 94.457031 91.070312 94.480469 90.972656 94.496094 C 90.871094 94.515625 90.777344 94.53125 90.675781 94.542969 C 90.613281 94.550781 90.550781 94.558594 90.484375 94.566406 C 90.449219 94.574219 90.410156 94.578125 90.375 94.578125 C 90.308594 94.582031 90.246094 94.589844 90.183594 94.59375 C 90.152344 94.59375 90.121094 94.597656 90.09375 94.597656 C 89.695312 94.621094 89.296875 94.609375 88.90625 94.5625 C 88.8125 94.554688 88.722656 94.542969 88.632812 94.527344 C 88.515625 94.511719 88.394531 94.488281 88.277344 94.464844 C 88.199219 94.449219 88.121094 94.433594 88.042969 94.414062 C 88.015625 94.410156 87.992188 94.402344 87.964844 94.394531 C 87.890625 94.375 87.816406 94.359375 87.738281 94.339844 C 87.570312 94.296875 87.398438 94.246094 87.230469 94.183594 C 87.15625 94.160156 87.085938 94.136719 87.019531 94.109375 C 86.945312 94.085938 86.875 94.0625 86.804688 94.03125 C 86.75 94.011719 86.691406 93.988281 86.636719 93.964844 C 86.460938 93.894531 86.285156 93.816406 86.109375 93.730469 C 86.042969 93.695312 85.972656 93.664062 85.90625 93.628906 C 85.644531 93.5 85.386719 93.355469 85.125 93.199219 C 85 93.125 84.871094 93.042969 84.738281 92.960938 C 84.734375 92.957031 84.726562 92.953125 84.71875 92.949219 C 84.585938 92.859375 84.453125 92.773438 84.324219 92.679688 C 84.265625 92.640625 84.203125 92.597656 84.144531 92.558594 C 84.070312 92.503906 83.992188 92.453125 83.921875 92.394531 C 83.742188 92.261719 83.5625 92.125 83.386719 91.992188 C 82.851562 91.582031 82.332031 91.164062 81.828125 90.734375 C 81.660156 90.585938 81.496094 90.441406 81.328125 90.296875 C 80.882812 89.902344 80.449219 89.496094 80.027344 89.082031 C 79.859375 88.914062 79.6875 88.742188 79.523438 88.570312 C 79.398438 88.441406 79.277344 88.320312 79.160156 88.191406 C 78.988281 88.007812 78.8125 87.816406 78.640625 87.628906 C 78.484375 87.453125 78.328125 87.277344 78.175781 87.101562 C 78.039062 86.941406 77.90625 86.785156 77.777344 86.621094 C 77.640625 86.460938 77.503906 86.292969 77.375 86.125 C 77.183594 85.882812 76.996094 85.632812 76.808594 85.386719 C 76.695312 85.230469 76.582031 85.070312 76.464844 84.910156 C 76.347656 84.746094 76.234375 84.582031 76.117188 84.414062 C 75.988281 84.222656 75.859375 84.027344 75.734375 83.832031 C 75.65625 83.714844 75.582031 83.597656 75.503906 83.476562 C 75.253906 83.082031 75.015625 82.679688 74.785156 82.269531 C 74.683594 82.085938 74.582031 81.902344 74.480469 81.71875 C 74.394531 81.554688 74.304688 81.382812 74.21875 81.214844 C 74.101562 80.996094 73.996094 80.777344 73.886719 80.550781 C 73.800781 80.371094 73.714844 80.1875 73.632812 80.003906 C 73.542969 79.808594 73.457031 79.613281 73.371094 79.417969 C 73.152344 78.90625 72.902344 78.410156 72.648438 77.863281 C 74.507812 80.214844 76.269531 82.566406 78.164062 84.804688 C 80.511719 87.578125 83.046875 90.171875 86.265625 91.976562 C 86.351562 92.027344 86.441406 92.074219 86.535156 92.121094 C 86.6875 92.199219 86.84375 92.273438 86.996094 92.347656 C 87.113281 92.402344 87.226562 92.453125 87.335938 92.496094 C 87.40625 92.527344 87.480469 92.554688 87.550781 92.582031 C 87.636719 92.617188 87.726562 92.648438 87.8125 92.675781 C 88.195312 92.808594 88.578125 92.910156 88.960938 92.980469 C 89.066406 93 89.175781 93.019531 89.285156 93.03125 C 89.421875 93.050781 89.558594 93.066406 89.691406 93.078125 C 89.933594 93.097656 90.175781 93.097656 90.414062 93.089844 C 90.648438 93.085938 90.878906 93.0625 91.109375 93.03125 C 91.183594 93.019531 91.261719 93.003906 91.335938 92.992188 C 91.433594 92.972656 91.53125 92.949219 91.625 92.929688 C 92.367188 92.757812 93.101562 92.449219 93.816406 91.992188 C 96.003906 90.589844 98.058594 88.9375 99.992188 87.1875 C 100.1875 87.011719 100.382812 86.824219 100.574219 86.640625 C 100.949219 86.265625 101.316406 85.875 101.675781 85.476562 C 101.898438 85.226562 102.117188 84.976562 102.335938 84.726562 C 102.554688 84.472656 102.773438 84.21875 102.996094 83.964844 C 103.429688 83.457031 103.871094 82.953125 104.320312 82.460938 L 104.324219 82.457031 C 104.328125 82.453125 104.328125 82.453125 104.328125 82.453125 C 104.226562 82.621094 104.128906 82.789062 104.027344 82.957031 C 103.621094 83.628906 103.203125 84.292969 102.757812 84.945312 C 102.648438 85.109375 102.539062 85.265625 102.425781 85.425781 C 102.316406 85.585938 102.199219 85.746094 102.082031 85.902344 C 101.96875 86.0625 101.851562 86.214844 101.730469 86.371094 C 101.605469 86.539062 101.472656 86.703125 101.34375 86.871094 C 101.175781 87.074219 101.007812 87.28125 100.832031 87.484375 C 100.820312 87.503906 100.804688 87.523438 100.789062 87.535156 C 100.613281 87.746094 100.433594 87.945312 100.25 88.148438 C 100.15625 88.253906 100.054688 88.363281 99.953125 88.472656 C 99.875 88.546875 99.800781 88.628906 99.726562 88.703125 C 99.621094 88.8125 99.519531 88.914062 99.417969 89.015625 C 99.140625 89.292969 98.851562 89.5625 98.558594 89.828125 C 98.355469 90.007812 98.152344 90.183594 97.945312 90.359375 C 97.535156 90.714844 97.117188 91.0625 96.6875 91.402344 C 96.472656 91.574219 96.257812 91.738281 96.039062 91.90625 C 95.496094 92.316406 94.933594 92.707031 94.363281 93.0625 C 94.132812 93.207031 93.90625 93.34375 93.667969 93.476562 C 93.550781 93.535156 93.433594 93.601562 93.316406 93.664062 Z M 70.785156 69.214844 C 70.832031 69.261719 70.882812 69.3125 70.9375 69.363281 C 71.089844 69.519531 71.253906 69.660156 71.417969 69.789062 C 71.5 69.859375 71.589844 69.929688 71.679688 69.992188 C 71.898438 70.160156 72.125 70.304688 72.355469 70.4375 C 72.453125 70.492188 72.554688 70.546875 72.652344 70.597656 C 72.789062 70.664062 72.925781 70.726562 73.058594 70.785156 C 73.152344 70.824219 73.242188 70.863281 73.335938 70.898438 C 73.449219 70.9375 73.5625 70.980469 73.675781 71.015625 C 73.726562 71.03125 73.773438 71.046875 73.824219 71.0625 C 73.867188 71.074219 73.90625 71.085938 73.945312 71.097656 C 74.035156 71.121094 74.125 71.144531 74.214844 71.167969 C 74.292969 71.183594 74.367188 71.207031 74.449219 71.21875 C 74.488281 71.230469 74.53125 71.238281 74.570312 71.246094 C 74.648438 71.257812 74.730469 71.273438 74.808594 71.289062 C 75.210938 71.355469 75.617188 71.394531 76.027344 71.414062 C 77.316406 71.464844 78.65625 71.296875 79.984375 71.066406 C 80.097656 71.042969 80.214844 71.023438 80.332031 71 C 80.445312 70.976562 80.5625 70.953125 80.679688 70.925781 C 80.992188 70.855469 81.304688 70.773438 81.617188 70.683594 C 81.761719 70.644531 81.90625 70.601562 82.050781 70.558594 C 82.164062 70.523438 82.277344 70.484375 82.386719 70.449219 C 82.5 70.414062 82.617188 70.378906 82.726562 70.34375 C 83.03125 70.238281 83.332031 70.132812 83.632812 70.027344 C 84.832031 69.589844 86.027344 69.109375 87.230469 68.703125 C 87.640625 68.5625 88.046875 68.417969 88.460938 68.269531 C 88.671875 68.195312 88.878906 68.121094 89.089844 68.042969 C 89.304688 67.964844 89.519531 67.886719 89.738281 67.808594 L 89.742188 67.808594 L 89.742188 69.132812 L 89.738281 69.132812 C 87.367188 69.839844 85.011719 70.539062 82.65625 71.242188 C 81.871094 71.472656 81.085938 71.703125 80.300781 71.9375 L 80.300781 71.941406 C 80.300781 71.972656 80.300781 71.996094 80.300781 72.023438 C 81.117188 71.960938 81.9375 71.894531 82.753906 71.832031 C 82.769531 71.945312 82.785156 72.058594 82.800781 72.171875 C 79.832031 72.636719 76.863281 73.101562 73.890625 73.566406 C 74.742188 74.46875 75.730469 75.515625 76.71875 76.566406 C 76.675781 76.628906 76.628906 76.6875 76.585938 76.753906 C 76.289062 76.570312 75.996094 76.390625 75.675781 76.191406 C 75.519531 76.089844 75.351562 75.992188 75.175781 75.878906 C 75 75.769531 74.8125 75.65625 74.617188 75.535156 L 74.613281 75.535156 C 74.652344 75.59375 74.695312 75.648438 74.734375 75.707031 C 74.964844 76.035156 75.175781 76.335938 75.375 76.625 C 75.453125 76.730469 75.523438 76.835938 75.597656 76.9375 C 75.84375 77.292969 76.074219 77.625 76.3125 77.960938 C 73.050781 75.527344 70.984375 72.332031 70.066406 68.375 C 70.296875 68.683594 70.535156 68.960938 70.785156 69.214844 Z M 67.328125 85.082031 C 67.199219 84.492188 67.070312 83.902344 66.957031 83.308594 C 66.902344 83.007812 66.847656 82.714844 66.796875 82.414062 C 66.75 82.117188 66.707031 81.820312 66.667969 81.519531 C 66.664062 81.503906 66.664062 81.480469 66.664062 81.460938 C 66.652344 81.308594 66.679688 81.132812 66.734375 80.964844 C 66.765625 80.863281 66.800781 80.765625 66.851562 80.675781 C 66.871094 80.628906 66.898438 80.585938 66.921875 80.546875 C 66.945312 80.503906 66.976562 80.464844 67.003906 80.425781 C 67.03125 80.386719 67.066406 80.351562 67.09375 80.324219 C 67.253906 80.160156 67.425781 80 67.605469 79.847656 C 67.691406 79.769531 67.785156 79.695312 67.875 79.621094 C 67.925781 79.574219 67.976562 79.535156 68.03125 79.492188 C 68.113281 79.425781 68.199219 79.355469 68.285156 79.289062 C 68.292969 79.28125 68.300781 79.273438 68.3125 79.265625 C 68.40625 79.195312 68.5 79.121094 68.59375 79.046875 C 68.742188 78.925781 68.894531 78.804688 69.054688 78.683594 C 69.15625 78.601562 69.261719 78.519531 69.363281 78.433594 L 69.363281 78.429688 L 69.367188 78.429688 C 69.4375 78.785156 69.511719 79.132812 69.585938 79.480469 C 69.660156 79.835938 69.738281 80.179688 69.824219 80.523438 C 69.90625 80.871094 69.992188 81.214844 70.078125 81.554688 C 70.171875 81.898438 70.261719 82.238281 70.355469 82.578125 C 70.535156 83.210938 70.71875 83.835938 70.917969 84.457031 C 70.960938 84.597656 71.003906 84.734375 71.050781 84.871094 C 71.234375 85.441406 71.425781 86.003906 71.632812 86.5625 C 71.761719 86.9375 71.902344 87.304688 72.042969 87.675781 C 72.1875 88.039062 72.328125 88.40625 72.476562 88.773438 C 72.625 89.140625 72.777344 89.503906 72.929688 89.863281 C 73.164062 90.417969 73.410156 90.964844 73.664062 91.507812 C 73.820312 91.855469 73.984375 92.195312 74.148438 92.535156 C 74.148438 92.535156 74.148438 92.535156 74.148438 92.539062 C 74.304688 92.867188 74.46875 93.199219 74.636719 93.527344 C 74.820312 93.898438 75.011719 94.265625 75.203125 94.636719 C 75.382812 94.984375 75.566406 95.328125 75.753906 95.667969 C 75.847656 95.84375 75.941406 96.011719 76.035156 96.183594 C 76.410156 96.867188 76.800781 97.546875 77.203125 98.21875 C 77.597656 98.890625 78.007812 99.5625 78.425781 100.222656 C 78.839844 100.886719 79.269531 101.546875 79.707031 102.203125 C 79.917969 102.527344 80.132812 102.851562 80.355469 103.171875 C 80.359375 103.179688 80.367188 103.1875 80.371094 103.195312 C 80.808594 103.84375 81.253906 104.484375 81.707031 105.121094 C 81.84375 105.316406 81.980469 105.503906 82.113281 105.691406 C 82.28125 105.925781 82.453125 106.167969 82.625 106.402344 C 82.859375 106.730469 83.097656 107.054688 83.34375 107.378906 C 83.496094 107.585938 83.648438 107.792969 83.804688 108 C 84.105469 108.40625 84.414062 108.816406 84.722656 109.21875 C 84.976562 109.550781 85.226562 109.878906 85.484375 110.210938 C 85.644531 110.421875 85.808594 110.628906 85.972656 110.839844 C 86.21875 111.15625 86.464844 111.46875 86.710938 111.78125 L 86.710938 111.785156 C 86.003906 112.484375 85.289062 113.1875 84.566406 113.898438 C 84.203125 114.257812 83.835938 114.621094 83.464844 114.988281 C 83.089844 115.359375 82.714844 115.730469 82.328125 116.109375 C 81.035156 114.273438 79.726562 112.5 78.503906 110.671875 C 73.234375 102.828125 69.351562 94.363281 67.328125 85.082031 Z M 95.753906 116.839844 C 91.335938 121.871094 86.40625 126.296875 80.464844 129.46875 C 80.308594 129.546875 80.160156 129.628906 80.007812 129.707031 C 79.550781 129.941406 79.089844 130.171875 78.625 130.390625 C 78.320312 130.535156 78.007812 130.679688 77.699219 130.820312 C 77.230469 131.027344 76.757812 131.230469 76.285156 131.425781 C 75.695312 131.664062 75.101562 131.894531 74.5 132.113281 C 74.199219 132.222656 73.894531 132.332031 73.59375 132.4375 C 72.992188 132.648438 72.382812 132.84375 71.769531 133.035156 C 71.15625 133.226562 70.539062 133.410156 69.917969 133.582031 C 69.609375 133.671875 69.296875 133.757812 68.984375 133.839844 C 68.652344 133.925781 68.316406 134.011719 67.980469 134.101562 C 67.308594 134.273438 66.632812 134.433594 65.957031 134.589844 C 65.617188 134.671875 65.277344 134.746094 64.933594 134.824219 C 64.9375 134.824219 64.941406 134.824219 64.941406 134.820312 C 65.179688 134.671875 65.421875 134.523438 65.65625 134.378906 C 66.132812 134.085938 66.605469 133.796875 67.074219 133.515625 C 67.78125 133.085938 68.46875 132.664062 69.148438 132.234375 C 69.601562 131.945312 70.046875 131.652344 70.492188 131.351562 C 75.484375 127.980469 80.109375 124.238281 84.386719 120.167969 C 90.644531 114.210938 96.164062 107.523438 101.019531 100.1875 C 101.683594 99.1875 102.324219 98.1875 102.949219 97.171875 C 105.410156 93.148438 107.519531 88.957031 108.863281 84.398438 C 108.988281 83.96875 109.109375 83.539062 109.222656 83.105469 C 109.414062 82.359375 109.59375 81.617188 109.773438 80.847656 C 109.867188 80.464844 109.957031 80.074219 110.050781 79.675781 C 110.140625 79.277344 110.238281 78.875 110.339844 78.457031 C 110.546875 78.652344 110.75 78.832031 110.941406 79.007812 C 111.53125 79.539062 112.070312 80.019531 112.558594 80.554688 C 112.753906 80.765625 112.800781 81.242188 112.722656 81.558594 C 111.972656 84.832031 111.328125 88.136719 110.378906 91.347656 C 107.527344 100.996094 102.339844 109.335938 95.753906 116.839844 Z M 95.753906 116.839844 " fill-opacity="1" fill-rule="evenodd"/></g><g clip-path="url(#6b0f1d430c)"><path fill="#000000" d="M 148.296875 107.402344 C 147.375 108.890625 146.527344 110.359375 145.589844 111.765625 C 134.917969 127.714844 121.136719 140.089844 103.671875 148.136719 C 99.386719 150.113281 94.90625 151.664062 90.519531 153.417969 C 89.722656 153.734375 88.992188 153.703125 88.191406 153.375 C 86.371094 152.625 84.523438 151.957031 82.773438 151.289062 C 87.113281 148.515625 91.5625 145.988281 95.644531 142.964844 C 99.707031 139.964844 103.394531 136.460938 107.25 133.183594 C 107.308594 133.203125 107.371094 133.230469 107.433594 133.25 C 105.914062 135.484375 104.453125 137.757812 102.867188 139.941406 C 101.296875 142.09375 99.601562 144.15625 98 146.292969 C 101.09375 144.136719 103.84375 141.621094 106.285156 138.746094 C 112.414062 131.511719 116.390625 123.082031 119.761719 114.324219 C 122.097656 108.257812 123.859375 102.027344 124.855469 95.589844 C 124.886719 95.433594 124.957031 95.277344 125.027344 95.0625 C 126.195312 95.808594 127.351562 96.480469 128.414062 97.277344 C 128.675781 97.472656 128.8125 98.105469 128.726562 98.46875 C 127.730469 102.546875 126.679688 106.613281 125.648438 110.679688 C 125.546875 111.085938 125.457031 111.488281 125.363281 111.894531 C 125.453125 111.921875 125.546875 111.953125 125.636719 111.980469 C 127.382812 107.453125 129.132812 102.921875 130.90625 98.320312 C 133.5 99.59375 136.082031 100.84375 138.640625 102.148438 C 138.875 102.265625 139.050781 102.71875 139.0625 103.023438 C 139.105469 104.363281 139.082031 105.707031 139.082031 107.078125 C 139.675781 106.515625 140.292969 105.867188 140.988281 105.3125 C 141.238281 105.109375 141.726562 104.976562 142.015625 105.078125 C 144.070312 105.792969 146.097656 106.578125 148.296875 107.402344 Z M 148.296875 107.402344 " fill-opacity="1" fill-rule="evenodd"/></g><path fill="#ffffff" d="M 64.933594 134.820312 C 65.175781 134.671875 65.417969 134.523438 65.65625 134.378906 C 65.421875 134.523438 65.179688 134.671875 64.941406 134.816406 C 64.941406 134.820312 64.9375 134.820312 64.933594 134.820312 Z M 64.933594 134.820312 " fill-opacity="1" fill-rule="evenodd"/><path fill="#ffffff" d="M 68.984375 133.839844 C 71.484375 133.167969 73.917969 132.390625 76.285156 131.421875 C 73.921875 132.386719 71.484375 133.171875 68.984375 133.839844 Z M 68.984375 133.839844 " fill-opacity="1" fill-rule="evenodd"/><path fill="#ffffff" d="M 78.625 130.390625 C 79.089844 130.167969 79.550781 129.941406 80.003906 129.707031 C 79.550781 129.945312 79.089844 130.171875 78.625 130.390625 Z M 78.625 130.390625 " fill-opacity="1" fill-rule="evenodd"/><path fill="#ffffff" d="M 109.777344 80.847656 C 109.867188 80.464844 109.960938 80.074219 110.054688 79.675781 C 109.960938 80.074219 109.867188 80.464844 109.777344 80.847656 Z M 109.777344 80.847656 " fill-opacity="1" fill-rule="evenodd"/><path fill="#ffffff" d="M 110.945312 79.007812 C 110.75 78.835938 110.546875 78.652344 110.34375 78.460938 L 110.34375 78.457031 C 110.550781 78.648438 110.75 78.832031 110.945312 79.007812 Z M 110.945312 79.007812 " fill-opacity="1" fill-rule="evenodd"/><path fill="#ffffff" d="M 69.050781 78.683594 C 69.152344 78.601562 69.257812 78.515625 69.363281 78.433594 C 69.257812 78.519531 69.152344 78.601562 69.050781 78.683594 Z M 69.050781 78.683594 " fill-opacity="1" fill-rule="evenodd"/><path fill="#ffffff" d="M 76.03125 96.183594 C 76.414062 96.871094 76.800781 97.546875 77.199219 98.21875 C 76.796875 97.546875 76.410156 96.871094 76.03125 96.183594 Z M 76.03125 96.183594 " fill-opacity="1" fill-rule="evenodd"/><path fill="#ffffff" d="M 77.199219 98.21875 C 77.597656 98.894531 78.007812 99.5625 78.425781 100.226562 C 78.003906 99.5625 77.597656 98.894531 77.199219 98.21875 Z M 77.199219 98.21875 " fill-opacity="1" fill-rule="evenodd"/><path fill="#ffffff" d="M 78.425781 100.226562 C 78.84375 100.890625 79.265625 101.546875 79.703125 102.203125 C 79.269531 101.546875 78.839844 100.890625 78.425781 100.226562 Z M 78.425781 100.226562 " fill-opacity="1" fill-rule="evenodd"/><path fill="#ffffff" d="M 80.367188 103.195312 C 80.804688 103.84375 81.25 104.484375 81.703125 105.125 C 81.25 104.484375 80.804688 103.84375 80.367188 103.195312 Z M 80.367188 103.195312 " fill-opacity="1" fill-rule="evenodd"/><path fill="#ffffff" d="M 87.226562 94.183594 C 87.398438 94.246094 87.570312 94.296875 87.738281 94.339844 C 87.570312 94.296875 87.398438 94.246094 87.226562 94.183594 Z M 87.226562 94.183594 " fill-opacity="1" fill-rule="evenodd"/><path fill="#ffffff" d="M 90.097656 94.597656 C 89.605469 94.625 89.117188 94.601562 88.636719 94.527344 C 89.117188 94.597656 89.605469 94.625 90.097656 94.597656 Z M 90.097656 94.597656 " fill-opacity="1" fill-rule="evenodd"/><path fill="#ffffff" d="M 90.410156 93.089844 C 90.171875 93.097656 89.933594 93.09375 89.6875 93.074219 C 89.933594 93.09375 90.167969 93.097656 90.410156 93.089844 Z M 90.410156 93.089844 " fill-opacity="1" fill-rule="evenodd"/><path fill="#ffffff" d="M 91.332031 92.988281 C 91.027344 93.042969 90.722656 93.082031 90.410156 93.089844 C 90.71875 93.078125 91.027344 93.042969 91.332031 92.988281 Z M 91.332031 92.988281 " fill-opacity="1" fill-rule="evenodd"/><path fill="#ffffff" d="M 91.269531 94.4375 C 91.496094 94.382812 91.71875 94.324219 91.945312 94.25 C 91.722656 94.324219 91.496094 94.386719 91.269531 94.4375 Z M 91.269531 94.4375 " fill-opacity="1" fill-rule="evenodd"/><path fill="#ffffff" d="M 93.316406 93.664062 C 93.433594 93.601562 93.550781 93.535156 93.667969 93.46875 C 93.550781 93.539062 93.433594 93.601562 93.316406 93.664062 C 93.160156 93.742188 93.011719 93.820312 92.855469 93.890625 C 93.007812 93.820312 93.160156 93.742188 93.316406 93.664062 Z M 93.316406 93.664062 " fill-opacity="1" fill-rule="evenodd"/><path fill="#ffffff" d="M 74.617188 75.539062 C 74.65625 75.597656 74.695312 75.652344 74.734375 75.710938 C 74.695312 75.652344 74.65625 75.597656 74.613281 75.539062 Z M 74.617188 75.539062 " fill-opacity="1" fill-rule="evenodd"/><path fill="#ffffff" d="M 80.304688 71.941406 C 81.085938 71.707031 81.875 71.472656 82.65625 71.242188 C 81.875 71.476562 81.085938 71.707031 80.304688 71.941406 Z M 80.304688 71.941406 " fill-opacity="1" fill-rule="evenodd"/></svg>