<svg xmlns="http://www.w3.org/2000/svg" xmlns:xlink="http://www.w3.org/1999/xlink" width="240" zoomAndPan="magnify" viewBox="0 0 180 179.999997" height="240" preserveAspectRatio="xMidYMid meet" version="1.0"><defs><clipPath id="e653da527d"><path d="M 26.183594 26.324219 L 153.816406 26.324219 L 153.816406 153.675781 L 26.183594 153.675781 Z M 26.183594 26.324219 " clip-rule="nonzero"/></clipPath><clipPath id="a2316a51aa"><path d="M 21 82 L 98 82 L 98 159 L 21 159 Z M 21 82 " clip-rule="nonzero"/></clipPath><clipPath id="b169eb555e"><path d="M 39.300781 65.273438 L 115.136719 141.109375 L 52.558594 203.6875 L -23.277344 127.851562 Z M 39.300781 65.273438 " clip-rule="nonzero"/></clipPath><clipPath id="80961062a0"><path d="M 39.300781 65.273438 L 115.136719 141.109375 L 52.558594 203.6875 L -23.277344 127.851562 Z M 39.300781 65.273438 " clip-rule="nonzero"/></clipPath><clipPath id="21a1b0ea03"><path d="M 21 102 L 78 102 L 78 159 L 21 159 Z M 21 102 " clip-rule="nonzero"/></clipPath><clipPath id="4746286648"><path d="M 39.300781 65.273438 L 115.136719 141.109375 L 52.558594 203.6875 L -23.277344 127.851562 Z M 39.300781 65.273438 " clip-rule="nonzero"/></clipPath><clipPath id="ed44ea06f6"><path d="M 39.300781 65.273438 L 115.136719 141.109375 L 52.558594 203.6875 L -23.277344 127.851562 Z M 39.300781 65.273438 " clip-rule="nonzero"/></clipPath><clipPath id="6d0eda1574"><path d="M 21 121 L 59 121 L 59 159 L 21 159 Z M 21 121 " clip-rule="nonzero"/></clipPath><clipPath id="eb4e48ea49"><path d="M 39.300781 65.273438 L 115.136719 141.109375 L 52.558594 203.6875 L -23.277344 127.851562 Z M 39.300781 65.273438 " clip-rule="nonzero"/></clipPath><clipPath id="26271c3b13"><path d="M 39.300781 65.273438 L 115.136719 141.109375 L 52.558594 203.6875 L -23.277344 127.851562 Z M 39.300781 65.273438 " clip-rule="nonzero"/></clipPath><clipPath id="a756580d18"><path d="M 11 145 L 35 145 L 35 169 L 11 169 Z M 11 145 " clip-rule="nonzero"/></clipPath><clipPath id="032182475e"><path d="M 39.300781 65.273438 L 115.136719 141.109375 L 52.558594 203.6875 L -23.277344 127.851562 Z M 39.300781 65.273438 " clip-rule="nonzero"/></clipPath><clipPath id="bfa92732f1"><path d="M 39.300781 65.273438 L 115.136719 141.109375 L 52.558594 203.6875 L -23.277344 127.851562 Z M 39.300781 65.273438 " clip-rule="nonzero"/></clipPath><clipPath id="a387beb75e"><path d="M 36.304688 46 L 162.304688 46 L 162.304688 120 L 36.304688 120 Z M 36.304688 46 " clip-rule="nonzero"/></clipPath></defs><path fill="#a9bab4" d="M 18 18 L 162 18 L 162 162 L 18 162 Z M 18 18 " fill-opacity="1" fill-rule="nonzero"/><g clip-path="url(#e653da527d)"><path fill="#50665a" d="M 26.183594 26.324219 L 154.027344 26.324219 L 154.027344 153.675781 L 26.183594 153.675781 Z M 26.183594 26.324219 " fill-opacity="1" fill-rule="nonzero"/></g><g clip-path="url(#a2316a51aa)"><g clip-path="url(#b169eb555e)"><g clip-path="url(#80961062a0)"><path fill="#ffffff" d="M 97.636719 157.171875 C 97.996094 135.429688 87.921875 113.898438 71.277344 99.957031 C 58.511719 89.101562 41.992188 82.78125 25.238281 82.417969 C 24.09375 82.472656 22.617188 82.019531 21.835938 83.136719 C 20.953125 84.324219 22.03125 86.152344 23.5 85.957031 C 31.164062 85.996094 38.824219 87.242188 46.085938 89.6875 C 60.175781 94.421875 72.613281 103.808594 81.179688 115.9375 C 89.417969 127.503906 93.96875 141.640625 94.066406 155.84375 C 94.09375 156.675781 94.042969 157.683594 94.839844 158.207031 C 95.808594 158.9375 97.410156 158.390625 97.636719 157.171875 Z M 97.636719 157.171875 " fill-opacity="1" fill-rule="nonzero"/></g></g></g><g clip-path="url(#21a1b0ea03)"><g clip-path="url(#4746286648)"><g clip-path="url(#ed44ea06f6)"><path fill="#ffffff" d="M 55.882812 112.929688 C 46.535156 105.910156 34.847656 102.089844 23.15625 102.1875 C 21.367188 102.1875 20.917969 104.957031 22.570312 105.613281 C 25.164062 106.03125 27.835938 105.757812 30.425781 106.292969 C 41.957031 107.792969 52.859375 113.511719 60.707031 122.085938 C 67.792969 129.625 72.445312 139.414062 73.773438 149.679688 C 74.265625 152.144531 74.09375 154.675781 74.371094 157.15625 C 74.636719 158.980469 77.574219 158.957031 77.84375 157.148438 C 78.226562 140.011719 69.679688 123.0625 55.882812 112.929688 Z M 55.882812 112.929688 " fill-opacity="1" fill-rule="nonzero"/></g></g></g><g clip-path="url(#6d0eda1574)"><g clip-path="url(#eb4e48ea49)"><g clip-path="url(#26271c3b13)"><path fill="#ffffff" d="M 43.269531 128.25 C 37.359375 124.117188 30.140625 121.851562 22.925781 122 C 21.660156 122.1875 21.121094 123.84375 21.859375 124.824219 C 22.484375 125.707031 23.636719 125.523438 24.574219 125.605469 C 32.644531 125.851562 40.546875 129.472656 46.03125 135.398438 C 51.25 140.855469 54.332031 148.308594 54.460938 155.863281 C 54.546875 156.535156 54.414062 157.328125 54.917969 157.867188 C 55.738281 159.050781 57.824219 158.570312 58.054688 157.15625 C 58.351562 145.84375 52.546875 134.6875 43.269531 128.25 Z M 43.269531 128.25 " fill-opacity="1" fill-rule="nonzero"/></g></g></g><g clip-path="url(#a756580d18)"><g clip-path="url(#032182475e)"><g clip-path="url(#bfa92732f1)"><path fill="#ffffff" d="M 29.335938 146.753906 C 25.851562 144.625 21.234375 144.527344 17.679688 146.554688 C 14.445312 148.203125 12.285156 151.578125 11.777344 155.136719 C 11.109375 159.660156 13.351562 164.542969 17.386719 166.777344 C 22.679688 170.082031 30.429688 168.113281 33.402344 162.59375 C 36.597656 157.355469 34.730469 149.761719 29.335938 146.753906 Z M 29.335938 146.753906 " fill-opacity="1" fill-rule="nonzero"/></g></g></g><path fill="#000000" d="M 128.164062 24.316406 C 128.90625 23.042969 128.644531 21.269531 127.484375 19.714844 L 126.269531 18.09375 L 87.300781 63.746094 L 101.90625 63.746094 Z M 128.164062 24.316406 " fill-opacity="1" fill-rule="nonzero"/><path fill="#000000" d="M 52.230469 48.28125 L 46.660156 48.28125 L 46.855469 49.363281 L 57.292969 62.363281 Z M 52.230469 48.28125 " fill-opacity="1" fill-rule="nonzero"/><g clip-path="url(#a387beb75e)"><path fill="#000000" d="M 149.511719 65.949219 L 161.804688 65.949219 C 162.09375 65.949219 162.332031 65.714844 162.332031 65.425781 C 162.332031 65.136719 162.09375 64.898438 161.804688 64.898438 L 149.511719 64.898438 C 148.484375 62.078125 139.519531 58.464844 130.90625 58.464844 C 124.222656 58.464844 119.863281 58.890625 115.203125 61.589844 C 111.3125 63.84375 106.929688 65.117188 102.429688 65.117188 L 57.742188 65.117188 L 42.519531 46.164062 L 36.304688 46.164062 L 48.09375 65.117188 L 47.703125 65.117188 C 47.085938 65.117188 46.585938 65.617188 46.585938 66.234375 L 46.585938 67.199219 C 46.585938 67.582031 46.78125 67.9375 47.105469 68.144531 L 50.882812 70.511719 C 52.828125 71.730469 55.078125 72.378906 57.375 72.378906 L 78.53125 72.378906 L 81.621094 68.488281 L 83.304688 68.671875 L 43.804688 118.375 L 45.75 119.300781 C 46.582031 119.699219 47.417969 119.886719 48.195312 119.898438 C 49.160156 119.910156 50.039062 119.636719 50.6875 119.0625 L 95.992188 73.964844 L 125 73.964844 C 126.242188 73.964844 127.515625 73.886719 128.800781 73.75 C 133.277344 73.277344 137.882812 72.070312 141.648438 70.703125 C 145.800781 69.40625 148.925781 67.558594 149.511719 65.949219 Z M 149.511719 65.949219 " fill-opacity="1" fill-rule="nonzero"/></g></svg>