<svg xmlns="http://www.w3.org/2000/svg" xmlns:xlink="http://www.w3.org/1999/xlink" width="300" zoomAndPan="magnify" viewBox="0 0 224.87999 74.999997" height="100" preserveAspectRatio="xMidYMid meet" version="1.0"><defs><clipPath id="b846cb9f56"><path d="M 29.554688 3 L 195.214844 3 L 195.214844 72.839844 L 29.554688 72.839844 Z M 29.554688 3 " clip-rule="nonzero"/></clipPath></defs><g clip-path="url(#b846cb9f56)"><path fill="#000000" d="M 191.21875 20.578125 L 191.132812 20.957031 C 191.132812 20.957031 190.542969 20.109375 190.140625 20.753906 L 189.792969 20.753906 C 189.792969 20.753906 189.261719 20.109375 188.761719 20.636719 C 188.761719 20.636719 188.292969 19.988281 187.882812 20.871094 L 164.941406 20.546875 L 164.785156 19.636719 L 164.636719 16.265625 L 165.128906 16.265625 L 165.101562 14.53125 L 165.101562 12.113281 L 162.460938 12.113281 C 162.460938 12.113281 161.84375 13.546875 162.550781 14.546875 C 162.210938 14.984375 162.082031 15.480469 162.164062 16.03125 C 162.164062 16.03125 161.054688 16.910156 160.964844 17.910156 C 160.910156 18.484375 160.910156 19.0625 160.964844 19.636719 L 156.15625 19.699219 L 154.898438 18.90625 C 154.898438 18.90625 151.023438 19.078125 151.023438 18.816406 C 151.023438 18.554688 150.761719 16.617188 149.539062 16.707031 C 148.320312 16.796875 133.789062 16.707031 133.789062 16.707031 C 133.789062 16.707031 136.34375 13.800781 135.726562 11.335938 L 136.074219 10.191406 L 135.464844 10.191406 L 135.992188 8.433594 L 134.230469 8.433594 C 133.757812 7.949219 133.207031 7.578125 132.582031 7.320312 C 131.953125 7.0625 131.300781 6.9375 130.625 6.949219 C 130.171875 6.476562 129.628906 6.144531 129 5.957031 C 128.371094 5.769531 127.738281 5.75 127.097656 5.898438 C 127.097656 5.898438 126.308594 4.308594 123.40625 4.660156 C 122.609375 2.371094 120.761719 3.519531 120.761719 3.519531 L 120.296875 5.882812 C 120.296875 5.882812 120.738281 7.726562 123.027344 6.671875 C 123.027344 6.671875 124.703125 8.433594 126.722656 7.816406 C 127.125 8.28125 127.621094 8.605469 128.207031 8.785156 C 128.796875 8.960938 129.386719 8.96875 129.980469 8.804688 C 130.480469 9.351562 131.082031 9.734375 131.792969 9.957031 C 132.5 10.175781 133.214844 10.203125 133.9375 10.035156 L 134.816406 11.09375 C 134.816406 11.09375 135.34375 14.789062 132.617188 15.667969 L 126.121094 15.574219 L 125.417969 14.875 L 121.191406 14.785156 L 120.929688 16.367188 L 121.917969 17.425781 L 121.210938 18.65625 L 120.070312 18.480469 L 119.28125 16.894531 L 119.101562 15.835938 L 118.113281 14.785156 L 116.972656 14.585938 L 116.089844 15.574219 L 108.675781 15.222656 L 107.796875 14.34375 L 104.539062 14.433594 L 104.101562 15.484375 L 91.164062 15.398438 L 90.8125 12.40625 C 90.8125 12.40625 87.996094 10.925781 85.707031 10.648438 C 83.417969 10.371094 82.628906 10.824219 82.628906 10.824219 L 81.308594 12.496094 L 81.128906 15.136719 L 75.167969 15.136719 C 74.046875 15.625 72.871094 15.886719 71.648438 15.925781 C 70.941406 15.925781 68.921875 16.105469 68.921875 16.105469 L 68.652344 18.046875 L 62.054688 21.808594 L 50.789062 23.835938 C 50.789062 23.835938 48.851562 24.625 47.53125 22.515625 C 46.210938 20.40625 44.980469 19.429688 40.582031 18.816406 C 36.183594 18.203125 30.636719 16.265625 29.839844 18.816406 L 29.839844 37.105469 C 29.839844 37.105469 29.667969 38.777344 32.484375 38.589844 C 35.304688 38.402344 50.96875 38.410156 50.773438 36.652344 C 50.582031 34.890625 49.015625 32.429688 51.566406 31.214844 C 54.117188 30 64.34375 28.921875 68.480469 29.292969 C 72.617188 29.664062 73.582031 31.394531 75.339844 31.050781 C 76.925781 30.730469 78.511719 30.730469 80.097656 31.050781 C 80.710938 31.273438 81.238281 31.625 81.679688 32.105469 C 81.679688 32.105469 84.496094 34.042969 83.355469 35.714844 C 82.210938 37.382812 76.660156 44.691406 78.597656 46.539062 C 80.535156 48.386719 86.253906 49.445312 86.253906 49.445312 C 86.253906 49.445312 87.246094 49.445312 86.253906 47.507812 L 90.640625 37.03125 C 90.929688 37.320312 91.261719 37.554688 91.628906 37.730469 C 92 37.910156 92.386719 38.019531 92.792969 38.070312 C 93.199219 38.117188 93.601562 38.097656 94.003906 38.011719 C 94.402344 37.921875 94.777344 37.773438 95.128906 37.5625 C 95.128906 37.5625 98.207031 38.550781 99.355469 37.210938 L 99.355469 36.417969 C 99.355469 36.417969 94.605469 38.890625 94.515625 34.21875 C 94.648438 33.90625 94.828125 33.617188 95.050781 33.355469 C 95.273438 33.09375 95.53125 32.875 95.820312 32.691406 C 96.113281 32.511719 96.421875 32.378906 96.757812 32.292969 C 97.089844 32.207031 97.425781 32.175781 97.769531 32.195312 C 100.324219 32.195312 101.292969 32.105469 101.292969 32.105469 L 101.292969 29.554688 L 102.613281 29.554688 L 102.613281 28.070312 L 117.046875 28.339844 L 117.746094 29.039062 L 117.746094 32.738281 L 118.976562 33.503906 L 140.457031 33.503906 L 141.15625 34.585938 L 142.214844 34.058594 L 142.214844 30.449219 L 143.886719 30.1875 C 143.886719 30.1875 144.324219 32.558594 146.175781 32.296875 C 148.023438 32.035156 148.644531 30.625 148.195312 29.039062 L 151.191406 28.6875 C 151.191406 28.6875 150.589844 30.898438 151.996094 30.898438 C 153.40625 30.898438 155.164062 30.988281 155.164062 30.988281 L 155.164062 31.867188 C 155.164062 31.867188 153.316406 32.570312 154.375 35.296875 L 148.300781 52.988281 L 147.597656 52.988281 L 147.597656 54.308594 L 146.1875 54.308594 L 146.277344 55.367188 L 151.558594 55.367188 L 151.558594 54.378906 L 149.707031 54.378906 L 155.144531 38.273438 L 162.011719 65.816406 L 160.953125 65.816406 L 161.394531 67.492188 L 162.011719 67.492188 C 162.011719 67.492188 163.59375 71.101562 163.332031 71.011719 C 162.890625 70.964844 162.453125 70.964844 162.011719 71.011719 L 162.011719 72.632812 L 168.609375 72.632812 L 168.609375 71.011719 L 165.882812 71.101562 L 157.453125 35.625 L 158.070312 34.921875 L 158.511719 33.933594 C 158.511719 33.933594 159.035156 31.460938 158.773438 31.460938 C 158.511719 31.460938 157.984375 30.582031 157.984375 30.582031 L 158.15625 29.59375 L 160.183594 27.832031 L 164.320312 27.917969 L 166.519531 27.832031 L 166.960938 28.824219 L 168.628906 28.90625 C 168.628906 28.90625 168.980469 24.683594 167.929688 24.507812 L 166.941406 24.683594 L 166.671875 25.566406 L 164.203125 25.652344 L 164.375 23.097656 L 187.785156 23.097656 C 187.785156 23.097656 188.109375 23.804688 188.460938 23.480469 L 188.8125 23.15625 C 188.8125 23.15625 189.078125 23.777344 189.632812 23.714844 C 189.785156 23.71875 189.90625 23.660156 190.007812 23.550781 C 190.105469 23.4375 190.148438 23.308594 190.128906 23.15625 C 190.128906 23.15625 190.394531 23.890625 190.890625 23.714844 C 191.382812 23.542969 191.214844 23.1875 191.214844 23.1875 L 191.625 23.683594 L 195.144531 23.621094 L 195.144531 20.546875 Z M 86.148438 14.195312 C 85.972656 14.195312 85.808594 14.164062 85.648438 14.097656 C 85.488281 14.035156 85.347656 13.941406 85.226562 13.816406 C 85.101562 13.695312 85.007812 13.554688 84.941406 13.398438 C 84.875 13.238281 84.84375 13.070312 84.84375 12.898438 C 84.839844 12.726562 84.875 12.5625 84.941406 12.402344 C 85.003906 12.242188 85.097656 12.101562 85.222656 11.980469 C 85.34375 11.855469 85.484375 11.761719 85.640625 11.695312 C 85.800781 11.628906 85.96875 11.597656 86.140625 11.597656 C 86.3125 11.597656 86.480469 11.628906 86.636719 11.695312 C 86.796875 11.761719 86.9375 11.855469 87.0625 11.976562 C 87.183594 12.097656 87.277344 12.238281 87.34375 12.398438 C 87.410156 12.558594 87.441406 12.722656 87.441406 12.894531 C 87.441406 13.066406 87.410156 13.234375 87.34375 13.390625 C 87.277344 13.550781 87.183594 13.691406 87.0625 13.8125 C 86.941406 13.933594 86.800781 14.03125 86.644531 14.097656 C 86.484375 14.160156 86.320312 14.195312 86.148438 14.195312 Z M 90.742188 35.625 L 91.363281 32.984375 L 91.363281 32.105469 L 92.546875 32.105469 C 92.332031 36.152344 94.351562 36.949219 94.351562 36.949219 C 91.890625 38.269531 90.742188 35.625 90.742188 35.625 Z M 90.742188 35.625 " fill-opacity="1" fill-rule="nonzero"/></g></svg>