<svg xmlns="http://www.w3.org/2000/svg" xmlns:xlink="http://www.w3.org/1999/xlink" width="240" zoomAndPan="magnify" viewBox="0 0 180 179.999997" height="240" preserveAspectRatio="xMidYMid meet" version="1.0"><defs><clipPath id="4352b6f165"><path d="M 26.183594 26.324219 L 153.816406 26.324219 L 153.816406 153.675781 L 26.183594 153.675781 Z M 26.183594 26.324219 " clip-rule="nonzero"/></clipPath><clipPath id="c0a53a99df"><path d="M 60 82 L 150.925781 82 L 150.925781 96 L 60 96 Z M 60 82 " clip-rule="nonzero"/></clipPath><clipPath id="08beb11b80"><path d="M 0 72.710938 L 55 72.710938 L 55 106.460938 L 0 106.460938 Z M 0 72.710938 " clip-rule="nonzero"/></clipPath><clipPath id="086e3ae8a1"><path d="M 111 109 L 150.976562 109 L 150.976562 150.976562 L 111 150.976562 Z M 111 109 " clip-rule="nonzero"/></clipPath><clipPath id="4b92f8b7f7"><path d="M 113 28 L 150.976562 28 L 150.976562 70 L 113 70 Z M 113 28 " clip-rule="nonzero"/></clipPath><clipPath id="ca749c7696"><path d="M 28 109 L 68 109 L 68 150.976562 L 28 150.976562 Z M 28 109 " clip-rule="nonzero"/></clipPath></defs><path fill="#a9bab4" d="M 18 18 L 162 18 L 162 162 L 18 162 Z M 18 18 " fill-opacity="1" fill-rule="nonzero"/><g clip-path="url(#4352b6f165)"><path fill="#50665a" d="M 26.183594 26.324219 L 154.027344 26.324219 L 154.027344 153.675781 L 26.183594 153.675781 Z M 26.183594 26.324219 " fill-opacity="1" fill-rule="nonzero"/></g><path fill="#ffffff" d="M 58.480469 82.644531 L 56.933594 82.644531 C 56.632812 82.644531 56.390625 82.886719 56.390625 83.1875 L 56.390625 95.015625 C 56.390625 95.316406 56.632812 95.558594 56.933594 95.558594 L 58.480469 95.558594 C 58.78125 95.558594 59.027344 95.316406 59.027344 95.015625 L 59.027344 83.1875 C 59.027344 82.886719 58.78125 82.644531 58.480469 82.644531 " fill-opacity="1" fill-rule="nonzero"/><g clip-path="url(#c0a53a99df)"><path fill="#ffffff" d="M 61.476562 94.242188 L 61.476562 85.753906 L 63.542969 91.414062 L 108.199219 91.414062 L 108.199219 92.90625 C 108.199219 93.644531 107.597656 94.242188 106.859375 94.242188 Z M 148.683594 89.101562 C 148.683594 89.101562 145.183594 91.125 140.535156 92.300781 C 138.550781 92.800781 136.511719 93.046875 134.464844 93.046875 L 110.929688 93.046875 C 110.625 93.046875 110.375 92.796875 110.375 92.492188 L 110.375 86.734375 L 111.269531 91.304688 C 111.320312 91.558594 111.539062 91.738281 111.800781 91.738281 L 136.277344 91.738281 C 136.277344 91.738281 142.152344 91.6875 148.683594 89.101562 Z M 110.1875 94.324219 L 130.832031 94.324219 C 144.328125 94.324219 150.710938 89.101562 150.710938 89.101562 C 150.710938 89.101562 144.328125 83.878906 130.832031 83.878906 L 110.1875 83.878906 C 109.804688 83.144531 109.039062 82.644531 108.15625 82.644531 L 60.628906 82.644531 C 60.40625 82.644531 60.222656 82.824219 60.222656 83.050781 L 60.222656 95.152344 C 60.222656 95.378906 60.40625 95.558594 60.628906 95.558594 L 108.15625 95.558594 C 109.039062 95.558594 109.804688 95.058594 110.1875 94.324219 " fill-opacity="1" fill-rule="nonzero"/></g><g clip-path="url(#08beb11b80)"><path fill="#ffffff" d="M 54.328125 95.558594 L 42.457031 106.226562 L 47.351562 95.015625 L 38.320312 97.519531 L 43.980469 92.980469 L 5.78125 95.808594 L 37.339844 88.679688 L -0.3125 81.957031 L 37.992188 83.585938 L 31.246094 72.703125 L 45.285156 83.121094 L 43.980469 74.882812 L 54.328125 82.644531 L 47.640625 79.972656 L 49.09375 86.308594 L 42.210938 86.351562 L 45.503906 88.679688 L 42.933594 90.25 L 48.113281 91.3125 L 47.578125 92.371094 L 50.292969 92.925781 L 49.683594 95.808594 L 54.328125 95.558594 " fill-opacity="1" fill-rule="nonzero"/></g><g clip-path="url(#086e3ae8a1)"><path fill="#000000" d="M 149.527344 133.320312 C 137.234375 128.804688 125.941406 115.398438 121.230469 109.222656 C 120.515625 110.367188 119.746094 111.46875 118.914062 112.53125 C 122.8125 117.546875 129.9375 125.824219 138.484375 131.722656 L 130.074219 140.792969 L 123.550781 134.710938 L 123.152344 126.085938 C 123.125 125.566406 122.921875 125.128906 122.542969 124.769531 L 114.503906 117.28125 C 113.542969 118.148438 112.542969 118.960938 111.5 119.722656 L 119.359375 127.042969 L 119.757812 135.667969 C 119.78125 136.191406 119.984375 136.628906 120.363281 136.984375 L 134.730469 150.367188 C 135.097656 150.707031 135.535156 150.878906 136.039062 150.878906 C 136.0625 150.878906 136.085938 150.878906 136.105469 150.878906 C 136.636719 150.859375 137.082031 150.65625 137.441406 150.265625 L 150.273438 136.421875 C 150.378906 136.304688 150.472656 136.179688 150.546875 136.039062 C 150.625 135.902344 150.679688 135.757812 150.722656 135.605469 C 150.761719 135.453125 150.78125 135.296875 150.785156 135.136719 C 150.785156 134.980469 150.765625 134.824219 150.730469 134.671875 C 150.695312 134.519531 150.640625 134.371094 150.566406 134.230469 C 150.492188 134.09375 150.402344 133.964844 150.300781 133.84375 C 150.195312 133.726562 150.078125 133.625 149.945312 133.535156 C 149.816406 133.445312 149.675781 133.375 149.527344 133.320312 Z M 149.527344 133.320312 " fill-opacity="1" fill-rule="nonzero"/></g><path fill="#000000" d="M 93.308594 89.570312 C 93.308594 90.078125 93.210938 90.566406 93.015625 91.039062 C 92.820312 91.507812 92.542969 91.921875 92.183594 92.28125 C 91.824219 92.640625 91.410156 92.917969 90.941406 93.109375 C 90.472656 93.304688 89.984375 93.402344 89.476562 93.402344 C 88.96875 93.402344 88.476562 93.304688 88.007812 93.109375 C 87.539062 92.917969 87.125 92.640625 86.765625 92.28125 C 86.40625 91.921875 86.128906 91.507812 85.933594 91.039062 C 85.742188 90.566406 85.644531 90.078125 85.644531 89.570312 C 85.644531 89.0625 85.742188 88.574219 85.933594 88.105469 C 86.128906 87.636719 86.40625 87.21875 86.765625 86.859375 C 87.125 86.503906 87.539062 86.226562 88.007812 86.03125 C 88.476562 85.835938 88.96875 85.738281 89.476562 85.738281 C 89.984375 85.738281 90.472656 85.835938 90.941406 86.03125 C 91.410156 86.226562 91.824219 86.503906 92.183594 86.859375 C 92.542969 87.21875 92.820312 87.636719 93.015625 88.105469 C 93.210938 88.574219 93.308594 89.0625 93.308594 89.570312 Z M 93.308594 89.570312 " fill-opacity="1" fill-rule="nonzero"/><path fill="#000000" d="M 89.476562 107.835938 C 90.074219 107.835938 90.667969 107.804688 91.265625 107.746094 C 91.859375 107.6875 92.453125 107.601562 93.039062 107.484375 C 93.625 107.367188 94.203125 107.222656 94.777344 107.046875 C 95.347656 106.875 95.910156 106.671875 96.464844 106.445312 C 97.015625 106.214844 97.558594 105.960938 98.085938 105.679688 C 98.613281 105.394531 99.125 105.089844 99.621094 104.757812 C 100.117188 104.425781 100.597656 104.066406 101.0625 103.6875 C 101.523438 103.308594 101.964844 102.90625 102.390625 102.484375 C 102.8125 102.0625 103.214844 101.621094 103.59375 101.15625 C 103.972656 100.695312 104.328125 100.214844 104.660156 99.71875 C 104.992188 99.21875 105.300781 98.707031 105.582031 98.179688 C 105.863281 97.652344 106.121094 97.113281 106.347656 96.558594 C 106.578125 96.007812 106.777344 95.445312 106.953125 94.871094 C 107.125 94.300781 107.269531 93.71875 107.386719 93.132812 C 107.503906 92.546875 107.59375 91.957031 107.652344 91.359375 C 107.710938 90.765625 107.738281 90.167969 107.738281 89.570312 C 107.738281 88.972656 107.710938 88.375 107.652344 87.78125 C 107.59375 87.183594 107.503906 86.59375 107.386719 86.007812 C 107.269531 85.421875 107.125 84.839844 106.953125 84.269531 C 106.777344 83.695312 106.578125 83.132812 106.347656 82.582031 C 106.121094 82.027344 105.863281 81.488281 105.582031 80.960938 C 105.300781 80.433594 104.992188 79.921875 104.660156 79.425781 C 104.328125 78.925781 103.972656 78.445312 103.59375 77.984375 C 103.214844 77.523438 102.8125 77.078125 102.390625 76.65625 C 101.964844 76.234375 101.523438 75.832031 101.0625 75.453125 C 100.597656 75.074219 100.117188 74.71875 99.621094 74.386719 C 99.125 74.054688 98.613281 73.746094 98.085938 73.464844 C 97.558594 73.183594 97.015625 72.925781 96.464844 72.699219 C 95.910156 72.46875 95.347656 72.265625 94.777344 72.09375 C 94.203125 71.921875 93.625 71.773438 93.039062 71.65625 C 92.453125 71.542969 91.859375 71.453125 91.265625 71.394531 C 90.667969 71.335938 90.074219 71.308594 89.476562 71.308594 C 88.875 71.308594 88.28125 71.335938 87.683594 71.394531 C 87.089844 71.453125 86.5 71.542969 85.910156 71.65625 C 85.324219 71.773438 84.746094 71.921875 84.171875 72.09375 C 83.601562 72.265625 83.039062 72.46875 82.484375 72.699219 C 81.933594 72.925781 81.394531 73.183594 80.867188 73.464844 C 80.339844 73.746094 79.824219 74.054688 79.328125 74.386719 C 78.832031 74.71875 78.351562 75.074219 77.890625 75.453125 C 77.425781 75.832031 76.984375 76.234375 76.5625 76.65625 C 76.136719 77.078125 75.738281 77.523438 75.355469 77.984375 C 74.976562 78.445312 74.621094 78.925781 74.289062 79.425781 C 73.957031 79.921875 73.648438 80.433594 73.367188 80.960938 C 73.085938 81.488281 72.832031 82.027344 72.601562 82.582031 C 72.371094 83.132812 72.171875 83.695312 71.996094 84.269531 C 71.824219 84.839844 71.679688 85.421875 71.5625 86.007812 C 71.445312 86.59375 71.359375 87.183594 71.300781 87.78125 C 71.242188 88.375 71.210938 88.972656 71.210938 89.570312 C 71.210938 90.167969 71.242188 90.765625 71.300781 91.359375 C 71.359375 91.957031 71.449219 92.546875 71.566406 93.132812 C 71.683594 93.71875 71.828125 94.296875 72.003906 94.871094 C 72.175781 95.441406 72.378906 96.003906 72.605469 96.558594 C 72.835938 97.109375 73.09375 97.648438 73.375 98.175781 C 73.65625 98.703125 73.964844 99.214844 74.296875 99.710938 C 74.628906 100.210938 74.984375 100.6875 75.363281 101.152344 C 75.742188 101.613281 76.144531 102.054688 76.566406 102.480469 C 76.988281 102.902344 77.433594 103.304688 77.894531 103.683594 C 78.355469 104.0625 78.835938 104.417969 79.332031 104.75 C 79.832031 105.082031 80.34375 105.390625 80.871094 105.671875 C 81.398438 105.953125 81.9375 106.210938 82.488281 106.4375 C 83.042969 106.667969 83.605469 106.871094 84.175781 107.042969 C 84.746094 107.21875 85.328125 107.363281 85.914062 107.480469 C 86.5 107.597656 87.089844 107.683594 87.683594 107.746094 C 88.28125 107.804688 88.878906 107.832031 89.476562 107.835938 Z M 89.476562 81.90625 C 89.976562 81.90625 90.476562 81.957031 90.96875 82.054688 C 91.464844 82.152344 91.941406 82.296875 92.40625 82.492188 C 92.871094 82.683594 93.3125 82.917969 93.734375 83.199219 C 94.152344 83.476562 94.539062 83.796875 94.894531 84.152344 C 95.25 84.507812 95.566406 84.894531 95.847656 85.3125 C 96.125 85.730469 96.363281 86.171875 96.554688 86.636719 C 96.746094 87.101562 96.894531 87.582031 96.992188 88.074219 C 97.089844 88.570312 97.136719 89.066406 97.136719 89.570312 C 97.136719 90.074219 97.089844 90.574219 96.992188 91.066406 C 96.894531 91.558594 96.746094 92.039062 96.554688 92.503906 C 96.363281 92.96875 96.125 93.410156 95.847656 93.828125 C 95.566406 94.246094 95.25 94.632812 94.894531 94.988281 C 94.539062 95.34375 94.152344 95.664062 93.734375 95.941406 C 93.3125 96.222656 92.871094 96.457031 92.40625 96.652344 C 91.941406 96.84375 91.464844 96.988281 90.96875 97.085938 C 90.476562 97.183594 89.976562 97.234375 89.476562 97.234375 C 88.972656 97.234375 88.472656 97.183594 87.980469 97.085938 C 87.488281 96.988281 87.007812 96.84375 86.542969 96.652344 C 86.078125 96.457031 85.636719 96.222656 85.21875 95.941406 C 84.800781 95.664062 84.410156 95.34375 84.054688 94.988281 C 83.699219 94.632812 83.382812 94.246094 83.101562 93.828125 C 82.824219 93.410156 82.585938 92.96875 82.394531 92.503906 C 82.203125 92.039062 82.058594 91.558594 81.957031 91.066406 C 81.859375 90.574219 81.8125 90.074219 81.8125 89.570312 C 81.8125 89.066406 81.863281 88.570312 81.960938 88.078125 C 82.058594 87.582031 82.203125 87.105469 82.398438 86.640625 C 82.589844 86.175781 82.824219 85.734375 83.105469 85.316406 C 83.386719 84.898438 83.703125 84.511719 84.058594 84.15625 C 84.414062 83.796875 84.800781 83.480469 85.21875 83.203125 C 85.636719 82.921875 86.078125 82.6875 86.542969 82.492188 C 87.007812 82.300781 87.488281 82.15625 87.980469 82.054688 C 88.472656 81.957031 88.972656 81.90625 89.476562 81.90625 Z M 89.476562 81.90625 " fill-opacity="1" fill-rule="nonzero"/><path fill="#000000" d="M 91.390625 65.621094 L 91.390625 50.296875 C 91.390625 50.042969 91.34375 49.796875 91.246094 49.5625 C 91.148438 49.328125 91.007812 49.121094 90.828125 48.941406 C 90.648438 48.761719 90.441406 48.621094 90.207031 48.523438 C 89.972656 48.429688 89.730469 48.378906 89.476562 48.378906 C 89.222656 48.378906 88.976562 48.429688 88.742188 48.523438 C 88.507812 48.621094 88.300781 48.761719 88.121094 48.941406 C 87.941406 49.121094 87.800781 49.328125 87.703125 49.5625 C 87.609375 49.796875 87.558594 50.042969 87.558594 50.296875 L 87.558594 65.621094 C 87.558594 65.875 87.609375 66.121094 87.703125 66.355469 C 87.800781 66.589844 87.941406 66.796875 88.121094 66.976562 C 88.300781 67.15625 88.507812 67.296875 88.742188 67.390625 C 88.976562 67.488281 89.222656 67.539062 89.476562 67.539062 C 89.730469 67.539062 89.972656 67.488281 90.207031 67.390625 C 90.441406 67.296875 90.648438 67.15625 90.828125 66.976562 C 91.007812 66.796875 91.148438 66.589844 91.246094 66.355469 C 91.34375 66.121094 91.390625 65.875 91.390625 65.621094 Z M 91.390625 65.621094 " fill-opacity="1" fill-rule="nonzero"/><path fill="#000000" d="M 89.476562 111.601562 C 89.222656 111.601562 88.976562 111.652344 88.742188 111.75 C 88.507812 111.847656 88.300781 111.984375 88.121094 112.164062 C 87.941406 112.34375 87.800781 112.550781 87.703125 112.785156 C 87.609375 113.019531 87.558594 113.265625 87.558594 113.519531 L 87.558594 128.847656 C 87.558594 129.101562 87.609375 129.34375 87.703125 129.578125 C 87.800781 129.8125 87.941406 130.023438 88.121094 130.203125 C 88.300781 130.382812 88.507812 130.519531 88.742188 130.617188 C 88.976562 130.714844 89.222656 130.761719 89.476562 130.761719 C 89.730469 130.761719 89.972656 130.714844 90.207031 130.617188 C 90.441406 130.519531 90.648438 130.382812 90.828125 130.203125 C 91.007812 130.023438 91.148438 129.8125 91.246094 129.578125 C 91.34375 129.34375 91.390625 129.101562 91.390625 128.847656 L 91.390625 113.519531 C 91.390625 113.265625 91.34375 113.019531 91.246094 112.785156 C 91.148438 112.550781 91.007812 112.34375 90.828125 112.164062 C 90.648438 111.984375 90.441406 111.847656 90.207031 111.75 C 89.972656 111.652344 89.730469 111.601562 89.476562 111.601562 Z M 89.476562 111.601562 " fill-opacity="1" fill-rule="nonzero"/><path fill="#000000" d="M 118.605469 83.824219 L 122.503906 83.824219 C 122.207031 82.132812 121.78125 80.476562 121.230469 78.851562 C 120.679688 77.226562 120.007812 75.65625 119.21875 74.132812 C 118.425781 72.609375 117.523438 71.160156 116.507812 69.773438 C 115.492188 68.390625 114.378906 67.09375 113.167969 65.878906 C 111.953125 64.667969 110.65625 63.554688 109.273438 62.539062 C 107.886719 61.527344 106.433594 60.621094 104.914062 59.832031 C 103.390625 59.039062 101.820312 58.367188 100.195312 57.816406 C 98.570312 57.265625 96.914062 56.84375 95.222656 56.546875 L 95.222656 60.4375 C 96.65625 60.722656 98.066406 61.113281 99.441406 61.605469 C 100.820312 62.101562 102.15625 62.691406 103.445312 63.382812 C 104.734375 64.074219 105.96875 64.855469 107.144531 65.726562 C 108.320312 66.597656 109.425781 67.550781 110.460938 68.585938 C 111.492188 69.621094 112.449219 70.726562 113.320312 71.902344 C 114.191406 73.078125 114.972656 74.308594 115.664062 75.601562 C 116.351562 76.890625 116.945312 78.226562 117.4375 79.601562 C 117.929688 80.980469 118.320312 82.386719 118.605469 83.824219 Z M 118.605469 83.824219 " fill-opacity="1" fill-rule="nonzero"/><path fill="#000000" d="M 113.421875 91.488281 L 128.75 91.488281 C 129.003906 91.488281 129.25 91.4375 129.484375 91.339844 C 129.71875 91.242188 129.925781 91.105469 130.105469 90.925781 C 130.285156 90.746094 130.421875 90.539062 130.519531 90.304688 C 130.617188 90.070312 130.667969 89.824219 130.667969 89.570312 C 130.667969 89.316406 130.617188 89.074219 130.519531 88.835938 C 130.421875 88.601562 130.285156 88.394531 130.105469 88.214844 C 129.925781 88.035156 129.71875 87.898438 129.484375 87.800781 C 129.25 87.703125 129.003906 87.65625 128.75 87.65625 L 113.421875 87.65625 C 113.167969 87.65625 112.925781 87.703125 112.691406 87.800781 C 112.457031 87.898438 112.25 88.035156 112.070312 88.214844 C 111.890625 88.394531 111.75 88.601562 111.652344 88.835938 C 111.554688 89.074219 111.507812 89.316406 111.507812 89.570312 C 111.507812 89.824219 111.554688 90.070312 111.652344 90.304688 C 111.75 90.539062 111.890625 90.746094 112.070312 90.925781 C 112.25 91.105469 112.457031 91.242188 112.691406 91.339844 C 112.925781 91.4375 113.167969 91.488281 113.421875 91.488281 Z M 113.421875 91.488281 " fill-opacity="1" fill-rule="nonzero"/><path fill="#000000" d="M 83.726562 60.4375 L 83.726562 56.546875 C 82.039062 56.84375 80.378906 57.265625 78.757812 57.816406 C 77.132812 58.367188 75.558594 59.039062 74.035156 59.832031 C 72.515625 60.621094 71.0625 61.527344 69.679688 62.539062 C 68.292969 63.554688 66.996094 64.667969 65.78125 65.878906 C 64.570312 67.09375 63.457031 68.390625 62.441406 69.773438 C 61.425781 71.160156 60.523438 72.609375 59.734375 74.132812 C 58.941406 75.65625 58.269531 77.226562 57.71875 78.851562 C 57.167969 80.476562 56.742188 82.132812 56.445312 83.824219 L 60.34375 83.824219 C 60.628906 82.386719 61.019531 80.980469 61.511719 79.601562 C 62.007812 78.226562 62.597656 76.890625 63.289062 75.601562 C 63.976562 74.308594 64.757812 73.078125 65.628906 71.902344 C 66.503906 70.726562 67.457031 69.621094 68.492188 68.585938 C 69.527344 67.550781 70.628906 66.597656 71.804688 65.726562 C 72.980469 64.855469 74.214844 64.074219 75.503906 63.382812 C 76.796875 62.691406 78.128906 62.101562 79.507812 61.605469 C 80.886719 61.113281 82.292969 60.722656 83.726562 60.4375 Z M 83.726562 60.4375 " fill-opacity="1" fill-rule="nonzero"/><path fill="#000000" d="M 50.199219 87.65625 C 49.945312 87.65625 49.699219 87.703125 49.464844 87.800781 C 49.230469 87.898438 49.023438 88.035156 48.84375 88.214844 C 48.664062 88.394531 48.527344 88.601562 48.429688 88.835938 C 48.332031 89.074219 48.285156 89.316406 48.285156 89.570312 C 48.285156 89.824219 48.332031 90.070312 48.429688 90.304688 C 48.527344 90.539062 48.664062 90.746094 48.84375 90.925781 C 49.023438 91.105469 49.230469 91.242188 49.464844 91.339844 C 49.699219 91.4375 49.945312 91.488281 50.199219 91.488281 L 65.527344 91.488281 C 65.78125 91.488281 66.023438 91.4375 66.257812 91.339844 C 66.496094 91.242188 66.703125 91.105469 66.882812 90.925781 C 67.0625 90.746094 67.199219 90.539062 67.296875 90.304688 C 67.394531 90.070312 67.441406 89.824219 67.441406 89.570312 C 67.441406 89.316406 67.394531 89.074219 67.296875 88.835938 C 67.199219 88.601562 67.0625 88.394531 66.882812 88.214844 C 66.703125 88.035156 66.496094 87.898438 66.257812 87.800781 C 66.023438 87.703125 65.78125 87.65625 65.527344 87.65625 Z M 50.199219 87.65625 " fill-opacity="1" fill-rule="nonzero"/><g clip-path="url(#4b92f8b7f7)"><path fill="#000000" d="M 150.269531 28.871094 C 150.097656 28.6875 149.894531 28.539062 149.664062 28.433594 C 149.433594 28.328125 149.1875 28.273438 148.933594 28.261719 C 148.679688 28.253906 148.4375 28.292969 148.199219 28.382812 C 147.960938 28.472656 147.746094 28.601562 147.5625 28.777344 L 142.664062 33.335938 L 139.148438 29.542969 C 138.976562 29.355469 138.773438 29.210938 138.542969 29.105469 C 138.3125 29 138.070312 28.941406 137.816406 28.933594 C 137.5625 28.921875 137.316406 28.960938 137.082031 29.050781 C 136.84375 29.140625 136.628906 29.269531 136.445312 29.441406 C 136.257812 29.613281 136.113281 29.816406 136.003906 30.046875 C 135.898438 30.277344 135.839844 30.519531 135.832031 30.773438 C 135.820312 31.027344 135.859375 31.273438 135.949219 31.511719 C 136.035156 31.75 136.167969 31.960938 136.339844 32.148438 L 139.863281 35.949219 L 113.230469 60.757812 C 114.21875 61.574219 115.160156 62.441406 116.0625 63.355469 L 127.453125 52.746094 L 130.359375 55.882812 L 118.882812 66.570312 C 119.679688 67.585938 120.421875 68.640625 121.109375 69.734375 L 136.964844 54.96875 C 137.148438 54.792969 137.292969 54.589844 137.398438 54.359375 C 137.503906 54.128906 137.5625 53.886719 137.570312 53.632812 C 137.578125 53.378906 137.539062 53.132812 137.449219 52.894531 C 137.363281 52.660156 137.230469 52.445312 137.058594 52.261719 C 136.882812 52.074219 136.683594 51.929688 136.453125 51.824219 C 136.222656 51.71875 135.980469 51.660156 135.726562 51.652344 C 135.472656 51.640625 135.226562 51.683594 134.988281 51.769531 C 134.75 51.859375 134.539062 51.988281 134.351562 52.164062 L 133.160156 53.269531 L 130.257812 50.132812 L 150.171875 31.582031 C 150.359375 31.40625 150.503906 31.207031 150.609375 30.972656 C 150.714844 30.742188 150.773438 30.5 150.78125 30.246094 C 150.792969 29.992188 150.75 29.746094 150.664062 29.507812 C 150.574219 29.269531 150.441406 29.058594 150.269531 28.871094 Z M 150.269531 28.871094 " fill-opacity="1" fill-rule="nonzero"/></g><path fill="#000000" d="M 28.777344 31.582031 L 48.695312 50.132812 L 45.789062 53.269531 L 44.597656 52.164062 C 44.414062 51.988281 44.199219 51.859375 43.960938 51.769531 C 43.722656 51.679688 43.476562 51.640625 43.222656 51.648438 C 42.96875 51.660156 42.726562 51.714844 42.496094 51.820312 C 42.265625 51.925781 42.0625 52.074219 41.890625 52.257812 C 41.71875 52.445312 41.585938 52.65625 41.496094 52.894531 C 41.410156 53.132812 41.367188 53.378906 41.378906 53.632812 C 41.386719 53.886719 41.445312 54.128906 41.550781 54.359375 C 41.65625 54.589844 41.800781 54.792969 41.988281 54.96875 L 57.839844 69.734375 C 58.527344 68.640625 59.269531 67.585938 60.066406 66.570312 L 48.59375 55.882812 L 51.5 52.746094 L 62.886719 63.355469 C 63.789062 62.441406 64.730469 61.574219 65.71875 60.757812 L 39.089844 35.949219 L 42.609375 32.148438 C 42.785156 31.960938 42.914062 31.75 43.003906 31.511719 C 43.09375 31.273438 43.132812 31.027344 43.121094 30.773438 C 43.113281 30.519531 43.054688 30.273438 42.949219 30.042969 C 42.84375 29.8125 42.695312 29.609375 42.511719 29.4375 C 42.324219 29.265625 42.109375 29.132812 41.871094 29.046875 C 41.632812 28.957031 41.386719 28.917969 41.132812 28.929688 C 40.878906 28.9375 40.636719 28.996094 40.40625 29.101562 C 40.175781 29.210938 39.972656 29.355469 39.800781 29.542969 L 36.285156 33.335938 L 31.386719 28.777344 C 31.203125 28.601562 30.992188 28.472656 30.753906 28.382812 C 30.515625 28.292969 30.269531 28.253906 30.015625 28.261719 C 29.761719 28.273438 29.519531 28.328125 29.285156 28.433594 C 29.054688 28.539062 28.851562 28.6875 28.679688 28.871094 C 28.507812 29.058594 28.375 29.269531 28.289062 29.507812 C 28.199219 29.746094 28.160156 29.992188 28.167969 30.246094 C 28.175781 30.5 28.234375 30.742188 28.339844 30.972656 C 28.445312 31.207031 28.589844 31.40625 28.777344 31.582031 Z M 28.777344 31.582031 " fill-opacity="1" fill-rule="nonzero"/><g clip-path="url(#ca749c7696)"><path fill="#000000" d="M 56.40625 124.773438 C 56.027344 125.128906 55.824219 125.566406 55.800781 126.085938 L 55.402344 134.710938 L 48.875 140.792969 L 40.46875 131.722656 C 49.015625 125.824219 56.140625 117.546875 60.035156 112.53125 C 59.203125 111.46875 58.433594 110.367188 57.722656 109.226562 C 53.011719 115.398438 41.726562 128.800781 29.421875 133.320312 C 29.273438 133.375 29.132812 133.445312 29.003906 133.535156 C 28.875 133.625 28.757812 133.726562 28.652344 133.84375 C 28.546875 133.964844 28.457031 134.09375 28.382812 134.230469 C 28.3125 134.371094 28.257812 134.519531 28.21875 134.671875 C 28.183594 134.824219 28.164062 134.980469 28.167969 135.136719 C 28.167969 135.296875 28.1875 135.453125 28.230469 135.605469 C 28.269531 135.757812 28.328125 135.902344 28.402344 136.039062 C 28.480469 136.179688 28.570312 136.304688 28.675781 136.421875 L 41.507812 150.265625 C 41.867188 150.65625 42.3125 150.859375 42.84375 150.878906 C 42.867188 150.878906 42.890625 150.878906 42.914062 150.878906 C 43.414062 150.878906 43.851562 150.707031 44.21875 150.367188 L 58.585938 136.984375 C 58.964844 136.628906 59.167969 136.191406 59.191406 135.667969 L 59.589844 127.042969 L 67.449219 119.722656 C 66.40625 118.960938 65.40625 118.148438 64.445312 117.28125 Z M 56.40625 124.773438 " fill-opacity="1" fill-rule="nonzero"/></g><path fill="#000000" d="M 60.34375 95.320312 L 56.449219 95.320312 C 56.746094 97.007812 57.171875 98.664062 57.722656 100.289062 C 58.273438 101.914062 58.945312 103.488281 59.734375 105.007812 C 60.527344 106.53125 61.429688 107.984375 62.445312 109.367188 C 63.457031 110.75 64.570312 112.050781 65.785156 113.261719 C 66.996094 114.476562 68.296875 115.589844 69.679688 116.605469 C 71.0625 117.617188 72.515625 118.519531 74.035156 119.3125 C 75.558594 120.105469 77.132812 120.777344 78.757812 121.328125 C 80.378906 121.878906 82.039062 122.304688 83.726562 122.601562 L 83.726562 118.703125 C 82.292969 118.414062 80.886719 118.027344 79.507812 117.53125 C 78.128906 117.039062 76.796875 116.449219 75.503906 115.757812 C 74.214844 115.066406 72.980469 114.285156 71.804688 113.414062 C 70.628906 112.542969 69.523438 111.589844 68.488281 110.554688 C 67.457031 109.519531 66.5 108.414062 65.628906 107.238281 C 64.757812 106.0625 63.976562 104.832031 63.285156 103.539062 C 62.597656 102.25 62.003906 100.914062 61.511719 99.539062 C 61.019531 98.160156 60.628906 96.753906 60.34375 95.320312 Z M 60.34375 95.320312 " fill-opacity="1" fill-rule="nonzero"/><path fill="#000000" d="M 122.5 95.320312 L 118.609375 95.320312 C 118.320312 96.753906 117.933594 98.160156 117.4375 99.539062 C 116.945312 100.914062 116.351562 102.25 115.664062 103.539062 C 114.972656 104.832031 114.191406 106.0625 113.320312 107.238281 C 112.449219 108.414062 111.496094 109.519531 110.460938 110.554688 C 109.425781 111.589844 108.320312 112.542969 107.144531 113.414062 C 105.96875 114.285156 104.734375 115.066406 103.445312 115.757812 C 102.15625 116.449219 100.820312 117.039062 99.441406 117.53125 C 98.066406 118.027344 96.65625 118.414062 95.222656 118.703125 L 95.222656 122.601562 C 96.914062 122.304688 98.570312 121.878906 100.195312 121.328125 C 101.816406 120.777344 103.390625 120.105469 104.914062 119.3125 C 106.433594 118.519531 107.886719 117.617188 109.269531 116.605469 C 110.65625 115.589844 111.953125 114.476562 113.164062 113.261719 C 114.378906 112.050781 115.492188 110.75 116.507812 109.367188 C 117.519531 107.984375 118.421875 106.53125 119.214844 105.007812 C 120.007812 103.488281 120.675781 101.914062 121.226562 100.289062 C 121.777344 98.664062 122.203125 97.007812 122.5 95.320312 Z M 122.5 95.320312 " fill-opacity="1" fill-rule="nonzero"/></svg>