<svg xmlns="http://www.w3.org/2000/svg" xmlns:xlink="http://www.w3.org/1999/xlink" width="240" zoomAndPan="magnify" viewBox="0 0 180 179.999997" height="240" preserveAspectRatio="xMidYMid meet" version="1.0"><defs><clipPath id="aac35f7805"><path d="M 26.183594 26.324219 L 153.816406 26.324219 L 153.816406 153.675781 L 26.183594 153.675781 Z M 26.183594 26.324219 " clip-rule="nonzero"/></clipPath><clipPath id="77ff0f6c91"><path d="M 96.625 15.0625 L 173 15.0625 L 173 165 L 96.625 165 Z M 96.625 15.0625 " clip-rule="nonzero"/></clipPath><clipPath id="29405ac233"><path d="M 96.625 15.0625 L 142 15.0625 L 142 165 L 96.625 165 Z M 96.625 15.0625 " clip-rule="nonzero"/></clipPath><clipPath id="fe9d949111"><path d="M 8.019531 15.0625 L 84.320312 15.0625 L 84.320312 165 L 8.019531 165 Z M 8.019531 15.0625 " clip-rule="nonzero"/></clipPath><clipPath id="fd77896af5"><path d="M 39 15.0625 L 84.320312 15.0625 L 84.320312 165 L 39 165 Z M 39 15.0625 " clip-rule="nonzero"/></clipPath><clipPath id="5cf26ca872"><path d="M 31.175781 55 L 117 55 L 117 111 L 31.175781 111 Z M 31.175781 55 " clip-rule="nonzero"/></clipPath><clipPath id="a46f96f29a"><path d="M 63.382812 111.003906 L 77.632812 111.003906 L 77.632812 145.957031 L 63.382812 145.957031 Z M 63.382812 111.003906 " clip-rule="nonzero"/></clipPath><clipPath id="d637f00eb9"><path d="M 102.425781 34.210938 L 148.925781 34.210938 L 148.925781 61.78125 L 102.425781 61.78125 Z M 102.425781 34.210938 " clip-rule="nonzero"/></clipPath></defs><path fill="#a9bab4" d="M 18 18 L 162 18 L 162 162 L 18 162 Z M 18 18 " fill-opacity="1" fill-rule="nonzero"/><g clip-path="url(#aac35f7805)"><path fill="#50665a" d="M 26.183594 26.324219 L 154.027344 26.324219 L 154.027344 153.675781 L 26.183594 153.675781 Z M 26.183594 26.324219 " fill-opacity="1" fill-rule="nonzero"/></g><g clip-path="url(#77ff0f6c91)"><path fill="#ffffff" d="M 134.453125 15.0625 L 172.910156 15.0625 L 142.410156 66.742188 L 164.953125 66.742188 L 96.65625 164.933594 L 127.160156 88.777344 L 102.625 89.988281 Z M 134.453125 15.0625 " fill-opacity="1" fill-rule="nonzero"/></g><g clip-path="url(#29405ac233)"><path fill="#000000" d="M 134.453125 15.0625 L 141.082031 15.0625 L 102.625 89.988281 Z M 96.65625 164.933594 L 131.800781 88.777344 L 127.160156 88.777344 Z M 96.65625 164.933594 " fill-opacity="1" fill-rule="nonzero"/></g><g clip-path="url(#fe9d949111)"><path fill="#ffffff" d="M 46.492188 15.0625 L 8.03125 15.0625 L 38.535156 66.742188 L 15.992188 66.742188 L 84.289062 164.933594 L 53.785156 88.777344 L 78.320312 89.988281 Z M 46.492188 15.0625 " fill-opacity="1" fill-rule="nonzero"/></g><g clip-path="url(#fd77896af5)"><path fill="#000000" d="M 46.492188 15.0625 L 39.863281 15.0625 L 78.320312 89.988281 Z M 84.289062 164.933594 L 49.144531 88.777344 L 53.785156 88.777344 Z M 84.289062 164.933594 " fill-opacity="1" fill-rule="nonzero"/></g><g clip-path="url(#5cf26ca872)"><path fill="#000000" d="M 90.40625 108.777344 C 90.40625 108.777344 89.457031 109.117188 88.507812 109.152344 C 87.558594 109.183594 85.457031 110.238281 84.710938 110.167969 C 83.964844 110.101562 83.015625 109.488281 83.015625 108.777344 C 83.015625 108.066406 83.457031 107.386719 83.015625 106.980469 C 82.574219 106.574219 82.472656 106.265625 82.472656 106.097656 C 82.472656 105.925781 82.339844 105.453125 82.066406 105.214844 C 81.796875 104.976562 81.523438 105.113281 81.523438 104.535156 C 81.523438 103.960938 81.761719 103.246094 80.984375 102.636719 C 80.203125 102.027344 80.167969 102.027344 80.066406 101.652344 C 79.964844 101.28125 79.964844 101.109375 79.660156 100.804688 C 79.355469 100.5 79.117188 100.363281 78.847656 99.683594 C 78.574219 99.007812 77.761719 98.054688 77.285156 97.582031 C 76.8125 97.105469 76.507812 94.085938 74.40625 92.695312 C 72.304688 91.304688 71.625 89.574219 70.371094 88.964844 C 70.371094 88.964844 67.894531 85.433594 66.03125 84.789062 C 66.03125 84.789062 63.386719 81.941406 61.488281 81.566406 C 61.488281 81.566406 59.519531 79.464844 57.148438 79.328125 C 57.148438 79.328125 54.367188 78.140625 53.144531 78.71875 C 53.144531 78.71875 52.230469 78.140625 50.0625 78.820312 C 50.0625 78.820312 49.144531 78.003906 48.164062 78.105469 C 48.164062 78.105469 45.652344 78.785156 45.007812 81.566406 C 45.007812 81.566406 42.230469 80.957031 39.652344 82.042969 C 39.652344 82.042969 40.769531 82.890625 40.738281 83.027344 C 40.703125 83.164062 37.820312 83.367188 37.175781 82.210938 C 36.53125 81.058594 36.566406 78.851562 35.582031 79.734375 C 34.601562 80.617188 34.023438 81.464844 34.160156 82.042969 C 34.160156 82.042969 32.464844 81.535156 31.886719 79.703125 C 31.3125 77.871094 31.175781 74.679688 32.601562 71.761719 C 34.023438 68.84375 35.074219 67.417969 37.042969 66.742188 C 37.042969 66.742188 38.972656 64.398438 41.246094 63.652344 C 41.246094 63.652344 46.773438 59.71875 49.078125 58.800781 C 51.382812 57.886719 52.808594 57.546875 53.144531 57.308594 C 53.484375 57.070312 56.945312 55.238281 60.539062 56.257812 C 60.539062 56.257812 63.996094 54.59375 67.929688 55.613281 C 67.929688 55.613281 72.132812 55.714844 73.488281 57.648438 C 73.488281 57.648438 77.523438 57.140625 80.542969 58.902344 C 83.558594 60.667969 83.832031 61.074219 84.8125 62.398438 C 84.8125 62.398438 89.796875 63.078125 90.984375 64.773438 C 90.984375 64.773438 93.832031 66.097656 94.644531 70.167969 C 94.644531 70.167969 96.953125 68.574219 100.445312 72.035156 C 100.445312 72.035156 103.53125 73.933594 103.664062 77.019531 C 103.664062 77.019531 106.886719 76.917969 108.851562 80.582031 C 108.851562 80.582031 111.699219 83.332031 110.648438 86.519531 C 110.648438 86.519531 114.546875 86.996094 114.886719 91.136719 C 114.886719 91.136719 116.753906 92.527344 115.90625 96.257812 C 115.058594 99.992188 110.75 101.449219 110.75 101.449219 C 110.75 101.449219 109.9375 102.296875 108.277344 103.316406 C 106.613281 104.332031 107.257812 103.519531 104.785156 104.976562 C 102.308594 106.4375 103.460938 105.859375 101.425781 107.117188 C 99.394531 108.371094 98.273438 107.863281 97.054688 108.066406 C 95.832031 108.269531 95.425781 108.199219 94.613281 108.269531 C 93.796875 108.335938 92.679688 108.539062 92.308594 108.574219 C 91.933594 108.609375 90.40625 108.777344 90.40625 108.777344 " fill-opacity="1" fill-rule="nonzero"/></g><g clip-path="url(#a46f96f29a)"><path fill="#000000" d="M 63.632812 130.199219 C 64.085938 130.199219 64.992188 130.039062 65.195312 130.015625 C 65.398438 129.992188 65.601562 129.699219 65.554688 130.085938 C 65.511719 130.46875 65.511719 130.695312 65.667969 130.761719 C 65.828125 130.832031 66.03125 130.535156 65.984375 130.964844 C 65.941406 131.394531 66.390625 131.78125 66.527344 131.804688 C 66.664062 131.824219 66.796875 131.734375 66.933594 131.804688 C 67.070312 131.871094 67.429688 131.808594 67.429688 131.808594 L 67.320312 132.796875 C 67.320312 132.796875 67.183594 133.117188 67.25 133.453125 C 67.320312 133.792969 67.542969 133.792969 67.363281 133.953125 C 67.183594 134.109375 67.09375 134.019531 66.980469 134.269531 C 66.867188 134.519531 66.59375 135.039062 66.300781 135.378906 C 66.007812 135.714844 65.804688 135.988281 65.644531 136.304688 C 65.488281 136.621094 64.945312 136.847656 64.921875 137.34375 C 64.898438 137.84375 65.058594 137.84375 65.058594 138 C 65.058594 138.160156 64.945312 138.226562 65.082031 138.410156 C 65.214844 138.589844 65.511719 138.726562 65.511719 138.859375 C 65.511719 138.996094 64.992188 139.921875 64.898438 140.015625 C 64.808594 140.105469 64.425781 140.558594 64.335938 140.738281 C 64.246094 140.917969 64.132812 141.296875 64.4375 141.417969 C 64.742188 141.535156 65.164062 141.671875 65.214844 141.6875 C 65.269531 141.703125 65.453125 141.804688 65.589844 141.6875 C 65.726562 141.570312 65.726562 141.5 65.878906 141.570312 C 66.03125 141.636719 66.742188 141.941406 67.046875 141.636719 C 67.351562 141.332031 67.453125 141.007812 67.351562 140.855469 C 67.25 140.703125 66.960938 140.464844 66.859375 140.363281 C 66.757812 140.261719 66.574219 140.160156 66.605469 139.992188 C 66.640625 139.820312 66.777344 139.6875 66.707031 139.550781 C 66.640625 139.414062 66.574219 139.09375 66.640625 138.992188 C 66.707031 138.890625 66.828125 139.210938 67.011719 138.566406 C 67.199219 137.921875 67.4375 137.769531 67.574219 137.617188 C 67.707031 137.464844 68.117188 137.125 68.4375 136.515625 C 68.761719 135.902344 69.199219 135.308594 69.320312 135.140625 C 69.4375 134.96875 69.863281 134.613281 69.914062 134.121094 C 69.964844 133.628906 70.015625 133.410156 70.015625 133.308594 C 70.015625 133.207031 70.351562 133.121094 70.402344 133.324219 C 70.453125 133.527344 70.4375 133.699219 70.503906 133.933594 C 70.574219 134.171875 70.488281 134.867188 70.675781 135.191406 C 70.863281 135.511719 71.03125 135.9375 71.097656 136.089844 C 71.167969 136.242188 71.199219 136.496094 71.371094 136.71875 C 71.539062 136.9375 71.996094 137.496094 72.015625 137.667969 C 72.03125 137.835938 71.914062 138.464844 72.046875 138.820312 C 72.183594 139.175781 72.300781 139.535156 72.285156 139.667969 C 72.269531 139.804688 72.167969 139.871094 72.300781 140.261719 C 72.4375 140.652344 72.4375 140.925781 72.507812 141.128906 C 72.574219 141.332031 72.761719 141.890625 72.894531 142.09375 C 73.03125 142.296875 73.234375 142.503906 73.21875 142.585938 C 73.203125 142.671875 73.167969 143.078125 73.21875 143.199219 C 73.269531 143.316406 73.539062 143.691406 73.472656 143.757812 C 73.40625 143.824219 73.269531 144.078125 73.203125 144.179688 C 73.132812 144.285156 73.132812 144.265625 73.046875 144.519531 C 72.964844 144.773438 72.457031 145.011719 72.691406 145.199219 C 72.929688 145.386719 73.21875 145.707031 73.742188 145.742188 C 74.269531 145.777344 74.507812 145.742188 74.507812 145.742188 C 74.507812 145.742188 75.472656 146.097656 75.761719 145.894531 C 76.050781 145.691406 76.40625 145.25 76.269531 144.859375 C 76.132812 144.46875 76 144.4375 75.878906 144.453125 C 75.761719 144.46875 75.371094 144.4375 75.320312 144.25 C 75.269531 144.0625 75.335938 143.792969 75.132812 143.707031 C 74.929688 143.621094 74.625 143.417969 74.609375 143.25 C 74.589844 143.078125 74.660156 142.859375 74.675781 142.707031 C 74.691406 142.554688 74.761719 142.417969 74.625 142.195312 C 74.488281 141.976562 74.574219 141.910156 74.574219 141.550781 C 74.574219 141.195312 74.574219 141.128906 74.558594 140.671875 C 74.539062 140.210938 74.675781 139.328125 74.574219 138.667969 C 74.472656 138.007812 74.421875 137.820312 74.40625 137.632812 C 74.386719 137.445312 74.304688 137.3125 74.269531 137.023438 C 74.234375 136.734375 74.132812 135.613281 74.066406 135.359375 C 73.996094 135.105469 74.167969 134.714844 73.894531 134.222656 C 73.625 133.730469 73.558594 133.613281 73.488281 133.390625 C 73.421875 133.171875 73.488281 133.003906 73.320312 132.714844 C 73.148438 132.425781 73.097656 132.238281 73.03125 132.101562 C 72.964844 131.96875 72.609375 131.660156 72.828125 131.441406 C 73.046875 131.222656 73.082031 131.222656 73.234375 131.015625 C 73.386719 130.8125 74.117188 130.269531 74.574219 129.289062 C 75.03125 128.304688 75 128.183594 75.03125 127.996094 C 75.066406 127.8125 75.167969 127.742188 75.304688 127.523438 C 75.4375 127.300781 75.609375 126.859375 75.625 126.726562 C 75.640625 126.589844 75.675781 126.320312 75.691406 126.234375 C 75.710938 126.148438 75.988281 125.867188 75.796875 125.730469 C 75.601562 125.59375 75.546875 125.582031 75.5 125.515625 C 75.457031 125.449219 75.367188 125.253906 75.398438 125.109375 C 75.433594 124.960938 75.367188 124.746094 75.296875 124.667969 C 75.230469 124.589844 75.171875 124.53125 75.117188 124.339844 C 75.058594 124.148438 75.050781 124.078125 74.925781 123.921875 C 74.800781 123.761719 74.585938 123.75 74.585938 123.75 C 74.585938 123.75 74.347656 123.558594 74.539062 124 C 74.734375 124.441406 74.765625 124.488281 74.742188 124.578125 C 74.722656 124.667969 74.699219 124.882812 74.675781 124.917969 C 74.652344 124.949219 74.597656 124.984375 74.539062 124.972656 C 74.484375 124.960938 74.304688 124.972656 74.292969 125.140625 C 74.28125 125.3125 74.460938 125.242188 74.257812 125.480469 C 74.054688 125.71875 74.078125 125.980469 74.109375 126.105469 C 74.144531 126.226562 74.269531 126.453125 74.234375 126.625 C 74.203125 126.792969 73.953125 127.085938 73.964844 127.167969 C 73.976562 127.246094 74.019531 127.371094 73.964844 127.4375 C 73.90625 127.507812 73.886719 127.371094 73.75 127.597656 C 73.613281 127.824219 73.546875 127.992188 73.421875 128.105469 C 73.296875 128.21875 73.09375 128.625 73.082031 128.355469 C 73.070312 128.082031 73.160156 127.789062 73.171875 127.710938 C 73.183594 127.628906 73.253906 127.132812 73.253906 127.019531 C 73.253906 126.90625 73.332031 126.703125 73.183594 126.523438 C 73.039062 126.339844 72.8125 125.707031 72.8125 125.707031 C 72.8125 125.707031 72.789062 125.640625 72.878906 125.414062 C 72.96875 125.1875 73.117188 124.53125 73.117188 124.40625 C 73.117188 124.28125 73.039062 123.863281 73.046875 123.832031 C 73.058594 123.796875 73.117188 123.71875 73.21875 123.707031 C 73.320312 123.695312 73.183594 123.898438 73.546875 123.367188 C 73.90625 122.835938 73.964844 122.574219 74.335938 122.007812 C 74.710938 121.445312 75.375 120.175781 75.546875 119.828125 C 75.714844 119.476562 76.460938 118.378906 76.519531 118.242188 C 76.574219 118.109375 77.21875 117.089844 77.277344 117.042969 C 77.332031 117 77.511719 116.910156 77.601562 116.761719 C 77.695312 116.613281 77.398438 116.558594 77.398438 116.558594 C 77.398438 116.558594 77.421875 116.46875 77.242188 116.308594 C 77.0625 116.152344 76.992188 116.015625 76.925781 115.925781 C 76.859375 115.835938 76.859375 115.675781 76.519531 115.632812 C 76.179688 115.585938 75.230469 115.292969 74.324219 114.773438 C 73.421875 114.25 72.789062 113.957031 72.5625 113.6875 C 72.335938 113.414062 72.449219 112.804688 70.867188 112.101562 C 69.285156 111.402344 69.578125 111.332031 68.449219 111.289062 C 67.320312 111.242188 67.363281 111.128906 66.730469 111.039062 C 66.097656 110.949219 66.074219 111.289062 65.871094 111.492188 C 65.667969 111.695312 64.832031 111.898438 65.058594 112.285156 C 65.285156 112.667969 65.195312 112.894531 65.488281 112.960938 C 65.78125 113.03125 66.210938 113.097656 66.144531 113.300781 C 66.074219 113.503906 66.144531 113.527344 66.324219 113.914062 C 66.503906 114.296875 66.59375 115.066406 66.730469 115.472656 C 66.867188 115.878906 67.839844 118.4375 67.839844 118.59375 C 67.839844 118.753906 68.425781 120.042969 68.402344 120.175781 C 68.382812 120.3125 68.246094 120.605469 68.199219 120.8125 C 68.15625 121.015625 68.246094 121.398438 68.246094 121.398438 C 68.246094 121.398438 67.816406 121.511719 67.882812 121.898438 C 67.953125 122.28125 67.90625 122.960938 67.5 123.027344 C 67.09375 123.09375 66.617188 123.433594 66.777344 123.027344 C 66.933594 122.621094 67.160156 122.328125 67.160156 122.054688 C 67.160156 121.785156 67.476562 121.558594 67.542969 121.488281 C 67.613281 121.421875 67.859375 120.425781 67.859375 120.359375 C 67.859375 120.289062 68.085938 120.175781 67.703125 119.953125 C 67.320312 119.726562 67.226562 119.613281 67.226562 119.523438 C 67.226562 119.429688 67.320312 118.480469 67.183594 118.480469 C 67.046875 118.480469 66.867188 118.527344 66.84375 118.820312 C 66.820312 119.113281 66.910156 119.613281 66.820312 119.703125 C 66.730469 119.792969 66.707031 119.882812 66.550781 119.972656 C 66.390625 120.0625 66.074219 120.0625 66.164062 120.359375 C 66.257812 120.652344 66.390625 120.855469 66.414062 121.015625 C 66.4375 121.171875 66.4375 121.21875 66.371094 121.308594 C 66.300781 121.398438 66.1875 121.535156 66.164062 121.691406 C 66.144531 121.851562 66.007812 121.898438 65.847656 122.214844 C 65.691406 122.53125 65.511719 123.09375 65.195312 123.367188 C 64.878906 123.636719 64.855469 123.59375 64.898438 123.773438 C 64.945312 123.953125 64.628906 124.203125 64.582031 124.292969 C 64.539062 124.382812 64.289062 124.65625 64.449219 124.949219 C 64.605469 125.242188 64.808594 125.402344 64.785156 125.5625 C 64.765625 125.71875 64.675781 125.921875 64.785156 125.96875 C 64.898438 126.011719 65.285156 126.058594 65.285156 126.148438 C 65.285156 126.238281 65.058594 126.351562 65.035156 126.804688 C 65.011719 127.257812 64.855469 127.574219 64.71875 127.84375 C 64.582031 128.117188 63.746094 129.089844 63.632812 129.359375 C 63.519531 129.632812 63.183594 130.199219 63.632812 130.199219 Z M 76.855469 117.078125 L 77.015625 117.023438 C 77.015625 117.023438 76.980469 117.324219 76.925781 117.308594 C 76.867188 117.292969 76.855469 117.078125 76.855469 117.078125 Z M 66.777344 113.675781 C 66.6875 113.789062 66.492188 113.675781 66.425781 113.589844 C 66.359375 113.503906 66.324219 113.359375 66.425781 113.402344 C 66.527344 113.449219 66.628906 113.503906 66.628906 113.503906 C 66.628906 113.503906 66.867188 113.5625 66.777344 113.675781 Z M 68.414062 117.925781 C 68.414062 118.121094 68.332031 118.515625 68.332031 118.515625 C 68.332031 118.515625 68.234375 118.015625 68.03125 117.644531 C 67.828125 117.269531 67.589844 116.570312 67.476562 116.175781 C 67.363281 115.777344 67.285156 115.429688 67.238281 115.359375 C 67.195312 115.292969 66.957031 114.804688 66.933594 114.679688 C 66.910156 114.558594 66.777344 114.128906 66.777344 114.082031 C 66.777344 114.035156 66.878906 113.503906 66.878906 113.503906 C 66.878906 113.503906 66.921875 113.707031 67.09375 113.84375 C 67.261719 113.980469 67.566406 114.160156 67.714844 114.230469 C 67.859375 114.296875 68.0625 114.21875 68.019531 114.410156 C 67.972656 114.601562 67.769531 114.523438 67.894531 114.839844 C 68.019531 115.15625 68.03125 115.179688 68.066406 115.179688 C 68.097656 115.179688 68.246094 115.121094 68.246094 115.121094 C 68.246094 115.121094 68.414062 117.734375 68.414062 117.925781 Z M 75.265625 118.765625 C 75.152344 118.808594 75.195312 118.671875 75.207031 118.558594 C 75.21875 118.445312 75.398438 118.164062 75.457031 118.007812 C 75.511719 117.847656 75.398438 117.585938 75.34375 117.464844 C 75.285156 117.339844 74.855469 117.203125 74.664062 117.101562 C 74.472656 117 74.835938 116.183594 75.230469 115.914062 C 75.625 115.640625 76.054688 116.242188 76.179688 116.390625 C 76.304688 116.535156 76.734375 116.839844 76.734375 116.839844 C 76.734375 116.839844 76.746094 116.933594 76.734375 116.964844 C 76.722656 117 76.574219 117.203125 76.53125 117.238281 C 76.484375 117.269531 76.335938 117.542969 76.28125 117.691406 C 76.222656 117.835938 75.90625 118.210938 75.738281 118.457031 C 75.570312 118.707031 75.375 118.71875 75.265625 118.765625 Z M 74.890625 117.800781 C 75.003906 117.769531 75.117188 117.894531 75.117188 117.894531 C 75.117188 117.894531 75.050781 118.140625 75.003906 118.121094 C 74.957031 118.097656 74.777344 117.835938 74.890625 117.800781 Z M 74.519531 120.710938 C 74.519531 120.710938 74.632812 120.15625 74.699219 119.953125 C 74.765625 119.746094 75.027344 119.339844 75.105469 119.203125 C 75.183594 119.070312 75.421875 119.203125 75.421875 119.203125 C 75.421875 119.203125 75.332031 119.363281 75.242188 119.511719 C 75.152344 119.65625 74.519531 120.710938 74.519531 120.710938 Z M 73.039062 123.378906 C 73.082031 123.320312 73.171875 123.503906 73.171875 123.503906 C 73.171875 123.503906 73.070312 123.582031 73.039062 123.558594 C 73.003906 123.535156 72.992188 123.433594 73.039062 123.378906 Z M 68.933594 120.957031 C 68.933594 120.914062 68.800781 119.941406 68.789062 119.78125 C 68.777344 119.625 68.890625 118.628906 68.753906 117.925781 C 68.617188 117.226562 68.6875 114.75 68.6875 114.75 C 68.6875 114.75 69.09375 114.941406 69.351562 115.066406 C 69.613281 115.191406 70.300781 115.664062 70.449219 115.753906 C 70.597656 115.847656 72.121094 116.535156 72.394531 116.648438 C 72.664062 116.761719 73.828125 117.464844 74.019531 117.53125 C 74.210938 117.597656 74.496094 117.8125 74.5625 117.882812 C 74.632812 117.949219 74.710938 118.109375 74.710938 118.109375 L 74.96875 118.300781 C 74.96875 118.300781 74.734375 118.4375 74.710938 118.480469 C 74.6875 118.527344 74.585938 119.035156 74.394531 119.375 C 74.203125 119.714844 74.191406 120.007812 74.066406 120.335938 C 73.941406 120.664062 73.839844 121.207031 73.738281 121.5 C 73.644531 121.773438 73.429688 122.402344 73.402344 122.488281 C 73.398438 122.492188 73.398438 122.496094 73.398438 122.496094 C 73.398438 122.496094 73.398438 122.492188 73.402344 122.488281 C 73.421875 122.429688 73.519531 122.113281 73.472656 121.804688 C 73.421875 121.46875 73.398438 120.765625 72.515625 120.347656 C 71.636719 119.929688 70.675781 120.222656 70.222656 120.765625 C 69.769531 121.308594 69.714844 122.371094 69.738281 122.519531 C 69.761719 122.664062 69.703125 122.710938 69.648438 122.824219 C 69.589844 122.9375 69.398438 122.6875 69.363281 122.542969 C 69.332031 122.394531 69.308594 122 69.308594 121.875 C 69.308594 121.75 69.058594 121.445312 68.933594 121.398438 C 68.808594 121.355469 68.933594 121.003906 68.933594 120.957031 Z M 68.472656 121.035156 C 68.5625 120.933594 68.800781 121.128906 68.800781 121.128906 L 68.667969 121.242188 C 68.667969 121.242188 68.4375 121.320312 68.414062 121.320312 C 68.390625 121.320312 68.382812 121.140625 68.472656 121.035156 " fill-opacity="1" fill-rule="nonzero"/></g><path fill="#000000" d="M 89.628906 111.542969 C 89.636719 111.542969 89.648438 111.539062 89.65625 111.535156 L 95.21875 107.734375 C 95.242188 107.71875 95.246094 107.6875 95.230469 107.664062 C 95.214844 107.640625 95.183594 107.632812 95.160156 107.648438 L 89.984375 111.1875 L 93.238281 107.726562 C 93.253906 107.703125 93.253906 107.671875 93.234375 107.652344 C 93.214844 107.632812 93.179688 107.636719 93.164062 107.65625 L 89.589844 111.457031 C 89.574219 111.476562 89.574219 111.503906 89.589844 111.523438 C 89.597656 111.535156 89.613281 111.542969 89.628906 111.542969 " fill-opacity="1" fill-rule="nonzero"/><path fill="#000000" d="M 76.839844 117.269531 C 76.824219 117.246094 76.828125 117.214844 76.851562 117.199219 L 77.640625 116.683594 L 77.082031 116.921875 C 77.058594 116.933594 77.03125 116.925781 77.019531 116.902344 C 77.003906 116.882812 77.007812 116.855469 77.023438 116.839844 L 84.304688 109.554688 C 84.324219 109.535156 84.355469 109.535156 84.375 109.554688 C 84.394531 109.574219 84.394531 109.605469 84.375 109.628906 L 77.28125 116.726562 L 78.125 116.363281 L 91.410156 107.648438 C 91.425781 107.636719 91.453125 107.636719 91.46875 107.652344 C 91.488281 107.667969 91.492188 107.691406 91.480469 107.710938 L 89.675781 111.515625 C 89.667969 111.523438 89.660156 111.535156 89.648438 111.539062 L 78.171875 116.453125 L 76.910156 117.285156 C 76.902344 117.289062 76.890625 117.292969 76.882812 117.292969 C 76.863281 117.292969 76.847656 117.285156 76.839844 117.269531 Z M 91.3125 107.832031 L 78.660156 116.136719 L 89.589844 111.453125 L 91.3125 107.832031 " fill-opacity="1" fill-rule="nonzero"/><path fill="#000000" d="M 75.070312 117.71875 C 75.082031 117.71875 75.089844 117.714844 75.097656 117.710938 C 75.777344 117.316406 91.734375 108.054688 91.804688 108.007812 C 91.828125 107.992188 91.832031 107.960938 91.816406 107.9375 C 91.800781 107.914062 91.769531 107.90625 91.746094 107.921875 C 91.625 108 75.210938 117.527344 75.046875 117.621094 C 75.023438 117.636719 75.011719 117.667969 75.027344 117.691406 C 75.035156 117.707031 75.054688 117.71875 75.070312 117.71875 " fill-opacity="1" fill-rule="nonzero"/><path fill="#000000" d="M 76.699219 117.445312 C 76.71875 117.445312 76.734375 117.4375 76.742188 117.421875 L 79.90625 111.902344 L 83.015625 105.835938 L 84.480469 107.523438 C 84.5 107.542969 84.53125 107.546875 84.554688 107.527344 C 84.574219 107.511719 84.578125 107.476562 84.558594 107.457031 L 83.042969 105.714844 C 83.03125 105.699219 83.015625 105.695312 83 105.695312 C 82.984375 105.699219 82.96875 105.707031 82.960938 105.722656 L 79.820312 111.851562 L 76.65625 117.371094 C 76.640625 117.394531 76.648438 117.425781 76.675781 117.441406 C 76.683594 117.445312 76.691406 117.445312 76.699219 117.445312 " fill-opacity="1" fill-rule="nonzero"/><path fill="#000000" d="M 79.742188 112.140625 C 79.753906 112.140625 79.765625 112.136719 79.773438 112.128906 L 84.03125 108.476562 C 84.054688 108.457031 84.058594 108.425781 84.039062 108.40625 C 84.019531 108.382812 83.988281 108.382812 83.964844 108.398438 L 79.707031 112.050781 C 79.6875 112.070312 79.683594 112.101562 79.703125 112.121094 C 79.714844 112.136719 79.726562 112.140625 79.742188 112.140625 " fill-opacity="1" fill-rule="nonzero"/><path fill="#000000" d="M 83.707031 109.347656 C 83.734375 109.347656 83.757812 109.328125 83.757812 109.300781 C 83.757812 109.273438 83.734375 109.25 83.707031 109.246094 L 76.925781 109.023438 L 74.082031 91.46875 C 74.078125 91.441406 74.050781 91.421875 74.023438 91.425781 C 73.996094 91.429688 73.976562 91.457031 73.980469 91.484375 L 76.832031 109.078125 C 76.835938 109.105469 76.855469 109.121094 76.878906 109.121094 L 83.703125 109.347656 C 83.703125 109.347656 83.707031 109.347656 83.707031 109.347656 " fill-opacity="1" fill-rule="nonzero"/><path fill="#000000" d="M 76.882812 109.125 C 76.890625 109.125 76.902344 109.121094 76.910156 109.113281 L 83.453125 104.660156 C 83.476562 104.640625 83.480469 104.609375 83.464844 104.585938 C 83.449219 104.5625 83.417969 104.558594 83.394531 104.574219 L 76.992188 108.9375 L 80.429688 100.40625 C 80.441406 100.382812 80.429688 100.351562 80.402344 100.34375 C 80.375 100.332031 80.347656 100.34375 80.335938 100.371094 L 76.835938 109.054688 C 76.824219 109.074219 76.832031 109.097656 76.847656 109.113281 C 76.859375 109.117188 76.871094 109.125 76.882812 109.125 " fill-opacity="1" fill-rule="nonzero"/><path fill="#000000" d="M 78.054688 109.984375 C 78.0625 109.984375 78.070312 109.980469 78.078125 109.976562 L 85.378906 106.246094 C 85.402344 106.234375 85.414062 106.203125 85.402344 106.179688 C 85.386719 106.152344 85.359375 106.144531 85.332031 106.15625 L 78.136719 109.832031 L 80.792969 100.988281 C 80.800781 100.960938 80.785156 100.933594 80.757812 100.925781 C 80.734375 100.917969 80.703125 100.933594 80.695312 100.960938 L 78.007812 109.917969 C 78 109.9375 78.007812 109.957031 78.023438 109.96875 C 78.03125 109.976562 78.042969 109.984375 78.054688 109.984375 " fill-opacity="1" fill-rule="nonzero"/><path fill="#000000" d="M 75.070312 118.238281 C 75.09375 118.238281 75.117188 118.222656 75.121094 118.195312 L 76.929688 109.082031 C 76.9375 109.054688 76.917969 109.027344 76.890625 109.023438 C 76.863281 109.019531 76.835938 109.035156 76.832031 109.0625 L 75.023438 118.175781 C 75.015625 118.203125 75.035156 118.230469 75.0625 118.238281 C 75.066406 118.238281 75.070312 118.238281 75.070312 118.238281 " fill-opacity="1" fill-rule="nonzero"/><path fill="#000000" d="M 74.890625 118.78125 C 74.910156 118.78125 74.929688 118.769531 74.9375 118.746094 L 78.101562 109.949219 C 78.113281 109.925781 78.097656 109.894531 78.074219 109.886719 C 78.046875 109.875 78.015625 109.890625 78.007812 109.914062 L 74.84375 118.710938 C 74.832031 118.738281 74.847656 118.769531 74.875 118.777344 C 74.878906 118.78125 74.886719 118.78125 74.890625 118.78125 " fill-opacity="1" fill-rule="nonzero"/><path fill="#000000" d="M 76.472656 117.71875 C 76.496094 117.71875 76.515625 117.703125 76.523438 117.679688 L 81.472656 100.992188 C 81.480469 100.964844 81.464844 100.933594 81.4375 100.925781 C 81.410156 100.917969 81.382812 100.933594 81.375 100.960938 L 76.425781 117.652344 C 76.417969 117.679688 76.433594 117.707031 76.457031 117.714844 C 76.464844 117.71875 76.46875 117.71875 76.472656 117.71875 " fill-opacity="1" fill-rule="nonzero"/><path fill="#000000" d="M 67.046875 118.960938 C 67.050781 118.960938 67.054688 118.960938 67.058594 118.960938 C 67.085938 118.953125 67.101562 118.929688 67.097656 118.902344 L 65.695312 112.179688 C 65.691406 112.152344 65.664062 112.136719 65.636719 112.140625 C 65.609375 112.148438 65.589844 112.175781 65.597656 112.203125 L 66.996094 118.921875 C 67.003906 118.945312 67.023438 118.960938 67.046875 118.960938 " fill-opacity="1" fill-rule="nonzero"/><path fill="#000000" d="M 74.664062 124.332031 C 74.691406 124.332031 74.714844 124.308594 74.714844 124.28125 L 74.804688 115.449219 C 74.804688 115.421875 74.785156 115.398438 74.753906 115.398438 C 74.726562 115.398438 74.703125 115.421875 74.703125 115.449219 L 74.613281 124.277344 C 74.613281 124.308594 74.636719 124.328125 74.664062 124.332031 " fill-opacity="1" fill-rule="nonzero"/><path fill="#000000" d="M 72.246094 94.554688 C 72.265625 94.554688 72.285156 94.542969 72.292969 94.527344 L 74.078125 90.363281 C 74.089844 90.335938 74.078125 90.308594 74.050781 90.296875 C 74.027344 90.285156 73.996094 90.296875 73.984375 90.324219 L 72.367188 94.09375 L 73.292969 88.632812 C 73.296875 88.601562 73.277344 88.578125 73.25 88.574219 C 73.222656 88.566406 73.195312 88.585938 73.191406 88.613281 L 72.195312 94.496094 C 72.191406 94.523438 72.207031 94.546875 72.230469 94.554688 C 72.238281 94.554688 72.242188 94.554688 72.246094 94.554688 " fill-opacity="1" fill-rule="nonzero"/><path fill="#000000" d="M 54.433594 96.070312 C 54.445312 96.070312 54.453125 96.070312 54.464844 96.0625 C 54.480469 96.050781 54.488281 96.03125 54.484375 96.007812 L 50.179688 77.417969 C 50.171875 77.390625 50.144531 77.375 50.117188 77.378906 C 50.089844 77.386719 50.074219 77.414062 50.078125 77.441406 L 54.355469 95.902344 L 33.648438 81.390625 C 33.625 81.375 33.589844 81.378906 33.574219 81.402344 C 33.558594 81.425781 33.566406 81.457031 33.589844 81.472656 L 54.40625 96.0625 C 54.414062 96.070312 54.425781 96.070312 54.433594 96.070312 " fill-opacity="1" fill-rule="nonzero"/><path fill="#000000" d="M 55.316406 86.777344 C 55.324219 86.777344 55.335938 86.773438 55.34375 86.769531 C 55.363281 86.757812 55.371094 86.730469 55.363281 86.710938 L 51.703125 76.191406 C 51.695312 76.164062 51.664062 76.152344 51.636719 76.160156 C 51.613281 76.171875 51.597656 76.199219 51.605469 76.226562 L 55.191406 86.519531 L 46.570312 77.394531 C 46.550781 77.375 46.519531 77.375 46.5 77.394531 C 46.480469 77.414062 46.480469 77.445312 46.496094 77.464844 L 55.28125 86.761719 C 55.289062 86.769531 55.304688 86.777344 55.316406 86.777344 " fill-opacity="1" fill-rule="nonzero"/><path fill="#000000" d="M 59.792969 92.984375 C 59.800781 92.984375 59.804688 92.984375 59.8125 92.980469 C 59.835938 92.96875 59.847656 92.945312 59.839844 92.921875 L 55.773438 76.199219 C 55.765625 76.171875 55.738281 76.15625 55.710938 76.160156 C 55.683594 76.167969 55.667969 76.195312 55.671875 76.222656 L 59.679688 92.683594 L 49.019531 77.402344 C 49 77.378906 48.96875 77.371094 48.945312 77.390625 C 48.925781 77.40625 48.917969 77.4375 48.933594 77.460938 L 59.75 92.960938 C 59.761719 92.976562 59.777344 92.984375 59.792969 92.984375 " fill-opacity="1" fill-rule="nonzero"/><path fill="#000000" d="M 61.214844 83.519531 C 61.21875 83.519531 61.222656 83.519531 61.226562 83.515625 C 61.253906 83.511719 61.269531 83.488281 61.265625 83.460938 L 60.214844 76.203125 C 60.210938 76.175781 60.183594 76.15625 60.15625 76.160156 C 60.128906 76.164062 60.109375 76.191406 60.113281 76.21875 L 61.082031 82.890625 L 59.164062 77.003906 C 59.152344 76.980469 59.125 76.964844 59.097656 76.972656 C 59.070312 76.980469 59.058594 77.011719 59.066406 77.039062 L 61.167969 83.484375 C 61.175781 83.503906 61.195312 83.519531 61.214844 83.519531 " fill-opacity="1" fill-rule="nonzero"/><path fill="#000000" d="M 61.214844 86.164062 C 61.21875 86.164062 61.222656 86.164062 61.226562 86.164062 C 61.25 86.160156 61.265625 86.140625 61.265625 86.117188 L 61.640625 78.519531 C 61.640625 78.488281 61.621094 78.464844 61.589844 78.464844 C 61.5625 78.464844 61.539062 78.484375 61.539062 78.511719 L 61.175781 85.929688 L 56.71875 77.742188 C 56.703125 77.71875 56.671875 77.710938 56.648438 77.722656 C 56.625 77.738281 56.613281 77.765625 56.628906 77.792969 L 61.171875 86.136719 C 61.179688 86.15625 61.199219 86.164062 61.214844 86.164062 " fill-opacity="1" fill-rule="nonzero"/><path fill="#000000" d="M 67.351562 90.441406 C 67.375 90.441406 67.394531 90.425781 67.402344 90.402344 L 69.671875 81.957031 C 69.679688 81.929688 69.664062 81.902344 69.636719 81.894531 C 69.609375 81.886719 69.582031 81.902344 69.574219 81.929688 L 67.351562 90.203125 L 64.757812 81.453125 C 64.75 81.425781 64.71875 81.410156 64.695312 81.417969 C 64.667969 81.425781 64.652344 81.453125 64.660156 81.480469 L 67.304688 90.402344 C 67.308594 90.425781 67.328125 90.441406 67.351562 90.441406 " fill-opacity="1" fill-rule="nonzero"/><path fill="#000000" d="M 68.097656 93.425781 C 68.117188 93.425781 68.136719 93.414062 68.144531 93.394531 L 70.519531 87.933594 C 70.53125 87.90625 70.519531 87.875 70.492188 87.863281 C 70.464844 87.855469 70.4375 87.867188 70.425781 87.890625 L 68.132812 93.171875 L 67.21875 82.726562 C 67.214844 82.695312 67.191406 82.675781 67.160156 82.679688 C 67.132812 82.679688 67.113281 82.707031 67.117188 82.734375 L 68.046875 93.378906 C 68.050781 93.402344 68.066406 93.421875 68.089844 93.425781 C 68.09375 93.425781 68.097656 93.425781 68.097656 93.425781 " fill-opacity="1" fill-rule="nonzero"/><path fill="#000000" d="M 64.707031 103.535156 C 64.714844 103.535156 64.71875 103.535156 64.722656 103.535156 C 64.75 103.527344 64.761719 103.5 64.757812 103.476562 L 61.265625 86.105469 C 61.261719 86.078125 61.234375 86.058594 61.207031 86.0625 C 61.179688 86.070312 61.160156 86.097656 61.164062 86.125 L 64.574219 103.078125 L 59.835938 92.914062 C 59.824219 92.886719 59.796875 92.878906 59.769531 92.890625 C 59.746094 92.902344 59.734375 92.929688 59.746094 92.957031 L 64.660156 103.507812 C 64.671875 103.523438 64.6875 103.535156 64.707031 103.535156 " fill-opacity="1" fill-rule="nonzero"/><path fill="#000000" d="M 49.585938 90.167969 C 49.597656 90.167969 49.609375 90.164062 49.617188 90.15625 C 49.636719 90.140625 49.644531 90.117188 49.632812 90.09375 L 44.242188 79.578125 C 44.226562 79.550781 44.199219 79.542969 44.171875 79.554688 C 44.148438 79.566406 44.136719 79.597656 44.148438 79.625 L 49.4375 89.933594 L 40.160156 82.6875 C 40.136719 82.671875 40.105469 82.675781 40.085938 82.699219 C 40.070312 82.71875 40.074219 82.753906 40.09375 82.769531 L 49.554688 90.15625 C 49.5625 90.164062 49.574219 90.167969 49.585938 90.167969 " fill-opacity="1" fill-rule="nonzero"/><path fill="#000000" d="M 54.433594 96.070312 C 54.445312 96.070312 54.453125 96.070312 54.464844 96.0625 C 54.484375 96.046875 54.492188 96.019531 54.480469 95.996094 L 44.902344 78.320312 C 44.886719 78.296875 44.855469 78.289062 44.832031 78.300781 C 44.808594 78.316406 44.796875 78.347656 44.8125 78.371094 L 54.125 95.554688 L 41.558594 79.976562 C 41.539062 79.953125 41.507812 79.949219 41.484375 79.96875 C 41.464844 79.984375 41.460938 80.015625 41.476562 80.039062 L 54.394531 96.054688 C 54.40625 96.066406 54.417969 96.070312 54.433594 96.070312 " fill-opacity="1" fill-rule="nonzero"/><path fill="#000000" d="M 66.199219 112.519531 C 66.210938 112.519531 66.222656 112.515625 66.234375 112.503906 C 66.253906 112.488281 66.257812 112.453125 66.238281 112.433594 L 39.179688 82.515625 C 39.164062 82.496094 39.128906 82.496094 39.109375 82.515625 C 39.089844 82.53125 39.085938 82.566406 39.105469 82.585938 L 66.160156 112.5 C 66.171875 112.511719 66.1875 112.519531 66.199219 112.519531 " fill-opacity="1" fill-rule="nonzero"/><path fill="#000000" d="M 66.574219 112.519531 C 66.578125 112.519531 66.582031 112.519531 66.585938 112.515625 C 66.613281 112.507812 66.628906 112.480469 66.621094 112.453125 C 66.554688 112.222656 55.710938 97.652344 54.476562 95.992188 C 54.457031 95.96875 54.425781 95.964844 54.40625 95.980469 C 54.382812 96 54.378906 96.03125 54.394531 96.054688 C 58.53125 101.613281 66.390625 112.199219 66.523438 112.484375 C 66.53125 112.503906 66.550781 112.519531 66.574219 112.519531 " fill-opacity="1" fill-rule="nonzero"/><path fill="#000000" d="M 68.269531 111.984375 C 68.273438 111.984375 68.28125 111.984375 68.289062 111.980469 C 68.3125 111.96875 68.324219 111.9375 68.316406 111.914062 L 64.753906 103.46875 C 64.742188 103.441406 64.714844 103.429688 64.6875 103.441406 C 64.664062 103.449219 64.648438 103.480469 64.660156 103.507812 L 68.222656 111.953125 C 68.230469 111.972656 68.25 111.984375 68.269531 111.984375 " fill-opacity="1" fill-rule="nonzero"/><path fill="#000000" d="M 67.351562 111.984375 C 67.359375 111.984375 67.367188 111.980469 67.375 111.980469 C 67.398438 111.96875 67.410156 111.9375 67.398438 111.910156 L 55.363281 86.707031 C 55.351562 86.679688 55.320312 86.667969 55.292969 86.679688 C 55.269531 86.695312 55.257812 86.722656 55.269531 86.75 L 67.308594 111.953125 C 67.316406 111.972656 67.332031 111.984375 67.351562 111.984375 " fill-opacity="1" fill-rule="nonzero"/><path fill="#000000" d="M 67.167969 113 C 67.167969 113 67.171875 113 67.175781 113 C 67.203125 112.996094 67.222656 112.96875 67.214844 112.941406 C 67.164062 112.699219 55.367188 97.414062 54.019531 95.671875 C 54.003906 95.648438 53.972656 95.644531 53.949219 95.664062 C 53.925781 95.679688 53.921875 95.710938 53.941406 95.734375 C 58.4375 101.558594 66.96875 112.640625 67.117188 112.964844 C 67.125 112.988281 67.144531 113 67.167969 113 " fill-opacity="1" fill-rule="nonzero"/><path fill="#000000" d="M 67.65625 112.867188 C 67.667969 112.867188 67.683594 112.863281 67.691406 112.855469 C 67.710938 112.835938 67.714844 112.804688 67.695312 112.78125 L 39.183594 80.890625 C 39.164062 80.871094 39.128906 80.867188 39.109375 80.886719 C 39.089844 80.90625 39.085938 80.9375 39.105469 80.957031 L 67.621094 112.851562 C 67.628906 112.859375 67.644531 112.867188 67.65625 112.867188 " fill-opacity="1" fill-rule="nonzero"/><path fill="#000000" d="M 68.945312 112.519531 C 68.96875 112.519531 68.992188 112.503906 68.996094 112.476562 L 72.296875 94.515625 C 72.300781 94.488281 72.28125 94.460938 72.253906 94.457031 C 72.226562 94.449219 72.199219 94.46875 72.195312 94.496094 L 68.894531 112.460938 C 68.890625 112.488281 68.910156 112.515625 68.9375 112.519531 C 68.941406 112.519531 68.941406 112.519531 68.945312 112.519531 " fill-opacity="1" fill-rule="nonzero"/><path fill="#000000" d="M 67.859375 112.867188 C 67.890625 112.867188 67.910156 112.847656 67.910156 112.816406 L 68.148438 93.375 C 68.148438 93.347656 68.128906 93.324219 68.097656 93.324219 C 68.070312 93.324219 68.046875 93.347656 68.046875 93.375 L 67.808594 112.816406 C 67.808594 112.84375 67.832031 112.867188 67.859375 112.867188 " fill-opacity="1" fill-rule="nonzero"/><path fill="#000000" d="M 67.65625 113.34375 C 67.660156 113.34375 67.660156 113.34375 67.660156 113.34375 C 67.6875 113.34375 67.707031 113.320312 67.707031 113.292969 L 67.402344 90.386719 C 67.402344 90.359375 67.378906 90.339844 67.351562 90.339844 C 67.324219 90.339844 67.300781 90.363281 67.300781 90.390625 L 67.605469 113.292969 C 67.605469 113.320312 67.628906 113.34375 67.65625 113.34375 " fill-opacity="1" fill-rule="nonzero"/><path fill="#000000" d="M 64.46875 92.542969 C 64.476562 92.542969 64.480469 92.542969 64.484375 92.542969 C 64.507812 92.535156 64.523438 92.511719 64.523438 92.488281 L 63.570312 80.921875 C 63.570312 80.894531 63.546875 80.871094 63.515625 80.875 C 63.488281 80.875 63.46875 80.902344 63.472656 80.929688 L 64.394531 92.183594 L 58.074219 77.410156 C 58.066406 77.386719 58.035156 77.375 58.007812 77.386719 C 57.984375 77.394531 57.972656 77.425781 57.980469 77.453125 L 64.425781 92.511719 C 64.433594 92.53125 64.449219 92.542969 64.46875 92.542969 " fill-opacity="1" fill-rule="nonzero"/><path fill="#000000" d="M 67.859375 113.34375 C 67.863281 113.34375 67.867188 113.34375 67.871094 113.34375 C 67.898438 113.335938 67.914062 113.3125 67.910156 113.285156 L 64.519531 92.484375 C 64.515625 92.457031 64.492188 92.441406 64.460938 92.445312 C 64.433594 92.449219 64.414062 92.472656 64.421875 92.503906 L 67.8125 113.300781 C 67.816406 113.324219 67.835938 113.34375 67.859375 113.34375 " fill-opacity="1" fill-rule="nonzero"/><g clip-path="url(#d637f00eb9)"><path fill="#000000" d="M 114.898438 60.53125 C 114.898438 60.53125 115.375 60.792969 115.875 60.890625 C 116.375 60.988281 117.398438 61.722656 117.800781 61.753906 C 118.199219 61.777344 118.757812 61.535156 118.816406 61.15625 C 118.875 60.78125 118.699219 60.382812 118.96875 60.207031 C 119.238281 60.027344 119.316406 59.875 119.332031 59.785156 C 119.34375 59.695312 119.457031 59.453125 119.621094 59.351562 C 119.785156 59.246094 119.917969 59.34375 119.964844 59.035156 C 120.015625 58.730469 119.949219 58.332031 120.414062 58.074219 C 120.878906 57.816406 120.898438 57.820312 120.984375 57.632812 C 121.070312 57.441406 121.082031 57.351562 121.269531 57.21875 C 121.457031 57.082031 121.59375 57.03125 121.796875 56.691406 C 122 56.355469 122.511719 55.921875 122.800781 55.710938 C 123.09375 55.496094 123.511719 53.925781 124.742188 53.363281 C 125.976562 52.804688 126.480469 51.945312 127.195312 51.726562 C 127.195312 51.726562 128.808594 50.066406 129.851562 49.882812 C 129.851562 49.882812 131.492188 48.597656 132.53125 48.5625 C 132.53125 48.5625 133.753906 47.613281 135.023438 47.742188 C 135.023438 47.742188 136.59375 47.347656 137.195312 47.757812 C 137.195312 47.757812 137.726562 47.53125 138.820312 48.074219 C 138.820312 48.074219 139.375 47.71875 139.886719 47.855469 C 139.886719 47.855469 141.160156 48.429688 141.265625 49.957031 C 141.265625 49.957031 142.789062 49.871094 144.066406 50.664062 C 144.066406 50.664062 143.398438 51.019531 143.40625 51.09375 C 143.414062 51.167969 144.921875 51.519531 145.363281 50.964844 C 145.800781 50.40625 145.96875 49.234375 146.417969 49.785156 C 146.863281 50.335938 147.097656 50.835938 146.976562 51.128906 C 146.976562 51.128906 147.917969 51.003906 148.378906 50.082031 C 148.839844 49.160156 149.179688 47.480469 148.671875 45.8125 C 148.164062 44.144531 147.726562 43.300781 146.742188 42.777344 C 146.742188 42.777344 145.917969 41.371094 144.777344 40.78125 C 144.777344 40.78125 142.179688 38.226562 141.035156 37.546875 C 139.890625 36.867188 139.164062 36.566406 139.007812 36.410156 C 138.847656 36.257812 137.167969 34.992188 135.175781 35.226562 C 135.175781 35.226562 133.484375 34.050781 131.316406 34.257812 C 131.316406 34.257812 129.078125 33.957031 128.195312 34.867188 C 128.195312 34.867188 126.097656 34.253906 124.351562 34.933594 C 122.601562 35.613281 122.425781 35.804688 121.789062 36.421875 C 121.789062 36.421875 119.089844 36.359375 118.320312 37.160156 C 118.320312 37.160156 116.695312 37.617188 115.921875 39.707031 C 115.921875 39.707031 114.835938 38.667969 112.691406 40.203125 C 112.691406 40.203125 110.894531 40.949219 110.5625 42.574219 C 110.5625 42.574219 108.863281 42.25 107.507812 44.023438 C 107.507812 44.023438 105.765625 45.238281 106.054688 47.019531 C 106.054688 47.019531 103.949219 46.941406 103.417969 49.105469 C 103.417969 49.105469 102.3125 49.683594 102.445312 51.734375 C 102.578125 53.785156 104.738281 54.921875 104.738281 54.921875 C 104.738281 54.921875 105.097656 55.441406 105.890625 56.121094 C 106.683594 56.800781 106.414062 56.316406 107.601562 57.300781 C 108.789062 58.28125 108.226562 57.878906 109.199219 58.714844 C 110.171875 59.554688 110.808594 59.378906 111.4375 59.589844 C 112.066406 59.800781 112.289062 59.800781 112.714844 59.90625 C 113.140625 60.011719 113.714844 60.214844 113.910156 60.261719 C 114.105469 60.3125 114.898438 60.53125 114.898438 60.53125 " fill-opacity="1" fill-rule="nonzero"/></g><path fill="#000000" d="M 127.347656 73.710938 C 127.308594 73.558594 126.949219 72.972656 126.898438 72.816406 C 126.851562 72.660156 126.792969 72.480469 126.820312 72.238281 C 126.847656 71.996094 126.738281 71.917969 126.746094 71.867188 C 126.753906 71.820312 126.960938 71.828125 127.023438 71.816406 C 127.085938 71.800781 127.054688 71.683594 127.058594 71.597656 C 127.058594 71.511719 127.179688 71.445312 127.289062 71.304688 C 127.398438 71.160156 127.289062 70.996094 127.273438 70.945312 C 127.257812 70.894531 127.109375 70.734375 127.148438 70.640625 C 127.1875 70.550781 127.171875 70.570312 127.027344 70.402344 C 126.882812 70.230469 126.835938 69.917969 126.777344 69.734375 C 126.722656 69.554688 126.652344 69.519531 126.65625 69.433594 C 126.65625 69.347656 126.609375 69.265625 126.578125 69.210938 C 126.550781 69.15625 126.554688 69.132812 126.582031 69.050781 C 126.605469 68.96875 126.695312 68.871094 126.769531 68.726562 C 126.839844 68.578125 126.671875 68.550781 126.597656 68.488281 C 126.519531 68.425781 126.515625 68.378906 126.476562 68.320312 C 126.4375 68.265625 126.523438 68.007812 126.539062 67.851562 C 126.550781 67.695312 126.460938 67.65625 126.386719 67.644531 C 126.316406 67.632812 126.28125 68.144531 126.273438 68.191406 C 126.269531 68.238281 126.210938 68.292969 125.988281 68.378906 C 125.765625 68.464844 125.875 68.546875 125.867188 68.582031 C 125.863281 68.617188 125.910156 69.164062 125.941406 69.207031 C 125.972656 69.25 126.121094 69.394531 126.097656 69.539062 C 126.074219 69.683594 126.167969 69.859375 126.21875 70.085938 C 126.269531 70.316406 126.042969 70.097656 125.835938 70.027344 C 125.625 69.957031 125.660156 69.59375 125.726562 69.394531 C 125.796875 69.195312 125.578125 69.101562 125.578125 69.101562 C 125.578125 69.101562 125.65625 68.902344 125.652344 68.792969 C 125.644531 68.679688 125.597656 68.511719 125.597656 68.4375 C 125.597656 68.367188 126.015625 67.730469 126.03125 67.648438 C 126.042969 67.5625 126.777344 66.292969 126.882812 66.085938 C 126.988281 65.882812 127.101562 65.484375 127.230469 65.292969 C 127.359375 65.105469 127.394531 65.101562 127.378906 64.988281 C 127.359375 64.871094 127.589844 64.871094 127.753906 64.863281 C 127.914062 64.851562 127.886719 64.722656 128.039062 64.539062 C 128.191406 64.355469 127.765625 64.175781 127.671875 64.050781 C 127.582031 63.925781 127.601562 63.742188 127.257812 63.738281 C 126.914062 63.730469 126.929688 63.796875 126.324219 63.722656 C 125.722656 63.652344 125.871094 63.710938 124.976562 63.949219 C 124.078125 64.1875 124.085938 64.519531 123.941406 64.644531 C 123.800781 64.769531 123.4375 64.871094 122.914062 65.070312 C 122.394531 65.269531 121.863281 65.347656 121.679688 65.339844 C 121.496094 65.335938 121.484375 65.421875 121.441406 65.464844 C 121.394531 65.503906 121.347656 65.570312 121.238281 65.640625 C 121.128906 65.707031 121.132812 65.757812 121.132812 65.757812 C 121.132812 65.757812 120.972656 65.761719 121.011719 65.847656 C 121.046875 65.933594 121.132812 66 121.160156 66.027344 C 121.1875 66.054688 121.441406 66.648438 121.460938 66.726562 C 121.476562 66.804688 121.78125 67.449219 121.839844 67.648438 C 121.902344 67.847656 122.148438 68.574219 122.296875 68.90625 C 122.445312 69.238281 122.453125 69.382812 122.601562 69.695312 C 122.746094 70.003906 122.691406 69.886719 122.746094 69.902344 C 122.800781 69.917969 122.820312 69.960938 122.824219 69.980469 C 122.828125 70 122.75 70.214844 122.742188 70.28125 C 122.730469 70.347656 122.753906 70.707031 122.78125 70.835938 C 122.808594 70.960938 122.792969 70.996094 122.792969 70.996094 C 122.792969 70.996094 122.621094 71.3125 122.527344 71.398438 C 122.433594 71.480469 122.457031 71.59375 122.449219 71.65625 C 122.4375 71.714844 122.433594 71.984375 122.429688 72.027344 C 122.429688 72.070312 122.453125 72.234375 122.425781 72.375 C 122.394531 72.519531 122.320312 72.285156 122.265625 72.214844 C 122.210938 72.144531 122.1875 72.050781 122.136719 71.917969 C 122.082031 71.785156 122.058594 71.855469 122.035156 71.816406 C 122.011719 71.773438 122.042969 71.714844 122.058594 71.671875 C 122.070312 71.632812 121.964844 71.453125 121.960938 71.359375 C 121.957031 71.269531 122.042969 71.160156 122.070312 71.097656 C 122.097656 71.03125 122.132812 70.898438 122.042969 70.753906 C 121.957031 70.609375 122.046875 70.664062 122.054688 70.570312 C 122.0625 70.480469 121.96875 70.460938 121.9375 70.460938 C 121.90625 70.460938 121.878906 70.4375 121.871094 70.417969 C 121.863281 70.398438 121.867188 70.28125 121.863281 70.234375 C 121.859375 70.183594 121.882812 70.164062 122.019531 69.945312 C 122.160156 69.726562 122.015625 69.808594 122.015625 69.808594 C 122.015625 69.808594 121.902344 69.796875 121.824219 69.871094 C 121.742188 69.945312 121.730469 69.980469 121.6875 70.074219 C 121.640625 70.171875 121.605469 70.199219 121.5625 70.234375 C 121.519531 70.269531 121.464844 70.378906 121.472656 70.460938 C 121.476562 70.539062 121.414062 70.632812 121.382812 70.667969 C 121.351562 70.699219 121.320312 70.699219 121.207031 70.753906 C 121.09375 70.8125 121.21875 70.984375 121.21875 71.03125 C 121.222656 71.078125 121.21875 71.222656 121.214844 71.296875 C 121.210938 71.371094 121.265625 71.617188 121.316406 71.746094 C 121.371094 71.875 121.417969 71.921875 121.421875 72.023438 C 121.421875 72.125 121.394531 72.183594 121.554688 72.746094 C 121.714844 73.304688 122.054688 73.65625 122.117188 73.777344 C 122.183594 73.894531 122.199219 73.898438 122.296875 74.035156 C 122.394531 74.167969 122.179688 74.300781 122.132812 74.367188 C 122.085938 74.433594 122.042969 74.527344 121.929688 74.667969 C 121.816406 74.804688 121.835938 74.902344 121.78125 75.011719 C 121.726562 75.125 121.683594 75.179688 121.496094 75.417969 C 121.3125 75.65625 121.367188 75.878906 121.308594 76.007812 C 121.253906 76.136719 121.105469 76.71875 121.0625 76.871094 C 121.019531 77.019531 120.960938 77.085938 120.9375 77.183594 C 120.914062 77.28125 120.871094 77.375 120.761719 77.714844 C 120.652344 78.058594 120.648438 78.539062 120.601562 78.78125 C 120.550781 79.019531 120.546875 79.054688 120.515625 79.246094 C 120.484375 79.433594 120.527344 79.476562 120.433594 79.582031 C 120.34375 79.6875 120.367188 79.765625 120.363281 79.847656 C 120.359375 79.929688 120.378906 80.054688 120.355469 80.140625 C 120.332031 80.230469 120.152344 80.3125 120.039062 80.339844 C 119.921875 80.367188 119.9375 80.515625 119.894531 80.613281 C 119.851562 80.707031 119.640625 80.691406 119.578125 80.671875 C 119.515625 80.652344 119.441406 80.660156 119.335938 80.855469 C 119.234375 81.050781 119.382812 81.3125 119.519531 81.445312 C 119.65625 81.578125 120.199219 81.472656 120.199219 81.472656 C 120.199219 81.472656 120.320312 81.511719 120.601562 81.535156 C 120.882812 81.5625 121.0625 81.417969 121.203125 81.335938 C 121.347656 81.257812 121.097656 81.089844 121.074219 80.949219 C 121.050781 80.804688 121.046875 80.816406 121.019531 80.753906 C 120.992188 80.695312 120.945312 80.550781 120.914062 80.507812 C 120.882812 80.464844 121.058594 80.289062 121.097656 80.230469 C 121.132812 80.171875 121.148438 79.953125 121.148438 79.910156 C 121.144531 79.863281 121.269531 79.773438 121.359375 79.675781 C 121.449219 79.578125 121.59375 79.296875 121.648438 79.195312 C 121.703125 79.09375 121.722656 78.949219 121.828125 78.753906 C 121.933594 78.558594 121.886719 78.515625 121.890625 78.441406 C 121.890625 78.367188 121.984375 78.1875 122.085938 78.011719 C 122.1875 77.835938 122.179688 77.492188 122.203125 77.402344 C 122.226562 77.316406 122.515625 77.058594 122.625 76.953125 C 122.734375 76.851562 122.773438 76.71875 122.820312 76.644531 C 122.871094 76.570312 122.996094 76.359375 123.121094 76.203125 C 123.246094 76.050781 123.261719 75.671875 123.316406 75.554688 C 123.375 75.433594 123.378906 75.339844 123.421875 75.238281 C 123.46875 75.132812 123.640625 75.207031 123.632812 75.261719 C 123.625 75.316406 123.628906 75.4375 123.617188 75.703125 C 123.601562 75.96875 123.796875 76.191406 123.84375 76.292969 C 123.894531 76.390625 124.078125 76.742188 124.195312 77.09375 C 124.3125 77.445312 124.5 77.660156 124.5625 77.753906 C 124.621094 77.84375 124.730469 77.945312 124.777344 78.304688 C 124.820312 78.660156 124.910156 78.5 124.9375 78.558594 C 124.964844 78.621094 124.902344 78.785156 124.855469 78.851562 C 124.808594 78.917969 124.867188 79 124.871094 79.09375 C 124.875 79.1875 124.769531 79.226562 124.707031 79.269531 C 124.640625 79.316406 124.46875 79.417969 124.402344 79.488281 C 124.335938 79.5625 124.363281 79.742188 124.5 79.929688 C 124.636719 80.117188 125.039062 80.015625 125.125 79.992188 C 125.210938 79.96875 125.203125 80.003906 125.265625 80.078125 C 125.328125 80.152344 125.4375 80.117188 125.464844 80.109375 C 125.492188 80.105469 125.730469 80.070312 125.902344 80.03125 C 126.074219 79.996094 126.046875 79.785156 126.011719 79.683594 C 125.980469 79.578125 125.8125 79.304688 125.773438 79.25 C 125.734375 79.195312 125.535156 78.660156 125.546875 78.585938 C 125.558594 78.515625 125.726562 78.46875 125.8125 78.382812 C 125.902344 78.300781 125.847656 78.253906 125.859375 78.167969 C 125.875 78.085938 125.957031 78.097656 125.988281 77.832031 C 126.019531 77.566406 125.75 77.402344 125.691406 77.222656 C 125.636719 77.039062 125.550781 76.878906 125.425781 76.675781 C 125.296875 76.46875 125.195312 76.171875 125.160156 76.027344 C 125.121094 75.886719 125.0625 75.925781 124.980469 75.828125 C 124.898438 75.730469 125.019531 75.75 125.082031 75.574219 C 125.148438 75.398438 125.101562 75.21875 125.101562 75.21875 L 125.128906 74.683594 C 125.128906 74.683594 125.3125 74.75 125.390625 74.726562 C 125.46875 74.703125 125.53125 74.761719 125.605469 74.761719 C 125.679688 74.761719 125.953125 74.59375 125.964844 74.363281 C 125.976562 74.132812 126.058594 74.304688 126.148438 74.28125 C 126.238281 74.257812 126.257812 74.140625 126.269531 73.929688 C 126.277344 73.722656 126.359375 73.898438 126.464844 73.925781 C 126.570312 73.957031 127.035156 74.117188 127.277344 74.152344 C 127.515625 74.191406 127.382812 73.863281 127.347656 73.710938 Z M 121.324219 66.195312 C 121.292969 66.199219 121.300781 66.035156 121.300781 66.035156 L 121.378906 66.078125 C 121.378906 66.078125 121.355469 66.191406 121.324219 66.195312 Z M 127.101562 65.054688 C 127.101562 65.054688 127.160156 65.03125 127.21875 65.015625 C 127.277344 65 127.246094 65.074219 127.203125 65.113281 C 127.160156 65.15625 127.046875 65.199219 127.011719 65.128906 C 126.972656 65.0625 127.101562 65.054688 127.101562 65.054688 Z M 126.109375 65.773438 C 126.109375 65.773438 126.179688 65.816406 126.199219 65.816406 C 126.21875 65.820312 126.226562 65.808594 126.316406 65.652344 C 126.410156 65.496094 126.296875 65.519531 126.289062 65.414062 C 126.28125 65.308594 126.382812 65.367188 126.464844 65.34375 C 126.550781 65.320312 126.726562 65.25 126.828125 65.195312 C 126.929688 65.136719 126.96875 65.03125 126.96875 65.03125 C 126.96875 65.03125 126.980469 65.324219 126.976562 65.347656 C 126.972656 65.371094 126.863281 65.585938 126.839844 65.652344 C 126.816406 65.714844 126.652344 65.953125 126.621094 65.984375 C 126.59375 66.015625 126.519531 66.195312 126.425781 66.394531 C 126.332031 66.597656 126.148438 66.949219 126.007812 67.128906 C 125.871094 67.308594 125.777344 67.5625 125.777344 67.5625 C 125.777344 67.5625 125.765625 67.347656 125.78125 67.246094 C 125.796875 67.144531 126.109375 65.773438 126.109375 65.773438 Z M 121.855469 66.90625 C 121.785156 66.761719 121.648438 66.535156 121.632812 66.453125 C 121.613281 66.371094 121.558594 66.214844 121.539062 66.191406 C 121.515625 66.167969 121.457031 66.050781 121.453125 66.03125 C 121.449219 66.011719 121.464844 65.964844 121.464844 65.964844 C 121.464844 65.964844 121.71875 65.839844 121.796875 65.773438 C 121.875 65.703125 122.152344 65.421875 122.339844 65.601562 C 122.527344 65.777344 122.648438 66.242188 122.539062 66.277344 C 122.429688 66.316406 122.1875 66.351562 122.148438 66.414062 C 122.109375 66.472656 122.027344 66.601562 122.042969 66.691406 C 122.058594 66.777344 122.132812 66.945312 122.128906 67.003906 C 122.125 67.066406 122.136719 67.140625 122.082031 67.109375 C 122.023438 67.074219 121.921875 67.050781 121.855469 66.90625 Z M 122.273438 66.789062 C 122.246094 66.796875 122.230469 66.660156 122.230469 66.660156 C 122.230469 66.660156 122.300781 66.601562 122.359375 66.628906 C 122.417969 66.65625 122.296875 66.78125 122.273438 66.789062 Z M 122.03125 67.503906 C 121.992188 67.421875 121.960938 67.328125 121.960938 67.328125 C 121.960938 67.328125 122.097656 67.277344 122.125 67.355469 C 122.15625 67.433594 122.261719 67.671875 122.277344 67.785156 C 122.296875 67.898438 122.3125 68.203125 122.3125 68.203125 C 122.3125 68.203125 122.066406 67.589844 122.03125 67.503906 Z M 122.855469 69.839844 C 122.835938 69.847656 122.785156 69.796875 122.785156 69.796875 C 122.785156 69.796875 122.851562 69.707031 122.871094 69.742188 C 122.890625 69.777344 122.875 69.828125 122.855469 69.839844 Z M 125.210938 69.042969 C 125.140625 69.054688 124.984375 69.195312 124.972656 69.261719 C 124.964844 69.328125 124.917969 69.535156 124.886719 69.609375 C 124.855469 69.6875 124.734375 69.800781 124.714844 69.734375 C 124.695312 69.671875 124.667969 69.644531 124.691406 69.566406 C 124.714844 69.492188 124.777344 68.921875 124.582031 68.597656 C 124.390625 68.269531 123.90625 68.035156 123.402344 68.179688 C 122.898438 68.328125 122.828125 68.695312 122.773438 68.871094 C 122.722656 69.03125 122.746094 69.207031 122.753906 69.238281 C 122.753906 69.242188 122.753906 69.246094 122.753906 69.246094 C 122.753906 69.246094 122.753906 69.242188 122.753906 69.238281 C 122.742188 69.195312 122.683594 68.84375 122.65625 68.6875 C 122.628906 68.523438 122.621094 68.226562 122.582031 68.042969 C 122.542969 67.859375 122.5625 67.703125 122.488281 67.503906 C 122.417969 67.308594 122.40625 67.03125 122.398438 67.003906 C 122.390625 66.980469 122.277344 66.886719 122.277344 66.886719 L 122.429688 66.808594 C 122.429688 66.808594 122.484375 66.730469 122.527344 66.699219 C 122.566406 66.671875 122.734375 66.578125 122.84375 66.558594 C 122.953125 66.539062 123.628906 66.269531 123.78125 66.230469 C 123.933594 66.195312 124.800781 65.957031 124.886719 65.921875 C 124.972656 65.886719 125.378906 65.695312 125.527344 65.648438 C 125.675781 65.605469 125.90625 65.539062 125.90625 65.539062 C 125.90625 65.539062 125.734375 66.855469 125.601562 67.214844 C 125.46875 67.578125 125.445312 68.113281 125.425781 68.195312 C 125.40625 68.28125 125.253906 68.785156 125.25 68.808594 C 125.246094 68.832031 125.28125 69.027344 125.210938 69.042969 Z M 125.492188 69.042969 C 125.480469 69.042969 125.367188 68.980469 125.367188 68.980469 L 125.304688 68.910156 C 125.304688 68.910156 125.449219 68.828125 125.488281 68.890625 C 125.527344 68.949219 125.503906 69.046875 125.492188 69.042969 " fill-opacity="1" fill-rule="nonzero"/><path fill="#000000" d="M 115.078125 62.0625 C 115.074219 62.0625 115.066406 62.058594 115.0625 62.054688 L 112.4375 59.570312 C 112.425781 59.558594 112.425781 59.542969 112.4375 59.53125 C 112.449219 59.519531 112.464844 59.519531 112.476562 59.53125 L 114.917969 61.84375 L 113.488281 59.734375 C 113.480469 59.722656 113.484375 59.703125 113.496094 59.695312 C 113.507812 59.6875 113.523438 59.691406 113.535156 59.703125 L 115.105469 62.019531 C 115.113281 62.03125 115.109375 62.046875 115.101562 62.058594 C 115.09375 62.0625 115.085938 62.066406 115.078125 62.0625 " fill-opacity="1" fill-rule="nonzero"/><path fill="#000000" d="M 121.347656 66.191406 C 121.34375 66.191406 121.335938 66.1875 121.332031 66.183594 L 120.734375 65.636719 L 115.066406 62.058594 C 115.0625 62.054688 115.058594 62.050781 115.054688 62.042969 L 114.417969 59.875 C 114.417969 59.863281 114.421875 59.851562 114.429688 59.84375 C 114.441406 59.839844 114.457031 59.839844 114.464844 59.847656 L 120.765625 65.59375 L 121.183594 65.855469 L 118.023438 61.492188 C 118.015625 61.480469 118.019531 61.464844 118.03125 61.453125 C 118.042969 61.445312 118.058594 61.449219 118.070312 61.460938 L 121.308594 65.9375 C 121.316406 65.949219 121.316406 65.964844 121.308594 65.972656 C 121.300781 65.984375 121.285156 65.984375 121.273438 65.976562 L 120.996094 65.804688 L 121.371094 66.144531 C 121.382812 66.152344 121.382812 66.171875 121.371094 66.183594 C 121.367188 66.1875 121.355469 66.191406 121.347656 66.191406 Z M 115.105469 62.019531 L 120.503906 65.425781 L 114.5 59.953125 L 115.105469 62.019531 " fill-opacity="1" fill-rule="nonzero"/><path fill="#000000" d="M 122.269531 66.570312 C 122.265625 66.570312 122.261719 66.566406 122.257812 66.5625 C 121.929688 66.296875 114.257812 60.035156 114.222656 60.003906 C 114.214844 59.996094 114.210938 59.976562 114.222656 59.964844 C 114.234375 59.953125 114.25 59.953125 114.261719 59.964844 C 114.320312 60.015625 122.210938 66.457031 122.292969 66.523438 C 122.304688 66.53125 122.304688 66.546875 122.296875 66.558594 C 122.289062 66.566406 122.28125 66.570312 122.269531 66.570312 " fill-opacity="1" fill-rule="nonzero"/><path fill="#000000" d="M 121.429688 66.289062 C 121.421875 66.285156 121.414062 66.28125 121.410156 66.269531 L 120.199219 63.078125 L 119.066406 59.597656 L 118.148438 60.371094 C 118.136719 60.378906 118.117188 60.378906 118.109375 60.367188 C 118.097656 60.355469 118.097656 60.335938 118.109375 60.328125 L 119.0625 59.53125 C 119.070312 59.527344 119.078125 59.523438 119.085938 59.527344 C 119.09375 59.527344 119.101562 59.535156 119.105469 59.542969 L 120.25 63.058594 L 121.460938 66.253906 C 121.464844 66.265625 121.457031 66.28125 121.445312 66.285156 C 121.441406 66.289062 121.4375 66.289062 121.429688 66.289062 " fill-opacity="1" fill-rule="nonzero"/><path fill="#000000" d="M 120.265625 63.21875 C 120.261719 63.21875 120.253906 63.214844 120.25 63.207031 L 118.304688 60.914062 C 118.292969 60.902344 118.292969 60.882812 118.304688 60.875 C 118.316406 60.863281 118.335938 60.867188 118.34375 60.878906 L 120.292969 63.171875 C 120.300781 63.183594 120.300781 63.203125 120.289062 63.210938 C 120.28125 63.21875 120.273438 63.21875 120.265625 63.21875 " fill-opacity="1" fill-rule="nonzero"/><path fill="#000000" d="M 118.402344 61.402344 C 118.386719 61.398438 118.378906 61.386719 118.378906 61.371094 C 118.382812 61.355469 118.394531 61.347656 118.410156 61.347656 L 122.023438 61.804688 L 125.015625 52.742188 C 125.023438 52.726562 125.039062 52.71875 125.050781 52.722656 C 125.066406 52.726562 125.074219 52.742188 125.070312 52.757812 L 122.070312 61.84375 C 122.066406 61.855469 122.054688 61.863281 122.039062 61.859375 L 118.402344 61.402344 " fill-opacity="1" fill-rule="nonzero"/><path fill="#000000" d="M 122.039062 61.859375 C 122.035156 61.859375 122.027344 61.859375 122.023438 61.855469 L 118.933594 58.9375 C 118.925781 58.925781 118.921875 58.910156 118.933594 58.898438 C 118.945312 58.886719 118.960938 58.886719 118.972656 58.898438 L 121.996094 61.753906 L 120.894531 56.941406 C 120.894531 56.925781 120.902344 56.910156 120.917969 56.90625 C 120.929688 56.90625 120.945312 56.914062 120.949219 56.929688 L 122.070312 61.828125 C 122.074219 61.839844 122.066406 61.851562 122.058594 61.859375 C 122.050781 61.859375 122.046875 61.863281 122.039062 61.859375 " fill-opacity="1" fill-rule="nonzero"/><path fill="#000000" d="M 121.34375 62.21875 C 121.339844 62.214844 121.335938 62.214844 121.332031 62.210938 L 117.777344 59.617188 C 117.765625 59.605469 117.765625 59.589844 117.773438 59.578125 C 117.78125 59.566406 117.800781 59.5625 117.8125 59.570312 L 121.3125 62.128906 L 120.652344 57.21875 C 120.652344 57.203125 120.664062 57.191406 120.679688 57.1875 C 120.691406 57.183594 120.707031 57.195312 120.707031 57.210938 L 121.375 62.1875 C 121.378906 62.195312 121.371094 62.207031 121.363281 62.214844 C 121.355469 62.21875 121.351562 62.21875 121.34375 62.21875 " fill-opacity="1" fill-rule="nonzero"/><path fill="#000000" d="M 122.226562 66.84375 C 122.214844 66.84375 122.203125 66.832031 122.203125 66.820312 L 122.015625 61.835938 C 122.015625 61.820312 122.027344 61.808594 122.042969 61.808594 C 122.058594 61.808594 122.070312 61.820312 122.070312 61.835938 L 122.257812 66.816406 C 122.257812 66.832031 122.246094 66.84375 122.230469 66.847656 C 122.230469 66.847656 122.226562 66.847656 122.226562 66.84375 " fill-opacity="1" fill-rule="nonzero"/><path fill="#000000" d="M 122.277344 67.148438 C 122.265625 67.148438 122.257812 67.140625 122.253906 67.125 L 121.320312 62.195312 C 121.320312 62.179688 121.328125 62.167969 121.34375 62.164062 C 121.359375 62.160156 121.371094 62.171875 121.375 62.1875 L 122.308594 67.117188 C 122.308594 67.132812 122.300781 67.144531 122.285156 67.148438 C 122.28125 67.148438 122.28125 67.148438 122.277344 67.148438 " fill-opacity="1" fill-rule="nonzero"/><path fill="#000000" d="M 121.527344 66.449219 C 121.515625 66.449219 121.507812 66.441406 121.503906 66.429688 L 120.292969 57.160156 C 120.292969 57.144531 120.304688 57.132812 120.320312 57.132812 C 120.332031 57.128906 120.347656 57.140625 120.347656 57.152344 L 121.558594 66.421875 C 121.5625 66.4375 121.550781 66.449219 121.535156 66.449219 C 121.535156 66.453125 121.53125 66.453125 121.527344 66.449219 " fill-opacity="1" fill-rule="nonzero"/><path fill="#000000" d="M 126.417969 67.910156 C 126.417969 67.910156 126.414062 67.910156 126.414062 67.910156 C 126.398438 67.902344 126.390625 67.886719 126.398438 67.871094 L 127.710938 64.429688 C 127.714844 64.417969 127.730469 64.410156 127.746094 64.414062 C 127.757812 64.421875 127.765625 64.4375 127.761719 64.449219 L 126.449219 67.890625 C 126.445312 67.90625 126.429688 67.910156 126.417969 67.910156 " fill-opacity="1" fill-rule="nonzero"/><path fill="#000000" d="M 121.925781 70.109375 C 121.914062 70.105469 121.902344 70.09375 121.90625 70.078125 L 122.605469 65.390625 C 122.605469 65.375 122.621094 65.363281 122.636719 65.367188 C 122.652344 65.371094 122.660156 65.382812 122.65625 65.398438 L 121.957031 70.085938 C 121.957031 70.101562 121.941406 70.113281 121.929688 70.109375 C 121.929688 70.109375 121.929688 70.109375 121.925781 70.109375 " fill-opacity="1" fill-rule="nonzero"/><path fill="#000000" d="M 125.730469 54.535156 C 125.71875 54.53125 125.710938 54.523438 125.707031 54.511719 L 125.113281 52.15625 C 125.109375 52.140625 125.117188 52.125 125.132812 52.121094 C 125.148438 52.117188 125.164062 52.128906 125.167969 52.144531 L 125.703125 54.277344 L 125.675781 51.304688 C 125.675781 51.289062 125.6875 51.277344 125.703125 51.277344 C 125.71875 51.277344 125.730469 51.289062 125.730469 51.304688 L 125.761719 54.507812 C 125.761719 54.519531 125.75 54.53125 125.738281 54.535156 C 125.734375 54.535156 125.730469 54.535156 125.730469 54.535156 " fill-opacity="1" fill-rule="nonzero"/><path fill="#000000" d="M 135.042969 56.847656 C 135.035156 56.84375 135.03125 56.84375 135.027344 56.839844 C 135.019531 56.832031 135.015625 56.820312 135.019531 56.808594 L 138.878906 47.320312 C 138.882812 47.308594 138.898438 47.300781 138.914062 47.304688 C 138.925781 47.3125 138.933594 47.328125 138.929688 47.339844 L 135.097656 56.765625 L 147.304688 50.828125 C 147.316406 50.820312 147.332031 50.828125 147.339844 50.839844 C 147.347656 50.851562 147.339844 50.871094 147.328125 50.875 L 135.058594 56.84375 C 135.054688 56.847656 135.046875 56.847656 135.042969 56.847656 " fill-opacity="1" fill-rule="nonzero"/><path fill="#000000" d="M 135.359375 51.84375 C 135.355469 51.84375 135.351562 51.84375 135.347656 51.839844 C 135.339844 51.832031 135.335938 51.816406 135.339844 51.804688 L 138.171875 46.542969 C 138.179688 46.527344 138.195312 46.523438 138.210938 46.53125 C 138.222656 46.539062 138.226562 46.554688 138.21875 46.566406 L 135.449219 51.71875 L 140.789062 47.613281 C 140.800781 47.605469 140.820312 47.609375 140.828125 47.621094 C 140.835938 47.632812 140.835938 47.648438 140.824219 47.65625 L 135.382812 51.839844 C 135.375 51.84375 135.367188 51.847656 135.359375 51.84375 " fill-opacity="1" fill-rule="nonzero"/><path fill="#000000" d="M 132.464844 54.757812 C 132.460938 54.753906 132.457031 54.753906 132.453125 54.75 C 132.441406 54.746094 132.4375 54.730469 132.441406 54.71875 L 136.015625 46.199219 C 136.019531 46.183594 136.035156 46.179688 136.050781 46.183594 C 136.066406 46.191406 136.070312 46.207031 136.066406 46.21875 L 132.550781 54.605469 L 139.492188 47.410156 C 139.503906 47.398438 139.519531 47.398438 139.53125 47.410156 C 139.542969 47.417969 139.542969 47.4375 139.53125 47.449219 L 132.488281 54.75 C 132.480469 54.753906 132.472656 54.757812 132.464844 54.757812 " fill-opacity="1" fill-rule="nonzero"/><path fill="#000000" d="M 132.511719 49.617188 C 132.507812 49.617188 132.507812 49.617188 132.503906 49.617188 C 132.492188 49.609375 132.484375 49.597656 132.488281 49.582031 L 133.660156 45.828125 C 133.664062 45.8125 133.679688 45.804688 133.695312 45.808594 C 133.707031 45.8125 133.714844 45.828125 133.710938 45.84375 L 132.636719 49.296875 L 134.148438 46.339844 C 134.15625 46.328125 134.171875 46.320312 134.1875 46.328125 C 134.199219 46.335938 134.207031 46.351562 134.199219 46.367188 L 132.539062 49.605469 C 132.53125 49.613281 132.523438 49.621094 132.511719 49.617188 " fill-opacity="1" fill-rule="nonzero"/><path fill="#000000" d="M 132.285156 51.019531 C 132.285156 51.019531 132.28125 51.019531 132.28125 51.019531 C 132.269531 51.015625 132.261719 51.003906 132.261719 50.992188 L 132.707031 46.933594 C 132.710938 46.917969 132.722656 46.90625 132.738281 46.90625 C 132.753906 46.910156 132.765625 46.921875 132.761719 46.9375 L 132.328125 50.902344 L 135.382812 46.9375 C 135.394531 46.925781 135.410156 46.925781 135.421875 46.933594 C 135.433594 46.941406 135.4375 46.960938 135.425781 46.972656 L 132.3125 51.011719 C 132.304688 51.019531 132.296875 51.023438 132.285156 51.019531 " fill-opacity="1" fill-rule="nonzero"/><path fill="#000000" d="M 128.671875 52.765625 C 128.660156 52.765625 128.648438 52.753906 128.648438 52.742188 L 128.160156 48.074219 C 128.15625 48.058594 128.167969 48.042969 128.183594 48.042969 C 128.199219 48.042969 128.210938 48.050781 128.214844 48.066406 L 128.691406 52.640625 L 130.808594 48.222656 C 130.816406 48.210938 130.832031 48.203125 130.84375 48.210938 C 130.859375 48.214844 130.863281 48.234375 130.859375 48.246094 L 128.699219 52.75 C 128.695312 52.761719 128.683594 52.769531 128.671875 52.765625 " fill-opacity="1" fill-rule="nonzero"/><path fill="#000000" d="M 128.023438 54.285156 C 128.011719 54.285156 128.003906 54.277344 128 54.265625 L 127.207031 51.167969 C 127.203125 51.152344 127.210938 51.140625 127.226562 51.136719 C 127.242188 51.132812 127.253906 51.140625 127.257812 51.15625 L 128.027344 54.148438 L 129.398438 48.6875 C 129.402344 48.675781 129.414062 48.664062 129.429688 48.667969 C 129.445312 48.671875 129.453125 48.6875 129.449219 48.703125 L 128.054688 54.265625 C 128.050781 54.277344 128.039062 54.285156 128.027344 54.285156 C 128.027344 54.285156 128.023438 54.285156 128.023438 54.285156 " fill-opacity="1" fill-rule="nonzero"/><path fill="#000000" d="M 128.964844 59.933594 C 128.960938 59.929688 128.957031 59.929688 128.957031 59.929688 C 128.945312 59.921875 128.9375 59.910156 128.941406 59.894531 L 132.265625 50.984375 C 132.269531 50.96875 132.285156 50.964844 132.300781 50.96875 C 132.3125 50.972656 132.320312 50.988281 132.316406 51.003906 L 129.074219 59.699219 L 132.445312 54.714844 C 132.453125 54.703125 132.46875 54.699219 132.484375 54.707031 C 132.496094 54.714844 132.5 54.734375 132.488281 54.746094 L 128.992188 59.921875 C 128.984375 59.929688 128.976562 59.933594 128.964844 59.933594 " fill-opacity="1" fill-rule="nonzero"/><path fill="#000000" d="M 138.113281 54.128906 C 138.105469 54.128906 138.101562 54.125 138.09375 54.121094 C 138.085938 54.109375 138.085938 54.097656 138.09375 54.085938 L 141.839844 48.96875 C 141.851562 48.957031 141.867188 48.953125 141.878906 48.960938 C 141.890625 48.972656 141.894531 48.988281 141.886719 49 L 138.210938 54.019531 L 143.742188 50.964844 C 143.753906 50.957031 143.773438 50.960938 143.777344 50.972656 C 143.785156 50.988281 143.78125 51.003906 143.769531 51.011719 L 138.128906 54.125 C 138.125 54.128906 138.117188 54.128906 138.113281 54.128906 " fill-opacity="1" fill-rule="nonzero"/><path fill="#000000" d="M 135.042969 56.847656 C 135.035156 56.847656 135.03125 56.84375 135.027344 56.839844 C 135.015625 56.832031 135.015625 56.8125 135.023438 56.804688 L 141.597656 48.246094 C 141.605469 48.234375 141.625 48.234375 141.636719 48.242188 C 141.648438 48.25 141.648438 48.269531 141.640625 48.28125 L 135.25 56.601562 L 143.230469 49.40625 C 143.242188 49.398438 143.257812 49.398438 143.269531 49.410156 C 143.277344 49.421875 143.277344 49.4375 143.265625 49.445312 L 135.0625 56.839844 C 135.058594 56.847656 135.050781 56.847656 135.042969 56.847656 " fill-opacity="1" fill-rule="nonzero"/><path fill="#000000" d="M 127.414062 64.566406 C 127.40625 64.566406 127.402344 64.5625 127.394531 64.558594 C 127.386719 64.546875 127.390625 64.527344 127.402344 64.519531 L 144.273438 50.957031 C 144.285156 50.945312 144.304688 50.949219 144.3125 50.960938 C 144.320312 50.972656 144.320312 50.988281 144.308594 51 L 127.433594 64.5625 C 127.429688 64.566406 127.421875 64.566406 127.414062 64.566406 " fill-opacity="1" fill-rule="nonzero"/><path fill="#000000" d="M 127.214844 64.535156 C 127.214844 64.535156 127.210938 64.535156 127.207031 64.53125 C 127.195312 64.527344 127.1875 64.507812 127.195312 64.496094 C 127.25 64.378906 134.230469 57.578125 135.027344 56.800781 C 135.039062 56.789062 135.054688 56.789062 135.066406 56.800781 C 135.074219 56.8125 135.074219 56.828125 135.066406 56.839844 C 132.398438 59.4375 127.339844 64.378906 127.242188 64.519531 C 127.238281 64.53125 127.226562 64.535156 127.214844 64.535156 " fill-opacity="1" fill-rule="nonzero"/><path fill="#000000" d="M 126.363281 64.109375 C 126.359375 64.105469 126.355469 64.105469 126.351562 64.105469 C 126.339844 64.097656 126.335938 64.078125 126.34375 64.066406 L 128.945312 59.890625 C 128.953125 59.878906 128.96875 59.875 128.984375 59.882812 C 128.996094 59.890625 129 59.90625 128.992188 59.921875 L 126.390625 64.09375 C 126.382812 64.105469 126.371094 64.109375 126.363281 64.109375 " fill-opacity="1" fill-rule="nonzero"/><path fill="#000000" d="M 126.847656 64.183594 C 126.84375 64.183594 126.839844 64.183594 126.835938 64.179688 C 126.824219 64.171875 126.820312 64.15625 126.828125 64.144531 L 135.34375 51.804688 C 135.351562 51.792969 135.367188 51.789062 135.382812 51.796875 C 135.394531 51.804688 135.398438 51.820312 135.386719 51.835938 L 126.875 64.171875 C 126.867188 64.183594 126.859375 64.1875 126.847656 64.183594 " fill-opacity="1" fill-rule="nonzero"/><path fill="#000000" d="M 126.859375 64.742188 C 126.859375 64.742188 126.855469 64.738281 126.855469 64.738281 C 126.839844 64.734375 126.832031 64.71875 126.839844 64.703125 C 126.886719 64.582031 134.433594 57.480469 135.296875 56.671875 C 135.304688 56.660156 135.324219 56.660156 135.332031 56.671875 C 135.34375 56.683594 135.34375 56.699219 135.332031 56.710938 C 132.457031 59.414062 126.996094 64.566406 126.890625 64.726562 C 126.882812 64.738281 126.871094 64.742188 126.859375 64.742188 " fill-opacity="1" fill-rule="nonzero"/><path fill="#000000" d="M 126.609375 64.628906 C 126.605469 64.625 126.597656 64.625 126.59375 64.617188 C 126.585938 64.605469 126.585938 64.589844 126.597656 64.578125 L 144.410156 50.09375 C 144.421875 50.082031 144.441406 50.085938 144.449219 50.097656 C 144.460938 50.109375 144.457031 50.125 144.445312 50.136719 L 126.632812 64.621094 C 126.625 64.625 126.617188 64.628906 126.609375 64.628906 " fill-opacity="1" fill-rule="nonzero"/><path fill="#000000" d="M 125.957031 64.335938 C 125.945312 64.332031 125.933594 64.320312 125.933594 64.308594 L 125.707031 54.507812 C 125.707031 54.492188 125.71875 54.480469 125.734375 54.480469 C 125.75 54.480469 125.761719 54.492188 125.761719 54.507812 L 125.988281 64.308594 C 125.988281 64.320312 125.976562 64.335938 125.964844 64.335938 C 125.960938 64.335938 125.960938 64.335938 125.957031 64.335938 " fill-opacity="1" fill-rule="nonzero"/><path fill="#000000" d="M 126.503906 64.609375 C 126.488281 64.609375 126.476562 64.59375 126.480469 64.582031 L 128 54.253906 C 128.003906 54.238281 128.015625 54.230469 128.03125 54.230469 C 128.046875 54.234375 128.058594 54.246094 128.054688 54.261719 L 126.535156 64.589844 C 126.53125 64.601562 126.519531 64.613281 126.503906 64.609375 " fill-opacity="1" fill-rule="nonzero"/><path fill="#000000" d="M 126.570312 64.878906 C 126.554688 64.875 126.546875 64.863281 126.546875 64.847656 L 128.648438 52.734375 C 128.652344 52.71875 128.664062 52.710938 128.679688 52.710938 C 128.695312 52.714844 128.707031 52.730469 128.703125 52.742188 L 126.601562 64.855469 C 126.597656 64.871094 126.585938 64.882812 126.570312 64.878906 " fill-opacity="1" fill-rule="nonzero"/><path fill="#000000" d="M 130.019531 54.125 C 130.019531 54.125 130.015625 54.125 130.015625 54.125 C 130.003906 54.117188 129.996094 54.105469 130 54.09375 L 131.480469 48.042969 C 131.484375 48.027344 131.5 48.019531 131.515625 48.023438 C 131.527344 48.023438 131.539062 48.039062 131.535156 48.054688 L 130.09375 53.941406 L 134.691406 46.648438 C 134.699219 46.636719 134.71875 46.632812 134.730469 46.640625 C 134.742188 46.648438 134.746094 46.664062 134.738281 46.675781 L 130.046875 54.113281 C 130.042969 54.121094 130.03125 54.128906 130.019531 54.125 " fill-opacity="1" fill-rule="nonzero"/><path fill="#000000" d="M 126.464844 64.863281 C 126.460938 64.863281 126.460938 64.863281 126.457031 64.863281 C 126.445312 64.855469 126.4375 64.839844 126.441406 64.828125 L 130 54.089844 C 130.003906 54.078125 130.019531 54.070312 130.035156 54.074219 C 130.046875 54.078125 130.054688 54.09375 130.050781 54.109375 L 126.492188 64.84375 C 126.488281 64.855469 126.476562 64.863281 126.464844 64.863281 " fill-opacity="1" fill-rule="nonzero"/></svg>