<svg xmlns="http://www.w3.org/2000/svg" xmlns:xlink="http://www.w3.org/1999/xlink" width="240" zoomAndPan="magnify" viewBox="0 0 180 179.999997" height="240" preserveAspectRatio="xMidYMid meet" version="1.0"><defs><clipPath id="72254ab8d8"><path d="M 26.183594 26.324219 L 153.816406 26.324219 L 153.816406 153.675781 L 26.183594 153.675781 Z M 26.183594 26.324219 " clip-rule="nonzero"/></clipPath><clipPath id="13c019e335"><path d="M 11.140625 33.332031 L 168.640625 33.332031 L 168.640625 136.082031 L 11.140625 136.082031 Z M 11.140625 33.332031 " clip-rule="nonzero"/></clipPath><clipPath id="7900faf466"><path d="M 70 46 L 108 46 L 108 153 L 70 153 Z M 70 46 " clip-rule="nonzero"/></clipPath><clipPath id="9440378ba9"><path d="M 22.019531 74.324219 L 90.8125 16.292969 L 157.546875 95.40625 L 88.75 153.4375 Z M 22.019531 74.324219 " clip-rule="nonzero"/></clipPath><clipPath id="b657f95ecc"><path d="M 22.019531 74.324219 L 90.8125 16.292969 L 157.546875 95.40625 L 88.75 153.4375 Z M 22.019531 74.324219 " clip-rule="nonzero"/></clipPath><clipPath id="e81a3a3179"><path d="M 22.019531 74.324219 L 90.8125 16.292969 L 157.546875 95.40625 L 88.75 153.4375 Z M 22.019531 74.324219 " clip-rule="nonzero"/></clipPath><clipPath id="5a337077d1"><path d="M 75 28 L 102 28 L 102 43 L 75 43 Z M 75 28 " clip-rule="nonzero"/></clipPath><clipPath id="eedeb61129"><path d="M 22.019531 74.324219 L 90.8125 16.292969 L 157.546875 95.40625 L 88.75 153.4375 Z M 22.019531 74.324219 " clip-rule="nonzero"/></clipPath><clipPath id="bc45a43509"><path d="M 22.019531 74.324219 L 90.8125 16.292969 L 157.546875 95.40625 L 88.75 153.4375 Z M 22.019531 74.324219 " clip-rule="nonzero"/></clipPath><clipPath id="15397dba12"><path d="M 22.019531 74.324219 L 90.8125 16.292969 L 157.546875 95.40625 L 88.75 153.4375 Z M 22.019531 74.324219 " clip-rule="nonzero"/></clipPath></defs><path fill="#a9bab4" d="M 18 18 L 162 18 L 162 162 L 18 162 Z M 18 18 " fill-opacity="1" fill-rule="nonzero"/><g clip-path="url(#72254ab8d8)"><path fill="#50665a" d="M 26.183594 26.324219 L 154.027344 26.324219 L 154.027344 153.675781 L 26.183594 153.675781 Z M 26.183594 26.324219 " fill-opacity="1" fill-rule="nonzero"/></g><g clip-path="url(#13c019e335)"><path fill="#ffffff" d="M 79.859375 136.433594 C 79.847656 136.433594 79.832031 136.433594 79.820312 136.433594 C 78.671875 136.414062 77.703125 135.582031 77.507812 134.453125 L 62.71875 49.238281 L 50.796875 113.550781 C 50.609375 114.574219 49.78125 115.351562 48.75 115.484375 C 47.722656 115.621094 46.722656 115.0625 46.28125 114.121094 L 31.21875 81.660156 L 27.683594 90.925781 C 27.328125 91.851562 26.4375 92.464844 25.449219 92.464844 L 13.554688 92.464844 C 12.234375 92.464844 11.164062 91.394531 11.164062 90.074219 C 11.164062 88.757812 12.234375 87.6875 13.554688 87.6875 L 23.804688 87.6875 L 28.769531 74.671875 C 29.117188 73.777344 29.960938 73.167969 30.917969 73.136719 C 31.820312 73.144531 32.761719 73.648438 33.171875 74.519531 L 47.464844 105.320312 L 60.449219 35.28125 C 60.65625 34.148438 61.644531 33.328125 62.796875 33.328125 C 62.800781 33.328125 62.804688 33.328125 62.808594 33.328125 C 63.964844 33.332031 64.949219 34.167969 65.148438 35.308594 L 80.082031 121.351562 L 89.082031 78.417969 C 89.3125 77.332031 90.257812 76.542969 91.367188 76.519531 C 91.386719 76.519531 91.40625 76.519531 91.421875 76.519531 C 92.507812 76.519531 93.464844 77.257812 93.734375 78.316406 L 98.730469 97.917969 L 103.164062 89.011719 C 103.570312 88.199219 104.398438 87.6875 105.304688 87.6875 L 119.417969 87.6875 L 123.039062 79.351562 C 123.457031 78.386719 124.457031 77.828125 125.5 77.929688 C 126.542969 78.050781 127.386719 78.839844 127.578125 79.871094 L 130.597656 96.253906 L 132.699219 88.734375 C 132.988281 87.703125 133.933594 86.988281 135 86.988281 L 166.425781 86.988281 C 167.746094 86.988281 168.816406 88.058594 168.816406 89.378906 C 168.816406 90.699219 167.746094 91.765625 166.425781 91.765625 L 136.8125 91.765625 L 132.414062 107.472656 C 132.113281 108.542969 131.214844 109.371094 130.003906 109.214844 C 128.894531 109.164062 127.964844 108.355469 127.769531 107.261719 L 124.296875 88.441406 L 123.175781 91.027344 C 122.800781 91.898438 121.9375 92.464844 120.988281 92.464844 L 106.78125 92.464844 L 100.148438 105.796875 C 99.699219 106.6875 98.746094 107.21875 97.753906 107.109375 C 96.765625 107.003906 95.941406 106.289062 95.695312 105.324219 L 91.648438 89.460938 L 82.199219 134.539062 C 81.964844 135.644531 80.988281 136.433594 79.859375 136.433594 " fill-opacity="1" fill-rule="nonzero"/></g><g clip-path="url(#7900faf466)"><g clip-path="url(#9440378ba9)"><g clip-path="url(#b657f95ecc)"><g clip-path="url(#e81a3a3179)"><path fill="#000000" d="M 103.882812 46.355469 L 74.070312 46.316406 C 72.332031 46.316406 70.925781 47.082031 70.921875 48.035156 L 70.917969 48.207031 C 70.917969 49.15625 72.328125 49.929688 74.0625 49.933594 L 78.539062 49.941406 L 78.527344 58.003906 L 85.6875 58.015625 L 85.679688 59.703125 L 78.519531 59.691406 L 78.511719 66.640625 L 85.671875 66.648438 L 85.675781 68.351562 L 78.515625 68.339844 L 78.507812 75.285156 L 85.667969 75.296875 L 85.671875 76.996094 L 78.511719 76.988281 L 78.503906 83.933594 L 85.664062 83.941406 L 85.667969 85.644531 L 78.507812 85.636719 L 78.5 92.582031 L 85.660156 92.589844 L 85.664062 94.292969 L 78.503906 94.28125 L 78.496094 101.226562 L 85.65625 101.238281 L 85.660156 102.9375 L 78.5 102.929688 L 78.492188 109.875 L 85.652344 109.882812 L 85.65625 111.585938 L 78.496094 111.578125 L 78.488281 121.449219 L 83.285156 121.453125 L 83.273438 131.210938 L 88.148438 131.21875 L 88.125 152.679688 L 89.640625 152.683594 L 89.667969 131.222656 L 94.542969 131.230469 L 94.554688 121.46875 L 99.351562 121.472656 L 99.421875 49.949219 L 103.894531 49.957031 C 105.632812 49.957031 107.039062 49.1875 107.046875 48.234375 L 107.050781 48.0625 C 107.023438 47.125 105.621094 46.355469 103.882812 46.355469 Z M 103.882812 46.355469 " fill-opacity="1" fill-rule="nonzero"/></g></g></g></g><g clip-path="url(#5a337077d1)"><g clip-path="url(#eedeb61129)"><g clip-path="url(#bc45a43509)"><g clip-path="url(#15397dba12)"><path fill="#000000" d="M 100.441406 28.621094 L 76.925781 28.585938 C 76.246094 28.582031 75.695312 29.132812 75.699219 29.808594 C 75.699219 30.488281 76.25 31.035156 76.925781 31.03125 L 81.332031 31.039062 L 81.320312 42.886719 L 96.015625 42.914062 L 96.027344 31.066406 L 100.433594 31.074219 C 101.113281 31.078125 101.660156 30.523438 101.65625 29.851562 C 101.664062 29.179688 101.117188 28.625 100.441406 28.621094 Z M 100.441406 28.621094 " fill-opacity="1" fill-rule="nonzero"/></g></g></g></g></svg>