<svg xmlns="http://www.w3.org/2000/svg" xmlns:xlink="http://www.w3.org/1999/xlink" width="240" zoomAndPan="magnify" viewBox="0 0 180 179.999997" height="240" preserveAspectRatio="xMidYMid meet" version="1.0"><defs><clipPath id="8cbc2aa9d5"><path d="M 26.183594 26.324219 L 153.816406 26.324219 L 153.816406 153.675781 L 26.183594 153.675781 Z M 26.183594 26.324219 " clip-rule="nonzero"/></clipPath><clipPath id="38de849025"><path d="M 46.96875 42.878906 L 141.46875 42.878906 L 141.46875 137.378906 L 46.96875 137.378906 Z M 46.96875 42.878906 " clip-rule="nonzero"/></clipPath><clipPath id="61ad9d5329"><path d="M 18 73.078125 L 162 73.078125 L 162 103.078125 L 18 103.078125 Z M 18 73.078125 " clip-rule="nonzero"/></clipPath></defs><path fill="#a9bab4" d="M 18 18 L 162 18 L 162 162 L 18 162 Z M 18 18 " fill-opacity="1" fill-rule="nonzero"/><g clip-path="url(#8cbc2aa9d5)"><path fill="#50665a" d="M 26.183594 26.324219 L 154.027344 26.324219 L 154.027344 153.675781 L 26.183594 153.675781 Z M 26.183594 26.324219 " fill-opacity="1" fill-rule="nonzero"/></g><g clip-path="url(#38de849025)"><path fill="#100f0d" d="M 123.09375 99.953125 C 123.09375 100.222656 122.875 100.441406 122.605469 100.441406 L 105.023438 100.441406 C 104.75 100.441406 104.53125 100.660156 104.53125 100.929688 L 104.53125 118.515625 C 104.53125 118.785156 104.3125 119.003906 104.042969 119.003906 L 84.398438 119.003906 C 84.125 119.003906 83.90625 118.785156 83.90625 118.515625 L 83.90625 100.929688 C 83.90625 100.660156 83.6875 100.441406 83.417969 100.441406 L 65.835938 100.441406 C 65.5625 100.441406 65.34375 100.222656 65.34375 99.953125 L 65.34375 80.304688 C 65.34375 80.035156 65.5625 79.816406 65.835938 79.816406 L 83.417969 79.816406 C 83.6875 79.816406 83.90625 79.597656 83.90625 79.328125 L 83.90625 61.742188 C 83.90625 61.472656 84.125 61.253906 84.398438 61.253906 L 104.042969 61.253906 C 104.3125 61.253906 104.53125 61.472656 104.53125 61.742188 L 104.53125 79.328125 C 104.53125 79.597656 104.75 79.816406 105.023438 79.816406 L 122.605469 79.816406 C 122.875 79.816406 123.09375 80.035156 123.09375 80.304688 Z M 94.21875 42.875 C 68.121094 42.875 46.96875 64.03125 46.96875 90.128906 C 46.96875 116.226562 68.121094 137.378906 94.21875 137.378906 C 120.316406 137.378906 141.472656 116.226562 141.472656 90.128906 C 141.472656 64.03125 120.316406 42.875 94.21875 42.875 " fill-opacity="1" fill-rule="nonzero"/></g><g clip-path="url(#61ad9d5329)"><path fill="#ffffff" d="M 161.335938 93.359375 C 160.671875 94.167969 159.460938 94.28125 158.652344 93.617188 C 158.566406 93.53125 158.480469 93.445312 158.394531 93.359375 C 158.046875 93.359375 157.730469 93.359375 157.382812 93.359375 C 153.917969 93.359375 150.457031 93.386719 147.023438 93.386719 C 146.648438 93.386719 146.273438 93.183594 146.097656 92.867188 C 145.957031 92.636719 145.839844 92.40625 145.695312 92.175781 C 145.089844 91.078125 144.484375 89.980469 143.847656 88.886719 C 143.097656 90.210938 142.375 91.539062 141.625 92.867188 C 141.453125 93.183594 141.078125 93.386719 140.703125 93.386719 C 140.472656 93.386719 140.210938 93.386719 139.980469 93.386719 C 139.953125 93.503906 139.925781 93.617188 139.894531 93.761719 C 139.316406 96.503906 138.769531 99.273438 138.191406 102.015625 C 138.105469 102.476562 137.613281 102.792969 137.152344 102.792969 C 136.71875 102.824219 136.171875 102.449219 136.113281 102.015625 C 136.113281 101.988281 136.113281 101.988281 136.113281 101.957031 C 136.027344 101.613281 136.027344 101.234375 135.96875 100.859375 C 135.855469 100.109375 135.769531 99.359375 135.652344 98.609375 C 135.335938 96.332031 135.019531 94.023438 134.699219 91.742188 C 134.324219 89.117188 133.980469 86.460938 133.605469 83.835938 C 133.460938 82.765625 133.316406 81.699219 133.171875 80.660156 C 132.621094 83.429688 132.074219 86.171875 131.527344 88.941406 C 131.035156 91.425781 130.546875 93.878906 130.054688 96.359375 C 129.882812 97.28125 128.523438 97.371094 128.09375 96.617188 C 127.484375 95.582031 126.878906 94.542969 126.273438 93.503906 C 125.957031 93.503906 125.609375 93.503906 125.292969 93.503906 C 124.832031 93.503906 124.515625 93.328125 124.226562 92.953125 C 124.167969 92.867188 124.082031 92.753906 124.023438 92.664062 C 123.707031 92.234375 123.386719 91.800781 123.101562 91.367188 C 122.898438 91.078125 122.667969 90.761719 122.464844 90.472656 C 121.972656 91.164062 121.484375 91.828125 120.992188 92.519531 C 120.648438 92.984375 120.359375 93.472656 119.695312 93.503906 C 119.378906 93.503906 119.089844 93.503906 118.769531 93.503906 C 117.414062 93.503906 116.058594 93.503906 114.671875 93.503906 C 113.808594 93.503906 112.972656 93.503906 112.105469 93.503906 C 108.871094 93.503906 105.640625 93.53125 102.410156 93.53125 C 102.035156 93.53125 101.660156 93.328125 101.484375 93.011719 C 101.339844 92.78125 101.226562 92.550781 101.082031 92.320312 C 100.476562 91.222656 99.871094 90.125 99.234375 89.03125 C 98.484375 90.355469 97.761719 91.683594 97.011719 93.011719 C 96.839844 93.328125 96.464844 93.53125 96.089844 93.53125 C 95.859375 93.53125 95.597656 93.53125 95.367188 93.53125 C 95.339844 93.648438 95.308594 93.761719 95.28125 93.90625 C 94.703125 96.648438 94.15625 99.417969 93.578125 102.160156 C 93.492188 102.621094 93 102.9375 92.539062 102.9375 C 92.105469 102.96875 91.558594 102.59375 91.5 102.160156 C 91.5 102.128906 91.5 102.128906 91.5 102.101562 C 91.414062 101.753906 91.414062 101.378906 91.355469 101.003906 C 91.242188 100.253906 91.152344 99.503906 91.039062 98.753906 C 90.722656 96.476562 90.402344 94.167969 90.085938 91.886719 C 89.710938 89.261719 89.363281 86.605469 88.988281 83.980469 C 88.84375 82.910156 88.703125 81.84375 88.558594 80.804688 C 88.007812 83.574219 87.460938 86.316406 86.914062 89.085938 C 86.421875 91.570312 85.929688 94.023438 85.441406 96.503906 C 85.265625 97.425781 83.910156 97.511719 83.476562 96.761719 C 82.871094 95.722656 82.265625 94.6875 81.660156 93.648438 C 81.34375 93.648438 80.996094 93.648438 80.679688 93.648438 C 80.21875 93.648438 79.898438 93.472656 79.609375 93.097656 C 79.554688 93.011719 79.46875 92.894531 79.410156 92.808594 C 79.089844 92.375 78.773438 91.945312 78.484375 91.511719 C 78.285156 91.222656 78.054688 90.90625 77.851562 90.617188 C 77.359375 91.308594 76.871094 91.972656 76.378906 92.664062 C 76.03125 93.128906 75.746094 93.617188 75.082031 93.648438 C 74.792969 93.648438 74.472656 93.648438 74.1875 93.648438 C 72.828125 93.648438 71.472656 93.648438 70.089844 93.648438 C 67.808594 93.648438 65.527344 93.648438 63.277344 93.675781 C 63.25 93.675781 63.21875 93.675781 63.191406 93.675781 C 61.921875 93.675781 60.679688 93.675781 59.410156 93.675781 C 59.035156 93.675781 58.660156 93.472656 58.488281 93.15625 C 58.34375 92.925781 58.226562 92.695312 58.082031 92.464844 C 57.476562 91.367188 56.871094 90.269531 56.238281 89.171875 C 55.484375 90.5 54.765625 91.828125 54.015625 93.15625 C 53.839844 93.472656 53.464844 93.675781 53.089844 93.675781 C 52.859375 93.675781 52.601562 93.675781 52.371094 93.675781 C 52.339844 93.789062 52.3125 93.90625 52.28125 94.050781 C 51.707031 96.792969 51.15625 99.5625 50.582031 102.304688 C 50.492188 102.765625 50.003906 103.082031 49.542969 103.082031 C 49.109375 103.113281 48.558594 102.738281 48.503906 102.304688 C 48.503906 102.273438 48.503906 102.273438 48.503906 102.246094 C 48.414062 101.898438 48.414062 101.523438 48.359375 101.148438 C 48.242188 100.398438 48.15625 99.648438 48.039062 98.898438 C 47.664062 96.503906 47.347656 94.195312 47.03125 91.914062 C 46.65625 89.289062 46.308594 86.632812 45.933594 84.007812 C 45.789062 82.941406 45.644531 81.871094 45.5 80.832031 C 44.953125 83.605469 44.40625 86.34375 43.855469 89.117188 C 43.367188 91.597656 42.875 94.050781 42.386719 96.53125 C 42.210938 97.457031 40.855469 97.542969 40.421875 96.792969 C 39.816406 95.753906 39.210938 94.714844 38.605469 93.675781 C 38.285156 93.675781 37.941406 93.675781 37.625 93.675781 C 37.160156 93.675781 36.84375 93.503906 36.554688 93.128906 C 36.496094 93.039062 36.410156 92.925781 36.351562 92.839844 C 36.035156 92.40625 35.71875 91.972656 35.429688 91.539062 C 35.226562 91.25 34.996094 90.933594 34.796875 90.644531 C 34.304688 91.339844 33.8125 92 33.324219 92.695312 C 32.976562 93.15625 32.6875 93.648438 32.023438 93.675781 C 31.734375 93.675781 31.417969 93.675781 31.128906 93.675781 C 29.773438 93.675781 28.417969 93.675781 27.03125 93.675781 C 25.300781 93.675781 23.570312 93.675781 21.839844 93.675781 C 21.808594 93.734375 21.75 93.789062 21.695312 93.847656 C 21 94.6875 19.789062 94.800781 18.953125 94.109375 C 18.117188 93.414062 18 92.203125 18.691406 91.367188 C 19.386719 90.53125 20.597656 90.414062 21.433594 91.105469 C 21.578125 91.222656 21.695312 91.367188 21.78125 91.511719 C 25.011719 91.511719 28.246094 91.511719 31.476562 91.511719 C 32.253906 90.414062 33.035156 89.347656 33.84375 88.25 C 34.332031 87.558594 35.199219 87.558594 35.691406 88.25 C 36.46875 89.347656 37.25 90.414062 38.027344 91.511719 C 38.34375 91.511719 38.691406 91.511719 39.007812 91.511719 C 39.46875 91.511719 39.875 91.625 40.132812 92.058594 C 40.191406 92.117188 40.21875 92.203125 40.25 92.261719 C 40.453125 92.578125 40.625 92.925781 40.828125 93.242188 C 41.578125 89.289062 42.355469 85.394531 43.136719 81.496094 C 43.625 79.015625 44.117188 76.5625 44.605469 74.082031 C 44.695312 73.621094 45.183594 73.300781 45.644531 73.300781 C 46.078125 73.273438 46.625 73.648438 46.683594 74.082031 C 46.683594 74.109375 46.683594 74.109375 46.683594 74.140625 C 46.769531 74.484375 46.769531 74.859375 46.828125 75.234375 C 46.945312 75.984375 47.03125 76.734375 47.144531 77.488281 C 47.464844 79.765625 47.78125 82.074219 48.097656 84.355469 C 48.472656 86.980469 48.820312 89.636719 49.195312 92.261719 C 49.339844 93.359375 49.511719 94.453125 49.65625 95.550781 C 49.886719 94.425781 50.117188 93.300781 50.347656 92.175781 C 50.4375 91.714844 50.957031 91.394531 51.386719 91.394531 C 51.707031 91.394531 52.050781 91.394531 52.371094 91.394531 C 52.398438 91.339844 52.425781 91.28125 52.457031 91.222656 C 53.378906 89.578125 54.304688 87.933594 55.199219 86.289062 C 55.601562 85.59375 56.667969 85.59375 57.042969 86.289062 C 57.1875 86.519531 57.304688 86.75 57.449219 86.980469 C 58.257812 88.453125 59.09375 89.925781 59.902344 91.394531 C 60.191406 91.394531 60.480469 91.394531 60.765625 91.394531 C 64.230469 91.394531 67.691406 91.367188 71.128906 91.367188 C 71.15625 91.367188 71.214844 91.367188 71.242188 91.367188 C 72.308594 91.367188 73.347656 91.367188 74.417969 91.367188 C 75.195312 90.269531 76.003906 89.203125 76.78125 88.105469 C 77.273438 87.414062 78.140625 87.414062 78.628906 88.105469 C 79.410156 89.203125 80.1875 90.269531 80.96875 91.367188 C 81.285156 91.367188 81.632812 91.367188 81.949219 91.367188 C 82.410156 91.367188 82.8125 91.480469 83.074219 91.914062 C 83.132812 91.972656 83.160156 92.058594 83.191406 92.117188 C 83.390625 92.433594 83.566406 92.78125 83.765625 93.097656 C 84.546875 89.203125 85.324219 85.308594 86.105469 81.410156 C 86.59375 78.929688 87.085938 76.476562 87.574219 73.996094 C 87.664062 73.53125 88.152344 73.214844 88.613281 73.214844 C 89.046875 73.1875 89.597656 73.5625 89.652344 73.996094 C 89.652344 74.023438 89.652344 74.023438 89.652344 74.050781 C 89.742188 74.398438 89.742188 74.773438 89.796875 75.148438 C 89.914062 75.898438 90 76.648438 90.117188 77.398438 C 90.433594 79.679688 90.75 81.988281 91.066406 84.269531 C 91.441406 86.894531 91.789062 89.550781 92.164062 92.175781 C 92.308594 93.273438 92.480469 94.367188 92.625 95.464844 C 92.855469 94.339844 93.085938 93.214844 93.320312 92.089844 C 93.40625 91.625 93.925781 91.308594 94.359375 91.308594 C 94.675781 91.308594 95.019531 91.308594 95.339844 91.308594 C 95.367188 91.25 95.394531 91.195312 95.425781 91.136719 C 96.347656 89.492188 97.273438 87.847656 98.167969 86.203125 C 98.570312 85.507812 99.636719 85.507812 100.011719 86.203125 C 100.15625 86.433594 100.273438 86.664062 100.417969 86.894531 C 101.226562 88.367188 102.0625 89.835938 102.871094 91.308594 C 103.160156 91.308594 103.449219 91.308594 103.734375 91.308594 C 105.035156 91.308594 106.304688 91.308594 107.601562 91.28125 C 107.632812 91.28125 107.660156 91.28125 107.691406 91.28125 C 108.179688 91.28125 108.671875 91.28125 109.160156 91.28125 C 110.085938 91.28125 111.007812 91.28125 111.933594 91.28125 C 112.652344 91.28125 113.375 91.28125 114.097656 91.28125 C 114.097656 91.28125 114.125 91.28125 114.125 91.28125 C 115.742188 91.28125 117.355469 91.28125 118.972656 91.28125 C 119.753906 90.183594 120.53125 89.117188 121.339844 88.019531 C 121.828125 87.328125 122.695312 87.328125 123.1875 88.019531 C 123.964844 89.117188 124.746094 90.183594 125.523438 91.28125 C 125.839844 91.28125 126.1875 91.28125 126.503906 91.28125 C 126.964844 91.28125 127.371094 91.394531 127.628906 91.828125 C 127.6875 91.886719 127.71875 91.972656 127.746094 92.03125 C 127.949219 92.347656 128.121094 92.695312 128.324219 93.011719 C 129.101562 89.117188 129.882812 85.21875 130.660156 81.324219 C 131.152344 78.84375 131.640625 76.390625 132.132812 73.90625 C 132.21875 73.445312 132.710938 73.128906 133.171875 73.128906 C 133.605469 73.101562 134.152344 73.476562 134.210938 73.90625 C 134.210938 73.9375 134.210938 73.9375 134.210938 73.964844 C 134.296875 74.3125 134.296875 74.6875 134.355469 75.0625 C 134.46875 75.8125 134.554688 76.5625 134.671875 77.3125 C 134.988281 79.59375 135.304688 81.902344 135.625 84.179688 C 136 86.808594 136.34375 89.460938 136.71875 92.089844 C 136.863281 93.183594 137.039062 94.28125 137.183594 95.378906 C 137.414062 94.253906 137.644531 93.128906 137.875 92 C 137.960938 91.539062 138.480469 91.222656 138.914062 91.222656 C 139.230469 91.222656 139.578125 91.222656 139.894531 91.222656 C 139.921875 91.164062 139.953125 91.105469 139.980469 91.050781 C 140.90625 89.40625 141.828125 87.757812 142.722656 86.113281 C 143.128906 85.421875 144.195312 85.421875 144.570312 86.113281 C 144.714844 86.34375 144.828125 86.578125 144.972656 86.808594 C 145.78125 88.277344 146.617188 89.75 147.425781 91.222656 C 147.714844 91.222656 148.003906 91.222656 148.292969 91.222656 C 151.523438 91.222656 154.785156 91.195312 158.019531 91.195312 C 158.074219 91.105469 158.132812 91.019531 158.191406 90.933594 C 158.855469 90.125 160.066406 90.011719 160.875 90.675781 C 161.882812 91.367188 162 92.550781 161.335938 93.359375 Z M 161.335938 93.359375 " fill-opacity="1" fill-rule="nonzero"/></g></svg>