<svg xmlns="http://www.w3.org/2000/svg" xmlns:xlink="http://www.w3.org/1999/xlink" width="240" zoomAndPan="magnify" viewBox="0 0 180 179.999997" height="240" preserveAspectRatio="xMidYMid meet" version="1.0"><defs><clipPath id="3599341fa5"><path d="M 26.183594 26.324219 L 153.816406 26.324219 L 153.816406 153.675781 L 26.183594 153.675781 Z M 26.183594 26.324219 " clip-rule="nonzero"/></clipPath><clipPath id="568b9f50a5"><path d="M 107 46 L 149.492188 46 L 149.492188 134.429688 L 107 134.429688 Z M 107 46 " clip-rule="nonzero"/></clipPath></defs><path fill="#a9bab4" d="M 18 18 L 162 18 L 162 162 L 18 162 Z M 18 18 " fill-opacity="1" fill-rule="nonzero"/><g clip-path="url(#3599341fa5)"><path fill="#50665a" d="M 26.183594 26.324219 L 154.027344 26.324219 L 154.027344 153.675781 L 26.183594 153.675781 Z M 26.183594 26.324219 " fill-opacity="1" fill-rule="nonzero"/></g><path fill="#ffffff" d="M 20.460938 72.117188 C 20.460938 72.117188 42.734375 54.414062 46.679688 55.808594 C 50.625 57.199219 60.957031 40.953125 64.207031 43.621094 C 67.457031 46.289062 68.152344 51.28125 71.519531 49.074219 C 74.886719 46.871094 93.804688 26.324219 97.519531 30.503906 C 101.234375 34.683594 109.824219 46.289062 114.234375 45.476562 C 118.644531 44.664062 120.386719 51.011719 123.519531 51.03125 C 126.652344 51.050781 130.019531 42.34375 133.269531 44.433594 C 136.519531 46.523438 140.816406 50.703125 144.296875 53.71875 C 147.777344 56.734375 163.679688 72.636719 161.359375 72.117188 C 159.039062 71.59375 155.324219 65.09375 150.449219 64.976562 C 145.574219 64.863281 144.296875 63.003906 147.3125 66.136719 C 150.332031 69.273438 154.277344 73.566406 148.707031 68.925781 C 143.136719 64.28125 142.4375 65.441406 138.027344 61.378906 C 133.617188 57.316406 134.199219 55.113281 129.207031 54.414062 C 124.214844 53.71875 122.417969 52.730469 124.96875 55.515625 C 127.523438 58.304688 129.148438 60.683594 129.148438 60.683594 C 129.148438 60.683594 131.933594 64.863281 127.988281 60.683594 C 124.042969 56.503906 122.648438 54.996094 121.082031 54.414062 C 119.515625 53.835938 118.410156 50.875 118.355469 50.46875 C 118.296875 50.0625 117.949219 46.753906 115.335938 46.753906 C 112.726562 46.753906 111.910156 46.8125 111.910156 47.800781 C 111.910156 48.785156 109.300781 47.625 108.488281 46.929688 C 107.675781 46.230469 96.53125 31.144531 95.546875 32.941406 C 94.558594 34.742188 95.140625 34.800781 95.140625 36.308594 C 95.140625 37.816406 98.390625 39.675781 99.726562 42.34375 C 101.058594 45.011719 99.550781 42.460938 101.234375 45.765625 C 102.917969 49.074219 104.542969 50.292969 100.480469 47.449219 C 96.417969 44.609375 95.199219 40.082031 93.398438 40.835938 C 91.601562 41.589844 93.109375 41.300781 92.179688 43.792969 C 91.253906 46.289062 93.050781 43.792969 92.992188 47.394531 C 92.933594 50.992188 98.273438 50.089844 101.058594 54.445312 C 103.84375 58.796875 104.628906 59.144531 106.980469 60.539062 C 109.328125 61.929688 112.289062 64.28125 109.675781 62.976562 C 107.066406 61.671875 102.191406 61.234375 99.753906 59.230469 C 97.316406 57.230469 96.359375 58.011719 96.097656 60.015625 C 95.835938 62.019531 99.839844 61.320312 99.492188 63.238281 C 99.144531 65.152344 100.972656 64.542969 105.238281 69.589844 C 109.503906 74.640625 110.375 74.03125 106.28125 72.117188 C 102.191406 70.203125 101.496094 67.328125 97.316406 66.285156 C 93.136719 65.238281 92.875 64.28125 88.351562 63.0625 C 83.824219 61.84375 86.78125 68.808594 83.125 65.238281 C 79.46875 61.671875 74.855469 56.707031 72.332031 55.316406 C 69.808594 53.921875 69.894531 54.964844 67.632812 52.875 C 65.367188 50.789062 63.800781 49.453125 64.757812 51.730469 C 65.714844 54.007812 67.71875 56.011719 68.851562 58.535156 C 69.980469 61.058594 68.589844 60.320312 69.414062 61.539062 C 70.242188 62.757812 70.632812 63.019531 70.980469 64.105469 C 71.332031 65.195312 71.289062 65.28125 70.023438 64.019531 C 68.761719 62.757812 68.242188 62.714844 68.109375 61.84375 C 67.980469 60.972656 67.980469 62.019531 65.890625 60.625 C 63.800781 59.230469 62.84375 58.40625 60.578125 57.839844 C 58.316406 57.273438 58.882812 55.96875 57.578125 56.96875 C 56.269531 57.96875 56.226562 56.796875 55.792969 58.273438 C 55.355469 59.753906 57.488281 59.1875 58.621094 60.800781 C 59.753906 62.410156 58.140625 61.582031 61.582031 64.105469 C 65.019531 66.632812 63.234375 65.933594 65.0625 67.546875 C 66.890625 69.15625 68.328125 69.15625 69.414062 70.984375 C 70.503906 72.8125 71.941406 75.25 69.808594 72.988281 C 67.675781 70.722656 67.414062 70.460938 65.238281 70.289062 C 63.0625 70.113281 62.710938 71.550781 61.058594 69.941406 C 59.402344 68.328125 54.484375 68.632812 52.394531 66.328125 C 50.308594 64.019531 48.609375 60.84375 45.214844 62.234375 C 41.820312 63.628906 39.511719 60.753906 38.078125 62.628906 C 36.640625 64.5 37.902344 62.800781 39.859375 65.066406 C 41.820312 67.328125 42.515625 66.894531 42.953125 67.808594 C 43.386719 68.722656 43.386719 68.066406 41.296875 67.328125 C 39.207031 66.589844 40.210938 66.328125 39.207031 66.589844 C 38.207031 66.847656 36.160156 63.367188 32.027344 66.109375 C 27.890625 68.851562 29.109375 66.589844 26.191406 68.546875 C 23.277344 70.503906 19.34375 73.726562 20.460938 72.117188 " fill-opacity="1" fill-rule="nonzero"/><path fill="#000000" d="M 45.921875 119.734375 C 46.230469 120.660156 46.605469 121.554688 47.054688 122.417969 C 47.503906 123.285156 48.015625 124.109375 48.589844 124.894531 C 49.164062 125.679688 49.796875 126.414062 50.488281 127.097656 C 51.179688 127.785156 51.917969 128.410156 52.707031 128.980469 C 53.492188 129.546875 54.320312 130.050781 55.1875 130.488281 C 56.050781 130.929688 56.945312 131.296875 57.871094 131.59375 C 58.792969 131.890625 59.734375 132.113281 60.691406 132.265625 C 61.648438 132.414062 62.613281 132.488281 63.582031 132.484375 L 81.949219 132.484375 C 82.5625 132.484375 83.171875 132.453125 83.78125 132.394531 C 84.386719 132.332031 84.992188 132.242188 85.589844 132.121094 C 86.191406 132 86.78125 131.851562 87.367188 131.671875 C 87.949219 131.492188 88.527344 131.285156 89.089844 131.050781 C 89.65625 130.816406 90.207031 130.554688 90.746094 130.261719 C 91.285156 129.972656 91.808594 129.65625 92.316406 129.316406 C 92.824219 128.972656 93.3125 128.605469 93.785156 128.21875 C 94.257812 127.828125 94.710938 127.414062 95.140625 126.980469 C 95.574219 126.542969 95.984375 126.089844 96.371094 125.613281 C 96.761719 125.140625 97.125 124.644531 97.464844 124.132812 C 97.804688 123.625 98.117188 123.097656 98.40625 122.554688 C 98.695312 122.011719 98.953125 121.457031 99.1875 120.890625 C 99.421875 120.320312 99.628906 119.742188 99.804688 119.15625 C 99.984375 118.566406 100.132812 117.96875 100.253906 117.367188 C 100.371094 116.765625 100.460938 116.15625 100.523438 115.546875 C 100.582031 114.933594 100.613281 114.320312 100.613281 113.703125 L 100.613281 106.824219 C 101.363281 105.964844 101.941406 105 102.347656 103.933594 C 102.75 102.867188 102.960938 101.761719 102.972656 100.617188 L 102.972656 85.910156 C 102.96875 84.761719 102.765625 83.652344 102.359375 82.578125 C 101.953125 81.503906 101.371094 80.539062 100.613281 79.679688 L 100.613281 73.019531 C 100.613281 72.402344 100.582031 71.789062 100.523438 71.179688 C 100.460938 70.566406 100.371094 69.960938 100.253906 69.355469 C 100.132812 68.753906 99.984375 68.15625 99.804688 67.570312 C 99.628906 66.980469 99.421875 66.402344 99.1875 65.835938 C 98.953125 65.265625 98.695312 64.710938 98.40625 64.167969 C 98.117188 63.628906 97.804688 63.101562 97.464844 62.589844 C 97.125 62.078125 96.761719 61.585938 96.371094 61.109375 C 95.984375 60.632812 95.574219 60.179688 95.140625 59.746094 C 94.710938 59.308594 94.257812 58.898438 93.785156 58.507812 C 93.3125 58.117188 92.824219 57.75 92.316406 57.410156 C 91.808594 57.066406 91.285156 56.75 90.746094 56.460938 C 90.207031 56.171875 89.65625 55.910156 89.089844 55.671875 C 88.527344 55.4375 87.949219 55.230469 87.367188 55.050781 C 86.78125 54.871094 86.191406 54.722656 85.589844 54.601562 C 84.992188 54.480469 84.386719 54.390625 83.78125 54.332031 C 83.171875 54.269531 82.5625 54.238281 81.949219 54.238281 L 49.867188 54.238281 C 49.132812 54.238281 48.394531 54.28125 47.664062 54.367188 C 46.929688 54.457031 46.207031 54.585938 45.488281 54.761719 C 44.769531 54.933594 44.066406 55.152344 43.375 55.410156 C 42.683594 55.667969 42.007812 55.964844 41.351562 56.304688 C 40.695312 56.644531 40.0625 57.019531 39.449219 57.433594 C 38.835938 57.847656 38.25 58.296875 37.691406 58.785156 C 37.132812 59.269531 36.605469 59.785156 36.105469 60.332031 C 35.609375 60.878906 35.144531 61.457031 34.714844 62.058594 C 34.285156 62.660156 33.890625 63.289062 33.535156 63.9375 C 33.179688 64.589844 32.863281 65.257812 32.585938 65.945312 C 32.308594 66.632812 32.074219 67.335938 31.878906 68.054688 C 31.683594 68.769531 31.53125 69.496094 31.425781 70.230469 C 31.316406 70.964844 31.25 71.703125 31.230469 72.445312 C 31.207031 73.1875 31.230469 73.925781 31.296875 74.667969 C 31.363281 75.40625 31.472656 76.136719 31.625 76.863281 C 31.777344 77.589844 31.96875 78.304688 32.207031 79.007812 Z M 87.292969 78.8125 C 86.285156 79.710938 85.5 80.78125 84.945312 82.015625 C 84.390625 83.253906 84.113281 84.550781 84.113281 85.910156 L 84.113281 100.617188 C 84.109375 101.976562 84.386719 103.273438 84.941406 104.511719 C 85.5 105.75 86.28125 106.816406 87.292969 107.714844 L 87.292969 113.703125 C 87.292969 114.058594 87.257812 114.40625 87.191406 114.753906 C 87.121094 115.097656 87.019531 115.4375 86.886719 115.761719 C 86.75 116.085938 86.585938 116.398438 86.390625 116.691406 C 86.195312 116.984375 85.976562 117.253906 85.726562 117.503906 C 85.480469 117.753906 85.210938 117.976562 84.917969 118.175781 C 84.625 118.371094 84.320312 118.535156 83.996094 118.671875 C 83.671875 118.804688 83.335938 118.910156 82.992188 118.976562 C 82.648438 119.046875 82.300781 119.082031 81.949219 119.082031 L 63.582031 119.082031 C 63.023438 119.082031 62.480469 118.996094 61.945312 118.824219 C 61.414062 118.65625 60.921875 118.40625 60.46875 118.082031 C 60.015625 117.753906 59.621094 117.367188 59.285156 116.917969 C 58.953125 116.464844 58.695312 115.976562 58.511719 115.445312 L 44.820312 74.71875 C 44.683594 74.316406 44.601562 73.902344 44.5625 73.480469 C 44.527344 73.054688 44.539062 72.632812 44.601562 72.210938 C 44.664062 71.792969 44.777344 71.382812 44.933594 70.988281 C 45.09375 70.59375 45.296875 70.226562 45.542969 69.878906 C 45.789062 69.535156 46.074219 69.222656 46.394531 68.945312 C 46.714844 68.667969 47.0625 68.429688 47.4375 68.238281 C 47.8125 68.042969 48.207031 67.894531 48.617188 67.792969 C 49.03125 67.691406 49.445312 67.644531 49.867188 67.640625 L 81.949219 67.640625 C 82.300781 67.640625 82.648438 67.675781 82.992188 67.746094 C 83.335938 67.816406 83.671875 67.917969 83.996094 68.054688 C 84.320312 68.1875 84.625 68.355469 84.917969 68.550781 C 85.210938 68.746094 85.480469 68.96875 85.726562 69.21875 C 85.976562 69.46875 86.195312 69.738281 86.390625 70.03125 C 86.585938 70.328125 86.75 70.636719 86.886719 70.960938 C 87.019531 71.289062 87.121094 71.625 87.191406 71.96875 C 87.257812 72.316406 87.292969 72.667969 87.292969 73.019531 Z M 97.3125 81.894531 C 97.351562 81.933594 97.390625 81.953125 97.429688 81.996094 C 98.371094 82.957031 98.894531 84.109375 99.003906 85.453125 L 92.441406 85.453125 C 92.179688 85.453125 91.929688 85.503906 91.691406 85.605469 C 91.449219 85.703125 91.238281 85.847656 91.050781 86.035156 C 90.867188 86.21875 90.726562 86.433594 90.625 86.675781 C 90.527344 86.917969 90.476562 87.167969 90.476562 87.429688 L 90.476562 99.113281 C 90.476562 99.378906 90.527344 99.628906 90.625 99.871094 C 90.726562 100.113281 90.867188 100.328125 91.050781 100.511719 C 91.238281 100.699219 91.449219 100.839844 91.691406 100.941406 C 91.929688 101.042969 92.179688 101.089844 92.441406 101.089844 L 98.984375 101.089844 C 98.882812 102.496094 98.328125 103.679688 97.3125 104.648438 C 97.292969 104.671875 97.273438 104.671875 97.253906 104.691406 C 96.789062 105.109375 96.269531 105.441406 95.691406 105.683594 C 95.117188 105.925781 94.519531 106.070312 93.894531 106.109375 C 93.269531 106.152344 92.660156 106.089844 92.054688 105.925781 C 91.453125 105.757812 90.894531 105.5 90.378906 105.144531 C 89.644531 104.625 89.074219 103.96875 88.660156 103.167969 C 88.246094 102.367188 88.042969 101.519531 88.039062 100.617188 L 88.039062 85.910156 C 88.039062 85.003906 88.25 84.152344 88.664062 83.351562 C 89.082031 82.550781 89.660156 81.894531 90.398438 81.382812 C 91.335938 80.695312 92.382812 80.359375 93.542969 80.375 C 94.964844 80.386719 96.199219 80.875 97.253906 81.835938 Z M 97.3125 81.894531 " fill-opacity="1" fill-rule="nonzero"/><g clip-path="url(#568b9f50a5)"><path fill="#000000" d="M 113.148438 109.277344 C 112.160156 111.90625 111.628906 114.628906 111.558594 117.441406 C 111.558594 117.996094 111.582031 118.546875 111.636719 119.097656 C 111.691406 119.648438 111.773438 120.195312 111.878906 120.738281 C 111.988281 121.28125 112.121094 121.816406 112.28125 122.347656 C 112.441406 122.878906 112.625 123.398438 112.835938 123.910156 C 113.046875 124.421875 113.28125 124.921875 113.539062 125.410156 C 113.800781 125.898438 114.082031 126.371094 114.386719 126.832031 C 114.691406 127.292969 115.019531 127.734375 115.371094 128.164062 C 115.71875 128.59375 116.085938 129 116.476562 129.394531 C 116.867188 129.785156 117.273438 130.15625 117.699219 130.507812 C 118.125 130.859375 118.566406 131.1875 119.023438 131.496094 C 119.480469 131.804688 119.949219 132.085938 120.4375 132.347656 C 120.921875 132.609375 121.417969 132.84375 121.925781 133.058594 C 122.433594 133.269531 122.953125 133.457031 123.476562 133.617188 C 124.003906 133.777344 124.539062 133.910156 125.078125 134.019531 C 125.617188 134.128906 126.160156 134.207031 126.707031 134.261719 C 127.253906 134.316406 127.804688 134.34375 128.355469 134.34375 C 128.902344 134.34375 129.453125 134.316406 130 134.261719 C 130.546875 134.207031 131.089844 134.128906 131.632812 134.019531 C 132.171875 133.910156 132.703125 133.777344 133.230469 133.617188 C 133.757812 133.457031 134.273438 133.269531 134.78125 133.058594 C 135.289062 132.84375 135.785156 132.609375 136.273438 132.347656 C 136.757812 132.085938 137.226562 131.804688 137.6875 131.496094 C 138.144531 131.1875 138.585938 130.859375 139.011719 130.507812 C 139.433594 130.15625 139.84375 129.785156 140.230469 129.394531 C 140.621094 129 140.988281 128.59375 141.339844 128.164062 C 141.6875 127.734375 142.015625 127.292969 142.320312 126.832031 C 142.625 126.371094 142.910156 125.898438 143.167969 125.410156 C 143.425781 124.921875 143.660156 124.421875 143.871094 123.910156 C 144.082031 123.398438 144.269531 122.878906 144.429688 122.347656 C 144.585938 121.816406 144.722656 121.28125 144.828125 120.738281 C 144.9375 120.195312 145.015625 119.648438 145.070312 119.097656 C 145.125 118.546875 145.152344 117.996094 145.152344 117.441406 C 145.078125 114.628906 144.546875 111.90625 143.558594 109.277344 C 144.359375 109.027344 145.101562 108.660156 145.785156 108.175781 C 146.46875 107.6875 147.0625 107.105469 147.558594 106.425781 C 148.058594 105.75 148.441406 105.011719 148.703125 104.210938 C 148.964844 103.410156 149.097656 102.585938 149.101562 101.746094 C 149.097656 100.601562 148.859375 99.511719 148.382812 98.476562 C 147.90625 97.441406 147.234375 96.550781 146.367188 95.8125 C 146.796875 95.449219 147.179688 95.039062 147.519531 94.589844 C 147.859375 94.140625 148.148438 93.660156 148.382812 93.144531 C 148.621094 92.632812 148.796875 92.101562 148.917969 91.546875 C 149.039062 90.996094 149.101562 90.4375 149.101562 89.871094 C 149.101562 89.308594 149.039062 88.75 148.917969 88.195312 C 148.796875 87.644531 148.621094 87.113281 148.382812 86.601562 C 148.148438 86.085938 147.859375 85.605469 147.519531 85.15625 C 147.179688 84.707031 146.796875 84.296875 146.367188 83.933594 C 146.894531 83.480469 147.351562 82.96875 147.742188 82.394531 C 148.132812 81.820312 148.441406 81.207031 148.667969 80.550781 C 148.894531 79.894531 149.03125 79.21875 149.082031 78.523438 C 149.128906 77.832031 149.089844 77.144531 148.953125 76.460938 C 148.820312 75.78125 148.601562 75.128906 148.296875 74.503906 C 147.992188 73.878906 147.609375 73.308594 147.152344 72.785156 C 146.695312 72.265625 146.179688 71.8125 145.605469 71.429688 C 145.027344 71.046875 144.410156 70.746094 143.757812 70.527344 C 144.621094 68.066406 145.085938 65.527344 145.152344 62.917969 C 145.152344 62.363281 145.125 61.8125 145.070312 61.261719 C 145.015625 60.710938 144.9375 60.164062 144.828125 59.621094 C 144.722656 59.078125 144.585938 58.539062 144.429688 58.011719 C 144.269531 57.480469 144.082031 56.960938 143.871094 56.449219 C 143.660156 55.9375 143.425781 55.4375 143.167969 54.949219 C 142.910156 54.460938 142.625 53.988281 142.320312 53.527344 C 142.015625 53.066406 141.6875 52.621094 141.339844 52.195312 C 140.988281 51.765625 140.621094 51.355469 140.230469 50.964844 C 139.84375 50.574219 139.433594 50.203125 139.011719 49.851562 C 138.585938 49.5 138.144531 49.171875 137.6875 48.863281 C 137.226562 48.554688 136.757812 48.269531 136.273438 48.011719 C 135.785156 47.75 135.289062 47.511719 134.78125 47.300781 C 134.273438 47.089844 133.757812 46.902344 133.230469 46.742188 C 132.703125 46.582031 132.171875 46.445312 131.632812 46.339844 C 131.089844 46.230469 130.546875 46.148438 130 46.09375 C 129.453125 46.042969 128.902344 46.015625 128.355469 46.015625 C 127.804688 46.015625 127.253906 46.042969 126.707031 46.09375 C 126.160156 46.148438 125.617188 46.230469 125.078125 46.339844 C 124.539062 46.445312 124.003906 46.582031 123.476562 46.742188 C 122.953125 46.902344 122.433594 47.089844 121.925781 47.300781 C 121.417969 47.511719 120.921875 47.75 120.4375 48.011719 C 119.949219 48.269531 119.480469 48.554688 119.023438 48.863281 C 118.566406 49.171875 118.125 49.5 117.699219 49.851562 C 117.273438 50.203125 116.867188 50.574219 116.476562 50.964844 C 116.085938 51.355469 115.71875 51.765625 115.371094 52.195312 C 115.019531 52.621094 114.691406 53.066406 114.386719 53.527344 C 114.082031 53.988281 113.800781 54.460938 113.539062 54.949219 C 113.28125 55.4375 113.046875 55.9375 112.835938 56.449219 C 112.625 56.960938 112.441406 57.480469 112.28125 58.011719 C 112.121094 58.539062 111.988281 59.078125 111.878906 59.621094 C 111.773438 60.164062 111.691406 60.710938 111.636719 61.261719 C 111.582031 61.8125 111.558594 62.363281 111.558594 62.917969 C 111.625 65.527344 112.082031 68.0625 112.933594 70.527344 C 112.277344 70.746094 111.660156 71.046875 111.082031 71.429688 C 110.507812 71.8125 109.992188 72.265625 109.535156 72.785156 C 109.078125 73.308594 108.695312 73.878906 108.390625 74.503906 C 108.085938 75.128906 107.867188 75.78125 107.734375 76.460938 C 107.601562 77.144531 107.558594 77.832031 107.605469 78.523438 C 107.65625 79.21875 107.792969 79.894531 108.019531 80.550781 C 108.25 81.207031 108.558594 81.820312 108.945312 82.394531 C 109.335938 82.96875 109.792969 83.480469 110.320312 83.933594 C 109.890625 84.296875 109.507812 84.707031 109.167969 85.15625 C 108.828125 85.605469 108.539062 86.085938 108.304688 86.601562 C 108.066406 87.113281 107.890625 87.644531 107.769531 88.195312 C 107.648438 88.75 107.589844 89.308594 107.589844 89.871094 C 107.589844 90.4375 107.648438 90.996094 107.769531 91.546875 C 107.890625 92.101562 108.066406 92.632812 108.304688 93.144531 C 108.539062 93.660156 108.828125 94.140625 109.167969 94.589844 C 109.507812 95.039062 109.890625 95.449219 110.320312 95.8125 C 109.785156 96.269531 109.324219 96.789062 108.929688 97.375 C 108.539062 97.957031 108.230469 98.582031 108.003906 99.246094 C 107.777344 99.914062 107.644531 100.601562 107.601562 101.304688 C 107.5625 102.003906 107.613281 102.703125 107.757812 103.390625 C 107.902344 104.078125 108.136719 104.738281 108.457031 105.363281 C 108.777344 105.988281 109.175781 106.5625 109.648438 107.078125 C 110.125 107.597656 110.65625 108.042969 111.25 108.414062 C 111.84375 108.789062 112.476562 109.074219 113.148438 109.277344 Z M 128.355469 122.996094 C 127.992188 122.996094 127.632812 122.960938 127.277344 122.890625 C 126.921875 122.816406 126.578125 122.710938 126.242188 122.574219 C 125.90625 122.433594 125.589844 122.261719 125.289062 122.058594 C 124.988281 121.855469 124.707031 121.625 124.453125 121.367188 C 124.195312 121.109375 123.964844 120.828125 123.765625 120.527344 C 123.5625 120.222656 123.394531 119.902344 123.253906 119.566406 C 123.117188 119.230469 123.011719 118.882812 122.941406 118.523438 C 122.871094 118.167969 122.832031 117.804688 122.832031 117.441406 C 123.027344 114.621094 123.898438 112.03125 125.445312 109.671875 L 131.242188 109.671875 C 132.796875 112.027344 133.671875 114.617188 133.875 117.441406 C 133.875 117.804688 133.839844 118.167969 133.769531 118.523438 C 133.695312 118.882812 133.59375 119.230469 133.453125 119.566406 C 133.3125 119.902344 133.144531 120.222656 132.941406 120.527344 C 132.742188 120.828125 132.511719 121.109375 132.257812 121.367188 C 132 121.625 131.722656 121.855469 131.421875 122.058594 C 131.117188 122.261719 130.800781 122.433594 130.464844 122.574219 C 130.132812 122.710938 129.785156 122.816406 129.429688 122.890625 C 129.074219 122.960938 128.714844 122.996094 128.355469 122.996094 Z M 128.355469 57.363281 C 128.714844 57.363281 129.074219 57.398438 129.429688 57.46875 C 129.785156 57.539062 130.132812 57.644531 130.464844 57.785156 C 130.800781 57.925781 131.117188 58.097656 131.421875 58.300781 C 131.722656 58.5 132 58.730469 132.257812 58.988281 C 132.511719 59.246094 132.742188 59.527344 132.941406 59.832031 C 133.144531 60.136719 133.3125 60.453125 133.453125 60.792969 C 133.59375 61.128906 133.695312 61.476562 133.769531 61.832031 C 133.839844 62.191406 133.875 62.550781 133.875 62.917969 C 133.703125 65.480469 132.960938 67.867188 131.65625 70.074219 L 125.054688 70.074219 C 123.746094 67.867188 123.007812 65.480469 122.832031 62.917969 C 122.832031 62.550781 122.871094 62.191406 122.941406 61.832031 C 123.011719 61.476562 123.117188 61.128906 123.253906 60.792969 C 123.394531 60.453125 123.5625 60.136719 123.765625 59.832031 C 123.964844 59.527344 124.195312 59.246094 124.453125 58.988281 C 124.707031 58.730469 124.988281 58.5 125.289062 58.300781 C 125.589844 58.097656 125.90625 57.925781 126.242188 57.785156 C 126.578125 57.644531 126.921875 57.539062 127.277344 57.46875 C 127.632812 57.398438 127.992188 57.363281 128.355469 57.363281 Z M 115.464844 74.027344 L 141.242188 74.027344 C 141.765625 74.027344 142.265625 74.128906 142.75 74.328125 C 143.230469 74.53125 143.65625 74.816406 144.027344 75.1875 C 144.394531 75.558594 144.679688 75.988281 144.878906 76.472656 C 145.082031 76.960938 145.179688 77.464844 145.179688 77.992188 C 145.179688 78.515625 145.082031 79.023438 144.878906 79.507812 C 144.679688 79.992188 144.394531 80.421875 144.027344 80.792969 C 143.65625 81.164062 143.230469 81.453125 142.75 81.652344 C 142.265625 81.855469 141.765625 81.953125 141.242188 81.953125 L 115.464844 81.953125 C 114.945312 81.953125 114.441406 81.855469 113.957031 81.652344 C 113.476562 81.453125 113.050781 81.164062 112.679688 80.792969 C 112.3125 80.421875 112.027344 79.992188 111.828125 79.507812 C 111.628906 79.023438 111.527344 78.515625 111.527344 77.992188 C 111.527344 77.464844 111.628906 76.960938 111.828125 76.472656 C 112.027344 75.988281 112.3125 75.558594 112.679688 75.1875 C 113.050781 74.816406 113.476562 74.53125 113.957031 74.328125 C 114.441406 74.128906 114.945312 74.027344 115.464844 74.027344 Z M 115.464844 85.910156 L 141.242188 85.910156 C 141.765625 85.910156 142.265625 86.007812 142.75 86.210938 C 143.230469 86.410156 143.65625 86.699219 144.027344 87.070312 C 144.394531 87.441406 144.679688 87.871094 144.878906 88.355469 C 145.082031 88.839844 145.179688 89.347656 145.179688 89.871094 C 145.179688 90.398438 145.082031 90.902344 144.878906 91.390625 C 144.679688 91.875 144.394531 92.304688 144.027344 92.675781 C 143.65625 93.046875 143.230469 93.332031 142.75 93.535156 C 142.265625 93.734375 141.765625 93.835938 141.242188 93.835938 L 115.464844 93.835938 C 114.945312 93.835938 114.441406 93.734375 113.957031 93.535156 C 113.476562 93.332031 113.050781 93.046875 112.679688 92.675781 C 112.3125 92.304688 112.027344 91.875 111.828125 91.390625 C 111.628906 90.902344 111.527344 90.398438 111.527344 89.871094 C 111.527344 89.347656 111.628906 88.839844 111.828125 88.355469 C 112.027344 87.871094 112.3125 87.441406 112.679688 87.070312 C 113.050781 86.699219 113.476562 86.410156 113.957031 86.210938 C 114.441406 86.007812 114.945312 85.910156 115.464844 85.910156 Z M 115.464844 97.789062 L 141.242188 97.789062 C 141.765625 97.789062 142.265625 97.890625 142.75 98.09375 C 143.230469 98.292969 143.65625 98.578125 144.027344 98.953125 C 144.394531 99.324219 144.679688 99.75 144.878906 100.238281 C 145.082031 100.722656 145.179688 101.226562 145.179688 101.753906 C 145.179688 102.28125 145.082031 102.785156 144.878906 103.269531 C 144.679688 103.757812 144.394531 104.183594 144.027344 104.558594 C 143.65625 104.929688 143.230469 105.214844 142.75 105.417969 C 142.265625 105.617188 141.765625 105.71875 141.242188 105.71875 L 115.464844 105.71875 C 114.945312 105.71875 114.441406 105.617188 113.957031 105.417969 C 113.476562 105.214844 113.050781 104.929688 112.679688 104.558594 C 112.3125 104.183594 112.027344 103.757812 111.828125 103.269531 C 111.628906 102.785156 111.527344 102.28125 111.527344 101.753906 C 111.527344 101.226562 111.628906 100.722656 111.828125 100.238281 C 112.027344 99.75 112.3125 99.324219 112.679688 98.953125 C 113.050781 98.578125 113.476562 98.292969 113.957031 98.09375 C 114.441406 97.890625 114.945312 97.789062 115.464844 97.789062 Z M 115.464844 97.789062 " fill-opacity="1" fill-rule="nonzero"/></g></svg>