<svg xmlns="http://www.w3.org/2000/svg" xmlns:xlink="http://www.w3.org/1999/xlink" width="240" zoomAndPan="magnify" viewBox="0 0 180 179.999997" height="240" preserveAspectRatio="xMidYMid meet" version="1.0"><defs><clipPath id="85d92a6dc3"><path d="M 25.816406 26.324219 L 153.453125 26.324219 L 153.453125 153.675781 L 25.816406 153.675781 Z M 25.816406 26.324219 " clip-rule="nonzero"/></clipPath><clipPath id="269e9f76f1"><path d="M 45 38.699219 L 134 38.699219 L 134 120 L 45 120 Z M 45 38.699219 " clip-rule="nonzero"/></clipPath><clipPath id="93c4a447cd"><path d="M 82 135 L 98 135 L 98 141.449219 L 82 141.449219 Z M 82 135 " clip-rule="nonzero"/></clipPath><clipPath id="29c0d8a962"><path d="M 38.335938 88 L 47 88 L 47 113 L 38.335938 113 Z M 38.335938 88 " clip-rule="nonzero"/></clipPath></defs><path fill="#a9bab4" d="M 18 18 L 162 18 L 162 162 L 18 162 Z M 18 18 " fill-opacity="1" fill-rule="nonzero"/><g clip-path="url(#85d92a6dc3)"><path fill="#50665a" d="M 25.816406 26.324219 L 153.664062 26.324219 L 153.664062 153.675781 L 25.816406 153.675781 Z M 25.816406 26.324219 " fill-opacity="1" fill-rule="nonzero"/></g><path fill="#ffffff" d="M 122.898438 75.46875 C 122.902344 75.457031 122.898438 75.449219 122.886719 75.441406 C 122.871094 75.4375 122.863281 75.4375 122.855469 75.449219 C 120.855469 77.53125 119.875 79.851562 120.394531 82.722656 C 120.890625 84.707031 121.726562 86.53125 122.90625 88.195312 C 124.34375 90.488281 123.0625 92.113281 122.726562 94.300781 C 122.527344 95.632812 123.636719 96.328125 124.457031 97.144531 C 126.722656 99.382812 128.417969 102.726562 126.414062 105.78125 C 125.878906 106.601562 124.972656 107.902344 123.699219 109.6875 C 122.835938 110.898438 121.773438 112.277344 120.433594 112.800781 C 118.875 113.414062 117.289062 112.839844 115.8125 112.234375 C 113.441406 111.265625 110.792969 110.253906 108.589844 112.132812 C 105.75 114.550781 105.847656 119.808594 105.921875 123.25 C 105.945312 124.355469 105.90625 125.457031 105.800781 126.558594 C 105.730469 127.054688 105.796875 127.53125 106 127.988281 C 106.007812 128.015625 106.023438 128.019531 106.046875 128.011719 C 106.054688 128.007812 106.058594 128.003906 106.066406 127.996094 C 106.152344 127.847656 106.214844 127.660156 106.296875 127.527344 C 108.847656 123.457031 109.914062 118.382812 110.15625 113.542969 C 110.175781 113.277344 110.308594 113.085938 110.550781 112.976562 C 110.988281 112.78125 111.441406 112.71875 111.914062 112.777344 C 112.386719 112.839844 112.8125 113.019531 113.183594 113.320312 C 113.4375 113.460938 113.546875 113.675781 113.503906 113.964844 C 112.867188 118.625 112.554688 123.304688 112.5625 128.007812 C 112.597656 130.046875 113.699219 131.734375 113.90625 133.746094 C 114.144531 136 112.714844 137.78125 110.792969 138.722656 C 109.320312 139.445312 107.722656 140.195312 106.402344 140.941406 C 103.324219 142.675781 100.46875 144.722656 97.832031 147.074219 C 96.253906 148.472656 92.519531 147.140625 90.699219 146.703125 C 90.324219 146.636719 89.953125 146.648438 89.582031 146.734375 C 88.40625 147.023438 87.222656 147.28125 86.039062 147.515625 C 84.878906 147.742188 83.421875 147.886719 82.535156 147.066406 C 79.972656 144.703125 77.164062 142.6875 74.105469 141.015625 C 73.082031 140.457031 71.660156 139.792969 70.429688 139.1875 C 68.679688 138.328125 66.738281 137.292969 66.304688 135.191406 C 66.128906 133.730469 66.355469 132.332031 66.984375 131 C 67.433594 129.835938 67.652344 128.628906 67.636719 127.382812 C 67.617188 124.089844 67.414062 120.808594 67.03125 117.535156 C 66.894531 116.351562 66.761719 115.167969 66.632812 113.984375 C 66.523438 112.964844 69.96875 111.898438 70.054688 113.8125 C 70.285156 117.398438 71.03125 120.871094 72.292969 124.230469 C 72.757812 125.523438 73.378906 126.734375 74.152344 127.867188 C 74.191406 127.925781 74.242188 127.9375 74.300781 127.894531 C 74.320312 127.882812 74.332031 127.867188 74.339844 127.847656 C 74.472656 127.511719 74.519531 127.167969 74.492188 126.8125 C 74.382812 125.222656 74.324219 123.628906 74.320312 122.035156 C 74.355469 120.277344 74.253906 118.527344 74.015625 116.785156 C 73.441406 113.300781 71.324219 110.324219 67.316406 111.246094 C 65.480469 111.671875 63.8125 112.742188 61.9375 113.007812 C 59.429688 113.367188 58.238281 111.867188 56.890625 110.089844 C 55.703125 108.570312 54.609375 106.992188 53.605469 105.347656 C 51.65625 102.003906 54.390625 98.085938 56.984375 96.046875 C 58.222656 95.078125 57 92.300781 56.804688 91.246094 C 56.621094 90.160156 56.832031 89.152344 57.429688 88.230469 C 58.695312 85.933594 60.207031 83.652344 60.074219 80.972656 C 60.011719 79.941406 59.757812 78.953125 59.324219 78.011719 C 58.886719 77.074219 58.296875 76.246094 57.550781 75.527344 C 57.527344 75.5 57.5 75.5 57.476562 75.527344 C 57.464844 75.539062 57.460938 75.554688 57.460938 75.570312 C 57.683594 76.828125 57.875 78.09375 58.035156 79.367188 C 58.148438 80.121094 58.1875 80.875 58.148438 81.632812 C 57.847656 83.339844 57.292969 84.960938 56.476562 86.488281 C 56.457031 86.53125 56.4375 86.53125 56.421875 86.488281 C 54.644531 82.257812 53.652344 77.847656 53.445312 73.261719 C 53.390625 72.078125 53.4375 70.902344 53.582031 69.730469 C 53.914062 66.8125 54.636719 63.996094 55.75 61.277344 C 56.863281 58.558594 58.328125 56.046875 60.140625 53.738281 C 61.527344 52.03125 63.050781 50.460938 64.71875 49.027344 C 66.382812 47.59375 68.160156 46.320312 70.054688 45.203125 C 71.945312 44.089844 73.921875 43.148438 75.980469 42.382812 C 78.042969 41.621094 80.152344 41.046875 82.316406 40.660156 C 84.832031 40.167969 87.367188 39.917969 89.929688 39.902344 C 92.492188 39.890625 95.03125 40.113281 97.550781 40.574219 C 100.070312 41.039062 102.523438 41.730469 104.910156 42.652344 C 107.300781 43.574219 109.582031 44.710938 111.757812 46.0625 C 113.839844 47.363281 115.75 48.875 117.492188 50.605469 C 119.230469 52.339844 120.753906 54.242188 122.0625 56.316406 C 123.371094 58.390625 124.433594 60.585938 125.246094 62.902344 C 126.058594 65.214844 126.601562 67.59375 126.878906 70.03125 C 127.003906 71.171875 127.039062 72.3125 126.976562 73.457031 C 126.804688 77.984375 125.773438 82.304688 123.890625 86.425781 C 123.878906 86.449219 123.859375 86.453125 123.839844 86.445312 C 123.828125 86.441406 123.824219 86.433594 123.820312 86.425781 C 123.132812 85.179688 122.632812 83.867188 122.308594 82.484375 C 122.203125 81.742188 122.183594 80.996094 122.253906 80.253906 C 122.394531 78.640625 122.609375 77.046875 122.898438 75.46875 Z M 62.359375 98.015625 C 63.242188 101.21875 65.15625 103.457031 68.773438 103.085938 C 71.859375 102.773438 75.007812 101.300781 77.714844 99.75 C 80.277344 98.289062 86.472656 94.1875 84.855469 90.523438 C 84.140625 88.910156 82.214844 88.113281 80.675781 87.554688 C 76.917969 86.183594 73.046875 85.351562 69.058594 85.0625 C 68.074219 85.007812 67.117188 85.144531 66.191406 85.476562 C 64.675781 85.988281 63.515625 87.660156 62.949219 89.101562 C 62.378906 90.515625 62.039062 91.988281 61.9375 93.511719 C 61.835938 95.035156 61.976562 96.535156 62.359375 98.015625 Z M 98.847656 87.8125 C 89.445312 91.488281 99.960938 98.546875 103.589844 100.425781 C 106.207031 101.777344 108.832031 102.945312 111.671875 103.113281 C 115.195312 103.324219 117.40625 100.609375 118 97.402344 C 118.527344 94.574219 118.285156 91.816406 117.265625 89.125 C 116.121094 86.023438 114.230469 84.859375 110.855469 85.101562 C 106.714844 85.394531 102.714844 86.296875 98.847656 87.8125 Z M 84.917969 112.269531 C 85.058594 112.664062 85.308594 112.976562 85.65625 113.207031 C 86.007812 113.433594 86.390625 113.539062 86.8125 113.511719 C 87.734375 113.328125 88.4375 112.257812 89.402344 111.953125 C 89.789062 111.824219 90.183594 111.796875 90.585938 111.867188 C 90.984375 111.933594 91.347656 112.09375 91.667969 112.34375 C 92.238281 112.867188 92.890625 113.257812 93.617188 113.515625 C 94.496094 113.617188 95.15625 112.824219 95.460938 112.085938 C 96.042969 110.699219 96.167969 109.273438 95.828125 107.804688 C 95.203125 105.40625 94.359375 103.085938 93.292969 100.847656 C 92.8125 99.585938 92.085938 98.488281 91.109375 97.558594 C 88.730469 95.621094 86.339844 102.230469 85.8125 103.550781 C 84.675781 106.398438 83.464844 109.269531 84.917969 112.269531 Z M 104.75 121.804688 C 104.191406 122.210938 103.976562 126.347656 103.933594 127.152344 C 103.933594 127.199219 103.953125 127.214844 103.996094 127.199219 C 105.148438 126.835938 105.230469 125.972656 105.25 124.824219 C 105.261719 123.800781 105.117188 122.804688 104.816406 121.828125 C 104.808594 121.804688 104.792969 121.792969 104.765625 121.796875 Z M 74.964844 125.261719 C 74.9375 125.703125 75.042969 126.113281 75.277344 126.488281 C 75.511719 126.867188 75.832031 127.140625 76.242188 127.3125 C 76.277344 127.328125 76.300781 127.320312 76.316406 127.285156 C 76.320312 127.277344 76.324219 127.265625 76.324219 127.257812 C 76.304688 125.425781 76.058594 123.625 75.585938 121.851562 C 75.578125 121.824219 75.558594 121.8125 75.527344 121.820312 C 75.511719 121.828125 75.503906 121.835938 75.5 121.851562 C 75.09375 122.953125 74.917969 124.089844 74.964844 125.261719 Z M 102.59375 122.679688 C 101.75 124.210938 101.652344 125.773438 101.441406 127.59375 C 101.421875 127.761719 101.414062 127.933594 101.421875 128.101562 C 101.425781 128.144531 101.449219 128.164062 101.492188 128.164062 C 101.5 128.164062 101.503906 128.164062 101.511719 128.164062 L 102.878906 127.597656 C 102.925781 127.582031 102.957031 127.546875 102.972656 127.5 C 103.425781 125.871094 103.347656 124.269531 102.730469 122.691406 C 102.714844 122.644531 102.683594 122.628906 102.636719 122.648438 C 102.617188 122.652344 102.605469 122.664062 102.59375 122.679688 Z M 77.011719 126.171875 C 77.089844 127.492188 77.402344 127.804688 78.691406 128.09375 C 78.738281 128.101562 78.765625 128.082031 78.777344 128.039062 C 78.777344 128.03125 78.777344 128.027344 78.777344 128.019531 C 78.84375 126.207031 78.496094 124.480469 77.726562 122.835938 C 77.695312 122.773438 77.648438 122.761719 77.589844 122.792969 C 77.566406 122.804688 77.550781 122.820312 77.542969 122.847656 C 77.113281 123.914062 76.9375 125.023438 77.011719 126.171875 Z M 98.5625 128.792969 C 99.222656 128.851562 100.714844 128.773438 100.703125 127.878906 C 100.730469 126.34375 100.417969 124.878906 99.765625 123.488281 C 99.730469 123.417969 99.675781 123.398438 99.605469 123.433594 C 99.582031 123.445312 99.566406 123.464844 99.550781 123.484375 C 99.433594 123.707031 99.335938 123.941406 99.265625 124.183594 C 98.863281 125.515625 98.570312 126.875 98.386719 128.253906 C 98.375 128.394531 98.382812 128.53125 98.417969 128.667969 C 98.433594 128.75 98.480469 128.789062 98.5625 128.792969 Z M 79.839844 128.566406 C 80.410156 128.742188 80.996094 128.832031 81.59375 128.839844 C 81.699219 128.84375 81.753906 128.789062 81.757812 128.683594 C 81.667969 126.984375 81.359375 125.328125 80.828125 123.714844 C 80.8125 123.648438 80.78125 123.585938 80.738281 123.535156 C 80.691406 123.492188 80.648438 123.492188 80.601562 123.535156 C 80.597656 123.539062 80.59375 123.546875 80.589844 123.554688 C 79.90625 124.785156 79.5625 126.105469 79.554688 127.515625 C 79.53125 127.789062 79.550781 128.066406 79.609375 128.335938 C 79.644531 128.457031 79.71875 128.535156 79.839844 128.566406 Z M 82.644531 128.5 C 82.605469 129.183594 84.691406 129.503906 85.171875 129.542969 C 85.242188 129.558594 85.308594 129.550781 85.371094 129.523438 C 85.449219 129.460938 85.484375 129.375 85.476562 129.277344 C 85.425781 128.28125 85.011719 124.28125 83.925781 123.894531 C 83.839844 123.863281 83.773438 123.886719 83.722656 123.96875 C 83.011719 125.394531 82.652344 126.90625 82.644531 128.5 Z M 96.230469 123.914062 C 95.039062 124.988281 94.871094 127.414062 94.734375 129.0625 C 94.722656 129.210938 94.757812 129.351562 94.835938 129.480469 C 94.851562 129.515625 94.882812 129.53125 94.921875 129.53125 C 95.800781 129.515625 96.628906 129.292969 97.40625 128.867188 C 97.449219 128.84375 97.472656 128.808594 97.472656 128.757812 C 97.539062 127.550781 97.175781 124.722656 96.417969 123.921875 C 96.359375 123.859375 96.296875 123.859375 96.230469 123.914062 Z M 86.597656 129.566406 C 87.039062 129.8125 87.511719 129.957031 88.011719 130 C 88.515625 130.039062 89.003906 129.976562 89.480469 129.808594 C 89.558594 129.785156 89.597656 129.730469 89.59375 129.648438 C 89.542969 128.367188 89.019531 124.855469 87.796875 124.207031 C 87.765625 124.1875 87.730469 124.183594 87.695312 124.191406 C 86.898438 124.355469 86.503906 128.066406 86.464844 128.964844 C 86.453125 129.207031 86.28125 129.367188 86.597656 129.566406 Z M 90.804688 129.859375 C 91.84375 130.148438 92.820312 130.011719 93.742188 129.453125 C 93.796875 129.417969 93.824219 129.371094 93.820312 129.308594 C 93.746094 127.707031 93.472656 126.144531 92.992188 124.617188 C 92.609375 123.414062 91.625 125.167969 91.480469 125.53125 C 90.960938 126.867188 90.6875 128.25 90.667969 129.683594 C 90.667969 129.777344 90.710938 129.835938 90.800781 129.859375 Z M 104.621094 132.707031 C 105.164062 131.085938 105.339844 129.421875 105.148438 127.71875 C 105.144531 127.675781 105.121094 127.652344 105.074219 127.660156 C 105.058594 127.660156 105.046875 127.667969 105.035156 127.679688 C 104.722656 127.984375 104.355469 128.199219 103.933594 128.316406 C 103.894531 128.328125 103.871094 128.351562 103.859375 128.390625 C 103.804688 128.585938 103.898438 128.746094 103.90625 128.878906 C 103.960938 130.179688 104.164062 131.453125 104.515625 132.707031 C 104.546875 132.816406 104.582031 132.820312 104.617188 132.707031 Z M 76.375 128.296875 L 75.261719 127.882812 C 75.226562 127.863281 75.207031 127.875 75.203125 127.917969 C 74.960938 129.519531 75.109375 131.085938 75.640625 132.613281 C 75.664062 132.699219 75.710938 132.71875 75.789062 132.679688 C 76.113281 131.273438 76.332031 129.847656 76.449219 128.410156 C 76.457031 128.347656 76.429688 128.308594 76.371094 128.296875 Z M 102.539062 133.90625 C 103.0625 132.695312 103.28125 131.433594 103.203125 130.121094 C 103.175781 129.6875 103.148438 129.253906 103.125 128.8125 C 103.125 128.761719 103.097656 128.746094 103.050781 128.765625 L 101.539062 129.390625 C 101.503906 129.40625 101.488281 129.429688 101.492188 129.46875 C 101.640625 131.035156 101.953125 132.566406 102.425781 134.066406 C 102.429688 134.078125 102.4375 134.089844 102.449219 134.089844 C 102.464844 134.09375 102.476562 134.089844 102.484375 134.078125 C 102.519531 134.023438 102.507812 133.964844 102.53125 133.90625 Z M 78.6875 129.304688 L 77.203125 128.816406 C 77.167969 128.804688 77.148438 128.816406 77.144531 128.855469 C 76.859375 130.671875 77.078125 132.425781 77.804688 134.117188 C 77.8125 134.128906 77.820312 134.132812 77.832031 134.128906 C 77.839844 134.125 77.84375 134.121094 77.84375 134.113281 C 78.269531 132.570312 78.578125 131.007812 78.761719 129.421875 C 78.773438 129.355469 78.746094 129.316406 78.679688 129.304688 Z M 99.378906 134.859375 C 100.121094 133.214844 100.527344 131.492188 100.597656 129.691406 C 100.601562 129.644531 100.582031 129.628906 100.539062 129.640625 C 99.851562 129.824219 99.15625 129.945312 98.449219 130 C 98.394531 130.003906 98.371094 130.03125 98.375 130.085938 C 98.453125 131.730469 98.785156 133.320312 99.367188 134.863281 C 99.367188 134.867188 99.371094 134.867188 99.375 134.867188 Z M 81.703125 129.976562 L 79.644531 129.699219 C 79.613281 129.699219 79.597656 129.707031 79.601562 129.738281 C 79.707031 131.480469 80.109375 133.148438 80.808594 134.746094 C 80.820312 134.769531 80.839844 134.777344 80.863281 134.765625 C 80.875 134.757812 80.882812 134.75 80.882812 134.738281 C 81.375 133.210938 81.664062 131.644531 81.757812 130.039062 C 81.761719 129.996094 81.746094 129.976562 81.703125 129.976562 Z M 85.359375 130.578125 C 84.46875 130.535156 83.605469 130.359375 82.769531 130.054688 C 82.734375 130.042969 82.71875 130.054688 82.71875 130.089844 C 82.726562 131.957031 83.171875 133.710938 84.0625 135.351562 C 84.097656 135.414062 84.152344 135.429688 84.214844 135.390625 C 84.234375 135.378906 84.246094 135.363281 84.257812 135.34375 C 85.042969 133.875 85.429688 132.304688 85.417969 130.640625 C 85.417969 130.601562 85.398438 130.582031 85.359375 130.585938 Z M 96.125 135.390625 C 97.03125 133.746094 97.46875 131.988281 97.445312 130.113281 C 97.445312 130.066406 97.425781 130.054688 97.386719 130.074219 C 96.554688 130.375 95.699219 130.554688 94.820312 130.617188 C 94.773438 130.621094 94.75 130.644531 94.757812 130.691406 C 94.789062 132.300781 95.171875 133.824219 95.90625 135.257812 C 95.929688 135.3125 95.964844 135.363281 96.007812 135.40625 C 96.046875 135.441406 96.082031 135.4375 96.117188 135.398438 Z M 93.71875 130.761719 C 92.703125 131.085938 91.675781 131.121094 90.640625 130.863281 C 90.59375 130.851562 90.566406 130.871094 90.566406 130.917969 C 90.523438 133.230469 90.988281 135.433594 91.96875 137.527344 C 91.984375 137.566406 92.003906 137.566406 92.027344 137.527344 C 93.179688 135.4375 93.765625 133.199219 93.78125 130.8125 C 93.785156 130.773438 93.765625 130.757812 93.722656 130.769531 Z M 89.585938 130.914062 C 88.527344 131.125 87.480469 131.085938 86.441406 130.800781 C 86.394531 130.789062 86.371094 130.808594 86.375 130.859375 C 86.464844 133.253906 87.089844 135.5 88.242188 137.601562 C 88.261719 137.628906 88.277344 137.628906 88.292969 137.601562 C 89.222656 135.492188 89.675781 133.28125 89.65625 130.976562 C 89.664062 130.933594 89.640625 130.914062 89.59375 130.925781 Z M 89.585938 130.914062 " fill-opacity="1" fill-rule="nonzero"/><g clip-path="url(#269e9f76f1)"><path fill="#040606" d="M 50.53125 114.035156 C 51.015625 115.578125 51.980469 116.890625 53.316406 117.863281 C 55.179688 119.214844 57.472656 119.640625 59.773438 119.09375 C 59.128906 116.984375 57.585938 111.371094 56.429688 104.394531 C 54.367188 101.464844 53.144531 97.917969 53.144531 94.074219 L 53.144531 82.761719 C 53.144531 78.726562 56.421875 75.449219 60.457031 75.449219 L 118.964844 75.449219 C 123 75.449219 126.277344 78.726562 126.277344 82.761719 L 126.277344 94.074219 C 126.277344 97.917969 125.054688 101.464844 122.992188 104.394531 C 121.835938 111.371094 120.292969 116.984375 119.675781 119.097656 C 121.941406 119.640625 124.234375 119.214844 126.097656 117.863281 C 127.441406 116.890625 128.398438 115.578125 128.882812 114.058594 C 132.011719 104.574219 133.589844 94.667969 133.589844 84.589844 C 133.589844 58.53125 114.726562 38.882812 89.710938 38.882812 C 64.691406 38.882812 45.832031 58.53125 45.832031 84.589844 C 45.832031 94.667969 47.410156 104.574219 50.53125 114.035156 " fill-opacity="1" fill-rule="nonzero"/></g><g clip-path="url(#93c4a447cd)"><path fill="#040606" d="M 82.398438 137.609375 L 82.398438 139.4375 C 82.398438 140.445312 83.21875 141.265625 84.226562 141.265625 L 94.28125 141.265625 C 95.796875 141.265625 97.023438 140.039062 97.023438 138.523438 C 97.023438 137.011719 95.796875 135.78125 94.28125 135.78125 L 84.226562 135.78125 C 83.21875 135.78125 82.398438 136.605469 82.398438 137.609375 " fill-opacity="1" fill-rule="nonzero"/></g><path fill="#040606" d="M 133.554688 112.015625 C 135.605469 112.015625 137.390625 110.558594 137.796875 108.535156 L 140.816406 93.410156 C 141.074219 92.140625 140.746094 90.832031 139.929688 89.824219 C 139.230469 88.976562 138.246094 88.453125 137.175781 88.3125 C 136.867188 96.382812 135.582031 104.324219 133.339844 112.015625 L 133.554688 112.015625 " fill-opacity="1" fill-rule="nonzero"/><path fill="#040606" d="M 57.867188 122.976562 C 56.824219 122.976562 55.792969 122.8125 54.800781 122.542969 L 56.402344 128.941406 C 57.953125 135.117188 63.480469 139.4375 69.855469 139.4375 L 78.742188 139.4375 L 78.742188 137.609375 C 78.742188 136.96875 78.875 136.355469 79.078125 135.78125 L 69.855469 135.78125 C 65.15625 135.78125 61.085938 132.605469 59.945312 128.054688 L 58.664062 122.925781 C 58.394531 122.949219 58.128906 122.976562 57.867188 122.976562 " fill-opacity="1" fill-rule="nonzero"/><path fill="#040606" d="M 78.207031 85.882812 L 65.40625 98.679688 C 65.050781 99.039062 64.585938 99.214844 64.113281 99.214844 C 63.644531 99.214844 63.179688 99.039062 62.820312 98.679688 C 62.109375 97.964844 62.109375 96.808594 62.820312 96.09375 L 75.621094 83.296875 C 76.335938 82.582031 77.492188 82.582031 78.207031 83.296875 C 78.917969 84.011719 78.917969 85.167969 78.207031 85.882812 Z M 60.992188 86.953125 L 64.648438 83.296875 C 65.363281 82.582031 66.519531 82.582031 67.234375 83.296875 C 67.949219 84.011719 67.949219 85.167969 67.234375 85.882812 L 63.578125 89.539062 C 63.222656 89.894531 62.757812 90.074219 62.285156 90.074219 C 61.816406 90.074219 61.351562 89.894531 60.992188 89.539062 C 60.28125 88.824219 60.28125 87.667969 60.992188 86.953125 Z M 122.621094 82.761719 C 122.621094 80.746094 120.976562 79.105469 118.964844 79.105469 L 60.457031 79.105469 C 58.445312 79.105469 56.800781 80.746094 56.800781 82.761719 L 56.800781 94.074219 C 56.800781 101.953125 63.207031 108.359375 71.085938 108.359375 C 76.269531 108.359375 81.054688 105.542969 83.574219 101.007812 C 84.832031 98.746094 87.125 97.402344 89.710938 97.402344 C 92.296875 97.402344 94.589844 98.746094 95.84375 101.007812 C 98.367188 105.542969 103.152344 108.359375 108.335938 108.359375 C 116.214844 108.359375 122.621094 101.953125 122.621094 94.074219 L 122.621094 82.761719 " fill-opacity="1" fill-rule="nonzero"/><g clip-path="url(#29c0d8a962)"><path fill="#040606" d="M 39.488281 89.824219 C 38.667969 90.832031 38.347656 92.140625 38.605469 93.402344 L 41.625 108.550781 C 42.03125 110.558594 43.816406 112.015625 45.867188 112.015625 L 46.082031 112.015625 C 43.839844 104.328125 42.554688 96.386719 42.246094 88.3125 C 41.175781 88.453125 40.191406 88.976562 39.488281 89.824219 " fill-opacity="1" fill-rule="nonzero"/></g></svg>