<svg xmlns="http://www.w3.org/2000/svg" xmlns:xlink="http://www.w3.org/1999/xlink" width="240" zoomAndPan="magnify" viewBox="0 0 180 179.999997" height="240" preserveAspectRatio="xMidYMid meet" version="1.0"><defs><clipPath id="42f730a9e6"><path d="M 26.183594 26.324219 L 153.816406 26.324219 L 153.816406 153.675781 L 26.183594 153.675781 Z M 26.183594 26.324219 " clip-rule="nonzero"/></clipPath><clipPath id="d11b8a656a"><path d="M 29.25 29.25 L 152.25 29.25 L 152.25 152.25 L 29.25 152.25 Z M 29.25 29.25 " clip-rule="nonzero"/></clipPath><clipPath id="6585e355ee"><path d="M 64.238281 64.238281 L 117.488281 64.238281 L 117.488281 117.488281 L 64.238281 117.488281 Z M 64.238281 64.238281 " clip-rule="nonzero"/></clipPath></defs><path fill="#a9bab4" d="M 18 18 L 162 18 L 162 162 L 18 162 Z M 18 18 " fill-opacity="1" fill-rule="nonzero"/><g clip-path="url(#42f730a9e6)"><path fill="#50665a" d="M 26.183594 26.324219 L 154.027344 26.324219 L 154.027344 153.675781 L 26.183594 153.675781 Z M 26.183594 26.324219 " fill-opacity="1" fill-rule="nonzero"/></g><g clip-path="url(#d11b8a656a)"><path fill="#000000" d="M 77.007812 104.710938 L 104.710938 104.710938 L 104.710938 77.007812 L 77.007812 77.007812 Z M 90.859375 82.550781 C 95.449219 82.550781 99.171875 86.273438 99.171875 90.859375 C 99.171875 95.449219 95.449219 99.171875 90.859375 99.171875 C 86.273438 99.171875 82.550781 95.449219 82.550781 90.859375 C 82.550781 86.273438 86.273438 82.550781 90.859375 82.550781 Z M 85.875 90.859375 C 85.875 88.113281 88.113281 85.875 90.859375 85.875 C 93.609375 85.875 95.847656 88.113281 95.847656 90.859375 C 95.847656 93.609375 93.609375 95.847656 90.859375 95.847656 C 88.113281 95.847656 85.875 93.609375 85.875 90.859375 Z M 106.375 64.820312 L 75.347656 64.820312 C 69.539062 64.820312 64.820312 69.539062 64.820312 75.347656 L 64.820312 106.375 C 64.820312 112.179688 69.539062 116.902344 75.347656 116.902344 L 106.375 116.902344 C 112.179688 116.902344 116.902344 112.179688 116.902344 106.375 L 116.902344 75.347656 C 116.902344 69.539062 112.179688 64.820312 106.375 64.820312 Z M 108.035156 106.375 C 108.035156 107.28125 107.28125 108.035156 106.375 108.035156 L 75.347656 108.035156 C 74.4375 108.035156 73.683594 107.28125 73.683594 106.375 L 73.683594 75.347656 C 73.683594 74.4375 74.4375 73.683594 75.347656 73.683594 L 106.375 73.683594 C 107.28125 73.683594 108.035156 74.4375 108.035156 75.347656 Z M 114.351562 42.4375 C 113.929688 42.4375 113.511719 42.28125 113.179688 41.949219 C 107.195312 35.964844 99.28125 32.683594 90.859375 32.683594 C 82.4375 32.683594 74.527344 35.964844 68.542969 41.949219 C 67.902344 42.589844 66.835938 42.589844 66.195312 41.949219 C 65.550781 41.304688 65.550781 40.242188 66.195312 39.601562 C 72.796875 32.996094 81.550781 29.359375 90.859375 29.359375 C 100.167969 29.359375 108.921875 32.996094 115.527344 39.601562 C 116.171875 40.242188 116.171875 41.304688 115.527344 41.949219 C 115.195312 42.28125 114.773438 42.4375 114.351562 42.4375 Z M 108.101562 48.6875 C 107.683594 48.6875 107.261719 48.53125 106.929688 48.199219 C 102.605469 43.898438 96.910156 41.550781 90.859375 41.550781 C 84.808594 41.550781 79.09375 43.921875 74.792969 48.199219 C 74.152344 48.839844 73.085938 48.839844 72.445312 48.199219 C 71.800781 47.554688 71.800781 46.492188 72.445312 45.847656 C 77.386719 40.929688 83.925781 38.226562 90.859375 38.226562 C 97.796875 38.226562 104.335938 40.929688 109.277344 45.847656 C 109.921875 46.492188 109.921875 47.554688 109.277344 48.199219 C 108.945312 48.53125 108.523438 48.6875 108.101562 48.6875 Z M 79.890625 54.957031 C 79.46875 54.957031 79.046875 54.804688 78.714844 54.46875 C 78.074219 53.828125 78.074219 52.765625 78.714844 52.121094 C 81.953125 48.886719 86.273438 47.089844 90.859375 47.089844 C 95.449219 47.089844 99.769531 48.886719 103.003906 52.121094 C 103.648438 52.765625 103.648438 53.828125 103.003906 54.46875 C 102.363281 55.113281 101.300781 55.113281 100.65625 54.46875 C 98.042969 51.855469 94.5625 50.414062 90.859375 50.414062 C 87.160156 50.414062 83.679688 51.855469 81.066406 54.46875 C 80.734375 54.804688 80.3125 54.957031 79.890625 54.957031 Z M 90.859375 152.359375 C 81.550781 152.359375 72.796875 148.726562 66.195312 142.121094 C 65.550781 141.480469 65.550781 140.414062 66.195312 139.773438 C 66.835938 139.128906 67.902344 139.128906 68.542969 139.773438 C 74.527344 145.757812 82.4375 149.035156 90.859375 149.035156 C 99.28125 149.035156 107.195312 145.757812 113.179688 139.773438 C 113.820312 139.128906 114.882812 139.128906 115.527344 139.773438 C 116.171875 140.414062 116.171875 141.480469 115.527344 142.121094 C 108.921875 148.726562 100.167969 152.359375 90.859375 152.359375 Z M 90.859375 143.496094 C 83.925781 143.496094 77.386719 140.792969 72.445312 135.871094 C 71.800781 135.230469 71.800781 134.164062 72.445312 133.523438 C 73.085938 132.878906 74.152344 132.878906 74.792969 133.523438 C 79.113281 137.824219 84.808594 140.171875 90.859375 140.171875 C 96.910156 140.171875 102.628906 137.800781 106.929688 133.523438 C 107.570312 132.878906 108.636719 132.878906 109.277344 133.523438 C 109.921875 134.164062 109.921875 135.230469 109.277344 135.871094 C 104.335938 140.792969 97.796875 143.496094 90.859375 143.496094 Z M 90.859375 134.632812 C 86.273438 134.632812 81.953125 132.835938 78.714844 129.601562 C 78.074219 128.957031 78.074219 127.894531 78.714844 127.25 C 79.359375 126.609375 80.421875 126.609375 81.066406 127.25 C 83.679688 129.867188 87.160156 131.308594 90.859375 131.308594 C 94.5625 131.308594 98.042969 129.867188 100.65625 127.25 C 101.300781 126.609375 102.363281 126.609375 103.003906 127.25 C 103.648438 127.894531 103.648438 128.957031 103.003906 129.601562 C 99.769531 132.835938 95.449219 134.632812 90.859375 134.632812 Z M 140.949219 116.015625 C 140.527344 116.015625 140.105469 115.859375 139.773438 115.527344 C 139.128906 114.882812 139.128906 113.820312 139.773438 113.179688 C 145.757812 107.195312 149.035156 99.28125 149.035156 90.859375 C 149.035156 82.4375 145.757812 74.527344 139.773438 68.542969 C 139.128906 67.902344 139.128906 66.835938 139.773438 66.195312 C 140.414062 65.550781 141.480469 65.550781 142.121094 66.195312 C 148.726562 72.796875 152.359375 81.550781 152.359375 90.859375 C 152.359375 100.167969 148.726562 108.921875 142.121094 115.527344 C 141.789062 115.859375 141.367188 116.015625 140.949219 116.015625 Z M 134.699219 109.765625 C 134.277344 109.765625 133.855469 109.609375 133.523438 109.277344 C 132.878906 108.636719 132.878906 107.570312 133.523438 106.929688 C 137.824219 102.605469 140.171875 96.910156 140.171875 90.859375 C 140.171875 84.808594 137.800781 79.113281 133.523438 74.792969 C 132.878906 74.152344 132.878906 73.085938 133.523438 72.445312 C 134.164062 71.800781 135.230469 71.800781 135.871094 72.445312 C 140.792969 77.386719 143.496094 83.925781 143.496094 90.859375 C 143.496094 97.796875 140.792969 104.335938 135.871094 109.277344 C 135.539062 109.609375 135.117188 109.765625 134.699219 109.765625 Z M 128.425781 103.492188 C 128.003906 103.492188 127.582031 103.339844 127.25 103.003906 C 126.609375 102.363281 126.609375 101.300781 127.25 100.65625 C 129.867188 98.042969 131.308594 94.5625 131.308594 90.859375 C 131.308594 87.160156 129.867188 83.679688 127.25 81.066406 C 126.609375 80.421875 126.609375 79.359375 127.25 78.714844 C 127.894531 78.074219 128.957031 78.074219 129.601562 78.714844 C 132.835938 81.953125 134.632812 86.273438 134.632812 90.859375 C 134.632812 95.449219 132.835938 99.769531 129.601562 103.003906 C 129.269531 103.339844 128.847656 103.492188 128.425781 103.492188 Z M 40.773438 116.015625 C 40.351562 116.015625 39.933594 115.859375 39.601562 115.527344 C 32.996094 108.921875 29.359375 100.167969 29.359375 90.859375 C 29.359375 81.550781 32.996094 72.796875 39.601562 66.195312 C 40.242188 65.550781 41.304688 65.550781 41.949219 66.195312 C 42.589844 66.835938 42.589844 67.902344 41.949219 68.542969 C 35.964844 74.527344 32.683594 82.4375 32.683594 90.859375 C 32.683594 99.28125 35.964844 107.195312 41.949219 113.179688 C 42.589844 113.820312 42.589844 114.882812 41.949219 115.527344 C 41.617188 115.859375 41.195312 116.015625 40.773438 116.015625 Z M 47.023438 109.765625 C 46.601562 109.765625 46.160156 109.609375 45.847656 109.277344 C 40.929688 104.335938 38.226562 97.796875 38.226562 90.859375 C 38.226562 83.925781 40.929688 77.386719 45.847656 72.445312 C 46.492188 71.800781 47.554688 71.800781 48.199219 72.445312 C 48.839844 73.085938 48.839844 74.152344 48.199219 74.792969 C 43.898438 79.113281 41.550781 84.808594 41.550781 90.859375 C 41.550781 96.910156 43.921875 102.628906 48.199219 106.929688 C 48.839844 107.570312 48.839844 108.636719 48.199219 109.277344 C 47.867188 109.609375 47.445312 109.765625 47.023438 109.765625 Z M 53.296875 103.492188 C 52.875 103.492188 52.453125 103.339844 52.121094 103.003906 C 48.886719 99.769531 47.089844 95.449219 47.089844 90.859375 C 47.089844 86.273438 48.886719 81.953125 52.121094 78.714844 C 52.765625 78.074219 53.828125 78.074219 54.46875 78.714844 C 55.113281 79.359375 55.113281 80.421875 54.46875 81.066406 C 51.855469 83.679688 50.414062 87.160156 50.414062 90.859375 C 50.414062 94.5625 51.855469 98.042969 54.46875 100.65625 C 55.113281 101.300781 55.113281 102.363281 54.46875 103.003906 C 54.136719 103.339844 53.71875 103.492188 53.296875 103.492188 Z M 53.296875 103.492188 " fill-opacity="1" fill-rule="nonzero"/></g><g clip-path="url(#6585e355ee)"><path fill="#ffffff" d="M 90.898438 64.238281 C 76.195312 64.238281 64.238281 76.199219 64.238281 90.898438 C 64.238281 105.597656 76.195312 117.558594 90.898438 117.558594 C 105.597656 117.558594 117.558594 105.597656 117.558594 90.898438 C 117.558594 76.199219 105.597656 64.238281 90.898438 64.238281 Z M 90.898438 112.554688 C 78.957031 112.554688 69.242188 102.839844 69.242188 90.898438 C 69.242188 78.957031 78.957031 69.242188 90.898438 69.242188 C 102.839844 69.242188 112.554688 78.957031 112.554688 90.898438 C 112.554688 102.839844 102.839844 112.554688 90.898438 112.554688 Z M 90.898438 112.554688 " fill-opacity="1" fill-rule="nonzero"/></g><path fill="#ffffff" d="M 93.617188 76.585938 C 93.617188 76.945312 93.546875 77.292969 93.410156 77.625 C 93.273438 77.957031 93.074219 78.253906 92.820312 78.507812 C 92.566406 78.761719 92.269531 78.960938 91.9375 79.097656 C 91.605469 79.234375 91.257812 79.304688 90.898438 79.304688 C 90.535156 79.304688 90.191406 79.234375 89.855469 79.097656 C 89.523438 78.960938 89.230469 78.761719 88.976562 78.507812 C 88.71875 78.253906 88.523438 77.957031 88.386719 77.625 C 88.246094 77.292969 88.179688 76.945312 88.179688 76.585938 C 88.179688 76.222656 88.246094 75.878906 88.386719 75.542969 C 88.523438 75.210938 88.71875 74.917969 88.976562 74.664062 C 89.230469 74.40625 89.523438 74.210938 89.855469 74.074219 C 90.191406 73.933594 90.535156 73.867188 90.898438 73.867188 C 91.257812 73.867188 91.605469 73.933594 91.9375 74.074219 C 92.269531 74.210938 92.566406 74.40625 92.820312 74.664062 C 93.074219 74.917969 93.273438 75.210938 93.410156 75.542969 C 93.546875 75.878906 93.617188 76.222656 93.617188 76.585938 Z M 93.617188 76.585938 " fill-opacity="1" fill-rule="nonzero"/><path fill="#ffffff" d="M 90.898438 107.929688 C 89.394531 107.929688 88.179688 106.710938 88.179688 105.210938 L 88.179688 84.742188 C 88.179688 83.238281 89.394531 82.023438 90.898438 82.023438 C 92.398438 82.023438 93.617188 83.238281 93.617188 84.742188 L 93.617188 105.210938 C 93.617188 106.710938 92.398438 107.929688 90.898438 107.929688 Z M 90.898438 107.929688 " fill-opacity="1" fill-rule="nonzero"/></svg>