<svg xmlns="http://www.w3.org/2000/svg" xmlns:xlink="http://www.w3.org/1999/xlink" width="240" zoomAndPan="magnify" viewBox="0 0 180 179.999997" height="240" preserveAspectRatio="xMidYMid meet" version="1.0"><defs><clipPath id="133d573181"><path d="M 26.183594 26.324219 L 153.816406 26.324219 L 153.816406 153.675781 L 26.183594 153.675781 Z M 26.183594 26.324219 " clip-rule="nonzero"/></clipPath><clipPath id="751b0b6f78"><path d="M 26.40625 33.085938 L 153.90625 33.085938 L 153.90625 147.085938 L 26.40625 147.085938 Z M 26.40625 33.085938 " clip-rule="nonzero"/></clipPath></defs><path fill="#a9bab4" d="M 18 18 L 162 18 L 162 162 L 18 162 Z M 18 18 " fill-opacity="1" fill-rule="nonzero"/><g clip-path="url(#133d573181)"><path fill="#50665a" d="M 26.183594 26.324219 L 154.027344 26.324219 L 154.027344 153.675781 L 26.183594 153.675781 Z M 26.183594 26.324219 " fill-opacity="1" fill-rule="nonzero"/></g><g clip-path="url(#751b0b6f78)"><path fill="#000000" d="M 89.027344 33.070312 L 91.253906 33.070312 C 92.554688 33.070312 93.621094 34.132812 93.621094 35.433594 L 93.621094 50.523438 C 93.621094 50.671875 93.738281 50.789062 93.886719 50.789062 L 107.332031 50.789062 C 107.480469 50.789062 107.597656 50.910156 107.597656 51.054688 L 107.597656 56.210938 C 107.597656 56.300781 107.558594 56.375 107.488281 56.429688 L 100.128906 61.640625 C 100.058594 61.691406 100.019531 61.769531 100.019531 61.859375 L 100.019531 65.335938 C 100.019531 65.5 99.871094 65.625 99.707031 65.597656 C 93.390625 64.535156 86.894531 64.53125 80.574219 65.585938 C 80.414062 65.613281 80.265625 65.488281 80.265625 65.324219 L 80.265625 61.855469 C 80.265625 61.769531 80.226562 61.691406 80.152344 61.640625 L 72.796875 56.429688 C 72.722656 56.375 72.683594 56.300781 72.683594 56.210938 L 72.683594 51.054688 C 72.683594 50.910156 72.804688 50.789062 72.949219 50.789062 L 86.398438 50.789062 C 86.546875 50.789062 86.664062 50.671875 86.664062 50.523438 L 86.664062 35.433594 C 86.664062 34.132812 87.730469 33.070312 89.027344 33.070312 Z M 90.308594 84.613281 C 93.976562 84.613281 96.953125 87.585938 96.953125 91.25 C 96.953125 94.917969 93.976562 97.890625 90.308594 97.890625 C 86.636719 97.890625 83.664062 94.917969 83.664062 91.25 C 83.664062 87.585938 86.636719 84.613281 90.308594 84.613281 Z M 88.21875 128.632812 C 89.425781 129.316406 90.792969 129.316406 92 128.632812 C 109.582031 118.722656 120.011719 99.839844 119.121094 79.753906 C 119.046875 78.105469 118.207031 76.71875 116.773438 75.894531 C 100.316406 66.402344 79.90625 66.402344 63.445312 75.894531 C 62.015625 76.71875 61.171875 78.105469 61.101562 79.753906 C 60.210938 99.839844 70.640625 118.722656 88.21875 128.632812 Z M 111.984375 91.433594 C 112.085938 91.328125 112.085938 91.164062 111.984375 91.0625 C 100.484375 79.136719 80.234375 79.136719 68.734375 91.0625 C 68.632812 91.164062 68.632812 91.328125 68.734375 91.433594 C 80.234375 103.359375 100.484375 103.359375 111.984375 91.433594 Z M 65.886719 113.476562 L 59.785156 113.476562 C 56.246094 113.476562 53.222656 111.503906 51.800781 108.265625 L 49.960938 104.082031 C 49.882812 103.90625 50.011719 103.710938 50.207031 103.710938 L 61.09375 103.710938 C 61.203125 103.710938 61.296875 103.773438 61.339844 103.875 C 62.648438 107.082031 64.246094 110.152344 66.113281 113.066406 C 66.226562 113.246094 66.097656 113.476562 65.886719 113.476562 Z M 142.078125 86.308594 C 145.617188 86.308594 148.640625 84.335938 150.0625 81.101562 L 153.78125 72.632812 C 153.859375 72.457031 153.730469 72.261719 153.539062 72.261719 L 121.113281 72.261719 C 120.914062 72.261719 120.4375 72.824219 120.183594 73.078125 C 120.074219 73.1875 120.082031 73.363281 120.199219 73.464844 C 121.953125 75.003906 123 77.164062 123.105469 79.578125 C 123.199219 81.734375 123.175781 83.886719 123.027344 86.027344 C 123.019531 86.179688 123.136719 86.308594 123.292969 86.308594 Z M 120.761719 99.726562 L 131.65625 99.726562 C 135.191406 99.726562 138.21875 97.753906 139.640625 94.515625 L 141.332031 90.667969 C 141.40625 90.488281 141.28125 90.292969 141.085938 90.292969 L 122.804688 90.292969 C 122.671875 90.292969 122.5625 90.390625 122.542969 90.519531 C 122.101562 93.523438 121.417969 96.488281 120.507812 99.382812 C 120.453125 99.554688 120.582031 99.726562 120.761719 99.726562 Z M 114.429688 113.328125 C 114.21875 113.328125 114.089844 113.097656 114.203125 112.917969 C 116.03125 110.042969 117.59375 107.027344 118.882812 103.875 C 118.925781 103.773438 119.019531 103.710938 119.128906 103.710938 L 130 103.710938 C 130.195312 103.710938 130.324219 103.90625 130.246094 104.082031 L 128.472656 108.117188 C 127.050781 111.355469 124.027344 113.328125 120.488281 113.328125 Z M 38.207031 86.308594 C 34.667969 86.308594 31.644531 84.335938 30.222656 81.101562 L 26.503906 72.632812 C 26.425781 72.457031 26.554688 72.261719 26.746094 72.261719 L 59.171875 72.261719 C 59.371094 72.261719 59.820312 72.800781 60.070312 73.046875 C 60.179688 73.15625 60.175781 73.335938 60.058594 73.4375 C 58.28125 74.976562 57.222656 77.152344 57.117188 79.578125 C 57.019531 81.734375 57.046875 83.886719 57.195312 86.027344 C 57.203125 86.179688 57.082031 86.308594 56.929688 86.308594 Z M 59.460938 99.726562 L 48.628906 99.726562 C 45.09375 99.726562 42.066406 97.753906 40.644531 94.515625 L 38.953125 90.667969 C 38.875 90.488281 39.003906 90.292969 39.199219 90.292969 L 57.414062 90.292969 C 57.546875 90.292969 57.660156 90.390625 57.679688 90.519531 C 58.121094 93.523438 58.800781 96.488281 59.714844 99.382812 C 59.769531 99.554688 59.640625 99.726562 59.460938 99.726562 Z M 100.019531 128.695312 L 100.019531 135.480469 C 100.019531 135.546875 99.996094 135.601562 99.957031 135.652344 L 90.34375 146.945312 C 90.238281 147.070312 90.046875 147.070312 89.941406 146.945312 L 80.328125 135.652344 C 80.285156 135.601562 80.265625 135.546875 80.265625 135.480469 L 80.265625 128.738281 C 80.265625 128.523438 80.511719 128.398438 80.6875 128.523438 C 82.46875 129.820312 84.328125 131.015625 86.261719 132.101562 C 88.683594 133.46875 91.539062 133.46875 93.960938 132.101562 C 95.917969 131 97.796875 129.789062 99.597656 128.480469 C 99.773438 128.351562 100.019531 128.476562 100.019531 128.695312 Z M 100.019531 128.695312 " fill-opacity="1" fill-rule="evenodd"/></g><path fill="#ffffff" d="M 90 88.175781 C 88.992188 88.175781 88.175781 88.992188 88.175781 90 C 88.175781 91.007812 88.992188 91.824219 90 91.824219 C 91.007812 91.824219 91.824219 91.007812 91.824219 90 C 91.824219 88.992188 91.007812 88.175781 90 88.175781 Z M 115.570312 91.261719 C 115.425781 94.273438 114.761719 97.195312 113.589844 99.964844 C 112.300781 103.015625 110.457031 105.753906 108.105469 108.105469 C 105.753906 110.457031 103.015625 112.300781 99.964844 113.589844 C 97.195312 114.761719 94.273438 115.425781 91.261719 115.570312 L 91.261719 116.976562 C 94.460938 116.828125 97.566406 116.128906 100.511719 114.882812 C 103.726562 113.523438 106.617188 111.574219 109.09375 109.09375 C 111.574219 106.617188 113.523438 103.726562 114.882812 100.511719 C 116.128906 97.566406 116.828125 94.460938 116.976562 91.261719 Z M 108.105469 71.894531 C 110.457031 74.246094 112.300781 76.984375 113.589844 80.035156 C 114.761719 82.804688 115.425781 85.726562 115.570312 88.738281 L 116.976562 88.738281 C 116.828125 85.539062 116.128906 82.433594 114.882812 79.488281 C 113.523438 76.273438 111.574219 73.382812 109.09375 70.90625 C 106.617188 68.425781 103.726562 66.476562 100.511719 65.117188 C 97.566406 63.871094 94.460938 63.171875 91.261719 63.023438 L 91.261719 64.429688 C 94.273438 64.574219 97.195312 65.238281 99.964844 66.410156 C 103.015625 67.699219 105.753906 69.542969 108.105469 71.894531 Z M 88.738281 115.570312 C 85.726562 115.425781 82.804688 114.761719 80.035156 113.589844 C 76.984375 112.300781 74.246094 110.457031 71.894531 108.105469 C 69.542969 105.753906 67.699219 103.015625 66.410156 99.964844 C 65.238281 97.195312 64.574219 94.273438 64.429688 91.261719 L 63.023438 91.261719 C 63.171875 94.460938 63.871094 97.566406 65.117188 100.511719 C 66.476562 103.726562 68.425781 106.617188 70.90625 109.09375 C 73.382812 111.574219 76.273438 113.523438 79.488281 114.882812 C 82.433594 116.128906 85.539062 116.828125 88.738281 116.976562 Z M 72.773438 89.300781 L 54.699219 89.300781 C 54.3125 89.300781 54 89.613281 54 90 C 54 90.386719 54.3125 90.699219 54.699219 90.699219 L 72.773438 90.699219 C 73.160156 90.699219 73.472656 90.386719 73.472656 90 C 73.472656 89.613281 73.160156 89.300781 72.773438 89.300781 Z M 64.429688 88.738281 C 64.574219 85.726562 65.238281 82.804688 66.410156 80.035156 C 67.699219 76.984375 69.542969 74.246094 71.894531 71.894531 C 74.246094 69.542969 76.984375 67.699219 80.035156 66.410156 C 82.804688 65.238281 85.726562 64.574219 88.738281 64.429688 L 88.738281 63.023438 C 85.539062 63.171875 82.433594 63.871094 79.488281 65.117188 C 76.273438 66.476562 73.382812 68.425781 70.90625 70.90625 C 68.425781 73.382812 66.476562 76.273438 65.117188 79.488281 C 63.871094 82.433594 63.171875 85.539062 63.023438 88.738281 Z M 89.300781 107.226562 L 89.300781 125.300781 C 89.300781 125.6875 89.613281 126 90 126 C 90.386719 126 90.699219 125.6875 90.699219 125.300781 L 90.699219 107.226562 C 90.699219 106.839844 90.386719 106.527344 90 106.527344 C 89.613281 106.527344 89.300781 106.839844 89.300781 107.226562 Z M 107.226562 90.699219 L 125.300781 90.699219 C 125.6875 90.699219 126 90.386719 126 90 C 126 89.613281 125.6875 89.300781 125.300781 89.300781 L 107.226562 89.300781 C 106.839844 89.300781 106.527344 89.613281 106.527344 90 C 106.527344 90.386719 106.839844 90.699219 107.226562 90.699219 Z M 90 73.472656 C 89.613281 73.472656 89.300781 73.160156 89.300781 72.773438 L 89.300781 54.699219 C 89.300781 54.3125 89.613281 54 90 54 C 90.386719 54 90.699219 54.3125 90.699219 54.699219 L 90.699219 72.773438 C 90.699219 73.160156 90.386719 73.472656 90 73.472656 " fill-opacity="1" fill-rule="nonzero"/></svg>