<svg xmlns="http://www.w3.org/2000/svg" xmlns:xlink="http://www.w3.org/1999/xlink" width="240" zoomAndPan="magnify" viewBox="0 0 180 179.999997" height="240" preserveAspectRatio="xMidYMid meet" version="1.0"><defs><clipPath id="633fab4e3d"><path d="M 26.183594 26.324219 L 153.816406 26.324219 L 153.816406 153.675781 L 26.183594 153.675781 Z M 26.183594 26.324219 " clip-rule="nonzero"/></clipPath><clipPath id="da2588ff40"><path d="M 47 2.785156 L 74 2.785156 L 74 41 L 47 41 Z M 47 2.785156 " clip-rule="nonzero"/></clipPath><clipPath id="9fe9e5fe4f"><path d="M 89 166 L 117 166 L 117 176.785156 L 89 176.785156 Z M 89 166 " clip-rule="nonzero"/></clipPath><clipPath id="91921e1f5d"><path d="M 29.386719 144 L 40 144 L 40 156 L 29.386719 156 Z M 29.386719 144 " clip-rule="nonzero"/></clipPath><clipPath id="f875a385b9"><path d="M 29.386719 129 L 40 129 L 40 141 L 29.386719 141 Z M 29.386719 129 " clip-rule="nonzero"/></clipPath><clipPath id="b6ecc7349f"><path d="M 29 57.167969 L 151 57.167969 L 151 123.167969 L 29 123.167969 Z M 29 57.167969 " clip-rule="nonzero"/></clipPath></defs><path fill="#a9bab4" d="M 18 18 L 162 18 L 162 162 L 18 162 Z M 18 18 " fill-opacity="1" fill-rule="nonzero"/><g clip-path="url(#633fab4e3d)"><path fill="#50665a" d="M 26.183594 26.324219 L 154.027344 26.324219 L 154.027344 153.675781 L 26.183594 153.675781 Z M 26.183594 26.324219 " fill-opacity="1" fill-rule="nonzero"/></g><path fill="#ffffff" d="M 60.417969 46.414062 C 67.800781 46.414062 73.785156 44.058594 73.785156 41.160156 C 73.785156 39.050781 70.628906 37.234375 66.078125 36.398438 C 65.644531 36.96875 65.226562 37.503906 64.835938 38.007812 C 68.058594 38.5 70.273438 39.523438 70.273438 40.707031 C 70.273438 42.375 65.859375 43.726562 60.417969 43.726562 C 54.976562 43.726562 50.566406 42.375 50.566406 40.707031 C 50.566406 39.523438 52.777344 38.5 56.003906 38.007812 C 55.609375 37.503906 55.191406 36.96875 54.761719 36.398438 C 50.207031 37.234375 47.050781 39.050781 47.050781 41.160156 C 47.050781 44.058594 53.035156 46.414062 60.417969 46.414062 " fill-opacity="1" fill-rule="nonzero"/><g clip-path="url(#da2588ff40)"><path fill="#ffffff" d="M 54.6875 15.578125 C 54.6875 12.414062 57.253906 9.847656 60.417969 9.847656 C 63.582031 9.847656 66.148438 12.414062 66.148438 15.578125 C 66.148438 18.742188 63.582031 21.308594 60.417969 21.308594 C 57.253906 21.308594 54.6875 18.742188 54.6875 15.578125 Z M 73.785156 16.152344 C 73.785156 8.769531 67.800781 2.785156 60.417969 2.785156 C 53.035156 2.785156 47.050781 8.769531 47.050781 16.152344 C 47.050781 25.832031 60.417969 40.59375 60.417969 40.59375 C 60.417969 40.59375 73.785156 25.832031 73.785156 16.152344 " fill-opacity="1" fill-rule="nonzero"/></g><g clip-path="url(#9fe9e5fe4f)"><path fill="#ffffff" d="M 108.4375 166.414062 C 108.003906 166.988281 107.589844 167.527344 107.195312 168.023438 C 110.417969 168.519531 112.632812 169.542969 112.632812 170.726562 C 112.632812 172.394531 108.21875 173.746094 102.777344 173.746094 C 97.335938 173.746094 92.925781 172.394531 92.925781 170.726562 C 92.925781 169.542969 95.136719 168.519531 98.363281 168.023438 C 97.96875 167.527344 97.550781 166.988281 97.117188 166.414062 C 92.566406 167.253906 89.410156 169.070312 89.410156 171.175781 C 89.410156 174.082031 95.394531 176.433594 102.777344 176.433594 C 110.160156 176.433594 116.144531 174.082031 116.144531 171.175781 C 116.144531 169.070312 112.988281 167.253906 108.4375 166.414062 " fill-opacity="1" fill-rule="nonzero"/></g><path fill="#ffffff" d="M 102.777344 151.328125 C 99.613281 151.328125 97.046875 148.761719 97.046875 145.597656 C 97.046875 142.433594 99.613281 139.867188 102.777344 139.867188 C 105.945312 139.867188 108.507812 142.433594 108.507812 145.597656 C 108.507812 148.761719 105.945312 151.328125 102.777344 151.328125 Z M 102.777344 132.804688 C 95.394531 132.804688 89.410156 138.789062 89.410156 146.171875 C 89.410156 155.851562 102.777344 170.609375 102.777344 170.609375 C 102.777344 170.609375 116.144531 155.851562 116.144531 146.171875 C 116.144531 138.789062 110.160156 132.804688 102.777344 132.804688 " fill-opacity="1" fill-rule="nonzero"/><path fill="#ffffff" d="M 85.441406 43.949219 C 84.050781 43.738281 82.636719 43.53125 81.191406 43.324219 C 80.015625 43.148438 78.9375 43.964844 78.769531 45.136719 C 78.601562 46.304688 79.414062 47.386719 80.582031 47.554688 C 82.015625 47.761719 83.421875 47.96875 84.800781 48.179688 C 84.90625 48.195312 85.015625 48.203125 85.121094 48.203125 C 86.164062 48.203125 87.074219 47.445312 87.234375 46.382812 C 87.410156 45.21875 86.609375 44.128906 85.441406 43.949219 " fill-opacity="1" fill-rule="nonzero"/><g clip-path="url(#91921e1f5d)"><path fill="#ffffff" d="M 33.890625 146.207031 C 33.445312 145.113281 32.199219 144.585938 31.105469 145.035156 C 30.011719 145.480469 29.484375 146.730469 29.933594 147.824219 C 31 150.441406 32.964844 153 35.769531 155.421875 C 36.171875 155.769531 36.671875 155.941406 37.167969 155.941406 C 37.765625 155.941406 38.363281 155.691406 38.785156 155.203125 C 39.558594 154.308594 39.457031 152.957031 38.566406 152.183594 C 36.273438 150.207031 34.703125 148.195312 33.890625 146.207031 " fill-opacity="1" fill-rule="nonzero"/></g><path fill="#ffffff" d="M 59.730469 119.535156 C 62.191406 118.371094 64.832031 117.199219 67.578125 116.050781 C 68.667969 115.597656 69.183594 114.34375 68.726562 113.253906 C 68.273438 112.164062 67.019531 111.648438 65.929688 112.105469 C 63.121094 113.277344 60.417969 114.476562 57.902344 115.671875 C 56.832031 116.175781 56.378906 117.453125 56.882812 118.519531 C 57.246094 119.289062 58.015625 119.742188 58.816406 119.742188 C 59.125 119.742188 59.433594 119.675781 59.730469 119.535156 " fill-opacity="1" fill-rule="nonzero"/><path fill="#ffffff" d="M 43.683594 128.238281 C 44.105469 128.238281 44.527344 128.113281 44.898438 127.855469 C 47.015625 126.394531 49.445312 124.90625 52.117188 123.425781 C 53.148438 122.851562 53.523438 121.550781 52.949219 120.515625 C 52.378906 119.484375 51.078125 119.109375 50.042969 119.683594 C 47.25 121.230469 44.699219 122.796875 42.46875 124.335938 C 41.496094 125.007812 41.25 126.339844 41.921875 127.3125 C 42.339844 127.914062 43.003906 128.238281 43.683594 128.238281 " fill-opacity="1" fill-rule="nonzero"/><path fill="#ffffff" d="M 52.933594 160.558594 C 50.128906 159.34375 47.578125 158.089844 45.355469 156.835938 C 44.328125 156.257812 43.023438 156.621094 42.441406 157.648438 C 41.863281 158.675781 42.226562 159.980469 43.253906 160.558594 C 45.601562 161.886719 48.289062 163.207031 51.234375 164.484375 C 51.507812 164.605469 51.796875 164.664062 52.082031 164.664062 C 52.90625 164.664062 53.695312 164.179688 54.046875 163.375 C 54.515625 162.289062 54.019531 161.03125 52.933594 160.558594 " fill-opacity="1" fill-rule="nonzero"/><path fill="#ffffff" d="M 93.328125 49.550781 C 96.269531 50.050781 99.125 50.566406 101.8125 51.09375 C 101.949219 51.121094 102.085938 51.132812 102.222656 51.132812 C 103.226562 51.132812 104.121094 50.421875 104.320312 49.402344 C 104.542969 48.242188 103.789062 47.117188 102.628906 46.894531 C 99.90625 46.363281 97.019531 45.839844 94.046875 45.332031 C 92.886719 45.136719 91.777344 45.917969 91.578125 47.082031 C 91.378906 48.246094 92.164062 49.351562 93.328125 49.550781 " fill-opacity="1" fill-rule="nonzero"/><g clip-path="url(#f875a385b9)"><path fill="#ffffff" d="M 31.171875 140.570312 C 31.433594 140.675781 31.707031 140.726562 31.972656 140.726562 C 32.816406 140.726562 33.621094 140.222656 33.957031 139.386719 C 34.773438 137.363281 36.289062 135.242188 38.460938 133.085938 C 39.300781 132.253906 39.304688 130.898438 38.472656 130.058594 C 37.644531 129.222656 36.289062 129.21875 35.449219 130.046875 C 32.859375 132.617188 31.023438 135.21875 29.988281 137.789062 C 29.546875 138.882812 30.078125 140.128906 31.171875 140.570312 " fill-opacity="1" fill-rule="nonzero"/></g><path fill="#ffffff" d="M 149.824219 69.5625 C 149.371094 66.582031 147.503906 63.777344 144.277344 61.222656 C 143.351562 60.492188 142.007812 60.648438 141.273438 61.574219 C 140.542969 62.5 140.695312 63.847656 141.625 64.578125 C 143.976562 66.4375 145.3125 68.332031 145.597656 70.207031 C 145.757812 71.261719 146.667969 72.023438 147.707031 72.023438 C 147.816406 72.023438 147.925781 72.015625 148.035156 71.996094 C 149.199219 71.820312 150.003906 70.730469 149.824219 69.5625 " fill-opacity="1" fill-rule="nonzero"/><path fill="#ffffff" d="M 146.300781 76.128906 C 145.382812 75.390625 144.035156 75.535156 143.292969 76.453125 C 141.898438 78.1875 139.882812 80.015625 137.300781 81.886719 C 136.347656 82.582031 136.132812 83.917969 136.828125 84.875 C 137.246094 85.453125 137.898438 85.757812 138.558594 85.757812 C 138.996094 85.757812 139.433594 85.625 139.8125 85.351562 C 142.699219 83.253906 144.992188 81.164062 146.625 79.140625 C 147.363281 78.21875 147.222656 76.871094 146.300781 76.128906 " fill-opacity="1" fill-rule="nonzero"/><path fill="#ffffff" d="M 119.6875 50.78125 C 117.042969 50.066406 114.183594 49.363281 111.179688 48.683594 C 110.027344 48.421875 108.882812 49.144531 108.621094 50.296875 C 108.363281 51.449219 109.085938 52.59375 110.238281 52.855469 C 113.183594 53.519531 115.984375 54.210938 118.570312 54.910156 C 118.757812 54.960938 118.945312 54.984375 119.128906 54.984375 C 120.074219 54.984375 120.933594 54.355469 121.191406 53.402344 C 121.5 52.265625 120.824219 51.089844 119.6875 50.78125 " fill-opacity="1" fill-rule="nonzero"/><path fill="#ffffff" d="M 69.015625 166.378906 C 66.136719 165.492188 63.398438 164.585938 60.875 163.679688 C 59.753906 163.28125 58.539062 163.859375 58.140625 164.972656 C 57.742188 166.085938 58.320312 167.308594 59.433594 167.707031 C 62.019531 168.632812 64.816406 169.5625 67.753906 170.46875 C 67.964844 170.53125 68.175781 170.5625 68.386719 170.5625 C 69.300781 170.5625 70.144531 169.972656 70.429688 169.054688 C 70.777344 167.921875 70.144531 166.726562 69.015625 166.378906 " fill-opacity="1" fill-rule="nonzero"/><path fill="#ffffff" d="M 137.441406 59.410156 C 137.9375 58.339844 137.46875 57.066406 136.398438 56.570312 C 133.988281 55.457031 131.199219 54.363281 128.117188 53.320312 C 127 52.941406 125.785156 53.542969 125.40625 54.660156 C 125.027344 55.78125 125.625 56.992188 126.746094 57.375 C 129.6875 58.367188 132.332031 59.40625 134.601562 60.453125 C 134.894531 60.589844 135.199219 60.652344 135.496094 60.652344 C 136.308594 60.652344 137.082031 60.191406 137.441406 59.410156 " fill-opacity="1" fill-rule="nonzero"/><path fill="#ffffff" d="M 130.167969 86.398438 C 127.894531 87.675781 125.339844 89 122.574219 90.324219 C 121.511719 90.835938 121.0625 92.113281 121.570312 93.175781 C 121.941406 93.945312 122.703125 94.390625 123.503906 94.390625 C 123.8125 94.390625 124.128906 94.324219 124.425781 94.179688 C 127.273438 92.8125 129.910156 91.449219 132.265625 90.125 C 133.296875 89.542969 133.660156 88.238281 133.082031 87.210938 C 132.5 86.183594 131.199219 85.816406 130.167969 86.398438 " fill-opacity="1" fill-rule="nonzero"/><path fill="#ffffff" d="M 114.746094 93.859375 C 112.246094 94.929688 109.558594 96.027344 106.761719 97.121094 C 105.664062 97.550781 105.121094 98.792969 105.550781 99.894531 C 105.882812 100.738281 106.691406 101.25 107.542969 101.25 C 107.804688 101.25 108.066406 101.203125 108.324219 101.105469 C 111.160156 99.992188 113.886719 98.878906 116.425781 97.792969 C 117.511719 97.328125 118.019531 96.074219 117.554688 94.984375 C 117.089844 93.902344 115.828125 93.394531 114.746094 93.859375 " fill-opacity="1" fill-rule="nonzero"/><path fill="#ffffff" d="M 91.230469 107.25 C 91.460938 107.25 91.699219 107.210938 91.933594 107.128906 C 94.496094 106.234375 97.265625 105.253906 100.152344 104.195312 C 101.261719 103.789062 101.828125 102.5625 101.425781 101.453125 C 101.015625 100.34375 99.785156 99.773438 98.679688 100.179688 C 95.816406 101.226562 93.070312 102.203125 90.523438 103.089844 C 89.410156 103.476562 88.820312 104.699219 89.210938 105.8125 C 89.515625 106.695312 90.34375 107.25 91.230469 107.25 " fill-opacity="1" fill-rule="nonzero"/><path fill="#ffffff" d="M 82.3125 105.925781 L 80.179688 106.664062 C 78.09375 107.394531 76.042969 108.140625 74.078125 108.878906 C 72.972656 109.296875 72.414062 110.527344 72.828125 111.632812 C 73.152344 112.492188 73.964844 113.019531 74.832031 113.019531 C 75.082031 113.019531 75.335938 112.976562 75.585938 112.882812 C 77.515625 112.152344 79.539062 111.421875 81.589844 110.703125 L 83.707031 109.96875 C 84.824219 109.582031 85.417969 108.367188 85.03125 107.25 C 84.644531 106.132812 83.421875 105.539062 82.3125 105.925781 " fill-opacity="1" fill-rule="nonzero"/><path fill="#ffffff" d="M 81.417969 169.855469 C 80.011719 169.496094 78.640625 169.132812 77.308594 168.769531 C 76.164062 168.460938 74.992188 169.136719 74.683594 170.277344 C 74.375 171.417969 75.046875 172.59375 76.1875 172.902344 C 77.542969 173.265625 78.929688 173.632812 80.355469 174 C 80.53125 174.046875 80.710938 174.066406 80.886719 174.066406 C 81.839844 174.066406 82.710938 173.425781 82.957031 172.460938 C 83.25 171.316406 82.5625 170.148438 81.417969 169.855469 " fill-opacity="1" fill-rule="nonzero"/><path fill="#000000" d="M 53.246094 86.867188 C 52.632812 86.808594 52.003906 86.789062 51.382812 86.8125 C 43.976562 87.074219 37.96875 93.128906 37.707031 100.589844 C 37.6875 101.21875 37.707031 101.851562 37.761719 102.46875 C 37.820312 103.097656 38.320312 103.382812 38.757812 103.382812 C 39.238281 103.382812 39.738281 103.046875 39.757812 102.402344 C 39.757812 102.335938 39.761719 102.269531 39.765625 102.199219 C 40.058594 95.027344 45.863281 89.179688 52.980469 88.882812 C 53.046875 88.878906 53.113281 88.878906 53.179688 88.875 C 53.828125 88.859375 54.136719 88.359375 54.152344 87.90625 C 54.167969 87.449219 53.890625 86.929688 53.246094 86.867188 " fill-opacity="1" fill-rule="nonzero"/><path fill="#000000" d="M 130.289062 86.867188 C 129.675781 86.808594 129.046875 86.789062 128.425781 86.8125 C 121.019531 87.074219 115.011719 93.128906 114.75 100.589844 C 114.730469 101.21875 114.75 101.851562 114.804688 102.46875 C 114.863281 103.097656 115.363281 103.382812 115.796875 103.382812 C 116.28125 103.382812 116.78125 103.046875 116.800781 102.402344 C 116.800781 102.335938 116.804688 102.269531 116.804688 102.199219 C 117.097656 95.027344 122.90625 89.179688 130.023438 88.882812 C 130.089844 88.878906 130.15625 88.878906 130.222656 88.875 C 130.867188 88.859375 131.179688 88.359375 131.195312 87.90625 C 131.210938 87.449219 130.933594 86.929688 130.289062 86.867188 " fill-opacity="1" fill-rule="nonzero"/><g clip-path="url(#b6ecc7349f)"><path fill="#000000" d="M 49.601562 85.085938 C 50.246094 85.003906 50.898438 84.964844 51.542969 84.964844 C 59.433594 84.964844 66.113281 90.917969 67.085938 98.816406 C 68.152344 107.457031 62.039062 115.363281 53.460938 116.433594 C 52.816406 116.515625 52.164062 116.558594 51.519531 116.558594 C 43.628906 116.558594 36.949219 110.601562 35.976562 102.703125 C 34.910156 94.0625 41.023438 86.15625 49.601562 85.085938 Z M 89.964844 90.996094 C 92.753906 90.996094 95.019531 93.285156 95.019531 96.089844 C 95.019531 98.902344 92.753906 101.183594 89.964844 101.183594 C 87.179688 101.183594 84.910156 98.902344 84.910156 96.089844 C 84.910156 93.285156 87.179688 90.996094 89.964844 90.996094 Z M 128.386719 116.558594 C 120.5 116.558594 113.816406 110.601562 112.84375 102.703125 C 111.777344 94.0625 117.890625 86.15625 126.46875 85.085938 C 127.113281 85.003906 127.765625 84.964844 128.410156 84.964844 C 136.300781 84.964844 142.984375 90.917969 143.957031 98.816406 C 145.019531 107.457031 138.90625 115.363281 130.328125 116.433594 C 129.6875 116.515625 129.03125 116.558594 128.386719 116.558594 Z M 150.351562 98.015625 C 149.890625 94.269531 148.484375 90.683594 146.273438 87.632812 L 146.246094 87.59375 L 142.449219 83.5625 L 131.679688 72.125 L 131.25 71.667969 C 128.777344 69.027344 124.640625 64.605469 120.699219 64.085938 C 120.246094 64.027344 119.789062 63.980469 119.335938 63.945312 L 116.160156 60.570312 C 114.1875 58.476562 111.410156 57.273438 108.542969 57.273438 C 106.679688 57.273438 104.839844 57.78125 103.226562 58.734375 L 102.25 59.316406 C 97.984375 61.84375 96.066406 66.925781 97.582031 71.671875 L 98.0625 73.164062 C 97.3125 73.25 96.234375 73.351562 95.257812 73.441406 C 95.007812 70.792969 92.789062 68.710938 90.097656 68.710938 C 87.417969 68.710938 85.210938 70.765625 84.9375 73.390625 L 84.90625 73.390625 C 83.871094 73.339844 82.660156 73.285156 81.851562 73.226562 L 82.347656 71.671875 C 83.867188 66.925781 81.945312 61.84375 77.683594 59.316406 L 76.703125 58.734375 C 75.089844 57.78125 73.253906 57.273438 71.386719 57.273438 C 68.519531 57.273438 65.742188 58.476562 63.769531 60.570312 L 60.59375 63.945312 C 60.140625 63.980469 59.683594 64.027344 59.230469 64.085938 C 55.289062 64.605469 51.152344 69.023438 48.679688 71.664062 L 37.480469 83.5625 L 37.484375 83.566406 L 33.683594 87.59375 L 33.660156 87.628906 C 31.449219 90.671875 30.039062 94.261719 29.578125 98.015625 C 28.074219 110.214844 36.703125 121.371094 48.808594 122.882812 C 49.714844 122.996094 50.636719 123.054688 51.546875 123.054688 C 56.210938 123.054688 60.683594 121.585938 64.484375 118.816406 C 68.269531 116.058594 71.046875 112.257812 72.511719 107.828125 C 72.550781 107.710938 72.589844 107.597656 72.625 107.480469 L 72.660156 107.375 L 75.84375 97.417969 L 84.15625 103.617188 L 84.160156 103.613281 C 85.765625 104.875 87.777344 105.625 89.964844 105.625 C 92.097656 105.625 94.066406 104.914062 95.648438 103.707031 L 95.652344 103.710938 L 104.085938 97.417969 L 107.269531 107.375 L 107.304688 107.480469 C 107.339844 107.597656 107.378906 107.710938 107.417969 107.828125 C 108.886719 112.257812 111.660156 116.058594 115.445312 118.816406 C 119.246094 121.585938 123.722656 123.054688 128.382812 123.054688 C 128.382812 123.054688 128.382812 123.054688 128.386719 123.054688 C 129.292969 123.054688 130.214844 122.996094 131.125 122.882812 C 136.976562 122.148438 142.207031 119.15625 145.839844 114.457031 C 149.476562 109.753906 151.082031 103.914062 150.351562 98.015625 " fill-opacity="1" fill-rule="nonzero"/></g></svg>