<svg xmlns="http://www.w3.org/2000/svg" xmlns:xlink="http://www.w3.org/1999/xlink" width="300" zoomAndPan="magnify" viewBox="0 0 224.87999 74.999997" height="100" preserveAspectRatio="xMidYMid meet" version="1.0"><defs><clipPath id="662f811d88"><path d="M 72.164062 9.609375 L 152.371094 9.609375 L 152.371094 65.078125 L 72.164062 65.078125 Z M 72.164062 9.609375 " clip-rule="nonzero"/></clipPath></defs><g clip-path="url(#662f811d88)"><path fill="#000000" d="M 94.425781 62.515625 C 94.375 63.050781 94.34375 63.511719 94.285156 63.972656 C 94.15625 64.996094 93.804688 65.332031 92.78125 65.355469 C 91.589844 65.382812 90.398438 65.375 89.207031 65.164062 C 88.445312 65.023438 87.664062 65.070312 86.886719 64.996094 C 85.234375 64.835938 83.589844 64.636719 81.945312 64.476562 C 80.804688 64.367188 79.65625 64.292969 78.511719 64.207031 C 78.421875 64.199219 78.335938 64.199219 78.246094 64.191406 C 77.53125 64.125 77.1875 63.761719 77.265625 63.050781 C 77.324219 62.53125 77.363281 61.992188 77.691406 61.539062 C 77.757812 61.449219 77.808594 61.347656 77.835938 61.238281 C 77.917969 60.980469 77.816406 60.804688 77.558594 60.742188 C 77.457031 60.710938 77.339844 60.734375 77.230469 60.703125 C 76.476562 60.535156 75.679688 60.566406 75.117188 59.820312 C 74.789062 59.386719 74.175781 59.175781 73.722656 58.824219 C 73.304688 58.496094 72.917969 58.128906 72.566406 57.742188 C 72.273438 57.421875 72.191406 57.019531 72.273438 56.566406 C 72.625 54.527344 73.179688 52.566406 74.125 50.710938 C 74.898438 49.175781 75.601562 47.601562 76.417969 46.089844 C 77.070312 44.890625 77.84375 43.757812 78.554688 42.585938 C 78.773438 42.230469 78.96875 41.863281 79.160156 41.492188 C 79.972656 39.949219 80.753906 38.390625 81.390625 36.769531 C 82.054688 35.050781 82.566406 33.289062 82.808594 31.460938 C 82.992188 30.042969 82.515625 28.746094 81.785156 27.550781 C 80.886719 26.078125 79.578125 25.179688 77.910156 24.757812 C 77.457031 24.640625 77.011719 24.535156 76.542969 24.550781 C 75.644531 24.582031 74.984375 23.652344 75.519531 22.714844 C 75.59375 22.585938 75.695312 22.460938 75.789062 22.34375 C 76.0625 22.027344 76.179688 21.6875 76.242188 21.269531 C 76.46875 19.835938 76.324219 18.417969 76.214844 16.992188 C 76.121094 15.800781 76.0625 14.609375 76.199219 13.417969 C 76.316406 12.421875 76.8125 11.902344 77.824219 11.832031 C 78.328125 11.792969 78.847656 11.785156 79.351562 11.816406 C 79.804688 11.84375 80.050781 11.632812 80.207031 11.246094 C 80.324219 10.960938 80.417969 10.660156 80.550781 10.382812 C 80.796875 9.820312 81.632812 9.609375 82.113281 10.003906 C 82.253906 10.121094 82.421875 10.367188 82.382812 10.492188 C 82.230469 10.960938 82.496094 11.304688 82.65625 11.742188 C 82.992188 11.773438 83.34375 11.824219 83.6875 11.824219 C 85.988281 11.832031 88.292969 11.832031 90.59375 11.832031 C 91.523438 11.832031 92.453125 11.824219 93.371094 11.832031 C 98.535156 11.875 103.695312 11.917969 108.851562 11.960938 C 112.921875 12 117 12.058594 121.074219 12.050781 C 129.3125 12.042969 137.554688 12 145.792969 11.96875 C 146.121094 11.96875 146.449219 11.96875 146.824219 11.96875 C 147.003906 11.539062 147.175781 11.164062 147.328125 10.777344 C 147.648438 9.980469 148.367188 9.796875 149 10.390625 C 149.417969 10.785156 149.777344 11.238281 150.164062 11.664062 C 150.308594 11.816406 150.480469 11.953125 150.640625 12.09375 C 150.808594 12.238281 150.996094 12.355469 151.144531 12.523438 C 151.421875 12.832031 151.632812 13.191406 152.125 13.242188 C 152.269531 13.257812 152.386719 13.546875 152.511719 13.714844 C 152.53125 13.746094 152.527344 13.804688 152.527344 13.847656 C 152.578125 14.910156 152.65625 15.96875 152.671875 17.027344 C 152.679688 17.53125 152.570312 18.039062 152.511719 18.542969 C 152.453125 19.054688 152.015625 19.171875 151.632812 19.339844 C 151.539062 19.710938 151.546875 20.039062 151.722656 20.382812 C 151.808594 20.550781 151.851562 20.765625 151.851562 20.953125 C 151.867188 21.90625 151.867188 22.863281 151.851562 23.8125 C 151.84375 24.070312 151.773438 24.339844 151.675781 24.582031 C 151.488281 25.070312 151.222656 25.539062 151.070312 26.042969 C 150.851562 26.753906 150.339844 27.058594 149.675781 27.207031 C 149.398438 27.269531 149.113281 27.316406 148.828125 27.359375 C 148.371094 27.4375 147.976562 27.410156 147.605469 27.058594 C 147.128906 26.621094 146.339844 26.738281 145.917969 27.21875 C 145.808594 27.34375 145.644531 27.460938 145.484375 27.496094 C 145.164062 27.570312 144.835938 27.621094 144.503906 27.628906 C 143.242188 27.660156 141.984375 27.652344 140.71875 27.671875 C 139.101562 27.703125 137.488281 27.730469 135.871094 27.769531 C 134.167969 27.8125 132.464844 27.929688 130.761719 27.898438 C 129.421875 27.878906 128.488281 28.5 127.675781 29.433594 C 127.15625 30.035156 126.835938 30.75 126.6875 31.511719 C 126.585938 32.046875 126.628906 32.601562 126.636719 33.148438 C 126.652344 33.984375 126.679688 34.816406 126.738281 35.648438 C 126.828125 36.886719 127.003906 38.105469 127.542969 39.238281 C 127.574219 39.296875 127.59375 39.363281 127.617188 39.421875 C 127.835938 40.152344 127.535156 40.597656 126.777344 40.636719 C 125.300781 40.703125 123.816406 40.746094 122.339844 40.804688 C 121.433594 40.839844 120.527344 40.890625 119.625 40.90625 C 116.679688 40.964844 113.734375 41.03125 110.796875 41.058594 C 109.765625 41.066406 108.792969 40.765625 107.890625 40.242188 C 107.492188 40.007812 107.082031 39.78125 106.65625 39.605469 C 105.214844 39.027344 103.46875 39.773438 102.855469 41.214844 C 102.527344 41.980469 102.109375 42.71875 101.898438 43.515625 C 101.699219 44.246094 101.394531 45.03125 101.847656 45.804688 C 101.890625 45.878906 101.917969 45.964844 101.949219 46.046875 C 102.132812 46.609375 102.027344 46.902344 101.523438 47.222656 C 101.226562 47.414062 100.925781 47.601562 100.640625 47.808594 C 100.089844 48.195312 99.871094 48.824219 99.578125 49.386719 C 99.324219 49.890625 99.089844 50.425781 98.921875 50.964844 C 98.71875 51.636719 98.550781 52.332031 98.835938 53.042969 C 98.871094 53.121094 98.894531 53.210938 98.921875 53.289062 C 99.191406 54.160156 99.125 54.417969 98.308594 54.863281 C 97.386719 55.367188 96.933594 56.199219 96.566406 57.121094 C 96.472656 57.371094 96.421875 57.632812 96.3125 57.875 C 95.917969 58.722656 95.894531 59.578125 96.164062 60.460938 C 96.230469 60.675781 96.28125 60.886719 96.304688 61.105469 C 96.378906 61.769531 96.113281 62.144531 95.464844 62.3125 C 95.121094 62.355469 94.796875 62.429688 94.425781 62.515625 Z M 107.015625 31.855469 C 106.636719 32.417969 106.496094 32.753906 106.421875 33.296875 C 105.992188 36.375 108.59375 38.976562 111.363281 38.800781 C 112.6875 38.71875 114.019531 38.660156 115.34375 38.648438 C 117.023438 38.625 118.707031 38.640625 120.386719 38.667969 C 121.125 38.683594 121.785156 38.472656 122.398438 38.105469 C 123.773438 37.300781 124.304688 35.984375 124.421875 34.5 C 124.496094 33.558594 124.386719 32.601562 124.335938 31.65625 C 124.246094 29.953125 122.851562 28.703125 121.394531 28.273438 C 121.007812 28.15625 120.570312 28.164062 120.160156 28.199219 C 119.195312 28.289062 118.230469 28.433594 117.273438 28.558594 C 116.109375 28.710938 114.949219 28.851562 113.792969 29.027344 C 113.191406 29.113281 113.171875 29.164062 113.070312 29.785156 C 112.902344 30.816406 113.171875 31.8125 113.347656 32.804688 C 113.375 32.980469 113.542969 33.148438 113.683594 33.28125 C 114.1875 33.769531 114.722656 34.246094 115.226562 34.734375 C 115.640625 35.136719 116.050781 35.539062 116.4375 35.964844 C 116.636719 36.175781 116.78125 36.433594 116.605469 36.746094 C 116.453125 37.023438 116.210938 37.074219 115.933594 37.058594 C 115.789062 37.054688 115.648438 37.082031 115.445312 37.105469 C 115.628906 37.425781 115.816406 37.726562 115.554688 38.003906 C 115.269531 38.289062 114.933594 38.164062 114.632812 38.003906 C 114.144531 37.753906 113.652344 37.492188 113.179688 37.214844 C 112.074219 36.554688 111.3125 35.523438 110.40625 34.65625 C 110.320312 34.566406 110.238281 34.4375 110.21875 34.320312 C 110.160156 33.910156 109.902344 33.792969 109.539062 33.734375 C 109.019531 33.652344 108.5 33.515625 107.988281 33.382812 C 107.316406 33.207031 107.285156 33.171875 107.425781 32.46875 C 107.503906 32.105469 107.410156 31.921875 107.015625 31.855469 Z M 107.015625 31.855469 " fill-opacity="1" fill-rule="nonzero"/></g></svg>