<svg xmlns="http://www.w3.org/2000/svg" xmlns:xlink="http://www.w3.org/1999/xlink" width="240" zoomAndPan="magnify" viewBox="0 0 180 179.999997" height="240" preserveAspectRatio="xMidYMid meet" version="1.0"><defs><clipPath id="7668e61262"><path d="M 26.183594 26.324219 L 153.816406 26.324219 L 153.816406 153.675781 L 26.183594 153.675781 Z M 26.183594 26.324219 " clip-rule="nonzero"/></clipPath><clipPath id="5ca70c80e3"><path d="M 75 87 L 106 87 L 106 153.433594 L 75 153.433594 Z M 75 87 " clip-rule="nonzero"/></clipPath><clipPath id="ff3654159b"><path d="M 101 37 L 124 37 L 124 87 L 101 87 Z M 101 37 " clip-rule="nonzero"/></clipPath><clipPath id="c6bbad120d"><path d="M 127.140625 0.515625 L 194.355469 42.972656 L 151.898438 110.1875 L 84.683594 67.730469 Z M 127.140625 0.515625 " clip-rule="nonzero"/></clipPath><clipPath id="0ab71c10f2"><path d="M 127.140625 0.515625 L 194.355469 42.972656 L 151.898438 110.1875 L 84.683594 67.730469 Z M 127.140625 0.515625 " clip-rule="nonzero"/></clipPath><clipPath id="8629df541a"><path d="M 113 20 L 145 20 L 145 98 L 113 98 Z M 113 20 " clip-rule="nonzero"/></clipPath><clipPath id="b0a3f6e131"><path d="M 127.140625 0.515625 L 194.355469 42.972656 L 151.898438 110.1875 L 84.683594 67.730469 Z M 127.140625 0.515625 " clip-rule="nonzero"/></clipPath><clipPath id="95bca2197d"><path d="M 127.140625 0.515625 L 194.355469 42.972656 L 151.898438 110.1875 L 84.683594 67.730469 Z M 127.140625 0.515625 " clip-rule="nonzero"/></clipPath><clipPath id="8ab585d135"><path d="M 124 2 L 166 2 L 166 109 L 124 109 Z M 124 2 " clip-rule="nonzero"/></clipPath><clipPath id="9ac9d66ffd"><path d="M 127.140625 0.515625 L 194.355469 42.972656 L 151.898438 110.1875 L 84.683594 67.730469 Z M 127.140625 0.515625 " clip-rule="nonzero"/></clipPath><clipPath id="22120f559c"><path d="M 127.140625 0.515625 L 194.355469 42.972656 L 151.898438 110.1875 L 84.683594 67.730469 Z M 127.140625 0.515625 " clip-rule="nonzero"/></clipPath><clipPath id="4ec7c84afd"><path d="M 56 38 L 77 38 L 77 88 L 56 88 Z M 56 38 " clip-rule="nonzero"/></clipPath><clipPath id="a3fc6120cf"><path d="M 48.308594 2.488281 L 95.488281 66.476562 L 31.5 113.65625 L -15.679688 49.667969 Z M 48.308594 2.488281 " clip-rule="nonzero"/></clipPath><clipPath id="d8d64e5293"><path d="M 31.4375 114.082031 L -15.742188 50.09375 L 48.246094 2.914062 L 95.425781 66.902344 Z M 31.4375 114.082031 " clip-rule="nonzero"/></clipPath><clipPath id="ac3b147ff1"><path d="M 35 21 L 64 21 L 64 100 L 35 100 Z M 35 21 " clip-rule="nonzero"/></clipPath><clipPath id="825d72d1cf"><path d="M 48.308594 2.488281 L 95.488281 66.476562 L 31.5 113.65625 L -15.679688 49.667969 Z M 48.308594 2.488281 " clip-rule="nonzero"/></clipPath><clipPath id="e2f817741a"><path d="M 31.4375 114.082031 L -15.742188 50.09375 L 48.246094 2.914062 L 95.425781 66.902344 Z M 31.4375 114.082031 " clip-rule="nonzero"/></clipPath><clipPath id="9fc528a5a1"><path d="M 14 4 L 52 4 L 52 113 L 14 113 Z M 14 4 " clip-rule="nonzero"/></clipPath><clipPath id="3713f833e8"><path d="M 48.308594 2.488281 L 95.488281 66.476562 L 31.5 113.65625 L -15.679688 49.667969 Z M 48.308594 2.488281 " clip-rule="nonzero"/></clipPath><clipPath id="09b51229ac"><path d="M 31.4375 114.082031 L -15.742188 50.09375 L 48.246094 2.914062 L 95.425781 66.902344 Z M 31.4375 114.082031 " clip-rule="nonzero"/></clipPath></defs><path fill="#a9bab4" d="M 18 18 L 162 18 L 162 162 L 18 162 Z M 18 18 " fill-opacity="1" fill-rule="nonzero"/><g clip-path="url(#7668e61262)"><path fill="#50665a" d="M 26.183594 26.324219 L 154.027344 26.324219 L 154.027344 153.675781 L 26.183594 153.675781 Z M 26.183594 26.324219 " fill-opacity="1" fill-rule="nonzero"/></g><path fill="#000000" d="M 71.675781 66.5625 C 71.675781 67.183594 71.707031 67.800781 71.765625 68.417969 C 71.828125 69.03125 71.917969 69.644531 72.039062 70.25 C 72.160156 70.859375 72.3125 71.457031 72.492188 72.050781 C 72.671875 72.644531 72.878906 73.226562 73.117188 73.796875 C 73.355469 74.367188 73.621094 74.925781 73.914062 75.472656 C 74.203125 76.019531 74.523438 76.550781 74.867188 77.0625 C 75.214844 77.578125 75.582031 78.074219 75.976562 78.554688 C 76.371094 79.03125 76.785156 79.492188 77.226562 79.929688 C 77.664062 80.367188 78.125 80.78125 78.601562 81.171875 C 79.082031 81.566406 79.582031 81.933594 80.097656 82.277344 C 80.613281 82.621094 81.144531 82.941406 81.691406 83.230469 C 82.238281 83.523438 82.800781 83.789062 83.375 84.023438 C 83.945312 84.261719 84.53125 84.46875 85.125 84.648438 C 85.71875 84.828125 86.320312 84.980469 86.929688 85.101562 C 87.535156 85.222656 88.148438 85.3125 88.769531 85.371094 C 89.386719 85.433594 90.003906 85.464844 90.625 85.464844 C 91.246094 85.464844 91.863281 85.433594 92.484375 85.371094 C 93.101562 85.3125 93.714844 85.222656 94.320312 85.101562 C 94.929688 84.980469 95.53125 84.828125 96.125 84.648438 C 96.71875 84.46875 97.304688 84.261719 97.878906 84.023438 C 98.449219 83.789062 99.011719 83.523438 99.558594 83.230469 C 100.105469 82.941406 100.636719 82.621094 101.152344 82.277344 C 101.667969 81.933594 102.167969 81.566406 102.648438 81.171875 C 103.125 80.78125 103.585938 80.367188 104.023438 79.929688 C 104.464844 79.492188 104.878906 79.03125 105.273438 78.554688 C 105.667969 78.074219 106.035156 77.578125 106.382812 77.0625 C 106.726562 76.550781 107.046875 76.019531 107.335938 75.472656 C 107.628906 74.925781 107.894531 74.367188 108.132812 73.796875 C 108.371094 73.226562 108.578125 72.644531 108.757812 72.050781 C 108.941406 71.457031 109.089844 70.859375 109.210938 70.25 C 109.332031 69.644531 109.421875 69.03125 109.484375 68.417969 C 109.546875 67.800781 109.574219 67.183594 109.574219 66.5625 C 109.574219 65.945312 109.546875 65.328125 109.484375 64.710938 C 109.421875 64.09375 109.332031 63.484375 109.210938 62.875 C 109.089844 62.269531 108.941406 61.667969 108.757812 61.078125 C 108.578125 60.484375 108.371094 59.902344 108.132812 59.332031 C 107.894531 58.757812 107.628906 58.199219 107.335938 57.65625 C 107.046875 57.109375 106.726562 56.578125 106.382812 56.0625 C 106.035156 55.550781 105.667969 55.050781 105.273438 54.574219 C 104.878906 54.09375 104.464844 53.636719 104.023438 53.199219 C 103.585938 52.761719 103.125 52.347656 102.648438 51.953125 C 102.167969 51.5625 101.667969 51.191406 101.152344 50.847656 C 100.636719 50.503906 100.105469 50.1875 99.558594 49.894531 C 99.011719 49.605469 98.449219 49.339844 97.878906 49.101562 C 97.304688 48.867188 96.71875 48.65625 96.125 48.476562 C 95.53125 48.296875 94.929688 48.148438 94.320312 48.027344 C 93.714844 47.90625 93.101562 47.816406 92.484375 47.753906 C 91.863281 47.695312 91.246094 47.664062 90.625 47.664062 C 90.003906 47.664062 89.386719 47.695312 88.769531 47.757812 C 88.152344 47.816406 87.539062 47.910156 86.929688 48.03125 C 86.320312 48.152344 85.71875 48.300781 85.125 48.484375 C 84.53125 48.664062 83.949219 48.871094 83.375 49.109375 C 82.804688 49.34375 82.242188 49.609375 81.695312 49.902344 C 81.148438 50.195312 80.617188 50.511719 80.101562 50.855469 C 79.585938 51.199219 79.089844 51.566406 78.609375 51.960938 C 78.128906 52.351562 77.671875 52.769531 77.230469 53.207031 C 76.792969 53.644531 76.375 54.101562 75.984375 54.578125 C 75.589844 55.058594 75.21875 55.554688 74.875 56.070312 C 74.53125 56.582031 74.210938 57.113281 73.917969 57.660156 C 73.625 58.203125 73.359375 58.761719 73.121094 59.335938 C 72.886719 59.90625 72.675781 60.488281 72.496094 61.078125 C 72.316406 61.671875 72.164062 62.269531 72.042969 62.878906 C 71.921875 63.484375 71.828125 64.097656 71.769531 64.710938 C 71.707031 65.328125 71.675781 65.945312 71.675781 66.5625 Z M 71.675781 66.5625 " fill-opacity="1" fill-rule="nonzero"/><g clip-path="url(#5ca70c80e3)"><path fill="#000000" d="M 99.449219 87.449219 C 98.054688 88.035156 96.613281 88.480469 95.125 88.777344 C 93.640625 89.078125 92.140625 89.226562 90.625 89.226562 C 89.109375 89.226562 87.609375 89.078125 86.125 88.777344 C 84.636719 88.480469 83.195312 88.035156 81.800781 87.449219 L 75.347656 153.09375 L 105.902344 153.09375 Z M 99.449219 87.449219 " fill-opacity="1" fill-rule="nonzero"/></g><g clip-path="url(#ff3654159b)"><g clip-path="url(#c6bbad120d)"><g clip-path="url(#0ab71c10f2)"><path fill="#ffffff" d="M 107.832031 38.5625 C 107.40625 38.292969 106.941406 38.113281 106.445312 38.027344 C 105.949219 37.941406 105.453125 37.957031 104.960938 38.066406 C 104.46875 38.175781 104.015625 38.378906 103.605469 38.667969 C 103.191406 38.960938 102.851562 39.320312 102.582031 39.746094 C 102.3125 40.171875 102.136719 40.632812 102.050781 41.132812 C 101.964844 41.628906 101.976562 42.125 102.085938 42.617188 C 102.199219 43.109375 102.398438 43.558594 102.691406 43.972656 C 102.980469 44.382812 103.339844 44.726562 103.765625 44.996094 C 104.476562 45.445312 105.164062 45.929688 105.828125 46.449219 C 106.492188 46.96875 107.128906 47.519531 107.738281 48.101562 C 108.351562 48.679688 108.929688 49.289062 109.480469 49.929688 C 110.03125 50.566406 110.546875 51.230469 111.03125 51.917969 C 111.519531 52.609375 111.96875 53.320312 112.382812 54.050781 C 112.800781 54.785156 113.175781 55.535156 113.519531 56.304688 C 113.859375 57.074219 114.164062 57.859375 114.429688 58.660156 C 114.695312 59.460938 114.917969 60.269531 115.105469 61.09375 C 115.289062 61.914062 115.433594 62.742188 115.539062 63.578125 C 115.640625 64.414062 115.703125 65.253906 115.726562 66.097656 C 115.75 66.9375 115.730469 67.78125 115.667969 68.621094 C 115.609375 69.460938 115.507812 70.296875 115.363281 71.125 C 115.222656 71.957031 115.039062 72.777344 114.816406 73.589844 C 114.59375 74.402344 114.328125 75.203125 114.027344 75.988281 C 113.726562 76.777344 113.386719 77.546875 113.011719 78.300781 C 112.632812 79.054688 112.222656 79.785156 111.773438 80.5 C 111.503906 80.925781 111.324219 81.390625 111.238281 81.886719 C 111.152344 82.386719 111.164062 82.878906 111.277344 83.375 C 111.386719 83.867188 111.589844 84.320312 111.882812 84.734375 C 112.171875 85.144531 112.53125 85.488281 112.960938 85.757812 C 113.386719 86.027344 113.847656 86.203125 114.347656 86.289062 C 114.84375 86.375 115.339844 86.363281 115.835938 86.253906 C 116.328125 86.140625 116.78125 85.941406 117.191406 85.648438 C 117.605469 85.355469 117.945312 84.996094 118.21875 84.570312 C 118.796875 83.644531 119.332031 82.695312 119.820312 81.71875 C 120.3125 80.742188 120.75 79.746094 121.140625 78.726562 C 121.53125 77.707031 121.871094 76.667969 122.160156 75.617188 C 122.449219 74.5625 122.6875 73.5 122.871094 72.421875 C 123.054688 71.347656 123.1875 70.265625 123.265625 69.175781 C 123.34375 68.085938 123.367188 66.996094 123.339844 65.90625 C 123.3125 64.8125 123.230469 63.726562 123.09375 62.640625 C 122.960938 61.558594 122.773438 60.484375 122.53125 59.417969 C 122.289062 58.355469 122 57.304688 121.65625 56.265625 C 121.3125 55.230469 120.917969 54.214844 120.476562 53.214844 C 120.03125 52.21875 119.542969 51.246094 119.003906 50.292969 C 118.464844 49.34375 117.878906 48.421875 117.25 47.53125 C 116.621094 46.640625 115.949219 45.777344 115.238281 44.953125 C 114.523438 44.125 113.773438 43.335938 112.980469 42.582031 C 112.191406 41.832031 111.367188 41.117188 110.503906 40.445312 C 109.644531 39.773438 108.753906 39.144531 107.832031 38.5625 Z M 107.832031 38.5625 " fill-opacity="1" fill-rule="nonzero"/></g></g></g><g clip-path="url(#8629df541a)"><g clip-path="url(#b0a3f6e131)"><g clip-path="url(#95bca2197d)"><path fill="#ffffff" d="M 119.148438 20.644531 C 118.722656 20.375 118.261719 20.195312 117.761719 20.109375 C 117.265625 20.027344 116.769531 20.039062 116.277344 20.148438 C 115.785156 20.261719 115.335938 20.460938 114.921875 20.753906 C 114.511719 21.042969 114.167969 21.402344 113.898438 21.828125 C 113.628906 22.253906 113.453125 22.71875 113.367188 23.214844 C 113.28125 23.710938 113.292969 24.207031 113.40625 24.699219 C 113.515625 25.191406 113.71875 25.644531 114.007812 26.054688 C 114.300781 26.46875 114.65625 26.808594 115.085938 27.078125 C 116.382812 27.898438 117.636719 28.785156 118.847656 29.730469 C 120.058594 30.675781 121.21875 31.675781 122.332031 32.734375 C 123.445312 33.792969 124.503906 34.90625 125.507812 36.070312 C 126.507812 37.230469 127.453125 38.441406 128.339844 39.695312 C 129.222656 40.953125 130.042969 42.25 130.800781 43.585938 C 131.558594 44.921875 132.25 46.292969 132.871094 47.695312 C 133.496094 49.097656 134.050781 50.53125 134.53125 51.988281 C 135.015625 53.445312 135.425781 54.925781 135.761719 56.425781 C 136.101562 57.921875 136.363281 59.433594 136.550781 60.957031 C 136.742188 62.484375 136.855469 64.011719 136.894531 65.546875 C 136.933594 67.082031 136.898438 68.617188 136.785156 70.148438 C 136.675781 71.683594 136.488281 73.203125 136.230469 74.71875 C 135.96875 76.230469 135.632812 77.730469 135.226562 79.210938 C 134.816406 80.691406 134.339844 82.148438 133.789062 83.582031 C 133.238281 85.015625 132.617188 86.421875 131.929688 87.792969 C 131.242188 89.167969 130.488281 90.503906 129.667969 91.800781 C 129.394531 92.230469 129.21875 92.695312 129.132812 93.195312 C 129.046875 93.695312 129.058594 94.191406 129.167969 94.6875 C 129.28125 95.183594 129.484375 95.636719 129.777344 96.050781 C 130.070312 96.464844 130.429688 96.808594 130.859375 97.078125 C 131.285156 97.347656 131.75 97.527344 132.25 97.613281 C 132.75 97.699219 133.25 97.6875 133.742188 97.574219 C 134.238281 97.464844 134.691406 97.261719 135.105469 96.96875 C 135.519531 96.675781 135.863281 96.316406 136.132812 95.886719 C 137.089844 94.378906 137.964844 92.824219 138.765625 91.226562 C 139.570312 89.628906 140.289062 88 140.929688 86.332031 C 141.570312 84.664062 142.128906 82.96875 142.605469 81.246094 C 143.078125 79.523438 143.46875 77.785156 143.769531 76.023438 C 144.074219 74.261719 144.292969 72.492188 144.421875 70.710938 C 144.550781 68.929688 144.589844 67.144531 144.546875 65.359375 C 144.5 63.574219 144.367188 61.792969 144.144531 60.019531 C 143.925781 58.246094 143.617188 56.492188 143.226562 54.746094 C 142.832031 53.003906 142.355469 51.285156 141.792969 49.589844 C 141.230469 47.894531 140.585938 46.230469 139.859375 44.597656 C 139.132812 42.964844 138.328125 41.375 137.449219 39.820312 C 136.566406 38.265625 135.609375 36.761719 134.578125 35.300781 C 133.546875 33.84375 132.449219 32.4375 131.28125 31.085938 C 130.113281 29.734375 128.878906 28.441406 127.585938 27.210938 C 126.289062 25.984375 124.9375 24.820312 123.527344 23.722656 C 122.117188 22.625 120.660156 21.597656 119.148438 20.644531 Z M 119.148438 20.644531 " fill-opacity="1" fill-rule="nonzero"/></g></g></g><g clip-path="url(#8ab585d135)"><g clip-path="url(#9ac9d66ffd)"><g clip-path="url(#22120f559c)"><path fill="#ffffff" d="M 130.421875 2.792969 C 129.996094 2.523438 129.535156 2.347656 129.039062 2.261719 C 128.539062 2.175781 128.046875 2.1875 127.554688 2.300781 C 127.0625 2.410156 126.609375 2.613281 126.195312 2.902344 C 125.785156 3.195312 125.445312 3.550781 125.175781 3.980469 C 124.90625 4.40625 124.726562 4.867188 124.640625 5.363281 C 124.554688 5.863281 124.570312 6.355469 124.679688 6.847656 C 124.792969 7.339844 124.992188 7.792969 125.285156 8.207031 C 125.574219 8.617188 125.933594 8.957031 126.359375 9.226562 C 127.300781 9.824219 128.226562 10.441406 129.136719 11.082031 C 130.046875 11.722656 130.9375 12.386719 131.816406 13.074219 C 132.695312 13.757812 133.554688 14.464844 134.398438 15.191406 C 135.242188 15.917969 136.066406 16.664062 136.871094 17.433594 C 137.679688 18.199219 138.464844 18.988281 139.234375 19.792969 C 140 20.597656 140.746094 21.421875 141.476562 22.265625 C 142.203125 23.109375 142.910156 23.96875 143.59375 24.847656 C 144.28125 25.722656 144.941406 26.617188 145.585938 27.527344 C 146.226562 28.4375 146.84375 29.363281 147.441406 30.300781 C 148.035156 31.242188 148.609375 32.195312 149.160156 33.164062 C 149.707031 34.132812 150.234375 35.113281 150.734375 36.109375 C 151.234375 37.101562 151.710938 38.109375 152.164062 39.125 C 152.617188 40.144531 153.042969 41.171875 153.445312 42.207031 C 153.84375 43.246094 154.222656 44.292969 154.570312 45.351562 C 154.921875 46.40625 155.246094 47.472656 155.542969 48.546875 C 155.84375 49.617188 156.113281 50.695312 156.359375 51.78125 C 156.605469 52.867188 156.824219 53.960938 157.015625 55.054688 C 157.207031 56.152344 157.371094 57.253906 157.507812 58.359375 C 157.644531 59.464844 157.757812 60.570312 157.839844 61.679688 C 157.921875 62.789062 157.980469 63.902344 158.007812 65.015625 C 158.039062 66.128906 158.039062 67.242188 158.011719 68.355469 C 157.988281 69.464844 157.933594 70.578125 157.855469 71.6875 C 157.773438 72.800781 157.667969 73.90625 157.535156 75.011719 C 157.398438 76.117188 157.238281 77.21875 157.050781 78.316406 C 156.859375 79.414062 156.644531 80.503906 156.402344 81.589844 C 156.164062 82.675781 155.894531 83.757812 155.597656 84.832031 C 155.304688 85.90625 154.984375 86.96875 154.636719 88.027344 C 154.289062 89.085938 153.917969 90.132812 153.519531 91.175781 C 153.121094 92.214844 152.695312 93.242188 152.246094 94.261719 C 151.796875 95.28125 151.324219 96.285156 150.828125 97.28125 C 150.328125 98.277344 149.804688 99.261719 149.261719 100.230469 C 148.714844 101.199219 148.144531 102.15625 147.550781 103.097656 C 147.28125 103.527344 147.101562 103.988281 147.015625 104.488281 C 146.929688 104.984375 146.945312 105.480469 147.054688 105.972656 C 147.167969 106.464844 147.367188 106.917969 147.660156 107.332031 C 147.949219 107.746094 148.308594 108.085938 148.738281 108.355469 C 149.164062 108.625 149.628906 108.804688 150.125 108.890625 C 150.625 108.976562 151.121094 108.964844 151.613281 108.851562 C 152.105469 108.742188 152.558594 108.539062 152.972656 108.246094 C 153.382812 107.957031 153.726562 107.597656 153.996094 107.167969 C 154.652344 106.121094 155.285156 105.058594 155.894531 103.980469 C 156.5 102.902344 157.078125 101.808594 157.632812 100.699219 C 158.183594 99.59375 158.710938 98.472656 159.207031 97.339844 C 159.707031 96.207031 160.175781 95.0625 160.617188 93.90625 C 161.0625 92.75 161.472656 91.585938 161.859375 90.410156 C 162.246094 89.234375 162.601562 88.046875 162.925781 86.855469 C 163.253906 85.660156 163.550781 84.460938 163.820312 83.253906 C 164.089844 82.042969 164.328125 80.832031 164.535156 79.609375 C 164.746094 78.390625 164.921875 77.167969 165.070312 75.9375 C 165.21875 74.710938 165.339844 73.476562 165.429688 72.242188 C 165.515625 71.007812 165.574219 69.773438 165.601562 68.535156 C 165.628906 67.300781 165.628906 66.0625 165.597656 64.824219 C 165.5625 63.585938 165.5 62.351562 165.40625 61.117188 C 165.3125 59.882812 165.191406 58.652344 165.039062 57.425781 C 164.882812 56.195312 164.703125 54.972656 164.488281 53.753906 C 164.273438 52.535156 164.03125 51.320312 163.757812 50.113281 C 163.488281 48.90625 163.183594 47.707031 162.851562 46.515625 C 162.523438 45.324219 162.160156 44.140625 161.773438 42.964844 C 161.382812 41.789062 160.964844 40.625 160.519531 39.472656 C 160.074219 38.316406 159.597656 37.175781 159.097656 36.042969 C 158.59375 34.914062 158.0625 33.792969 157.507812 32.691406 C 156.949219 31.585938 156.367188 30.492188 155.757812 29.417969 C 155.144531 28.339844 154.507812 27.28125 153.847656 26.234375 C 153.183594 25.1875 152.496094 24.160156 151.785156 23.148438 C 151.070312 22.136719 150.335938 21.144531 149.574219 20.167969 C 148.8125 19.191406 148.027344 18.234375 147.21875 17.296875 C 146.410156 16.359375 145.578125 15.445312 144.726562 14.546875 C 143.875 13.652344 143 12.777344 142.101562 11.921875 C 141.207031 11.070312 140.292969 10.238281 139.355469 9.429688 C 138.417969 8.621094 137.460938 7.835938 136.488281 7.070312 C 135.511719 6.308594 134.519531 5.574219 133.507812 4.859375 C 132.496094 4.144531 131.46875 3.457031 130.421875 2.792969 Z M 130.421875 2.792969 " fill-opacity="1" fill-rule="nonzero"/></g></g></g><g clip-path="url(#4ec7c84afd)"><g clip-path="url(#a3fc6120cf)"><g clip-path="url(#d8d64e5293)"><path fill="#ffffff" d="M 63.304688 85.617188 C 63.605469 86.027344 63.972656 86.359375 64.402344 86.621094 C 64.835938 86.882812 65.300781 87.050781 65.800781 87.125 C 66.300781 87.199219 66.796875 87.175781 67.285156 87.054688 C 67.777344 86.933594 68.226562 86.722656 68.632812 86.425781 C 69.039062 86.125 69.375 85.757812 69.632812 85.324219 C 69.894531 84.894531 70.0625 84.425781 70.140625 83.925781 C 70.214844 83.425781 70.191406 82.933594 70.070312 82.441406 C 69.949219 81.953125 69.738281 81.503906 69.4375 81.097656 C 68.9375 80.417969 68.472656 79.714844 68.042969 78.988281 C 67.613281 78.261719 67.21875 77.515625 66.863281 76.753906 C 66.503906 75.988281 66.1875 75.207031 65.90625 74.414062 C 65.625 73.617188 65.382812 72.808594 65.179688 71.992188 C 64.980469 71.171875 64.816406 70.34375 64.695312 69.507812 C 64.578125 68.675781 64.496094 67.835938 64.457031 66.992188 C 64.421875 66.148438 64.421875 65.308594 64.46875 64.464844 C 64.511719 63.621094 64.597656 62.785156 64.722656 61.949219 C 64.847656 61.117188 65.015625 60.289062 65.222656 59.472656 C 65.429688 58.652344 65.675781 57.847656 65.964844 57.054688 C 66.25 56.261719 66.574219 55.484375 66.9375 54.722656 C 67.300781 53.960938 67.699219 53.21875 68.132812 52.496094 C 68.570312 51.773438 69.039062 51.070312 69.542969 50.394531 C 70.046875 49.71875 70.582031 49.066406 71.148438 48.445312 C 71.71875 47.820312 72.3125 47.226562 72.941406 46.660156 C 73.566406 46.09375 74.21875 45.558594 74.894531 45.058594 C 75.304688 44.757812 75.636719 44.390625 75.898438 43.957031 C 76.160156 43.523438 76.328125 43.058594 76.40625 42.554688 C 76.480469 42.054688 76.457031 41.558594 76.335938 41.070312 C 76.214844 40.578125 76.003906 40.128906 75.703125 39.71875 C 75.402344 39.3125 75.035156 38.980469 74.601562 38.71875 C 74.167969 38.457031 73.703125 38.289062 73.203125 38.210938 C 72.703125 38.136719 72.207031 38.160156 71.714844 38.28125 C 71.222656 38.402344 70.773438 38.613281 70.367188 38.914062 C 69.488281 39.5625 68.640625 40.253906 67.832031 40.988281 C 67.019531 41.722656 66.246094 42.492188 65.511719 43.300781 C 64.773438 44.109375 64.082031 44.953125 63.425781 45.832031 C 62.773438 46.707031 62.167969 47.617188 61.601562 48.550781 C 61.039062 49.488281 60.519531 50.449219 60.050781 51.4375 C 59.582031 52.425781 59.160156 53.433594 58.789062 54.460938 C 58.421875 55.492188 58.101562 56.535156 57.832031 57.59375 C 57.5625 58.65625 57.347656 59.726562 57.183594 60.808594 C 57.019531 61.886719 56.910156 62.976562 56.855469 64.066406 C 56.796875 65.160156 56.792969 66.25 56.84375 67.34375 C 56.894531 68.433594 56.996094 69.523438 57.152344 70.605469 C 57.3125 71.6875 57.519531 72.757812 57.78125 73.820312 C 58.042969 74.882812 58.355469 75.929688 58.722656 76.960938 C 59.085938 77.988281 59.5 79 59.964844 79.992188 C 60.425781 80.980469 60.9375 81.945312 61.496094 82.886719 C 62.054688 83.828125 62.65625 84.738281 63.304688 85.617188 Z M 63.304688 85.617188 " fill-opacity="1" fill-rule="nonzero"/></g></g></g><g clip-path="url(#ac3b147ff1)"><g clip-path="url(#825d72d1cf)"><g clip-path="url(#e2f817741a)"><path fill="#ffffff" d="M 46.222656 98.214844 C 46.523438 98.621094 46.890625 98.953125 47.320312 99.214844 C 47.753906 99.476562 48.21875 99.644531 48.71875 99.71875 C 49.21875 99.796875 49.714844 99.773438 50.203125 99.652344 C 50.695312 99.53125 51.144531 99.320312 51.550781 99.019531 C 51.957031 98.71875 52.292969 98.351562 52.550781 97.921875 C 52.8125 97.488281 52.980469 97.023438 53.058594 96.523438 C 53.132812 96.023438 53.109375 95.527344 52.988281 95.039062 C 52.867188 94.546875 52.65625 94.097656 52.355469 93.691406 C 51.445312 92.453125 50.597656 91.171875 49.8125 89.847656 C 49.027344 88.527344 48.308594 87.167969 47.65625 85.773438 C 47.003906 84.382812 46.421875 82.960938 45.90625 81.507812 C 45.394531 80.058594 44.953125 78.585938 44.585938 77.09375 C 44.21875 75.597656 43.921875 74.089844 43.703125 72.570312 C 43.484375 71.046875 43.335938 69.515625 43.265625 67.980469 C 43.199219 66.441406 43.203125 64.90625 43.28125 63.371094 C 43.363281 61.832031 43.519531 60.304688 43.75 58.785156 C 43.980469 57.261719 44.285156 55.757812 44.664062 54.265625 C 45.042969 52.773438 45.492188 51.304688 46.015625 49.859375 C 46.539062 48.414062 47.128906 46.996094 47.792969 45.605469 C 48.453125 44.21875 49.179688 42.863281 49.976562 41.546875 C 50.769531 40.230469 51.628906 38.953125 52.546875 37.722656 C 53.464844 36.488281 54.445312 35.300781 55.480469 34.164062 C 56.515625 33.027344 57.605469 31.945312 58.746094 30.914062 C 59.890625 29.882812 61.078125 28.910156 62.316406 27.996094 C 62.726562 27.695312 63.0625 27.328125 63.324219 26.894531 C 63.585938 26.457031 63.753906 25.988281 63.832031 25.488281 C 63.90625 24.984375 63.882812 24.488281 63.761719 23.996094 C 63.640625 23.5 63.429688 23.050781 63.125 22.640625 C 62.824219 22.234375 62.457031 21.898438 62.023438 21.632812 C 61.585938 21.371094 61.117188 21.203125 60.617188 21.128906 C 60.113281 21.050781 59.617188 21.074219 59.125 21.195312 C 58.628906 21.320312 58.179688 21.53125 57.769531 21.832031 C 56.332031 22.894531 54.945312 24.023438 53.617188 25.222656 C 52.289062 26.417969 51.019531 27.679688 49.816406 29 C 48.609375 30.324219 47.472656 31.699219 46.402344 33.136719 C 45.335938 34.570312 44.335938 36.050781 43.414062 37.582031 C 42.488281 39.117188 41.644531 40.6875 40.875 42.304688 C 40.105469 43.917969 39.414062 45.570312 38.808594 47.25 C 38.199219 48.933594 37.675781 50.640625 37.238281 52.375 C 36.796875 54.109375 36.445312 55.863281 36.175781 57.632812 C 35.910156 59.398438 35.730469 61.179688 35.636719 62.964844 C 35.542969 64.75 35.539062 66.539062 35.621094 68.324219 C 35.703125 70.113281 35.875 71.890625 36.132812 73.660156 C 36.390625 75.429688 36.734375 77.183594 37.164062 78.921875 C 37.59375 80.660156 38.109375 82.371094 38.707031 84.054688 C 39.304688 85.742188 39.984375 87.394531 40.742188 89.015625 C 41.503906 90.632812 42.339844 92.210938 43.257812 93.75 C 44.171875 95.285156 45.160156 96.773438 46.222656 98.214844 Z M 46.222656 98.214844 " fill-opacity="1" fill-rule="nonzero"/></g></g></g><g clip-path="url(#9fc528a5a1)"><g clip-path="url(#3713f833e8)"><g clip-path="url(#09b51229ac)"><path fill="#ffffff" d="M 29.203125 110.761719 C 29.503906 111.167969 29.871094 111.503906 30.304688 111.761719 C 30.734375 112.023438 31.203125 112.191406 31.703125 112.269531 C 32.203125 112.34375 32.695312 112.320312 33.1875 112.199219 C 33.675781 112.078125 34.125 111.867188 34.53125 111.566406 C 34.941406 111.265625 35.273438 110.902344 35.535156 110.46875 C 35.796875 110.035156 35.964844 109.570312 36.039062 109.070312 C 36.113281 108.570312 36.09375 108.074219 35.96875 107.585938 C 35.847656 107.09375 35.636719 106.644531 35.339844 106.238281 C 34.679688 105.339844 34.039062 104.425781 33.425781 103.496094 C 32.808594 102.566406 32.214844 101.625 31.648438 100.664062 C 31.078125 99.707031 30.53125 98.734375 30.011719 97.75 C 29.488281 96.765625 28.992188 95.765625 28.519531 94.757812 C 28.046875 93.746094 27.597656 92.726562 27.175781 91.695312 C 26.753906 90.664062 26.355469 89.621094 25.984375 88.570312 C 25.613281 87.519531 25.265625 86.460938 24.945312 85.394531 C 24.625 84.324219 24.332031 83.25 24.066406 82.167969 C 23.796875 81.085938 23.558594 79.996094 23.34375 78.902344 C 23.128906 77.808594 22.945312 76.710938 22.785156 75.605469 C 22.625 74.503906 22.492188 73.398438 22.386719 72.285156 C 22.28125 71.175781 22.199219 70.066406 22.148438 68.953125 C 22.097656 67.835938 22.074219 66.722656 22.078125 65.609375 C 22.082031 64.492188 22.113281 63.378906 22.171875 62.265625 C 22.226562 61.152344 22.3125 60.042969 22.425781 58.933594 C 22.539062 57.824219 22.679688 56.71875 22.84375 55.617188 C 23.011719 54.511719 23.203125 53.414062 23.425781 52.324219 C 23.644531 51.230469 23.894531 50.144531 24.167969 49.0625 C 24.441406 47.980469 24.738281 46.90625 25.066406 45.84375 C 25.394531 44.777344 25.746094 43.71875 26.125 42.667969 C 26.5 41.621094 26.90625 40.582031 27.335938 39.554688 C 27.761719 38.523438 28.21875 37.507812 28.695312 36.5 C 29.175781 35.492188 29.679688 34.5 30.207031 33.515625 C 30.734375 32.535156 31.285156 31.566406 31.859375 30.609375 C 32.4375 29.65625 33.035156 28.714844 33.65625 27.789062 C 34.277344 26.863281 34.917969 25.953125 35.585938 25.058594 C 36.25 24.164062 36.9375 23.289062 37.648438 22.429688 C 38.355469 21.566406 39.085938 20.726562 39.835938 19.898438 C 40.585938 19.074219 41.355469 18.269531 42.144531 17.480469 C 42.9375 16.695312 43.742188 15.929688 44.570312 15.179688 C 45.398438 14.433594 46.242188 13.707031 47.105469 13 C 47.96875 12.292969 48.847656 11.609375 49.746094 10.949219 C 50.152344 10.648438 50.488281 10.28125 50.75 9.847656 C 51.011719 9.414062 51.179688 8.945312 51.253906 8.445312 C 51.328125 7.945312 51.308594 7.449219 51.183594 6.957031 C 51.0625 6.46875 50.851562 6.015625 50.550781 5.609375 C 50.253906 5.203125 49.886719 4.867188 49.453125 4.605469 C 49.019531 4.34375 48.550781 4.175781 48.050781 4.101562 C 47.550781 4.027344 47.054688 4.046875 46.5625 4.171875 C 46.070312 4.292969 45.621094 4.503906 45.214844 4.804688 C 44.21875 5.539062 43.242188 6.300781 42.285156 7.089844 C 41.324219 7.875 40.386719 8.683594 39.46875 9.515625 C 38.546875 10.34375 37.648438 11.199219 36.773438 12.074219 C 35.894531 12.949219 35.039062 13.847656 34.207031 14.765625 C 33.375 15.683594 32.5625 16.617188 31.777344 17.574219 C 30.988281 18.53125 30.226562 19.507812 29.484375 20.503906 C 28.746094 21.496094 28.03125 22.511719 27.339844 23.539062 C 26.652344 24.570312 25.988281 25.613281 25.347656 26.675781 C 24.707031 27.738281 24.097656 28.816406 23.511719 29.90625 C 22.925781 31 22.363281 32.105469 21.832031 33.226562 C 21.300781 34.34375 20.796875 35.476562 20.320312 36.621094 C 19.84375 37.765625 19.394531 38.917969 18.976562 40.085938 C 18.554688 41.25 18.164062 42.425781 17.800781 43.613281 C 17.4375 44.796875 17.105469 45.992188 16.800781 47.191406 C 16.496094 48.394531 16.222656 49.601562 15.976562 50.816406 C 15.734375 52.03125 15.519531 53.25 15.332031 54.476562 C 15.148438 55.703125 14.992188 56.929688 14.867188 58.164062 C 14.742188 59.398438 14.648438 60.632812 14.582031 61.871094 C 14.519531 63.109375 14.484375 64.347656 14.480469 65.585938 C 14.476562 66.824219 14.503906 68.0625 14.558594 69.300781 C 14.617188 70.539062 14.703125 71.777344 14.820312 73.011719 C 14.9375 74.242188 15.085938 75.472656 15.265625 76.699219 C 15.441406 77.925781 15.648438 79.148438 15.886719 80.367188 C 16.125 81.582031 16.390625 82.792969 16.6875 83.996094 C 16.984375 85.199219 17.308594 86.394531 17.664062 87.582031 C 18.019531 88.769531 18.402344 89.945312 18.816406 91.113281 C 19.230469 92.285156 19.671875 93.441406 20.140625 94.589844 C 20.609375 95.734375 21.105469 96.871094 21.632812 97.992188 C 22.15625 99.117188 22.707031 100.226562 23.289062 101.320312 C 23.867188 102.417969 24.472656 103.496094 25.105469 104.5625 C 25.738281 105.628906 26.394531 106.679688 27.078125 107.710938 C 27.761719 108.746094 28.472656 109.761719 29.203125 110.761719 Z M 29.203125 110.761719 " fill-opacity="1" fill-rule="nonzero"/></g></g></g></svg>