<svg xmlns="http://www.w3.org/2000/svg" xmlns:xlink="http://www.w3.org/1999/xlink" width="300" zoomAndPan="magnify" viewBox="0 0 224.87999 74.999997" height="100" preserveAspectRatio="xMidYMid meet" version="1.0"><defs><clipPath id="4e62d4cd47"><path d="M 31.160156 4.988281 L 193.824219 4.988281 L 193.824219 70.203125 L 31.160156 70.203125 Z M 31.160156 4.988281 " clip-rule="nonzero"/></clipPath></defs><g clip-path="url(#4e62d4cd47)"><path fill="#000000" d="M 31.289062 41.660156 C 31.363281 33.976562 31.4375 26.289062 31.511719 18.605469 C 32.515625 18.492188 33.976562 18.449219 35.671875 18.824219 C 36.941406 19.101562 37.972656 19.53125 38.738281 19.921875 L 38.738281 21.019531 L 78.9375 20.472656 C 79.664062 20.441406 80.203125 19.8125 80.144531 19.15625 C 80.09375 18.566406 79.578125 18.078125 78.9375 18.054688 L 78.9375 15.089844 L 80.691406 15.089844 L 80.691406 15.96875 L 82.773438 15.859375 L 84.523438 13.664062 L 89.890625 13.664062 L 89.890625 11.25 L 91.316406 11.25 L 91.316406 10.261719 L 90.328125 10.261719 L 90.328125 8.945312 L 92.410156 8.945312 L 92.410156 4.988281 L 93.507812 4.988281 L 93.507812 9.597656 L 95.367188 11.355469 L 98.984375 11.464844 L 98.984375 14.101562 L 105.554688 13.878906 L 105.554688 13.222656 L 109.28125 13.113281 L 109.28125 14.320312 L 133.816406 13.878906 L 133.816406 12.894531 L 135.566406 12.671875 L 135.566406 11.027344 L 138.085938 11.027344 L 138.085938 9.925781 L 140.386719 10.039062 L 140.386719 4.988281 L 141.8125 4.988281 L 141.8125 7.402344 L 143.894531 7.292969 L 143.894531 9.929688 L 144.769531 9.820312 L 144.769531 13.222656 L 147.945312 14.871094 L 151.78125 14.980469 L 153.3125 22.996094 L 156.707031 22.996094 L 157.257812 20.910156 L 192.308594 21.347656 C 192.613281 21.707031 193.382812 22.710938 193.511719 24.203125 C 193.6875 26.234375 192.546875 27.648438 192.308594 27.9375 C 180.585938 28.011719 168.867188 28.082031 157.148438 28.15625 L 157.039062 26.289062 L 153.96875 26.289062 L 155.832031 31.339844 L 153.96875 31.121094 L 152.4375 29.253906 C 152.394531 29.195312 151.503906 28.023438 150.136719 28.15625 C 148.976562 28.265625 147.988281 29.261719 147.835938 30.570312 C 147.726562 37.742188 147.617188 44.917969 147.507812 52.089844 L 140.496094 49.34375 L 140.605469 28.539062 L 126.585938 28.539062 C 125.707031 30.898438 124.832031 33.261719 123.957031 35.621094 C 120.003906 35.765625 116.054688 35.914062 112.105469 36.058594 C 112.601562 40.605469 113.09375 45.148438 113.589844 49.695312 C 113.09375 49.796875 112.601562 49.902344 112.105469 50.003906 L 116.835938 68.449219 L 105.445312 70.207031 L 101.832031 50.882812 L 99.859375 50.664062 C 99.820312 46.308594 99.785156 41.953125 99.75 37.597656 C 100.007812 37.222656 101.25 35.339844 100.734375 32.984375 C 100.480469 31.828125 99.90625 31.015625 99.53125 30.570312 L 90.878906 30.570312 L 90.984375 31.886719 L 84.304688 31.886719 L 84.304688 30.570312 L 79.921875 30.570312 L 79.703125 26.945312 L 78.28125 26.835938 L 78.28125 23.542969 C 65.390625 23.617188 52.503906 23.691406 39.613281 23.761719 C 39.878906 26.59375 39.898438 30.769531 38.519531 35.511719 C 37.839844 37.851562 36.964844 39.832031 36.109375 41.441406 C 34.503906 41.515625 32.894531 41.585938 31.289062 41.660156 Z M 116.316406 31.347656 C 116.859375 32.042969 117.695312 32.101562 117.832031 32.109375 C 118.074219 32.136719 118.261719 32.320312 118.289062 32.542969 C 118.320312 32.800781 118.121094 33.0625 117.832031 33.097656 C 117.652344 33.132812 116.230469 33.390625 115.105469 32.398438 C 114.339844 31.722656 114.152344 30.855469 114.105469 30.570312 L 113.121094 30.570312 C 113.011719 30.730469 112.523438 31.480469 112.683594 32.5 C 112.84375 33.527344 113.539062 34.09375 113.691406 34.210938 C 116.632812 34.222656 119.578125 34.238281 122.519531 34.25 C 122.894531 32.511719 123.265625 30.773438 123.636719 29.035156 L 116.191406 29.035156 C 115.773438 29.800781 115.824219 30.714844 116.320312 31.347656 Z M 116.316406 31.347656 " fill-opacity="1" fill-rule="nonzero"/></g></svg>