<svg xmlns="http://www.w3.org/2000/svg" xmlns:xlink="http://www.w3.org/1999/xlink" width="300" zoomAndPan="magnify" viewBox="0 0 224.87999 74.999997" height="100" preserveAspectRatio="xMidYMid meet" version="1.0"><defs><clipPath id="737e4e17fc"><path d="M 0.632812 16.675781 L 224 16.675781 L 224 58.652344 L 0.632812 58.652344 Z M 0.632812 16.675781 " clip-rule="nonzero"/></clipPath></defs><g clip-path="url(#737e4e17fc)"><path fill="#000000" d="M 37.066406 55.742188 L 54.796875 58.203125 L 57.015625 49.257812 L 68.539062 49.257812 L 70.753906 46.574219 L 80.949219 46.574219 L 94.691406 42.324219 L 136.136719 42.324219 L 136.136719 34.992188 L 223.683594 34.992188 L 223.683594 30.867188 L 90.480469 30.867188 L 90.480469 25.855469 L 90.851562 25.855469 L 99.671875 27.5625 L 99.671875 27.570312 L 111.492188 27.570312 L 111.492188 18.621094 L 99.671875 18.621094 L 99.671875 18.632812 L 90.851562 20.335938 L 90.851562 20.34375 L 84.792969 20.34375 L 84.792969 16.675781 L 78.882812 16.675781 L 78.882812 20.34375 L 50.808594 20.34375 L 50.808594 25.855469 L 70.09375 25.855469 L 70.09375 30.867188 L 59.972656 30.867188 L 59.972656 30.886719 L 59.453125 30.867188 L 59.453125 33.824219 L 33.375 33.824219 L 33.375 30.867188 L 6.777344 30.867188 L 6.777344 33.824219 L 0.941406 33.824219 L 0.941406 58.652344 L 15.125 55.296875 L 15.125 50.601562 L 32.191406 50.601562 Z M 100.160156 34.421875 L 130.007812 34.421875 L 130.007812 36.507812 L 100.160156 36.507812 Z M 72.972656 25.855469 L 87.601562 25.855469 L 87.601562 30.867188 L 72.972656 30.867188 Z M 72.972656 25.855469 " fill-opacity="1" fill-rule="nonzero"/></g></svg>