<svg xmlns="http://www.w3.org/2000/svg" xmlns:xlink="http://www.w3.org/1999/xlink" width="300" zoomAndPan="magnify" viewBox="0 0 224.87999 74.999997" height="100" preserveAspectRatio="xMidYMid meet" version="1.0"><defs><clipPath id="2891110de5"><path d="M 4 18.355469 L 221.207031 18.355469 L 221.207031 56.585938 L 4 56.585938 Z M 4 18.355469 " clip-rule="nonzero"/></clipPath></defs><g clip-path="url(#2891110de5)"><path fill="#000000" d="M 221.035156 19.34375 L 221.035156 18.660156 C 221.035156 18.660156 80.804688 18.523438 77.398438 18.625 C 73.992188 18.726562 72.726562 20.625 72.726562 20.625 L 71.363281 19.726562 L 65.6875 20.824219 L 65.214844 22.824219 C 63.414062 23.125 57.90625 27.128906 55.003906 28.929688 C 52.101562 30.734375 46.46875 28.136719 46.46875 28.136719 C 43.910156 27.210938 8.4375 30.632812 6.128906 31.035156 C 3.820312 31.4375 4.230469 39.542969 5.230469 42.34375 C 6.226562 45.144531 6.429688 50.851562 6.429688 53.660156 C 6.429688 56.464844 7.332031 56.457031 7.332031 56.457031 C 7.332031 56.457031 29.867188 47.449219 36.164062 43.441406 C 42.460938 39.433594 46.46875 41.742188 46.46875 41.742188 C 46.46875 41.742188 51.175781 43.441406 53.175781 44.25 C 55.175781 45.054688 55.65625 41.441406 55.65625 41.441406 C 56.480469 33.832031 65.898438 31.4375 65.898438 31.4375 L 69.796875 31.136719 L 71.703125 32.132812 L 72.203125 35.9375 C 72.882812 38.539062 78.90625 38.039062 81.207031 37.140625 C 81.539062 37 81.84375 36.8125 82.113281 36.578125 C 82.386719 36.34375 82.617188 36.074219 82.804688 35.769531 C 82.996094 35.460938 83.132812 35.136719 83.21875 34.785156 C 83.304688 34.4375 83.335938 34.082031 83.3125 33.726562 L 85.703125 30.929688 L 106.421875 31.53125 L 107.625 30.734375 L 108.722656 30.835938 L 108.523438 32.339844 L 108.824219 33.738281 L 155.773438 32.917969 L 155.972656 30.417969 L 185.699219 30.417969 L 185.800781 29.550781 L 188.300781 29.550781 L 188.402344 28.21875 L 185.90625 28.015625 L 185.90625 26.828125 L 184 26.527344 L 183.800781 25.53125 L 184.796875 25.332031 L 185.097656 24.074219 L 221.035156 24.074219 L 221.035156 20.074219 L 218.753906 20.074219 L 218.753906 19.34375 Z M 80.238281 36.410156 C 77.972656 37.335938 74.304688 37.171875 73.410156 36.410156 C 72.515625 35.644531 72.605469 33.207031 72.605469 33.207031 L 73.640625 31.4375 C 73.386719 32.167969 73.28125 32.917969 73.320312 33.691406 C 73.359375 34.464844 73.546875 35.203125 73.875 35.902344 L 75.007812 35.972656 C 73.207031 33.371094 75.910156 31.230469 75.910156 31.230469 L 81.148438 31.230469 C 81.796875 31.5625 82.1875 32.085938 82.316406 32.804688 C 82.671875 34.039062 82.539062 35.472656 80.238281 36.410156 Z M 103.019531 24.464844 C 103.019531 24.464844 102.71875 24.984375 101.492188 24.964844 C 99.285156 24.964844 88.777344 24.664062 88.777344 24.664062 C 88.777344 24.664062 87.511719 22.523438 88.777344 21.058594 L 103.390625 21.058594 Z M 143.789062 20.074219 L 136.277344 20.074219 L 136.277344 19.34375 L 143.789062 19.34375 Z M 154.101562 20.074219 L 146.589844 20.074219 L 146.589844 19.34375 L 154.101562 19.34375 Z M 167.207031 19.34375 L 174.71875 19.34375 L 174.71875 20.074219 L 167.207031 20.074219 Z M 156.894531 19.34375 L 164.40625 19.34375 L 164.40625 20.074219 L 156.894531 20.074219 Z M 181.699219 26.675781 L 155.925781 26.675781 L 155.925781 24.328125 L 180.75 24.328125 L 180.75 25.832031 L 181.699219 25.832031 Z M 185.03125 20.074219 L 177.519531 20.074219 L 177.519531 19.34375 L 185.03125 19.34375 Z M 195.335938 20.074219 L 187.824219 20.074219 L 187.824219 19.34375 L 195.335938 19.34375 Z M 205.648438 20.074219 L 198.136719 20.074219 L 198.136719 19.34375 L 205.648438 19.34375 Z M 215.960938 20.074219 L 208.449219 20.074219 L 208.449219 19.34375 L 215.960938 19.34375 Z M 215.960938 20.074219 " fill-opacity="1" fill-rule="nonzero"/></g></svg>